<svg xmlns="http://www.w3.org/2000/svg" xmlns:xlink="http://www.w3.org/1999/xlink" width="54.55" height="54.55" viewBox="0 0 54.55 54.55"><defs><linearGradient id="a" x1="0.5" x2="0.5" y2="1" gradientUnits="objectBoundingBox"><stop offset="0" stop-color="#ff2c32"/><stop offset="1" stop-color="#d81f0c"/></linearGradient><filter id="b" x="0" y="0" width="54.55" height="54.55" filterUnits="userSpaceOnUse"><feOffset dy="2" input="SourceAlpha"/><feGaussianBlur stdDeviation="3" result="c"/><feFlood flood-color="#dbe3ff"/><feComposite operator="in" in2="c"/><feComposite in="SourceGraphic"/></filter></defs><g transform="translate(-99 -2648)"><g transform="translate(-45.5 2353)"><g transform="matrix(1, 0, 0, 1, 144.5, 295)" filter="url(#b)"><path d="M9.4,0H27.151a9.4,9.4,0,0,1,9.4,9.4V27.151a9.4,9.4,0,0,1-9.4,9.4H9.4a9.4,9.4,0,0,1-9.4-9.4V9.4A9.4,9.4,0,0,1,9.4,0Z" transform="translate(9 7)" fill="url(#a)"/></g></g><g transform="translate(114 2660)"><path d="M24.586,18.529,24.9,4.888,12.032,0,0,6.634,2.12,20.187l11.219,7.1a.829.829,0,0,0,1.1,0l10.149-8.754M23.1,6.925l-.088,10.352-.06.67-8.512,6.766-.813-11.39.027-.027q.071-.115,2.587-1.763L23.1,6.908M11.532,1.977l.549-.291,10.143,3.9L12.7,12.043l-10.258-5L9.676,2.965l1.049-.582.027-.027.176-.06.6-.319M1.8,8.5l10.231,5.063.84,11.285L3.515,19.221Z" fill="#fff"/></g></g></svg>