<svg xmlns="http://www.w3.org/2000/svg" width="451.499" height="325.384" viewBox="0 0 451.499 325.384"><g transform="translate(-869.922 -382.034)"><g transform="translate(869.922 382.034)"><path d="M1304.156,705.413l-397.31.729c-5.833-15.924-51.4-145.748,8.239-247.5.927-1.581,2.067-3.527,3.421-5.755a213.148,213.148,0,0,1,23.1-31.608c14.467-16.148,34.206-32.051,59.122-37.544,28.343-6.249,41.444,5.812,72.365,18.469,3.463,1.418,7.151,2.843,11.108,4.251,6.269,2.23,13.215,4.417,21.024,6.461q.787.2,1.584.409,3.9,1,8.081,1.939c7.753,1.743,14.947,3.037,21.658,3.977,4.06.568,7.942,1.007,11.665,1.338,42.113,3.745,63.669-6.35,88.4.618a76.493,76.493,0,0,1,21.516,10.2q3.571,2.355,6.893,4.942a118.124,118.124,0,0,1,12.107,10.847,134.25,134.25,0,0,1,10.061,11.607c23.755,30.721,32.827,68.161,36.061,81.5C1343.076,622.1,1311.622,690.182,1304.156,705.413Z" transform="translate(-878.209 -382.033)" fill="#fff" opacity="0.66"/><g transform="translate(182.333 20.17)"><path d="M1374.912,457.847c0,28.687-20.218,51.942-45.158,51.942s-45.158-23.255-45.158-51.942a56.1,56.1,0,0,1,12.551-35.933c3.463,1.418,7.151,2.843,11.108,4.251,6.269,2.23,13.215,4.417,21.023,6.461q.787.2,1.585.409,3.9,1,8.081,1.939c7.753,1.743,14.947,3.037,21.658,3.977,4.06.568,7.942,1.007,11.665,1.338A58.92,58.92,0,0,1,1374.912,457.847Z" transform="translate(-1284.596 -421.914)" fill="#dee4ff"/><g transform="translate(10.208 4.251)"><path d="M1377.712,462.015c0,22.2-15.648,40.2-34.949,40.2s-34.95-18-34.95-40.2c0-12.877,5.264-24.34,13.451-31.7,6.269,2.23,13.215,4.417,21.023,6.461q.787.2,1.585.409,3.9,1,8.081,1.939c7.753,1.743,14.947,3.037,21.658,3.977A44.862,44.862,0,0,1,1377.712,462.015Z" transform="translate(-1307.812 -430.319)" fill="#fff"/><ellipse cx="3.407" cy="3.918" rx="3.407" ry="3.918" transform="translate(32.098 27.764)" fill="#dee4ff"/><path d="M1387.8,443.5v23.354a.8.8,0,1,1-1.584,0V443.094Q1387,443.3,1387.8,443.5Z" transform="translate(-1351.742 -436.633)" fill="#dee4ff"/><g transform="translate(35.701 31.361)"><path d="M.852-.06a.721.721,0,0,1,.792.792L.215,21.187A1.011,1.011,0,0,1-.7,22.1a.721.721,0,0,1-.792-.792L-.06.852A1.011,1.011,0,0,1,.852-.06Z" transform="translate(15.694 16.763) rotate(135)" fill="#dee4ff"/></g></g></g><g transform="translate(303.979 39.163)"><path d="M1666.255,497.06V625.425a3.666,3.666,0,0,1-3.385,3.894h-98.231a3.666,3.666,0,0,1-3.385-3.894V463.36a3.666,3.666,0,0,1,3.385-3.893h51.037a76.5,76.5,0,0,1,21.516,10.2q3.571,2.355,6.893,4.942a118.1,118.1,0,0,1,12.107,10.847A134.2,134.2,0,0,1,1666.255,497.06Z" transform="translate(-1561.254 -459.467)" fill="#dee4ff"/><path d="M1670.653,500.248V625.079a3.666,3.666,0,0,1-3.385,3.893h-76.822a3.666,3.666,0,0,1-3.385-3.893V493.295a3.666,3.666,0,0,1,3.385-3.894h68.1A118.112,118.112,0,0,1,1670.653,500.248Z" transform="translate(-1575.713 -474.261)" fill="#fff"/><rect width="9.532" height="153.145" rx="4.766" transform="translate(47.053 8.005)" fill="#dee4ff"/><rect width="10.964" height="96.225" rx="5.482" transform="translate(102.428 79.096) rotate(90)" fill="#dee4ff"/></g><g transform="translate(40.297 39.245)"><path d="M1066.569,463.523V625.588a3.666,3.666,0,0,1-3.386,3.893h-98.23a3.666,3.666,0,0,1-3.385-3.893V491.237a213.136,213.136,0,0,1,23.1-31.608h78.516A3.666,3.666,0,0,1,1066.569,463.523Z" transform="translate(-961.568 -459.629)" fill="#dee4ff"/><rect width="83.592" height="139.571" rx="14.047" transform="translate(11.348 15.14)" fill="#fff"/><rect width="9.532" height="153.145" rx="4.766" transform="translate(47.054 8.005)" fill="#dee4ff"/><rect width="10.964" height="96.225" rx="5.482" transform="translate(102.429 79.096) rotate(90)" fill="#dee4ff"/></g><g transform="translate(291.027 79.623)"><g transform="translate(0.309 54.919)"><path d="M1630.6,928.616q-.5,1.881-1.056,3.8H1575.33q.184-1.929.372-3.8c1.527-15.338,3.189-28.1,4.905-38.729,1.008-6.25,2.035-11.759,3.064-16.615q.258-1.218.516-2.381c7.953-35.884,15.821-33.576,15.821-33.576l14.619,5.174,17.431,6.169c.584,6.1,3.067,16.186,3.862,30.131A156.725,156.725,0,0,1,1630.6,928.616Z" transform="translate(-1556.497 -741.579)" fill="#4f6bfd"/><path d="M1720.845,924.752H1668.6q-.348-1.922-.68-3.8-1.295-7.325-2.356-14.045c-2.311-14.56-3.859-26.982-4.9-37.175-2.271-22.31-2.093-33.943-2.093-33.943l2.693-.963,36.5-13.051c5.956,1.4,2.085,1.41,9.874,20.9a118.625,118.625,0,0,1,5.39,20.142c.017.086.033.171.051.258.028.143.055.288.083.432.051.267.1.536.154.806,0,.012.005.025.007.037q.1.543.2,1.092c.007.039.015.077.022.116.03.162.06.324.09.487.949,5.192,1.837,10.866,2.67,16.906,1.6,11.6,2.992,24.543,4.2,38Q1720.68,922.844,1720.845,924.752Z" transform="translate(-1603.137 -733.91)" fill="#4f6bfd"/><path d="M1593.565,776.967c9.87,7.113,83.113,14.368,83.346.193.109-6.552-.561-27.463-2.739-50.586-.932-9.852-2.134-20.107-3.671-29.817-3.19-20.132-7.794-37.943-14.349-45.056-35.281-6.618-41.917-2.212-41.917-2.212S1589.8,658.889,1593.565,776.967Z" transform="translate(-1566.494 -648.052)" fill="#fdbd28"/><path d="M1733.329,732.658l19.374,35.732c-.932-9.852-2.134-20.107-3.671-29.817Z" transform="translate(-1645.024 -689.867)" opacity="0.19"/><path d="M1590.309,724.658s1.885-16.969,9.153-26.013c0,0-2.106,6.351-4.691,23.308Z" transform="translate(-1564.89 -673.057)" opacity="0.19"/><path d="M1774.777,827.577s30.885-49.055,9.984-84.827c-3.9-6.673-5.257-6.033-11.4-2.665a11.579,11.579,0,0,0-1.74,1.166c-3.044,2.46-13.932-4.412-16.263,4.045,0,0,9.061,13.393,10.743,16.626,5.609,10.73,8.472,35.294.711,62.047Z" transform="translate(-1657.368 -692.316)" fill="#fcc0bf"/><path d="M1676.83,992.272H1671.3l.3-3.8,1.1-14.045,1.252-16.038,2.559,30.083Z" transform="translate(-1610.269 -801.431)" opacity="0.29"/><path d="M1726.9,654.4s17.775.9,42.166,49.863c0,0-12.9,10.9-24.452,11.479,0,0-23.672-24.231-21.2-36.306A237.9,237.9,0,0,0,1726.9,654.4Z" transform="translate(-1639.365 -651.191)" fill="#fdbd28"/><path d="M1771.148,905.651l2.093-3.127c.151-.318,6.074,6.305,6.074,6.305s-4.438,15.552-5.213,16.467-.3-4.794-.3-4.794-1.409,5.322-2.67,6.657c-1,1.063.3-6.536.3-6.536-1.17,2.894-2.784,7.732-3.646,7.451-1.08-.352,1.813-8.962,1.813-8.962s-2.3,5.518-3.4,5.519,2.46-11.834,2.46-11.834a5.562,5.562,0,0,1-4.688.6l-.018-.007a1.026,1.026,0,0,1,.17-1.84C1767.283,910.668,1771.148,905.651,1771.148,905.651Z" transform="translate(-1661.901 -773.816)" fill="#fcc0bf"/><path d="M1549.743,826.216s-30.886-49.055-9.984-84.827c3.9-6.673,5.257-6.034,11.4-2.666a11.592,11.592,0,0,1,1.741,1.166c3.044,2.461,13.931-4.411,16.263,4.045,0,0-9.061,13.393-10.743,16.626-5.609,10.73-8.471,35.293-.711,62.047Z" transform="translate(-1532.5 -691.644)" fill="#fcc0bf"/><path d="M1585.925,653.044s-17.775.9-42.166,49.863c0,0,12.9,10.9,24.452,11.479,0,0,23.672-24.231,21.2-36.305A238,238,0,0,1,1585.925,653.044Z" transform="translate(-1538.808 -650.519)" fill="#fdbd28"/><path d="M1580.414,901.841l-2.094-3.127c-.152-.318-6.073,6.305-6.073,6.305s4.438,15.552,5.213,16.467.3-4.793.3-4.793,1.41,5.322,2.67,6.657c1,1.063-.3-6.537-.3-6.537,1.17,2.894,2.784,7.732,3.647,7.452,1.08-.352-1.812-8.962-1.812-8.962s2.3,5.518,3.4,5.519-2.46-11.834-2.46-11.834a5.564,5.564,0,0,0,4.689.6l.018-.008a1.025,1.025,0,0,0-.17-1.839C1584.279,906.858,1580.414,901.841,1580.414,901.841Z" transform="translate(-1554.77 -771.933)" fill="#fcc0bf"/></g><path d="M1795.462,753.049s18.424,37.567-12.322,82.152l-7.882-4.217s6.641-25.593,4.211-42.2-9.1-24.972-9.1-24.972Z" transform="translate(-1665.468 -645.026)" fill="#fdbd28"/><path d="M1562.136,760.117s-15.792,29.586-4.426,67.566l-9.332,5.367s-28.115-39.494-11.126-83.391l2.393-.963,21.956,12.87Z" transform="translate(-1531.797 -642.875)" fill="#fdbd28"/><path d="M1590.283,757.069l2.161-24.426s-8.853,25.87-5.982,36.741Z" transform="translate(-1562.105 -634.941)" opacity="0.19"/><g transform="translate(41.821)"><g transform="translate(6.497 14.302)"><path d="M1642.506,571.756s-2.147,14.389.505,17.138c0,0,5.362.428,3.186-13.827S1642.506,571.756,1642.506,571.756Z" transform="translate(-1641.686 -567.742)" fill="#2b1a82"/></g><g transform="translate(1.857 26.44)"><ellipse cx="5.389" cy="5.904" rx="5.389" ry="5.904" fill="#fcc0bf"/></g><g transform="translate(13.52 36.928)"><path d="M1662.209,639.264a11.167,11.167,0,0,0,6.781,1.121c3.961-.688,6.749-4.722,6.332-9.092a68.027,68.027,0,0,1-.02-9.856l.009-.146c.284-4.769-3.158-8.812-7.521-8.812h-2.3c-4.3,0-7.752,3.875-7.659,8.581.041,2.107.046,3.9.026,5.438-.025,1.82-.088,3.269-.173,4.422A8.472,8.472,0,0,0,1662.209,639.264Z" transform="translate(-1657.659 -612.479)" fill="#fcc0bf"/></g><g transform="translate(13.388 36.928)" opacity="0.31"><path d="M1657.689,626.5a12.353,12.353,0,0,0,3.666.985c6.688.837,11.422-3.3,13.78-6.047.285-4.876.829-8.958.829-8.958h-18.6C1657.658,618.673,1657.734,623.2,1657.689,626.5Z" transform="translate(-1657.359 -612.479)" fill="#29114d"/></g><g transform="translate(7.682 9.151)"><path d="M1672.127,565.969s7.064,31.459-11.979,31.862c-20.934.443-14.987-31.29-14.987-31.29S1657.208,546.718,1672.127,565.969Z" transform="translate(-1644.38 -557.559)" fill="#fcc0bf"/></g><g transform="translate(0 0.159)"><path d="M1662.979,576.951c-.26.379-2.7-10.173-1.263-18.866-31.156.107-30.361,7.377-34.806-13.459,0,0,15.647-7.755,28.936-3.646,13.175,4.074,10.184,17.156,10.184,17.156S1669.119,568.006,1662.979,576.951Z" transform="translate(-1626.91 -539.78)" fill="#2b1a82"/></g><g transform="translate(27.576 18.517)"><path d="M1699.042,577.769s-5.828-.426-9.416.938c0,0,5.612-3.1,7.7-2.571S1699.042,577.769,1699.042,577.769Z" transform="translate(-1689.626 -576.076)" fill="#2b1a82"/></g><g transform="translate(32.108 27.625)"><ellipse cx="5.139" cy="5.63" rx="5.139" ry="5.63" fill="#fcc0bf"/></g><g transform="translate(16.837 37.131)"><path d="M1673.952,612.881l-8.75.113s.573,5.667,5,5.6C1674.227,618.535,1673.952,612.881,1673.952,612.881Z" transform="translate(-1665.202 -612.881)" fill="#29114d"/></g><g transform="translate(25.198 25.068)"><ellipse cx="1.552" cy="1.785" rx="1.552" ry="1.785" fill="#29114d"/></g><g transform="translate(14.274 25.019)"><ellipse cx="1.552" cy="1.785" rx="1.552" ry="1.785" fill="#29114d"/></g><g transform="translate(37.478 11.732)"><path d="M1713.788,569.446a17.155,17.155,0,0,0,1.1-6.784s-1.523,4.319-2.5,5.446S1713.788,569.446,1713.788,569.446Z" transform="translate(-1712.146 -562.662)" fill="#2b1a82"/></g><g transform="translate(37.993 16.213)"><path d="M1714.189,574.059a26.891,26.891,0,0,1,1.387,6.128,13.041,13.041,0,0,0-1.387-7.507C1712.224,569.426,1714.189,574.059,1714.189,574.059Z" transform="translate(-1713.316 -571.522)" fill="#2b1a82"/></g><g transform="translate(10.453)"><path d="M1665.236,539.945s-4.863-.816-14.553-.321l7.276.855Z" transform="translate(-1650.684 -539.465)" fill="#2b1a82"/></g></g><g transform="translate(52.377 3.291)" opacity="0.2"><path d="M1676.542,555.713a16.163,16.163,0,0,0-7.245-7.16,20.985,20.985,0,0,0-11.223-1.751,43.351,43.351,0,0,0-6.762,1.164c-.4.1-.568-.6-.169-.7,7.347-1.826,15.859-2.443,22.15,3.146a16.665,16.665,0,0,1,3.8,4.935c.206.407-.342.774-.547.368Z" transform="translate(-1650.916 -545.971)" fill="#fff"/></g><g transform="translate(45.471 5.189)" opacity="0.2"><path d="M1640.519,550.441a44.184,44.184,0,0,1-4.911,1.156c-.4.07-.571-.633-.169-.7a44.014,44.014,0,0,0,4.911-1.156c.4-.117.564.586.169.7Z" transform="translate(-1635.21 -549.724)" fill="#fff"/></g><g transform="translate(52.737 11.676)" opacity="0.2"><path d="M1673.957,565.175a33.25,33.25,0,0,0-5.2-1.536,26.488,26.488,0,0,0-5.652-.338c-3.7.127-7.37.754-11.066.974-.408.024-.407-.705,0-.729,3.763-.224,7.5-.87,11.268-.98a27.256,27.256,0,0,1,5.417.335,32.55,32.55,0,0,1,5.4,1.571c.389.139.223.844-.169.7Z" transform="translate(-1651.736 -562.55)" fill="#fff"/></g><g transform="translate(78.917 19.268)" opacity="0.2"><path d="M1711.673,577.569c.391.088.414,1.093.454,1.411a16.421,16.421,0,0,1,.087,3.445c-.04.463-.674.467-.634,0a15.933,15.933,0,0,0-.02-2.834c-.032-.35-.075-.7-.137-1.043a1.506,1.506,0,0,1-.059-.3c.015-.246-.185-.054.14.02-.4-.091-.231-.794.168-.7Z" transform="translate(-1711.276 -577.561)" fill="#fff"/></g><path d="M1650.1,648.012l8.374,10.073-4.878,5.778-9.142-15.078Z" transform="translate(-1594.918 -593.113)" fill="#fa7701"/><path d="M1676.406,658.9l4.907,5.258,9.168-13.69-5.337-.769Z" transform="translate(-1612.821 -593.944)" fill="#fa7701"/><path d="M1575.843,900.471l-10.083,5.876-2.487-3.634L1574.9,896.3Z" transform="translate(-1549.433 -715.824)" fill="#fa7701"/><path d="M1781.132,903.065l1.105-4.18,9.449,5.881-2.151,2.938Z" transform="translate(-1671.499 -717.104)" fill="#fa7701"/></g><g transform="translate(6.408 76.418)"><path d="M893.151,699.812q.228.4.465.793c5.99,10.02,15.051,17.784,27.528,20.065.233.043.466.084.7.123,9.575,1.576,21.124-.042,34.8-6.273,33.922-15.457,55.018-20.02,67.435-25.776.234-.108.463-.217.691-.325,11.072-5.316,14.935-11.82,14.771-28.787v0c0-.3-.007-.6-.012-.9-.035-1.982-.122-4.1-.255-6.377-.184-3.141-.434-6.067-.744-8.8-.034-.307-.07-.613-.105-.917-4.216-35.224-18.374-37.669-27.826-56.992-10.255-20.965.319-34.515-1.4-38.426-.076-.174-.152-.341-.229-.5-.111-.234-.221-.459-.331-.671-3.118-6.017-6.254-3.627-6.254-3.627a9.92,9.92,0,0,0-.261-1.4c-.057-.23-.129-.483-.214-.751-1-3.14-4.011-8.445-12.868-6.839q-1.109.2-2.125.444-.359.084-.706.174a26.379,26.379,0,0,0-6.215,2.411c-.2.109-.4.222-.585.336-3.872,2.3-6.329,5.432-8.732,9.127l-.474.737a119.943,119.943,0,0,1-8.061,11.957l-.077.094q-.345.426-.716.847c-6.516,7.411-18.492,13.664-27.32,21.152h0q-.524.442-1.032.893c-3.883,3.44-7.049,7.153-8.693,11.363-.091.232-.178.466-.259.7a17.545,17.545,0,0,0-.506,1.739,49.966,49.966,0,0,1-5.294,14.03c-.131.229-.267.459-.4.688-4.3,7.157-11.138,14.042-23.383,26.219l-.507.5-.74.736C882.126,648.594,881.091,678.849,893.151,699.812Z" transform="translate(-884.496 -533.129)" fill="#2b1a82"/><g transform="translate(28.273 52.647)"><path d="M1142.683,927.655q.194,1.876.385,3.8h-57.388q-.517-1.922-.981-3.8a162.962,162.962,0,0,1-4.725-48.863,200.409,200.409,0,0,1,2.622-22.055c.629-3.807,1.179-6.974,1.42-9.49l18.247-6.457,15.306-5.418s2.894-.849,6.984,6.279c2.812,4.9,6.189,13.568,9.581,28.872q.269,1.217.54,2.492c1.076,5.084,2.152,10.851,3.208,17.395C1139.553,900.762,1141.177,913.056,1142.683,927.655Z" transform="translate(-1022.15 -735.14)" fill="#4f6bfd"/><path d="M1054.613,840.307c-.2,5.85-.715,15.579-2.08,29-1.086,10.673-2.707,23.678-5.126,38.923q-.874,5.506-1.889,11.4-.325,1.883-.666,3.8H989.836q.17-1.911.346-3.8c1.2-12.906,2.554-25.295,4.1-36.486.872-6.322,1.8-12.262,2.8-17.7.032-.171.063-.342.094-.511.008-.041.016-.083.023-.123q.108-.576.214-1.143c0-.013,0-.027.007-.039q.081-.424.161-.843l.088-.452c.018-.091.035-.18.053-.271q.032-.166.065-.332a122.89,122.89,0,0,1,5.578-20.755c8.153-20.4,4.1-20.416,10.337-21.878l38.209,13.665,2.82,1.008S1054.758,835.973,1054.613,840.307Z" transform="translate(-971.791 -727.112)" fill="#4f6bfd"/><path d="M1093.741,772.19c-10.332,7.447-87.014,15.042-87.258.2-.115-6.859.587-28.752,2.867-52.96.976-10.315,2.234-21.05,3.843-31.216,3.34-21.077,8.159-39.724,15.022-47.171,36.938-6.929,43.885-2.316,43.885-2.316S1097.683,648.57,1093.741,772.19Z" transform="translate(-981.111 -637.224)" fill="#fdbd28"/><path d="M1033.3,725.8l-20.284,37.409c.976-10.315,2.234-21.05,3.843-31.216Z" transform="translate(-984.78 -681.002)" opacity="0.19"/><path d="M1196.671,717.426s-1.974-17.766-9.582-27.234c0,0,2.2,6.649,4.911,24.4Z" transform="translate(-1082.311 -663.403)" opacity="0.19"/><path d="M966.849,825.175s-32.336-51.358-10.453-88.808c4.082-6.987,5.5-6.317,11.932-2.791a12.136,12.136,0,0,1,1.823,1.22c3.186,2.576,14.585-4.619,17.026,4.235,0,0-9.486,14.021-11.248,17.406-5.872,11.234-8.869,36.95-.744,64.959Z" transform="translate(-948.796 -683.566)" fill="#fcc0bf"/><path d="M1116.817,994.12h-5.22l.323-3.8,2.4-28.192,1.312,16.794.89,11.4Z" transform="translate(-1040.013 -797.802)" opacity="0.29"/><path d="M1004.73,643.874s-18.61.944-44.145,52.2c0,0,13.51,11.408,25.6,12.018,0,0,24.783-25.368,22.2-38.009A249.021,249.021,0,0,1,1004.73,643.874Z" transform="translate(-955.401 -640.511)" fill="#fdbd28"/><path d="M998.39,906.913,996.2,903.64c-.159-.332-6.359,6.6-6.359,6.6s4.646,16.283,5.458,17.24.317-5.018.317-5.018,1.475,5.572,2.8,6.969c1.051,1.113-.312-6.843-.312-6.843,1.225,3.03,2.915,8.1,3.818,7.8,1.131-.368-1.9-9.382-1.9-9.382s2.4,5.777,3.557,5.778S1001,914.4,1001,914.4a5.824,5.824,0,0,0,4.909.627l.018-.007a1.074,1.074,0,0,0-.177-1.926C1002.436,912.166,998.39,906.913,998.39,906.913Z" transform="translate(-971.792 -768.891)" fill="#fcc0bf"/><path d="M1202.445,823.751s32.336-51.358,10.453-88.808c-4.082-6.986-5.5-6.316-11.932-2.79a12.112,12.112,0,0,0-1.823,1.22c-3.186,2.576-14.585-4.619-17.026,4.235,0,0,9.487,14.021,11.248,17.406,5.872,11.233,8.869,36.95.744,64.959Z" transform="translate(-1079.525 -682.862)" fill="#fcc0bf"/><path d="M1152.321,642.45s18.609.944,44.145,52.2c0,0-13.51,11.407-25.6,12.018,0,0-24.783-25.368-22.2-38.009A249,249,0,0,0,1152.321,642.45Z" transform="translate(-1060.678 -639.807)" fill="#fdbd28"/><path d="M1198.077,902.925l2.192-3.274c.159-.332,6.359,6.6,6.359,6.6s-4.646,16.282-5.458,17.24-.317-5.018-.317-5.018-1.476,5.572-2.8,6.97c-1.051,1.113.312-6.844.312-6.844-1.225,3.03-2.915,8.1-3.818,7.8-1.13-.368,1.9-9.382,1.9-9.382s-2.4,5.777-3.556,5.778,2.575-12.39,2.575-12.39a5.824,5.824,0,0,1-4.908.627l-.019-.008a1.074,1.074,0,0,1,.178-1.925C1194.03,908.178,1198.077,902.925,1198.077,902.925Z" transform="translate(-1083.952 -766.92)" fill="#fcc0bf"/></g><path d="M953.315,747.149s-19.288,39.331,12.9,86.008l8.252-4.415s-6.952-26.794-4.408-44.181,9.529-26.144,9.529-26.144Z" transform="translate(-919.844 -638.906)" fill="#fdbd28"/><path d="M1197.9,754.549s16.533,30.975,4.634,70.737l9.77,5.619s29.434-41.347,11.648-87.3l-2.505-1.008-22.986,13.474Z" transform="translate(-1060.097 -636.654)" fill="#fdbd28"/><path d="M1200.164,751.358l-2.262-25.573s9.269,27.085,6.262,38.466Z" transform="translate(-1060.097 -628.347)" opacity="0.19"/><path d="M1207.256,901.491l10.557,6.152,2.6-3.8-12.176-6.719Z" transform="translate(-1065.338 -713.027)" fill="#fa7701"/><path d="M995.022,904.207l-1.157-4.376-9.892,6.157,2.252,3.076Z" transform="translate(-940.233 -714.367)" fill="#fa7701"/><g transform="translate(2.253 0.652)"><g transform="translate(118.17 21.257)"><path d="M1159.225,576.447s5.753,38.336,24.648,57.536c0,0-17.448-13.887-25.5-56.925Z" transform="translate(-1158.371 -576.447)" fill="#2b1a82"/></g><g transform="translate(0 39.601)"><path d="M944.482,612.717s-23.907,47.04-54.861,50.884c0,0,26.869,1.876,55.6-48.97Z" transform="translate(-889.621 -612.717)" fill="#2b1a82"/></g><g transform="translate(35.8)"><path d="M1034.834,534.418s-32.931,39.169-63.793,34.453c0,0,25.715,9.157,64.116-32.392Z" transform="translate(-971.041 -534.418)" fill="#2b1a82"/></g><g transform="translate(92.111 34.621)"><path d="M1104.069,630.789c1.734.644,3.859.527,6.483-.285a7.976,7.976,0,0,0,5.368-7.366c.076-1.168.209-2.637.426-4.471.113-.921.238-1.931.4-3.054q.149-1.13.344-2.4c.71-4.713-2.009-9.164-6.034-9.868l-2.161-.378c-4.085-.714-7.847,2.783-8.216,7.616a.923.923,0,0,1-.011.148c-.191,2.43-.46,5.057-.854,7.441-.139.857-.3,1.68-.472,2.451C1098.373,624.946,1100.449,629.455,1104.069,630.789Z" transform="translate(-1099.106 -602.871)" fill="#fcc0bf"/></g><g transform="translate(92.822 34.621)" opacity="0.19"><path d="M1101.588,610.579a.87.87,0,0,1-.011.148c-.191,2.43-.46,5.057-.854,7.441,9.4,1.915,14.674-.817,16.932-2.556q.149-1.13.344-2.4c.711-4.713-2.009-9.164-6.034-9.868l-2.161-.378C1105.719,602.249,1101.957,605.747,1101.588,610.579Z" transform="translate(-1100.724 -602.871)"/></g><g transform="translate(87.013 7.227)"><path d="M15.427-.059c8.52-.033,15.4,9.115,15.359,20.431s-6.976,20.517-15.5,20.55S-.106,31.807-.069,20.491,6.907-.027,15.427-.059Z" transform="translate(0 0.909) rotate(-1.468)" fill="#fcc0bf"/></g><g transform="translate(82.856 22.336)"><path d="M1088.438,584.4c.074,3.3-2.19,6.037-5.056,6.122s-5.248-2.519-5.322-5.816,2.19-6.037,5.055-6.121S1088.364,581.1,1088.438,584.4Z" transform="translate(-1078.058 -578.581)" fill="#fcc0bf"/></g><g transform="translate(110.306 28.937)"><path d="M1.262,0a1.169,1.169,0,0,1,1.257,1.07A1.19,1.19,0,0,1,1.253,2.144,1.169,1.169,0,0,1,0,1.074,1.19,1.19,0,0,1,1.262,0Z" transform="translate(0 2.523) rotate(-88.486)" fill="#29114d"/></g><g transform="translate(99.515 28.609)"><path d="M1.262,0a1.169,1.169,0,0,1,1.257,1.07A1.19,1.19,0,0,1,1.253,2.144,1.169,1.169,0,0,1,0,1.074,1.19,1.19,0,0,1,1.262,0Z" transform="translate(0 2.523) rotate(-88.486)" fill="#29114d"/></g><g transform="translate(109.746 26.571)"><path d="M1143.083,589.03a.5.5,0,0,0,.422-.246.661.661,0,0,0-.113-.84,4.211,4.211,0,0,0-3.805-.8.619.619,0,0,0-.35.749.513.513,0,0,0,.651.4,3.267,3.267,0,0,1,2.888.618A.473.473,0,0,0,1143.083,589.03Z" transform="translate(-1139.214 -586.955)" fill="#29114d"/></g><g transform="translate(98.334 25.957)"><path d="M1117.175,587.46a.515.515,0,0,0,.456-.306.653.653,0,0,0-.2-.82,4.1,4.1,0,0,0-3.86-.192.638.638,0,0,0-.27.79.5.5,0,0,0,.688.313,3.207,3.207,0,0,1,2.929.138A.472.472,0,0,0,1117.175,587.46Z" transform="translate(-1113.258 -585.74)" fill="#29114d"/></g><g transform="translate(100.981 39.197)"><path d="M1126.233,612.294l-6.915-.375a3.635,3.635,0,0,0,3.5,4.284C1126.021,616.555,1126.233,612.294,1126.233,612.294Z" transform="translate(-1119.28 -611.919)" fill="#29114d"/></g><g transform="translate(86.082 6.228)"><path d="M1087.226,562.843l2.1,8.3s-.9-9.669,3.421-11.2,11.4,5.45,19.536-1.827c0,0-1.672,10.37-15.53,10.778,0,0,12.551,1.975,16.756-10.658l4.626,6.275-.2-9.064s-6.964-7.457-9.43-8.322-10.468,0-10.468,0-3.278-.685-6.849,3.8-3.445,4.011-3.445,4.011l-2.345,4.6Z" transform="translate(-1085.395 -546.733)" fill="#2b1a82"/></g><g transform="translate(93.935 32.867)" opacity="0.53"><ellipse cx="2.616" cy="3.009" rx="2.616" ry="3.009" fill="#f29c9c"/></g><g transform="translate(110.65 34.552)" opacity="0.53"><ellipse cx="2.616" cy="3.009" rx="2.616" ry="3.009" fill="#f29c9c"/></g><g transform="translate(116.279 10.465)" opacity="0.15"><path d="M1154.3,555.825c2.829.8,4.069,4.56,2.444,7.335-.228.39.32.755.547.367,1.85-3.16.385-7.494-2.823-8.4-.4-.112-.565.59-.168.7Z" transform="translate(-1154.071 -555.11)" fill="#fff"/></g><g transform="translate(99.015 15.708)" opacity="0.15"><path d="M1125.155,565.542a7.347,7.347,0,0,1-4.58,1.287c-.874.025-1.749.024-2.623-.008a5.266,5.266,0,0,1-2.667-.524c-.359-.221-.68.408-.32.629a5.026,5.026,0,0,0,2.48.6c1.042.055,2.087.06,3.13.03a7.9,7.9,0,0,0,4.9-1.386c.333-.265.016-.9-.32-.629Z" transform="translate(-1114.807 -565.477)" fill="#fff"/></g><g transform="translate(92.441 10.884)" opacity="0.15"><path d="M1117.241,557.419a7.293,7.293,0,0,0-4.344-1.4,21.566,21.566,0,0,0-4.863.123,13.224,13.224,0,0,0-4.4,1.728,14.777,14.777,0,0,0-3.689,2.975c-.291.329.157.844.448.516a14.06,14.06,0,0,1,7.61-4.483,20.25,20.25,0,0,1,4.5-.151,7.113,7.113,0,0,1,4.412,1.323c.329.277.646-.355.319-.629Z" transform="translate(-1099.856 -555.938)" fill="#fff"/></g><g transform="translate(67.564 5.211)" opacity="0.15"><path d="M1086.95,548.342c-2.088-3.555-6.043-4.013-9.439-3.384a25.186,25.186,0,0,0-10.275,4.557c-6.114,4.513-9.892,11.725-14.39,18.064-2.489,3.508-5.395,7.4-9.342,8.622-.393.123-.226.825.168.7,3.314-1.03,5.879-3.871,8.1-6.747,2.28-2.954,4.275-6.175,6.37-9.3a49.629,49.629,0,0,1,7.065-8.764,25.725,25.725,0,0,1,9.674-5.724c3.744-1.2,9-1.962,11.524,2.339.227.386.775.022.547-.368Z" transform="translate(-1043.28 -544.721)" fill="#fff"/></g><g transform="translate(38.342 41.462)" opacity="0.15"><path d="M1000.419,616.5c-3.39,3.79-7.807,6.024-11.338,9.618a45.59,45.59,0,0,0-8.525,13.208c-1.357,2.987-2.542,6.071-3.705,9.163-.16.426.385.8.547.368a93.636,93.636,0,0,1,6.936-15.385,37.667,37.667,0,0,1,4.658-6.277,41.006,41.006,0,0,1,5.593-4.8,41.242,41.242,0,0,0,6.282-5.383c.293-.327-.155-.842-.448-.515Z" transform="translate(-976.821 -616.397)" fill="#fff"/></g><g transform="translate(67.681 34.905)" opacity="0.15"><path d="M1058.118,603.612c-3.3,6.928-8.964,11.635-14.434,16.125-.329.27-.014.9.319.629,5.558-4.562,11.311-9.347,14.661-16.386.2-.411-.351-.78-.547-.368Z" transform="translate(-1043.545 -603.432)" fill="#fff"/></g><g transform="translate(79.914 41.25)" opacity="0.15"><path d="M1080.613,616.23a16.594,16.594,0,0,1-9.032,10.781c-.379.161-.215.865.168.7a17.326,17.326,0,0,0,9.474-11.289.321.321,0,1,0-.61-.194Z" transform="translate(-1071.367 -615.978)" fill="#fff"/></g><g transform="translate(6.496 92.159)" opacity="0.15"><path d="M923.6,716.75c-4.631,5.784-9.845,10.96-13.968,17.269a31.337,31.337,0,0,0-4.555,10.024,38.744,38.744,0,0,0-.313,12.733c.519,4.958,1.265,9.909.848,14.918-.039.466.595.463.633,0a66.487,66.487,0,0,0-.641-13.044c-.48-4.216-.917-8.529-.24-12.751,1.246-7.772,6.271-14,10.891-19.479,2.584-3.066,5.278-6.012,7.794-9.155.276-.344-.171-.86-.448-.515Z" transform="translate(-904.395 -716.636)" fill="#fff"/></g></g><path d="M1127.172,637.182l-9.086,10.922,5.427,5.673,9.572-15.786Z" transform="translate(-1015.376 -584.556)" fill="#fa7701"/><path d="M1099.676,648.974l-4.848,5.107-9.6-14.333,5.587-.806Z" transform="translate(-996.966 -585.426)" fill="#fa7701"/></g><g transform="translate(146.309 44.986)"><g transform="translate(0.621 66.931)"><path d="M1428.183,926.964q.222,1.876.442,3.8h-68.678q-.368-1.922-.693-3.8a185.778,185.778,0,0,1-2.475-42.441c.968-17,3.994-29.293,4.706-36.72l21.243-7.518,17.817-6.306s9.589-2.813,19.282,40.919q.313,1.417.628,2.9c1.253,5.918,2.5,12.632,3.734,20.25C1425.559,906.52,1426.9,916.11,1428.183,926.964Z" transform="translate(-1289.469 -717.301)" fill="#fdbd28"/><path d="M1326.66,873.48c-1.235,12.149-3.067,26.9-5.781,44.138l-.185,1.17q-.208,1.307-.422,2.635h-65.166q.194-1.912.391-3.8c1.024-9.816,2.139-19.241,3.351-28.03,1.015-7.361,2.1-14.276,3.255-20.6l.109-.593c.008-.049.018-.1.026-.144q.123-.669.248-1.33c0-.016.006-.031.009-.045q.094-.493.187-.98c.034-.176.068-.352.1-.528.02-.1.041-.21.062-.315,1.979-10.122,4.162-18.526,6.569-24.549,9.492-23.751,4.774-23.767,12.033-25.469l44.479,15.907,3.282,1.173S1329.427,846.29,1326.66,873.48Z" transform="translate(-1232.67 -707.955)" fill="#fdbd28"/><path d="M1372.808,760.429c-4.281,3.085-18.343,6.192-34.7,8.135q-.487.059-.978.116a257.316,257.316,0,0,1-38.623,1.72l-.622-.027c-12.9-.608-23.059-2.752-25.877-7.162a4.8,4.8,0,0,1-.781-2.547c-.012-.711-.016-1.56-.012-2.538.02-5.2.271-14.024.847-24.906.019-.36.038-.722.058-1.087.295-5.437.669-11.361,1.135-17.584.014-.187.027-.374.042-.561.366-4.844.787-9.865,1.268-14.974.426-4.5.9-9.079,1.422-13.661q.034-.3.069-.6c0-.047.01-.093.016-.14h0q.154-1.352.317-2.7.089-.753.183-1.507c.73-5.977,1.549-11.93,2.466-17.724,3.442-21.719,8.233-41.222,14.829-51.425q.255-.4.517-.773h0a24.409,24.409,0,0,1,2.018-2.575h0c.041-.046.081-.091.123-.135.231-.044.46-.087.688-.128h0q.964-.179,1.9-.349c4.644-.841,8.858-1.519,12.683-2.06l.5-.071c29.283-4.088,35.305-.088,35.305-.088a8.679,8.679,0,0,1,2.312,1.628h0c2.015,1.815,5.126,5.512,8.427,12.8.078.171.155.345.233.52h0c4.413,9.943,9.125,26.34,11.992,53.235q.04.365.078.733.316,3.025.6,6.226h0q.037.414.072.831.156,1.807.3,3.669h0q.446,5.685.782,11.916c.01.187.02.374.03.562q.532,10.116.739,21.737l.009.563C1373.391,731.783,1373.288,745.382,1372.808,760.429Z" transform="translate(-1241.697 -603.318)" fill="#4f6bfd"/><path d="M1302.452,706.43l-23.612,43.547c1.136-12.007,2.6-24.5,4.473-36.339Z" transform="translate(-1245.968 -654.28)" opacity="0.19"/><path d="M1492.626,696.679s-2.3-20.681-11.154-31.7c0,0,2.566,7.74,5.718,28.405Z" transform="translate(-1359.502 -633.792)" opacity="0.19"/><path d="M1225.094,822.109s-37.641-59.785-12.168-103.38c4.752-8.133,6.408-7.353,13.891-3.248a14.087,14.087,0,0,1,2.121,1.421c3.709,3,16.979-5.377,19.82,4.93,0,0-11.044,16.321-13.094,20.262-6.835,13.077-10.324,43.013-.866,75.618Z" transform="translate(-1204.079 -657.264)" fill="#fcc0bf"/><path d="M1400.126,1003.71h-3.619l.324-3.8,1.563-18.379,1.435,18.379.092,1.17Z" transform="translate(-1311.896 -790.243)" opacity="0.29"/><path d="M1266.123,662.772h0q-.267.415-.54.829A170.255,170.255,0,0,1,1248.4,684.98v0c-.513.543-.8.837-.8.837-.378-.019-.757-.047-1.137-.085-13.231-1.277-27.5-12.939-28.6-13.849h0l-.065-.055q3.05-6.123,5.984-11.443l.277-.5c9.344-16.909,17.717-27.965,24.64-35.191.125-.132.252-.263.376-.392,6.42-6.626,11.565-9.939,15.044-11.594.176-.085.349-.164.516-.24.687-.31,1.3-.551,1.839-.74h0q.44-.154.811-.264h0a9.081,9.081,0,0,1,1.9-.4l0,.055a289.444,289.444,0,0,0,4.25,30.459C1274.611,647.275,1270.992,655.2,1266.123,662.772Z" transform="translate(-1211.769 -607.144)" fill="#4f6bfd"/><path d="M1261.811,917.259l-2.552-3.811c-.185-.387-7.4,7.685-7.4,7.685s5.409,18.953,6.353,20.068.369-5.841.369-5.841,1.717,6.485,3.254,8.113c1.224,1.3-.363-7.966-.363-7.966,1.426,3.527,3.393,9.423,4.444,9.081,1.316-.429-2.209-10.922-2.209-10.922s2.8,6.725,4.14,6.726-3-14.422-3-14.422,2.847,1.885,5.714.729l.021-.009a1.25,1.25,0,0,0-.206-2.241C1266.521,923.374,1261.811,917.259,1261.811,917.259Z" transform="translate(-1230.849 -756.589)" fill="#fcc0bf"/><path d="M1499.348,820.451s37.642-59.785,12.169-103.38c-4.752-8.132-6.408-7.353-13.891-3.248a14.145,14.145,0,0,0-2.122,1.42c-3.708,3-16.978-5.377-19.82,4.93,0,0,11.043,16.321,13.093,20.262,6.836,13.077,10.324,43.013.866,75.618Z" transform="translate(-1356.26 -656.444)" fill="#fcc0bf"/><path d="M1492.389,670.169s-.06.051-.175.146c-1.339,1.1-10.151,8.158-20.106,11.761q-.353.129-.708.251a34.106,34.106,0,0,1-7.446,1.725q-.613.065-1.223.1l-.142.008-.112-.116c-1.942-2.01-28.628-29.949-25.73-44.13A290.2,290.2,0,0,0,1441,609.4a8.255,8.255,0,0,1,1.549.3h0c2.257.615,6.891,2.462,13.324,7.981l.4.346c9.01,7.856,21.446,22.849,35.778,51.46.046.094.094.19.142.284Z" transform="translate(-1334.32 -606.324)" fill="#4f6bfd"/><path d="M1494.263,912.617l2.551-3.811c.185-.387,7.4,7.684,7.4,7.684s-5.409,18.954-6.353,20.069-.369-5.842-.369-5.842-1.718,6.485-3.255,8.113c-1.223,1.3.364-7.966.364-7.966-1.426,3.527-3.393,9.423-4.444,9.081-1.316-.429,2.208-10.922,2.208-10.922s-2.8,6.725-4.14,6.726,3-14.422,3-14.422-2.846,1.885-5.713.729l-.022-.009a1.25,1.25,0,0,1,.207-2.241C1489.553,918.731,1494.263,912.617,1494.263,912.617Z" transform="translate(-1361.412 -754.295)" fill="#fcc0bf"/></g><path d="M1239.924,744.4v0a31.239,31.239,0,0,0-2.255,3.456h0l-.1.17c-.133.233-.27.476-.41.73a77.124,77.124,0,0,0-8.327,26.074q-.24,1.639-.385,3.366-.025.278-.046.557c-1.149,14.908,2.465,33.832,4.409,42.617.678,3.061,1.152,4.891,1.152,4.891l-.36.193-8.877,4.75-.369.2-.1-.146a131.031,131.031,0,0,1-12.974-23.551c-.112-.268-.223-.535-.332-.8a109.547,109.547,0,0,1-7.541-28.56c-.022-.186-.044-.371-.065-.556a100.688,100.688,0,0,1,.081-24.007h0c.022-.181.045-.363.069-.542,1.788-13.685,5.844-21.957,5.844-21.957l.048.021h0l28.778,12.342Z" transform="translate(-1202.668 -599.63)" fill="#4f6bfd"/><path d="M1494.063,753.5c.028.05.328.62.813,1.667l-.162.095Z" transform="translate(-1365.936 -610.614)" fill="#4f6bfd"/><path d="M1532.061,764.566q0,.275-.011.548a109.885,109.885,0,0,1-1.5,15.887c-.031.183-.06.364-.092.546a121.106,121.106,0,0,1-2.963,12.9c-.052.18-.1.361-.156.539a131.778,131.778,0,0,1-6.787,18.112q-.121.264-.241.523c-1.194,2.565-2.358,4.846-3.419,6.812-.09.167-.18.332-.268.494a85.84,85.84,0,0,1-4.759,7.857l-11.373-6.541a118.633,118.633,0,0,0,4.748-42.057c-.011-.181-.023-.363-.036-.543h0a119.863,119.863,0,0,0-3.281-20.583c-.049-.2-.1-.389-.148-.582h0a107.485,107.485,0,0,0-4.245-13.133h0c-.591-1.481-1.115-2.678-1.525-3.57-.031-.069-.062-.137-.092-.2l1.242-.728h0l4.45-2.609.515-.3L1520.751,727h0l.676-.4,1.079-.632,2.818,1.133.1.04c.033.084.065.169.1.252q.11.283.216.566a98.159,98.159,0,0,1,4.044,13.632c.039.18.079.36.117.54A100.1,100.1,0,0,1,1532.061,764.566Z" transform="translate(-1366.972 -597.008)" fill="#4f6bfd"/><path d="M1496.693,736.18l-2.634-29.769s10.789,31.529,7.29,44.778Z" transform="translate(-1365.934 -587.339)" opacity="0.19"/><g transform="translate(62.475)"><g transform="translate(37.606 17.43)"><path d="M1435.412,510.334s2.617,17.536-.615,20.887c0,0-6.536.522-3.884-16.851S1435.412,510.334,1435.412,510.334Z" transform="translate(-1430.28 -505.442)" fill="#2b1a82"/></g><g transform="translate(36.259 32.223)"><ellipse cx="6.567" cy="7.195" rx="6.567" ry="7.195" fill="#fcc0bf"/></g><g transform="translate(13.602 45.005)"><path d="M1391.719,592.607a13.609,13.609,0,0,1-8.265,1.366c-4.826-.839-8.224-5.754-7.717-11.08a82.8,82.8,0,0,0,.024-12.012c0-.06-.007-.119-.011-.178-.346-5.812,3.849-10.739,9.165-10.739h2.8c5.236,0,9.447,4.722,9.334,10.458-.051,2.568-.057,4.76-.031,6.628.03,2.218.107,3.984.21,5.39A10.324,10.324,0,0,1,1391.719,592.607Z" transform="translate(-1375.688 -559.964)" fill="#fcc0bf"/></g><g transform="translate(12.666 45.005)" opacity="0.31"><path d="M1395.831,577.05a15.046,15.046,0,0,1-4.468,1.2c-8.15,1.02-13.921-4.022-16.794-7.369-.347-5.942-1.01-10.917-1.01-10.917h22.674C1395.868,567.513,1395.776,573.029,1395.831,577.05Z" transform="translate(-1373.559 -559.964)" fill="#29114d"/></g><g transform="translate(6.918 11.153)"><path d="M1362.047,503.282s-8.609,38.338,14.6,38.83c25.513.539,18.265-38.135,18.265-38.135S1380.229,479.821,1362.047,503.282Z" transform="translate(-1360.485 -493.032)" fill="#fcc0bf"/></g><g transform="translate(3.033 0.194)"><path d="M1356.316,516.666c.317.462,3.285-12.4,1.54-22.992,37.97.13,37,8.99,42.419-16.4,0,0-19.07-9.452-35.265-4.444-16.056,4.965-12.411,20.909-12.411,20.909S1348.833,505.764,1356.316,516.666Z" transform="translate(-1351.651 -471.364)" fill="#2b1a82"/></g><g transform="translate(6.541 22.567)"><path d="M1359.661,517.663s7.1-.52,11.476,1.143c0,0-6.839-3.774-9.387-3.133S1359.661,517.663,1359.661,517.663Z" transform="translate(-1359.629 -515.599)" fill="#2b1a82"/></g><g transform="translate(0 33.668)"><ellipse cx="6.263" cy="6.862" rx="6.263" ry="6.862" fill="#fcc0bf"/></g><g transform="translate(20.468 45.253)"><path d="M1391.307,560.455l10.664.137s-.7,6.906-6.09,6.827C1390.972,567.346,1391.307,560.455,1391.307,560.455Z" transform="translate(-1391.302 -560.455)" fill="#29114d"/></g><g transform="translate(17.164 30.552)"><ellipse cx="1.891" cy="2.175" rx="1.891" ry="2.175" fill="#29114d"/></g><g transform="translate(30.478 30.492)"><ellipse cx="1.891" cy="2.175" rx="1.891" ry="2.175" fill="#29114d"/></g><g transform="translate(2.599 14.299)"><path d="M1352.045,507.52a20.912,20.912,0,0,1-1.338-8.268s1.857,5.263,3.051,6.637S1352.045,507.52,1352.045,507.52Z" transform="translate(-1350.664 -499.252)" fill="#2b1a82"/></g><g transform="translate(2.503 19.76)"><path d="M1352.232,513.141a32.773,32.773,0,0,0-1.691,7.468s-.7-5.182,1.691-9.148S1352.232,513.141,1352.232,513.141Z" transform="translate(-1350.445 -510.049)" fill="#2b1a82"/></g><g transform="translate(21.181)"><path d="M1392.925,471.566s5.927-.995,17.735-.391l-8.868,1.042Z" transform="translate(-1392.925 -470.98)" fill="#2b1a82"/></g></g><g transform="translate(69.314 4.011)" opacity="0.2"><path d="M1361.03,490.782a19.7,19.7,0,0,1,8.828-8.726,25.575,25.575,0,0,1,13.678-2.134,52.827,52.827,0,0,1,8.241,1.42c.485.12.692-.736.206-.857-8.954-2.225-19.327-2.977-26.995,3.834a20.318,20.318,0,0,0-4.625,6.015c-.251.5.417.943.667.449Z" transform="translate(-1360.307 -478.91)" fill="#fff"/></g><g transform="translate(102.939 6.324)" opacity="0.2"><path d="M1437.054,484.356a53.6,53.6,0,0,0,5.985,1.409c.486.085.7-.771.205-.857a53.633,53.633,0,0,1-5.985-1.409c-.481-.143-.687.714-.205.857Z" transform="translate(-1436.779 -483.483)" fill="#fff"/></g><g transform="translate(73.271 14.23)" opacity="0.2"><path d="M1369.781,502.314a40.494,40.494,0,0,1,6.336-1.872,32.242,32.242,0,0,1,6.887-.412c4.509.155,8.983.918,13.486,1.187.5.03.5-.859,0-.889-4.586-.273-9.14-1.06-13.733-1.195a33.233,33.233,0,0,0-6.6.409,39.581,39.581,0,0,0-6.579,1.915c-.473.169-.272,1.028.205.857Z" transform="translate(-1369.306 -499.115)" fill="#fff"/></g><g transform="translate(67.714 23.482)" opacity="0.2"><path d="M1357.392,517.418c-.477.108-.5,1.332-.553,1.72a19.968,19.968,0,0,0-.106,4.2c.048.564.822.57.773,0a19.376,19.376,0,0,1,.024-3.453c.039-.426.092-.851.167-1.272a1.781,1.781,0,0,0,.071-.361c-.018-.3.226-.065-.171.025.488-.111.281-.968-.205-.857Z" transform="translate(-1356.668 -517.409)" fill="#fff"/></g><path d="M1412.2,603.269l-10.205,12.277,5.945,7.042,11.142-18.376Z" transform="translate(-1314.349 -536.362)" fill="#4741bb"/><path d="M1380.053,616.533l-5.981,6.408L1362.9,606.257l6.5-.938Z" transform="translate(-1292.445 -537.375)" fill="#4741bb"/><path d="M1504.949,910.946l12.289,7.162,3.031-4.429-14.173-7.821Z" transform="translate(-1372.036 -685.913)" fill="#4741bb"/><path d="M1257.891,914.109l-1.347-5.094-11.516,7.167,2.622,3.581Z" transform="translate(-1226.402 -687.474)" fill="#4741bb"/></g><path d="M1789.438,516.329V543.61c0,4.646-3.275,8.413-7.314,8.413h-31.482a6.454,6.454,0,0,1-2.43-.476,8.423,8.423,0,0,1-4.883-7.937V516.329c0-4.646,3.275-8.412,7.314-8.412h31.482c3.728,0,6.8,3.208,7.256,7.354A9.782,9.782,0,0,1,1789.438,516.329Z" transform="translate(-1359.29 -444.25)" fill="#4f6bfd"/><path d="M1759.595,590.266l-.951,8.2,16.32-8.93Z" transform="translate(-1367.872 -484.59)" fill="#4f6bfd"/><g transform="translate(390.138 75.787)"><rect width="35.017" height="0.734" rx="0.367" transform="translate(0 6.806)" fill="#fff" opacity="0.72"/><rect width="31.531" height="0.734" rx="0.367" fill="#fff"/><rect width="25.589" height="0.734" rx="0.367" transform="translate(0 13.57)" fill="#fff" opacity="0.57"/><rect width="30.264" height="0.734" rx="0.367" transform="translate(0 19.496)" fill="#fff" opacity="0.36"/></g><path d="M1789.38,515.271c-12.242,10.756-32.7,28.742-41.169,36.276a8.423,8.423,0,0,1-4.883-7.937V516.329c0-4.646,3.275-8.412,7.314-8.412h31.482C1785.852,507.917,1788.928,511.124,1789.38,515.271Z" transform="translate(-1359.29 -444.25)" fill="#fff" opacity="0.08"/><path d="M935.952,496.509v27.282c0,4.645,3.274,8.412,7.313,8.412h31.482a6.449,6.449,0,0,0,2.43-.475,8.423,8.423,0,0,0,4.883-7.936V496.509c0-4.645-3.274-8.412-7.313-8.412H943.265c-3.727,0-6.8,3.207-7.256,7.354A10,10,0,0,0,935.952,496.509Z" transform="translate(-906.918 -434.454)" fill="#4f6bfd"/><path d="M1003.753,570.446l.951,8.2-16.32-8.931Z" transform="translate(-936.296 -474.794)" fill="#4f6bfd"/><g transform="translate(34.025 65.763)"><rect width="35.017" height="0.734" rx="0.367" transform="translate(0 6.806)" fill="#fff" opacity="0.72"/><rect width="31.531" height="0.734" rx="0.367" fill="#fff"/><rect width="25.589" height="0.734" rx="0.367" transform="translate(0 13.57)" fill="#fff" opacity="0.57"/><rect width="30.264" height="0.734" rx="0.367" transform="translate(0 19.496)" fill="#fff" opacity="0.36"/></g><path d="M982.133,495.451c-12.243,10.756-32.7,28.741-41.168,36.276a8.424,8.424,0,0,1-4.884-7.936V496.509c0-4.645,3.274-8.412,7.314-8.412h31.482C978.6,488.1,981.68,491.3,982.133,495.451Z" transform="translate(-906.991 -434.454)" fill="#fff" opacity="0.08"/><g transform="translate(272.173 15.46)"><path d="M1560.537,419.917v29.476c0,4.04-2.848,7.315-6.36,7.315h-58.9c-3.512,0-6.359-3.275-6.359-7.315V419.917c0-4.039,2.847-7.315,6.359-7.315h58.9a6.463,6.463,0,0,1,5.951,4.734A8.258,8.258,0,0,1,1560.537,419.917Z" transform="translate(-1488.918 -412.602)" fill="#fdbd28"/><path d="M1507.762,492.6l-3.168,14.125,17.825-12.12Z" transform="translate(-1497.701 -452.141)" fill="#fdbd28"/><rect width="55.219" height="1.276" rx="0.638" transform="translate(8.873 11.027)" fill="#fff"/><rect width="46.422" height="1.276" rx="0.638" transform="translate(8.797 21.415)" fill="#fff" opacity="0.54"/><rect width="51.813" height="1.276" rx="0.638" transform="translate(8.398 31.804)" fill="#fff" opacity="0.39"/><path d="M1560.129,417.335c-15.382,11.443-44.742,30.872-64.319,28.8a26.138,26.138,0,0,1-6.892-1.637V419.917c0-4.039,2.847-7.315,6.359-7.315h58.9A6.463,6.463,0,0,1,1560.129,417.335Z" transform="translate(-1488.918 -412.602)" fill="#fff" opacity="0.16"/></g><g transform="translate(124.261 21.11)"><path d="M1152.526,431.088v29.476c0,4.04,2.847,7.315,6.359,7.315h58.9c3.512,0,6.359-3.275,6.359-7.315V431.088c0-4.039-2.848-7.315-6.359-7.315h-58.9a6.464,6.464,0,0,0-5.951,4.733A8.262,8.262,0,0,0,1152.526,431.088Z" transform="translate(-1152.526 -423.773)" fill="#fdbd28"/><path d="M1273.847,503.772l3.169,14.125-17.825-12.12Z" transform="translate(-1212.29 -463.312)" fill="#fdbd28"/><rect width="55.219" height="1.276" rx="0.638" transform="translate(62.746 12.302) rotate(180)" fill="#fff"/><rect width="46.422" height="1.276" rx="0.638" transform="translate(62.821 22.691) rotate(-180)" fill="#fff" opacity="0.54"/><rect width="51.813" height="1.276" rx="0.638" transform="translate(63.221 33.079) rotate(180)" fill="#fff" opacity="0.39"/><path d="M1223.916,428.506c-15.382,11.443-44.742,30.872-64.318,28.8a26.142,26.142,0,0,1-6.892-1.637V431.088c0-4.039,2.847-7.315,6.359-7.315h58.9A6.464,6.464,0,0,1,1223.916,428.506Z" transform="translate(-1152.627 -423.773)" fill="#fff" opacity="0.16"/></g><g transform="translate(378.455 249.019)"><path d="M1762.271,966.3c0,.716-.013,1.415-.031,2.091H1752.6c-.8-1.21-1.675-2.483-2.612-3.8a138.152,138.152,0,0,0-11.637-14.33c-13.627-14.58-5.07-40.187-5.07-40.187s-1.109,10.479,16.4,22.235a20.841,20.841,0,0,1,2.322,1.811c4.637,4.17,7.273,10.213,8.708,16.525q.177.779.331,1.563c.276,1.41.5,2.828.67,4.234a76.392,76.392,0,0,1,.546,8.15q.008.5.01.99h0C1762.272,965.824,1762.272,966.065,1762.271,966.3Z" transform="translate(-1730.631 -892.03)" fill="#13a173"/><path d="M1743.96,948.722c.2.405.4.8.612,1.2s.421.79.636,1.182c.431.782.872,1.557,1.329,2.319q1.362,2.293,2.864,4.464c1.009,1.439,2.047,2.851,3.157,4.183a45.642,45.642,0,0,0,3.486,3.807l.461.444c.152.15.312.288.468.433s.313.287.472.427l.482.413.972.836c.163.139.318.291.477.436s.32.289.47.446c.306.308.616.611.908.937s.583.652.869.985a24.757,24.757,0,0,1,1.587,2.13,23.348,23.348,0,0,1,1.35,2.334,21.817,21.817,0,0,1,1.068,2.517,19.445,19.445,0,0,1,.73,2.667,13.812,13.812,0,0,1,.29,2.764,11.328,11.328,0,0,0-.146-1.377c-.072-.455-.165-.9-.272-1.35s-.231-.883-.365-1.318c-.072-.215-.137-.433-.216-.645l-.114-.32c-.039-.106-.082-.21-.122-.316a22.913,22.913,0,0,0-2.5-4.695l-.381-.531c-.125-.178-.263-.346-.394-.519l-.2-.259-.206-.251c-.138-.165-.272-.336-.414-.5-.285-.321-.566-.648-.865-.953s-.6-.608-.9-.906c-.075-.075-.153-.148-.232-.218l-.235-.215c-.157-.142-.309-.29-.471-.426l-.968-.824-.49-.416c-.161-.141-.32-.287-.48-.431-.322-.284-.633-.585-.944-.884a50.027,50.027,0,0,1-6.628-8.146c-.487-.742-.968-1.49-1.427-2.255s-.907-1.539-1.34-2.323-.849-1.581-1.247-2.389S1744.312,949.556,1743.96,948.722Z" transform="translate(-1738.099 -911.132)" fill="#fff"/><path d="M1819.855,964.422c-5.4,4.176-9.587,7.623-12.815,10.469-1.6,1.412-2.965,2.675-4.129,3.8h-9.152c.206-1.217.457-2.492.762-3.8.009-.037.018-.075.027-.113v0a.072.072,0,0,1,0-.015c.31-1.326.677-2.69,1.107-4.063q.209-.663.437-1.33.452-1.315.989-2.627a31.586,31.586,0,0,1,9.637-13.322q1.079-.827,2.06-1.656c12.431-10.486,13.309-20.849,13.309-20.849S1833.32,954.021,1819.855,964.422Z" transform="translate(-1766.002 -902.331)" fill="#13a173"/><path d="M1825.545,956.65a7.53,7.53,0,0,1-.134.782c-.027.129-.06.258-.089.386s-.066.256-.1.382c-.144.507-.313,1-.5,1.492a25.6,25.6,0,0,1-1.288,2.835c-.484.912-1.011,1.791-1.566,2.646s-1.156,1.671-1.768,2.475a51.368,51.368,0,0,1-3.951,4.5c-1.39,1.413-2.844,2.739-4.338,4l-1.1.951c-.092.08-.186.157-.275.24l-.27.247-.539.494-.269.248-.262.257-.525.513c-.177.168-.347.346-.516.524l-.511.531a35.228,35.228,0,0,0-3.722,4.655l-.177.273h0c-.486.757-.943,1.538-1.361,2.348-.03.058-.059.117-.088.176q-.419.837-.776,1.714-.189.466-.356.942l-.066.184-.061.185-.12.371c-.043.135-.083.272-.12.409h-.2c.04-.162.079-.323.124-.484l.109-.382.055-.191.061-.188q.255-.8.573-1.57h0q.2-.5.429-.99c.055-.119.109-.236.166-.354a28.467,28.467,0,0,1,1.512-2.7l.324-.5h0l.1-.145.105-.16.11-.155.22-.312.221-.311.11-.156.115-.15.461-.6c.151-.2.315-.394.474-.589l.479-.582.5-.563.247-.282.124-.141.129-.136a48.517,48.517,0,0,1,4.3-4.066c1.488-1.247,2.934-2.562,4.322-3.95a55.454,55.454,0,0,0,3.974-4.4q.931-1.172,1.8-2.407c.571-.829,1.113-1.685,1.615-2.571a24.961,24.961,0,0,0,1.371-2.753c.2-.476.385-.963.545-1.459.042-.124.079-.249.119-.373s.073-.252.107-.378A7.2,7.2,0,0,0,1825.545,956.65Z" transform="translate(-1769.774 -915.05)" fill="#fff"/><path d="M1798.884,923.831q-.395.6-.832,1.143c-4.2,5.244-6.558,12.045-7.879,18.436h0q-.105.514-.2,1.023h0c-.163.852-.307,1.695-.436,2.523-.2,1.309-.366,2.584-.5,3.8H1780.3c-.4-1.21-.8-2.483-1.181-3.8a76.582,76.582,0,0,1-2.852-15.151h0c-.018-.235-.035-.469-.05-.7h0a44.694,44.694,0,0,1,1.265-14.613,30.468,30.468,0,0,1,4.808-10.1c15.607-21.233,17.905-31.986,17.905-31.986S1808.522,909.362,1798.884,923.831Z" transform="translate(-1756.105 -874.398)" fill="#22c68b"/><path d="M1807.755,930.254q-.237.924-.5,1.84t-.531,1.826q-.543,1.822-1.12,3.63-1.164,3.613-2.445,7.175c-.422,1.189-.86,2.371-1.3,3.55l-.669,1.766c-.058.148-.109.295-.16.442l-.155.441-.155.44c-.049.148-.089.3-.134.45l-.264.9-.229.918c-.036.153-.078.305-.112.459l-.1.465-.192.929-.163.938-.082.468-.068.472-.137.945c-.044.316-.076.633-.116.949q-.175,1.456-.293,2.921c-.128,1.569-.211,3.145-.263,4.722q-.038,1.069-.056,2.138c-.032,1.84-.025,3.682,0,5.522v.023c.014.64.026,1.281.045,1.921.019.62.037,1.241.062,1.861h-.313q-.1-1.884-.164-3.77c0-.012,0-.023,0-.035q-.067-2.094-.068-4.193,0-1.743.043-3.486c.057-2.092.177-4.184.382-6.267.047-.477.1-.956.153-1.433.041-.319.074-.639.12-.957l.141-.955.07-.476.085-.475.168-.948.2-.943.1-.471c.034-.157.077-.311.115-.467l.235-.933c.089-.307.184-.612.276-.918.048-.153.09-.307.142-.458l.163-.45.162-.449c.054-.151.108-.3.166-.446l.684-1.755c.229-.585.448-1.174.673-1.76s.447-1.175.668-1.763q1.322-3.534,2.569-7.105T1807.755,930.254Z" transform="translate(-1768.423 -902.004)" fill="#fff"/></g><g transform="translate(0 246.376)"><path d="M901.561,961.08c0,.716-.014,1.415-.031,2.09h-9.638c-.8-1.21-1.674-2.483-2.611-3.8a138.093,138.093,0,0,0-11.637-14.33c-13.627-14.58-5.07-40.187-5.07-40.187s-1.109,10.479,16.4,22.235a20.818,20.818,0,0,1,2.322,1.81c4.637,4.17,7.273,10.213,8.709,16.526q.177.779.331,1.563c.276,1.41.5,2.828.67,4.234a76.389,76.389,0,0,1,.546,8.149q.009.5.01.99h0C901.563,960.6,901.563,960.84,901.561,961.08Z" transform="translate(-869.922 -886.805)" fill="#13a173"/><path d="M883.25,943.5c.2.4.4.8.612,1.2s.421.79.636,1.182c.431.782.872,1.557,1.329,2.319q1.362,2.292,2.864,4.464c1.009,1.438,2.047,2.85,3.158,4.182a45.592,45.592,0,0,0,3.486,3.807l.46.444c.152.15.312.288.468.432s.313.288.471.428l.481.412.972.837c.163.139.318.291.477.436s.32.29.471.446c.306.309.615.612.908.937s.583.652.869.984a24.884,24.884,0,0,1,1.587,2.13,23.408,23.408,0,0,1,1.35,2.335,21.723,21.723,0,0,1,1.069,2.517,19.491,19.491,0,0,1,.729,2.666,13.827,13.827,0,0,1,.29,2.764,11.281,11.281,0,0,0-.146-1.377c-.072-.455-.164-.9-.272-1.35s-.231-.884-.364-1.318c-.072-.216-.137-.433-.216-.646l-.114-.319c-.039-.106-.081-.21-.122-.316a22.907,22.907,0,0,0-2.5-4.695l-.381-.532c-.125-.179-.263-.346-.394-.519l-.2-.258-.206-.251c-.138-.165-.272-.336-.414-.5-.285-.322-.566-.648-.865-.953s-.6-.608-.9-.906c-.075-.075-.153-.148-.232-.218l-.234-.214c-.157-.142-.31-.29-.471-.427l-.968-.824-.49-.415c-.162-.141-.32-.288-.48-.431-.322-.284-.632-.585-.944-.883a50.033,50.033,0,0,1-6.628-8.147c-.486-.743-.968-1.49-1.427-2.255s-.907-1.539-1.34-2.323-.849-1.581-1.247-2.388S883.6,944.331,883.25,943.5Z" transform="translate(-877.389 -905.906)" fill="#fff"/><path d="M959.145,959.2c-5.4,4.176-9.587,7.623-12.815,10.469-1.6,1.411-2.965,2.674-4.129,3.8h-9.152c.207-1.216.457-2.492.762-3.8l.026-.113v0a.1.1,0,0,1,0-.015c.31-1.326.677-2.69,1.108-4.063q.208-.663.437-1.33.452-1.315.989-2.627a31.583,31.583,0,0,1,9.637-13.322q1.079-.827,2.06-1.655C960.5,936.053,961.38,925.69,961.38,925.69S972.609,948.8,959.145,959.2Z" transform="translate(-905.292 -897.106)" fill="#13a173"/><path d="M964.836,951.425a7.44,7.44,0,0,1-.134.782c-.027.129-.059.257-.089.385s-.066.257-.1.383c-.144.507-.313,1-.5,1.492a25.568,25.568,0,0,1-1.288,2.835c-.483.912-1.011,1.792-1.566,2.646s-1.156,1.672-1.767,2.475a51.47,51.47,0,0,1-3.952,4.5c-1.389,1.414-2.844,2.74-4.338,4l-1.1.951c-.092.081-.186.157-.275.24l-.271.247-.539.494-.269.248-.263.257-.525.513c-.177.168-.346.347-.516.524l-.512.532a35.236,35.236,0,0,0-3.722,4.655c-.06.091-.118.182-.177.273h0c-.487.757-.944,1.538-1.362,2.347-.03.059-.059.117-.088.176-.279.558-.54,1.13-.775,1.714q-.19.465-.357.942l-.065.183-.06.185-.121.371c-.043.135-.082.272-.12.409h-.2c.039-.162.079-.323.124-.484l.109-.382.055-.191.06-.187q.256-.8.573-1.57h0c.135-.335.279-.663.429-.99.055-.118.109-.236.165-.354a28.377,28.377,0,0,1,1.512-2.7l.324-.5h0l.095-.145.106-.16.109-.155.22-.312.221-.311.11-.155.115-.15.461-.6c.151-.2.315-.394.474-.589l.479-.582.5-.563.248-.281.124-.141.128-.136a48.526,48.526,0,0,1,4.3-4.066c1.488-1.247,2.934-2.562,4.322-3.949a55.552,55.552,0,0,0,3.974-4.4q.931-1.171,1.8-2.407c.571-.828,1.113-1.685,1.615-2.571a24.96,24.96,0,0,0,1.371-2.753c.2-.476.385-.963.545-1.459.042-.124.079-.249.118-.374s.073-.251.107-.378A7.211,7.211,0,0,0,964.836,951.425Z" transform="translate(-909.064 -909.825)" fill="#fff"/><path d="M938.174,918.606q-.395.6-.832,1.143c-4.2,5.244-6.558,12.045-7.879,18.436h0q-.106.513-.2,1.023h0q-.244,1.278-.436,2.523c-.2,1.309-.366,2.584-.5,3.8h-8.743c-.4-1.21-.8-2.482-1.181-3.8a76.613,76.613,0,0,1-2.852-15.151h0c-.018-.235-.034-.469-.049-.7h0a44.688,44.688,0,0,1,1.265-14.613,30.457,30.457,0,0,1,4.808-10.1c15.607-21.233,17.905-31.986,17.905-31.986S947.812,904.136,938.174,918.606Z" transform="translate(-895.395 -869.173)" fill="#22c68b"/><path d="M947.045,925.028q-.237.924-.5,1.84t-.531,1.827q-.544,1.822-1.12,3.63-1.163,3.613-2.445,7.175c-.422,1.189-.86,2.371-1.3,3.55l-.669,1.766c-.058.147-.109.294-.16.442l-.154.441-.155.44c-.049.148-.089.3-.135.45l-.264.9-.229.918c-.037.153-.078.3-.112.459l-.1.464-.192.93-.163.938-.083.468-.068.472-.137.945c-.043.316-.076.633-.116.949q-.176,1.456-.293,2.921c-.128,1.569-.212,3.144-.263,4.721q-.038,1.069-.055,2.139c-.032,1.84-.025,3.682,0,5.523v.023c.013.639.026,1.281.045,1.921.019.62.037,1.24.061,1.861H937.6q-.1-1.883-.164-3.77c0-.012,0-.023,0-.034q-.067-2.094-.068-4.193,0-1.743.043-3.487c.057-2.092.177-4.184.382-6.267.047-.478.1-.957.154-1.433.04-.319.074-.639.12-.958l.141-.954.07-.476.085-.475.168-.949.2-.942.1-.471c.034-.157.077-.312.115-.467l.235-.933c.089-.307.184-.613.276-.919.047-.153.09-.307.142-.458l.163-.45.162-.45c.054-.15.108-.3.166-.445l.684-1.755c.228-.585.448-1.174.673-1.761s.448-1.174.668-1.763q1.322-3.533,2.569-7.105T947.045,925.028Z" transform="translate(-907.713 -896.779)" fill="#fff"/></g><path d="M1321.477,1019.768a1.853,1.853,0,0,1-1.8,1.9h-427.2a1.853,1.853,0,0,1-1.8-1.9,1.951,1.951,0,0,1,.527-1.345,1.747,1.747,0,0,1,1.272-.558h427.2A1.854,1.854,0,0,1,1321.477,1019.768Z" transform="translate(-881.554 -696.286)" fill="#2b1a82"/></g></g></svg>