<svg xmlns="http://www.w3.org/2000/svg" width="365.174" height="295.022" viewBox="0 0 365.174 295.022"><g transform="translate(-919.734 -348.263)"><circle cx="9.381" cy="9.381" r="9.381" transform="translate(1023.51 354.139)" fill="#e8e8e8"/><circle cx="25.838" cy="25.838" r="25.838" transform="translate(1035.477 367.778)" fill="#e8e8e8"/><path d="M1286.37,552.909c-12.865-5.62-50.593-14.227-46.619-42.748s-40.661-38.6-21.337-73.06c20.666-36.851,44.891,10.3,67.955-19.472,23.949-30.91-13.122-50.888,17.823-66.439,32.127-16.145,37.1,40.957,93.278,14.727,27.633-12.9,57.492,26.23,15.743,49.186-38.517,21.179,43.675,36.048,47.266,74.065s-40.072,65.057-72.309,48.085S1316.352,566.006,1286.37,552.909Z" transform="translate(-201.209)" fill="#e8e8e8"/><path d="M1007.852,1186.916c-53.986,0-134.2,12.533-54.605,12.786,16.856.054,121.776-1.963,122.4,6.716s22.136,16.235,96.269,6.952c45.01-5.636,40.157-13.092,81.843-13.092,25.6,0,62.363-9.979-17.275-12.059-66.863-1.747-69.6-.283-101.893-.726C1104.965,1187.087,1045.917,1186.916,1007.852,1186.916Z" transform="translate(0 -574.339)" fill="#e8e8e8"/><path d="M1056.672,988.488s-25.505-20.281-19.093-29.348c7.442-10.523,13.88,6.24,17.146-1.735s-14.7-26.332-4.082-28.458,14.884,10.124,19.74,6.423,7.238-52.252,13.734-52.94c11.119-1.178,8.784,53.313,8.784,53.313,5.912-.683,12.585-4.382,16.014,1.975,3.724,6.9-11.166,16.48-4.85,22.062s19.054-4.325.505,28.707Z" transform="translate(-79.996 -365.804)" fill="#01008a"/><path d="M1088.257,913.965l30.36-11.319s-6.682-62.079-30.36-70.833C1088.257,831.813,1068.662,861.335,1088.257,913.965Z" transform="translate(-109.446 -331.152)" fill="#505cd4"/><path d="M977.653,1023.319h43.272l-6.531,21.8S989.9,1042.989,977.653,1023.319Z" transform="translate(-39.665 -462.302)" fill="#fdbd46"/><path d="M1174.222,1003.919,1198.8,997.6s4.432,22.484-20.637,26.194Z" transform="translate(-174.282 -444.686)" fill="#fdbd46"/><rect width="1.427" height="93.806" rx="0.713" transform="matrix(0.978, -0.208, 0.208, 0.978, 980.563, 531.075)" fill="#1631a4"/><path d="M1086.753,1083.652l-19.337-61.169H1046.3v-.713l22.159-.713,19.652,62.166Z" transform="translate(-86.678 -460.752)" fill="#1631a4"/><path d="M1120.255,1115.021s-9.7-44.656-26.026-47.845C1094.229,1067.176,1095.661,1109.44,1120.255,1115.021Z" transform="translate(-119.5 -492.337)" fill="#6774ff"/><path d="M1172.758,1071.044l-.822-64.012,18.743-4.086.178.691-17.48,4.5.808,62.891Z" transform="translate(-172.716 -448.35)" fill="#1631a4"/><path d="M1163.093,1132.349s-17.369-26.306,5.518-39.871C1168.61,1092.477,1179.321,1118.792,1163.093,1132.349Z" transform="translate(-162.338 -509.664)" fill="#6774ff"/><path d="M1175.991,1156.607s-4.365-23.92,16.646-28.707C1192.637,1127.9,1197.934,1150.228,1175.991,1156.607Z" transform="translate(-175.236 -533.923)" fill="#505cd4"/><path d="M1719.877,1075.43h39.069s2.807-11.471-2.512-14.354-8.886-7.311-2.67-12.781,4.528-22.325-3.832-17.444.272-21.84-8.435-21.483Z" transform="translate(-547.966 -452.746)" fill="#fdbd49"/><rect width="3.493" height="8.152" transform="translate(1073.174 438.429)" fill="#1631a4"/><path d="M1410.084,540.729v27.76h-3.493V554.81l1.236-1.092-1.236-.764V540.729Z" transform="translate(-333.417 -131.808)" fill="#1631a4"/><path d="M1532.545,455.014V677.4a10.918,10.918,0,0,1-10.92,10.916h-96.053a10.914,10.914,0,0,1-10.915-10.916V455.014a10.914,10.914,0,0,1,10.915-10.915h96.053A10.917,10.917,0,0,1,1532.545,455.014Z" transform="translate(-338.941 -65.632)" fill="#fff"/><path d="M1532.545,455.014a10.917,10.917,0,0,0-10.92-10.915h-96.053a10.914,10.914,0,0,0-10.915,10.915v9.169h38.713l7.277,7.277h25.033l7.277-7.277h39.589Z" transform="translate(-338.941 -65.632)" fill="#1631a4"/><path d="M1532.31,1163.115v6.693a10.918,10.918,0,0,1-10.92,10.916h-96.053a10.914,10.914,0,0,1-10.916-10.916v-6.693Z" transform="translate(-338.779 -558.04)" fill="#1631a4"/><rect width="88.317" height="56.456" rx="26.197" transform="translate(1091.451 415.104)" fill="#ebeff6"/><rect width="43.135" height="46.394" rx="21.568" transform="translate(1091.451 481.062)" fill="#fed648"/><rect width="88.317" height="53.102" rx="26.197" transform="translate(1091.451 535.841)" fill="#ebeff6"/><rect width="39.687" height="1.427" rx="0.713" transform="translate(1140.081 487.056)" fill="#ebeff6"/><rect width="39.687" height="1.427" rx="0.713" transform="translate(1140.081 498.609)" fill="#ebeff6"/><rect width="39.687" height="1.427" rx="0.713" transform="translate(1140.081 510.161)" fill="#ebeff6"/><rect width="39.687" height="1.427" rx="0.713" transform="translate(1140.081 521.714)" fill="#ebeff6"/><circle cx="16.186" cy="16.186" r="16.186" transform="translate(1096.832 488.073)" fill="#1631a4"/><rect width="72.669" height="1.427" rx="0.713" transform="translate(1099.242 423.207)" fill="#fff"/><rect width="72.669" height="1.427" rx="0.713" transform="translate(1099.242 431.033)" fill="#fff"/><rect width="72.669" height="1.427" rx="0.713" transform="translate(1099.242 438.858)" fill="#fff"/><rect width="72.669" height="1.427" rx="0.713" transform="translate(1099.242 446.684)" fill="#fff"/><rect width="72.669" height="1.427" rx="0.713" transform="translate(1099.242 454.51)" fill="#fff"/><rect width="72.669" height="1.427" rx="0.713" transform="translate(1099.242 462.336)" fill="#fff"/><rect width="72.669" height="1.427" rx="0.713" transform="translate(1099.242 546.088)" fill="#fff"/><rect width="72.669" height="1.427" rx="0.713" transform="translate(1099.242 553.914)" fill="#fff"/><rect width="72.669" height="1.427" rx="0.713" transform="translate(1099.242 561.74)" fill="#fff"/><rect width="72.669" height="1.427" rx="0.713" transform="translate(1099.242 569.566)" fill="#fff"/><rect width="72.669" height="1.427" rx="0.713" transform="translate(1099.242 577.392)" fill="#fff"/><path d="M1305.715,639.111l-4.637,3.743-.433.143c-.442.147-1.184.39-2.078.68-1.379.447-3.115,1.008-4.641,1.488-.789.247-1.522.476-2.125.651a12.957,12.957,0,0,1-1.488.39c-.771.057-1.826-1-2.468-2.739a22.275,22.275,0,0,1-.476-5.607c0-1.027.028-1.764.028-1.764.395-4.356,3.795-8.041,3.795-8.041h3.072l10.5,5.421Z" transform="translate(-251.769 -191.611)" fill="#6774ff"/><path d="M1191.067,605.6l-2.556-1.02-5.051,15.241,2.535.869Z" transform="translate(-180.608 -175.538)" fill="#fb931d"/><path d="M1305.818,661.507l-13.57-23.455-2.945-9.687c.275-.09.432-.141.432-.141l4.637-3.746-.951-5.636-10.5-5.418h-3.073s-3.4,3.686-3.8,8.041c0,0-.194,5.642.446,7.371s1.7,2.795,2.47,2.737c.281-.02,1.8-.472,3.612-1.042l1.793,8.789-8.849,2.194c-10.635-12.511.027-26.276.027-26.276s-1.005-7.345,9.646-8.46,16.153,8.376,14.924,18.428,11.506,15.748,12.733,24.59S1305.818,661.507,1305.818,661.507Z" transform="translate(-240.426 -176.981)" fill="#1631a4"/><path d="M1195.369,598.737l-7.032,20.92,27.806,1.194,1.759-5.361Z" transform="translate(-183.949 -171.533)" fill="#fed648"/><path d="M1290.312,664.186c-.771.057-1.826-1-2.468-2.739a22.275,22.275,0,0,1-.476-5.607c.181-.841.528-1.426,1.118-1.531h1.056v2.858a3.553,3.553,0,0,1,1.427,1.741C1291.206,659.9,1290.312,664.186,1290.312,664.186Z" transform="translate(-251.769 -209.591)" fill="#505cd3"/><path d="M1274.536,651.9v14.49s-2.6,1.926-7.537,0v-2.012s3.1.252,3.1-1.507l-.086-5.612,1.76-5.359Z" transform="translate(-237.819 -207.938)" fill="#8ebdc6"/><path d="M1208.643,668.6c-.5.083-4.524-1.635-4.524-1.635s-2.345-1.38-3.434-1.38-12.9,5.3-12.9,5.3.881.191,2.235.489c4.453.982,14.029,3.126,14.351,3.511.419.5-1.825,9.6-2.077,9.513s-24.226-7.335-26.488-7.67-5.026-2.513-5.026-3.853a7.319,7.319,0,0,1,5.194-6.2c3.853-1.089,25.043-5.5,25.545-5.89s3.689-3.659,4.359-3.575-1.759,3.686-1.759,3.686,4.524-1.34,4.524-1.005,1.34,1.005,1.759,2.513S1209.146,668.514,1208.643,668.6Z" transform="translate(-171.926 -211.574)" fill="#6774ff"/><path d="M1291.181,830.228v2.358l23.454-4.085s-3.686-4.291-4.132-4.291S1291.181,830.228,1291.181,830.228Z" transform="translate(-254.38 -325.945)" fill="#6774ff"/><path d="M1297.975,747.1l-25.433,1.774-.651-9.287-.832-11.917a15.79,15.79,0,0,1-4.831-4.47c-1.7-2.677,3.267-15.3,3.267-15.3l9.715-2.483s5.359.024,9.658.247a64.734,64.734,0,0,1,7.214.742s3.343,11.879,3.567,14.338S1297.975,747.1,1297.975,747.1Z" transform="translate(-237.047 -244.59)" fill="#fed648"/><path d="M1313.2,683.146c-4.113,2.4-6.6,2.149-8.013,1.4a3.723,3.723,0,0,1-1.645-1.645,13.818,13.818,0,0,0,0-3.7c-.224-2.839-2.14-2.915-2.14-2.915l4.708-3.743,2.068.352,2.511.428Z" transform="translate(-261.379 -222.074)" fill="#6774ff"/><path d="M1301.567,635.981s-7.625,1.224-9.525-3.7a5.853,5.853,0,0,1-.435-1.9s-1.291,3.506-2.954,3.09,2.257-7.251,2.257-7.251l8.256.357Z" transform="translate(-252.367 -190.35)" fill="#505cd3"/><path d="M1208.677,701.085l-10.653,2.548,8.418-3.037S1207.324,700.787,1208.677,701.085Z" transform="translate(-190.583 -241.29)" fill="#505cd3"/><path d="M1305.343,634.982l-5.112,6.943c-1.926-1.1-1.7-5.331-1.7-5.331,2.344.276,4.132-3.624,2.825-5.188s-2.264.865-2.264.865l-2.126-.109c-5.412-.28-7.818-7.79-7.818-7.79a25.271,25.271,0,0,1-3.576,6.225h-.946l3.3-9.8,16.416,1Z" transform="translate(-249.889 -186.64)" fill="#1631a4"/><path d="M1355.677,708.328s-.171,21.235,5.032,23.964l1.223-14.806Z" transform="translate(-298.548 -246.585)" fill="#505cd3"/><path d="M1305.055,684.483a8.314,8.314,0,0,1,.152,3.543,3.724,3.724,0,0,1-1.645-1.645,13.81,13.81,0,0,0,0-3.7c-.214-2.72-1.978-2.906-2.13-2.915.6-.176,1.336-.4,2.125-.651,1.527-.48,3.262-1.041,4.641-1.489C1308.2,677.621,1304.4,681.987,1305.055,684.483Z" transform="translate(-261.4 -225.556)" fill="#505cd3"/><path d="M1253.617,878.554s11.616,4.021,17.647,2.457,15.86-3.239,19.545-2.01,17.758-1.452,17.758-1.452l-18.987-39.872-24.125,4.133Z" transform="translate(-228.655 -335.167)" fill="#01008a"/><path d="M1302.141,1011.743l-4.47,2.568s-18.875-39.314-19.431-43c-.385-2.525-.242-13.425-.114-20.049.057-3.048.114-5.193.114-5.193l6.016-1.084,9.506-1.707s-5.027,22.451-4.242,24.239a52.86,52.86,0,0,1,4.242,12.73C1294.656,985.83,1302.141,1011.743,1302.141,1011.743Z" transform="translate(-245.347 -407.487)" fill="#6774ff"/><path d="M1262.3,850.788l-13.291,26.693s2.353,2.088,3.463,1.229Z" transform="translate(-225.5 -344.147)" fill="#1631a4"/><path d="M1354.086,1005.883l-4.689,2.4s-19.436-41.825-21-45.957-3.909-24.919-3.909-24.919l16.53-1.217-.071,1.57-.219,5.055-.828,18.732c1.679.78,3.576,5.026,4.651,9.492S1354.086,1005.883,1354.086,1005.883Z" transform="translate(-277.19 -402.631)" fill="#6774ff"/><path d="M1263.514,850.788l-12.732,30.826s2.137,2.234,4.754,1.452C1255.7,882.507,1263.514,850.788,1263.514,850.788Z" transform="translate(-226.713 -344.147)" fill="#01008a"/><path d="M1367.727,837.676l20.775,25.242a9.059,9.059,0,0,1-2.682,3.462Z" transform="translate(-306.801 -335.167)" fill="#1631a4"/><path d="M1345.638,941.166l-.219,5.055a9.658,9.658,0,0,0-1.869.5c-5.626,2.059-12.212.813-12.212.813l4.76-4.936S1341.263,941.817,1345.638,941.166Z" transform="translate(-281.881 -406.041)" fill="#505cd3"/><path d="M1367.727,837.676,1388.5,867.5s.216,5.838-5.249,6.756Z" transform="translate(-306.801 -335.167)" fill="#01008a"/><path d="M1287.913,952.324s-5.731.352-9.492,2.649c.057-3.048.114-5.193.114-5.193l6.016-1.084Z" transform="translate(-245.642 -411.197)" fill="#505cd3"/><path d="M1382.483,767.515c1.563,1.9,4.8,3.351,6.366,4.8s4.133,3.574,3.351,3.8-5.584-2.569-5.584-2.569-5.361-1.563-6.478-.893-2.345,2.01-3.127,1.9,2.234-4.468,1.787-5.249-13.179-20.886-14.3-24.236-7.595-26.233-7.595-26.233l-1.229-10.624s4.924-1.005,7.265,5.584,6.385,25.018,8.16,28.815S1382.483,767.515,1382.483,767.515Z" transform="translate(-298.55 -246.466)" fill="#6774ff"/><path d="M1308.565,877.545s-13.625-4.247-17.871-3.352c-2.33.494-6.82,1.64-11.076,2.268-3.5.514-6.829.675-8.693-.171a5.111,5.111,0,0,0-1.312-.362l0,0c-5.074-.8-15.993,2.625-15.993,2.625l11.841-36.746,24.125-4.132Z" transform="translate(-228.653 -335.163)" fill="#1631a4"/><path d="M1324.97,1158.754s1.452,8.488.447,9.94-6.478,2.345-6.254,5.919l10.164.447s9.047-7.818,9.158-8.153-8.6-12.062-8.6-12.062S1325.529,1155.068,1324.97,1158.754Z" transform="translate(-273.538 -552.376)" fill="#fdbd46"/><path d="M1393,1158.023s2.01,9.331,1.34,10.895-6.184.893-6.184,6.143h10.2s7.595-9.94,7.595-10.108-8.041-10.108-8.041-10.108S1392.592,1156.03,1393,1158.023Z" transform="translate(-320.789 -552.376)" fill="#fdbd46"/><path d="M1314.369,895.433c-3.5.514-6.829.675-8.693-.171a5.113,5.113,0,0,0-1.313-.362l0,0s3.814-.276,3.766-2.891,1.731-26.631,1.731-26.631S1310.922,891.848,1314.369,895.433Z" transform="translate(-263.405 -354.136)" fill="#01008a"/><path d="M1291.441,776.478s-7.9,6.287-8.28,11.456l-.832-11.917S1287.555,777.348,1291.441,776.478Z" transform="translate(-248.318 -292.941)" fill="#fdbd46"/><path d="M1332.585,657.7s-.951-1.13-1.664.654,0,1.486,0,1.486S1330.861,657.462,1332.585,657.7Z" transform="translate(-281.378 -211.671)" fill="#505cd3"/><path d="M1964.264,1135.636s4.023,9.7,2.89,12.073a10.856,10.856,0,0,1-2.89,3.656s-5.123-.192-5.123,3.849h11.954l7.684-10.979-9.819-11.345Z" transform="translate(-711.823 -537.34)" fill="#1631a4"/><path d="M1835.057,625.258c-.495.48-.69,5.388-.69,5.388l-4.727,1.156-.461-5.1s-2.045-3.971-1.76-6.187c.447-3.434,5.906-5.069,5.906-5.069s2.225-.576,2.216,0-1.075,1.155-1.864,1.35c-.428.1-.39,1.527-.271,2.815.1,1.094.271,2.088.271,2.088a11.006,11.006,0,0,0,1.764-.281.015.015,0,0,1,.009,0c.59-.2.1-2.216.609-2.792s1.265,1.156,1.655,2.406S1835.552,624.777,1835.057,625.258Z" transform="translate(-621.597 -182.799)" fill="#6774ff"/><path d="M1888.943,1160.978s-1.842,9.045-4.862,10.007-6.632,2.309-6.632,6.543H1898.3s-1.083-13.086-3.349-15.588Z" transform="translate(-655.877 -556.576)" fill="#1631a4"/><path d="M1826.079,660.623l8.374-.962s2.364,18.571,2.857,18.956,8.571-11.162,8.571-11.162l2.759,16.165-9.453,11.208a5.472,5.472,0,0,1-4.688,1.9h0a5.35,5.35,0,0,1-4.864-4.679Z" transform="translate(-620.697 -213.256)" fill="#cbcbcb"/><path d="M1908.709,891.424s16.354,50.805,21.017,55.809c0,0,9.392-1.155,10.771-6.351,0,0-18.521-45.93-18.521-53.692s3.284-19.822,3.809-22.323,2.415-10.168.485-14.033l-17.562,10.376Z" transform="translate(-677.285 -344.178)" fill="#01008a"/><path d="M1876.28,847.917s-4.335,35.795-3.744,45.61,9.655,53.885,9.655,53.885,9.458,1.924,12.709,0c0,0-8.768-48.881-8.374-53.5s10.64-30.6,10.64-30.6,6.012-10.395,3.809-19.245Z" transform="translate(-652.474 -339.545)" fill="#1631a4"/><path d="M1892.578,638.951l-5.488,4.475-1.018.828-.618.5-.1-.114c-.3-.357-1.322-1.588-2.953-3.767-1.9-2.539-4.722-1.055-4.917-.946l6.463-4.727,1.507-1.1h4.171Z" transform="translate(-655.901 -195.755)" fill="#6774ff"/><path d="M1887.223,645.837l-1.151.628-.718.39c-.3-.357-1.322-1.588-2.953-3.767-1.9-2.539-4.722-1.055-4.917-.946l6.463-4.727,1.507-.081s-2.045,4.156-.728,5.416a18.971,18.971,0,0,1,2.364,2.887Z" transform="translate(-655.901 -197.966)" fill="#505cd3"/><path d="M1879.184,598.54s-11.76,7.186-12.151,7.314-.922.128-1.84-1.988c-.537-1.236-.965-5.925-1.222-9.616-.019-.262-.038-.518-.057-.766-.152-2.269-.233-3.99-.233-3.99-.243-4.1,7.685-5.835,8.408-5.964s5.188,2.758,5.188,2.758Z" transform="translate(-646.445 -161.118)" fill="#6774ff"/><path d="M1872.084,605.063l-.495.181-7.1,3.453c-.019-.262-.038-.518-.057-.766a.546.546,0,0,1,.057-.048c.666-.495,7.314-3.262,7.314-3.262Z" transform="translate(-646.963 -175.563)" fill="#505cd3"/><path d="M1869.54,595.719s-3.461.01-3.372-1.565c0,0-2.522,2.4-3.371,1.643s-.306-3.427-.306-3.427l7.512-.862.14,2.408.359,1.953Z" transform="translate(-645.515 -166.583)" fill="#505cd3"/><path d="M1864.39,628.288a1.093,1.093,0,0,1,1.4-.606c1.084.289,1.412.9,2.627.274a2.952,2.952,0,0,1-3.915,1.487l-.452.223S1863.381,628.413,1864.39,628.288Z" transform="translate(-646.553 -191.317)" fill="#1631a4"/><path d="M1858.786,577.12s-.033,2.406,3.514,2.437l-.131,2.855s.6-2.169,1.962-1.677,1.815,4.659-.615,4.5l-1.083.545,5.13,4.072,3.77-.772,2.364-14.526-1.97-.32s-1.018-6.415-10.854-5.837-7.734,9.237-9.507,9.045.744,4.749,3.524,2.5S1857.669,576.671,1858.786,577.12Z" transform="translate(-637.608 -150.73)" fill="#1631a4"/><path d="M1860.282,615.188h.813l.257,3.432h-.75Z" transform="translate(-644.121 -182.799)" fill="#8ebcc7"/><path d="M1862.861,607.452l7.717-3.56,4.86,1.78-.164.433-4.795-1.732-7.576,3.656Z" transform="translate(-645.887 -175.063)" fill="#8ebcc7"/><rect width="37.7" height="26.173" transform="translate(1221.572 532.171)" fill="#fed648"/><rect width="6.439" height="6.671" transform="translate(1224.984 532.171)" fill="#fdbc47"/><rect width="6.831" height="6.671" transform="translate(1248.5 532.171)" fill="#fdbc47"/><path d="M1897.664,647.368l8.144-8.468,1.708,4.921-9.162,6.145Z" transform="translate(-669.721 -199.039)" fill="#fb931d"/><path d="M1919.578,909.429h0a1.189,1.189,0,0,1-1.189-1.189V898.208a1.189,1.189,0,0,0-1.189-1.189h-19.743a1.189,1.189,0,0,0-1.189,1.189V908.24a1.189,1.189,0,0,1-1.189,1.189h0a1.189,1.189,0,0,1-1.189-1.189V895.83a1.189,1.189,0,0,1,1.189-1.189h24.5a1.189,1.189,0,0,1,1.189,1.189v12.41A1.189,1.189,0,0,1,1919.578,909.429Z" transform="translate(-667.137 -374.179)" fill="#8ebcc4"/><path d="M1904.488,708.269c-2.858,4.741-8.4,3.838-13.506,4.042-2.634.1-5.15.5-7.119,2.116a10.965,10.965,0,0,1-4.627,2.226,17.454,17.454,0,0,1-9.3-.818l5.978-56.543,11.989-11.218c1.412-1.046,1.869.694,1.869.694Z" transform="translate(-650.734 -205.092)" fill="#fed648"/><path d="M1909.965,742.644c-2.635.1-5.15.5-7.119,2.116a10.965,10.965,0,0,1-4.627,2.226c2.325-1.617,2.154-5.583,4.366-14,2.378-9.036-1.546-10.51-1.546-10.51,3.448-1.712,2.5-4.232,0-9.792s-3.381-20.658-3.381-20.658l11.432,14.951Z" transform="translate(-669.717 -235.424)" fill="#fdbc47"/><path d="M1914.62,863.032s-.788,4.875-1.97,5.774-3.941,2.951-3.941,2.951.263,1.026,2.1,0,2.233-.513,2.233-.513l-1.379,6.287s-.46,2.694.755,3.336c2.108,1.113,7.783-1.8,8.36-3.407.179-.5.54-5.958-.117-7.241s.323-7.185.323-7.185S1915.54,862.647,1914.62,863.032Z" transform="translate(-677.285 -352.415)" fill="#6774ff"/><path d="M1904.851,729.959s4.992,3.224,8.538,1.812c0,0,3.547-27.584,2.5-31.818s-8.013-28.61-8.013-28.61-1.839-6.222-6.7-4.266-4.729,4.907-4.138,7.6,8.6,24.533,8.538,26.892S1904.851,729.959,1904.851,729.959Z" transform="translate(-669.093 -218.075)" fill="#fff"/><rect width="8.604" height="3.079" transform="translate(1236.087 532.171)" fill="#fb931d"/><path d="M1931.424,941.563l1.084,4.009h1.773l.985-4.009Z" transform="translate(-692.841 -406.313)" fill="#01008a"/><path d="M1932.708,965.555l-.474-.025.828-11.245.237.012Z" transform="translate(-693.396 -415.025)" fill="#01008a"/><rect width="0.476" height="11.258" transform="translate(1240.266 539.259)" fill="#01008a"/><path d="M1940.327,965.555l-.591-11.258.238-.012.828,11.245Z" transform="translate(-698.533 -415.025)" fill="#01008a"/><rect width="20.853" height="1.732" transform="translate(1221.572 620.952)" fill="#01008a"/><path d="M1959.141,1179.866v1.54h13.136l7.685-11.547-1.182-.972-7.685,10.979Z" transform="translate(-711.823 -561.993)" fill="#01008a"/><path d="M1890.275,610.967a1.2,1.2,0,0,0-1.486,1.01c-.268,1.308.238,1.507.238,1.507S1888.588,611.37,1890.275,610.967Z" transform="translate(-663.59 -179.889)" fill="#505cd3"/><path d="M1844.936,631.023c-.152.062-2.644,1.07-2.868,1.683a4.231,4.231,0,0,1-.813,1.26l1.646-4.751c.1,1.094.271,2.088.271,2.088A11.01,11.01,0,0,0,1844.936,631.023Z" transform="translate(-631.09 -192.407)" fill="#505cd3"/><path d="M12.907,4.932a.5.5,0,0,0,.5-.5V2.753a.5.5,0,0,0-.5-.5H.5a.5.5,0,0,0-.5.5V4.628a.5.5,0,0,0,.5.5H4.077A3.023,3.023,0,0,1,6.631,6.273H.5a.5.5,0,0,0-.5.5V8.452a.5.5,0,0,0,.5.5H7.156a2.9,2.9,0,0,1-3.133,2.457H.5a.5.5,0,0,0-.5.5v2.221a.5.5,0,0,0,.162.37L7.078,20.89a.5.5,0,0,0,.341.133h3.46a.5.5,0,0,0,.341-.872L4.9,14.315a5.741,5.741,0,0,0,5.8-5.36h2.213a.5.5,0,0,0,.5-.5V6.776a.5.5,0,0,0-.5-.5H10.447a5.74,5.74,0,0,0-.6-1.341Z" transform="translate(1106.705 492.73)" fill="#fff"/></g></svg>