<svg xmlns="http://www.w3.org/2000/svg" xmlns:xlink="http://www.w3.org/1999/xlink" width="54.55" height="54.55" viewBox="0 0 54.55 54.55"><defs><linearGradient id="a" x1="0.5" x2="0.5" y2="1" gradientUnits="objectBoundingBox"><stop offset="0" stop-color="#eaac22"/><stop offset="1" stop-color="#c78c08"/></linearGradient><filter id="b" x="0" y="0" width="54.55" height="54.55" filterUnits="userSpaceOnUse"><feOffset dy="2" input="SourceAlpha"/><feGaussianBlur stdDeviation="3" result="c"/><feFlood flood-color="#dbe3ff"/><feComposite operator="in" in2="c"/><feComposite in="SourceGraphic"/></filter></defs><g transform="translate(-144 -295)"><g transform="matrix(1, 0, 0, 1, 144, 295)" filter="url(#b)"><path d="M9.4,0H27.151a9.4,9.4,0,0,1,9.4,9.4V27.151a9.4,9.4,0,0,1-9.4,9.4H9.4a9.4,9.4,0,0,1-9.4-9.4V9.4A9.4,9.4,0,0,1,9.4,0Z" transform="translate(9 7)" fill="url(#a)"/></g><g transform="translate(160.004 309.004)"><g transform="translate(-1.584 -1.584)"><g transform="translate(0)"><path d="M0,13.232a12.7,12.7,0,0,0,3.859,9.343,12.783,12.783,0,0,0,9.375,3.891,12.7,12.7,0,0,0,9.343-3.891,12.7,12.7,0,0,0,3.891-9.343,12.783,12.783,0,0,0-3.891-9.375A12.7,12.7,0,0,0,13.232,0,12.831,12.831,0,0,0,3.857,3.857,12.831,12.831,0,0,0,0,13.232m5.643,7.559a10.3,10.3,0,0,1-3.134-7.559A10.4,10.4,0,0,1,5.641,5.641a10.4,10.4,0,0,1,7.591-3.134,10.3,10.3,0,0,1,7.559,3.134,10.348,10.348,0,0,1,3.176,7.591,10.248,10.248,0,0,1-3.176,7.559q-.169.2-.376.408v-.026a10.243,10.243,0,0,1-7.183,2.784A10.348,10.348,0,0,1,5.641,20.78M7.335,4.693,10.056,14.82l10.359,6.352-4.9-10.793L7.335,4.7m6.585,6.881a1.472,1.472,0,0,1-1.059,2.509,1.45,1.45,0,0,1-1.059-.439,1.519,1.519,0,0,1,0-2.07,1.45,1.45,0,0,1,1.059-.439,1.413,1.413,0,0,1,1.059.455Z" transform="translate(0.004 0.004)" fill="#fff"/></g></g></g></g></svg>