<svg xmlns="http://www.w3.org/2000/svg" xmlns:xlink="http://www.w3.org/1999/xlink" width="54.55" height="54.55" viewBox="0 0 54.55 54.55"><defs><linearGradient id="a" x1="0.5" x2="0.54" y2="0.768" gradientUnits="objectBoundingBox"><stop offset="0" stop-color="#926fff"/><stop offset="1" stop-color="#5d37fa"/></linearGradient><filter id="b" x="0" y="0" width="54.55" height="54.55" filterUnits="userSpaceOnUse"><feOffset dy="2" input="SourceAlpha"/><feGaussianBlur stdDeviation="3" result="c"/><feFlood flood-color="#dbe3ff"/><feComposite operator="in" in2="c"/><feComposite in="SourceGraphic"/></filter></defs><g transform="translate(-98 -1064)"><g transform="translate(107 1071)"><g transform="matrix(1, 0, 0, 1, -9, -7)" filter="url(#b)"><path d="M9.4,0H27.151a9.4,9.4,0,0,1,9.4,9.4V27.151a9.4,9.4,0,0,1-9.4,9.4H9.4a9.4,9.4,0,0,1-9.4-9.4V9.4A9.4,9.4,0,0,1,9.4,0Z" transform="translate(9 7)" fill="url(#a)"/></g></g><g transform="translate(113.024 1074.707)"><g transform="translate(0)"><path d="M10.9,9.008a.376.376,0,0,1-.092-.121,10.212,10.212,0,0,1,3.152-1.02,14.742,14.742,0,0,1,3.325-.121l.179-1.89a.231.231,0,0,0-.092-.029A.415.415,0,0,1,17.2,5.8a18.938,18.938,0,0,0-2.64.058,13.4,13.4,0,0,0-2.611.478,9.55,9.55,0,0,0-5.308,3.873,10.691,10.691,0,0,0-1.349,2.853,14.408,14.408,0,0,0-.542,3.078,13.745,13.745,0,0,0,.357,4.23,11.889,11.889,0,0,0,1.049,2.939q.092.179.242.421a4.259,4.259,0,0,0,.242.392l1.8-.72a6.915,6.915,0,0,1-.329-.628q-.207-.357-.329-.576a12.846,12.846,0,0,1-.991-3.6,12.414,12.414,0,0,1,.058-3.66,9.089,9.089,0,0,1,1.5-3.809l.3-.392.3-.392.9,1.049a.086.086,0,0,0-.029.058l-.058.058a5.556,5.556,0,0,0-1.2,2.011,7.043,7.043,0,0,0-.392,1.954,9.867,9.867,0,0,0,.15,1.983,12.552,12.552,0,0,0,.628,2.4,18.344,18.344,0,0,0,1.02,2.305,3.291,3.291,0,0,1,.369,2.046,4.438,4.438,0,0,1-2.161,3.152,2.945,2.945,0,0,1-.576.3l-.576.271.029.029a.086.086,0,0,0,.058.029q.3.092.928.329.542.179.928.271a5.066,5.066,0,0,0,2.432.121,3.758,3.758,0,0,0,2.761-2.132,8.76,8.76,0,0,0,.576-1.591A11.377,11.377,0,0,0,15,23.335a4.213,4.213,0,0,1,.029-.45l.069-.409.15.15q.15.207.45.576l.87,1q.507.628.87,1.049a3.59,3.59,0,0,0,1.5,1.02,3.308,3.308,0,0,0,1.833.092q.507-.121,1.049-.3.45-.179.991-.45a3.412,3.412,0,0,0,1.89-2.369q.029-.15.058-.363a3.29,3.29,0,0,1,.058-.363q-.15.029-.15.058a11.452,11.452,0,0,1-3.031.778,12.915,12.915,0,0,1-2.882-.092.4.4,0,0,1-.271-.15.323.323,0,0,1-.092-.3.357.357,0,0,1,.179-.242.576.576,0,0,1,.329-.029,10.1,10.1,0,0,0,4.472-.271l.576-.207q.207-.092.628-.242l-.3-.87a2.415,2.415,0,0,1-.478.207,10.08,10.08,0,0,1-3.625.813,11.435,11.435,0,0,1-2.161-.15.455.455,0,0,1-.242-.121.288.288,0,0,1-.092-.207.248.248,0,0,1,.058-.242.271.271,0,0,1,.179-.15h.271a9.8,9.8,0,0,0,4.611-.3q.271-.092.628-.242a7.028,7.028,0,0,0,.663-.242l-.3-.87-.121.058a11,11,0,0,1-6.3.87.432.432,0,0,1-.3-.15.288.288,0,0,1-.092-.271.3.3,0,0,1,.15-.242.473.473,0,0,1,.329-.058q.542.058.663.058l.663.058a8.708,8.708,0,0,0,3.21-.421,5.839,5.839,0,0,0,.749-.271q.242-.092.72-.3s.04,0,.058-.058,0-.058,0-.058q-.058-.207-.392-1.2-.242.15-.357.207a2.634,2.634,0,0,1-.392.207,7.169,7.169,0,0,1-1.262.392,9.59,9.59,0,0,1-1.32.179q-1.049.092-2.219.092-1.02-.029-2.219-.121a.121.121,0,0,1-.15-.15q-.029-.841-.058-1.441a.121.121,0,0,1,.15-.15h.265q1.262-.029,2.161-.092a21.2,21.2,0,0,0,2.161-.271,11.526,11.526,0,0,0,2.461-.692.882.882,0,0,0,.392-.3.68.68,0,0,0,.15-.45,1.32,1.32,0,0,0-.121-.542,9.706,9.706,0,0,0-.421-.9,8.253,8.253,0,0,0-3.458-3.124,8.069,8.069,0,0,0-6.962-.357l-.121.029a.2.2,0,0,1-.092-.092,5.763,5.763,0,0,1-.392-.45q-.3-.329-.392-.45m.542,7.083a1.475,1.475,0,0,1,1.078-.45,1.51,1.51,0,0,1,1.112.45,1.475,1.475,0,0,1,.45,1.083A1.528,1.528,0,0,1,11.5,18.275,1.429,1.429,0,0,1,11.02,17.2a1.573,1.573,0,0,1,.45-1.112m1.078,1.983a.916.916,0,0,0,.628-.242.772.772,0,0,0,.271-.576.876.876,0,0,0-.87-.928.813.813,0,0,0-.576.242.884.884,0,0,0,.571,1.527m.79-17.82a24.454,24.454,0,0,0-2.668.478,15.665,15.665,0,0,0-3.06.98A12.956,12.956,0,0,0,4.813,3.36,11.261,11.261,0,0,0,1.481,7.29,12.679,12.679,0,0,0,.19,11.526a7.313,7.313,0,0,0-.092.9q-.058.513-.092.9a22.281,22.281,0,0,0,.571,5.527,27.238,27.238,0,0,0,.692,2.674A18.794,18.794,0,0,0,2.306,24.1a4.391,4.391,0,0,0,.357.628q.15.242.392.663.058.092.121.092a.213.213,0,0,0,.179-.029l.749-.3q.271-.092.778-.3l.991-.421a.328.328,0,0,0-.058-.121A13.832,13.832,0,0,1,3.942,18.1a14.316,14.316,0,0,1,.749-5.734,10.76,10.76,0,0,1,2.882-4.5A10.374,10.374,0,0,1,11.982,5.5,16.322,16.322,0,0,1,17.2,4.985q.242.029.3-.029a.732.732,0,0,0,.058-.271L17.982.15V0Q16.714,0,15.67.058,14.443.121,13.359.271Z" transform="translate(-0.001)" fill="#fff"/></g></g></g></svg>