<svg xmlns="http://www.w3.org/2000/svg" xmlns:xlink="http://www.w3.org/1999/xlink" width="54.55" height="54.55" viewBox="0 0 54.55 54.55"><defs><linearGradient id="a" x1="0.5" x2="0.5" y2="1" gradientUnits="objectBoundingBox"><stop offset="0" stop-color="#ff006c"/><stop offset="1" stop-color="#c90055"/></linearGradient><filter id="b" x="0" y="0" width="54.55" height="54.55" filterUnits="userSpaceOnUse"><feOffset dy="2" input="SourceAlpha"/><feGaussianBlur stdDeviation="3" result="c"/><feFlood flood-color="#dbe3ff"/><feComposite operator="in" in2="c"/><feComposite in="SourceGraphic"/></filter></defs><g transform="translate(-99 -2032)"><g transform="matrix(1, 0, 0, 1, 99, 2032)" filter="url(#b)"><path d="M9.4,0H27.151a9.4,9.4,0,0,1,9.4,9.4V27.151a9.4,9.4,0,0,1-9.4,9.4H9.4a9.4,9.4,0,0,1-9.4-9.4V9.4A9.4,9.4,0,0,1,9.4,0Z" transform="translate(9 7)" fill="url(#a)"/></g><g transform="translate(110.703 2043.896)"><g transform="translate(-0.004 -0.002)"><path d="M13.152,6.764a3.663,3.663,0,0,0-.408-.115,1.46,1.46,0,0,1-.785-.408,1.36,1.36,0,0,0-.973-.377,1.627,1.627,0,0,1-.319-.031q-.058-.492-.2-1.423-1.308.727-1.251,1.277a1.39,1.39,0,0,1,0,.612q-2.234-.931-2.726.351.958.785,1.449,1.162a4.034,4.034,0,0,0-.152,1.083,3.432,3.432,0,0,1-.089,1.193,1.329,1.329,0,0,1-.262.523,1.339,1.339,0,0,1-.492.262q-.753.23-1.162.377a5.431,5.431,0,0,0-1.627.931,3.563,3.563,0,0,0-1.1,1.528q-.44,1.073-.44,1.1a11.956,11.956,0,0,0-.408,1.13q-.173.434-.408,1.13-.115.351-.351,1.13l.089-2.177q.058-1.423.089-2.15a4.27,4.27,0,0,1,.319-1.627A5.489,5.489,0,0,1,2.755,10.8a4.044,4.044,0,0,1,.382-.576L3.6,9.673a1.266,1.266,0,0,0,.288-.931.419.419,0,0,0-.147-.288.283.283,0,0,0-.319.031,1.737,1.737,0,0,0-.523.408A11.6,11.6,0,0,0,1.044,11.51a4.709,4.709,0,0,0-.6,1.847q-.089.727-.2,2.177-.147,1.282-.2,2.182a7.885,7.885,0,0,0,.031,1.831,5.316,5.316,0,0,0,.523,1.685A7.655,7.655,0,0,0,1.6,22.743a2.355,2.355,0,0,0,1.769.989q1.366.058,2.9.089A1.638,1.638,0,0,0,6.8,23.79a2.773,2.773,0,0,0,.549-.089q.319-.031.67-.089,1.768-.958,1.742-1.193,0-.147-.549-.7Q8.6,18.312,5.607,20.038q2.846-2.381,3.919,1.334a5.489,5.489,0,0,0,.523-1.915,8.9,8.9,0,0,0-.319-2.234q-.115-.434-.23-1.046L9.327,15.13l.089-.031q.058-.408.2.319t.319,1.653a15.1,15.1,0,0,1,.288,2,11.1,11.1,0,0,1-.147,2.062l-.089.581a3.427,3.427,0,0,0-.052.555.753.753,0,0,0,.115.523.523.523,0,0,0,.492.173q.23-.031.523-.089.2-.058.523-.173a.277.277,0,0,0,.147-.115.351.351,0,0,0,.089-.173q-.089-.466-.089-.523a1.753,1.753,0,0,0-.2-.466,1.737,1.737,0,0,1-.2-.434.968.968,0,0,1-.058-.466q0-.089.031-.351a3.081,3.081,0,0,0,.031-.351q.7-3.453.978-5.18l.2-1.046a3.694,3.694,0,0,0-.031-1.046q-.173-.811-.408-1.685a1.339,1.339,0,0,1,0-.785,1.23,1.23,0,0,1,.481-.56q.2-.173.466-.434l.434-.434a.319.319,0,0,0,.115-.2q0-.319-.058-1.366l-.262.173a1.894,1.894,0,0,0-.2.115l-.068-.052-.058-.058q.031-.089.23-.523m-1.826.115A1,1,0,0,1,11.614,7a1.727,1.727,0,0,0,.23.173v.089a.167.167,0,0,1-.031.115,2.616,2.616,0,0,0-.288.2l-.319.2-.058-.058q-.262-.031-.288-.089a.734.734,0,0,1,.031-.319q.058-.147.089-.147a1.408,1.408,0,0,1,.173-.2q.115-.115.173-.115m7.283-6.3A12.583,12.583,0,0,0,17.306.2a5.075,5.075,0,0,0-2-.173,2.982,2.982,0,0,0-.753.727,1.114,1.114,0,0,1-.727.549q-.466.058-.727.115l-.466.115.7.492-.931.408a2.585,2.585,0,0,0,.23.638,2.245,2.245,0,0,0,.523.9l.173.058a2.417,2.417,0,0,0,.283-.664,2.041,2.041,0,0,0,1.366.753,5.269,5.269,0,0,0,1.826-.031,2.009,2.009,0,0,1-1.946.434q-1.627-.549-1.481.523a.759.759,0,0,0,.351.351,2.731,2.731,0,0,0,.434.147q.089,0,.785.147.492.115.785.2a1.256,1.256,0,0,1,.408.2.7.7,0,0,1,.031.466q-.2,1.392-.466,2.731-.2.9-.262,1.334a4.055,4.055,0,0,0,.089,1.308q.147.466.2.67.115.351.23.638a10.4,10.4,0,0,1,.827,4.542q-.089,1.366-.2,4.154a1.046,1.046,0,0,1-.753.989,2.47,2.47,0,0,0-.957.612.565.565,0,0,0-.058.727.947.947,0,0,0,.581.492,1.653,1.653,0,0,0,1.1-.031,1.706,1.706,0,0,0,.811-.753,3.254,3.254,0,0,0,.288-.869q.058-.288.147-.7l.23-1.219q.115-.753.23-1.251.058-.319.031-.319l.115-.319q.262-.67.408-1.015l.089.2.089.173a1.287,1.287,0,0,1,.262.638,2.679,2.679,0,0,1-.115.727,4.871,4.871,0,0,0-.209.895q-.173.785-.173.869-.089.319-.23,1.015a5.871,5.871,0,0,0-.173,1.046.79.79,0,0,1-.466.67.984.984,0,0,0-.565.764.591.591,0,0,0,.492.753,2.323,2.323,0,0,0,.9.089l.549-.115a.821.821,0,0,0,.523-.262q.115-.2-.146-.785a.994.994,0,0,1,.089-1.1,30.09,30.09,0,0,0,1.334-2.731.6.6,0,0,1,.115-.23l.058-.031.089.262a1.852,1.852,0,0,0,.058.262,3.6,3.6,0,0,0,.031.377,1.534,1.534,0,0,0,.058.319.8.8,0,0,1,.031.466.837.837,0,0,1-.408.262h-.11q-.058-.031-.434.147t-.377,1.277a2.239,2.239,0,0,0,1.544-.178,4.913,4.913,0,0,1,1.449-.408q.377-.031.115.288a4.173,4.173,0,0,0-.23.351.685.685,0,0,0-.115.638.722.722,0,0,0,.581.351A2.417,2.417,0,0,0,24.71,25.2a6.8,6.8,0,0,0,1.366-.7,3.312,3.312,0,0,0,1.015-1.193,1.674,1.674,0,0,1,.115-.288h.931a3.1,3.1,0,0,0,1.334-.262q.581-.288.67-.319,1.449-1.193-.492-4.353-1.449-.408-.727,1.13a1.878,1.878,0,0,1,.23,1.308q-.089.869-.811.9h-.523a.121.121,0,0,1-.089-.058.523.523,0,0,1,0-.23q.031-.173.089-.842a.523.523,0,0,0,.031-.173,7.325,7.325,0,0,0,0-1.308l-.058-.408a4.338,4.338,0,0,0-.727-1.742.984.984,0,0,1-.147-.319q-.089-.23-.147-.351-.115-.351-.173-.549l-.23-.549q-.147-.23-.434-.727t-.434-.753a11.888,11.888,0,0,0-2-2.757,9.611,9.611,0,0,1-.638-.811,5.625,5.625,0,0,1-.523-.931q-.351-.9-.607-1.512a8.678,8.678,0,0,0-.565-1.125A10.784,10.784,0,0,1,20.786,5.2a2.951,2.951,0,0,1-2.234-1.653,4.777,4.777,0,0,1-.466-1.711q.058-.492.173-.581l.146-.089a3.95,3.95,0,0,0,.607,2.412,2.4,2.4,0,0,0,1.219,1.073,9.418,9.418,0,0,0,1.742.11q.115-.262-.7-1.774A6.739,6.739,0,0,0,19.771.9a4.641,4.641,0,0,0-.549-.2L18.641.548m-2.093.586a.644.644,0,0,1,.319.434,3.935,3.935,0,0,0-.408-.031,2.5,2.5,0,0,1-.408-.031.455.455,0,0,1-.115-.089A.33.33,0,0,0,15.82,1.3l.115-.115a.33.33,0,0,1,.115-.115.555.555,0,0,1,.5.063Z" transform="translate(0.004 0.002)" fill="#fff"/></g></g></g></svg>