<svg xmlns="http://www.w3.org/2000/svg" xmlns:xlink="http://www.w3.org/1999/xlink" width="54.55" height="54.55" viewBox="0 0 54.55 54.55"><defs><linearGradient id="a" x1="0.5" x2="0.54" y2="0.768" gradientUnits="objectBoundingBox"><stop offset="0" stop-color="#926fff"/><stop offset="1" stop-color="#5d37fa"/></linearGradient><filter id="b" x="0" y="0" width="54.55" height="54.55" filterUnits="userSpaceOnUse"><feOffset dy="2" input="SourceAlpha"/><feGaussianBlur stdDeviation="3" result="c"/><feFlood flood-color="#dbe3ff"/><feComposite operator="in" in2="c"/><feComposite in="SourceGraphic"/></filter></defs><g transform="translate(-118 -842)"><g transform="translate(127 849)"><g transform="matrix(1, 0, 0, 1, -9, -7)" filter="url(#b)"><path d="M9.4,0H27.151a9.4,9.4,0,0,1,9.4,9.4V27.151a9.4,9.4,0,0,1-9.4,9.4H9.4a9.4,9.4,0,0,1-9.4-9.4V9.4A9.4,9.4,0,0,1,9.4,0Z" transform="translate(9 7)" fill="url(#a)"/></g></g><g transform="translate(136 854)"><g transform="translate(0)"><path d="M8.882,0,8.249.12A5.848,5.848,0,0,0,4.828,2.089,5.821,5.821,0,0,0,3.273,5.75a6.05,6.05,0,0,0,2.575,5.417l.426.273q.093.06.486.273l.153.093a.546.546,0,0,1,.033.18v4.206a.24.24,0,0,1-.033.153.246.246,0,0,1-.18.06,13.453,13.453,0,0,0-4,1.053,8.331,8.331,0,0,0-1.3.726A4.364,4.364,0,0,0,.393,19.275,2.346,2.346,0,0,0,0,20.589v2.39A2.068,2.068,0,0,0,.289,24a3.322,3.322,0,0,0,.633.846,6.225,6.225,0,0,0,1.211.878,9,9,0,0,0,1.391.606,12.886,12.886,0,0,0,2.27.606,15.625,15.625,0,0,0,2.3.273.267.267,0,0,1,.12.033.229.229,0,0,1,.093.033h2.149l1.238-.153a17.32,17.32,0,0,0,2.242-.366,10.911,10.911,0,0,0,2.117-.726,6.459,6.459,0,0,0,1.238-.666,4.686,4.686,0,0,0,1-1,2.335,2.335,0,0,0,.486-1.391q.033-1.451,0-2.45a2.269,2.269,0,0,0-.229-1.031,2.9,2.9,0,0,0-.633-.818,5.586,5.586,0,0,0-1.211-.906,9,9,0,0,0-1.429-.611,13.284,13.284,0,0,0-3.175-.726.371.371,0,0,1-.153-.06.246.246,0,0,1-.06-.18V12a.338.338,0,0,1,.033-.153.987.987,0,0,1,.153-.12A5.941,5.941,0,0,0,15.461,7.31a6.056,6.056,0,0,0-.06-2.7A6.329,6.329,0,0,0,14.184,2.21,5.9,5.9,0,0,0,10.366.06,3.775,3.775,0,0,1,9.973,0H8.882M7.67,1.969a1.042,1.042,0,0,1,.3.818,1.757,1.757,0,0,1-.273.786,2.728,2.728,0,0,1-.606.693,2.482,2.482,0,0,1-.633.393,1.948,1.948,0,0,1-.758.153.867.867,0,0,1-.633-.333,1.037,1.037,0,0,1-.158-.693,2.526,2.526,0,0,1,.366-.906,2.8,2.8,0,0,1,.666-.726,2.231,2.231,0,0,1,1.031-.393.818.818,0,0,1,.726.213M8.183,12.2a6.547,6.547,0,0,0,2.51,0v8.085a.671.671,0,0,1-.033.213.7.7,0,0,1-.18.12,3.061,3.061,0,0,1-2.117-.033.218.218,0,0,1-.153-.093.245.245,0,0,1-.06-.18V12.384a.546.546,0,0,0,.033-.18m6.6,6.083a8.336,8.336,0,0,1,.971.366,5.379,5.379,0,0,1,.878.546,4.752,4.752,0,0,1,.666.606,1.189,1.189,0,0,1,.267.927,1.56,1.56,0,0,1-.426.906,3.819,3.819,0,0,1-.775.616,5.057,5.057,0,0,1-.878.453,11.97,11.97,0,0,1-2.34.753,16.367,16.367,0,0,1-2.45.333,17.731,17.731,0,0,1-5.69-.486,9.891,9.891,0,0,1-1.364-.393,8.729,8.729,0,0,1-1.3-.693,3.475,3.475,0,0,1-.971-1,1.249,1.249,0,0,1-.153-.818,1.5,1.5,0,0,1,.415-.764,4.217,4.217,0,0,1,.906-.726,6.629,6.629,0,0,1,1-.486,13.841,13.841,0,0,1,3.241-.786h.153v.726a.126.126,0,0,1-.06.093l-.109.087-.846.18q-.546.12-.878.213a4.446,4.446,0,0,0-1.7.846,1.091,1.091,0,0,0-.393.726,1.015,1.015,0,0,0,.322.709,3.273,3.273,0,0,0,1.309.758,11.184,11.184,0,0,0,2.728.638,18.62,18.62,0,0,0,2.842.093A12.651,12.651,0,0,0,12.21,22.5a12.052,12.052,0,0,0,2-.513,5.843,5.843,0,0,0,.758-.333,2.084,2.084,0,0,0,.666-.573,1.047,1.047,0,0,0,.191-.676.889.889,0,0,0-.366-.606,4.1,4.1,0,0,0-.906-.573,5.058,5.058,0,0,0-1.031-.366,6.7,6.7,0,0,0-.7-.18q-.339-.049-.671-.131a.382.382,0,0,1-.18-.093.3.3,0,0,1-.06-.213v-.622a14.659,14.659,0,0,1,2.875.666M17.6,22.041v.878a1.522,1.522,0,0,1-.213.666,2.3,2.3,0,0,1-.486.513,5.128,5.128,0,0,1-1.091.726,7.96,7.96,0,0,1-1.238.486,15.276,15.276,0,0,1-3.541.7,21.708,21.708,0,0,1-3.6-.06,13.006,13.006,0,0,1-3.873-.878,9.306,9.306,0,0,1-1-.486,3.819,3.819,0,0,1-.878-.7,1.5,1.5,0,0,1-.453-1.058v-.758a4.125,4.125,0,0,0,.409.3,6.356,6.356,0,0,0,1.937,1.118,15.412,15.412,0,0,0,3.693.846,21.321,21.321,0,0,0,3.781.033A14.577,14.577,0,0,0,13.481,24a10.813,10.813,0,0,0,2.34-.786,6.247,6.247,0,0,0,1.571-1.031.9.9,0,0,0,.207-.147Z" transform="translate(0)" fill="#fff"/></g></g></g></svg>