<svg xmlns="http://www.w3.org/2000/svg" xmlns:xlink="http://www.w3.org/1999/xlink" width="54.55" height="54.55" viewBox="0 0 54.55 54.55"><defs><linearGradient id="a" x1="0.5" x2="0.5" y2="1" gradientUnits="objectBoundingBox"><stop offset="0" stop-color="#ff24ee"/><stop offset="1" stop-color="#c700b8"/></linearGradient><filter id="b" x="0" y="0" width="54.55" height="54.55" filterUnits="userSpaceOnUse"><feOffset dy="2" input="SourceAlpha"/><feGaussianBlur stdDeviation="3" result="c"/><feFlood flood-color="#dbe3ff"/><feComposite operator="in" in2="c"/><feComposite in="SourceGraphic"/></filter></defs><g transform="translate(-322 -823)"><g transform="matrix(1, 0, 0, 1, 322, 823)" filter="url(#b)"><path d="M9.4,0H27.151a9.4,9.4,0,0,1,9.4,9.4V27.151a9.4,9.4,0,0,1-9.4,9.4H9.4a9.4,9.4,0,0,1-9.4-9.4V9.4A9.4,9.4,0,0,1,9.4,0Z" transform="translate(9 7)" fill="url(#a)"/></g><g transform="translate(330.678 827.671)"><path d="M29.576,25.476l.024-.209s3.026.382,3.041.382a.3.3,0,0,0,.3-.3l0-2.149a.658.658,0,0,0-1.184-.391l-.77,1.029-1.49-.216h0l-4.664-.65a2.073,2.073,0,0,1-.923-.63,1.372,1.372,0,0,0,.675-.77,1.945,1.945,0,0,0-.25-1.5.8.8,0,0,0-.283-.942,7.687,7.687,0,0,0-1.7-.922.873.873,0,1,0-.558,1.654,5.878,5.878,0,0,1,1.366.591.8.8,0,0,0,.731.067,1.221,1.221,0,0,1,.121.864.819.819,0,0,1-.432.449,1.22,1.22,0,0,0-.745-.421l-1.1-.173h0l-4.473-.7h0l-.849-.132a8.226,8.226,0,0,0-1.143-1.244,1.578,1.578,0,0,0,.554-.973.3.3,0,0,0-.069-.219,9.8,9.8,0,0,0-1.6-1.5,1.814,1.814,0,0,0,.759-.6,2.1,2.1,0,0,0,.412-1.216l.078-2.92h.39a.885.885,0,0,0,.647-.277.9.9,0,0,0,.245-.665,1.772,1.772,0,0,0-.352-1.012,1.215,1.215,0,0,1-.206-.441c-.2-.786-1.148-3.325-4.9-2.989A4.248,4.248,0,0,0,7.37,11.013a2.073,2.073,0,0,0,1.162,1.772,3.887,3.887,0,0,0,.493,1.468,1.131,1.131,0,0,0-.39.326,2.591,2.591,0,0,0-.327.592h-.2a.873.873,0,0,0-.888.874v.98a18.394,18.394,0,0,0-2.842,6.529,2.774,2.774,0,0,0,.4,2.095,5.665,5.665,0,0,0,.59.746l-.439.58a.293.293,0,0,0-.067.086,1.575,1.575,0,0,0-.164.7v1.209a1.374,1.374,0,0,0,.3.864V31.5A1.9,1.9,0,0,0,6.9,33.4h.579v.9a.3.3,0,0,0,.3.3h9.7a.287.287,0,0,0,.3-.314,9.18,9.18,0,0,1,1.851-4.964,8.286,8.286,0,0,0,.59-1.014c1.252-.135,2.119-.224,2.573-.265a3.95,3.95,0,0,0,1.975-.771s1.076.162,1.32-.712l.478.02-3.282,5.848a.3.3,0,0,0,.127.418l1.013.518a.3.3,0,0,0,.4-.118l.926-1.607,1.075.427-.033,1.743a.3.3,0,0,0,.3.3h1.265a.3.3,0,0,0,.3-.3l.048-7.693a3.294,3.294,0,0,1,.679-.4A.259.259,0,0,0,29.576,25.476Zm2.664-2.3a.048.048,0,0,1,.059-.019.048.048,0,0,1,.036.05v.83l-.67-.1ZM10.249,31.5a1.29,1.29,0,0,1-1.29,1.289H6.9a1.209,1.209,0,0,1-.421-.913v-.254l3.766-.557ZM6.994,30.368v-.777a.356.356,0,0,1,.712,0v.777a.356.356,0,0,1-.712,0Zm3.255-1.39a.777.777,0,0,1-.777.777H8.31V29.6a.96.96,0,0,0-.8-.95.764.764,0,0,1,.632-.487H9.3a2.814,2.814,0,0,0,.9-.147L10.246,28Zm3.249-.116a.479.479,0,0,1-.478.479h-.149a.3.3,0,1,0,0,.6h.147a1.069,1.069,0,0,0,.478-.113v.432a.941.941,0,0,1-.94.94h-.763a.941.941,0,0,1-.94-.943v-.386a.968.968,0,0,0,.362.071h.425v.129a.3.3,0,1,0,.6,0v-.85a.3.3,0,0,0-.6,0v.117h-.425a.363.363,0,0,1-.362-.363V27.794l1.138-.384a2.05,2.05,0,0,1,.6-.107l.813-.018.086.024ZM12.189,23.17a.7.7,0,0,1-.657.215,4.47,4.47,0,0,0-2.914.32.726.726,0,0,1-.432.076l-.482-.06a.288.288,0,0,1-.243-.357,16.7,16.7,0,0,1,.8-2.37.655.655,0,0,1,.7-.393l5.614.795-.116.718v.031a1.242,1.242,0,0,1-.006.15l-.568-.073a1.382,1.382,0,0,0-1.217.439Zm1.48,3.559-1.008-.286V24.8a.327.327,0,0,1,.327-.326h2.9a.416.416,0,0,1,.113.817l-.138.039a1.366,1.366,0,0,0-.709.477l-.456.587a.961.961,0,0,1-1.025.333Zm.432.633a1.563,1.563,0,0,0,1.068-.6l.278-.357c.34.155,1.051.657.876,2.127h0a12.415,12.415,0,0,0-1,1.705H14.1ZM17.183,34H14.938A6.742,6.742,0,0,1,15,33.314h2.266a6.643,6.643,0,0,0-.082.684ZM17.4,32.71H15.112c.046-.212.1-.441.173-.684H17.6c-.08.244-.146.473-.2.684Zm.42-1.289H15.484c.08-.219.173-.448.279-.684h2.352c-.11.237-.21.466-.3.684Zm.61-1.289H16.059c.117-.223.246-.452.389-.683h2.379q-.217.346-.4.683Zm.8-1.288H16.846c.036-.053.073-.1.111-.156q.189-.259.351-.528h2.311A7.529,7.529,0,0,1,19.224,28.845Zm.669-1.289H17.648c.117-.23.219-.459.31-.684h2.181C20.067,27.1,19.987,27.327,19.894,27.556Zm6.945,3.864-.783-.31.816-1.417Zm1.222,2.089H27.4l.132-6.891.124.005h.047a1.159,1.159,0,0,0,.4-.071Zm1.058-9.328-.11.936-2.516-.225a.651.651,0,0,1-.565-.455L25.7,23.7Zm-4.08.734a.626.626,0,0,1,.583.659l-.024.5a.63.63,0,0,1-.644.6l-2.028-.047a.624.624,0,0,1-.589-.447,2.173,2.173,0,0,1-.048-.891.629.629,0,0,1,.624-.534c.016-.008,2.127.149,2.127.149ZM22,21.891l.739.115a.617.617,0,0,1,.456.335,2.073,2.073,0,0,0,.3.45l-1.622-.215A1.837,1.837,0,0,0,22,21.891Zm-.869,1.2,3.29.436-.075.729L23,24.154a1.234,1.234,0,0,0-1.3.972l-.59-.019a10.5,10.5,0,0,0,.015-2.019Zm-2.45-.326,1.832.244c.016.156.035.391.043.685H18.59a8.53,8.53,0,0,0-.036-.945ZM18.56,24.3h1.994c-.007.212-.021.442-.044.684H18.478c.038-.24.068-.468.082-.685Zm-.2,1.289h2.073c-.035.222-.079.451-.133.684H18.172a6.911,6.911,0,0,0,.187-.685ZM15.2,21.206a.373.373,0,0,1,.425-.308l1.287.2.016.6a1,1,0,0,0,.033.223l-.624-.086a.3.3,0,0,0-.079.6l1.673.223a8.1,8.1,0,0,1,0,1.742l-1.214-.1a1.019,1.019,0,0,0-.839-.44h-.3a1.633,1.633,0,0,1-.527-1.078,4.649,4.649,0,0,1-.006-.594Zm-.777-5.69a1.19,1.19,0,0,1-.935.493,17.066,17.066,0,0,0-1.606-.941l.364-.173h0a5.492,5.492,0,0,0,1.836.345A2.746,2.746,0,0,0,14.6,15.2a1.367,1.367,0,0,1-.181.319Zm.294-.976a2.763,2.763,0,0,1-1.525,0,4.055,4.055,0,0,1-1.992-.985l-.015-.441h.374a1.948,1.948,0,0,0,.872-.206l1.351-.676a1.5,1.5,0,0,1,.672-.159h.324ZM10.6,7.1a3.6,3.6,0,0,1,.669-.133c3.188-.285,4.042,1.678,4.262,2.536a1.806,1.806,0,0,0,.313.659,1.189,1.189,0,0,1,.228.675.288.288,0,0,1-.08.217.282.282,0,0,1-.209.088H14.24a1.74,1.74,0,0,0-.956.282,12.771,12.771,0,0,1-1.433.806C11,12.375,10,12.186,9.8,10.6,9.435,7.722,10.6,7.1,10.6,7.1Zm-1.594,9.25a.626.626,0,0,1,.173-.371,13.3,13.3,0,0,1,2.655,1.173.3.3,0,1,0,.307-.518,13.541,13.541,0,0,0-2.159-1.016,1.184,1.184,0,0,1,.486-.548,13.967,13.967,0,0,1,4.722,3.183,1.4,1.4,0,0,1-.955.815,1.011,1.011,0,0,1-.836-.092A18.326,18.326,0,0,0,8.923,17.05C8.939,16.88,8.964,16.647,9.005,16.345ZM4.973,23.672c.021-.1.042-.2.065-.295.027-.073,1.5-3.995,3.272-4.618,1.793-.629,4.351.485,4.351.485.166.092.311.173.432.247a1.633,1.633,0,0,0,.827.227h.023a7.217,7.217,0,0,1,.457,1.045L9.035,20a1.259,1.259,0,0,0-1.338.755,17.122,17.122,0,0,0-.825,2.458.893.893,0,0,0,.056.6,1.681,1.681,0,0,0-.393.173.3.3,0,0,0,.313.518,1.559,1.559,0,0,1,.788-.177l.472.059a1.461,1.461,0,0,0,.173.011,1.322,1.322,0,0,0,.62-.154,3.832,3.832,0,0,1,2.5-.259.956.956,0,0,1,.656.837V26.45l-1.031.3a6.6,6.6,0,0,1-1.831.259H7.756a2.181,2.181,0,0,1-1.366-.478,5.341,5.341,0,0,1-1.106-1.209A2.173,2.173,0,0,1,4.973,23.672Z" transform="translate(0 0)" fill="#fff"/><path d="M54.9,178.8l-1-.125a.972.972,0,0,0-1.036.64l-.28.8a.3.3,0,0,0,.384.385,4.913,4.913,0,0,1,1.8-.225.742.742,0,0,0,.13-1.478Z" transform="translate(-44.075 -157.448)" fill="#fff"/><path d="M112.2,79.88a.316.316,0,1,0,.316.316A.316.316,0,0,0,112.2,79.88Z" transform="translate(-98.267 -67.198)" fill="#fff"/><path d="M103.047,133.14a.316.316,0,1,0,.315.316.316.316,0,0,0-.315-.316Z" transform="translate(-89.908 -115.858)" fill="#fff"/></g></g></svg>