<svg xmlns="http://www.w3.org/2000/svg" xmlns:xlink="http://www.w3.org/1999/xlink" width="54.55" height="54.55" viewBox="0 0 54.55 54.55"><defs><linearGradient id="a" x1="0.5" x2="0.5" y2="1" gradientUnits="objectBoundingBox"><stop offset="0" stop-color="#ff006c"/><stop offset="1" stop-color="#c90055"/></linearGradient><filter id="b" x="0" y="0" width="54.55" height="54.55" filterUnits="userSpaceOnUse"><feOffset dy="2" input="SourceAlpha"/><feGaussianBlur stdDeviation="3" result="c"/><feFlood flood-color="#dbe3ff"/><feComposite operator="in" in2="c"/><feComposite in="SourceGraphic"/></filter></defs><g transform="translate(-555 -2292)"><g transform="matrix(1, 0, 0, 1, 555, 2292)" filter="url(#b)"><path d="M9.4,0H27.151a9.4,9.4,0,0,1,9.4,9.4V27.151a9.4,9.4,0,0,1-9.4,9.4H9.4a9.4,9.4,0,0,1-9.4-9.4V9.4A9.4,9.4,0,0,1,9.4,0Z" transform="translate(9 7)" fill="url(#a)"/></g><g transform="translate(566.003 2301.238)"><path d="M29.78,17.88a3.879,3.879,0,0,0-2.629-3.84A11.737,11.737,0,0,0,23.827,9a.764.764,0,0,0,0-.149A2.976,2.976,0,0,0,23.5,7.4a1.766,1.766,0,0,0-.367-.526A2.977,2.977,0,0,0,23.5,6.3a3.066,3.066,0,0,0,.327-1.607,2.044,2.044,0,0,0-1.885-1.9A10.338,10.338,0,0,0,16.2,3.99h-.575A10.338,10.338,0,0,0,9.848,2.8a2.044,2.044,0,0,0-1.9,1.9A3.066,3.066,0,0,0,8.27,6.3a1.716,1.716,0,0,0,.367.526A3.145,3.145,0,0,0,8.27,7.4a2.976,2.976,0,0,0-.317,1.449.764.764,0,0,0,0,.149A11.906,11.906,0,0,0,4.6,14.051,3.889,3.889,0,0,0,2,17.88a3.889,3.889,0,0,0,2.629,3.84,11.906,11.906,0,0,0,22.522,0,3.909,3.909,0,0,0,2.629-3.84ZM19.789,4.853a7.074,7.074,0,0,1,2.054,0,1.23,1.23,0,0,1-.119.605,1.468,1.468,0,0,1-.129.208,1.915,1.915,0,0,0,0,2.441,1.577,1.577,0,0,1,.129.218,1.181,1.181,0,0,1,.119.536.109.109,0,0,1-.109.109,8.523,8.523,0,0,1-1.984-.089,8.086,8.086,0,0,1-1.369-.327A2.893,2.893,0,0,0,18.3,5.23a8.612,8.612,0,0,1,1.488-.377ZM16.882,6.967a.992.992,0,1,1-.992-.992A.992.992,0,0,1,16.882,6.967ZM10.2,5.627a.992.992,0,0,1-.139-.208A.873.873,0,0,1,10,4.774a8.929,8.929,0,0,1,1.984.079,8.612,8.612,0,0,1,1.488.377,2.951,2.951,0,0,0-.109,3.284,8.086,8.086,0,0,1-1.369.327,8.523,8.523,0,0,1-1.984.089.109.109,0,0,1-.069-.109,1.181,1.181,0,0,1,.119-.536,1.577,1.577,0,0,1,.129-.218,1.925,1.925,0,0,0,.01-2.441ZM26.467,19.865a.188.188,0,0,0-.079,0,.992.992,0,0,0-.992.7,9.922,9.922,0,0,1-19.089,0,.992.992,0,0,0-.893-.7H5.344A1.865,1.865,0,0,1,3.984,17.88,1.885,1.885,0,0,1,5.314,15.9h.079a.992.992,0,0,0,.992-.724,9.793,9.793,0,0,1,2.758-4.485,2.143,2.143,0,0,0,.794.248h.744a10.149,10.149,0,0,0,1.647-.129A10.7,10.7,0,0,0,15.3,9.874a2.976,2.976,0,0,0,1.27,0,10.7,10.7,0,0,0,2.976.933,10.149,10.149,0,0,0,1.647.129h.645a2.143,2.143,0,0,0,.8-.218A9.793,9.793,0,0,1,25.4,15.2a.992.992,0,0,0,.992.724h0a1.845,1.845,0,0,1,1.4,1.955,1.885,1.885,0,0,1-1.329,1.984Z" transform="translate(0)" fill="#fff"/><path d="M13.167,16.58a.992.992,0,0,0,1.587-1.191,3.473,3.473,0,0,0-5.556,0,.992.992,0,0,0,1.587,1.191,1.488,1.488,0,0,1,2.381,0Z" transform="translate(-0.055 -0.088)" fill="#fff"/><path d="M19.976,14A3.572,3.572,0,0,0,17.2,15.389a.992.992,0,0,0,1.587,1.191,1.488,1.488,0,0,1,2.381,0,.992.992,0,0,0,1.587-1.191A3.582,3.582,0,0,0,19.976,14Z" transform="translate(-0.118 -0.088)" fill="#fff"/><path d="M18.35,21.2a3.969,3.969,0,0,1-4.762,0A.992.992,0,1,0,12.4,22.786a5.953,5.953,0,0,0,7.144,0A.992.992,0,0,0,18.35,21.2Z" transform="translate(-0.078 -0.143)" fill="#fff"/></g></g></svg>