<svg width="12" height="20" viewBox="0 0 12 20" fill="none" xmlns="http://www.w3.org/2000/svg">
<path d="M9.50287 19.0375C9.10537 19.036 8.72447 18.8779 8.44287 18.5975L0.44286 10.5975C0.15949 10.3175 0 9.93578 0 9.53748C0 9.13918 0.15949 8.75738 0.44286 8.47748L8.44287 0.477457C8.81677 0.0761475 9.37997 -0.0890425 9.91147 0.0466875C10.4429 0.182418 10.8579 0.597417 10.9937 1.12888C11.1294 1.66035 10.9642 2.22352 10.5629 2.59746L3.62287 9.53748L10.5629 16.4775C10.8463 16.7574 11.0058 17.1392 11.0058 17.5375C11.0058 17.9358 10.8463 18.3175 10.5629 18.5975C10.2812 18.8779 9.90037 19.036 9.50287 19.0375Z" fill="#FC8C1B"/>
</svg>
