<svg xmlns="http://www.w3.org/2000/svg" xmlns:xlink="http://www.w3.org/1999/xlink" width="54.55" height="54.55" viewBox="0 0 54.55 54.55"><defs><linearGradient id="a" x1="0.5" x2="0.5" y2="1" gradientUnits="objectBoundingBox"><stop offset="0" stop-color="#ff006c"/><stop offset="1" stop-color="#c90055"/></linearGradient><filter id="b" x="0" y="0" width="54.55" height="54.55" filterUnits="userSpaceOnUse"><feOffset dy="2" input="SourceAlpha"/><feGaussianBlur stdDeviation="3" result="c"/><feFlood flood-color="#dbe3ff"/><feComposite operator="in" in2="c"/><feComposite in="SourceGraphic"/></filter></defs><g transform="translate(-555 -2032)"><g transform="matrix(1, 0, 0, 1, 555, 2032)" filter="url(#b)"><path d="M9.4,0H27.151a9.4,9.4,0,0,1,9.4,9.4V27.151a9.4,9.4,0,0,1-9.4,9.4H9.4a9.4,9.4,0,0,1-9.4-9.4V9.4A9.4,9.4,0,0,1,9.4,0Z" transform="translate(9 7)" fill="url(#a)"/></g><g transform="translate(573 2043)"><path d="M25.442,9.473v14.7a.98.98,0,0,0,.98.98h4.9a.98.98,0,0,0,.98-.98V9.473a.98.98,0,0,0-.98-.98h-4.9A.98.98,0,0,0,25.442,9.473ZM17,2.245a4.55,4.55,0,0,0-4.052,2.009c-3.03,4.736,2.083,16.359,2.683,17.683l-.407,7.722a1.885,1.885,0,1,0,3.765,0l-.407-7.722c.6-1.323,5.713-12.947,2.683-17.683a4.555,4.555,0,0,0-4.052-2.009c-.037,0-.073,0-.106,0S17.042,2.242,17,2.245Zm1.084,18.372c.508-3.8,1.7-13.957.378-17.233a3.194,3.194,0,0,1,1.977,1.4C22.817,8.49,19.365,17.565,18.088,20.617ZM15.756,3.384c-1.32,3.276-.13,13.436.378,17.233C14.86,17.565,11.405,8.49,13.779,4.781a3.194,3.194,0,0,1,1.977-1.4Zm1.124-.03c.116-.134.2-.134.231-.134s.116,0,.231.134c1.353,1.565.647,10.706-.231,17.188C16.232,14.06,15.527,4.919,16.88,3.354Zm11.993-.741A1.353,1.353,0,0,1,30.22,4.078l-.286,3.435H27.81l-.286-3.435a1.353,1.353,0,0,1,1.348-1.465ZM27.524,29.57l.286-3.435h2.124l.286,3.435a1.353,1.353,0,1,1-2.7,0Z" transform="translate(-12 -2.24)" fill="#fff"/></g></g></svg>