<svg xmlns="http://www.w3.org/2000/svg" xmlns:xlink="http://www.w3.org/1999/xlink" width="54.55" height="54.55" viewBox="0 0 54.55 54.55"><defs><linearGradient id="a" x1="0.5" x2="0.5" y2="1" gradientUnits="objectBoundingBox"><stop offset="0" stop-color="#d0e931"/><stop offset="1" stop-color="#acc10a"/></linearGradient><filter id="b" x="0" y="0" width="54.55" height="54.55" filterUnits="userSpaceOnUse"><feOffset dy="2" input="SourceAlpha"/><feGaussianBlur stdDeviation="3" result="c"/><feFlood flood-color="#dbe3ff"/><feComposite operator="in" in2="c"/><feComposite in="SourceGraphic"/></filter></defs><g transform="translate(-775 -397)"><g transform="matrix(1, 0, 0, 1, 775, 397)" filter="url(#b)"><path d="M9.4,0H27.151a9.4,9.4,0,0,1,9.4,9.4V27.151a9.4,9.4,0,0,1-9.4,9.4H9.4a9.4,9.4,0,0,1-9.4-9.4V9.4A9.4,9.4,0,0,1,9.4,0Z" transform="translate(9 7)" fill="url(#a)"/></g><g transform="translate(789.07 409.067)"><g transform="translate(-1.07 -1.067)"><g transform="translate(0 0)"><path d="M4.228,4.189A14.741,14.741,0,0,0,1.114,8.741,14.367,14.367,0,0,0,0,14.327a13.448,13.448,0,0,0,1.115,5.586A14.327,14.327,0,0,0,8.74,27.585a13.919,13.919,0,0,0,5.586,1.149,14.367,14.367,0,0,0,5.586-1.115,14.177,14.177,0,0,0,4.551-3.075,14.188,14.188,0,0,0,4.27-10.137,14.367,14.367,0,0,0-1.115-5.586,14.942,14.942,0,0,0-3.075-4.6,14.057,14.057,0,0,0-4.6-3.075A13.643,13.643,0,0,0,14.4,0,14.367,14.367,0,0,0,8.814,1.115a14.057,14.057,0,0,0-4.6,3.075M7.05,5.948l-.73-.96A10.005,10.005,0,0,1,9.768,2.753,12.5,12.5,0,0,1,14,1.873a11.586,11.586,0,0,1,8.413,3.075l-.759,1a3.126,3.126,0,0,0-.879-.575.77.77,0,0,0-.879.322.833.833,0,0,0-.08,1.075,9.689,9.689,0,0,0,.718.839L19.716,9.54a6.074,6.074,0,0,0-1.149-.322.776.776,0,0,0-.879.638.822.822,0,0,0,.351,1.063q.322.161,1.115.477l-.241,1.954a7.706,7.706,0,0,0-1.149.121.833.833,0,0,0-.575.879.9.9,0,0,0,.575.879l1.115.08.282,1.994a5.172,5.172,0,0,0-1.4.8.707.707,0,0,0-.121.759.833.833,0,0,0,.575.575,4.8,4.8,0,0,0,1.437-.241q.121.282.362.8a5,5,0,0,1,.356.8.638.638,0,0,1,0,.322.575.575,0,0,1-.121.282,4.086,4.086,0,0,0-.575.759.833.833,0,0,0,.241.879.81.81,0,0,0,.839.322,2.356,2.356,0,0,0,.839-.575l.816,1.006a11.356,11.356,0,0,1-3.672,2.3,13.051,13.051,0,0,1-4.27.8,11.672,11.672,0,0,1-8.183-3.115l.8-.96.282.282a.483.483,0,0,0,.241.121,2.477,2.477,0,0,0,.638,0,.621.621,0,0,0,.437-.121,1.207,1.207,0,0,0,.178-.678q.08-.4-.04-.477a1.086,1.086,0,0,1-.575-1.115q.04-.121.437-1.08l.241-.575a6.075,6.075,0,0,1,1.149.322.776.776,0,0,0,.879-.638.879.879,0,0,0-.339-1.034A6.184,6.184,0,0,1,9.5,17.338l.241-1.954a11.006,11.006,0,0,1,1.149-.161q.575-.161.575-.96a.77.77,0,0,0-.575-.759,9.649,9.649,0,0,0-1.115-.08L9.533,11.43a7.471,7.471,0,0,1,1.149-.517.793.793,0,0,0,.236-1.144.764.764,0,0,0-.879-.575q-.718.241-1.08.322-.282-.575-.4-.839a6.574,6.574,0,0,1-.356-.839.362.362,0,0,1,.04-.282.506.506,0,0,1,.121-.241,1.977,1.977,0,0,0,.575-.8.862.862,0,0,0-.2-.879.879.879,0,0,0-.879-.282,2.741,2.741,0,0,0-.8.575m-2.155,2.3a.793.793,0,0,0,.161,1.149.782.782,0,0,0,.8.241,2.19,2.19,0,0,0,.8-.575l.477,1.115a7.931,7.931,0,0,0-.879.477.833.833,0,0,0-.2.96.776.776,0,0,0,.638.575,2.873,2.873,0,0,0,.965-.1L7.826,13.3a4.862,4.862,0,0,0-1.08.2.81.81,0,0,0-.517.919.764.764,0,0,0,.575.759,2.8,2.8,0,0,0,1.04.121l-.178,1.362a1.925,1.925,0,0,0-.96-.121.776.776,0,0,0-.638.575.816.816,0,0,0,.161.919,2.575,2.575,0,0,0,.919.477l-.437,1.115a2.373,2.373,0,0,0-.839-.517.879.879,0,0,0-.879.282.644.644,0,0,0-.2.759,5.172,5.172,0,0,0,.919,1.236l-.8,1.023a10.741,10.741,0,0,1-2.3-3.712,12.574,12.574,0,0,1-.759-4.35,12.246,12.246,0,0,1,.759-4.31,10.344,10.344,0,0,1,2.3-3.672l.759.879a2.029,2.029,0,0,1-.362.517,5.879,5.879,0,0,0-.4.477m17.045.816a2.132,2.132,0,0,0,.879.575.782.782,0,0,0,.839-.322.776.776,0,0,0,.08-1.08,6.35,6.35,0,0,1-.8-.919l.753-.988A6.9,6.9,0,0,1,26,9.632a14.223,14.223,0,0,1,.759,4.747A13.879,13.879,0,0,1,26,19.085a6.368,6.368,0,0,1-2.3,3.23l-.759-.919a7.31,7.31,0,0,1,.8-.96.787.787,0,0,0-.184-1.08.672.672,0,0,0-.8-.241,1.977,1.977,0,0,0-.8.575l-.477-1.115a4.264,4.264,0,0,0,.879-.517.764.764,0,0,0,.2-.919.793.793,0,0,0-.678-.575,3.632,3.632,0,0,0-.96.08l-.08-1.236a3.218,3.218,0,0,0,1.04-.2.8.8,0,0,0,.517-.839.782.782,0,0,0-.477-.8,3.4,3.4,0,0,0-1.08-.121l.1-1.379a2.523,2.523,0,0,0,1.04.08.8.8,0,0,0,.638-.655.8.8,0,0,0-.218-.839,2.247,2.247,0,0,0-.919-.437Z" transform="translate(0.003 0)" fill="#fff"/></g></g></g></g></svg>