<svg xmlns="http://www.w3.org/2000/svg" xmlns:xlink="http://www.w3.org/1999/xlink" width="54.55" height="54.55" viewBox="0 0 54.55 54.55"><defs><linearGradient id="a" x1="0.5" x2="0.5" y2="1" gradientUnits="objectBoundingBox"><stop offset="0" stop-color="#d0e931"/><stop offset="1" stop-color="#acc10a"/></linearGradient><filter id="b" x="0" y="0" width="54.55" height="54.55" filterUnits="userSpaceOnUse"><feOffset dy="2" input="SourceAlpha"/><feGaussianBlur stdDeviation="3" result="c"/><feFlood flood-color="#dbe3ff"/><feComposite operator="in" in2="c"/><feComposite in="SourceGraphic"/></filter></defs><g transform="translate(-551 -397)"><g transform="matrix(1, 0, 0, 1, 551, 397)" filter="url(#b)"><path d="M9.4,0H27.151a9.4,9.4,0,0,1,9.4,9.4V27.151a9.4,9.4,0,0,1-9.4,9.4H9.4a9.4,9.4,0,0,1-9.4-9.4V9.4A9.4,9.4,0,0,1,9.4,0Z" transform="translate(9 7)" fill="url(#a)"/></g><g transform="translate(564 408)"><g transform="translate(0)"><path d="M.078,12.517a.347.347,0,0,1-.039.157A.3.3,0,0,1,0,12.792v2.374q0,.078.274,1.478.2.857.347,1.4A13.4,13.4,0,0,0,5.1,24.76a13.665,13.665,0,0,0,7.423,3.113,3.975,3.975,0,0,1,.425.118h2.1q.5-.118,1.517-.313a12.147,12.147,0,0,0,1.517-.353A13.172,13.172,0,0,0,24.766,22.9a13.626,13.626,0,0,0,3.113-7.384A2.329,2.329,0,0,1,28,15.16V12.792q-.2-.935-.274-1.36a9.113,9.113,0,0,0-.347-1.4A13.737,13.737,0,0,0,16.016.157L15.042,0h-2.1L11.51.235A10.67,10.67,0,0,0,10.077.56Q1.36,3.46.078,12.517M9.757,2.564l3.264-.7v2.57a.829.829,0,0,0-.425.078,1,1,0,0,1-.778,0,1.836,1.836,0,0,1-.621-.593,2.861,2.861,0,0,0-.621-.661l-.817-.694M9.6,7a4.87,4.87,0,0,0,.5-.078,6.158,6.158,0,0,1-1.013,3.42q-.974,1.517-2.138,2.995a14.745,14.745,0,0,0-2.239,3.359,14.163,14.163,0,0,0-.795,3.947A12.8,12.8,0,0,1,2.676,18.5a8.072,8.072,0,0,1-.56-2.3,6.718,6.718,0,0,1,.621-3.5,8.884,8.884,0,0,1,2.1-2.877A12.758,12.758,0,0,1,9.618,6.992m2.452-.5.974-.157V26.126L9.97,25.309l-.409-.118a3.466,3.466,0,0,1-.347-.2,5.285,5.285,0,0,1-2.877-2.374,5.637,5.637,0,0,1-.347-3.734,7.278,7.278,0,0,1,.974-2.374q.313-.465,1.478-2.06a43.4,43.4,0,0,0,2.681-3.919,5.956,5.956,0,0,0,.739-1.943,14.555,14.555,0,0,0,.2-2.1m4.355-2.06-.179.118A.733.733,0,0,1,16,4.59l-.465-.078-.56-.078V1.864l3.113.7L16.408,4.428M14.969,6.371l.935.078a9.433,9.433,0,0,0,.661,3.5,13.676,13.676,0,0,0,1.786,3.113l1.713,2.1a7.944,7.944,0,0,1,2.06,5.4,4.205,4.205,0,0,1-2.642,4.159q-1.36.56-2.178.857A11.756,11.756,0,0,1,14.969,26V6.376M3.073,8.957a5.481,5.481,0,0,1,.661-1.4,14.734,14.734,0,0,1,1.2-1.635A16.157,16.157,0,0,1,6.3,4.641a2.077,2.077,0,0,1,1.679-.425,2.6,2.6,0,0,1,1.679.778A14.27,14.27,0,0,0,3.073,8.957m15.2-3.919a1.886,1.886,0,0,0,.274-.235l.2-.2a2.877,2.877,0,0,1,1.679-.353,2.6,2.6,0,0,1,1.517.661,11.2,11.2,0,0,1,2.995,4,15.143,15.143,0,0,0-6.662-3.879m-.425,1.825A13.379,13.379,0,0,1,21.424,8.5,10.267,10.267,0,0,1,24.3,11.1,6.914,6.914,0,0,1,25.858,16.2a8.537,8.537,0,0,1-.56,2.3,16.436,16.436,0,0,1-1.164,2.138q-.118-.857-.2-1.282a9.024,9.024,0,0,0-.2-1.2,6.8,6.8,0,0,0-.817-2.178,16.234,16.234,0,0,0-1.321-1.9l-1.36-1.786q-.778-1.013-1.282-1.786a6.835,6.835,0,0,1-1.12-3.65Z" transform="translate(0)" fill="#fff"/></g></g></g></svg>