<svg xmlns="http://www.w3.org/2000/svg" xmlns:xlink="http://www.w3.org/1999/xlink" width="54.55" height="54.55" viewBox="0 0 54.55 54.55"><defs><linearGradient id="a" x1="0.5" x2="0.5" y2="1" gradientUnits="objectBoundingBox"><stop offset="0" stop-color="#ff006c"/><stop offset="1" stop-color="#c90055"/></linearGradient><filter id="b" x="0" y="0" width="54.55" height="54.55" filterUnits="userSpaceOnUse"><feOffset dy="2" input="SourceAlpha"/><feGaussianBlur stdDeviation="3" result="c"/><feFlood flood-color="#dbe3ff"/><feComposite operator="in" in2="c"/><feComposite in="SourceGraphic"/></filter></defs><g transform="translate(-325 -2162)"><g transform="matrix(1, 0, 0, 1, 325, 2162)" filter="url(#b)"><path d="M9.4,0H27.151a9.4,9.4,0,0,1,9.4,9.4V27.151a9.4,9.4,0,0,1-9.4,9.4H9.4a9.4,9.4,0,0,1-9.4-9.4V9.4A9.4,9.4,0,0,1,9.4,0Z" transform="translate(9 7)" fill="url(#a)"/></g><g transform="translate(479.004 2130.998)"><path d="M7.846.866a5.032,5.032,0,0,1,6.11.376A4.9,4.9,0,0,1,15.2,2.637c.281.476.78,1.448-.148,1.6-.363.056-1-.438-1.494-.6a9.606,9.606,0,0,0-1.927-.4,9.419,9.419,0,0,0-3.4.258,10.846,10.846,0,0,0-1.6.576c-.238.113-.729.435-.86.018C5.454,3.115,7.135,1.35,7.846.866Zm9.861,26.5,1.082-1.126-.977-.977-1.082,1.126.977.977Zm1.328-.89L17.986,27.6c.571.571,3.252,3.464,3.344,3.372l1.08-1.046a.06.06,0,0,0,0-.084l-3.375-3.37ZM22.785,29.7a.334.334,0,0,1,0,.468l-1.172,1.172a.334.334,0,0,1-.471,0l-4.861-4.861c-.01-.01-.159-.059-.391-.133a8.886,8.886,0,0,1-3.4,2.431,5.491,5.491,0,0,1-4.147-.092A8.184,8.184,0,0,1,6.06,27.191a11.018,11.018,0,0,1-1.911-2.328A18.942,18.942,0,0,1,2.7,22.007a3.853,3.853,0,0,1-.548-.207,3.614,3.614,0,0,1-.675-.407A3.69,3.69,0,0,1,.247,19.615a5.4,5.4,0,0,1-.2-2.4,2.9,2.9,0,0,1,.335-1.054,2.133,2.133,0,0,1,.719-.752h0a.466.466,0,0,1,.279-.072,11.693,11.693,0,0,1-.107-2.669,8.081,8.081,0,0,1,2.74-6.335c3.022-2.661,9.006-2.891,12.335-.6a7.447,7.447,0,0,1,1.366,1.215A12.91,12.91,0,0,1,20.242,14a5,5,0,0,1-.251,1.481c-.005.049-.018.1-.031.164a2.855,2.855,0,0,1,.862.832,2.614,2.614,0,0,1,.414,1.6,3.783,3.783,0,0,1-.565,1.707,6.184,6.184,0,0,1-1.827,1.86,18.794,18.794,0,0,1-1.205,2.344l.31.878L22.785,29.7Zm-7.87-3.659c-.88-.271-1.891-.581-2.078-.637a.138.138,0,0,1-.095-.154A4.822,4.822,0,0,1,14.1,22.6a3.974,3.974,0,0,1,2.523-1.21.143.143,0,0,1,.141.1l.478,1.356a17.761,17.761,0,0,0,.808-1.684.484.484,0,0,1,.182-.215,5.345,5.345,0,0,0,1.655-1.64,2.84,2.84,0,0,0,.432-1.279,1.711,1.711,0,0,0-.264-1.046,1.768,1.768,0,0,0-.414-.44,16.031,16.031,0,0,1-1.676,2.845v-4.7c-2.154-1-3.564-3.193-4.283-6.491-.86,6.281-8.574,6.007-10.51,7.154v3.664a17.05,17.05,0,0,1-1-1.576A7.506,7.506,0,0,1,1.6,16.176h0l-.01.008a1.2,1.2,0,0,0-.407.432,1.921,1.921,0,0,0-.225.716,4.478,4.478,0,0,0,.161,1.991,2.74,2.74,0,0,0,.916,1.338,2.9,2.9,0,0,0,.507.307,3.292,3.292,0,0,0,.6.212.455.455,0,0,1,.317.276,18.188,18.188,0,0,0,1.458,2.922,10.1,10.1,0,0,0,1.753,2.134A7.245,7.245,0,0,0,8.7,27.843a4.589,4.589,0,0,0,3.474.077,7.59,7.59,0,0,0,2.743-1.878Zm-5.565-2.18a.3.3,0,0,1,.386.187c.171.327,1.471.356,1.717-.018a.3.3,0,0,1,.558.235c-.438.862-2.482.839-2.845-.018a.3.3,0,0,1,.184-.386Zm4.411-4.951-.351.432a.3.3,0,0,1-.425.049.3.3,0,0,1-.049-.427l.243-.3a.3.3,0,0,1,.348-.5,1.947,1.947,0,0,0,1.034.23,2.113,2.113,0,0,0,1.067-.276.3.3,0,0,1,.417.092.3.3,0,0,1-.095.42l-.028.018.271.3a.3.3,0,0,1-.023.43.3.3,0,0,1-.427-.023l-.42-.461a2.83,2.83,0,0,1-.435.082v.427a.307.307,0,0,1-.3.3.3.3,0,0,1-.3-.3v-.414a3.181,3.181,0,0,1-.519-.079Zm-7.97.008-.343.422a.3.3,0,0,1-.473-.379l.233-.289L5.2,18.666a.3.3,0,1,1,.34-.5,1.933,1.933,0,0,0,1.011.243.4.4,0,0,1,.079-.01A.279.279,0,0,1,6.7,18.4a2.205,2.205,0,0,0,1.008-.269.3.3,0,0,1,.3.527l-.018.01.246.271a.3.3,0,1,1-.45.409l-.4-.443a2.976,2.976,0,0,1-.455.082V19.4a.3.3,0,0,1-.609,0V19a2.3,2.3,0,0,1-.527-.079Zm7.676-2.008a.3.3,0,1,1-.351-.494,3.049,3.049,0,0,1,1.753-.617,3.109,3.109,0,0,1,1.791.611.3.3,0,0,1-.345.5,2.539,2.539,0,0,0-1.446-.5,2.4,2.4,0,0,0-1.4.5Zm-8.533,0a.3.3,0,1,1-.351-.494A3.055,3.055,0,0,1,6.337,15.8a3.1,3.1,0,0,1,1.791.611.3.3,0,1,1-.343.5,2.545,2.545,0,0,0-1.446-.5,2.429,2.429,0,0,0-1.4.5Z" transform="translate(-138 41)" fill="#fff" fill-rule="evenodd"/></g></g></svg>