<svg xmlns="http://www.w3.org/2000/svg" xmlns:xlink="http://www.w3.org/1999/xlink" width="54.55" height="54.55" viewBox="0 0 54.55 54.55"><defs><linearGradient id="a" x1="0.5" x2="0.5" y2="1" gradientUnits="objectBoundingBox"><stop offset="0" stop-color="#ff2c32"/><stop offset="1" stop-color="#d81f0c"/></linearGradient><filter id="b" x="0" y="0" width="54.55" height="54.55" filterUnits="userSpaceOnUse"><feOffset dy="2" input="SourceAlpha"/><feGaussianBlur stdDeviation="3" result="c"/><feFlood flood-color="#dbe3ff"/><feComposite operator="in" in2="c"/><feComposite in="SourceGraphic"/></filter></defs><g transform="translate(-320 -2648)"><g transform="translate(0 98)"><g transform="translate(175.5 2255)"><g transform="matrix(1, 0, 0, 1, 144.5, 295)" filter="url(#b)"><path d="M9.4,0H27.151a9.4,9.4,0,0,1,9.4,9.4V27.151a9.4,9.4,0,0,1-9.4,9.4H9.4a9.4,9.4,0,0,1-9.4-9.4V9.4A9.4,9.4,0,0,1,9.4,0Z" transform="translate(9 7)" fill="url(#a)"/></g></g><g transform="translate(331.864 2559.961)"><g transform="translate(-0.008 -0.008)"><g transform="translate(0 0)"><path d="M16.661.854A1.411,1.411,0,0,0,15.251,0a1.469,1.469,0,0,0-1.411.81V.848L9.993,8.67,1.367,9.906A1.451,1.451,0,0,0,.084,11.019,1.446,1.446,0,0,0,.469,12.6l6.237,6.114L5.243,27.264A1.393,1.393,0,0,0,5.884,28.8a1.44,1.44,0,0,0,1.667.128l7.688-4.08,7.688,4.08a1.446,1.446,0,0,0,1.667-.128,1.481,1.481,0,0,0,.641-1.539L23.8,18.719l6.2-6.114h.041a1.446,1.446,0,0,0,.385-1.58,1.451,1.451,0,0,0-1.277-1.119l-8.592-1.23L16.661.854m-5.38,9.53a2.122,2.122,0,0,0,.472-.583l3.5-7.14,3.5,7.14a1.428,1.428,0,0,0,.583.641,3.217,3.217,0,0,0,.583.216H20l7.857,1.166-5.712,5.526a1.4,1.4,0,0,0-.513,1.451L23,26.623,15.979,22.91h-.087a1.358,1.358,0,0,0-1.282-.041l-.041.041L7.475,26.623,8.845,18.8a1.521,1.521,0,0,0-.513-1.451L2.7,11.835l7.816-1.166H10.6l.583-.216.087-.087m9.326-1.5a1.213,1.213,0,0,0-.256-.216l.128.041h.041Z" transform="translate(0.008 0.008)" fill="#fff"/></g></g></g></g><path d="M-5.046-.013a1.337,1.337,0,0,0,.269.041q.165.011.314.011a.925.925,0,0,0,.5-.123.421.421,0,0,0,.2-.385.384.384,0,0,0-.165-.352.95.95,0,0,0-.5-.1h-.613Zm0-1.825H-4.5a.735.735,0,0,0,.467-.12.428.428,0,0,0,.146-.352.375.375,0,0,0-.168-.322.872.872,0,0,0-.5-.12q-.112,0-.258.007a1.888,1.888,0,0,0-.228.022Zm.486,2.88q-.127,0-.3-.007T-5.215,1Q-5.4.982-5.578.948A1.757,1.757,0,0,1-5.907.854.557.557,0,0,1-6.318.308V-3.185a.329.329,0,0,1,.086-.243A.615.615,0,0,1-6-3.566,2.862,2.862,0,0,1-5.361-3.7a7.322,7.322,0,0,1,.785-.041A2.8,2.8,0,0,1-3.1-3.416a1.089,1.089,0,0,1,.516.995.9.9,0,0,1-.194.58,1.111,1.111,0,0,1-.524.355,1.3,1.3,0,0,1,.625.381,1,1,0,0,1,.251.7,1.213,1.213,0,0,1-.55,1.1A2.921,2.921,0,0,1-4.56,1.041Zm2.8-3.957a.687.687,0,0,1,.187-.509.687.687,0,0,1,.509-.187H1.4a.9.9,0,0,1,.093.217.967.967,0,0,1,.041.284.547.547,0,0,1-.123.4.448.448,0,0,1-.325.12H-.491v.7H1.191a.906.906,0,0,1,.093.213.93.93,0,0,1,.041.28.559.559,0,0,1-.12.4.435.435,0,0,1-.322.12H-.491v.785H1.431a.9.9,0,0,1,.093.217.967.967,0,0,1,.041.284.561.561,0,0,1-.123.408.44.44,0,0,1-.325.123H-1.067A.687.687,0,0,1-1.576.757.687.687,0,0,1-1.763.249ZM3.585-.881q-.329-.112-.6-.228a1.836,1.836,0,0,1-.464-.28,1.163,1.163,0,0,1-.3-.393,1.291,1.291,0,0,1-.108-.557A1.224,1.224,0,0,1,2.6-3.357a2.187,2.187,0,0,1,1.372-.381,3.744,3.744,0,0,1,.6.045,1.784,1.784,0,0,1,.475.138.827.827,0,0,1,.31.239.542.542,0,0,1,.112.34.6.6,0,0,1-.09.333.933.933,0,0,1-.217.236,1.691,1.691,0,0,0-.441-.183,2.213,2.213,0,0,0-.606-.079,1,1,0,0,0-.494.093.273.273,0,0,0-.157.236.218.218,0,0,0,.1.183,1.01,1.01,0,0,0,.292.131l.4.127a2.87,2.87,0,0,1,1.081.572,1.223,1.223,0,0,1,.378.946,1.245,1.245,0,0,1-.5,1.028,2.355,2.355,0,0,1-1.473.393A3.43,3.43,0,0,1,3.095.985,2.025,2.025,0,0,1,2.579.821.954.954,0,0,1,2.235.552a.591.591,0,0,1-.123-.37.561.561,0,0,1,.127-.37.969.969,0,0,1,.277-.236,2.034,2.034,0,0,0,.512.284,1.786,1.786,0,0,0,.662.12.888.888,0,0,0,.516-.112.323.323,0,0,0,.15-.262.256.256,0,0,0-.12-.228A1.549,1.549,0,0,0,3.9-.776ZM6.038-2.564a.968.968,0,0,1-.1-.224.988.988,0,0,1-.045-.3.566.566,0,0,1,.131-.419.468.468,0,0,1,.34-.127H9.628a.968.968,0,0,1,.1.224.988.988,0,0,1,.045.3.566.566,0,0,1-.131.419.468.468,0,0,1-.34.127h-.83V.892a2.077,2.077,0,0,1-.258.045,2.744,2.744,0,0,1-.348.022,1.558,1.558,0,0,1-.3-.026A.538.538,0,0,1,7.34.839.4.4,0,0,1,7.2.652.912.912,0,0,1,7.16.338v-2.9Z" transform="translate(345.318 2674.458)" fill="#fefeff"/></g></svg>