<svg width="115" height="123" viewBox="0 0 115 123" fill="none" xmlns="http://www.w3.org/2000/svg">
<path d="M12.5334 114.932L12.5241 116.801L1.80352 116.748L1.81281 114.879L12.5334 114.932ZM8.1948 110.345L8.13821 121.731L6.15093 121.721L6.20752 110.335L8.1948 110.345Z" fill="#E5E5E5"/>
<path d="M38.03 89.6879L38.0207 91.557L27.3001 91.5037L27.3094 89.6346L38.03 89.6879ZM33.6914 85.1009L33.6348 96.4874L31.6475 96.4776L31.7041 85.091L33.6914 85.1009Z" fill="#E5E5E5"/>
<path d="M63.7778 13.704L63.7685 15.5731L53.0479 15.5199L53.0572 13.6507L63.7778 13.704ZM59.4392 9.11697L59.3826 20.5035L57.3953 20.4937L57.4519 9.10709L59.4392 9.11697Z" fill="#E5E5E5"/>
<path d="M63.6515 39.0741L63.6423 40.9432L52.9217 40.89L52.931 39.0209L63.6515 39.0741ZM59.313 34.4871L59.2564 45.8737L57.2691 45.8638L57.3257 34.4772L59.313 34.4871Z" fill="#E5E5E5"/>
<path d="M63.5258 64.444L63.5165 66.3131L52.796 66.2598L52.8052 64.3907L63.5258 64.444ZM59.1872 59.857L59.1306 71.2435L57.1434 71.2337L57.1999 59.8471L59.1872 59.857Z" fill="#0577E2"/>
<path d="M63.3996 89.8139L63.3903 91.683L52.6697 91.6297L52.679 89.7606L63.3996 89.8139ZM59.061 85.2268L59.0044 96.6134L57.0171 96.6035L57.0737 85.217L59.061 85.2268Z" fill="#E5E5E5"/>
<path d="M63.2736 115.184L63.2643 117.053L52.5438 117L52.553 115.131L63.2736 115.184ZM58.935 110.597L58.8784 121.984L56.8912 121.974L56.9478 110.587L58.935 110.597Z" fill="#E5E5E5"/>
<path d="M89.1474 13.83L89.1381 15.6991L78.4175 15.6458L78.4268 13.7767L89.1474 13.83ZM84.8088 9.24294L84.7522 20.6295L82.7649 20.6196L82.8215 9.23307L84.8088 9.24294Z" fill="#E5E5E5"/>
<path d="M89.0217 39.2001L89.0124 41.0692L78.2918 41.0159L78.3011 39.1468L89.0217 39.2001ZM84.6831 34.6131L84.6265 45.9996L82.6392 45.9898L82.6958 34.6032L84.6831 34.6131Z" fill="#E5E5E5"/>
<path d="M88.8954 64.57L88.8862 66.4391L78.1656 66.3858L78.1749 64.5167L88.8954 64.57ZM84.5569 59.9829L84.5003 71.3695L82.513 71.3596L82.5696 59.9731L84.5569 59.9829Z" fill="#E5E5E5"/>
<path d="M88.7697 89.9401L88.7604 91.8092L78.0399 91.7559L78.0491 89.8868L88.7697 89.9401ZM84.4311 85.353L84.3745 96.7396L82.3873 96.7298L82.4438 85.3432L84.4311 85.353Z" fill="#E5E5E5"/>
<path d="M88.6435 115.31L88.6342 117.179L77.9136 117.126L77.9229 115.257L88.6435 115.31ZM84.3049 110.723L84.2483 122.11L82.261 122.1L82.3176 110.713L84.3049 110.723Z" fill="#E5E5E5"/>
<path d="M114.518 13.9562L114.508 15.8253L103.788 15.7721L103.797 13.9029L114.518 13.9562ZM110.179 9.36916L110.123 20.7557L108.135 20.7459L108.192 9.35929L110.179 9.36916Z" fill="#F27C2C"/>
<path d="M114.392 39.3263L114.382 41.1954L103.662 41.1422L103.671 39.2731L114.392 39.3263ZM110.053 34.7393L109.996 46.1259L108.009 46.116L108.066 34.7294L110.053 34.7393Z" fill="#E5E5E5"/>
<path d="M114.266 64.696L114.257 66.5651L103.536 66.5118L103.545 64.6427L114.266 64.696ZM109.927 60.1089L109.871 71.4955L107.884 71.4856L107.94 60.099L109.927 60.1089Z" fill="#E5E5E5"/>
<path d="M114.14 90.0661L114.131 91.9352L103.41 91.8819L103.419 90.0128L114.14 90.0661ZM109.801 85.479L109.745 96.8656L107.757 96.8557L107.814 85.4692L109.801 85.479Z" fill="#E5E5E5"/>
<path d="M114.014 115.436L114.005 117.305L103.284 117.252L103.294 115.383L114.014 115.436ZM109.676 110.849L109.619 122.236L107.632 122.226L107.688 110.839L109.676 110.849Z" fill="#E5E5E5"/>
</svg>
