<svg xmlns="http://www.w3.org/2000/svg" xmlns:xlink="http://www.w3.org/1999/xlink" width="54.55" height="54.55" viewBox="0 0 54.55 54.55"><defs><linearGradient id="a" x1="0.5" x2="0.5" y2="1" gradientUnits="objectBoundingBox"><stop offset="0" stop-color="#ff5539"/><stop offset="1" stop-color="#d02e14"/></linearGradient><filter id="b" x="0" y="0" width="54.55" height="54.55" filterUnits="userSpaceOnUse"><feOffset dy="2" input="SourceAlpha"/><feGaussianBlur stdDeviation="3" result="c"/><feFlood flood-color="#dbe3ff"/><feComposite operator="in" in2="c"/><feComposite in="SourceGraphic"/></filter></defs><g transform="translate(-98 -1493)"><g transform="matrix(1, 0, 0, 1, 98, 1493)" filter="url(#b)"><path d="M9.4,0H27.151a9.4,9.4,0,0,1,9.4,9.4V27.151a9.4,9.4,0,0,1-9.4,9.4H9.4a9.4,9.4,0,0,1-9.4-9.4V9.4A9.4,9.4,0,0,1,9.4,0Z" transform="translate(9 7)" fill="url(#a)"/></g><g transform="translate(111.037 1507.07)"><g transform="translate(-0.037 -0.07)"><path d="M18.954.324A10.208,10.208,0,0,0,15.7.014a4.789,4.789,0,0,0-3.85,2.01A4.77,4.77,0,0,0,11.137,6.3q.141.47.47,1.272.366.906.47,1.272t.282,1.019l.254,1.019L12.442,11A4.874,4.874,0,0,0,8.686,9.809a9.021,9.021,0,0,0-5.719,2.817A9.308,9.308,0,0,0,0,18.336a4.625,4.625,0,0,0,1.136,3.7,4.376,4.376,0,0,0,3.625,1.362,8.2,8.2,0,0,0,4.08-1.244,11.71,11.71,0,0,0,3.141-2.935A8.128,8.128,0,0,0,13.743,14a22.359,22.359,0,0,0,3.512-1.188,6.343,6.343,0,0,0,2.3-1.756l.169.47a10.022,10.022,0,0,0-4.108,5.832,4.8,4.8,0,0,0,.991,4.728,4.879,4.879,0,0,0,4.7,1.244,9.7,9.7,0,0,0,4.977-2.761,9.518,9.518,0,0,0,2.817-4.954,4.835,4.835,0,0,0-.85-4.226,4.8,4.8,0,0,0-4-1.615,6.24,6.24,0,0,1-2.207-.47,2.244,2.244,0,0,1-1.244-1.047,2.057,2.057,0,0,1-.085-1.615,15.494,15.494,0,0,1,.624-1.587,2.535,2.535,0,0,0,.906,1.878,2.5,2.5,0,0,0,2.207.54,4.827,4.827,0,0,0,2.817-1.784,4.583,4.583,0,0,0,1.188-3.085A2.629,2.629,0,0,0,27.547.484a2.611,2.611,0,0,0-2.268-.47A4.747,4.747,0,0,0,22.518,1.8a.6.6,0,0,1-.085.085,1.038,1.038,0,0,0-.47-.366A16.711,16.711,0,0,0,18.954.324M26.772,2.7a3.23,3.23,0,0,1-.794,1.878,3.08,3.08,0,0,1-1.7,1.188.972.972,0,0,1-.963-.141,1.061,1.061,0,0,1-.329-.944A3.343,3.343,0,0,1,23.781,2.9a3.315,3.315,0,0,1,1.6-1.16A1.155,1.155,0,0,1,26.4,1.8a1.024,1.024,0,0,1,.366.906m-.282,9.715a2.7,2.7,0,0,1,.681,2.465,7.411,7.411,0,0,1-2.55,4.531,6.62,6.62,0,0,1-4.559,2.038,2.62,2.62,0,0,1-1.981-.709,2.47,2.47,0,0,1-.653-2,5.1,5.1,0,0,1,.423-1.812A9.255,9.255,0,0,1,20.4,13.42l.939,2.916q.516.85,1.587.085a1.108,1.108,0,0,0,.169-.878l-1.216-3.057a8.86,8.86,0,0,1,2.15-.681,2.615,2.615,0,0,1,2.465.624M20,2.78,18.593,6.292l-2.268-.423Q14.916,5.644,14,5.447t-1.047-.568q-.2-.394.225-1.244a2.845,2.845,0,0,1,2.348-1.615A9.062,9.062,0,0,1,20,2.78m-6.2,4.6q.6.113,1.812.31,1.1.2,1.841.394a1.071,1.071,0,0,1,.84.653,1.179,1.179,0,0,1-.282,1.047,4.827,4.827,0,0,1-1.3,1.075,3.212,3.212,0,0,1-.765.376l-.794.338a3.709,3.709,0,0,1-.47.113l-.85-4.306m5.78,3.653a6.456,6.456,0,0,0,.423-.624l.141.113-.47.653-.113-.141m-10.978.765a2.658,2.658,0,0,1,2.69.906q.47.568-.113.906l-3.85,2.235a4.911,4.911,0,0,1-.653.282,1.16,1.16,0,0,0-.606.568.906.906,0,0,0-.028.737.939.939,0,0,0,.5.54,1.122,1.122,0,0,0,.85-.056q.794-.338,1.981-.878l1.953-.906A6.917,6.917,0,0,1,8.676,19.81a6.725,6.725,0,0,1-4.193,1.643,2.658,2.658,0,0,1-1.878-.709,2.24,2.24,0,0,1-.6-1.878,6.4,6.4,0,0,1,.737-2.634A7.879,7.879,0,0,1,8.615,11.795Z" transform="translate(0.037 0.07)" fill="#fff"/></g></g></g></svg>