<svg xmlns="http://www.w3.org/2000/svg" xmlns:xlink="http://www.w3.org/1999/xlink" width="54.55" height="54.55" viewBox="0 0 54.55 54.55"><defs><linearGradient id="a" x1="0.5" x2="0.5" y2="1" gradientUnits="objectBoundingBox"><stop offset="0" stop-color="#ff5539"/><stop offset="1" stop-color="#d02e14"/></linearGradient><filter id="b" x="0" y="0" width="54.55" height="54.55" filterUnits="userSpaceOnUse"><feOffset dy="2" input="SourceAlpha"/><feGaussianBlur stdDeviation="3" result="c"/><feFlood flood-color="#dbe3ff"/><feComposite operator="in" in2="c"/><feComposite in="SourceGraphic"/></filter></defs><g transform="translate(-322 -1493)"><g transform="matrix(1, 0, 0, 1, 322, 1493)" filter="url(#b)"><path d="M9.4,0H27.151a9.4,9.4,0,0,1,9.4,9.4V27.151a9.4,9.4,0,0,1-9.4,9.4H9.4a9.4,9.4,0,0,1-9.4-9.4V9.4A9.4,9.4,0,0,1,9.4,0Z" transform="translate(9 7)" fill="url(#a)"/></g><g transform="translate(334.996 1508.005)"><g transform="translate(0.004 -0.005)"><path d="M23.552,7.382a4.538,4.538,0,0,0-.984.282.265.265,0,0,0-.139.168q-.109.143.336.421t-.421,1.039A6.144,6.144,0,0,1,19.4,10.414Q21.647,7.567,17.665,5T12.854,2.386a2.523,2.523,0,0,0-1.463.336,2.317,2.317,0,0,0,.055-1.434l-.025-.029h0a2.586,2.586,0,0,0-.5-.618h-.029L10.856.611A2.876,2.876,0,0,0,8.972,0,2.99,2.99,0,0,0,7.059.616V.645H7.029a2.574,2.574,0,0,0-.9,1.825V2.5a5.093,5.093,0,0,0,.223,2.023h0A1.413,1.413,0,0,0,7.475,5.645a1.989,1.989,0,0,0,1.518-.252V5.363a.488.488,0,0,0,.168-.084Q7.61,7.836,7,9.014a3.612,3.612,0,0,1-.168-.925A11.8,11.8,0,0,0,6.1,5.759q-2.8,1.585-3.4,3.259A13.091,13.091,0,0,1,2.046,10.7a.652.652,0,0,0-.029.2v.139a1.039,1.039,0,0,1-.029.2,1.758,1.758,0,0,0,.223.87,5.152,5.152,0,0,1,1.8.029,2.931,2.931,0,0,1,1.855.7q-.029.055-.114.2l-.084.168a.542.542,0,0,1-.252.282.593.593,0,0,1-.366-.029,3.364,3.364,0,0,0-2.1-.055,3.566,3.566,0,0,0-2,1.236,3.785,3.785,0,0,0-.105,4.878,3.671,3.671,0,0,0,2.4,1.434,3.579,3.579,0,0,0,2.784-.589,3.671,3.671,0,0,0,1.632-2.389,3.743,3.743,0,0,0-.029-1.88,3.692,3.692,0,0,0-.984-1.657.812.812,0,0,1-.2-.336.454.454,0,0,1,.114-.336,2.368,2.368,0,0,0,.336-.45q.778.235,1.657,1.855a12.78,12.78,0,0,1,1.013,2.191.841.841,0,0,0,.816.648,8.411,8.411,0,0,0,.871.084h8.125a.988.988,0,0,1,.282.029.513.513,0,0,1,.168.282,3.675,3.675,0,0,0,1.548,1.993,3.785,3.785,0,0,0,1.6.589,3.726,3.726,0,0,0,1.632-.139A3.831,3.831,0,0,0,26.071,20a3.894,3.894,0,0,0,.984-1.4,4.563,4.563,0,0,0,.282-1.863,3.978,3.978,0,0,0-.589-1.627,3.726,3.726,0,0,0-1.19-1.232,4.256,4.256,0,0,0-1.716-.589,3.713,3.713,0,0,0-2.586.673,3.76,3.76,0,0,0-1.548,2.22,2.977,2.977,0,0,1-.084.391q-1.96-1.884,2.872-4.159l-.673.223q.841-.3,1.548-.589,1.4-.618,2.586-1.262a9.252,9.252,0,0,0,1.855-1.291.782.782,0,0,0,.311-.732.866.866,0,0,0-.45-.7,2.914,2.914,0,0,0-.7-.391,7.435,7.435,0,0,0-3.419-.286m1.463,9.887a.816.816,0,0,0-.2-.45.534.534,0,0,0-.421-.2q-.589-.029-1.4-.029-.929,0-1.4-.029h-.421A1.682,1.682,0,0,1,21.9,15.3a2.38,2.38,0,0,1,3.2,0,2.418,2.418,0,0,1,.816,1.682,2.363,2.363,0,0,1-1.939,2.523,2.523,2.523,0,0,1-1.657-.252,1.838,1.838,0,0,1-1.035-1.173h2.687a1.888,1.888,0,0,0,.5-.055.711.711,0,0,0,.421-.282.728.728,0,0,0,.114-.479M10.49,8.084a5.72,5.72,0,0,1,4.05.984,12.12,12.12,0,0,0-1.35.984l-1.741-.029q-2.225.084-1.463-1.152.307-.467.5-.786M5.57,15.443a1.985,1.985,0,0,1,.74,1.4,2.363,2.363,0,0,1-.421,1.6,2.548,2.548,0,0,1-1.4,1.039,2.439,2.439,0,0,1-1.716-.168,2.548,2.548,0,0,1-1.19-1.4,2.162,2.162,0,0,1,.105-1.766,2.452,2.452,0,0,1,1.262-1.262,2.178,2.178,0,0,1,1.682-.029,3.078,3.078,0,0,0-.2.307q-.282.5-.9,1.459l-.084.168a.273.273,0,0,0-.055.139,1.085,1.085,0,0,0,.114.307,1.1,1.1,0,0,0,.114.252.421.421,0,0,0,.311.139.568.568,0,0,0,.311-.168,2.62,2.62,0,0,0,.4-.589q.147-.164.934-1.426Z" transform="translate(-0.004 0.005)" fill="#fff"/></g></g></g></svg>