<svg xmlns="http://www.w3.org/2000/svg" xmlns:xlink="http://www.w3.org/1999/xlink" width="54.55" height="54.55" viewBox="0 0 54.55 54.55"><defs><linearGradient id="a" x1="0.5" x2="0.5" y2="1" gradientUnits="objectBoundingBox"><stop offset="0" stop-color="#ff5539"/><stop offset="1" stop-color="#d02e14"/></linearGradient><filter id="b" x="0" y="0" width="54.55" height="54.55" filterUnits="userSpaceOnUse"><feOffset dy="2" input="SourceAlpha"/><feGaussianBlur stdDeviation="3" result="c"/><feFlood flood-color="#dbe3ff"/><feComposite operator="in" in2="c"/><feComposite in="SourceGraphic"/></filter></defs><g transform="translate(-144 -295)"><g transform="matrix(1, 0, 0, 1, 144, 295)" filter="url(#b)"><path d="M9.4,0H27.151a9.4,9.4,0,0,1,9.4,9.4V27.151a9.4,9.4,0,0,1-9.4,9.4H9.4a9.4,9.4,0,0,1-9.4-9.4V9.4A9.4,9.4,0,0,1,9.4,0Z" transform="translate(9 7)" fill="url(#a)"/></g><g transform="translate(158.996 311.005)"><g transform="translate(0.004 -0.005)"><g transform="translate(0 0)"><path d="M21.053,6.6a4.056,4.056,0,0,0-.88.252.237.237,0,0,0-.124.15q-.1.128.3.376t-.376.928a5.492,5.492,0,0,1-2.631,1Q19.35,6.763,15.79,4.467t-4.3-2.334a2.255,2.255,0,0,0-1.308.3,2.071,2.071,0,0,0,.049-1.282l-.023-.026h0A2.312,2.312,0,0,0,9.757.572H9.731L9.7.546A2.571,2.571,0,0,0,8.02,0,2.673,2.673,0,0,0,6.31.55V.576H6.284a2.3,2.3,0,0,0-.8,1.631v.026a4.552,4.552,0,0,0,.2,1.808h0a1.263,1.263,0,0,0,1,1A1.778,1.778,0,0,0,8.039,4.82V4.794a.436.436,0,0,0,.15-.075Q6.8,7,6.254,8.056a3.229,3.229,0,0,1-.15-.827,10.548,10.548,0,0,0-.654-2.082A6.3,6.3,0,0,0,2.408,8.06a11.7,11.7,0,0,1-.579,1.5A.583.583,0,0,0,1.8,9.74q0,.068,0,.124a.929.929,0,0,1-.026.177,1.571,1.571,0,0,0,.2.778,4.6,4.6,0,0,1,1.609.026,2.62,2.62,0,0,1,1.658.628q-.026.049-.1.177l-.075.15a.485.485,0,0,1-.226.252.53.53,0,0,1-.327-.026,3.007,3.007,0,0,0-1.879-.049A3.188,3.188,0,0,0,.848,13.082a3.383,3.383,0,0,0-.094,4.36A3.282,3.282,0,0,0,2.9,18.724,3.2,3.2,0,0,0,5.385,18.2a3.282,3.282,0,0,0,1.458-2.135,3.345,3.345,0,0,0-.026-1.68,3.3,3.3,0,0,0-.88-1.481.725.725,0,0,1-.177-.3.406.406,0,0,1,.1-.3,2.116,2.116,0,0,0,.3-.4q.7.211,1.481,1.658a11.423,11.423,0,0,1,.906,1.958.752.752,0,0,0,.729.579,7.518,7.518,0,0,0,.778.075H17.32a.883.883,0,0,1,.252.026.459.459,0,0,1,.15.252,3.285,3.285,0,0,0,1.383,1.782,3.383,3.383,0,0,0,1.432.526A3.33,3.33,0,0,0,22,18.63a3.424,3.424,0,0,0,1.308-.752,3.481,3.481,0,0,0,.88-1.255,4.079,4.079,0,0,0,.252-1.665A3.556,3.556,0,0,0,23.91,13.5a3.33,3.33,0,0,0-1.064-1.1,3.8,3.8,0,0,0-1.534-.526,3.319,3.319,0,0,0-2.312.6,3.361,3.361,0,0,0-1.383,1.985,2.661,2.661,0,0,1-.075.35q-1.752-1.684,2.567-3.718l-.6.2q.752-.267,1.383-.526,1.255-.553,2.312-1.128a8.27,8.27,0,0,0,1.658-1.154.7.7,0,0,0,.278-.654.774.774,0,0,0-.4-.628,2.6,2.6,0,0,0-.628-.35A6.646,6.646,0,0,0,21.053,6.6m1.308,8.837a.729.729,0,0,0-.18-.4.477.477,0,0,0-.376-.177q-.526-.026-1.255-.026-.831,0-1.255-.026h-.376a1.5,1.5,0,0,1,.654-1.128,2.128,2.128,0,0,1,2.864,0,2.161,2.161,0,0,1,.729,1.5,2.113,2.113,0,0,1-1.733,2.255,2.255,2.255,0,0,1-1.481-.226,1.643,1.643,0,0,1-.925-1.049h2.4a1.688,1.688,0,0,0,.451-.049.635.635,0,0,0,.376-.252.65.65,0,0,0,.1-.429M9.377,7.226a5.113,5.113,0,0,1,3.62.88,10.833,10.833,0,0,0-1.207.88l-1.556-.026q-1.988.075-1.308-1.03.274-.417.451-.7M4.979,13.8a1.774,1.774,0,0,1,.662,1.255,2.113,2.113,0,0,1-.376,1.428,2.278,2.278,0,0,1-1.255.928,2.18,2.18,0,0,1-1.534-.15A2.278,2.278,0,0,1,1.412,16.01a1.932,1.932,0,0,1,.094-1.579A2.191,2.191,0,0,1,2.634,13.3a1.947,1.947,0,0,1,1.5-.026,2.752,2.752,0,0,0-.177.274q-.252.451-.8,1.3l-.075.15a.244.244,0,0,0-.049.124.97.97,0,0,0,.1.274.985.985,0,0,0,.1.226.376.376,0,0,0,.278.124.507.507,0,0,0,.278-.15,2.342,2.342,0,0,0,.353-.526q.132-.147.834-1.274Z" transform="translate(-0.004 0.005)" fill="#fff"/></g></g></g></g></svg>