<svg xmlns="http://www.w3.org/2000/svg" xmlns:xlink="http://www.w3.org/1999/xlink" width="54.55" height="54.55" viewBox="0 0 54.55 54.55"><defs><linearGradient id="a" x1="0.5" x2="0.54" y2="0.768" gradientUnits="objectBoundingBox"><stop offset="0" stop-color="#926fff"/><stop offset="1" stop-color="#5d37fa"/></linearGradient><filter id="b" x="0" y="0" width="54.55" height="54.55" filterUnits="userSpaceOnUse"><feOffset dy="2" input="SourceAlpha"/><feGaussianBlur stdDeviation="3" result="c"/><feFlood flood-color="#dbe3ff"/><feComposite operator="in" in2="c"/><feComposite in="SourceGraphic"/></filter></defs><g transform="translate(-98 -1194)"><g transform="translate(107 1201)"><g transform="matrix(1, 0, 0, 1, -9, -7)" filter="url(#b)"><path d="M9.4,0H27.151a9.4,9.4,0,0,1,9.4,9.4V27.151a9.4,9.4,0,0,1-9.4,9.4H9.4a9.4,9.4,0,0,1-9.4-9.4V9.4A9.4,9.4,0,0,1,9.4,0Z" transform="translate(9 7)" fill="url(#a)"/></g></g><path d="M3.913,3.913V6.8H6.8V3.913ZM6.8,6.8V9.684H9.684V6.8ZM9.684,9.684v2.888h2.888V9.684Zm0,0v2.888h2.888V9.684Zm0,0v2.888h2.888V9.684Zm0,0v2.888h2.888V9.684Zm0,0v2.888h2.888V9.684Zm0,0v2.888h2.888V9.684Zm0,0v2.888h2.888V9.684Zm0,2.888h2.888V9.684H9.684Zm0-8.66V6.8h2.888V3.913Zm0,5.772v2.888h2.888V9.684Zm0,0v2.888h2.888V9.684Zm0,0v2.888h2.888V9.684Zm0,0v2.888h2.888V9.684Zm0,0v2.888h2.888V9.684Zm0,0v2.888h2.888V9.684Zm0,0v2.888h2.888V9.684Zm0,0v2.888h2.888V9.684ZM12.572,6.8V9.684H15.46V6.8ZM15.46,3.913V6.8h2.884V3.913ZM12.572,6.8V9.684H15.46V6.8ZM6.8,6.8V9.684H9.684V6.8Zm5.772,0V9.684H15.46V6.8Zm0,0V9.684H15.46V6.8Zm0,0V9.684H15.46V6.8Zm0,0V9.684H15.46V6.8Zm0,0V9.684H15.46V6.8Zm0,0V9.684H15.46V6.8Zm0,0V9.684H15.46V6.8Zm0,0V9.684H15.46V6.8Zm5.772,0V9.684h2.888V6.8ZM12.572,9.684H15.46V6.8H12.572Zm0-2.884V9.684H15.46V6.8Zm0,0V9.684H15.46V6.8Zm0,0V9.684H15.46V6.8Zm0,0V9.684H15.46V6.8Zm0,0V9.684H15.46V6.8Zm0,0V9.684H15.46V6.8ZM6.8,12.572V15.46H9.684V12.572Zm0,0V15.46H9.684V12.572ZM3.913,9.684v2.888H6.8V9.684ZM6.8,12.572V15.46H9.684V12.572Zm0,0V15.46H9.684V12.572ZM9.684,9.684v2.888h2.888V9.684Zm5.776,0v2.888h2.884V9.684Zm0,0v2.888h2.884V9.684ZM6.8,12.572V15.46H9.684V12.572Zm5.772,0V15.46H15.46V12.572Zm0,0V15.46H15.46V12.572ZM15.46,9.684v2.888h2.884V9.684Zm-2.888,2.888V15.46H15.46V12.572ZM15.46,9.684v2.888h2.884V9.684Zm-2.888,2.888V15.46H15.46V12.572ZM15.46,9.684v2.888h2.884V9.684Zm-2.888,2.888V15.46H15.46V12.572ZM15.46,9.684v2.888h2.884V9.684Zm-2.888,2.888V15.46H15.46V12.572ZM15.46,9.684v2.888h2.884V9.684Zm-2.888,2.888V15.46H15.46V12.572Zm5.772,0V15.46h2.888V12.572ZM12.572,15.46H15.46V12.572H12.572Zm0-2.888V15.46H15.46V12.572ZM15.46,9.684v2.888h2.884V9.684Zm-2.888,2.888V15.46H15.46V12.572ZM15.46,9.684v2.888h2.884V9.684Zm-2.888,2.888V15.46H15.46V12.572ZM15.46,9.684v2.888h2.884V9.684Zm-2.888,2.888V15.46H15.46V12.572ZM15.46,9.684v2.888h2.884V9.684Zm-2.888,2.888V15.46H15.46V12.572ZM15.46,9.684v2.888h2.884V9.684Zm-2.888,2.888V15.46H15.46V12.572ZM9.684,15.46v2.884h2.888V15.46Zm0,0v2.884h2.888V15.46Zm0,0v2.884h2.888V15.46Zm-5.772,0v2.884H6.8V15.46Zm5.772,0v2.884h2.888V15.46Zm0,0v2.884h2.888V15.46Zm0,0v2.884h2.888V15.46Zm0,0v2.884h2.888V15.46Zm0,0v2.884h2.888V15.46Zm5.776,0v2.884h2.884V15.46ZM6.8,18.344v2.888H9.684V18.344Zm5.772-5.772V15.46H15.46V12.572Zm0,0V15.46H15.46V12.572Zm0,5.772v2.888H15.46V18.344Zm0-5.772V15.46H15.46V12.572ZM15.46,15.46v2.884h2.884V15.46Zm0,0v2.884h2.884V15.46Zm0,0v2.884h2.884V15.46Zm0,0v2.884h2.884V15.46Zm2.884,2.884v2.888h2.888V18.344ZM15.46,15.46v2.884h2.884V15.46Zm0,0v2.884h2.884V15.46Zm0,0v2.884h2.884V15.46Zm0,0v2.884h2.884V15.46ZM0,0V25.145H25.145V0ZM24.009,3.913H21.232V6.8h2.777V9.684H21.232v2.888h2.777V15.46H21.232v2.884h2.777v2.888H21.232v2.777H18.344V21.232H15.46v2.777H12.572V21.232H9.684v2.777H6.8V21.232H3.913v2.777H1.135V21.232H3.913V18.344H1.135V15.46H3.913V12.572H1.135V9.684H3.913V6.8H1.135V3.913H3.913V1.135H6.8V3.913H9.684V1.135h2.888V3.913H15.46V1.135h2.884V3.913h2.888V1.135h2.777V3.913Z" transform="translate(113 1207)" fill="#fff"/></g></svg>