<svg xmlns="http://www.w3.org/2000/svg" xmlns:xlink="http://www.w3.org/1999/xlink" width="54.55" height="54.55" viewBox="0 0 54.55 54.55"><defs><linearGradient id="a" x1="0.5" x2="0.5" y2="1" gradientUnits="objectBoundingBox"><stop offset="0" stop-color="#ff24ee"/><stop offset="1" stop-color="#c700b8"/></linearGradient><filter id="b" x="0" y="0" width="54.55" height="54.55" filterUnits="userSpaceOnUse"><feOffset dy="2" input="SourceAlpha"/><feGaussianBlur stdDeviation="3" result="c"/><feFlood flood-color="#dbe3ff"/><feComposite operator="in" in2="c"/><feComposite in="SourceGraphic"/></filter></defs><g transform="translate(-322 -758)"><g transform="matrix(1, 0, 0, 1, 322, 758)" filter="url(#b)"><path d="M9.4,0H27.151a9.4,9.4,0,0,1,9.4,9.4V27.151a9.4,9.4,0,0,1-9.4,9.4H9.4a9.4,9.4,0,0,1-9.4-9.4V9.4A9.4,9.4,0,0,1,9.4,0Z" transform="translate(9 7)" fill="url(#a)"/></g><g transform="translate(315 760.873)"><path d="M35.474,41.876a1,1,0,0,1,.333.057,8.857,8.857,0,1,1-5.9,0,1,1,0,0,1,1.322.794h3.259a1,1,0,0,1,.989-.852ZM32.856,57.115a6.841,6.841,0,0,0,3.412-12.779,1,1,0,0,1-.794.392H30.237a1,1,0,0,1-.793-.391,6.841,6.841,0,0,0,3.413,12.779Z" transform="translate(0 -22.2)" fill="#fff"/><path d="M0-1H5.237a1,1,0,0,1,1,1V3.924a1,1,0,0,1-1,1H0a1,1,0,0,1-1-1V0A1,1,0,0,1,0-1ZM4.237,1H1V2.924H4.237Z" transform="translate(30.237 17.604)" fill="#fff"/><path d="M53.221,20.245a1,1,0,0,1,0,2,2.929,2.929,0,0,0-2.927,2.924,1,1,0,0,1-2,0A4.931,4.931,0,0,1,53.221,20.245Z" transform="translate(-16.438 -7.564)" fill="#fff"/><path d="M59.879,15.857l-2.5,1.815.958-2.932-2.5-1.81,3.087,0L59.879,10l.95,2.934,3.088,0-2.5,1.81.958,2.932Z" transform="translate(-21.021 -1.872)" fill="#fff"/><path d="M57.383,18.172a.5.5,0,0,1-.475-.655l.845-2.585-2.2-1.6a.5.5,0,0,1,.293-.905h0l2.723,0L59.4,9.846a.5.5,0,0,1,.951,0l.838,2.588,2.724,0a.5.5,0,0,1,.294.905l-2.2,1.6.845,2.585a.5.5,0,0,1-.769.56l-2.2-1.6-2.2,1.6A.5.5,0,0,1,57.383,18.172Zm0-4.74,1.247.9a.5.5,0,0,1,.182.56l-.478,1.464,1.247-.907a.5.5,0,0,1,.588,0l1.247.907L60.942,14.9a.5.5,0,0,1,.182-.56l1.247-.9-1.541,0a.5.5,0,0,1-.476-.346l-.475-1.466L59.4,13.088a.5.5,0,0,1-.476.346h0Z" transform="translate(-21.021 -1.872)" fill="#fff"/></g></g></svg>