<svg xmlns="http://www.w3.org/2000/svg" xmlns:xlink="http://www.w3.org/1999/xlink" width="54.55" height="54.55" viewBox="0 0 54.55 54.55"><defs><linearGradient id="a" x1="0.5" x2="0.5" y2="1" gradientUnits="objectBoundingBox"><stop offset="0" stop-color="#d0e931"/><stop offset="1" stop-color="#acc10a"/></linearGradient><filter id="b" x="0" y="0" width="54.55" height="54.55" filterUnits="userSpaceOnUse"><feOffset dy="2" input="SourceAlpha"/><feGaussianBlur stdDeviation="3" result="c"/><feFlood flood-color="#dbe3ff"/><feComposite operator="in" in2="c"/><feComposite in="SourceGraphic"/></filter></defs><g transform="translate(-776 -333)"><g transform="matrix(1, 0, 0, 1, 776, 333)" filter="url(#b)"><path d="M9.4,0H27.151a9.4,9.4,0,0,1,9.4,9.4V27.151a9.4,9.4,0,0,1-9.4,9.4H9.4a9.4,9.4,0,0,1-9.4-9.4V9.4A9.4,9.4,0,0,1,9.4,0Z" transform="translate(9 7)" fill="url(#a)"/></g><g transform="translate(788 344)"><g transform="translate(0 0)"><g transform="translate(0)"><path d="M6.722,11.88a.247.247,0,0,1-.112,0,.159.159,0,0,0-.112,0q-.782.447-1.647.976a8.339,8.339,0,0,0-2.205,1.923,10.839,10.839,0,0,0-1.47,2.505A16.3,16.3,0,0,0,0,21.66q0-.112,0-.365v1.311a.082.082,0,0,1,0,.053,2.311,2.311,0,0,1,.306.306,2.447,2.447,0,0,0,.365.306L1.7,23.83l1.029.529a1.211,1.211,0,0,0,1.229-.053.329.329,0,0,0,.223-.194.359.359,0,0,0,0-.276,8.9,8.9,0,0,1-.306-4.011,9.715,9.715,0,0,1,4.293-6.887l.253-.194-1.7-.865m2.317.082.529-1.423L8.233,9.815l-.894,1.253,1.7.894m10.427,3.329a7.751,7.751,0,0,0-2.646-1.764,7.939,7.939,0,0,0-3.205-.67,8.069,8.069,0,0,0-3.264.67A7.751,7.751,0,0,0,7.7,15.291,7.945,7.945,0,0,0,5.94,17.937a8.292,8.292,0,0,0-.647,3.235,8.157,8.157,0,0,0,.641,3.176A8.316,8.316,0,0,0,7.7,26.994a8.41,8.41,0,0,0,2.623,1.764,8.233,8.233,0,0,0,3.205.647,7.681,7.681,0,0,0,3.235-.641A7.751,7.751,0,0,0,19.407,27a8.317,8.317,0,0,0,0-11.7m-5.1,3.258a1.176,1.176,0,0,1-.776.265,1.07,1.07,0,0,1-.782-.335,1.117,1.117,0,0,1-.306-.782,1.1,1.1,0,0,1,.335-.806,1.1,1.1,0,0,1,1.9.812,1.1,1.1,0,0,1-.335.806m1.476,3.705A1.1,1.1,0,0,1,15,21.883a1.176,1.176,0,0,1-.3-.806.982.982,0,0,1,.335-.753,1.07,1.07,0,0,1,.8-.329,1.141,1.141,0,0,1,1.141,1.141,1.206,1.206,0,0,1-.365.806,1.117,1.117,0,0,1-.782.306m3.4-4.517a1.176,1.176,0,0,1-.335.806,1.059,1.059,0,0,1-.812.306,1.012,1.012,0,0,1-.782-.335,1.07,1.07,0,0,1-.335-.782,1.1,1.1,0,0,1,.335-.806,1.117,1.117,0,0,1,.782-.306,1.176,1.176,0,0,1,.812.306,1.1,1.1,0,0,1,.335.806m5-8.316a.259.259,0,0,0-.165,0l-1.029.335-1.029.306a1.117,1.117,0,0,0-.559.253.717.717,0,0,0-.165.588.459.459,0,0,1,0,.141.864.864,0,0,0-.112.141l-.388,1.335a9.292,9.292,0,0,0-.253,1.394,1.176,1.176,0,0,0,0,.276,1.094,1.094,0,0,0,.141.253,6.84,6.84,0,0,1,.559.67q.306.388.529.694a9.868,9.868,0,0,1,1.506,6.575v.165a.353.353,0,0,0,.082.165q.476.588,1.088,1.364a1.223,1.223,0,0,0,1.394.418l2.788-.865a1.259,1.259,0,0,0,.917-1.141l.082-.806-.141-3.37a1.7,1.7,0,0,0-.053-.447q-.165-.947-.306-1.617a10.262,10.262,0,0,0-3.152-5.381Q24.7,9.7,24.341,9.41a.159.159,0,0,0-.112,0m-3.176-2.1.335,1.87,2.258-.694-.812-1.729-1.764.559M11.962,4.7a1.276,1.276,0,0,0-1.088-.223,1.635,1.635,0,0,0-.947.529,1.517,1.517,0,0,0-.518.959q-.082.388-.165,1.141a9.345,9.345,0,0,1-.306,1.117q-.053.112-.276.694l1.394.723a6.387,6.387,0,0,1,.894-1.229,12.1,12.1,0,0,1,1.088-1.059,1.764,1.764,0,0,0,.5-.782,2.435,2.435,0,0,0,0-.976,1.259,1.259,0,0,0-.588-.917M19.713.118a1.764,1.764,0,0,0-1.088,1.229,2.352,2.352,0,0,0,.559,2.311A7.357,7.357,0,0,1,20.36,5.5q.082.165.388.865L22.559,5.8l-.165-.947a5.881,5.881,0,0,1-.082-.894,7.38,7.38,0,0,1,0-.917,5.841,5.841,0,0,0,0-.947,2.247,2.247,0,0,0-.276-1.006,2.352,2.352,0,0,0-.729-.782A1.682,1.682,0,0,0,19.713.118Z" transform="translate(0 0)" fill="#fff"/></g></g></g></g></svg>