<svg xmlns="http://www.w3.org/2000/svg" xmlns:xlink="http://www.w3.org/1999/xlink" width="54.55" height="54.55" viewBox="0 0 54.55 54.55"><defs><linearGradient id="a" x1="0.5" x2="0.5" y2="1" gradientUnits="objectBoundingBox"><stop offset="0" stop-color="#ff24ee"/><stop offset="1" stop-color="#c700b8"/></linearGradient><filter id="b" x="0" y="0" width="54.55" height="54.55" filterUnits="userSpaceOnUse"><feOffset dy="2" input="SourceAlpha"/><feGaussianBlur stdDeviation="3" result="c"/><feFlood flood-color="#dbe3ff"/><feComposite operator="in" in2="c"/><feComposite in="SourceGraphic"/></filter></defs><g transform="translate(-775 -760)"><g transform="matrix(1, 0, 0, 1, 775, 760)" filter="url(#b)"><path d="M9.4,0H27.151a9.4,9.4,0,0,1,9.4,9.4V27.151a9.4,9.4,0,0,1-9.4,9.4H9.4a9.4,9.4,0,0,1-9.4-9.4V9.4A9.4,9.4,0,0,1,9.4,0Z" transform="translate(9 7)" fill="url(#a)"/></g><g transform="translate(789 772)"><g transform="translate(0 0)"><path d="M6.676,980.366a.623.623,0,0,1,.526.619v3a.6.6,0,1,1-1.2,0v-3a.628.628,0,0,1,.676-.619Zm3.925,1.689a.632.632,0,0,1,.432.92l-1.5,2.59a.606.606,0,0,1-1.052-.6l1.5-2.59a.615.615,0,0,1,.563-.319H10.6Zm3.1,3.885a23.2,23.2,0,0,1,7.118.563,14.172,14.172,0,0,1,5.653,3.1,25.622,25.622,0,0,1,4.564.732,2.892,2.892,0,0,1,1.54,1.314c.55,1.535.822,3.727-.263,5.125a3.257,3.257,0,0,1-1.934,1.089,15.473,15.473,0,0,1-3.963.019c-1.429,1.939-4.634,2.881-6.78,3.529a3.062,3.062,0,0,1-2.986-.9,5.22,5.22,0,0,1-1.07-2.853c-1.057.74-2.6,1.95-4.883,1.427a3.728,3.728,0,0,1-2.348-2.421,7.676,7.676,0,0,1-.469-3.679C7.99,989.73,10.407,986.127,13.7,985.941Zm0,1.2c-2.127.152-4.256,1.84-4.639,6.007a6.345,6.345,0,0,0,.394,3.041A2.926,2.926,0,0,0,11,997.9c1.536.125,3.5-.5,4.207-1.727a7.036,7.036,0,0,1,3.1-1.9,5.385,5.385,0,0,1,3.531.488.6.6,0,1,1-.526,1.07,3.83,3.83,0,0,0-2.723-.394,3.9,3.9,0,0,0-1.934,1.239,4.4,4.4,0,0,0,.9,3.041,1.711,1.711,0,0,0,1.709.545c2.225-.665,4.852-1.724,5.991-2.778a29.541,29.541,0,0,0,.582-6.607,8.823,8.823,0,0,0-5.3-3.229A19.847,19.847,0,0,0,13.7,987.143ZM27.034,990.9a32.636,32.636,0,0,1-.376,5.781,15.275,15.275,0,0,0,3.474,0,2.006,2.006,0,0,0,1.239-.657,4.668,4.668,0,0,0,.131-3.81,1.518,1.518,0,0,0-.9-.751A23.87,23.87,0,0,0,27.034,990.9Zm-17.5,10.718,1.5,2.609a.606.606,0,0,1-1.052.6l-1.5-2.609a.64.64,0,0,1,.247-.842C9.13,1001.243,9.2,1001.353,9.531,1001.615Zm-2.855.976a.623.623,0,0,1,.526.619v3a.6.6,0,1,1-1.2,0v-3a.628.628,0,0,1,.676-.619Z" transform="translate(-6 -980.362)" fill="#fff"/><path d="M6.612,979.862a1.022,1.022,0,0,1,.127.008,1.123,1.123,0,0,1,.963,1.124v2.992a1.1,1.1,0,0,1-2.2,0v-2.992a1.1,1.1,0,0,1,.313-.781A1.12,1.12,0,0,1,6.612,979.862ZM6.6,984.1a.136.136,0,0,0,.1-.1v-3.03a.13.13,0,0,0-.089-.1h0a.132.132,0,0,0-.078.044.107.107,0,0,0-.034.06V984a.136.136,0,0,0,.1.1Zm3.914-2.544h.117l.031,0a1.131,1.131,0,0,1,.8,1.675l-1.5,2.582a1.133,1.133,0,0,1-.974.547,1.075,1.075,0,0,1-.532-.138,1.128,1.128,0,0,1-.412-1.508l1.5-2.586A1.115,1.115,0,0,1,10.515,981.555Zm.031,1h-.031a.118.118,0,0,0-.092.053l-.01.017-1.5,2.59a.12.12,0,0,0,0,.075.115.115,0,0,0,.041.066.08.08,0,0,0,.037.007.14.14,0,0,0,.108-.046l1.515-2.611a.137.137,0,0,0-.015-.087A.158.158,0,0,0,10.547,982.556Zm4.9,2.846a19.952,19.952,0,0,1,5.521.625l.009,0a14.664,14.664,0,0,1,5.735,3.1c.572.089,1.117.144,1.645.2a10.874,10.874,0,0,1,2.864.538,3.39,3.39,0,0,1,1.8,1.543l.018.033.013.035a8.523,8.523,0,0,1,.511,2.782,4.472,4.472,0,0,1-.85,2.818l-.005.007a3.719,3.719,0,0,1-2.222,1.265,8.337,8.337,0,0,1-1.7.153c-.6,0-1.208-.042-1.792-.083l-.346-.024c-1.569,1.893-4.675,2.83-6.756,3.458l-.119.036a3.2,3.2,0,0,1-.862.117,3.642,3.642,0,0,1-2.626-1.161l-.006-.007a4.994,4.994,0,0,1-1.062-2.322,6.005,6.005,0,0,1-3.423,1.19,5.413,5.413,0,0,1-1.207-.14l-.017,0a4.278,4.278,0,0,1-2.677-2.707l-.006-.014a8.149,8.149,0,0,1-.5-3.9A8.79,8.79,0,0,1,9.2,988.006a6.16,6.16,0,0,1,4.471-2.564h.006C14.279,985.415,14.873,985.4,15.442,985.4Zm5.226,1.58a19.008,19.008,0,0,0-5.226-.58c-.554,0-1.132.013-1.717.039-3.025.174-5.246,3.594-5.347,6.557l0,.041a7.148,7.148,0,0,0,.435,3.43,3.23,3.23,0,0,0,2.006,2.127,4.4,4.4,0,0,0,.975.113,5.681,5.681,0,0,0,3.328-1.342l.172-.121.683-.478.1.828a4.719,4.719,0,0,0,.944,2.577,2.662,2.662,0,0,0,1.889.836,2.2,2.2,0,0,0,.588-.079l.1-.031c2.033-.614,5.106-1.541,6.412-3.314l.161-.219.272.017c.2.012.408.027.616.041.566.04,1.152.081,1.721.081a7.369,7.369,0,0,0,1.493-.132,2.755,2.755,0,0,0,1.644-.909c.924-1.195.71-3.157.2-4.61a2.381,2.381,0,0,0-1.264-1.053,10.03,10.03,0,0,0-2.6-.475c-.591-.059-1.2-.121-1.863-.23l-.158-.026-.114-.114A13.465,13.465,0,0,0,20.668,986.982Zm-5.064-.448a23.393,23.393,0,0,1,5.039.627l.008,0a9.371,9.371,0,0,1,5.589,3.426l.089.126,0,.154a30.8,30.8,0,0,1-.6,6.729l-.035.149-.113.1c-1.54,1.426-5.118,2.571-6.184,2.89a1.863,1.863,0,0,1-.56.086,2.39,2.39,0,0,1-1.646-.753l-.023-.024a4.944,4.944,0,0,1-1.028-3.386l0-.177.115-.135a4.37,4.37,0,0,1,2.18-1.4l.014,0a3.913,3.913,0,0,1,.943-.117,4.767,4.767,0,0,1,2.122.548l.028.014.026.017a.074.074,0,0,0,.036.007.14.14,0,0,0,.11-.047.116.116,0,0,0-.009-.078.117.117,0,0,0-.049-.062l-.029-.01-.027-.013a5.159,5.159,0,0,0-2.263-.552,4.366,4.366,0,0,0-.935.1,6.423,6.423,0,0,0-2.818,1.723c-.807,1.324-2.734,1.928-4.2,1.928-.148,0-.3-.006-.438-.017l-.069-.006-.064-.024a3.4,3.4,0,0,1-1.828-1.984l0-.005a6.823,6.823,0,0,1-.428-3.284,8.239,8.239,0,0,1,1.787-4.784,4.8,4.8,0,0,1,3.3-1.665A17.482,17.482,0,0,1,15.6,986.534Zm4.822,1.6a22.429,22.429,0,0,0-4.822-.6,16.516,16.516,0,0,0-1.848.105l-.02,0A3.816,3.816,0,0,0,11.1,988.97a7.289,7.289,0,0,0-1.543,4.225l0,.019A5.861,5.861,0,0,0,9.918,996a2.544,2.544,0,0,0,1.191,1.405c.093.006.188.009.284.009a3.982,3.982,0,0,0,3.376-1.491l.036-.063.052-.05a7.42,7.42,0,0,1,3.324-2.02l.013,0a5.37,5.37,0,0,1,1.157-.126,6.142,6.142,0,0,1,2.677.641,1.127,1.127,0,0,1,.6,1.514,1.12,1.12,0,0,1-1.007.606,1.066,1.066,0,0,1-.555-.152,3.779,3.779,0,0,0-1.658-.434,2.871,2.871,0,0,0-.694.086,3.374,3.374,0,0,0-1.564.949,3.863,3.863,0,0,0,.766,2.5,1.4,1.4,0,0,0,.932.454.865.865,0,0,0,.262-.041l.008,0a18.486,18.486,0,0,0,5.682-2.567,29.863,29.863,0,0,0,.537-6.174A8.482,8.482,0,0,0,20.426,988.137Zm6.1,2.187.576.077c.26.035.529.064.815.1a17.066,17.066,0,0,1,2.822.482l.024.007.023.009a2.016,2.016,0,0,1,1.16.98l.02.037.013.04a5.128,5.128,0,0,1-.155,4.187l-.025.051-.036.044a2.487,2.487,0,0,1-1.527.833,6.739,6.739,0,0,1-1.355.114c-.545,0-1.143-.037-1.722-.072l-.527-.032-.559-.032.094-.551a32.22,32.22,0,0,0,.369-5.689Zm3.918,1.61a16.15,16.15,0,0,0-2.637-.444l-.266-.029a33.461,33.461,0,0,1-.3,4.751c.582.036,1.132.069,1.641.069a5.787,5.787,0,0,0,1.152-.093,1.581,1.581,0,0,0,.918-.441,4.143,4.143,0,0,0,.1-3.336A1.018,1.018,0,0,0,30.443,991.934ZM9,1000.818a1.121,1.121,0,0,1,.744.33l.092.074.075.06,1.55,2.692a1.128,1.128,0,0,1-.411,1.51,1.075,1.075,0,0,1-.533.139,1.119,1.119,0,0,1-.976-.55l-1.5-2.6a1.03,1.03,0,0,1-.118-.779,1.211,1.211,0,0,1,.533-.746l.051-.031.057-.018A1.4,1.4,0,0,1,9,1000.818Zm.14,1.128-.025-.021c-.046-.038-.1-.083-.135-.1l-.03.006a.185.185,0,0,0-.052.124l.009.014,1.5,2.609a.139.139,0,0,0,.108.047.08.08,0,0,0,.037-.007.139.139,0,0,0,.039-.144Zm-2.533.141a1.022,1.022,0,0,1,.128.008,1.123,1.123,0,0,1,.963,1.123v2.992a1.1,1.1,0,0,1-2.2,0v-2.992a1.1,1.1,0,0,1,.313-.781A1.12,1.12,0,0,1,6.612,1002.087Zm-.01,4.236a.136.136,0,0,0,.1-.1v-3.03a.13.13,0,0,0-.089-.1h0a.131.131,0,0,0-.078.044.107.107,0,0,0-.034.06v3.03a.136.136,0,0,0,.1.1Z" transform="translate(-6 -980.362)" fill="#fff"/></g></g></g></svg>