<svg xmlns="http://www.w3.org/2000/svg" xmlns:xlink="http://www.w3.org/1999/xlink" width="54.55" height="54.55" viewBox="0 0 54.55 54.55"><defs><linearGradient id="a" x1="0.5" x2="0.54" y2="0.768" gradientUnits="objectBoundingBox"><stop offset="0" stop-color="#926fff"/><stop offset="1" stop-color="#5d37fa"/></linearGradient><filter id="b" x="0" y="0" width="54.55" height="54.55" filterUnits="userSpaceOnUse"><feOffset dy="2" input="SourceAlpha"/><feGaussianBlur stdDeviation="3" result="c"/><feFlood flood-color="#dbe3ff"/><feComposite operator="in" in2="c"/><feComposite in="SourceGraphic"/></filter></defs><g transform="translate(-322 -1194)"><g transform="translate(331 1201)"><g transform="matrix(1, 0, 0, 1, -9, -7)" filter="url(#b)"><path d="M9.4,0H27.151a9.4,9.4,0,0,1,9.4,9.4V27.151a9.4,9.4,0,0,1-9.4,9.4H9.4a9.4,9.4,0,0,1-9.4-9.4V9.4A9.4,9.4,0,0,1,9.4,0Z" transform="translate(9 7)" fill="url(#a)"/></g></g><g transform="translate(-0.007 0.136)"><path d="M16.136,27.545H13.818A1.546,1.546,0,0,0,12.272,26H8.409a1.546,1.546,0,0,0-1.545,1.545H4.545A1.546,1.546,0,0,0,3,29.091v3.091H17.681V29.091A1.546,1.546,0,0,0,16.136,27.545Z" transform="translate(339 1202.182)" fill="#fff"/><rect width="1" height="5" rx="0.5" transform="translate(349 1223)" fill="#fff"/><path d="M29.7,4a4.269,4.269,0,0,1,3.086,1.321,16.989,16.989,0,0,1-6.173,0A4.269,4.269,0,0,1,29.7,4Zm4.284,4.284A4.261,4.261,0,0,1,33.48,10.3a18.015,18.015,0,0,0-7.554,0,4.268,4.268,0,0,1,0-4.035,17.955,17.955,0,0,0,3.777.411,17.955,17.955,0,0,0,3.777-.411,4.257,4.257,0,0,1,.507,2.017Zm-6.552,5.6a16.989,16.989,0,0,1-6.173,0,4.266,4.266,0,0,1,6.173,0Zm-7.37,2.963a4.257,4.257,0,0,1,.507-2.017,17.955,17.955,0,0,0,3.777.411,17.955,17.955,0,0,0,3.777-.411,4.27,4.27,0,0,1,0,4.035,18.015,18.015,0,0,0-7.554,0A4.255,4.255,0,0,1,20.064,16.851ZM18.993,4A4.284,4.284,0,1,1,14.71,8.284,4.284,4.284,0,0,1,18.993,4ZM4,8.284a4.257,4.257,0,0,1,.507-2.017,17.955,17.955,0,0,0,3.777.411,17.955,17.955,0,0,0,3.777-.411,4.27,4.27,0,0,1,0,4.035,18.015,18.015,0,0,0-7.554,0A4.255,4.255,0,0,1,4,8.284ZM8.284,4A4.269,4.269,0,0,1,11.37,5.321a16.989,16.989,0,0,1-6.173,0A4.269,4.269,0,0,1,8.284,4ZM5.2,11.247a16.989,16.989,0,0,1,6.173,0,4.266,4.266,0,0,1-6.173,0Zm4.157,5.6a4.284,4.284,0,1,1,4.284,4.284,4.284,4.284,0,0,1-4.284-4.284Zm14.993,4.284a4.269,4.269,0,0,1-3.086-1.321,16.989,16.989,0,0,1,6.173,0A4.269,4.269,0,0,1,24.348,21.135ZM29.7,12.568a4.269,4.269,0,0,1-3.086-1.321,16.989,16.989,0,0,1,6.173,0A4.269,4.269,0,0,1,29.7,12.568Z" transform="translate(330.006 1200.864)" fill="#fff"/></g></g></svg>