<svg xmlns="http://www.w3.org/2000/svg" width="446.148" height="262.887" viewBox="0 0 446.148 262.887"><g transform="translate(-56.727 -296.299)"><g transform="translate(56.727 296.299)"><g transform="translate(0 0)"><path d="M27.569,262.72Q-3.545,211.492.924,165.679c4.469-45.813,21.822-81.512,74.331-87.758,43.326-5.154,69.423,2.407,84.368-15.413,96.11-114.6,361.106-83.274,266.982,198.789Z" transform="translate(-0.363 -0.299)" fill="#f3faff"/><g transform="translate(18.223 214.498)"><g transform="translate(4.867 27.261)"><path d="M0,0H6.05L4.115,13.92a1.1,1.1,0,0,1-2.18,0L0,0Z" transform="translate(1.184 5.884)" fill="#91adc8"/><path d="M-2.25-5.3,7.338,3.391,3.758-11.184Z" transform="translate(2.25 11.184)" fill="#8098af" fill-rule="evenodd"/></g><g transform="translate(79.575 27.261)"><path d="M0,0H6.05L4.115,13.92a1.1,1.1,0,0,1-2.18,0L0,0Z" transform="translate(1.184 5.884)" fill="#91adc8"/><path d="M-2.25-5.3,7.338,3.391,3.758-11.184Z" transform="translate(2.25 11.184)" fill="#8098af" fill-rule="evenodd"/></g><g transform="translate(0 1.315)"><path d="M0,0H88.913l-2.1,31.3H2.1Z" transform="translate(2.104 1.841)" fill="#d0e6f6"/><path d="M-4,1H87.018V8.892H-4Z" transform="translate(4 1.368)" fill="#91adc8" fill-rule="evenodd" opacity="0.367"/><rect width="13.416" height="3.157" rx="1.578" transform="translate(18.019 15.915)" fill="none" stroke="#607385" stroke-width="0.5"/><rect width="13.416" height="3.157" rx="1.578" transform="translate(63.002 15.915)" fill="none" stroke="#607385" stroke-width="0.5"/><line y2="35.181" transform="translate(46.693 0)" fill="none" stroke="#607385" stroke-width="0.5"/></g><path d="M2.1,0H89.7a2.1,2.1,0,0,1,2.1,2.1V3.946a2.1,2.1,0,0,1-2.1,2.1H2.1A2.1,2.1,0,0,1,0,3.946V2.1A2.1,2.1,0,0,1,2.1,0Z" transform="translate(0.526 0)" fill="#a1bedb" fill-rule="evenodd"/></g><g transform="translate(59.299 136.128) rotate(180)"><path d="M0,10H1.578L1.066.263a.277.277,0,0,0-.554,0L0,10Z" transform="translate(10.522)" fill="#8098af" fill-rule="evenodd"/><path d="M0,10H1.578L1.066.263a.277.277,0,0,0-.554,0L0,10Z" transform="translate(39.196)" fill="#8098af" fill-rule="evenodd"/><rect width="51.296" height="3.42" rx="1.71" transform="translate(0 7.629)" fill="#a1bedb"/><rect width="3.42" height="15.52" rx="1.5" transform="translate(30.778 11.311)" fill="#8098af"/><rect width="3.42" height="14.994" rx="1.5" transform="translate(34.197 11.311)" fill="#8098af"/><rect width="3.42" height="14.205" rx="1.5" transform="translate(37.617 11.311)" fill="#8098af"/><rect width="3.42" height="13.153" rx="1.5" transform="translate(41.037 11.311)" fill="#879fb7"/><rect width="3.42" height="15.52" rx="1.5" transform="translate(44.457 11.311)" fill="#879fb7"/><g transform="translate(11.96 11.1)"><line y1="10.752" x2="0.272" transform="translate(8.025 9.715)" fill="none" stroke="#8098af" stroke-linecap="round" stroke-width="3.276"/><g transform="translate(0 0)"><path d="M2.493,0A6.174,6.174,0,0,0,.05,4.141,14.982,14.982,0,0,0,.739,9.632a.886.886,0,0,0,.854.648h9.083a.886.886,0,0,0,.854-.648,14.982,14.982,0,0,0,.689-5.491A6.174,6.174,0,0,0,9.776,0H2.493Z" transform="translate(2.073)" fill="#b8d0e4"/><line x2="19.572" transform="translate(0 5.985)" fill="none" stroke="#000" stroke-width="0.54"/><line x2="19.572" transform="translate(0 4.57)" fill="none" stroke="#000" stroke-width="0.54"/><line x2="19.572" transform="translate(0 3.156)" fill="none" stroke="#000" stroke-width="0.54"/></g><path d="M.007,7.451Q-.161,2.622,3.453,2.4L3.5,0Q6.984.006,6.984,3.55" transform="translate(4.716 11.978)" fill="none" stroke="#8098af" stroke-linecap="round" stroke-width="3.276" fill-rule="evenodd"/></g></g><g transform="translate(70.085 105.593)"><path d="M5.606,9.358l6.458-8.306,6.527,8.306Z" transform="translate(-2.656 -0.477)" fill="none" stroke="#a1bedb" stroke-width="0.5" fill-rule="evenodd"/><circle cx="9.344" cy="9.344" r="9.344" transform="translate(0 5.914)" fill="#fff" stroke="#91adc8" stroke-width="1.92"/><text transform="translate(8.081 8.786)" font-size="1" font-family="Helvetica" letter-spacing="0.056em"><tspan x="0" y="0">12</tspan></text><text transform="translate(8.755 22.255)" font-size="1" font-family="Helvetica" letter-spacing="0.056em"><tspan x="0" y="0">6</tspan></text><text transform="translate(1.347 15.521)" font-size="1" font-family="Helvetica" letter-spacing="0.056em"><tspan x="0" y="0">9</tspan></text><text transform="translate(15.826 15.521)" font-size="1" font-family="Helvetica" letter-spacing="0.056em"><tspan x="0" y="0">3</tspan></text><path d="M8.687,19.817l4.745,4.921v4.3" transform="translate(-4.117 -9.37)" fill="none" stroke="#000" stroke-linecap="round" stroke-width="0.64" fill-rule="evenodd"/><line y1="3.899" x2="3.739" transform="translate(9.315 11.469)" fill="none" stroke="#ff6771" stroke-width="0.5"/><circle cx="0.758" cy="0.758" r="0.758" transform="translate(8.586 14.5)" fill="#91adc8"/><circle cx="0.526" cy="0.526" r="0.526" transform="translate(8.902 0)" fill="#91adc8"/></g><line x1="400.765" y2="1.203" transform="translate(26.016 261.434)" fill="none" stroke="#607385" stroke-width="0.5"/></g><g transform="translate(152.119 35.882)"><g transform="translate(0 0)"><g transform="translate(14.468)"><path d="M2.894,0H152.047a2.894,2.894,0,0,1,2.894,2.894V163.885a2.894,2.894,0,0,1-2.894,2.894H2.894A2.894,2.894,0,0,1,0,163.885V2.894A2.894,2.894,0,0,1,2.894,0Z" transform="translate(0.789 0)" fill="#cae9ff"/><rect width="156.519" height="25.253" transform="translate(0 0)" fill="#88c0ff"/><circle cx="1.315" cy="1.315" r="1.315" transform="translate(5.787 5.787)" fill="#1a4e87"/><circle cx="1.315" cy="1.315" r="1.315" transform="translate(12.627 5.787)" fill="#1a4e87"/><circle cx="1.315" cy="1.315" r="1.315" transform="translate(19.466 5.787)" fill="#1a4e87"/></g><g transform="translate(0 14.205)"><g transform="translate(84.178)"><path d="M1.052,0H16.046L17.1,14.468H0Z" fill="#fbfbfb" fill-rule="evenodd"/><path d="M30,0H45.257l2.894,14.468h-17.1Z" transform="translate(-14.217)" fill="#2a75c6" fill-rule="evenodd"/><path d="M58.5,0H72.179l6.313,14.468h-17.1Z" transform="translate(-27.722)" fill="#88c0ff" fill-rule="evenodd"/><path d="M84,0H97.416l10,14.468h-17.1Z" transform="translate(-39.806)" fill="#2a75c6" fill-rule="evenodd"/><path d="M109,0h15.257l11.838,14.468H119Z" transform="translate(-51.654)" fill="#88c0ff" fill-rule="evenodd"/><path d="M137.5,0h13.679l15.257,14.468h-17.1Z" transform="translate(-65.159)" fill="#2a75c6" fill-rule="evenodd"/><path d="M0,27H17.1v8.023a8.549,8.549,0,1,1-17.1,0V27Z" transform="translate(0 -12.795)" fill="#e6e1e1" fill-rule="evenodd"/><path d="M32,27.5H49.1v8.023a8.549,8.549,0,0,1-17.1,0V27.5Z" transform="translate(-15.164 -13.032)" fill="#1a4e87" fill-rule="evenodd"/><path d="M64,27.5H81.1v8.023a8.549,8.549,0,0,1-17.1,0V27.5Z" transform="translate(-30.329 -13.032)" fill="#62a2eb" fill-rule="evenodd"/><path d="M96,27.5h17.1v8.023a8.549,8.549,0,0,1-17.1,0V27.5Z" transform="translate(-45.493 -13.032)" fill="#1a4e87" fill-rule="evenodd"/><path d="M128,27.5h16.836l.127,8.024a8.415,8.415,0,0,1-8.28,8.547h-.134A8.549,8.549,0,0,1,128,35.523V27.5Z" transform="translate(-60.657 -13.032)" fill="#62a2eb" fill-rule="evenodd"/><path d="M160,27.5h17.1v8.023a8.549,8.549,0,1,1-17.1,0V27.5Z" transform="translate(-75.822 -13.032)" fill="#1a4e87" fill-rule="evenodd"/></g><g transform="translate(101.277 31.041) rotate(180)"><path d="M1.052,14.468H16.046L17.1,0H0Z" transform="translate(0 16.573)" fill="#88c0ff" fill-rule="evenodd"/><path d="M0,14.468H15.257L18.151,0H1.052Z" transform="translate(15.783 16.573)" fill="#2a75c6" fill-rule="evenodd"/><path d="M0,14.468H13.679L19.992,0H2.894Z" transform="translate(30.778 16.573)" fill="#88c0ff" fill-rule="evenodd"/><path d="M0,14.468H13.416L23.412,0H6.313Z" transform="translate(44.194 16.573)" fill="#2a75c6" fill-rule="evenodd"/><path d="M0,14.468H15.257L27.095,0H10Z" transform="translate(57.346 16.573)" fill="#88c0ff" fill-rule="evenodd"/><path d="M0,14.468H13.679L28.936,0h-17.1Z" transform="translate(72.341 16.573)" fill="#2a75c6" fill-rule="evenodd"/><path d="M0,16.573H17.1V8.549a8.549,8.549,0,1,0-17.1,0v8.023Z" transform="translate(0 0)" fill="#62a2eb" fill-rule="evenodd"/><path d="M0,16.573H17.1V8.549a8.549,8.549,0,1,0-17.1,0v8.023Z" transform="translate(16.836 0)" fill="#1a4e87" fill-rule="evenodd"/><path d="M0,16.573H17.1V8.549a8.549,8.549,0,1,0-17.1,0v8.023Z" transform="translate(33.671 0)" fill="#62a2eb" fill-rule="evenodd"/><path d="M0,16.573H17.1V8.549a8.549,8.549,0,1,0-17.1,0v8.023Z" transform="translate(50.507 0)" fill="#1a4e87" fill-rule="evenodd"/><path d="M0,16.573H17.1V8.549a8.549,8.549,0,1,0-17.1,0v8.023Z" transform="translate(67.343 0)" fill="#62a2eb" fill-rule="evenodd"/><path d="M0,16.573H17.1V8.549a8.549,8.549,0,1,0-17.1,0v8.023Z" transform="translate(84.178 0)" fill="#1a4e87" fill-rule="evenodd"/></g></g></g><g transform="translate(15.257 14.205)"><g transform="translate(72.078 71.815)"><path d="M141.735,137H229.6a4.735,4.735,0,0,1,4.735,4.735v53.4a4.735,4.735,0,0,1-4.735,4.735H141.735A4.735,4.735,0,0,1,137,195.136v-53.4A4.735,4.735,0,0,1,141.735,137Z" transform="translate(-137 -137)"/><path d="M141.735,137H229.6a4.735,4.735,0,0,1,4.735,4.735v53.4a4.735,4.735,0,0,1-4.735,4.735H141.735A4.735,4.735,0,0,1,137,195.136v-53.4A4.735,4.735,0,0,1,141.735,137Z" transform="translate(-137 -137)" fill="#fff"/></g><line x1="154.941" transform="translate(0 0)" fill="none" stroke="#1a4e87" stroke-width="0.5"/><g transform="translate(93.905 84.704)"><path d="M.516,0H30.909a.516.516,0,0,1,.516.516V4.627a.516.516,0,0,1-.516.516H.516A.516.516,0,0,1,0,4.627V.516A.516.516,0,0,1,.516,0Z" transform="translate(0 37.091) rotate(-90)" fill="#bedcff" fill-rule="evenodd"/><path d="M.516,0H23.181A.516.516,0,0,1,23.7.516V4.627a.516.516,0,0,1-.516.516H.516A.516.516,0,0,1,0,4.627V.516A.516.516,0,0,1,.516,0Z" transform="translate(0 37.091) rotate(-90)" fill="#88bfff" fill-rule="evenodd"/><path d="M.516,0H23.181A.516.516,0,0,1,23.7.516V4.627a.516.516,0,0,1-.516.516H.516A.516.516,0,0,1,0,4.627V.516A.516.516,0,0,1,.516,0Z" transform="translate(10.285 37.091) rotate(-90)" fill="#bedcff" fill-rule="evenodd"/><path d="M.516,0H14.939a.516.516,0,0,1,.516.516V4.627a.516.516,0,0,1-.516.516H.516A.516.516,0,0,1,0,4.627V.516A.516.516,0,0,1,.516,0Z" transform="translate(10.285 37.091) rotate(-90)" fill="#88bfff" fill-rule="evenodd"/><path d="M.516,0H33.485A.516.516,0,0,1,34,.516V4.627a.516.516,0,0,1-.516.516H.516A.516.516,0,0,1,0,4.627V.516A.516.516,0,0,1,.516,0Z" transform="translate(20.571 37.091) rotate(-90)" fill="#bedcff" fill-rule="evenodd"/><path d="M.516,0H23.181A.516.516,0,0,1,23.7.516V4.627a.516.516,0,0,1-.516.516H.516A.516.516,0,0,1,0,4.627V.516A.516.516,0,0,1,.516,0Z" transform="translate(20.571 37.091) rotate(-90)" fill="#88bfff" fill-rule="evenodd"/><path d="M.516,0H26.788A.516.516,0,0,1,27.3.516V4.627a.516.516,0,0,1-.516.516H.516A.516.516,0,0,1,0,4.627V.516A.516.516,0,0,1,.516,0Z" transform="translate(30.856 37.091) rotate(-90)" fill="#bedcff" fill-rule="evenodd"/><path d="M.516,0H18.03a.516.516,0,0,1,.516.516V4.627a.516.516,0,0,1-.516.516H.516A.516.516,0,0,1,0,4.627V.516A.516.516,0,0,1,.516,0Z" transform="translate(30.856 37.091) rotate(-90)" fill="#88bfff" fill-rule="evenodd"/><path d="M.516,0H18.03a.516.516,0,0,1,.516.516V4.627a.516.516,0,0,1-.516.516H.516A.516.516,0,0,1,0,4.627V.516A.516.516,0,0,1,.516,0Z" transform="translate(41.141 37.091) rotate(-90)" fill="#bedcff" fill-rule="evenodd"/><path d="M.516,0H11.333a.516.516,0,0,1,.516.516V4.627a.516.516,0,0,1-.516.516H.516A.516.516,0,0,1,0,4.627V.516A.516.516,0,0,1,.516,0Z" transform="translate(41.141 37.091) rotate(-90)" fill="#88bfff" fill-rule="evenodd"/><path d="M.516,0h36.06a.516.516,0,0,1,.516.516V4.627a.516.516,0,0,1-.516.516H.516A.516.516,0,0,1,0,4.627V.516A.516.516,0,0,1,.516,0Z" transform="translate(51.426 37.091) rotate(-90)" fill="#bedcff" fill-rule="evenodd"/><path d="M.516,0H26.788A.516.516,0,0,1,27.3.516V4.627a.516.516,0,0,1-.516.516H.516A.516.516,0,0,1,0,4.627V.516A.516.516,0,0,1,.516,0Z" transform="translate(51.426 37.091) rotate(-90)" fill="#88bfff" fill-rule="evenodd"/></g></g><g transform="translate(10.522 52.348)"><g transform="translate(76.813 0)"><path d="M149.946,0h89.439a3.946,3.946,0,0,1,3.946,3.946V22.36a3.946,3.946,0,0,1-3.946,3.946H149.946A3.946,3.946,0,0,1,146,22.36V3.946A3.946,3.946,0,0,1,149.946,0Z" transform="translate(-146 0)"/><path d="M149.946,0h89.439a3.946,3.946,0,0,1,3.946,3.946V22.36a3.946,3.946,0,0,1-3.946,3.946H149.946A3.946,3.946,0,0,1,146,22.36V3.946A3.946,3.946,0,0,1,149.946,0Z" transform="translate(-146 0)" fill="#fff"/></g><g transform="translate(0 33.408)"><g transform="translate(0 0)"><path d="M4.735,0H62.871a4.735,4.735,0,0,1,4.735,4.735v53.4a4.735,4.735,0,0,1-4.735,4.735H4.735A4.735,4.735,0,0,1,0,58.136V4.735A4.735,4.735,0,0,1,4.735,0Z" transform="translate(0 0)"/><path d="M4.735,0H62.871a4.735,4.735,0,0,1,4.735,4.735v53.4a4.735,4.735,0,0,1-4.735,4.735H4.735A4.735,4.735,0,0,1,0,58.136V4.735A4.735,4.735,0,0,1,4.735,0Z" transform="translate(0 0)" fill="#fff"/></g><g transform="translate(19.203 9.207)"><g transform="translate(9.475 33.408)"><path d="M.491,0h9.733l-.9,7.522a4,4,0,0,1-7.942,0L.491,0Z" transform="translate(-0.233)" fill="#e0e0e0"/><path d="M0,2.627Q1.2,3.664,5.125,3.664t5.487-1.037" transform="translate(0 -1.245)" fill="none" stroke="#979797" stroke-width="0.5" fill-rule="evenodd"/><path d="M0,5.627Q1.2,6.664,5.125,6.664t5.487-1.037" transform="translate(0 -2.666)" fill="none" stroke="#979797" stroke-width="0.5" fill-rule="evenodd"/><path d="M0,8.627Q1.2,9.664,5.125,9.664t5.487-1.037" transform="translate(0 -4.088)" fill="none" stroke="#979797" stroke-width="0.5" fill-rule="evenodd"/><path d="M0,11.627q1.2,1.037,5.125,1.037t5.487-1.037" transform="translate(0 -5.51)" fill="none" stroke="#979797" stroke-width="0.5" fill-rule="evenodd"/><path d="M0,14.627q1.2,1.037,5.125,1.037t5.487-1.037" transform="translate(0 -6.931)" fill="none" stroke="#979797" stroke-width="0.5" fill-rule="evenodd"/><path d="M3.438,18.1a11.431,11.431,0,0,0,6.766,0q3.153-1.023-3.086,2.222L3.75,19.361Z" transform="translate(-1.629 -8.459)" fill-rule="evenodd"/></g><path d="M14.6,34.9c7.7,0,4.78-2.567,5.567-4.844A7.406,7.406,0,0,1,22.3,26.743c4.154-2.771,6.9-6.906,6.9-12.144A14.6,14.6,0,1,0,6.411,26.688a8.28,8.28,0,0,1,2.68,3.367C10.012,32.38,6.9,34.9,14.6,34.9Z" transform="translate(0 0)" fill="#ffbb20" fill-rule="evenodd"/><path d="M20.882,48.476Q20.376,37.94,19.74,35.139q-.646-2.844-1.644-3.427c-2.368-1.383-4.516,3.049,1.895,3.423.28.016,3.052.082,3.372-3.712s-3.966-3.791-2.394.594a5.983,5.983,0,0,0,2.84,2.909c1.831.857,5.165-3.511,3.876-4.821s-4.322,1.882-4.322,9.3v9.071" transform="translate(-7.464 -13.576)" fill="none" stroke="#fff" stroke-width="0.5" fill-rule="evenodd"/></g></g><g transform="translate(98.383 6.839)"><rect width="14.731" height="14.731" rx="2.5" fill="#88bfff"/><g transform="translate(20.255 1.877)"><line x2="42.703" transform="translate(0 0)" fill="none" stroke="#bedcff" stroke-linecap="round" stroke-width="3.5"/><line x2="30.508" transform="translate(0 5.62)" fill="none" stroke="#bedcff" stroke-linecap="round" stroke-width="3.5"/><line x2="24.558" transform="translate(0 11.24)" fill="none" stroke="#bedcff" stroke-linecap="round" stroke-width="3.5"/></g></g></g><g transform="translate(0 52.348)"><g transform="translate(0 0)"><path d="M3.946,0H75.234A3.946,3.946,0,0,1,79.18,3.946V22.36a3.946,3.946,0,0,1-3.946,3.946H3.946A3.946,3.946,0,0,1,0,22.36V3.946A3.946,3.946,0,0,1,3.946,0Z" transform="translate(0 0)"/><path d="M3.946,0H75.234A3.946,3.946,0,0,1,79.18,3.946V22.36a3.946,3.946,0,0,1-3.946,3.946H3.946A3.946,3.946,0,0,1,0,22.36V3.946A3.946,3.946,0,0,1,3.946,0Z" transform="translate(0 0)" fill="#fff"/></g><g transform="translate(1.108 5.524)"><g transform="translate(6.784)"><circle cx="7.629" cy="7.629" r="7.629"/><circle cx="7.629" cy="7.629" r="7.629" fill="#8cc6ff"/></g><g transform="translate(0 2.206)"><g transform="translate(0 0)"><g transform="translate(17.502 8.783)"><path d="M2.294.282A21,21,0,0,1,4.015,5.993c0,.193-.689.121-.708.295L.869,5.74,0,.461,1.492,0Z" transform="translate(0 0)" fill="#ffd3c8"/><path d="M2.305.693A6.61,6.61,0,0,0,2.727,3.9c.165.321.8.423,1.131.608a2.129,2.129,0,0,1,.97,1.084L1.716,4.511Z" transform="translate(-0.813 -0.328)" fill="#f1b2a2" fill-rule="evenodd"/></g><g transform="translate(8.786 5.417)"><path d="M0,3.072,2.354,4.31a4.466,4.466,0,0,1,.162,2.2C2.307,7.4.652,8.433.988,9.515a4.558,4.558,0,0,1,3.492,0c1.463.691,3.025,2.156,4.435,1.824q-.6-5.632-.11-7.237l2.206-.455A4.658,4.658,0,0,0,8.045.341,8.452,8.452,0,0,0,5.421,0Q1.215-.073,0,3.072Z" transform="translate(0 0)" fill="#ff9378"/><path d="M2.441,8.191Q2.912,10.3,4.2,10.478T5.939,9.9a1.585,1.585,0,0,0,1.589.931q-.112,1.388-1.018.88c-.907-.507-1.829-.208-1.525.3a3.527,3.527,0,0,0,2.631,2.316q2.216.713,3.2-.485L9.259,15.939.572,14.332l-.389-2.71Z" transform="translate(-0.087 -3.882)" fill="#df775d" fill-rule="evenodd"/></g><line x2="0.244" y2="1.113" transform="translate(17.502 8.591)" fill="none" stroke="#301913" stroke-width="0.2"/><g transform="translate(10.772 0)"><g transform="translate(1.846 1.104)"><path d="M3.828.763q1.093,2.675-.534,2.913-.858.423-.777.486A6.158,6.158,0,0,0,3.5,4.47,1.722,1.722,0,0,1,1.657,5.594,1.578,1.578,0,0,1,.02,4.416q.291-.041.426-.056c.36-.041.6-.076.6-.2A3.516,3.516,0,0,0,.9,2.847,6.97,6.97,0,0,0,.309,1.732,18.309,18.309,0,0,1,1.555.329,1.4,1.4,0,0,1,3.123.147a1.921,1.921,0,0,1,.554.262A.514.514,0,0,1,3.828.763Z" transform="translate(-0.02 0)" fill="#ffd3c8"/><path d="M3.85,6.535a1.439,1.439,0,0,1-.71-.446q.186.992.833.949T3.85,6.535Z" transform="translate(-1.498 -2.885)" fill="#f1b2a2" fill-rule="evenodd"/></g><path d="M5.3,1.595A2.256,2.256,0,0,1,2.985,2.8q-.328-.183-.4.059c-.07.242.065.351.315.447L2.87,5.266q-.23,0-.61-.008a2.254,2.254,0,0,1-.637-.091l.1-.487-.392.363A9.077,9.077,0,0,1,0,4.34,4,4,0,0,0,1.33,2.7C1.705,1.78,2.224.148,3.61.015A2.036,2.036,0,0,1,6.036,1.764c.182,1.144.367,3.366.939,3.463q-1.345.024-1.489.033-.116.007-.207-.426l-.209.448-.737-.016L4.2,4.754q1.49.032,1.438-2.468a.985.985,0,0,1-.276-.34A.719.719,0,0,1,5.3,1.595Z" transform="translate(0 0)" fill="#061537" fill-rule="evenodd"/></g><g transform="translate(1.256 6.427) rotate(9)"><g transform="translate(0 0)"><path d="M4.113,2.948a1.453,1.453,0,0,0-1.38-.8A4.472,4.472,0,0,1,.029.822C-.1.5.247.692.2.605a.17.17,0,0,1,.12-.24Q.436.352.75.691.518.062.513.019C.508-.024.814-.018.9.325a.5.5,0,0,0,.349.416C1.379.6,1.432.757,1.755,1a1,1,0,0,0,.855.143C2.6,1.1,1.925.644,1.745.507s-.139-.591.213-.343A6.817,6.817,0,0,0,3.212.773q.656.027,1.5,1.1Q5.866,2.8,6.537,3.244T7.9,4.058h0L7.849.866l2.429.845Q10.5,5.382,9.313,6.32T4.184,3.057h0Z" fill="#ffd3c8"/><path d="M0,0Q.586,0,1.362,1.062c.776,1.064,2.571,4.473,4.7,3.584q2.125-.888-.822,1.276L.99,4Z" transform="translate(3.117 2.182) rotate(-9)" fill="#f1b2a2" fill-rule="evenodd"/><path d="M1.015,4.322l0-3.871L0,0,.294,3.683Z" transform="translate(7.428 0.24)" fill="#f1b2a2" fill-rule="evenodd"/></g><path d="M2.279,1.073C1.741.689,1.592.923.992.846S.34.235.2.092Q.066-.051.028.028-.138.475.681,1.234" transform="translate(1.236 0.69) rotate(-7)" fill="none" stroke="#99776c" stroke-width="0.5" fill-rule="evenodd"/><line x2="1.27" y2="0.964" transform="translate(0.196 0.627) rotate(-7)" fill="none" stroke="#99776c" stroke-width="0.5"/><path d="M0,0A3.6,3.6,0,0,0,.267.271,2.4,2.4,0,0,0,.534.465" transform="translate(0.688 0.613) rotate(-7)" fill="none" stroke="#99776c" stroke-width="0.5" fill-rule="evenodd"/></g><rect width="3.597" height="6.256" transform="translate(15.397 9.126)" fill="#230d99"/><rect width="3.23" height="5.667" transform="translate(15.584 9.421)" fill="none" stroke="#fff" stroke-width="0.2"/><g transform="translate(14.757 10.713)"><path d="M6.741,4.382c-.962,1.058-3.99-.437-5.16-1.4Q.082,2.453.016,2.13c-.066-.323.1-.36.1-.36a.4.4,0,0,1-.045-.409q-.1-.354.013-.43Q-.012.495.64.447.566.719.706.812c.14.093.8.208.8.053s-.415-.54-.234-.8.293.348.624.575a1.336,1.336,0,0,1,.615,1.23q0,.387,1.637.472a4.076,4.076,0,0,1,2.223.466C6.778,3.158,7.194,3.884,6.741,4.382Z" transform="translate(0)" fill="#ffd3c8"/><path d="M2.625,5.667Q6.689,7.658,8.03,6.7T7.623,8.179L2.205,6.7Z" transform="translate(-1.045 -2.686)" fill="#f1b2a2" fill-rule="evenodd"/></g><line y1="0.741" x2="0.065" transform="translate(11.14 8.985)" fill="none" stroke="#301913" stroke-width="0.2"/><path d="M10.336,17.108q.928,1.053,1.371,1.47c1.212,1.141,2,1.511,2.255,2.494" transform="translate(-4.732 -8.107)" fill="none" stroke="#99776c" stroke-width="0.5" fill-rule="evenodd"/><path d="M15.547,22.207a1.333,1.333,0,0,1,1,.346" transform="translate(-7.201 -10.523)" fill="none" stroke="#99776c" stroke-width="0.5" fill-rule="evenodd"/><path d="M32.526,24.045a2.516,2.516,0,0,0,1.565.414c1.032,0,2.253.148,2.71.985" transform="translate(-15.247 -11.394)" fill="none" stroke="#99776c" stroke-width="0.5" fill-rule="evenodd"/><path d="M27.884,22.133q.05.157.343.2" transform="translate(-13.047 -10.489)" fill="none" stroke="#99776c" stroke-width="0.2" fill-rule="evenodd"/><path d="M27.86,22.95a.587.587,0,0,0,.356.18" transform="translate(-13.036 -10.876)" fill="none" stroke="#99776c" stroke-width="0.2" fill-rule="evenodd"/><path d="M27.946,23.727a.672.672,0,0,0,.371.181" transform="translate(-13.077 -11.244)" fill="none" stroke="#99776c" stroke-width="0.2" fill-rule="evenodd"/></g></g></g><g transform="translate(31.041 10.265)"><g transform="translate(0 0)"><path d="M3.457.2l.711,1.441a.339.339,0,0,0,.256.186l1.59.231a.34.34,0,0,1,.188.579L5.052,3.76a.34.34,0,0,0-.1.3l.272,1.584A.34.34,0,0,1,4.733,6L3.311,5.254a.34.34,0,0,0-.316,0L1.572,6a.34.34,0,0,1-.493-.358L1.351,4.06a.34.34,0,0,0-.1-.3L.1,2.638a.339.339,0,0,1,.188-.579l1.59-.231a.339.339,0,0,0,.256-.186L2.848.2A.339.339,0,0,1,3.457.2Z" transform="translate(0 -0.012)" fill="#ffbb20"/></g><g transform="translate(7.629 0)"><path d="M3.457.2l.711,1.441a.339.339,0,0,0,.256.186l1.59.231a.34.34,0,0,1,.188.579L5.052,3.76a.34.34,0,0,0-.1.3l.272,1.584A.34.34,0,0,1,4.733,6L3.311,5.254a.34.34,0,0,0-.316,0L1.572,6a.34.34,0,0,1-.493-.358L1.351,4.06a.34.34,0,0,0-.1-.3L.1,2.638a.339.339,0,0,1,.188-.579l1.59-.231a.339.339,0,0,0,.256-.186L2.848.2A.339.339,0,0,1,3.457.2Z" transform="translate(0 -0.012)" fill="#ffbb20"/></g><g transform="translate(15.257 0)"><path d="M3.457.2l.711,1.441a.339.339,0,0,0,.256.186l1.59.231a.34.34,0,0,1,.188.579L5.052,3.76a.34.34,0,0,0-.1.3l.272,1.584A.34.34,0,0,1,4.733,6L3.311,5.254a.34.34,0,0,0-.316,0L1.572,6a.34.34,0,0,1-.493-.358L1.351,4.06a.34.34,0,0,0-.1-.3L.1,2.638a.339.339,0,0,1,.188-.579l1.59-.231a.339.339,0,0,0,.256-.186L2.848.2A.339.339,0,0,1,3.457.2Z" transform="translate(0 -0.012)" fill="#ffbb20"/></g><g transform="translate(22.886 0)"><path d="M3.457.2l.711,1.441a.339.339,0,0,0,.256.186l1.59.231a.34.34,0,0,1,.188.579L5.052,3.76a.34.34,0,0,0-.1.3l.272,1.584A.34.34,0,0,1,4.733,6L3.311,5.254a.34.34,0,0,0-.316,0L1.572,6a.34.34,0,0,1-.493-.358L1.351,4.06a.34.34,0,0,0-.1-.3L.1,2.638a.339.339,0,0,1,.188-.579l1.59-.231a.339.339,0,0,0,.256-.186L2.848.2A.339.339,0,0,1,3.457.2Z" transform="translate(0 -0.012)" fill="#ffbb20"/></g><g transform="translate(30.515 0)"><path d="M3.457.2l.711,1.441a.339.339,0,0,0,.256.186l1.59.231a.34.34,0,0,1,.188.579L5.052,3.76a.34.34,0,0,0-.1.3l.272,1.584A.34.34,0,0,1,4.733,6L3.311,5.254a.34.34,0,0,0-.316,0L1.572,6a.34.34,0,0,1-.493-.358L1.351,4.06a.34.34,0,0,0-.1-.3L.1,2.638a.339.339,0,0,1,.188-.579l1.59-.231a.339.339,0,0,0,.256-.186L2.848.2A.339.339,0,0,1,3.457.2Z" transform="translate(0 -0.012)" fill="#ffbb20"/></g></g></g></g><g transform="translate(13.204 197.136)"><path d="M27.614,2.131q-.652-2.3-1.54-2.118T24.5,4.133Z" transform="translate(-8.17 0)" fill="#fb0" fill-rule="evenodd"/><path d="M27.6,2.992q-.44-1.611-1.041-1.483T25.5,4.394Z" transform="translate(-8.644 -0.711)" fill="#594100" fill-rule="evenodd" opacity="0.224"/><path d="M32.093,2.655Q32.831.471,33.514.634c.683.162,1.343,2.439.77,4.43Q33.711,7.055,32.093,2.655Z" transform="translate(-11.768 -0.295)" fill="#fb0" fill-rule="evenodd"/><path d="M33,3.374q.483-1.476.931-1.366c.447.11.88,1.648.5,2.993Q34.06,6.346,33,3.374Z" transform="translate(-12.198 -0.948)" fill="#594100" fill-rule="evenodd" opacity="0.224"/><g transform="translate(0 1.517)"><path d="M18.271,2.775a6.4,6.4,0,0,1,.705,2.535,5.152,5.152,0,0,1-.705,2.831q4.443-.011,3.965,3.332H3.246Q2.332,18.12,9.2,21.015q2.106.72,2.018,1.385-.055,1.388-2.661.852c-2.606-.536-9.6-3.12-8.384-13.016S6.3,0,7.317,0a7.293,7.293,0,0,1,5.549,2.478Z" transform="translate(3.428 4.472)" fill="#ffce00"/><circle cx="4.867" cy="4.867" r="4.867" transform="translate(2.125)" fill="#e9ac03"/><path d="M6.75,33.673a8.25,8.25,0,0,0,3.463-9.182" transform="translate(0.242 -7.134)" fill="none" stroke="#fb0" stroke-width="4" fill-rule="evenodd"/><path d="M0,9.182A8.25,8.25,0,0,0,3.463,0" transform="matrix(0.819, 0.574, -0.574, 0.819, 6.281, 15.797)" fill="none" stroke="#fb0" stroke-width="4" fill-rule="evenodd"/><path d="M0,9.182A8.25,8.25,0,0,0,3.463,0" transform="matrix(0.259, 0.966, -0.966, 0.259, 8.87, 13.425)" fill="none" stroke="#fb0" stroke-width="4" fill-rule="evenodd"/><path d="M14.25,39.673a8.25,8.25,0,0,0,3.463-9.182" transform="translate(-3.312 -9.977)" fill="none" stroke="#fb0" stroke-width="4" fill-rule="evenodd"/><path d="M13.517,32.88a11.637,11.637,0,0,1-7.331-4.2,8.4,8.4,0,0,1-1.77-6.876h1.77q4.685,6.533,6.837,9.783T13.517,32.88Z" transform="translate(1.419 -5.862)" fill="#594100" fill-rule="evenodd"/><path d="M31.358,5.117a4.171,4.171,0,0,1-4.037.471,6.5,6.5,0,0,1,1.666,2.619q.392,1.312.771,3.2,2.224-.763,2.483-2.451A6.245,6.245,0,0,0,31.358,5.117Z" transform="translate(-9.506 2.047)" fill="#ffffed" fill-rule="evenodd" opacity="0.495"/><path d="M17.344,6.949q2.846.819,2.422,3.47,3.331-.2,3.331,4.347H22.039q-.184-2.42-2.471-2.2l-2.081.4-.972.305q2.1-2.076,1.975-3.72A3.817,3.817,0,0,0,17.344,6.949Z" transform="translate(-4.386 1.179)" fill="#ffffed" fill-rule="evenodd" opacity="0.222"/></g><g transform="translate(14.489 2.104)"><circle cx="3.683" cy="3.683" r="3.683" transform="translate(1.315)" fill="#ffce00"/><circle cx="1.973" cy="1.973" r="1.973" transform="translate(0 2.368)" fill="#fb0"/><circle cx="1.973" cy="1.973" r="1.973" transform="translate(7.892 2.368)" fill="#fb0"/><circle cx="3.025" cy="3.025" r="3.025" transform="translate(2.631 2.894)" fill="#ffffed" opacity="0.5"/></g><path d="M34.352,27.008q-.1-2.083-1.47-2.4a7.083,7.083,0,0,0-2.739-.1,14.718,14.718,0,0,0-.765-3.138,2.545,2.545,0,0,0-1.245-1.231" transform="translate(-9.892 -9.546)" fill="none" stroke="#594100" stroke-width="0.5" fill-rule="evenodd"/><path d="M11.241,16.774q3.464-.585,4.484,1.949t-1.667,5.084q5.632-1.828,5.44,1.551" transform="translate(-1.886 -7.897)" fill="none" stroke="#594100" stroke-width="0.5" fill-rule="evenodd"/><path d="M25.181,10.508a5.972,5.972,0,0,0-4.268.352" transform="translate(-6.469 -4.871)" fill="none" stroke="#594100" stroke-width="0.5" fill-rule="evenodd"/><path d="M26.025,12.442a4.333,4.333,0,0,0-3.331,1.081" transform="translate(-7.314 -5.878)" fill="none" stroke="#594100" stroke-width="0.5" fill-rule="evenodd"/><path d="M34.994,9.974a4.473,4.473,0,0,1,3.26,0" transform="translate(-13.143 -4.584)" fill="none" stroke="#594100" stroke-width="0.5" fill-rule="evenodd"/><path d="M34.994,11.993a3.452,3.452,0,0,1,3.26.715" transform="translate(-13.143 -5.622)" fill="none" stroke="#594100" stroke-width="0.5" fill-rule="evenodd"/><path d="M30.862,11.031q.544.409.96-.2.54.546.922.29" transform="translate(-11.185 -5.133)" fill="none" stroke="#594100" stroke-width="0.5" fill-rule="evenodd"/><circle cx="0.526" cy="0.526" r="0.526" transform="translate(20.013 4.603)" fill="#d8d8d8" stroke="#000" stroke-width="0.5"/><path d="M28.786,8.632a.763.763,0,0,1,1.092-.09" transform="translate(-10.201 -3.959)" fill="none" stroke="#594100" stroke-width="0.5" fill-rule="evenodd"/><path d="M34.1,7.979q.3-.384.792,0" transform="translate(-12.718 -3.69)" fill="none" stroke="#594100" stroke-width="0.5" fill-rule="evenodd"/></g><g transform="translate(56.946 142.189)"><g transform="translate(30.279 26.021) rotate(180)"><path d="M2.926,3.212Q2.165,5.07,1.807,6.081A7.534,7.534,0,0,0,1.546,8.9Q-.244,10.767.039,12.122c.768,3.678,4.136,3.97,10.65,2.079a1.812,1.812,0,0,0,1.549-2.082A2.765,2.765,0,0,0,14.844,10.3c.865-1.832.052-5.964-.514-7.416A14.1,14.1,0,0,0,12.777,0Z" transform="matrix(0.995, -0.105, 0.105, 0.995, 0, 10.759)" fill="#4c2603" fill-rule="evenodd"/><g transform="translate(1.167 0)"><path d="M.011,17.525a20.669,20.669,0,0,1,.6-5.692c.969-3.879,2.86-5.551,5.032-5.122l.093-1.605a4.371,4.371,0,0,1,.038-1.05c.134-.594.456-1.1.6-1.779A3.41,3.41,0,0,1,8.416.015,2.475,2.475,0,0,1,9.54.188q2.9,1.151,2.739,5.379-.521.231-.791,1.971t-.644,5.809q.638.3.637,1.672c0,1.368-.531,1.53-1.052,1.452s-.95-1.318-.95-2.257c-.788-.552-.612.52-.793,1.725S7.152,16.96,6.813,17.686a4.981,4.981,0,0,0-.416,1.94A7.2,7.2,0,0,0,.855,19.2Q0,19.2.011,17.525Z" transform="matrix(0.995, -0.105, 0.105, 0.995, 0, 1.284)" fill="#ffd3c8"/><path d="M1.016,2.6Q4.284,3.03,5.1,5.433,4.188,1.075,1.481.188T1.016,2.6Z" transform="translate(4.96 4.715)" fill="#f1b2a2" fill-rule="evenodd"/></g><path d="M0,.262a1.731,1.731,0,0,1,1.832,0" transform="translate(7.912 17.082) rotate(180)" fill="none" stroke="#061537" stroke-linecap="round" stroke-width="0.998" fill-rule="evenodd"/><path d="M0,.071A1.416,1.416,0,0,1,1.331.29" transform="translate(4.182 16.598) rotate(158)" fill="none" stroke="#061537" stroke-linecap="round" stroke-width="0.997" fill-rule="evenodd"/><circle cx="0.526" cy="0.526" r="0.526" transform="translate(7.13 15.773) rotate(180)" fill="#061537"/><path d="M1.007.075A.865.865,0,0,0,0,.3" transform="translate(7.301 15.458) rotate(-169)" fill="none" stroke="#061537" stroke-width="0.5" fill-rule="evenodd"/><circle cx="0.526" cy="0.526" r="0.526" transform="translate(3.989 15.773) rotate(180)" fill="#061537"/><path d="M1.007.075A.865.865,0,0,0,0,.3" transform="translate(4.103 15.45) rotate(-170)" fill="none" stroke="#061537" stroke-width="0.5" fill-rule="evenodd"/><path d="M.9,4.194A4.88,4.88,0,0,0,.58,2.474C-.144,1.047-.674-.76,2.094.338" transform="translate(4.248 11.577)" fill="none" stroke="#061537" stroke-linecap="round" stroke-width="0.5" fill-rule="evenodd"/><path d="M1.489,1.045Q.766,1.112,0,0A4.971,4.971,0,0,0,1.489.368,2.39,2.39,0,0,0,2.617,0Q2.211.977,1.489,1.045Z" transform="translate(6.865 10.791) rotate(180)" fill="#fff" stroke="#061537" stroke-linecap="round" stroke-width="0.5" fill-rule="evenodd"/><ellipse cx="1.57" cy="1.573" rx="1.57" ry="1.573" transform="translate(1.37 13.412)" fill="none" stroke="#061537" stroke-linecap="round" stroke-width="0.5"/><ellipse cx="1.57" cy="1.573" rx="1.57" ry="1.573" transform="translate(5.295 13.412)" fill="none" stroke="#061537" stroke-linecap="round" stroke-width="0.5"/><line x2="3.925" y2="0.524" transform="translate(8.435 15.509)" fill="none" stroke="#061537" stroke-linecap="round" stroke-width="0.5"/><line y1="0.077" x2="1.047" transform="translate(4.51 15.34)" fill="none" stroke="#061537" stroke-linecap="round" stroke-width="0.5"/></g><g transform="translate(51.065 85.199)"><g transform="translate(38.564 14.787) rotate(160)"><g transform="translate(11.198 8.048)"><path d="M.173,7.284,0,2.649,3.449.289Q5.406-.326,6.13.368T7.1,4.031l.309,3.186Z" transform="translate(1.841 0)" fill="#ffd3c8"/><path d="M0,3.257,9.411,0V3.661Z" transform="translate(0 4.027)" fill="#f1b2a2" fill-rule="evenodd"/></g><g transform="translate(0 0)"><path d="M17.407,5.471q-.874-.147-1.852-.34c-2.886-.568-5.308.587-5.41,1.555Q-1.084,4.5.116,0h16.73a.75.75,0,0,1,.75.75q0,.015,0,.03l-.188,4.691Z" transform="translate(2.886 5.081)" fill="#2a3756"/><rect width="22.263" height="6.244" transform="translate(0 0)" fill="#fff"/></g></g><g transform="translate(22.263 23.672) rotate(180)"><g transform="translate(11.198 8.314)"><path d="M.173,7.018,0,2.384,3.449.024A3.853,3.853,0,0,1,6.3.577q.724.694.8,3.184l.309,3.19Z" transform="translate(1.841 0)" fill="#ffd3c8"/><path d="M0,3.257,9.411,0V3.661Z" transform="translate(0 3.761)" fill="#f1b2a2" fill-rule="evenodd"/></g><g transform="translate(0 0)"><path d="M17.573,5.5q-1.041-.171-2.018-.364c-2.886-.568-5.308.587-5.41,1.555Q-1.084,4.5.116,0H16.869a.75.75,0,0,1,.75.75s0,0,0,.007L17.573,5.5Z" transform="translate(2.886 5.081)" fill="#2a3756"/><rect width="22.263" height="6.244" fill="#fff"/></g></g></g><g transform="translate(8.607 55.422)"><g transform="translate(31.257 0)"><path d="M17.154.327q5.66-.694,8.732,10.548t6.93,24.049l-9.232,2.5L4.895,3.039q-3.788.767-4.346,0T2.917.327Z" transform="translate(1.033 0.614)" fill="#955454"/><path d="M17.5-.484Q15.342.569,15.342,2.062a2.672,2.672,0,0,0,1.6,2.382L34.186,38.119,21.042,39.53,17.5,30.2,10.994,8.075-2.377,1.646l13.993-3.07Z" transform="translate(2.377 1.424)" fill="#824848" fill-rule="evenodd"/></g><g transform="translate(0 0.768)"><path d="M.314,7.508q2.953,10.109,36.578,6.366,1.245.116,1.186,3t.692,19.775H48.955Q50.263,7.811,47.4,4.094T15.322.377L1.726,6.7Z" transform="translate(3.854 1.57)" fill="#955454"/><path d="M14.461-1.022Q7.223,8.39,17.412,7.447C27.6,6.5,37.28,6.172,37.644,14.907q.364,8.735.763,21.263l-6.5-.718L29.087,14.907Q4.456,22.274-2.926,13.081T-6.048,5.024L12.73-3.323Z" transform="translate(7.607 3.323)" fill="#824848" fill-rule="evenodd"/></g><path d="M73.946,34.309,64.663,37.04l-1.726-3.152q.215-10.328.154-14.107c-.123-7.578-.773-11.863-2.581-12.923q-4.064-2.383-17.44-2.766L29.277,3.736" transform="translate(-9.872 -1.021)" fill="none" stroke="#301913" stroke-width="0.5" fill-rule="evenodd"/><path d="M81.926,49.71H71.91q-.617-14.159-.617-17.363t-1.023-3.7q3.4,1.245,5.185-.756" transform="translate(-29.297 -12.466)" fill="none" stroke="#301913" stroke-width="0.5" fill-rule="evenodd"/><path d="M70.269,26.951a4.486,4.486,0,0,0,4.279-2.634" transform="translate(-29.297 -10.774)" fill="none" stroke="#301913" stroke-width="0.5" fill-rule="evenodd"/><path d="M15.035,10.974q3.774,4.969,20.139,4.073c16.365-.9,16.409,1.489,15.887,26.649" transform="translate(-3.122 -4.451)" fill="none" stroke="#301913" stroke-width="0.5" fill-rule="evenodd"/></g><g transform="translate(0 19.806)"><path d="M12.812,75.166q-.184,5.86,1.826,6.591l13.972-7.206h-16.1Z" transform="translate(-2.034 -35.545)" fill="#4c7fff" fill-rule="evenodd"/><g transform="translate(0 1.099)"><path d="M11.66,0Q1.946,1.733.971,12.75C0,23.767-1.4,36.573,3.384,37.775q4.785,1.2,19.018.469l7.273-3.481,12.759-.806V27.766q-5.1.411-5.848-.4c-.75-.813-6.366-21.473-9.506-22.871A8.842,8.842,0,0,0,21.741.973Q20.955.819,18.808.546q-.732.92-1.23.881T16.21.348Z" transform="translate(3.893 0)" fill="#659cff"/><path d="M16.993,7.516q6.783,6.17,5.949,16.333c-.834,10.162,15.016,8.768,14.179,1.71l.56,12.521-7.374-.436V35.615q-5.551-.159-8.124-.418a45.238,45.238,0,0,1-5.625-.964q1.585-9.121,2.106-13.544a40.85,40.85,0,0,0-.19-9.943A8.962,8.962,0,0,0,17.942,9,8.1,8.1,0,0,0,16.993,7.516Z" transform="translate(-3.954 -3.562)" fill="#4c7fff" fill-rule="evenodd"/><path d="M1.313,5.137a23.176,23.176,0,0,0-2.432,6.626c-2.255,15.7-1.132,25.5,1.02,26.374q3.746,1.529,19.168,1.071l.109,2.968-23.685.644L-7.4,19.543-.1,5.773Z" transform="translate(7.399 -2.434)" fill="#4c7fff" fill-rule="evenodd"/><rect width="2.251" height="6.244" transform="translate(24.155 31.972)" fill="#fff"/><path d="M51.588,8.539l4.178,1.505,7.611,21.147,9.752-.95L70.295,40.01,53.364,38.563l.816-4.588-.365-6.333q-.343-7.1-.723-10.355T51.588,8.539Z" transform="translate(-20.554 -4.046)" fill="#4c7fff" fill-rule="evenodd"/></g><path d="M51.588,11.039q2.259,9.686,2.592,30.271" transform="translate(-20.554 -5.447)" fill="none" stroke="#301913" stroke-width="0.5" fill-rule="evenodd"/><path d="M62.374,53.616q2.27-1.162,3.769.218-3.516.423-3.177,3.637" transform="translate(-25.665 -25.373)" fill="none" stroke="#301913" stroke-width="0.5" fill-rule="evenodd"/><path d="M11.925,44.311q4.667.583,16.186,0V38.194q-12.086-.365-13.749-1.382,4.611-23.463.267-26.629" transform="translate(-1.758 -5.042)" fill="none" stroke="#301913" stroke-width="0.5" fill-rule="evenodd"/><path d="M11.685,63.09q-1.115-2.4,2.438-3.051-.16-.562-2.646-.843" transform="translate(-1.519 -28.268)" fill="none" stroke="#301913" stroke-width="0.5" fill-rule="evenodd"/><path d="M23.295.411a4.587,4.587,0,0,0,2.594,1.243,2.9,2.9,0,0,1,2.172,1.284q-.748.051-.748,1.554A1.708,1.708,0,0,1,26.15,6.356a22.779,22.779,0,0,0-1.78-2.677A20,20,0,0,0,22.123,1.51a1.212,1.212,0,0,0,.827-.579A1.589,1.589,0,0,1,23.295.411Z" transform="translate(-6.591 -0.411)" fill="#fff" fill-rule="evenodd"/><path d="M34.815,1.268A1.842,1.842,0,0,1,33.41,3.342a4.982,4.982,0,0,1,1.7.715,10.672,10.672,0,0,1,1.675,1.9,6.782,6.782,0,0,0-.46-3.167Q35.7,1.2,34.815,1.268Z" transform="translate(-11.94 -0.816)" fill="#fff" fill-rule="evenodd"/><path d="M31.858,5.5q.555-.255.848.5.082-.828.687-.647L33.27,4.93a4.471,4.471,0,0,1-1.059.143,2.242,2.242,0,0,1-.507-.057Q30.954,4.809,31.858,5.5Z" transform="translate(-10.97 -2.552)" fill="#fff" fill-rule="evenodd"/></g><g transform="translate(28.278 38.488)"><g transform="translate(0 16.235)"><path d="M0,3.588l12.889.254,5.148-.648.011-.895L27.073.4,19.783,0,9.313.146Z" transform="translate(0 0)" fill="#d2d2d2"/><path d="M.045,4.644H13.053v1.5H.045Z" transform="translate(-0.022 -2.201)" fill="#989797" fill-rule="evenodd"/></g><path d="M44.811,33.974a1.384,1.384,0,0,1-1.324,1.383l-19.022.835h0V34.313Z" transform="translate(-11.594 -16.1)" fill="#cfcccc" fill-rule="evenodd"/><path d="M29.57,0,50.3.429l.5.5-6.5,17-20.762.694Z" transform="translate(-11.152 0)" fill="#d5d5d5" fill-rule="evenodd"/><path d="M30.52.95l20.73.429-6,17-20.762.694Z" transform="translate(-11.603 -0.45)" fill="#e3e3e3" fill-rule="evenodd"/><ellipse cx="1.376" cy="1.374" rx="1.376" ry="1.374" transform="translate(26.039 7.938)" fill="#fff"/></g><g transform="translate(26.353 52.101)"><path d="M0,5.653Q5.231,6.8,6.912,4.507a6.218,6.218,0,0,0,1.92-.825c.158-.232,2.125,1.738,2.742,1.568S12.314,4.24,11,3.4a6.715,6.715,0,0,0,2.333,1.3c.367-.056.824-.239.6-.515q.7.119.611-.166C14.443,3.736,9.793.51,9,.51A1.673,1.673,0,0,0,7.2.1Q6.119.431.033,2.641Z" transform="translate(0 0)" fill="#ffd3c8" fill-rule="evenodd"/><path d="M17.408,5.615a9.384,9.384,0,0,0-2.666-1.693,9.264,9.264,0,0,0-2.217.722" transform="translate(-5.936 -1.859)" fill="none" stroke="#301913" stroke-width="0.5" fill-rule="evenodd"/><path d="M19.59,4.879q-4.435-3.341-5.462-3.207a11.963,11.963,0,0,0-2.364.6" transform="translate(-5.575 -0.79)" fill="none" stroke="#301913" stroke-width="0.5" fill-rule="evenodd"/><path d="M14.681.81a3.689,3.689,0,0,0-2.7.2" transform="translate(-5.68 -0.301)" fill="none" stroke="#301913" stroke-width="0.5" fill-rule="evenodd"/></g></g><g transform="translate(139.435 139.039)"><g transform="translate(30.02 25.655) rotate(172)"><path d="M6.743,4.725Q1.6,3.631.3,7.767t3.122,6.949q-2.162,4.364,1.551,6.127,1.925,3.788,6.851,2.4c4.926-1.39,3.388-6.069,5.724-6.834s5.253-1.046,4.8-4.574q3.982-2.47,2.974-8.111c-1.008-5.641-10.412-4.369-9.993.465q-2.949-1.28-3.819.547T6.743,4.725Z" transform="translate(0 2.292)" fill="#061537" fill-rule="evenodd"/><g transform="translate(4.33 0)"><path d="M7.252,12.584a4.933,4.933,0,0,0,.129,2.452c1.851.292,1.6,2.092.938,2.233q-.662.141-1.067-.815c0,1.781-1.582.166-2.794,2.907s-3.527,1.2-3.807.413-2.334-8.962,2.687-9.187A7.506,7.506,0,0,0,3.26,8.033a12.881,12.881,0,0,0-.275-1.391C2.363,5.178.245,1.589,2.863.254S9.513,3.141,8.8,5.872,7.489,11.2,7.252,12.584Z" transform="translate(0 0)" fill="#ffd3c8"/><path d="M1.26,3.166q2.159-.283,3.323,2.6Q4.641.6,1.609.069T1.26,3.166Z" transform="translate(1.822 7.432)" fill="#f1b2a2" fill-rule="evenodd"/></g><path d="M.555,3.185a5.362,5.362,0,0,0-.3-1.913c-.308-.83-.59-1.366.75-1.259" transform="translate(5.885 14.283)" fill="none" stroke="#9d3f28" stroke-linecap="round" stroke-width="0.5" fill-rule="evenodd"/><circle cx="0.526" cy="0.526" r="0.526" transform="translate(4.763 16.744)" fill="#061537"/><ellipse cx="1.145" cy="1.153" rx="1.145" ry="1.153" transform="translate(3.837 16.076)" fill="none" stroke="#324a83" stroke-linecap="round" stroke-width="0.5"/><ellipse cx="1.145" cy="1.153" rx="1.145" ry="1.153" transform="translate(6.715 15.691)" fill="none" stroke="#324a83" stroke-linecap="round" stroke-width="0.5"/><circle cx="0.526" cy="0.526" r="0.526" transform="translate(7.371 16.351)" fill="#061537"/><path d="M0,.587A1.677,1.677,0,0,0,2.025,0" transform="translate(7.163 17.621)" fill="none" stroke="#061537" stroke-linecap="round" stroke-width="0.693" fill-rule="evenodd"/><path d="M0,.141A.8.8,0,0,0,.907,0" transform="translate(4.809 18.486)" fill="none" stroke="#061537" stroke-linecap="round" stroke-width="0.693" fill-rule="evenodd"/><path d="M0,1.206A1.841,1.841,0,0,1,2.512.985Q1.766-.09,1.092.008T0,1.206Z" transform="translate(5.489 12.377)" fill="#fff" stroke="#9d3f28" stroke-linecap="round" stroke-width="0.5" fill-rule="evenodd"/><line x2="2.831" y2="0.281" transform="translate(9.005 17.07)" fill="none" stroke="#324a83" stroke-linecap="round" stroke-width="0.5"/><line y1="0.141" x2="0.629" transform="translate(6.116 17.21)" fill="none" stroke="#324a83" stroke-width="0.5"/></g><g transform="translate(0 101.91)"><g transform="translate(10.428 20.773) rotate(-135)"><g transform="translate(3.567 1.541)"><path d="M3.222,13.089h7.506V0H3.949Q.024.624,0,1.052q-.021.387,4.763,1.821a1.184,1.184,0,0,1,.8,1.439L3.222,13.089Z" transform="translate(0 0)" fill="#ffd3c8"/><path d="M0,2.892,7.61,0V4.575Z" transform="translate(3.571 6.544)" fill="#f1b2a2" fill-rule="evenodd"/></g><path d="M14.505,3.971a16.271,16.271,0,0,0-2.679-1.118,9.04,9.04,0,0,0-4.5-.254c-1.764.494-1.191,1.259-2.4.809C1.166,2.011-.289,1.667.047,0L14,.23a.71.71,0,0,1,.7.722q0,.017,0,.034l-.194,2.984Z" transform="translate(0 0)" fill="#230d99" fill-rule="evenodd"/></g><g transform="translate(30.835 21.007) rotate(180)"><g transform="translate(3.558 1.535)"><path d="M3.214,13.041H10.7V0H3.938Q.024.621,0,1.048q-.021.385,4.747,1.813a1.184,1.184,0,0,1,.8,1.44L3.214,13.041Z" transform="translate(0)" fill="#ffd3c8"/><path d="M0,2.881,7.59,0V4.558Z" transform="translate(3.561 6.52)" fill="#f1b2a2" fill-rule="evenodd"/></g><path d="M14.467,3.956a16.237,16.237,0,0,0-2.672-1.113A9.025,9.025,0,0,0,7.3,2.59c-1.759.493-1.188,1.254-2.394.806C1.163,2-.289,1.661.047,0L13.963.229a.71.71,0,0,1,.7.722q0,.017,0,.034l-.193,2.971Z" transform="translate(0)" fill="#230d99" fill-rule="evenodd"/></g></g><g transform="translate(7.423 52.836)"><path d="M25.922,3.5q7.969,25.351,4.687,31.427t-26,24.078L0,52.635,21.467,30.413,15.783,17.442,16.93,4.354Z" transform="translate(0 -1.659)" fill="#dc5f58" fill-rule="evenodd"/><path d="M23.94.829a50.289,50.289,0,0,1-.856,5.136,51.73,51.73,0,0,1-1.57,5.018l-3.1,48.2H11.029q-.037-20.933-.5-26.9c-.57-7.357-2.088-11.379-2.536-12.107-1.217-1.979-4.46-7.966-2.23-15.1Q7.994-2.052,23.94.829Z" transform="translate(-2.369 0)" fill="#ff6f66" fill-rule="evenodd"/></g><g transform="translate(5.845 18.639)"><g transform="translate(0 1.052)"><path d="M24.264,4.254Q21.75.436,16.141,0c-.512-.04,1.3,1.428.758,2.338-.681,1.152-3.713,1.81-4.423,1.915-.688.1-1.343-3.935-2.006-3.818C4.351,1.515-.5,3.44.042,10.312.647,17.927-.795,29.3,5.071,30.48l2.914.128A15.437,15.437,0,0,0,5.5,33.764a36.621,36.621,0,0,0-1.561,4.221q10.4,1.374,24.537-2.782-3.33-7.065-1.639-11.917c.757-2.173.791-2.566.38-6.181A103.256,103.256,0,0,0,24.264,4.254Z" transform="translate(0 0)" fill="#56d4b7"/><path d="M9.451,12.791Q12.3,16.241,12.3,22.315c0,6.075,7.866,6.572,9.231,2.707q2.316,2.98,6.861.9t5.649,19.906L7.5,43.746l1.128-7.2q8.323.245,12.514,0a34.464,34.464,0,0,0,7.418-1.167l-.307-5.149L11.1,29.868a72.045,72.045,0,0,0,0-10.994Q10.685,14.576,9.451,12.791Z" transform="translate(-3.552 -6.062)" fill="#4bc5a9" fill-rule="evenodd"/><path d="M44.007,9.586q.882,7.176,1.149,10.594a10.709,10.709,0,0,0,2.354,6.014" transform="translate(-20.854 -4.542)" fill="none" stroke="#301913" stroke-width="0.5" fill-rule="evenodd"/></g><path d="M4.293,7.366l-.207-.774c-.6-2.121-.329-3.236.864-3.55q2.011-.529,4.294,3.826Q10.926.475,8.845.056T4.951,2.344Q.229,1.241.01,2.676T4.293,7.366Z" transform="translate(19.729 7.366) rotate(180)" fill="#fff" fill-rule="evenodd"/><path d="M0,.939,3.595,0Q14.7,18.479,9.15,21.158T0,.939Z" transform="translate(24.019 4.002) rotate(11)" fill="#4bc5a9" fill-rule="evenodd"/><path d="M45,18q0,13.272,2.643,15.2c1.071.781,2.968,1.406,4.029.96q.685-.288,1.219-2.09" transform="translate(-21.325 -8.53)" fill="none" stroke="#301913" stroke-width="0.5" fill-rule="evenodd"/><path d="M10,38.81q15.456.536,19.729-1.17l-.3-5.162L12.452,32.12Q13.4,18.81,10.82,15" transform="translate(-4.739 -7.108)" fill="none" stroke="#301913" stroke-width="0.5" fill-rule="evenodd"/></g><g transform="translate(29.294 24.488) rotate(-99)"><g transform="translate(0 0)"><path d="M0,3.532a1.549,1.549,0,0,1,1.142.306A7.152,7.152,0,0,0,3.726,5.733c1.485.508,4.223.145,6.141-.628q1.6-.777-1.311-.5a20.685,20.685,0,0,1-2.4.212Q7.223,3.8,6.993,3.162a.678.678,0,0,0-.9-.388q.236-.985-.453-.958Q5.676.082,4.441.005C3.207-.071,3.33.7,4.363.943A2.971,2.971,0,0,0,2.19.963L.061.865Z" transform="translate(0.404 0)" fill="#ffd3c8"/><path d="M.747,0l.939,3.529L0,3.134Z" transform="translate(0 0.839)" fill="#f1b2a2" fill-rule="evenodd"/></g><path d="M8.242,4.507Q8.074,4.349,7.08,4.4t-3.116.32q1.129-.8.74-1.787-.352-.542-.774-.263.264-1.025-.44-.941Q3.489-.091,2.018,0C.546.1,1.705.72,2.095.812Q.384.476,0,.858" transform="translate(2.596 0.095)" fill="none" stroke="#99776c" stroke-width="0.5" fill-rule="evenodd"/><line x1="0.419" y2="0.532" transform="translate(6.107 2.763)" fill="none" stroke="#99776c" stroke-width="0.5"/><line x1="0.367" y2="0.486" transform="translate(5.718 1.821)" fill="none" stroke="#99776c" stroke-width="0.5"/></g><g transform="translate(29.639 40.472)"><path d="M0,3.544q1.241-.09,1.54-.815C1.84,2,2.066,1.012,4.6.863A7.131,7.131,0,0,0,7.89,0c.3,0,.459,1.753-1.628,2.026S5.123,3.079,5.719,3.079s3.669.352,5.158-1.933q.922-.538.624.539l-.647.987q.174-.044.087.533.33.209.175.466c-.155.257-2.365,2.467-3.56,2.467S2.7,5.844,1.9,6.137a15.424,15.424,0,0,0-1.624.7Z" transform="translate(0.934)" fill="#ffd3c8"/><path d="M18.21,4.686a7.09,7.09,0,0,1-3.039,1.853" transform="translate(-6.256 -2.22)" fill="none" stroke="#99776c" stroke-width="0.5" fill-rule="evenodd"/><path d="M19.007,5.6A10.477,10.477,0,0,1,16.143,7.88" transform="translate(-6.716 -2.655)" fill="none" stroke="#99776c" stroke-width="0.5" fill-rule="evenodd"/><path d="M-.841,6.737.728,9.855l-2.5,1.548Z" transform="translate(1.775 -3.193)" fill="#f1b2a2" fill-rule="evenodd"/></g></g><g transform="translate(388.083 261.435) rotate(180)"><g transform="translate(30.544 0)"><g transform="translate(0 0.001)"><g transform="translate(3.444 1.488)"><path d="M3.111,12.642h7.246V0H3.812Q.023.6,0,1.016q-.021.372,4.573,1.751a1.171,1.171,0,0,1,.794,1.423L3.111,12.642Z" transform="translate(0 0)" fill="#ffd3c8"/><path d="M0,2.793,7.346,0V4.419Z" transform="translate(3.447 6.321)" fill="#f1b2a2" fill-rule="evenodd"/></g><path d="M14,3.835a15.7,15.7,0,0,0-2.587-1.079,8.722,8.722,0,0,0-4.347-.245c-1.7.478-1.15,1.216-2.318.781C1.126,1.943-.279,1.61.045,0L13.5.222a.7.7,0,0,1,.691.714q0,.017,0,.034L14,3.835Z" fill="#061537" fill-rule="evenodd"/></g><g transform="translate(31.098 0)"><g transform="translate(0 0.239)"><path d="M0,13.048,3.764,15.3,4.978,6.288a5.853,5.853,0,0,1,1.03-2.609L8.528.132h0a6.036,6.036,0,0,0-4,.47A18.857,18.857,0,0,0,0,5.089Z" transform="matrix(0.97, 0.242, -0.242, 0.97, 3.701, 0)" fill="#ffd3c8"/><path d="M0,2.793,7.346,0V4.419Z" transform="translate(0.101 7.571)" fill="#f1b2a2" fill-rule="evenodd"/></g><path d="M0,7.81A21.066,21.066,0,0,1,4.484,3.9,5.922,5.922,0,0,1,6.8,3.151a2.473,2.473,0,0,1,1.57.854C10.339,2.984,12.1,3.235,12.625,0H8.047A5.853,5.853,0,0,0,3.879,1.744l-.819.831Q.765,2.517.765,3.413A29.486,29.486,0,0,1,0,7.81Z" transform="translate(1.635)" fill="#061537" fill-rule="evenodd"/></g></g><g transform="translate(24.96 7.81)"><path d="M1.629,67.027Q-.814,61.857.407,49.021T6.3.119h8.648q-.643,39.12-.039,49.611Q18.591,27.268,30.766.036L39.753,0,24.926,62.029,8.876,71.034Z" transform="translate(5.249 2.53)" fill="#0078ee"/><path d="M16.4,67.562q-6.231-1.31-6.231-9.963T14.205,0L6.852,1.283,0,66.549l10.713,4.679Z" transform="translate(0 0.927)" fill="#0a33d8" fill-rule="evenodd" opacity="0.365"/><path d="M.034,52.642A56.21,56.21,0,0,1,.577,42.99Q1.294,37.619,15.5,0l4.713.927Z" transform="translate(20.243)" fill="#0a33d8" fill-rule="evenodd" opacity="0.365"/><path d="M.835,9.156Q1.955,3.2,1.713,1.6A1.618,1.618,0,0,0,0,0" transform="translate(19.941 52.642)" fill="none" stroke="#0a33d8" stroke-width="0.5" fill-rule="evenodd"/></g><g transform="translate(27.97 67.643)"><path d="M0,26.449l7.5-3.936a14.191,14.191,0,0,0,.516-7C7.344,12.7,2.075,9.4,3.144,5.955q6.461,2.2,11.119,0C18.922,3.756,23.9-.9,28.383.154q-1.906,17.914-.35,23.019l7.022,1.446q-2.874,8.533-9.443,10.517a26.932,26.932,0,0,1-8.353,1.08Q3.868,36.453,0,26.449Z" transform="translate(0 2.13)" fill="#ff9378"/><path d="M7.189,24.643q1.5-6.71,5.614-7.273T18.326,19.2q1.976-3.319,5.06-2.961-.355-4.414-3.242-2.8c-2.887,1.614-5.823.662-4.856-.965s1.322-5.1,8.377-7.368q7.055-2.269,10.172,1.542L28.9,0,1.24,5.11,0,13.731Z" transform="translate(0.306 0)" fill="#df775d" fill-rule="evenodd"/><line y1="3.54" x2="0.777" transform="translate(27.751 24.715)" fill="none" stroke="#301913" stroke-width="0.5"/><line x2="0.208" y2="2.358" transform="translate(7.495 24.643)" fill="none" stroke="#301913" stroke-width="0.5"/></g><g transform="translate(46.981 71.676)"><g transform="translate(8.74 3.61)"><path d="M7.3,19.105Q12.742,5.422,12.784.938C12.79.325,10.589.554,10.528,0L2.767,1.743,0,18.535Z" fill="#ffd3c8"/><path d="M1.877,15.593Q1.529,8.664,3.219,5.382c.526-1.021,2.546-1.344,3.6-1.934A6.773,6.773,0,0,0,9.91,0L0,3.449Z" transform="translate(2.874 3.249)" fill="#f1b2a2" fill-rule="evenodd"/></g><rect width="11.453" height="19.899" transform="translate(2.038 2.62)" fill="#230d99"/><rect width="10.284" height="18.026" transform="translate(2.632 3.557)" fill="none" stroke="#fff" stroke-width="0.5"/><g transform="translate(0 0)"><path d="M21.461,1.155C18.4-2.209,8.758,2.545,5.031,5.609Q.261,7.29.05,8.318C-.16,9.346.358,9.464.358,9.464a1.282,1.282,0,0,0-.145,1.3q-.319,1.127.04,1.367-.293,1.39,1.784,1.543-.234-.867.211-1.163c.446-.3,2.544-.662,2.544-.168s-1.322,1.719-.746,2.548.933-1.108,1.987-1.828A4.25,4.25,0,0,0,7.993,9.151Q8,7.922,13.2,7.649c2.752-.144,5.618-.226,7.077-1.483C21.58,5.049,22.9,2.74,21.461,1.155Z" transform="translate(0 2.379)" fill="#ffd3c8"/><path d="M1.337,7.988q12.936-6.331,17.208-3.3T17.249,0L0,4.689Z" transform="translate(3.694)" fill="#f1b2a2" fill-rule="evenodd"/><path d="M0,4.451A8.016,8.016,0,0,1,4.982,3.134c3.286,0,7.174-.472,8.627-3.134" transform="translate(8.029 6.859)" fill="none" stroke="#99776c" stroke-width="0.5" fill-rule="evenodd"/><path d="M0,.639Q.16.138,1.092,0" transform="translate(0.254 13.87)" fill="none" stroke="#99776c" stroke-width="0.5" fill-rule="evenodd"/><path d="M0,.572A1.869,1.869,0,0,1,1.132,0" transform="translate(0.213 12.57)" fill="none" stroke="#99776c" stroke-width="0.5" fill-rule="evenodd"/><path d="M0,.577A2.139,2.139,0,0,1,1.18,0" transform="translate(0.358 11.266)" fill="none" stroke="#99776c" stroke-width="0.5" fill-rule="evenodd"/></g></g><g transform="translate(34.293 101.907)"><g transform="translate(5.877 0)"><path d="M12.125,15.378q3.481-8.507-1.7-9.265Q7.694,4.769,7.951,4.568a19.618,19.618,0,0,1,3.139-.982A5.482,5.482,0,0,0,5.212.014Q.929.248,0,3.761q.927.13,1.356.179c1.146.131,1.905.241,1.905.628A11.173,11.173,0,0,1,2.8,8.75,22.164,22.164,0,0,1,.919,12.3,58.254,58.254,0,0,0,4.888,16.76q1.756,1.745,4.991.578a6.119,6.119,0,0,0,1.765-.833A1.635,1.635,0,0,0,12.125,15.378Z" transform="translate(0 0)" fill="#ffd3c8"/><path d="M2.261,1.6A4.583,4.583,0,0,0,0,3.023Q.592-.132,2.653.006T2.261,1.6Z" transform="translate(5.226 4.593)" fill="#f1b2a2" fill-rule="evenodd"/></g><path d="M0,0A1.54,1.54,0,0,0,1.689,0" transform="translate(13.089 12.871)" fill="none" stroke="#061537" stroke-linecap="round" stroke-width="0.5" fill-rule="evenodd"/><path d="M0,.193A1.241,1.241,0,0,0,1.166,0" transform="translate(16.481 12.749)" fill="none" stroke="#061537" stroke-linecap="round" stroke-width="0.5" fill-rule="evenodd"/><path d="M16.879,11.727A7.184,7.184,0,0,0,9.5,7.906q-1.045.582-1.268-.187c-.223-.769.206-1.116,1-1.423L9.138.05Q8.4.05,7.2.075A7.181,7.181,0,0,0,5.168.364l.312,1.548L4.234.758A28.906,28.906,0,0,0,0,2.993,12.732,12.732,0,0,1,4.234,8.225c1.2,2.912,2.846,8.1,7.261,8.525s7.141-1.925,7.722-5.563S20.383.482,22.205.172Q17.924.1,17.466.069q-.368-.021-.66,1.356L16.14,0,13.792.05l-.428,1.629q4.745-.1,4.578,7.851a3.135,3.135,0,0,0-.878,1.081A2.284,2.284,0,0,0,16.879,11.727Z" transform="translate(0 4.518)" fill="#061537" fill-rule="evenodd"/><path d="M.614,2.258A1.044,1.044,0,0,1,.768,1.1C1.207.518,1.207-.2,0,.054" transform="translate(15.274 9.968)" fill="none" stroke="#9d3f28" stroke-linecap="round" stroke-width="0.5" fill-rule="evenodd"/><circle cx="0.526" cy="0.526" r="0.526" transform="translate(13.732 11.427)" fill="#061537"/><path d="M.883.2A.758.758,0,0,1,0,0" transform="translate(13.693 11.985) rotate(-11)" fill="none" stroke="#061537" stroke-width="0.5" fill-rule="evenodd"/><path d="M0,1.742V1.388a1.388,1.388,0,1,1,2.776,0v.354Z" transform="translate(12.753 10.782)" fill="none" stroke="#fff" stroke-width="0.5" fill-rule="evenodd"/><path d="M0,1.742V1.388a1.388,1.388,0,1,1,2.776,0v.354Z" transform="translate(16.259 10.782)" fill="none" stroke="#fff" stroke-width="0.5" fill-rule="evenodd"/><circle cx="0.526" cy="0.526" r="0.526" transform="translate(16.537 11.427)" fill="#061537"/><path d="M.883.2A.758.758,0,0,1,0,0" transform="translate(16.498 11.977) rotate(-10)" fill="none" stroke="#061537" stroke-width="0.5" fill-rule="evenodd"/><line x1="3.225" y2="0.114" transform="translate(9.453 12.542)" fill="none" stroke="#fff" stroke-linecap="round" stroke-width="0.5"/><line x2="0.622" transform="translate(15.608 12.286)" fill="none" stroke="#fff" stroke-width="0.5"/><path d="M1.286,0Q.662-.05,0,.818A4.683,4.683,0,0,1,1.286.531a2.225,2.225,0,0,1,.975.287A1.2,1.2,0,0,0,1.286,0Z" transform="translate(14.141 7.979)" fill="#fff" stroke="#9d3f28" stroke-linecap="round" stroke-width="0.5" fill-rule="evenodd"/></g><g transform="translate(0 77.55) rotate(-9)"><g transform="translate(0 0)"><path d="M13.212,11.1q-1.964,3.026-4.51,2.712C6.084,13.487.506,17,.093,18.035s.694.414.551.689a.542.542,0,0,0,.383.763q.361.044,1.362-1.037-.738,2-.755,2.14c-.017.137.958.118,1.221-.975a1.6,1.6,0,0,1,1.112-1.323c.426.433.595-.05,1.622-.832a3.187,3.187,0,0,1,2.722-.454c-.019.157-2.18,1.594-2.753,2.03s-.444,1.879.678,1.092a21.711,21.711,0,0,1,3.99-1.935q2.089-.086,4.77-3.5,3.681-2.946,5.817-4.365t4.334-2.587h0L24.99,17.894l7.734-2.687Q33.433,3.53,29.65.545T13.321,10.926h0Z" transform="translate(0 4.9)" fill="#ffd3c8"/><path d="M0,18.84q1.864.007,4.335-3.378c2.471-3.385,8.189-14.228,14.955-11.4Q26.056,6.882,16.672,0L3.153,6.1Z" transform="translate(12.87 0) rotate(9)" fill="#f1b2a2" fill-rule="evenodd"/><path d="M3.231,0l.01,12.312L0,13.746.937,2.031Z" transform="translate(23.648 11.039)" fill="#f1b2a2" fill-rule="evenodd"/></g><path d="M7.255.513c-1.712,1.22-2.187.478-4.1.723S1.084,3.177.648,3.632q-.436.455-.559.2Q-.438,2.416,2.167,0" transform="translate(4.412 19.457) rotate(7)" fill="none" stroke="#99776c" stroke-width="0.5" fill-rule="evenodd"/><line y1="3.065" x2="4.043" transform="translate(0.997 20.512) rotate(7)" fill="none" stroke="#99776c" stroke-width="0.5"/><path d="M0,1.48A11.452,11.452,0,0,1,.85.619,7.631,7.631,0,0,1,1.7,0" transform="translate(2.37 22.132) rotate(7)" fill="none" stroke="#99776c" stroke-width="0.5" fill-rule="evenodd"/><path d="M0,10.15Q8.14,4.224,10.135,3.379,12.667,1.557,12.837,0" transform="translate(15.01 9.264)" fill="none" stroke="#99776c" stroke-width="0.5" fill-rule="evenodd"/></g></g><g transform="translate(388.345 155.836)"><path d="M46.279,9.008q-8.648,14.041-6.934,39.716" transform="translate(-18.511 -4.269)" fill="none" stroke="#000" stroke-width="0.5" fill-rule="evenodd"/><path d="M53.355,19.514Q41.315,9.651,39.6,52.365" transform="translate(-18.766 -8.371)" fill="none" stroke="#000" stroke-width="0.5" fill-rule="evenodd"/><path d="M18.834,10.546q16.809-11.638,11.2,37.388" transform="translate(-8.925 -3.94)" fill="none" stroke="#000" stroke-width="0.5" fill-rule="evenodd"/><path d="M20.9,39.875q11.712-4.4,10.316,22.229" transform="translate(-9.906 -18.601)" fill="none" stroke="#000" stroke-width="0.5" fill-rule="evenodd"/><path d="M39.456,20.663q5.7,12.481.872,31.927" transform="translate(-18.698 -9.792)" fill="none" stroke="#000" stroke-width="0.5" fill-rule="evenodd"/><path d="M42.23,111.4l-.32,2.049-3.142,2.886-22.933-.446v-1.469Z" transform="translate(-7.504 -52.789)" fill="#607385" fill-rule="evenodd"/><path d="M21.338,111.4l-5.5,3,22.414.528L42.23,111.4Z" transform="translate(-7.504 -52.789)" fill="#91adc8" fill-rule="evenodd"/><g transform="translate(0 2.839)"><path d="M9.83,3.771c-.357-.494-.052-.908.588-1S11.948.6,8.965.091,5.487,1.364,4.852,1.364A4.811,4.811,0,0,0,1.594,4.287C.788,6.623,2,9.344,1.238,10.625.849,11.279-2,16.8,2.545,15.348s4.624-1.833,6.093-1.441,6.7-.991,8.392-4.564.751-6.534-1.585-6.828-3.342.066-3.969.675S10.187,4.265,9.83,3.771Z" transform="translate(0 0)" fill="#009c58"/><path d="M10.223,7.353Q3,13.267.662,18.718" transform="translate(-0.314 -3.485)" fill="none" stroke="#000" stroke-width="0.5" fill-rule="evenodd"/><path d="M10.486,14.815a7.475,7.475,0,0,1,.3,6.4" transform="translate(-4.969 -7.021)" fill="none" stroke="#000" stroke-width="0.5" fill-rule="evenodd"/><path d="M5.864,16.806a2.3,2.3,0,0,0-2.987.825" transform="translate(-1.363 -7.864)" fill="none" stroke="#000" stroke-width="0.5" fill-rule="evenodd"/><path d="M15.722,10.066Q19,13.417,17.359,18.647" transform="translate(-7.45 -4.77)" fill="none" stroke="#000" stroke-width="0.5" fill-rule="evenodd"/><path d="M8.023,11.778a6.214,6.214,0,0,0-5.519,0" transform="translate(-1.187 -5.275)" fill="none" stroke="#000" stroke-width="0.5" fill-rule="evenodd"/><path d="M17.638,8.4q5.589,1.437,7.528,5.35" transform="translate(-8.358 -3.979)" fill="none" stroke="#000" stroke-width="0.5" fill-rule="evenodd"/><path d="M13,5.832Q12.454,3.09,8.555,2.664" transform="translate(-4.054 -1.262)" fill="none" stroke="#000" stroke-width="0.5" fill-rule="evenodd"/></g><g transform="translate(5.917 42.798)"><path d="M.088.148h26.4L20.946,16.161q-.77,1.077-7.176.956t-7.96-.956Z" transform="translate(2.326 1.508)" fill="#ffcf57"/><path d="M17.968-.607Q6.906.008,7.243,6.408c.337,6.4,10.021,3.45,11.7,8.706q1.68,5.256-19.452,2.168L-4.5-3,17-2.3Z" transform="translate(4.5 3)" fill="#db9601" fill-rule="evenodd" opacity="0.379"/><path d="M-3.351,2.129a65.732,65.732,0,0,0,31.113-.581" transform="translate(3.955 0.845)" fill="none" stroke="#fff" stroke-width="0.5" fill-rule="evenodd"/></g><ellipse cx="13.198" cy="1.564" rx="13.198" ry="1.564" transform="translate(8.331 42.798)" fill="#a17101"/><ellipse cx="11.26" cy="1.196" rx="11.26" ry="1.196" transform="translate(10.361 42.798)" fill="#2e1e00"/><g transform="translate(13.652 6.943)"><path d="M7.467,2.853c.083.65,0,1.132-.744,1.1S5.743,2.824,6.035,1.92,5.022-.529,2.345.523s-3.753,6.384.556,9.954S7.208,17.3,7.863,17.3s.594-3.278,3.935-6.128S14.586,2.892,11.94.939,7.12.573,7.011,1.281,7.384,2.2,7.467,2.853Z" transform="translate(0 0)" fill="#7cc08f"/><path d="M13.176,7.466a53.7,53.7,0,0,1,.931,13.374" transform="translate(-6.244 -3.538)" fill="none" stroke="#000" stroke-width="0.5" fill-rule="evenodd"/><path d="M12.428,16.825q-1.514.8-2.368,4.054" transform="translate(-4.767 -7.973)" fill="none" stroke="#000" stroke-width="0.5" fill-rule="evenodd"/><path d="M14.171,13.173a6.776,6.776,0,0,1,4.886,3.684" transform="translate(-6.715 -6.242)" fill="none" stroke="#000" stroke-width="0.5" fill-rule="evenodd"/><path d="M8.94,9.735q-3.906.04-5.232,4.455" transform="translate(-1.757 -4.613)" fill="none" stroke="#000" stroke-width="0.5" fill-rule="evenodd"/><path d="M13.415,6.856q3.653-2.178,6.675-.566" transform="translate(-6.357 -2.656)" fill="none" stroke="#000" stroke-width="0.5" fill-rule="evenodd"/><path d="M7.364,8.374Q2.919,5.934.646,10.32" transform="translate(-0.306 -3.555)" fill="none" stroke="#000" stroke-width="0.5" fill-rule="evenodd"/></g><g transform="translate(30.185 7.833)"><path d="M3.8,2.7Q0,1.65,0,6.6c0,4.952,6.9,6.4,8.781,7.917s1.469,3.472,2.674,3.022,3.972-9.031,0-11.773Q10.307.333,7.113.028T3.8,2.7Z" transform="translate(0 0)" fill="#009c58"/><path d="M7.126,5.1a16.525,16.525,0,0,1,7.382,14.921" transform="translate(-3.377 -2.418)" fill="none" stroke="#000" stroke-width="0.5" fill-rule="evenodd"/><path d="M16.487,14.414a6.975,6.975,0,0,1,4.846,2.562" transform="translate(-7.813 -6.831)" fill="none" stroke="#000" stroke-width="0.5" fill-rule="evenodd"/><path d="M14.624,12.726Q13.2,14.6,15.45,20.549" transform="translate(-6.669 -6.031)" fill="none" stroke="#000" stroke-width="0.5" fill-rule="evenodd"/><path d="M10.11,9.176q-3.668,2.624-.946,7.9" transform="translate(-3.793 -4.348)" fill="none" stroke="#000" stroke-width="0.5" fill-rule="evenodd"/><path d="M13.459,9.806q1.742-1.7,4.349,0" transform="translate(-6.378 -4.244)" fill="none" stroke="#000" stroke-width="0.5" fill-rule="evenodd"/><path d="M6.107,6.523Q1.892,7.847,3.2,13.556" transform="translate(-1.369 -3.091)" fill="none" stroke="#000" stroke-width="0.5" fill-rule="evenodd"/><path d="M10.29,4.678Q10.271,1.1,14.131,1.7" transform="translate(-4.876 -0.767)" fill="none" stroke="#000" stroke-width="0.5" fill-rule="evenodd"/></g><g transform="translate(4.965 17.842)"><path d="M5.939,2.048c.752-.724.007-2.574-2.476-1.9S-.492,3.4.151,6.818A4.491,4.491,0,0,0,.785,8.451c.385.525-.167,2.308.155,3.538S2.58,14.543,3.628,13.5a5.576,5.576,0,0,1,3.814-1.879c1.642-.086,5.14-2.666,4.557-5.827s-3.43-4.7-4.321-4.069S7.345,3.316,6.664,3.475A.823.823,0,0,1,5.939,2.048Z" transform="translate(0 0)" fill="#009c58"/><path d="M8.018,6.523A13.735,13.735,0,0,0,4.213,16.781" transform="translate(-1.986 -3.091)" fill="none" stroke="#000" stroke-width="0.5" fill-rule="evenodd"/><path d="M6.872,13.187a6.378,6.378,0,0,1,1.477,5.4" transform="translate(-3.256 -6.249)" fill="none" stroke="#000" stroke-width="0.5" fill-rule="evenodd"/><path d="M3.821,15.548a2.062,2.062,0,0,0-2.013.667" transform="translate(-0.857 -7.361)" fill="none" stroke="#000" stroke-width="0.5" fill-rule="evenodd"/><path d="M9.4,9.109q4.381,1.87,3.349,6.6" transform="translate(-4.453 -4.317)" fill="none" stroke="#000" stroke-width="0.5" fill-rule="evenodd"/><path d="M11.011,7.165q4.944.788,6.271,3.605" transform="translate(-5.218 -3.395)" fill="none" stroke="#000" stroke-width="0.5" fill-rule="evenodd"/><path d="M4.314,10.108Q1.815,8.634,0,10" transform="translate(0 -4.427)" fill="none" stroke="#000" stroke-width="0.5" fill-rule="evenodd"/><path d="M6.5,5.533A3.742,3.742,0,0,0,2.174,3.066" transform="translate(-1.03 -1.428)" fill="none" stroke="#000" stroke-width="0.5" fill-rule="evenodd"/></g><g transform="translate(22.549 0)"><path d="M2.733,5.985c.929-.547,1.817-1.351,2.2-.909S4.372,6,4.729,6.619s4.72,1.615,6.506.324,2.908-4.261,1.848-4.676-.98-.414-1.06-.9S10.414-.235,8.458.044s-2.083,1.1-3.855,1.2S-.082,2.268,0,4.224A1.84,1.84,0,0,0,2.733,5.985Z" transform="translate(0 0)" fill="#7cc08f"/><path d="M9.141,5.089Q12.125,1.038,14.487.271" transform="translate(-4.332 -0.129)" fill="none" stroke="#000" stroke-width="0.5" fill-rule="evenodd"/><path d="M12.824,4.009a8.258,8.258,0,0,0,5.294-1.114" transform="translate(-6.077 -1.372)" fill="none" stroke="#000" stroke-width="0.5" fill-rule="evenodd"/><path d="M12.35,3.179A1.311,1.311,0,0,1,12.1,1.325" transform="translate(-5.604 -0.628)" fill="none" stroke="#000" stroke-width="0.5" fill-rule="evenodd"/><path d="M10.34,7.589q6,1.29,7.958-.394" transform="translate(-4.9 -3.41)" fill="none" stroke="#000" stroke-width="0.5" fill-rule="evenodd"/><path d="M9.5,9.008q4.012,2.725,7.044,1.473" transform="translate(-4.5 -4.269)" fill="none" stroke="#000" stroke-width="0.5" fill-rule="evenodd"/><path d="M9.489,4.939q-1.759-1.108-1.54-2.5" transform="translate(-3.756 -1.154)" fill="none" stroke="#000" stroke-width="0.5" fill-rule="evenodd"/><path d="M5.539,7.233Q.845,7.689,1.166,5.262" transform="translate(-0.543 -2.494)" fill="none" stroke="#000" stroke-width="0.5" fill-rule="evenodd"/></g><line x1="6.737" y2="42.828" transform="translate(20.329 62.921)" fill="none" stroke="#607385" stroke-width="1"/><line x1="9.562" y2="42.828" transform="translate(5.666 62.921)" fill="none" stroke="#607385" stroke-width="1"/><line x1="10.481" y1="42.828" transform="translate(38.436 105.749) rotate(180)" fill="none" stroke="#607385" stroke-width="1"/><line x1="7.772" y1="42.828" transform="translate(23.697 105.749) rotate(180)" fill="none" stroke="#607385" stroke-width="1"/><line x2="13.69" y2="0.597" transform="translate(7.562 97.804)" fill="none" stroke="#607385" stroke-width="1"/><line x2="12.902" y2="0.167" transform="translate(10.795 82.81)" fill="none" stroke="#607385" stroke-width="1"/><line x2="12.381" transform="translate(13.868 69.038)" fill="none" stroke="#607385" stroke-width="1"/><line x1="12.326" transform="translate(17.267 70.129)" fill="none" stroke="#607385" stroke-width="1"/><line x1="13.298" transform="translate(19.898 83.808)" fill="none" stroke="#607385" stroke-width="1"/><line x1="14.069" y1="0.092" transform="translate(21.888 96.172)" fill="none" stroke="#607385" stroke-width="1"/></g></g></g></svg>