<svg xmlns="http://www.w3.org/2000/svg" xmlns:xlink="http://www.w3.org/1999/xlink" width="54.55" height="54.55" viewBox="0 0 54.55 54.55"><defs><linearGradient id="a" x1="0.5" x2="0.5" y2="1" gradientUnits="objectBoundingBox"><stop offset="0" stop-color="#ff006c"/><stop offset="1" stop-color="#c90055"/></linearGradient><filter id="b" x="0" y="0" width="54.55" height="54.55" filterUnits="userSpaceOnUse"><feOffset dy="2" input="SourceAlpha"/><feGaussianBlur stdDeviation="3" result="c"/><feFlood flood-color="#dbe3ff"/><feComposite operator="in" in2="c"/><feComposite in="SourceGraphic"/></filter></defs><g transform="translate(-556 -1967)"><g transform="matrix(1, 0, 0, 1, 556, 1967)" filter="url(#b)"><path d="M9.4,0H27.151a9.4,9.4,0,0,1,9.4,9.4V27.151a9.4,9.4,0,0,1-9.4,9.4H9.4a9.4,9.4,0,0,1-9.4-9.4V9.4A9.4,9.4,0,0,1,9.4,0Z" transform="translate(9 7)" fill="url(#a)"/></g><g transform="translate(571 1977.997)"><path d="M3.3,15.457H20.638a2,2,0,0,1,2,2v1.517a3.584,3.584,0,0,1-2.1.982c-.8.02-1.557-.492-2.276-1.6h0a.571.571,0,0,0-.148-.155.59.59,0,0,0-.827.13,3.234,3.234,0,0,1-2.238,1.591,3.573,3.573,0,0,1-2.613-1.5c-.013-.013-.025-.027-.04-.04a.593.593,0,0,0-.838.04,3.809,3.809,0,0,1-2.553,1.526,3.1,3.1,0,0,1-2.337-1.49h0a.66.66,0,0,0-.128-.121.594.594,0,0,0-.827.144,3.21,3.21,0,0,1-1.98,1.44,2.878,2.878,0,0,1-1.6-.229c-1.18-.483-.75-.759-.829-2.231a1.974,1.974,0,0,1,2-2ZM16.293,2.034l-.119.124-.124.128-.128-.126c-.038-.036-.076-.074-.112-.112a1.738,1.738,0,0,0-1.3-.7h-.076a1.373,1.373,0,0,0-.894.346,1.211,1.211,0,0,0-.386.879v.072c.027,1.027,1,1.932,1.809,2.681.155.144.306.283.449.425l.6.584.762-.741c.124-.119.261-.249.409-.389.252-.238.533-.5.793-.766.186-.191.366-.382.517-.566a3.142,3.142,0,0,0,.351-.506A1.29,1.29,0,0,0,18.73,1.98a1.536,1.536,0,0,0-.537-.458,1.441,1.441,0,0,0-.816-.155,1.689,1.689,0,0,0-1.085.667Zm-7-.9A1.957,1.957,0,0,1,10.392.1,1.809,1.809,0,0,1,11.421.061a1.876,1.876,0,0,1,.768.4,1.688,1.688,0,0,1,.49.721,1.665,1.665,0,0,1,.027.959,3.3,3.3,0,0,1-.254.643c-.112.225-.249.458-.4.694-.2.324-.418.645-.613.935-.115.169-.22.328-.31.465l-.674,1.036-.094.146-.146-.09-.856-.528c-.157-.1-.337-.2-.524-.31C7.828,4.55,6.608,3.842,6.318,2.7q-.01-.04-.02-.088A1.555,1.555,0,0,1,6.536,1.4a1.746,1.746,0,0,1,1-.676L7.626.7a1.991,1.991,0,0,1,1.667.431ZM0,25.874H23.928v1.739H0V25.874Zm5.617-19.5H18.29a1.465,1.465,0,0,1,1.461,1.461v1.11a2.633,2.633,0,0,1-1.532.717c-.582.016-1.137-.36-1.663-1.171h0a.472.472,0,0,0-.108-.115.432.432,0,0,0-.6.094,2.355,2.355,0,0,1-1.636,1.162A2.605,2.605,0,0,1,12.3,8.541a.358.358,0,0,0-.029-.029.434.434,0,0,0-.613.029A2.779,2.779,0,0,1,9.79,9.655a2.264,2.264,0,0,1-1.708-1.09h0a.381.381,0,0,0-.092-.088.435.435,0,0,0-.6.106A2.33,2.33,0,0,1,5.939,9.635a2.109,2.109,0,0,1-1.173-.169c-.863-.353-.548-.555-.607-1.631A1.433,1.433,0,0,1,5.617,6.377Zm14.133,3.64v.047h-.076l.076-.047Zm-.339.193v4.46H4.516V10.309a2.816,2.816,0,0,0,1.571.182,2.951,2.951,0,0,0,1.66-.975,2.771,2.771,0,0,0,2.047,1.009,3.255,3.255,0,0,0,2.18-1.067A3.091,3.091,0,0,0,14.25,10.5,2.814,2.814,0,0,0,16.173,9.44a2.555,2.555,0,0,0,2.065,1.09,2.723,2.723,0,0,0,1.173-.319Zm3.227,10.224V20.5h-.106c.036-.02.07-.043.106-.065Zm-.463.265V25.37H1.8V20.834a3.885,3.885,0,0,0,2.15.249,4.039,4.039,0,0,0,2.272-1.332,3.793,3.793,0,0,0,2.8,1.38A4.457,4.457,0,0,0,12,19.672,4.232,4.232,0,0,0,15.111,21.1a3.84,3.84,0,0,0,2.631-1.454,3.482,3.482,0,0,0,2.827,1.49,3.8,3.8,0,0,0,1.607-.44Z" fill="#fff" fill-rule="evenodd"/></g></g></svg>