<svg xmlns="http://www.w3.org/2000/svg" width="36" height="36" viewBox="0 0 36 36"><g transform="translate(-340 -281)"><rect width="36" height="36" rx="8" transform="translate(340 281)" fill="#baeaff"/><path d="M3.31,6.977A1.511,1.511,0,0,1,3.7,6.156L6.772,3.079q.359-.308.539.1L9.8,7.849a.672.672,0,0,1-.128.8L8.542,9.772a1.276,1.276,0,0,0-.359.8,3.915,3.915,0,0,0,.8,1.975,16.864,16.864,0,0,0,1.564,2.052l.8.82c.24.24.547.535.924.885a15.483,15.483,0,0,0,1.859,1.385,4.16,4.16,0,0,0,2.039.859,1.116,1.116,0,0,0,.821-.333l1.334-1.334a.564.564,0,0,1,.769-.1l4.489,2.642a.375.375,0,0,1,.205.269.328.328,0,0,1-.1.295L20.6,23.057a1.507,1.507,0,0,1-.82.384,6.2,6.2,0,0,1-2.835-.346,12.825,12.825,0,0,1-2.923-1.4q-1.346-.872-2.5-1.769T9.672,18.389l-.667-.642q-.256-.256-.68-.705T6.849,15.273A25.756,25.756,0,0,1,5.029,12.7,15.035,15.035,0,0,1,3.7,9.836,6.083,6.083,0,0,1,3.31,6.977Z" transform="translate(344.733 286.053)" fill="#37b9f4"/></g></svg>