<svg xmlns="http://www.w3.org/2000/svg" xmlns:xlink="http://www.w3.org/1999/xlink" width="54.55" height="54.55" viewBox="0 0 54.55 54.55"><defs><linearGradient id="a" x1="0.5" x2="0.5" y2="1" gradientUnits="objectBoundingBox"><stop offset="0" stop-color="#ff5539"/><stop offset="1" stop-color="#d02e14"/></linearGradient><filter id="b" x="0" y="0" width="54.55" height="54.55" filterUnits="userSpaceOnUse"><feOffset dy="2" input="SourceAlpha"/><feGaussianBlur stdDeviation="3" result="c"/><feFlood flood-color="#dbe3ff"/><feComposite operator="in" in2="c"/><feComposite in="SourceGraphic"/></filter></defs><g transform="translate(-322 -1425)"><g transform="matrix(1, 0, 0, 1, 322, 1425)" filter="url(#b)"><path d="M9.4,0H27.151a9.4,9.4,0,0,1,9.4,9.4V27.151a9.4,9.4,0,0,1-9.4,9.4H9.4a9.4,9.4,0,0,1-9.4-9.4V9.4A9.4,9.4,0,0,1,9.4,0Z" transform="translate(9 7)" fill="url(#a)"/></g><g transform="translate(334.001 1442)"><path d="M16.67,0h8.479c.1,0,.133.087.174.174L26,1.587c.041.087-.079.174-.174.174H14.3C13.541,1.764,14.83,0,16.67,0ZM6.09,11.692v.956h.956a1.311,1.311,0,0,0-.956-.956Zm.956,1.582H6.09v.956a1.307,1.307,0,0,0,.956-.956Zm-1.58.956v-.956H4.51a1.307,1.307,0,0,0,.956.956Zm-.959-1.58h.956v-.956a1.315,1.315,0,0,0-.956.956Zm18.509-.959v.956h.956a1.311,1.311,0,0,0-.956-.956Zm.956,1.582h-.956v.956a1.307,1.307,0,0,0,.956-.956Zm-1.58.956v-.956h-.956a1.3,1.3,0,0,0,.956.956Zm-.959-1.58h.956v-.956a1.307,1.307,0,0,0-.956.956Zm1.483-9.386h.9c1.3.059,1.833.013,2.349.406.639.488.89,2.646,1.155,3.643.018.066-.059.128-.128.128H23.229a.133.133,0,0,1-.128-.128L22.79,3.389a.126.126,0,0,1,.128-.125Zm-6.025.023h-2.94c-1.342,0-3.551,2.206-4.128,3.99-.028.087.074.166.166.166h6.436a.175.175,0,0,0,.166-.166l.468-3.824a.165.165,0,0,0-.169-.166Zm1.273-.015h3.6a.133.133,0,0,1,.128.128l.274,3.916a.127.127,0,0,1-.128.128H17.7a.125.125,0,0,1-.128-.128L18.038,3.4a.132.132,0,0,1,.128-.128ZM5.778,10.3A2.658,2.658,0,1,1,3.12,12.962,2.66,2.66,0,0,1,5.778,10.3Zm-5.317.12a1.025,1.025,0,0,1,.445-.087,6.181,6.181,0,0,1,.243-2.088,1.284,1.284,0,0,1,.376-.675c.547-.488,5.432-.918,6.462-1.051a35.161,35.161,0,0,1,4.174-3.441,2.77,2.77,0,0,1,1.764-.544l11.863-.01a2.107,2.107,0,0,1,2.027,1.24l.989,2.85.225-.061V5.447c-.041-.371.1-.555.389-.6h1.329c.366.015.624.2.665.729V9.517c0,.406-.146.672-.521.729H29.656c-.123.028-.084.123-.095.253v1.345c-.089.992-.36,1.759-1.155,1.858H26a4.3,4.3,0,0,0-.7-2.832c-1.94-2.592-6.15-1.048-5.866,2.84H9.094a4.131,4.131,0,0,0-.662-2.863C6.5,8.292,2,9.67,2.527,13.788H.929c-.964,0-1.278-3-.468-3.364Zm22.244-.12a2.658,2.658,0,1,1-2.658,2.658A2.66,2.66,0,0,1,22.705,10.3Z" transform="translate(0)" fill="#fff" fill-rule="evenodd"/></g></g></svg>