<svg xmlns="http://www.w3.org/2000/svg" xmlns:xlink="http://www.w3.org/1999/xlink" width="54.55" height="54.55" viewBox="0 0 54.55 54.55"><defs><linearGradient id="a" x1="0.5" x2="0.54" y2="0.768" gradientUnits="objectBoundingBox"><stop offset="0" stop-color="#926fff"/><stop offset="1" stop-color="#5d37fa"/></linearGradient><filter id="b" x="0" y="0" width="54.55" height="54.55" filterUnits="userSpaceOnUse"><feOffset dy="2" input="SourceAlpha"/><feGaussianBlur stdDeviation="3" result="c"/><feFlood flood-color="#dbe3ff"/><feComposite operator="in" in2="c"/><feComposite in="SourceGraphic"/></filter></defs><g transform="translate(-322.45 -1064)"><g transform="translate(331.45 1071)"><g transform="matrix(1, 0, 0, 1, -9, -7)" filter="url(#b)"><path d="M9.4,0H27.151a9.4,9.4,0,0,1,9.4,9.4V27.151a9.4,9.4,0,0,1-9.4,9.4H9.4a9.4,9.4,0,0,1-9.4-9.4V9.4A9.4,9.4,0,0,1,9.4,0Z" transform="translate(9 7)" fill="url(#a)"/></g></g><g transform="translate(337.965 1076.596)"><g transform="translate(-0.002 -0.003)"><path d="M18.739,9.413a.957.957,0,0,1-.141.225.936.936,0,0,0,.523.2.69.69,0,0,0,.371-.371.361.361,0,0,1,.173-.173.256.256,0,0,1,.2.026l.141.026q.371.084.424.173a1.229,1.229,0,0,1,.084.455.314.314,0,0,0,.026.141q.026.084.084.084a2.2,2.2,0,0,0,.282.115l.34.084v-.282Q21.13,8.545,21.1,7.787a1.47,1.47,0,0,0-.026-.371.3.3,0,0,0-.026-.173.361.361,0,0,0-.173-.084,3.661,3.661,0,0,0-.371-.115.455.455,0,0,0-.225,0,.722.722,0,0,0-.173.173q-.282.455-.711,1.109-.455.737-.68,1.077m1.193-.654.523-.879h.026V8.916l-.57-.141m-2.715-5.6A3.075,3.075,0,0,0,16.3.909,3.138,3.138,0,0,0,14,0H3.137A3.018,3.018,0,0,0,1.762.281,3.238,3.238,0,0,0,.454,1.416,3.039,3.039,0,0,0,0,3.095Q0,4.742,0,7.128V19.079a4.576,4.576,0,0,0,.058.8,3.034,3.034,0,0,0,1.077,1.731,3.248,3.248,0,0,0,1.93.654H14.079a2.94,2.94,0,0,0,1.569-.424,3.044,3.044,0,0,0,1.506-2.756V3.179m-2.307-.853a1.135,1.135,0,0,1,.319.879V19.053a1.135,1.135,0,0,1-.314.879,1.156,1.156,0,0,1-.853.282H3.179a1.046,1.046,0,0,1-1.166-1.166V3.137a1.213,1.213,0,0,1,.173-.68,1.046,1.046,0,0,1,.523-.4,2.662,2.662,0,0,1,.429-.016H14a1.156,1.156,0,0,1,.853.282M4.968,16.835a.162.162,0,0,1-.115.026H4.6a1.046,1.046,0,0,1-.455-.058,1.1,1.1,0,0,1-.225-.424.445.445,0,0,0-.084-.115.089.089,0,0,0-.084-.052,1.192,1.192,0,0,0-.282-.026h-.33a.994.994,0,0,0,.084.282l.34,1.109.34,1.109a3.577,3.577,0,0,1,.115.34.2.2,0,0,0,.084.141.879.879,0,0,0,.173.058h.382a.465.465,0,0,0,.256-.058.324.324,0,0,0,.115-.225q.141-.4.34-1.046.314-.994.34-1.046l.225-.68H5.475a.356.356,0,0,0-.282.058.649.649,0,0,0-.115.256l-.052.251a.309.309,0,0,1-.058.115M4.544,18.42H4.487l-.256-.994h.6l-.282.994M8.436,6.238l-.523.4q-.34.282-.523.424-.769.654-1.308,1.193A9.028,9.028,0,0,0,4.91,9.622a4.488,4.488,0,0,0-.6,1.077,2.5,2.5,0,0,0-.131,1.224,2.029,2.029,0,0,0,.711,1.391,2.176,2.176,0,0,0,1.308.523,2.134,2.134,0,0,0,1.365-.371,3.107,3.107,0,0,1,.314-.2l.314-.225.058.026L7.259,16.05a11.4,11.4,0,0,0,2.783,0q-.34-.711-.622-1.475A9.208,9.208,0,0,1,9,13.043l.622.455a2,2,0,0,0,1.308.34,2.244,2.244,0,0,0,1.193-.4,2.035,2.035,0,0,0,.821-1.135,2.286,2.286,0,0,0,0-1.334,4.906,4.906,0,0,0-.424-.994,9.6,9.6,0,0,0-.622-.853,16.266,16.266,0,0,0-1.506-1.532A19.844,19.844,0,0,0,8.713,6.228a.277.277,0,0,0-.141-.058.445.445,0,0,0-.115.084m3.776-3.138a.607.607,0,0,0-.115.2q-.256.853-.8,2.558a.466.466,0,0,1-.026.115V6.1h.481a.23.23,0,0,0,.173-.058.2.2,0,0,0,.084-.141.9.9,0,0,0,.058-.256.612.612,0,0,1,.115-.2.466.466,0,0,1,.256-.058,2.3,2.3,0,0,1,.282.026H12.8a.356.356,0,0,1,.256.026.324.324,0,0,1,.115.225,1.088,1.088,0,0,0,.141.371.858.858,0,0,0,.4.058h.058A.471.471,0,0,0,14,6.071a1.27,1.27,0,0,0-.026-.225Q13.488,4.4,13.232,3.6l-.157-.366a.361.361,0,0,0-.084-.173.4.4,0,0,0-.173-.026h-.4a.4.4,0,0,0-.225.058m.424.737.256.994h-.554l.23-.994h.058m9.713,2.615a1.119,1.119,0,0,1,.711.481,1.088,1.088,0,0,1,.058.853l-4.069,15.5a1,1,0,0,1-1.308.774q-.91-.256-1.365-.371-.853-.225-1.308-.314a5.231,5.231,0,0,0-1.365-.141q-1.308.026-3.18.026-2.092-.026-3.138-.026H7.133l-.026.058.256.084a1.109,1.109,0,0,0,.225.084l9.6,2.558a3.1,3.1,0,0,0,2.327-.282,2.976,2.976,0,0,0,1.449-1.815q.173-.57.4-1.417.225-.968.371-1.449L25.068,8.367a3.065,3.065,0,0,0-.256-2.359,2.777,2.777,0,0,0-1.8-1.438q-.936-.282-2.328-.654l-2.343-.6-.173-.026V5.166a.23.23,0,0,0,.058.173.2.2,0,0,0,.141.084q1.9.481,3.975,1.051Z" transform="translate(0.002 0.003)" fill="#fff"/></g></g></g></svg>