<svg xmlns="http://www.w3.org/2000/svg" xmlns:xlink="http://www.w3.org/1999/xlink" width="54.55" height="54.55" viewBox="0 0 54.55 54.55"><defs><linearGradient id="a" x1="0.5" x2="0.5" y2="1" gradientUnits="objectBoundingBox"><stop offset="0" stop-color="#ff006c"/><stop offset="1" stop-color="#c90055"/></linearGradient><filter id="b" x="0" y="0" width="54.55" height="54.55" filterUnits="userSpaceOnUse"><feOffset dy="2" input="SourceAlpha"/><feGaussianBlur stdDeviation="3" result="c"/><feFlood flood-color="#dbe3ff"/><feComposite operator="in" in2="c"/><feComposite in="SourceGraphic"/></filter></defs><g transform="translate(-775 -2032)"><g transform="matrix(1, 0, 0, 1, 775, 2032)" filter="url(#b)"><path d="M9.4,0H27.151a9.4,9.4,0,0,1,9.4,9.4V27.151a9.4,9.4,0,0,1-9.4,9.4H9.4a9.4,9.4,0,0,1-9.4-9.4V9.4A9.4,9.4,0,0,1,9.4,0Z" transform="translate(9 7)" fill="url(#a)"/></g><g transform="translate(787 2043.96)"><path d="M29.822,34.759a2.8,2.8,0,0,0,1.084.419V32.595a1.3,1.3,0,0,1-1.421,0,2.574,2.574,0,0,0,2.684-1.928A2.279,2.279,0,0,0,28.88,32.34a2.7,2.7,0,0,0,.942,2.42Z" transform="translate(-20.396 -23.828)" fill="#fff"/><path d="M64.254,32.2a1.3,1.3,0,0,1-1.421,0v2.587a2.8,2.8,0,0,0,1.071-.422,2.7,2.7,0,0,0,.945-2.423,2.279,2.279,0,0,0-3.289-1.673A2.574,2.574,0,0,0,64.254,32.2Z" transform="translate(-42.796 -23.554)" fill="#fff"/><path d="M6.672,60.17a4.672,4.672,0,1,0,4.672,4.672A4.672,4.672,0,0,0,6.672,60.17Zm.29,3.853a5.39,5.39,0,0,0,.268-1.484C7.2,62.1,7.063,61.279,7,60.907a3.929,3.929,0,0,1,2.224.923c-.315.224-.992.7-1.32.989a5.39,5.39,0,0,0-.86,1.238l-.082.082ZM6.379,60.9v.072A5.894,5.894,0,0,0,6.127,62.6c.038.372.164,1.018.252,1.437v.1L6.3,64.054a5.391,5.391,0,0,0-.86-1.238,16,16,0,0,0-1.32-.989A3.929,3.929,0,0,1,6.379,60.9ZM3.685,62.265l.047.057a5.894,5.894,0,0,0,.97,1.326c.29.239.838.6,1.194.838l.069.069H5.947a6.065,6.065,0,0,0-1.667-.261c-.391.038-1.077.176-1.49.261H2.737a3.929,3.929,0,0,1,.948-2.29Zm0,5.154a3.929,3.929,0,0,1-.945-2.287h0a5.39,5.39,0,0,0,1.465.268c.46-.028,1.342-.183,1.692-.246-.293.2-1.024.718-1.37,1.024a5.39,5.39,0,0,0-.86,1.238Zm2.7-1.856a6.065,6.065,0,0,0-.261,1.667c.038.391.176,1.077.261,1.49v.06A3.929,3.929,0,0,1,4.1,67.835l.041-.041c.353-.23.945-.63,1.238-.866a6.065,6.065,0,0,0,.992-1.364h0Zm.293-.428a.293.293,0,1,1,.293-.293.293.293,0,0,1-.293.293Zm.29,3.645h0A5.39,5.39,0,0,0,7.233,67.3c-.032-.479-.192-1.411-.252-1.73a6.036,6.036,0,0,0,.989,1.361c.315.249.885.63,1.238.866l.041.041a3.929,3.929,0,0,1-2.287.942Zm2.7-1.361h0a5.391,5.391,0,0,0-.86-1.238c-.362-.315-1.14-.863-1.405-1.049h.095a5.39,5.39,0,0,0,1.484.268c.438-.028,1.26-.167,1.632-.233a3.929,3.929,0,0,1-.948,2.249Zm.876-2.867A5.9,5.9,0,0,0,8.912,64.3c-.372.038-1.018.164-1.437.252h-.1l.069-.069c.356-.233.9-.6,1.194-.838a5.9,5.9,0,0,0,.967-1.323l.05-.05a3.929,3.929,0,0,1,.945,2.284Z" transform="translate(-2 -44.198)" fill="#fff"/><path d="M73.012,60.78a4.672,4.672,0,1,0,4.672,4.672A4.672,4.672,0,0,0,73.012,60.78ZM76,62.875a3.932,3.932,0,0,1,.945,2.284h-.069a5.9,5.9,0,0,0-1.626-.252c-.372.038-1.018.164-1.437.252h-.1l.069-.069c.356-.233.9-.6,1.194-.838a5.9,5.9,0,0,0,.97-1.326ZM73.3,64.63a5.39,5.39,0,0,0,.268-1.484c-.028-.438-.167-1.26-.233-1.632a3.929,3.929,0,0,1,2.224.923c-.315.224-.992.7-1.32.989a5.391,5.391,0,0,0-.86,1.238l-.082.082Zm-.583-3.119v.072a5.9,5.9,0,0,0-.252,1.626c.038.372.164,1.018.252,1.437v.1l-.076-.076a5.39,5.39,0,0,0-.86-1.238,16,16,0,0,0-1.32-.989,3.929,3.929,0,0,1,2.259-.923Zm-2.7,1.361.05.05a5.9,5.9,0,0,0,.97,1.326c.29.239.838.6,1.194.838l.069.069h-.019a6.065,6.065,0,0,0-1.667-.261c-.391.038-1.077.176-1.49.261h-.057a3.932,3.932,0,0,1,.951-2.281Zm0,5.154a3.932,3.932,0,0,1-.945-2.287h0a5.39,5.39,0,0,0,1.484.268c.46-.028,1.342-.183,1.692-.246-.293.2-1.024.718-1.37,1.024a5.391,5.391,0,0,0-.86,1.238Zm2.7-1.856a6.064,6.064,0,0,0-.261,1.667c.038.391.176,1.077.261,1.49v.06a3.929,3.929,0,0,1-2.284-.945l.041-.041c.353-.23.945-.63,1.238-.866a6.065,6.065,0,0,0,.992-1.364h0Zm.293-.428a.293.293,0,1,1,.293-.293A.293.293,0,0,1,73.012,65.742Zm.29,3.645h0A5.39,5.39,0,0,0,73.57,67.9c-.031-.479-.192-1.411-.252-1.73a6.04,6.04,0,0,0,.989,1.361c.315.249.885.63,1.238.866l.041.041A3.929,3.929,0,0,1,73.3,69.387ZM76,68.026h0a5.39,5.39,0,0,0-.86-1.238c-.362-.315-1.14-.863-1.405-1.049h.095a5.39,5.39,0,0,0,1.484.268c.438-.028,1.26-.167,1.632-.233A3.932,3.932,0,0,1,76,68.029Z" transform="translate(-47.44 -44.616)" fill="#fff"/><path d="M6.684,41.825c1.229-.135.854-1.808.2-1.673,0,0-.353,0-.365.315s.4.441.5.236a.454.454,0,0,1-.441.554.8.8,0,0,1-.8-.457.9.9,0,0,1,.63-1.194c1.276-.491,2.127,1.04,2.58,2.432s1.074,2.9,1.074,2.9l1.73,1.1C10.238,43.51,9.9,40.782,8.4,39.43a2.03,2.03,0,0,0-3.387.46,1.519,1.519,0,0,0,1.67,1.934Z" transform="translate(-4.022 -29.517)" fill="#fff"/><path d="M39.43,67.177a11.124,11.124,0,0,1-2.807.444,11.124,11.124,0,0,1-2.8-.444,11.411,11.411,0,0,1-3.355-1.714l.189.514.454,1.2a4.168,4.168,0,0,1,1.222,0,7.879,7.879,0,0,0,4.253,1.052h.072a7.752,7.752,0,0,0,4.253-1.052,4.168,4.168,0,0,1,1.222,0l.173-.463a12.364,12.364,0,0,1,.649-1.433A12.255,12.255,0,0,1,39.43,67.177Z" transform="translate(-21.501 -47.698)" fill="#fff"/><path d="M74.079,46.084s.63-1.515,1.074-2.9,1.3-2.924,2.58-2.432a.9.9,0,0,1,.63,1.194.8.8,0,0,1-.8.457.454.454,0,0,1-.441-.554c.1.2.51.079.5-.236s-.365-.315-.365-.315c-.652-.135-1.027,1.537.2,1.673a1.519,1.519,0,0,0,1.667-1.944,2.019,2.019,0,0,0-3.387-.46c-1.5,1.364-1.641,4.2-3.733,6.443Z" transform="translate(-49.947 -30.285)" fill="#fff"/><path d="M30.731,28.855h.047c4.477-.019,7.955-2.747,8.824-8.1A5.385,5.385,0,0,0,34.247,14.1a5.541,5.541,0,0,0-.825.095l.658-1.106a1.632,1.632,0,1,0-2.965-1.352v-.662c.186-.151.315-.435.019-.945,0,0-.18-.476-.372-.529h-.022c-.192.05-.372.529-.372.529-.315.529-.158.813.041.961v.5a1.646,1.646,0,0,0-2.246-.684,1.677,1.677,0,0,0-.63,2.18l.583,1.106a5.52,5.52,0,0,0-.832-.1c-2.1,0-6.232,1.285-5.356,6.654S26.252,28.837,30.731,28.855Zm1.437-1.172a1.852,1.852,0,0,1-2.656,0c-1.052-1.071-1.178-3.409-1.156-4.71a.851.851,0,0,1,.847-.835h3.232a.841.841,0,0,1,.847.825C33.315,24.284,33.211,26.628,32.168,27.683ZM30.394,16.162h.841a1.748,1.748,0,0,1,1.752,1.755v3.528H28.646V17.917a1.748,1.748,0,0,1,1.748-1.755Zm3.535-.085a2.6,2.6,0,0,1,3.588.6,2.684,2.684,0,0,1,.63,1.834,3.056,3.056,0,0,1-3.087,2.93H33.929ZM32.767,14.3c-.164.028-.331.057-.491.079l-.217.025c.23-.441.684-1.323.945-1.956a.977.977,0,0,0-.18-1.122,1.3,1.3,0,0,1,.425.2C34.058,12.089,33.264,13.541,32.767,14.3Zm-.529-2.936a.882.882,0,0,1,.208,1.087l-1.024,2h-.315V12.514a2.552,2.552,0,0,1,1.131-1.153Zm-1.862,1v2.111h-.2l-.967-1.931a.9.9,0,0,1,.261-1.134A2.52,2.52,0,0,1,30.375,12.363Zm-2.051-.835a1.172,1.172,0,0,1,.63-.233.992.992,0,0,0-.315,1.26c.252.592.665,1.408.907,1.871l-.315-.038-.4-.063c-.495-.766-1.292-2.234-.495-2.8Zm-4.19,5.151a2.6,2.6,0,0,1,3.588-.6v5.356H26.595A3.059,3.059,0,0,1,23.5,18.317a2.665,2.665,0,0,1,.633-1.638Z" transform="translate(-15.568 -9.56)" fill="#fff"/><path d="M48.092,51.372c-.227.035-1.468.265-1.468,1.26a.583.583,0,0,0,.243.432.3.3,0,0,0,.239.022.315.315,0,0,0,.186-.158c.025-.057.06-.132-.1-.261a.272.272,0,1,1,.331-.432.721.721,0,0,1,.268.917.847.847,0,0,1-.514.451.86.86,0,0,1-.265.041.828.828,0,0,1-.413-.11,1.128,1.128,0,0,1-.514-.895,1.648,1.648,0,0,1,.926-1.459H44.573a.315.315,0,0,0-.315.3,10.79,10.79,0,0,0,.375,3.182,1.528,1.528,0,0,1,.28-.744,1.134,1.134,0,0,1,.945-.441.851.851,0,0,1,.75,1,.721.721,0,0,1-.75.6.274.274,0,0,1-.284-.261.271.271,0,0,1,.261-.284c.211,0,.227-.091.236-.151a.315.315,0,0,0-.06-.236.3.3,0,0,0-.208-.12.583.583,0,0,0-.454.221c-.63.87.454,1.852.5,1.89a.256.256,0,0,1,.019.028,1.361,1.361,0,0,0,.315.041,1.26,1.26,0,0,0,.945-.4c.945-.964.986-3.346.961-4.322A.315.315,0,0,0,48.092,51.372Z" transform="translate(-30.941 -38.041)" fill="#fff"/></g></g></svg>