<svg xmlns="http://www.w3.org/2000/svg" xmlns:xlink="http://www.w3.org/1999/xlink" width="54.55" height="54.55" viewBox="0 0 54.55 54.55"><defs><linearGradient id="a" x1="0.5" x2="0.5" y2="1" gradientUnits="objectBoundingBox"><stop offset="0" stop-color="#ff006c"/><stop offset="1" stop-color="#c90055"/></linearGradient><filter id="b" x="0" y="0" width="54.55" height="54.55" filterUnits="userSpaceOnUse"><feOffset dy="2" input="SourceAlpha"/><feGaussianBlur stdDeviation="3" result="c"/><feFlood flood-color="#dbe3ff"/><feComposite operator="in" in2="c"/><feComposite in="SourceGraphic"/></filter></defs><g transform="translate(-555 -2357)"><g transform="matrix(1, 0, 0, 1, 555, 2357)" filter="url(#b)"><path d="M9.4,0H27.151a9.4,9.4,0,0,1,9.4,9.4V27.151a9.4,9.4,0,0,1-9.4,9.4H9.4a9.4,9.4,0,0,1-9.4-9.4V9.4A9.4,9.4,0,0,1,9.4,0Z" transform="translate(9 7)" fill="url(#a)"/></g><g transform="translate(560 2360.002)"><path d="M29.808,10a3.141,3.141,0,1,0,3.141,3.141A3.141,3.141,0,0,0,29.808,10Zm0,4.188a1.047,1.047,0,1,1,1.047-1.047A1.047,1.047,0,0,1,29.808,14.186Z" transform="translate(-11.432)" fill="#fff"/><path d="M30.172,46.769a6.814,6.814,0,0,1-2.617-.521h0l-1.851-.767V40.853a4.188,4.188,0,0,0-4.188-4.188H15.235L10,38.834v2.41l4.893,2.027-1.752,7.007h2.094v3.141h2.094V50.277h2.094v3.141h2.094V50.277h2.094l-.947-3.787,4.09,1.694a9.644,9.644,0,0,0,5.236,5.235,9.817,9.817,0,0,0,3.138-6.651ZM15.235,41.146l-2.673-1.107,2.673-1.107Zm2.094-2.387h2.094v3.4l.2.806-2.3-.951Zm-1.506,9.424,1.026-4.1,3.408,1.412.673,2.69H15.823Zm7.789-3.569-1.578-.653L21.518,41.9V38.759a2.094,2.094,0,0,1,2.094,2.094Z" transform="translate(0 -18.29)" fill="#fff"/><path d="M75.427,57.712a1.047,1.047,0,1,1-1.047-1.047A1.049,1.049,0,0,1,75.427,57.712Z" transform="translate(-43.439 -32.008)" fill="#fff"/><circle cx="0.524" cy="0.524" r="0.524" transform="translate(34.083 25.704)" fill="#fff"/><circle cx="0.524" cy="0.524" r="0.524" transform="translate(33.036 22.563)" fill="#fff"/></g></g></svg>