<svg width="14" height="14" viewBox="0 0 14 14" fill="none" xmlns="http://www.w3.org/2000/svg">
<path fill-rule="evenodd" clip-rule="evenodd" d="M3.32906 3.0876C3.10125 3.31541 3.10125 3.68475 3.32906 3.91256L6.21641 6.79992L3.32907 9.68727C3.10126 9.91507 3.10126 10.2844 3.32907 10.5122C3.55687 10.74 3.92622 10.74 4.15402 10.5122L7.04137 7.62488L9.92872 10.5122C10.1565 10.74 10.5259 10.74 10.7537 10.5122C10.9815 10.2844 10.9815 9.91507 10.7537 9.68727L7.86633 6.79992L10.7537 3.91256C10.9815 3.68475 10.9815 3.31541 10.7537 3.0876C10.5259 2.8598 10.1565 2.8598 9.92873 3.0876L7.04137 5.97496L4.15402 3.0876C3.92621 2.8598 3.55686 2.8598 3.32906 3.0876Z" fill="#24272C" fill-opacity="0.7"/>
</svg>
