<svg xmlns="http://www.w3.org/2000/svg" width="32" height="32" viewBox="0 0 32 32"><g transform="translate(-23 -351)"><rect width="32" height="32" rx="16" transform="translate(23 351)" fill="rgba(49,189,127,0.1)"/><g transform="translate(247.479 -27.484)"><path d="M-223.848,379.326a.423.423,0,0,0,.025-.174v-4.5h0v-2.512c0-1.467-2.512-2.238-4.874-2.238a7.95,7.95,0,0,0-3.954.9v-.647h0v-2.512c0-1.467-2.512-2.238-4.874-2.238s-4.874.8-4.874,2.238V379.2a.726.726,0,0,0,.05.224c.522.995,2.462,1.691,4.8,1.691a7,7,0,0,0,4.4-1.194,7.053,7.053,0,0,0,4.4,1.194C-226.285,381.142-224.3,380.4-223.848,379.326Zm-.9-4.9v.1c-.323.572-1.89,1.169-3.954,1.169-1.99,0-3.531-.547-3.929-1.094v-1.094a8.156,8.156,0,0,0,3.954.9,7.884,7.884,0,0,0,3.954-.9v.92Zm-16.712-.025v-.87a8.158,8.158,0,0,0,3.929.846,7.9,7.9,0,0,0,3.954-.87v1.044c-.348.572-1.89,1.144-3.954,1.144-1.99,0-3.507-.547-3.929-1.094Zm7.883-2.213v.1c-.348.572-1.89,1.144-3.954,1.144-1.99,0-3.507-.547-3.929-1.094v-1.069a8.157,8.157,0,0,0,3.929.846,7.9,7.9,0,0,0,3.954-.87v.945Zm0-2.263v.1c-.323.572-1.89,1.169-3.954,1.169-1.99,0-3.531-.547-3.929-1.094v-1.094a8.156,8.156,0,0,0,3.954.9,7.885,7.885,0,0,0,3.954-.9v.92Zm-7.883,6.715v-.87a8.158,8.158,0,0,0,3.929.846,7.9,7.9,0,0,0,3.954-.87v1.044c-.348.572-1.89,1.144-3.954,1.144-1.99,0-3.507-.547-3.929-1.094Zm8.828.05v-.92a8.158,8.158,0,0,0,3.929.845,7.9,7.9,0,0,0,3.954-.87v1.044c-.348.572-1.89,1.144-3.954,1.144-1.99,0-3.507-.547-3.929-1.094Zm3.929-5.869c2.412,0,3.954.771,3.954,1.318s-1.542,1.318-3.954,1.318-3.954-.771-3.954-1.318C-232.627,371.592-231.085,370.821-228.7,370.821Zm-8.8-4.526c2.412,0,3.954.771,3.954,1.318s-1.542,1.318-3.954,1.318-3.954-.771-3.954-1.318C-241.455,367.091-239.913,366.3-237.5,366.3Zm-.025,13.927c-1.99,0-3.507-.547-3.929-1.094v-1.069a8.157,8.157,0,0,0,3.929.846,7.9,7.9,0,0,0,3.954-.87v1.044C-233.895,379.625-235.462,380.222-237.526,380.222Zm4.9-1.119v-1.069a8.158,8.158,0,0,0,3.929.846,7.9,7.9,0,0,0,3.954-.87v1.044c-.348.572-1.89,1.144-3.954,1.144C-230.712,380.2-232.229,379.65-232.627,379.1Z" transform="translate(24.92 21.084)" fill="#31bd7f"/></g></g></svg>