<svg xmlns="http://www.w3.org/2000/svg" xmlns:xlink="http://www.w3.org/1999/xlink" width="54.55" height="54.55" viewBox="0 0 54.55 54.55"><defs><linearGradient id="a" x1="0.5" x2="0.54" y2="0.768" gradientUnits="objectBoundingBox"><stop offset="0" stop-color="#926fff"/><stop offset="1" stop-color="#5d37fa"/></linearGradient><filter id="b" x="0" y="0" width="54.55" height="54.55" filterUnits="userSpaceOnUse"><feOffset dy="2" input="SourceAlpha"/><feGaussianBlur stdDeviation="3" result="c"/><feFlood flood-color="#dbe3ff"/><feComposite operator="in" in2="c"/><feComposite in="SourceGraphic"/></filter></defs><g transform="translate(-555 -999)"><g transform="translate(564 1006)"><g transform="matrix(1, 0, 0, 1, -9, -7)" filter="url(#b)"><path d="M9.4,0H27.151a9.4,9.4,0,0,1,9.4,9.4V27.151a9.4,9.4,0,0,1-9.4,9.4H9.4a9.4,9.4,0,0,1-9.4-9.4V9.4A9.4,9.4,0,0,1,9.4,0Z" transform="translate(9 7)" fill="url(#a)"/></g></g><g transform="translate(562.028 998.671)"><path d="M25.61,32.59a2.623,2.623,0,1,0,2.623,2.623A2.626,2.626,0,0,0,25.61,32.59Zm0,4.587a1.964,1.964,0,1,1,1.964-1.964A1.966,1.966,0,0,1,25.61,37.177ZM19.6,32.59a2.623,2.623,0,1,0,2.623,2.623A2.626,2.626,0,0,0,19.6,32.59Zm0,4.587a1.964,1.964,0,1,1,1.964-1.964A1.966,1.966,0,0,1,19.6,37.177ZM31.615,32.59a2.623,2.623,0,1,0,2.623,2.623A2.626,2.626,0,0,0,31.615,32.59Zm0,4.587a1.964,1.964,0,1,1,1.964-1.964A1.966,1.966,0,0,1,31.615,37.177ZM16.222,35.213A2.623,2.623,0,1,1,13.6,32.59,2.626,2.626,0,0,1,16.222,35.213ZM7.594,32.59a2.623,2.623,0,1,0,2.623,2.623A2.626,2.626,0,0,0,7.594,32.59Zm0,4.587a1.964,1.964,0,1,1,1.964-1.964A1.966,1.966,0,0,1,7.594,37.177ZM29.076,29.84l-.26-1.515,1.1-1.073a.659.659,0,0,0-.366-1.124l-1.521-.221-.68-1.378a.659.659,0,0,0-1.182,0l-.68,1.378-1.521.221a.659.659,0,0,0-.366,1.124l1.1,1.073-.26,1.515a.658.658,0,0,0,.956.695l1.36-.715,1.36.715a.659.659,0,0,0,.956-.695Zm-.72-1.987a.659.659,0,0,0-.189.583l.26,1.515-1.361-.715a.661.661,0,0,0-.613,0l-1.36.715.26-1.515a.659.659,0,0,0-.189-.584l-1.1-1.073,1.521-.221a.658.658,0,0,0,.5-.361l.679-1.38v0h0l.68,1.378a.659.659,0,0,0,.5.361l1.521.221ZM34.564,16.8,33.4,14.672a.66.66,0,0,0-.894-.263L22.181,20.041a.65.65,0,0,0-.16.127l-2.928-.426a.329.329,0,0,1-.248-.18L17.22,16.27a.989.989,0,0,0-1.773,0l-1.625,3.293a.329.329,0,0,1-.248.18l-3.633.528a.989.989,0,0,0-.548,1.686l2.629,2.563a.329.329,0,0,1,.095.292L11.5,28.431a.989.989,0,0,0,1.434,1.042l3.25-1.709a.329.329,0,0,1,.306,0l3.25,1.709a.988.988,0,0,0,1.434-1.042l-.621-3.619a.329.329,0,0,1,.095-.292l.658-.642,1.907-.65a.651.651,0,0,0,.764.1L34.3,17.7a.659.659,0,0,0,.263-.894ZM20.39,28.864a.323.323,0,0,1-.347.025l-3.25-1.708a.988.988,0,0,0-.92,0l-3.25,1.709a.329.329,0,0,1-.478-.347l.621-3.619a.989.989,0,0,0-.284-.875L9.852,21.485a.329.329,0,0,1,.183-.562l3.634-.528a.988.988,0,0,0,.744-.541l1.625-3.293a.339.339,0,0,1,.591,0l1.625,3.293A.988.988,0,0,0,19,20.4l2.777.4-1.63,1.292a.693.693,0,0,0-.258.574l-.093.033a.726.726,0,0,0-.124-.18c-.4-.419-.846-.071-1.255.115a4.063,4.063,0,0,1-.746.248l-.023,0c0-.019.008-.035.011-.042.155-.452.393-.886.066-1.333a.513.513,0,0,0-.676-.177c-.285.132-.565.273-.846.411l.23-.285c.437-.542,1.239-1.186.9-1.944a.5.5,0,0,0-.676-.177,22.377,22.377,0,0,0-4.511,3.192c-.472.429.229,1.126.7.7a21.28,21.28,0,0,1,2.414-1.885l-1.267,1.57a.5.5,0,0,0,.6.776c.694-.387,1.4-.748,2.116-1.1a1.384,1.384,0,0,0-.078.352.881.881,0,0,0,.416.873,1.5,1.5,0,0,0,1.089-.037,5.172,5.172,0,0,0,.631-.23.484.484,0,0,0,.568.289,6.254,6.254,0,0,0,.953-.273l.01.018a.738.738,0,0,0,.161.2l-.275.268a.989.989,0,0,0-.284.875l.621,3.619A.323.323,0,0,1,20.39,28.864Zm.546-5.557a.063.063,0,0,1-.059-.039l-.322-.59a.063.063,0,0,1,0-.071l1.589-1.259.712,1.306Zm2.722-.557L22.5,20.62l.347-.189,1.162,2.131Zm.925-.5-1.162-2.131L31.9,15.492l1.162,2.131Zm9.054-4.938-1.162-2.131.347-.189,1.162,2.131Z" transform="translate(0 0)" fill="#fff"/></g></g></svg>