<svg xmlns="http://www.w3.org/2000/svg" xmlns:xlink="http://www.w3.org/1999/xlink" width="364" height="267.215" viewBox="0 0 364 267.215"><defs><linearGradient id="a" x1="0.5" y1="-0.474" x2="0.5" y2="0.923" gradientUnits="objectBoundingBox"><stop offset="0" stop-color="#bce6e4"/><stop offset="1" stop-color="#bce6e4" stop-opacity="0"/></linearGradient><linearGradient id="b" x1="0.582" y1="0.5" x2="-0.077" y2="0.5" gradientUnits="objectBoundingBox"><stop offset="0" stop-color="#3d7ffe"/><stop offset="1" stop-color="#79cffe"/></linearGradient><linearGradient id="c" x1="0.35" y1="0.5" x2="1.065" y2="0.5" xlink:href="#b"/><linearGradient id="d" x1="0.5" y1="-0.2" x2="0.5" y2="1.048" xlink:href="#b"/><linearGradient id="e" x1="0.963" y1="2.779" x2="0.737" y2="1.432" xlink:href="#b"/><linearGradient id="f" x1="0.5" y1="0.361" x2="0.5" y2="0.904" gradientUnits="objectBoundingBox"><stop offset="0" stop-color="#fdb15d"/><stop offset="1" stop-color="#fee698"/></linearGradient><linearGradient id="h" x1="0.01" y1="3.202" x2="0.607" y2="3.507" xlink:href="#f"/><linearGradient id="i" x1="1.047" y1="1.634" x2="0.31" y2="0.445" xlink:href="#f"/><linearGradient id="j" x1="1.177" y1="1.63" x2="0.303" y2="0.167" xlink:href="#f"/><linearGradient id="k" x1="1.428" y1="0.16" x2="0.019" y2="1.038" gradientUnits="objectBoundingBox"><stop offset="0" stop-color="#fdb15d"/><stop offset="1" stop-color="#fdb15d" stop-opacity="0"/></linearGradient><linearGradient id="l" x1="0.5" y1="0.394" x2="0.5" y2="1.208" xlink:href="#k"/><linearGradient id="m" x1="0.5" y1="0.456" x2="0.5" y2="3.528" xlink:href="#f"/><linearGradient id="n" x1="1.345" y1="0.483" x2="1.259" y2="-0.025" gradientUnits="objectBoundingBox"><stop offset="0" stop-color="#eef5ff"/><stop offset="1" stop-color="#fff"/></linearGradient><linearGradient id="o" x1="1.893" y1="0.5" x2="0.472" y2="0.5" gradientUnits="objectBoundingBox"><stop offset="0" stop-color="#6cca50"/><stop offset="1" stop-color="#c0ea6a"/></linearGradient><linearGradient id="p" x1="4.536" y1="0.5" x2="6.103" y2="0.5" xlink:href="#o"/><linearGradient id="q" x1="2.417" y1="0.907" x2="2.417" y2="0.565" xlink:href="#o"/><linearGradient id="r" x1="1.475" y1="-4.549" x2="1.475" y2="1.801" gradientUnits="objectBoundingBox"><stop offset="0" stop-color="#58311f"/><stop offset="1" stop-color="#985e3e"/></linearGradient><linearGradient id="s" x1="-2.867" y1="0.483" x2="-2.953" y2="-0.025" xlink:href="#n"/><linearGradient id="t" x1="-7.483" y1="0.5" x2="-8.903" y2="0.5" xlink:href="#o"/><linearGradient id="u" x1="-12.134" y1="0.5" x2="-10.567" y2="0.5" xlink:href="#o"/><linearGradient id="v" x1="-7.185" y1="0.907" x2="-7.185" y2="0.565" xlink:href="#o"/><linearGradient id="w" x1="-3.66" y1="-4.549" x2="-3.66" y2="1.801" xlink:href="#r"/><linearGradient id="x" x1="0.545" y1="0.483" x2="0.46" y2="-0.025" xlink:href="#n"/><linearGradient id="y" x1="1.751" y1="0.5" x2="0.331" y2="0.5" xlink:href="#o"/><linearGradient id="z" x1="-0.775" y1="0.5" x2="0.792" y2="0.5" xlink:href="#o"/><linearGradient id="aa" x1="0.5" y1="0.907" x2="0.5" y2="0.565" xlink:href="#o"/><linearGradient id="ab" x1="0.5" y1="-4.549" x2="0.5" y2="1.801" xlink:href="#r"/><linearGradient id="ac" x1="0.773" y1="1.155" x2="0.574" y2="0.678" gradientUnits="objectBoundingBox"><stop offset="0" stop-color="#1d164d"/><stop offset="1" stop-color="#4a4975"/></linearGradient><linearGradient id="ad" x1="0.5" y1="-1.948" x2="0.5" y2="2.971" gradientUnits="objectBoundingBox"><stop offset="0" stop-color="#d5d7fc"/><stop offset="1" stop-color="#faf1fc"/></linearGradient><linearGradient id="ae" x1="1.699" y1="-0.699" x2="0.18" y2="0.82" gradientUnits="objectBoundingBox"><stop offset="0" stop-color="#788cff"/><stop offset="1" stop-color="#bfd6ff"/></linearGradient><linearGradient id="af" x1="0.663" y1="0.247" x2="0.165" y2="1.02" xlink:href="#ae"/><linearGradient id="ag" x1="1.406" y1="-0.96" x2="0.258" y2="0.975" xlink:href="#ae"/><linearGradient id="ah" x1="0.919" y1="0.5" x2="-0.224" y2="0.5" xlink:href="#ae"/><linearGradient id="aj" x1="0.873" y1="-0.321" x2="0.375" y2="0.774" gradientUnits="objectBoundingBox"><stop offset="0" stop-color="#e3325d"/><stop offset="1" stop-color="#ff866f"/></linearGradient><linearGradient id="al" y1="0.389" y2="1.041" xlink:href="#ad"/><linearGradient id="am" y1="-1.071" y2="0.298" xlink:href="#ad"/><linearGradient id="an" x1="0.5" y1="0.095" x2="0.5" y2="0.952" xlink:href="#r"/><linearGradient id="ap" x1="0.5" y1="0.146" x2="0.5" y2="1.259" gradientUnits="objectBoundingBox"><stop offset="0" stop-color="#ae5f29"/><stop offset="1" stop-color="#eeb26b"/></linearGradient><linearGradient id="ar" x1="0.558" y1="1.263" x2="0.453" y2="0.63" xlink:href="#ap"/><linearGradient id="as" x1="0.852" y1="0.473" x2="0.216" y2="0.528" gradientUnits="objectBoundingBox"><stop offset="0" stop-color="#eeb26b"/><stop offset="1" stop-color="#fcd1a2"/></linearGradient><linearGradient id="at" x1="0.5" y1="-0.009" x2="0.5" y2="1.076" xlink:href="#r"/><linearGradient id="av" x1="0.523" y1="0.5" x2="-0.275" y2="0.5" xlink:href="#ad"/><linearGradient id="aw" y1="0.5" x2="1" y2="0.5" gradientUnits="objectBoundingBox"><stop offset="0" stop-color="#ff9c85"/><stop offset="1" stop-color="#ffc0ac"/></linearGradient><linearGradient id="ay" x1="0.272" y1="1.131" x2="0.5" y2="0.28" gradientUnits="objectBoundingBox"><stop offset="0" stop-color="#ffc0ac"/><stop offset="1" stop-color="#ffd6c7"/></linearGradient><linearGradient id="az" x1="0.202" y1="2.541" x2="0.523" y2="0.34" xlink:href="#ae"/><linearGradient id="ba" x1="0.371" y1="0.992" x2="0.677" y2="0.044" xlink:href="#ae"/><linearGradient id="bb" x1="0.492" y1="0.638" x2="0.851" y2="1.483" gradientUnits="objectBoundingBox"><stop offset="0" stop-color="#788cff"/><stop offset="1" stop-color="#788cff" stop-opacity="0"/></linearGradient><linearGradient id="bc" x1="-1.177" y1="0.412" x2="0.757" y2="0.511" xlink:href="#ae"/><clipPath id="bd"><path d="M249.289,386.14v-6.549l-24.068-10.041c-.215-.091-.429-.169-.65-.24a9.216,9.216,0,0,0-2.009-.429l-9.852-1-8.974-.462-8.175,2.016-5.293,1.307a6.428,6.428,0,0,0-4.884,6.568l.208,4.058,1.716,33.985h37.263V383.2l25.46,5.313A4.142,4.142,0,0,1,249.289,386.14Z" transform="translate(-185.375 -367.418)" fill="none"/></clipPath><linearGradient id="be" x1="-0.132" y1="1.34" x2="0.935" y2="-0.078" xlink:href="#bb"/><linearGradient id="bf" x1="0.319" y1="-0.062" x2="0.977" y2="1.429" xlink:href="#aw"/><linearGradient id="bg" x1="0.004" y1="0.713" x2="0.855" y2="0.278" xlink:href="#aw"/><linearGradient id="bh" x1="-0.176" y1="1.244" x2="0.518" y2="0.53" xlink:href="#ay"/><linearGradient id="bi" x1="0.311" y1="0.845" x2="0.555" y2="0.147" xlink:href="#ay"/><linearGradient id="bj" x1="0.548" y1="0.439" x2="0.084" y2="1.026" gradientUnits="objectBoundingBox"><stop offset="0" stop-color="#ff9c85"/><stop offset="1" stop-color="#ff9c85" stop-opacity="0"/></linearGradient><linearGradient id="bk" x1="0.42" y1="0.447" x2="0.768" y2="0.175" gradientUnits="objectBoundingBox"><stop offset="0" stop-color="#1a3356"/><stop offset="1" stop-color="#304d89"/></linearGradient><linearGradient id="bl" x1="0.431" y1="1.044" x2="0.547" y2="0.174" xlink:href="#ad"/><linearGradient id="bm" x1="0.426" y1="0.075" x2="0.835" y2="0.755" xlink:href="#ad"/><linearGradient id="bn" x1="1.056" y1="0.471" x2="2.396" y2="0.4" xlink:href="#ae"/><linearGradient id="bo" x1="0.278" y1="1.123" x2="0.674" y2="0.115" xlink:href="#ad"/><linearGradient id="bp" x1="0.615" y1="0.244" x2="1.052" y2="-0.034" xlink:href="#bk"/><linearGradient id="bq" x1="0.262" y1="0.75" x2="0.638" y2="0.262" xlink:href="#bk"/><linearGradient id="br" x1="0.573" y1="-1.804" x2="0.702" y2="-5.343" xlink:href="#ae"/><linearGradient id="bs" x1="1.083" y1="20.176" x2="0.487" y2="0.05" xlink:href="#ap"/><linearGradient id="bt" x1="0.594" y1="0.5" x2="-0.337" y2="0.5" xlink:href="#ap"/><linearGradient id="bu" x1="0.5" y1="-0.047" x2="0.5" y2="0.771" xlink:href="#ap"/><linearGradient id="bw" x1="0.717" y1="1.226" x2="0.323" y2="-0.093" gradientUnits="objectBoundingBox"><stop offset="0" stop-color="#fc76a6"/><stop offset="1" stop-color="#ffc6b4"/></linearGradient><linearGradient id="bx" x1="0.226" y1="0.834" x2="1.056" y2="-0.182" gradientUnits="objectBoundingBox"><stop offset="0" stop-color="#fc76a6"/><stop offset="1" stop-color="#fc76a6" stop-opacity="0"/></linearGradient><linearGradient id="by" x1="0.94" y1="1.005" x2="0.022" y2="-0.011" xlink:href="#bx"/><linearGradient id="bz" x1="2.629" y1="3.001" x2="-4.253" y2="-6.702" xlink:href="#bw"/><linearGradient id="ca" x1="1.251" y1="0.778" x2="0.511" y2="0.402" gradientUnits="objectBoundingBox"><stop offset="0" stop-color="#3b375b"/><stop offset="1" stop-color="#4e4187"/></linearGradient><linearGradient id="cb" x1="1.285" y1="0.647" x2="-0.252" y2="0.303" xlink:href="#ca"/><linearGradient id="cc" x1="0.215" y1="-0.374" x2="0.643" y2="0.991" xlink:href="#ay"/><linearGradient id="cd" x1="0.502" y1="0.043" x2="0.544" y2="0.813" xlink:href="#ay"/><linearGradient id="ce" x1="0.673" y1="1.361" x2="0.348" y2="-0.098" xlink:href="#bw"/><linearGradient id="cf" x1="0.828" y1="5.282" x2="0.629" y2="2.24" xlink:href="#ad"/><linearGradient id="cg" x1="0.959" y1="0.378" x2="-0.328" y2="0.613" xlink:href="#bw"/><linearGradient id="ch" x1="1.5" y1="-0.436" x2="0.336" y2="0.691" xlink:href="#ad"/><linearGradient id="ci" x1="0.469" y1="0.583" x2="0.417" y2="0.242" xlink:href="#ca"/><linearGradient id="cj" x1="0.583" y1="1.058" x2="0.388" y2="0.238" xlink:href="#n"/><linearGradient id="ck" x1="0.691" y1="1.708" x2="0.54" y2="0.83" xlink:href="#n"/><linearGradient id="cl" x1="0" y1="0.5" x2="1" y2="0.5" xlink:href="#ca"/><linearGradient id="cm" x1="0.511" y1="0.935" x2="0.328" y2="0.174" xlink:href="#bw"/><linearGradient id="cn" x1="0.696" y1="0.975" x2="0.387" y2="0.211" xlink:href="#bw"/><linearGradient id="co" x1="0.5" y1="1.435" x2="0.5" y2="0.516" xlink:href="#n"/><clipPath id="cp"><path d="M769.3,315.524a86.784,86.784,0,0,0-1.047,12.291c-.039,6.308,1.281,8.9.527,17.942-.492,5.9-.953,9.19-1.215,10.769a1.43,1.43,0,0,1-1.414,1.2H760.3a.9.9,0,0,1-.82-1.277,43.6,43.6,0,0,0,2.571-7.938c1.639-6.828,1.671-11.53.592-14.84-.143-.436-.273-.911-.383-1.411-.742-3.277-.748-7.687.975-10.464a10.529,10.529,0,0,0,1.541-5.092l4.533-1.2Z" transform="translate(-759.395 -315.505)" fill="none"/></clipPath><clipPath id="cq"><path d="M814.152,357.454H799.767a1.429,1.429,0,0,1-1.434-1.436c.021-4,.1-15.456.325-22.723a111.98,111.98,0,0,1,2.387-18.254l10.938,1.9.435,15.1,2.63,24.415A.9.9,0,0,1,814.152,357.454Z" transform="translate(-798.333 -315.041)" fill="none"/></clipPath><linearGradient id="cr" x1="0.71" y1="0.977" x2="0.485" y2="0.298" xlink:href="#ay"/><linearGradient id="cs" x1="0.288" y1="0.887" x2="0.459" y2="0.505" xlink:href="#ay"/><linearGradient id="ct" x1="0.5" y1="0.676" x2="0.5" y2="0.242" xlink:href="#ay"/><linearGradient id="cu" x1="0.422" y1="0.201" x2="0.736" y2="1.405" xlink:href="#bj"/></defs><g transform="translate(-50.981 -62.193)"><g transform="translate(50.981 311.688)"><path d="M66.188,677.521c11.333,6.451,29.381,9.333,45.1,11.121,66.3,7.54,136.2,7.122,203.609,5.922,25.91-.461,52.013-1.992,76.884-6.167,13.422-2.253,28.311-5.412,38.4-10.876Z" transform="translate(-66.188 -677.521)" fill="url(#a)"/></g><g transform="translate(106.109 62.193)"><g transform="translate(0 141.949)"><path d="M280.051,476.974l-6.19,4.02L238.686,503.86l-39.7,25.8a.4.4,0,0,1-.1-.09,4.585,4.585,0,0,1-1.561-3.461V427.83a4.57,4.57,0,0,1,1.561-3.454.456.456,0,0,1,.111-.1l39.694,25.808,35.169,22.859Z" transform="translate(-197.32 -423.194)" fill="url(#b)"/><path d="M476.844,427.83v98.28a4.585,4.585,0,0,1-1.561,3.461.6.6,0,0,1-.1.09l-39.7-25.8L400.3,480.994l-6.189-4.02,6.2-4.027,35.169-22.859,39.694-25.808a.479.479,0,0,1,.111.1A4.581,4.581,0,0,1,476.844,427.83Z" transform="translate(-311.382 -423.194)" fill="url(#c)"/><path d="M363.373,591.338a.592.592,0,0,1-.1.089,4.615,4.615,0,0,1-2.977,1.085H204.108a4.584,4.584,0,0,1-2.971-1.085.4.4,0,0,1-.1-.089l39.8-30.064,29.843-22.541,5.326-4.02,4.262-3.219a3.2,3.2,0,0,1,3.861,0l4.27,3.219,5.319,4.02,29.85,22.541Z" transform="translate(-199.473 -484.961)" fill="url(#d)"/><path d="M363.373,422.88l-39.8,30.057-29.85,22.534-5.326,4.027-.193.145a9.958,9.958,0,0,1-12,0l-.187-.145-5.333-4.027-29.843-22.534-39.8-30.057a.454.454,0,0,1,.111-.1,4.543,4.543,0,0,1,2.963-1.085H360.292a4.577,4.577,0,0,1,2.971,1.085A.478.478,0,0,1,363.373,422.88Z" transform="translate(-199.473 -421.699)" fill="url(#e)"/></g><g transform="translate(147.556 129.021)"><rect width="10.725" height="36.918" transform="translate(46.674 3.619)" fill="url(#f)"/><rect width="10.725" height="36.918" transform="translate(82.333 3.619)" fill="url(#f)"/><g transform="translate(2.068)"><path d="M559.619,403.816c54.062-22.45,99.369-10.681,122.632-1.014a10.491,10.491,0,0,1,6.474,9.7l-.012,11.833a7.7,7.7,0,0,1-7.7,7.69l-15.274-.013a4.532,4.532,0,0,1-4.529-4.52l-.017-6.556c-.024-9.353-11.89-13.653-19.416-14.831-12.36-1.934-25.763-1.253-38.207-.369-8.233.584-22.7,4.7-22.739,15.2l-.019,5.7a5.4,5.4,0,0,1-5.4,5.385l-13.972,0a8.2,8.2,0,0,1-8.2-8.193l0-10.359A10.437,10.437,0,0,1,559.619,403.816Z" transform="translate(-553.233 -390.947)" fill="url(#h)"/></g><rect width="32.275" height="10.285" rx="2.906" transform="translate(0 33.331)" fill="#ea953f"/><rect width="32.275" height="10.285" rx="2.906" transform="translate(107.937 33.331)" fill="#ea953f"/><path d="M653.027,473.3s23.347,9.195,34.887,34.328a32.709,32.709,0,0,1,2.864,11.518c.707,10.84,2.28,34.959,2.28,34.959H568.42l2.289-35.1a31.348,31.348,0,0,1,2.4-10.414c11.178-25.865,33.532-35.3,33.532-35.3v-7.421a1.3,1.3,0,0,1,1.3-1.3H651.76a1.3,1.3,0,0,1,1.3,1.309Z" transform="translate(-559.967 -433.62)" fill="url(#i)"/><path d="M794.543,499.232l.008.012c-.193-.133-.391-.274-.581-.4C794.159,498.972,794.347,499.1,794.543,499.232Z" transform="translate(-690.697 -453.483)" fill="url(#j)"/><path d="M693.056,574.519H568.419l1.132-17.33h74.375a29.406,29.406,0,0,0,29.341-31.319c-.084-1.327-.162-2.549-.234-3.648a32.208,32.208,0,0,0-2.764-11.283A66.084,66.084,0,0,0,663.82,499.8a70.1,70.1,0,0,1,24.092,28.244,32.523,32.523,0,0,1,2.862,11.517C691.483,550.4,693.056,574.519,693.056,574.519Z" transform="translate(-559.967 -454.037)" fill="url(#k)"/><circle cx="22.099" cy="22.099" r="22.099" transform="translate(47.715 52.809)" fill="url(#l)"/><rect width="138.799" height="10.63" rx="4.219" transform="translate(1.372 109.85)" fill="url(#m)"/><circle cx="22.099" cy="22.099" r="22.099" transform="translate(47.715 47.429)" fill="#fff4d7"/><circle cx="12.31" cy="12.31" r="12.31" transform="translate(57.504 57.218)" fill="#ea953f"/><g transform="translate(50.21 49.924)"><circle cx="2.195" cy="2.195" r="2.195" transform="translate(17.409)" fill="#fdb15d"/><circle cx="2.195" cy="2.195" r="2.195" transform="translate(29.719 5.099)" fill="#fdb15d"/><circle cx="2.195" cy="2.195" r="2.195" transform="translate(34.818 17.409)" fill="#fdb15d"/><circle cx="2.195" cy="2.195" r="2.195" transform="translate(29.719 29.719)" fill="#fdb15d"/><circle cx="2.195" cy="2.195" r="2.195" transform="translate(17.409 34.818)" fill="#fdb15d"/><circle cx="2.195" cy="2.195" r="2.195" transform="translate(5.099 29.719)" fill="#fdb15d"/><circle cx="2.195" cy="2.195" r="2.195" transform="translate(0 17.409)" fill="#fdb15d"/><circle cx="2.195" cy="2.195" r="2.195" transform="translate(5.099 5.099)" fill="#fdb15d"/></g></g><g transform="translate(116.047 207.425)"><g transform="translate(0 13.772)"><path d="M476.869,662.135h8.262a.875.875,0,0,0,.868-.766l1.208-9.659a1.024,1.024,0,0,0-1.016-1.15H475.808a1.023,1.023,0,0,0-1.015,1.15L476,661.369A.875.875,0,0,0,476.869,662.135Z" transform="translate(-474.187 -633.595)" fill="url(#n)"/><path d="M499.753,622.813V618.7a1.405,1.405,0,0,0-1.4-1.405h0a1.405,1.405,0,0,0-1.4,1.405v2.214a.914.914,0,0,1-.914.914h-.869v2.81h2.772A1.821,1.821,0,0,0,499.753,622.813Z" transform="translate(-485.997 -614.313)" fill="url(#o)"/><path d="M473.363,635.177V631.83a1.142,1.142,0,0,1,1.142-1.142h0a1.142,1.142,0,0,1,1.142,1.142v1.8a.743.743,0,0,0,.743.743h.707v2.284h-2.254A1.48,1.48,0,0,1,473.363,635.177Z" transform="translate(-473.363 -622.078)" fill="url(#p)"/><path d="M0,0H5.519a0,0,0,0,1,0,0V14.2a2.76,2.76,0,0,1-2.76,2.76h0A2.76,2.76,0,0,1,0,14.2V0A0,0,0,0,1,0,0Z" transform="translate(9.253 16.964) rotate(-180)" fill="url(#q)"/><path d="M477.54,675.177l-.1-.794h10.2l-.1.794a.875.875,0,0,1-.868.766h-8.263A.875.875,0,0,1,477.54,675.177Z" transform="translate(-475.727 -647.403)" fill="url(#r)"/></g><g transform="translate(42.206 13.772)"><path d="M585.839,662.135h-8.262a.874.874,0,0,1-.868-.766L575.5,651.71a1.024,1.024,0,0,1,1.016-1.15H586.9a1.023,1.023,0,0,1,1.015,1.15l-1.208,9.659A.875.875,0,0,1,585.839,662.135Z" transform="translate(-574.764 -633.595)" fill="url(#s)"/><path d="M573.76,622.813V618.7a1.406,1.406,0,0,1,1.405-1.405h0a1.405,1.405,0,0,1,1.4,1.405v2.214a.914.914,0,0,0,.914.914h.87v2.81h-2.773A1.821,1.821,0,0,1,573.76,622.813Z" transform="translate(-573.76 -614.313)" fill="url(#t)"/><path d="M601.335,635.177V631.83a1.142,1.142,0,0,0-1.142-1.142h0a1.142,1.142,0,0,0-1.142,1.142v1.8a.743.743,0,0,1-.743.743H597.6v2.284h2.254A1.48,1.48,0,0,0,601.335,635.177Z" transform="translate(-587.578 -622.078)" fill="url(#u)"/><path d="M2.76,0h0a2.76,2.76,0,0,1,2.76,2.76v14.2a0,0,0,0,1,0,0H0a0,0,0,0,1,0,0V2.76A2.76,2.76,0,0,1,2.76,0Z" transform="translate(4.503)" fill="url(#v)"/><path d="M588.247,675.177l.1-.794h-10.2l.1.794a.874.874,0,0,0,.868.766h8.262A.875.875,0,0,0,588.247,675.177Z" transform="translate(-576.304 -647.403)" fill="url(#w)"/></g><g transform="translate(17.855)"><path d="M533.743,654.434h-12.25a1.3,1.3,0,0,1-1.287-1.136l-1.791-14.319a1.517,1.517,0,0,1,1.505-1.706h15.4a1.517,1.517,0,0,1,1.505,1.706L535.03,653.3A1.3,1.3,0,0,1,533.743,654.434Z" transform="translate(-517.324 -612.123)" fill="url(#x)"/><path d="M515.836,596.138v-6.1a2.083,2.083,0,0,1,2.083-2.083h0A2.083,2.083,0,0,1,520,590.034v3.283a1.355,1.355,0,0,0,1.355,1.355h1.289v4.166h-4.111A2.7,2.7,0,0,1,515.836,596.138Z" transform="translate(-515.836 -583.535)" fill="url(#y)"/><path d="M556.717,614.468v-4.962a1.693,1.693,0,0,0-1.693-1.693h0a1.694,1.694,0,0,0-1.693,1.693v2.669a1.1,1.1,0,0,1-1.1,1.1h-1.048v3.387h3.342A2.195,2.195,0,0,0,556.717,614.468Z" transform="translate(-536.322 -595.047)" fill="url(#z)"/><path d="M4.091,0h0A4.091,4.091,0,0,1,8.182,4.091V25.15a0,0,0,0,1,0,0H0a0,0,0,0,1,0,0V4.091A4.091,4.091,0,0,1,4.091,0Z" transform="translate(6.677)" fill="url(#aa)"/><path d="M537.313,673.769l.147-1.177H522.342l.147,1.177a1.3,1.3,0,0,0,1.287,1.136h12.25A1.3,1.3,0,0,0,537.313,673.769Z" transform="translate(-519.607 -632.594)" fill="url(#ab)"/></g></g><g transform="translate(90.451 0)"><path d="M511.389,84.044H420.723a8.249,8.249,0,0,0-8.246,8.246V278.063a8.243,8.243,0,0,0,8.246,8.239h90.665a8.237,8.237,0,0,0,8.239-8.239V92.29A8.243,8.243,0,0,0,511.389,84.044Zm4.338,194.019a4.341,4.341,0,0,1-4.338,4.338H420.723a4.346,4.346,0,0,1-4.344-4.338V92.29a4.351,4.351,0,0,1,4.344-4.344h90.665a4.346,4.346,0,0,1,4.338,4.344Z" transform="translate(-412.477 -84.044)" fill="url(#ac)"/><path d="M6.676,0h181.1a6.676,6.676,0,0,1,6.676,6.676v86a6.677,6.677,0,0,1-6.677,6.677H6.677A6.677,6.677,0,0,1,0,92.672v-86A6.676,6.676,0,0,1,6.676,0Z" transform="translate(103.252 3.903) rotate(90)" fill="url(#ad)"/><g transform="translate(3.904 3.903)"><path d="M516.77,93.328H426.1a4.346,4.346,0,0,0-4.341,4.341v4.977h99.348V97.669A4.347,4.347,0,0,0,516.77,93.328Z" transform="translate(-421.763 -93.328)" fill="#faf1fc"/><g transform="translate(6.274 3.411)"><circle cx="1.249" cy="1.249" r="1.249" fill="#ff6382"/><circle cx="1.249" cy="1.249" r="1.249" transform="translate(4.605)" fill="#fec40c"/><circle cx="1.249" cy="1.249" r="1.249" transform="translate(9.21)" fill="#10c392"/></g></g><g transform="translate(41.823 17.82)"><circle cx="11.755" cy="11.755" r="11.755" transform="translate(0 7.113)" opacity="0.6" fill="url(#ae)"/><circle cx="11.755" cy="11.755" r="11.755" fill="url(#af)"/><path d="M536,126.434a11.763,11.763,0,0,0-2.636.307,11.725,11.725,0,0,0,14.18,13.638A11.728,11.728,0,0,0,536,126.434Z" transform="translate(-524.242 -126.434)" fill="#fff" opacity="0.3"/><path d="M537.4,161.753a8.9,8.9,0,0,1-13.28,0c1.373-2.945,3.834-4.9,6.644-4.9S536.036,158.808,537.4,161.753Z" transform="translate(-519.01 -144.064)" fill="url(#ag)"/><circle cx="2.847" cy="2.847" r="2.847" transform="translate(8.908 5.046)" fill="#fff"/><path d="M537.326,160.737a1.442,1.442,0,0,1-.277,1.82,8.9,8.9,0,0,1-11.646,0,1.442,1.442,0,0,1-.278-1.823,6.733,6.733,0,0,1,12.2,0Z" transform="translate(-519.471 -144.064)" fill="#fff"/></g><g transform="translate(15.13 48.198)"><rect width="76.896" height="10.053" rx="2.519" fill="#fff"/><rect width="76.896" height="10.053" rx="2.519" transform="translate(0 18.259)" fill="#fff"/><rect width="76.896" height="10.053" rx="2.519" transform="translate(0 36.518)" fill="#fff"/><rect width="76.896" height="45.772" rx="2.519" transform="translate(0 54.777)" fill="#fff"/></g><rect width="34.546" height="12.542" rx="3.896" transform="translate(15.13 156.405)" fill="#d5d7fc"/><g transform="translate(57.48 156.405)"><rect width="34.26" height="12.542" rx="2.519" transform="translate(0 4.552)" opacity="0.6" fill="url(#ah)"/><rect width="34.26" height="12.542" rx="2.519" fill="url(#ah)"/><path d="M595.66,456.086H573.071v6.026a1.638,1.638,0,0,0,1.638,1.638H597.3v-6.026A1.638,1.638,0,0,0,595.66,456.086Z" transform="translate(-563.038 -456.086)" fill="#fff" opacity="0.2"/></g></g><g transform="translate(48.507 57.246)"><rect width="31.373" height="31.373" rx="3.294" transform="translate(0 6.503)" opacity="0.6" fill="url(#aj)"/><rect width="31.373" height="31.373" rx="3.294" transform="translate(0 0)" fill="url(#aj)"/><path d="M363.564,220.215H350.019V236.2a2.142,2.142,0,0,0,2.142,2.142h13.545V222.357A2.142,2.142,0,0,0,363.564,220.215Z" transform="translate(-334.332 -220.215)" fill="#fff" opacity="0.2"/><rect width="22.645" height="15.08" rx="1.584" transform="translate(4.273 8.015)" fill="url(#al)"/><path d="M344.484,239.28H323.9a1.028,1.028,0,0,0-1,.778c-.011.084-.025.164-.035.252l10.334,7.436a1.693,1.693,0,0,0,1.978,0l10.334-7.436A1.03,1.03,0,0,0,344.484,239.28Z" transform="translate(-318.596 -231.265)" fill="url(#am)"/></g><g transform="translate(79.501 93.44)"><path d="M489.545,374.122l-.278-.588a26.51,26.51,0,0,0,2.784-1.619l.355.545A26.876,26.876,0,0,1,489.545,374.122Zm5.534-3.569-.4-.514c.848-.658,1.68-1.356,2.473-2.077l.437.481C496.786,369.176,495.94,369.885,495.079,370.553Zm4.85-4.408-.474-.446c.74-.787,1.451-1.608,2.112-2.438l.51.405C501.4,364.511,500.681,365.345,499.929,366.145Zm4.081-5.126-.541-.361c.6-.9,1.16-1.824,1.671-2.755l.57.312C505.191,359.163,504.619,360.106,504.01,361.019Zm3.147-5.745-.6-.261c.428-.977.818-1.988,1.159-3l.616.207C507.99,353.25,507.593,354.279,507.157,355.273Zm2.081-6.208-.633-.151c.247-1.033.454-2.1.615-3.161l.643.1C509.7,346.933,509.49,348.015,509.239,349.065ZM387.07,342.839l-.639-.122c.028-.148.058-.3.091-.446l.636.138C387.126,342.554,387.1,342.7,387.07,342.839Zm123.147-.243-.649-.044c.062-.921.094-1.865.094-2.807l0-.416.65-.005,0,.422C510.312,340.7,510.28,341.66,510.217,342.6Zm-122.123-3.242-.605-.238a23.779,23.779,0,0,1,1.42-2.974l.567.32A23.09,23.09,0,0,0,388.094,339.354Zm39.642-1.28a19.1,19.1,0,0,1-3.247-.61l.174-.627a18.41,18.41,0,0,0,3.135.589Zm3.309,0-.065-.647a14.392,14.392,0,0,0,3.1-.661l.206.617A15.056,15.056,0,0,1,431.045,338.072Zm38.217-1.2-.1-.642a5.119,5.119,0,0,0,2.58-1.535l.457.462A5.663,5.663,0,0,1,469.262,336.875Zm-47.872-.537a25.227,25.227,0,0,1-2.9-1.548l.343-.553a24.391,24.391,0,0,0,2.829,1.508Zm88.122-.233c-.057-.695-.132-1.411-.222-2.128q-.069-.545-.154-1.073l.641-.1q.088.539.158,1.1c.092.727.167,1.452.224,2.157Zm-72.221-.132-.343-.552a13.67,13.67,0,0,0,2.477-1.975l.461.459A14.294,14.294,0,0,1,437.291,335.973Zm29.109-.892a8.505,8.505,0,0,1-.5-3.175v-.148l.65.009v.139a7.871,7.871,0,0,0,.454,2.928Zm-75.162-1.3-.518-.394a22.689,22.689,0,0,1,2.18-2.473l.455.465A22.011,22.011,0,0,0,391.237,333.783Zm24.56-.886c-.582-.461-1.161-.956-1.721-1.47q-.375-.344-.749-.66l.42-.5q.383.325.768.677c.549.5,1.116.988,1.685,1.44Zm58.395-.406-.566-.319a14.785,14.785,0,0,0,1.244-2.922l.622.19A15.439,15.439,0,0,1,474.192,332.491Zm-32.243-1.178-.549-.349a17.018,17.018,0,0,0,1.444-2.838l.6.24A17.657,17.657,0,0,1,441.949,331.312Zm66.5-1.545a23.871,23.871,0,0,0-1.067-3.02l.6-.259a24.754,24.754,0,0,1,1.1,3.1Zm-112.633-.422-.37-.536a16.384,16.384,0,0,1,2.9-1.6l.254.6A15.678,15.678,0,0,0,395.814,329.345Zm14.924-.452a15.772,15.772,0,0,0-2.867-1.376l.219-.613a16.445,16.445,0,0,1,2.986,1.432Zm56.119-.3-.637-.127a12.774,12.774,0,0,1,1.075-3.145l.583.287A12.142,12.142,0,0,0,466.857,328.6Zm-65.225-1.679-.1-.642a12.933,12.933,0,0,1,3.324-.106l-.064.647A12.178,12.178,0,0,0,401.632,326.917Zm74.5-.728-.648-.058c.041-.455.062-.917.062-1.373a15.16,15.16,0,0,0-.108-1.8l.645-.077a15.754,15.754,0,0,1,.113,1.881C476.193,325.233,476.171,325.715,476.128,326.189Zm-31.71-.977-.635-.142a24.594,24.594,0,0,0,.488-3.167l.648.058A25.3,25.3,0,0,1,444.418,325.212Zm61.475-1.294a19.088,19.088,0,0,0-1.92-2.548l.484-.434a19.649,19.649,0,0,1,1.986,2.635Zm-36.3-.972-.506-.409a18.206,18.206,0,0,1,2.313-2.361l.423.495A17.458,17.458,0,0,0,469.6,322.945Zm5.139-3.093q-.253-.751-.584-1.489l-.079-.127.016-.01q-.3-.648-.655-1.279l.567-.32q.351.622.65,1.263a25.315,25.315,0,0,1,2.332-1.195l.267.593a24.523,24.523,0,0,0-2.334,1.2q.242.574.437,1.157Zm26.91-.661a18.623,18.623,0,0,0-2.672-1.745l.309-.573a19.466,19.466,0,0,1,2.765,1.806Zm-56.377-.432-.64-.114a19,19,0,0,1,.852-3.19l.611.224A18.339,18.339,0,0,0,445.268,318.759Zm50.777-2.6a22.013,22.013,0,0,0-3.093-.822l.122-.639a22.732,22.732,0,0,1,3.185.847Zm-15.793-.01-.193-.621a28.267,28.267,0,0,1,3.194-.791l.119.639A27.623,27.623,0,0,0,480.252,316.154Zm6.309-1.177-.045-.649a26.672,26.672,0,0,1,3.289-.021l-.035.649A26.2,26.2,0,0,0,486.561,314.976Zm-14.905-.694a21.676,21.676,0,0,0-2.134-2.385l.451-.47a22.359,22.359,0,0,1,2.2,2.457Zm-24.171-1.457-.55-.347a13.7,13.7,0,0,1,2.1-2.577l.449.469A13.1,13.1,0,0,0,447.485,312.825Zm19.564-2.949a17.652,17.652,0,0,0-2.778-1.563l.265-.594a18.275,18.275,0,0,1,2.881,1.62ZM452.02,308.5l-.314-.57a12.861,12.861,0,0,1,3.095-1.213l.158.631A12.229,12.229,0,0,0,452.02,308.5Zm9.234-1.189a14.362,14.362,0,0,0-3.119-.349l-.036-.65a15.1,15.1,0,0,1,3.3.364Z" transform="translate(-386.431 -306.31)" fill="#a9afd3"/></g></g><g transform="translate(59.91 154.87)"><path d="M87.428,679.259c0,2,40.559,3.623,90.59,3.623s90.59-1.622,90.59-3.623c0-.63-4.021-1.222-11.088-1.738H98.516C91.449,678.037,87.428,678.629,87.428,679.259Z" transform="translate(-87.428 -520.703)" opacity="0.08"/><g transform="translate(7.404)"><g transform="translate(0 19.257)"><path d="M215.078,528.635,198.9,590.457a1.039,1.039,0,0,1-1.005.776h0a1.039,1.039,0,0,1-1.017-1.252l12.861-61.346Z" transform="translate(-158.257 -453.665)" fill="url(#an)"/><path d="M288.786,591.233h0a1.038,1.038,0,0,1-1-.776L271.6,528.635h5.339l12.86,61.346A1.039,1.039,0,0,1,288.786,591.233Z" transform="translate(-201.581 -453.665)" fill="url(#an)"/><path d="M118.312,528.8,105.061,592a.994.994,0,0,0,.972,1.2h0a.994.994,0,0,0,.961-.742L123.653,528.8Z" transform="translate(-105.04 -453.763)" fill="url(#ap)"/><path d="M199.506,528.8,212.757,592a.994.994,0,0,1-.972,1.2h0a.994.994,0,0,1-.961-.742L194.165,528.8Z" transform="translate(-156.697 -453.763)" fill="url(#ap)"/><path d="M171.984,361.7l-2.229-6.41a7.42,7.42,0,0,0-7.008-4.982H141.774a8.831,8.831,0,0,0-8.791,8l-5.5,57.957a12.137,12.137,0,0,0,12.083,13.285h56.879a2.308,2.308,0,0,0,2.308-2.308h0a2.308,2.308,0,0,0-2.308-2.308h-9.387Z" transform="translate(-118.013 -350.304)" fill="url(#ar)"/><path d="M131.613,413.971l3.773-56.653c.024-.252.062-.5.106-.745a8.8,8.8,0,0,0-2.51,5.361l-5.5,57.957a12.137,12.137,0,0,0,12.083,13.285h56.879a2.308,2.308,0,0,0,0-4.616H145.262A13.68,13.68,0,0,1,131.613,413.971Z" transform="translate(-118.013 -353.938)" fill="url(#as)"/></g><g transform="translate(90.777 70.8)"><path d="M338.684,472.908,321,557.238a1.405,1.405,0,0,0,1.375,1.693h0a1.4,1.4,0,0,0,1.359-1.049l22.237-84.974Z" transform="translate(-320.972 -472.908)" fill="url(#at)"/><path d="M441.09,472.908l17.681,84.33a1.405,1.405,0,0,1-1.375,1.693h0a1.4,1.4,0,0,1-1.359-1.049L433.8,472.908Z" transform="translate(-386.367 -472.908)" fill="url(#at)"/></g><g transform="translate(33.773)"><path d="M1.042,0H24.1a0,0,0,0,1,0,0V2.083a0,0,0,0,1,0,0H1.042A1.042,1.042,0,0,1,0,1.042v0A1.042,1.042,0,0,1,1.042,0Z" transform="translate(35.268 65.651)" fill="url(#av)"/><g transform="translate(0 8.486)"><path d="M350.019,327.784a13.891,13.891,0,0,0,3.436-1.685c1.123-.915.927-1.352,1.359-1.414s1.084.682.366,1.976S350.019,327.784,350.019,327.784Z" transform="translate(-280.803 -324.681)" fill="url(#aw)"/><path d="M366.036,327.047s1.424-.118,1.672.5-1.777,1.058-3.1,1.437a40.031,40.031,0,0,0-6.166,2.391,23.927,23.927,0,0,1,3.423-2.744A20.552,20.552,0,0,1,366.036,327.047Z" transform="translate(-285.611 -326.047)" fill="url(#aw)"/><path d="M349.145,328.281c2.159-1.411,5.281-2.087,5.359-2.582s-.13-.6-.573-.6a12.583,12.583,0,0,0-1.58.234c.065-.358-.234-.67-.8-.644a16.856,16.856,0,0,0-3.525,1.71,11.1,11.1,0,0,1-5.151,1.183c-1.834.032-3.563,1.918-3.8,3.9s-1.671,23.34-1.671,23.34v6.552a4.158,4.158,0,0,0,.738,2.369l3.183.664a3.5,3.5,0,0,0,4.207-3.687L343.461,333.3a1.4,1.4,0,0,1,.475-1.164A61.251,61.251,0,0,1,349.145,328.281Z" transform="translate(-273.493 -324.687)" fill="url(#ay)"/><path d="M287.716,389.151l-25.46-5.313-.176-.039L250.4,368.517l9.852,1a9.222,9.222,0,0,1,2.009.429c.221.071.436.15.65.24l24.068,10.041v6.549A4.142,4.142,0,0,0,287.716,389.151Z" transform="translate(-223.061 -350.089)" fill="url(#az)"/><path d="M224.571,369.311v46.041H187.308l-1.716-33.985-.208-4.058a6.428,6.428,0,0,1,4.884-6.568l5.293-1.307,8.175-2.016,8.974.462,9.852,1A9.216,9.216,0,0,1,224.571,369.311Z" transform="translate(-185.375 -349.452)" fill="url(#ba)"/><path d="M194.165,418.855s3.518,10.958,2.891,16.841.886,9.611,12.723,5.883c10.27-3.234,16.75-2.141,19.886-.68v-6.893l-27.9-2.53Z" transform="translate(-190.47 -379.265)" fill="url(#bb)"/><path d="M232.351,374.216a2.6,2.6,0,0,0,2.243-1.283l2.194-3.736a2.6,2.6,0,0,0,.341-1.054l-2.582-.262-8.974-.462-2.52.622a2.6,2.6,0,0,0,1.151,1.589l6.776,4.2A2.6,2.6,0,0,0,232.351,374.216Z" transform="translate(-207.214 -349.452)" fill="#fff"/><g transform="translate(73.695 0.438)"><path d="M360.964,329.211l-.29-.391c1.019-.758,4.876-3,5.04-3.1l.245.422C365.919,326.168,361.961,328.47,360.964,329.211Z" transform="translate(-360.674 -325.723)" fill="#ff9c85"/></g><path d="M196.068,407.259l-10.476-23.112-.208-4.058a6.428,6.428,0,0,1,4.884-6.568l5.293-1.307,9.124,29.667h-2.269a6.266,6.266,0,0,0-6.23,5.579Z" transform="translate(-185.375 -352.231)" fill="url(#bc)"/><g transform="translate(0 17.966)"><g clip-path="url(#bd)"><g transform="translate(-29.664 -37.058)" opacity="0.4"><g transform="translate(0 0.143)"><g transform="translate(0)"><rect width="92.903" height="0.531" transform="matrix(0.386, -0.923, 0.923, 0.386, 0, 85.705)" fill="#fff"/></g><g transform="translate(7.791 3.259)"><rect width="92.903" height="0.531" transform="matrix(0.386, -0.923, 0.923, 0.386, 0, 85.705)" fill="#fff"/></g><g transform="translate(15.583 6.519)"><rect width="92.903" height="0.531" transform="matrix(0.386, -0.923, 0.923, 0.386, 0, 85.705)" fill="#fff"/></g><g transform="translate(23.374 9.779)"><rect width="92.903" height="0.531" transform="matrix(0.386, -0.923, 0.923, 0.386, 0, 85.705)" fill="#fff"/></g><g transform="translate(31.165 13.038)"><rect width="92.903" height="0.531" transform="matrix(0.386, -0.923, 0.923, 0.386, 0, 85.705)" fill="#fff"/></g><g transform="translate(38.957 16.298)"><rect width="92.903" height="0.531" transform="matrix(0.386, -0.923, 0.923, 0.386, 0, 85.705)" fill="#fff"/></g><g transform="translate(46.748 19.557)"><rect width="92.903" height="0.531" transform="matrix(0.386, -0.923, 0.923, 0.386, 0, 85.705)" fill="#fff"/></g><g transform="translate(54.54 22.817)"><rect width="92.903" height="0.531" transform="matrix(0.386, -0.923, 0.923, 0.386, 0, 85.705)" fill="#fff"/></g><g transform="translate(62.331 26.076)"><rect width="92.903" height="0.531" transform="matrix(0.386, -0.923, 0.923, 0.386, 0, 85.705)" fill="#fff"/></g><g transform="translate(70.122 29.336)"><rect width="92.903" height="0.531" transform="matrix(0.386, -0.923, 0.923, 0.386, 0, 85.705)" fill="#fff"/></g><g transform="translate(77.914 32.595)"><rect width="92.903" height="0.531" transform="matrix(0.386, -0.923, 0.923, 0.386, 0, 85.705)" fill="#fff"/></g><g transform="translate(85.705 35.855)"><rect width="92.903" height="0.531" transform="matrix(0.386, -0.923, 0.923, 0.386, 0, 85.705)" fill="#fff"/></g><g transform="translate(0)"><rect width="92.903" height="0.531" transform="matrix(0.386, -0.923, 0.923, 0.386, 0, 85.705)" fill="#fff"/></g><g transform="translate(7.791 3.259)"><rect width="92.903" height="0.531" transform="matrix(0.386, -0.923, 0.923, 0.386, 0, 85.705)" fill="#fff"/></g><g transform="translate(15.583 6.519)"><rect width="92.903" height="0.531" transform="matrix(0.386, -0.923, 0.923, 0.386, 0, 85.705)" fill="#fff"/></g><g transform="translate(23.374 9.779)"><rect width="92.903" height="0.531" transform="matrix(0.386, -0.923, 0.923, 0.386, 0, 85.705)" fill="#fff"/></g><g transform="translate(31.165 13.038)"><rect width="92.903" height="0.531" transform="matrix(0.386, -0.923, 0.923, 0.386, 0, 85.705)" fill="#fff"/></g><g transform="translate(38.957 16.298)"><rect width="92.903" height="0.531" transform="matrix(0.386, -0.923, 0.923, 0.386, 0, 85.705)" fill="#fff"/></g><g transform="translate(46.748 19.557)"><rect width="92.903" height="0.531" transform="matrix(0.386, -0.923, 0.923, 0.386, 0, 85.705)" fill="#fff"/></g><g transform="translate(54.54 22.817)"><rect width="92.903" height="0.531" transform="matrix(0.386, -0.923, 0.923, 0.386, 0, 85.705)" fill="#fff"/></g><g transform="translate(62.331 26.076)"><rect width="92.903" height="0.531" transform="matrix(0.386, -0.923, 0.923, 0.386, 0, 85.705)" fill="#fff"/></g><g transform="translate(70.122 29.336)"><rect width="92.903" height="0.531" transform="matrix(0.386, -0.923, 0.923, 0.386, 0, 85.705)" fill="#fff"/></g><g transform="translate(77.914 32.595)"><rect width="92.903" height="0.531" transform="matrix(0.386, -0.923, 0.923, 0.386, 0, 85.705)" fill="#fff"/></g><g transform="translate(85.705 35.855)"><rect width="92.903" height="0.531" transform="matrix(0.386, -0.923, 0.923, 0.386, 0, 85.705)" fill="#fff"/></g></g><g transform="translate(0.142 0)"><g transform="translate(35.855)"><rect width="0.531" height="92.903" transform="matrix(0.386, -0.923, 0.923, 0.386, 0, 0.49)" fill="#fff"/></g><g transform="translate(32.595 7.791)"><rect width="0.531" height="92.903" transform="matrix(0.386, -0.923, 0.923, 0.386, 0, 0.49)" fill="#fff"/></g><g transform="translate(29.336 15.583)"><rect width="0.531" height="92.903" transform="matrix(0.386, -0.923, 0.923, 0.386, 0, 0.49)" fill="#fff"/></g><g transform="translate(26.076 23.374)"><rect width="0.531" height="92.903" transform="matrix(0.386, -0.923, 0.923, 0.386, 0, 0.49)" fill="#fff"/></g><g transform="translate(22.817 31.166)"><rect width="0.531" height="92.903" transform="matrix(0.386, -0.923, 0.923, 0.386, 0, 0.49)" fill="#fff"/></g><g transform="translate(19.557 38.957)"><rect width="0.531" height="92.903" transform="matrix(0.386, -0.923, 0.923, 0.386, 0, 0.49)" fill="#fff"/></g><g transform="translate(16.298 46.748)"><rect width="0.531" height="92.903" transform="matrix(0.386, -0.923, 0.923, 0.386, 0, 0.49)" fill="#fff"/></g><g transform="translate(13.038 54.54)"><rect width="0.531" height="92.903" transform="matrix(0.386, -0.923, 0.923, 0.386, 0, 0.49)" fill="#fff"/></g><g transform="translate(9.779 62.331)"><rect width="0.531" height="92.903" transform="matrix(0.386, -0.923, 0.923, 0.386, 0, 0.49)" fill="#fff"/></g><g transform="translate(6.519 70.122)"><rect width="0.531" height="92.903" transform="matrix(0.386, -0.923, 0.923, 0.386, 0, 0.49)" fill="#fff"/></g><g transform="translate(3.26 77.914)"><rect width="0.531" height="92.903" transform="matrix(0.386, -0.923, 0.923, 0.386, 0, 0.49)" fill="#fff"/></g><g transform="translate(0 85.705)"><rect width="0.531" height="92.903" transform="matrix(0.386, -0.923, 0.923, 0.386, 0, 0.49)" fill="#fff"/></g><g transform="translate(35.855)"><rect width="0.531" height="92.903" transform="matrix(0.386, -0.923, 0.923, 0.386, 0, 0.49)" fill="#fff"/></g><g transform="translate(32.595 7.791)"><rect width="0.531" height="92.903" transform="matrix(0.386, -0.923, 0.923, 0.386, 0, 0.49)" fill="#fff"/></g><g transform="translate(29.336 15.583)"><rect width="0.531" height="92.903" transform="matrix(0.386, -0.923, 0.923, 0.386, 0, 0.49)" fill="#fff"/></g><g transform="translate(26.076 23.374)"><rect width="0.531" height="92.903" transform="matrix(0.386, -0.923, 0.923, 0.386, 0, 0.49)" fill="#fff"/></g><g transform="translate(22.817 31.166)"><rect width="0.531" height="92.903" transform="matrix(0.386, -0.923, 0.923, 0.386, 0, 0.49)" fill="#fff"/></g><g transform="translate(19.557 38.957)"><rect width="0.531" height="92.903" transform="matrix(0.386, -0.923, 0.923, 0.386, 0, 0.49)" fill="#fff"/></g><g transform="translate(16.298 46.748)"><rect width="0.531" height="92.903" transform="matrix(0.386, -0.923, 0.923, 0.386, 0, 0.49)" fill="#fff"/></g><g transform="translate(13.038 54.54)"><rect width="0.531" height="92.903" transform="matrix(0.386, -0.923, 0.923, 0.386, 0, 0.49)" fill="#fff"/></g><g transform="translate(9.779 62.331)"><rect width="0.531" height="92.903" transform="matrix(0.386, -0.923, 0.923, 0.386, 0, 0.49)" fill="#fff"/></g><g transform="translate(6.519 70.122)"><rect width="0.531" height="92.903" transform="matrix(0.386, -0.923, 0.923, 0.386, 0, 0.49)" fill="#fff"/></g><g transform="translate(3.26 77.914)"><rect width="0.531" height="92.903" transform="matrix(0.386, -0.923, 0.923, 0.386, 0, 0.49)" fill="#fff"/></g><g transform="translate(0 85.705)"><rect width="0.531" height="92.903" transform="matrix(0.386, -0.923, 0.923, 0.386, 0, 0.49)" fill="#fff"/></g></g></g></g></g><path d="M278.61,386.973s.208,4.616,3.866,5.4,1.394,2.752,5.447,4.106l-9.312-1.943Z" transform="translate(-239.414 -360.786)" fill="url(#be)"/><g transform="translate(12.73 29.171)"><rect width="0.651" height="19.163" transform="translate(0 0.191) rotate(-17.095)" fill="#788cff"/></g><path d="M293.731,457.982a14.165,14.165,0,0,1,2.46,1.125c.784.536,1.084,1.461,1.542,1.527s.823-.979-.3-2.272S293.731,457.982,293.731,457.982Z" transform="translate(-248.179 -401.761)" fill="url(#bf)"/><path d="M305.431,455.109s2.972,1.142,4.609,1.613,2.526.7,2.474,1.01-.941.662-1.69.557a53.669,53.669,0,0,1-5.393-2.474Z" transform="translate(-254.96 -400.278)" fill="url(#bg)"/><path d="M211.081,448.363a3.98,3.98,0,0,0,3.941,2.114l24.448-2.6,3.206-.338c1.58,1.847,3.6,1.9,5.326,2.165s3.4,1.567,4.253,2.068a2.7,2.7,0,0,0,2.055.039s1.392.312,1.983-.1.351-.54-2.231-1.782a45.215,45.215,0,0,1-6.653-4.37,8.522,8.522,0,0,0-3.973-1.931c-.332-.039-1.847-.111-3.967-.188-6.815-.267-19.886-.65-19.886-.65h-2.271A6.27,6.27,0,0,0,211.081,448.363Z" transform="translate(-200.274 -393.134)" fill="url(#bh)"/><g transform="translate(48.724 55.312)"><rect width="0.325" height="6.141" transform="translate(0 0.277) rotate(-58.322)" fill="#ff9c85"/></g></g><g transform="translate(11.679)"><path d="M224.889,342.644l-.366-10.347s-2.787-1.6-2.648-4.076,2.944-1.812,3.676-.645a10.578,10.578,0,0,1,1.1,2.857,4.206,4.206,0,0,0,.888-2.752c.087-1.968-.453-2.857.244-3s2.4,1.463,4.547,1.777,3.8.244,4.6-.418,1.716-.845,1.655-.183-.07,6.506-.227,8.492-.118,5.461-4.494,4.756v4l-2.195,3.736Z" transform="translate(-218.207 -316.193)" fill="url(#bi)"/><path d="M242.321,353.962s-2.369-.505-5.853-3.658a8.1,8.1,0,0,0,5.853,7.655Z" transform="translate(-226.667 -331.047)" fill="url(#bj)"/><path d="M233.46,317.136c.026-1.47.045-2.692.071-2.972.058-.663-.858-.481-1.658.182s-2.458.735-4.6.416-3.85-1.912-4.546-1.775-.156,1.027-.247,3a4.188,4.188,0,0,1-.884,2.751,10.693,10.693,0,0,0-1.1-2.855c-.735-1.17-3.538-1.827-3.674.644s2.646,4.077,2.646,4.077.449.267.865.468a.891.891,0,0,1,.494.806v1.945a.983.983,0,0,1-.514.871,2.609,2.609,0,0,1-.689.254,1.2,1.2,0,0,1-1.216-.377c-.911-1.028-.071-2.978-2.113-5.274s-3.583-4.565-3.031-6.5a3.532,3.532,0,0,1,4.13-2.686s1.144-4.338,4.9-5.04,6.731.026,9.6-.286,5.853-.962,6.067,1.964C238.168,309.508,235.086,315.6,233.46,317.136Z" transform="translate(-213.155 -304.496)" fill="url(#bk)"/></g><g transform="translate(55.01 42.29)"><path d="M361.975,405.091H332.716a3.727,3.727,0,0,0-3.249,1.9l-13.238,23.544H347.4a3.616,3.616,0,0,0,3.152-1.844L362.919,406.7A1.082,1.082,0,0,0,361.975,405.091Z" transform="translate(-316.229 -405.091)" fill="url(#bl)"/><ellipse cx="2.23" cy="1.742" rx="2.23" ry="1.742" transform="translate(22.411 13.782) rotate(-60)" fill="#fff"/></g><g transform="translate(1.933 74.386)"><g transform="translate(29.813 56.778)"><path d="M269.938,616.5l-7.586,1.821a1.907,1.907,0,0,0-1.267,2.695l9.977,20.327a1.451,1.451,0,0,0,2.724-.346,8.1,8.1,0,0,0,.091-2.4c-.39-4.233-.21-16.742-.21-16.742Z" transform="translate(-260.889 -616.498)" fill="url(#bm)"/><path d="M261.085,623.732l9.977,20.327a1.451,1.451,0,0,0,2.306.41l-11.428-23.282A1.907,1.907,0,0,0,261.085,623.732Z" transform="translate(-260.889 -619.216)" fill="url(#bn)"/></g><path d="M315.3,653.535l-1.708,7.613a1.907,1.907,0,0,0,1.861,2.324H338.1a1.451,1.451,0,0,0,.889-2.6,8.088,8.088,0,0,0-2.113-1.138c-3.971-1.516-13.94-6.461-13.94-6.461Z" transform="translate(-261.596 -581.036)" fill="url(#bo)"/><path d="M245.9,481.439l39.666,6.353a7.1,7.1,0,0,1,4.3,11.585l-38.269,45.294a8.883,8.883,0,0,1-4.616-7.56l26.477-36.179H222.173V481.439Z" transform="translate(-208.636 -481.439)" fill="url(#bp)"/><path d="M189.973,481.439l.221,8.2a11.609,11.609,0,0,0,11.6,11.3H241.6l1.289,53.337s4.9,2.108,8.77-.845l4.957-58.979a6.064,6.064,0,0,0-5.061-6.492l-39.724-6.515Z" transform="translate(-189.973 -481.439)" fill="url(#bq)"/><path d="M315.455,674.927H338.1a1.451,1.451,0,0,0,1.384-1.89H313.548A1.907,1.907,0,0,0,315.455,674.927Z" transform="translate(-261.598 -592.49)" fill="url(#br)"/></g></g><g transform="translate(5.834 67.734)"><rect width="135.136" height="3.066" rx="1.533" transform="translate(11.323)" fill="url(#bs)"/><path d="M201.624,467.149a1.533,1.533,0,0,0-1.533-1.533H147.416a1.529,1.529,0,0,0-1.509,1.3v.473a1.529,1.529,0,0,0,1.509,1.3h52.675A1.533,1.533,0,0,0,201.624,467.149Z" transform="translate(-134.561 -465.616)" fill="url(#bt)"/><path d="M137.033,472.908l-18.086,86.261a1.356,1.356,0,0,0,1.328,1.635h0a1.357,1.357,0,0,0,1.312-1.013l22.737-86.883Z" transform="translate(-118.917 -469.842)" fill="url(#bu)"/><path d="M258.559,472.908l18.087,86.261a1.357,1.357,0,0,1-1.328,1.635h0a1.357,1.357,0,0,1-1.312-1.013l-22.737-86.883Z" transform="translate(-195.629 -469.842)" fill="url(#bu)"/></g></g></g><g transform="translate(320.439 77.731)"><g transform="translate(9.011)"><rect width="59.102" height="37.686" rx="3.02" fill="url(#bw)"/><path d="M792.871,162.8a1.964,1.964,0,0,0-1.964,1.964v18.15h30.938a1.964,1.964,0,0,0,1.964-1.964V162.8Z" transform="translate(-764.707 -145.232)" fill="#fff" opacity="0.2"/><path d="M728.846,191.569c-.088,0-.174.011-.261.016v6.041a1.964,1.964,0,0,0,1.964,1.964h4.178c.013-.2.025-.4.025-.607C734.751,194.888,732.107,191.569,728.846,191.569Z" transform="translate(-728.585 -161.904)" fill="url(#bx)"/><path d="M856.928,191.569c-3.261,0-5.905,3.319-5.905,7.414,0,.2.012.406.024.607h5.641a1.964,1.964,0,0,0,1.964-1.964v-5.734A4.8,4.8,0,0,0,856.928,191.569Z" transform="translate(-799.55 -161.904)" fill="url(#by)"/><path d="M838.966,210.649l5.1,6.226a.525.525,0,0,0,.919-.219l1.333-6.008Z" transform="translate(-792.562 -172.963)" fill="url(#bz)"/><g transform="translate(15.122 17.118)"><circle cx="1.724" cy="1.724" r="1.724" fill="#fff"/><circle cx="1.724" cy="1.724" r="1.724" transform="translate(12.704)" fill="#fff"/><circle cx="1.724" cy="1.724" r="1.724" transform="translate(25.408)" fill="#fff"/></g></g><g transform="translate(0 28.808)"><g transform="translate(2.415 97.602)"><path d="M725.474,473.548l10.762,26.376a15.914,15.914,0,0,1-6.347,3.72l-16.323-27.651a4.828,4.828,0,0,1-.351-4.181l19.2-50.112h22.136Z" transform="translate(-712.896 -421.699)" fill="url(#ca)"/><path d="M806.987,456.36c-.494,5.742-2.543,37.041-3.681,54.671a22.585,22.585,0,0,1-7.381-.273L789.5,421.7h18.358s.032,1.08,1.359,9.163S807.682,448.277,806.987,456.36Z" transform="translate(-757.296 -421.699)" fill="url(#cb)"/><path d="M759.3,621.634s4.781-.549,5.2-2.038-1.646-4-1.646-4l-3.191-7.822a15.933,15.933,0,0,1-6.346,3.721Z" transform="translate(-736.327 -529.55)" fill="url(#cc)"/><path d="M804.776,633.539l.891,12.355h5.713s.315-4.909.779-12.076A22.7,22.7,0,0,1,804.776,633.539Z" transform="translate(-766.15 -544.482)" fill="url(#cd)"/><path d="M794.612,655.366l.792,7.118a1.451,1.451,0,0,1-1.443,1.612H775.619a1.212,1.212,0,0,1-.954-1.965,5.957,5.957,0,0,1,1.637-1.353c2.56-1.5,10.8-6.149,11.671-6.41s1.881,2.6,3.135,2.717a2.055,2.055,0,0,0,2.047-1.507,1.166,1.166,0,0,1,.751-.713A.572.572,0,0,1,794.612,655.366Z" transform="translate(-748.542 -556.545)" fill="url(#ce)"/><path d="M775.623,675.227h18.342a1.451,1.451,0,0,0,1.443-1.612l-.007-.06H774.495A1.216,1.216,0,0,0,775.623,675.227Z" transform="translate(-748.546 -567.676)" fill="url(#cf)"/><g transform="translate(19.992 85.686)"><path d="M767.673,625.609l6.439,3.877a1.524,1.524,0,0,1,.424,2.231l-11.693,15.289a1.272,1.272,0,0,1-2.247-.457,6.248,6.248,0,0,1-.085-2.227c.384-3.09,1.759-12.922,2.1-13.814s3.363.086,4.264-.881a2.157,2.157,0,0,0,.049-2.667,1.222,1.222,0,0,1-.116-1.08A.6.6,0,0,1,767.673,625.609Z" transform="translate(-760.452 -625.52)" fill="url(#cg)"/><path d="M763.225,652.428l11.693-15.289a1.524,1.524,0,0,0-.424-2.231l-.054-.032L761.112,652.3A1.277,1.277,0,0,0,763.225,652.428Z" transform="translate(-760.834 -630.943)" fill="url(#ch)"/></g><path d="M780.037,431.458l-7.375,25.375,8.156-14.541Z" transform="translate(-747.537 -427.356)" fill="#3b375b"/></g><path d="M786.616,279.327c-2.09-.653-1.254-2.691.183-4.547s.784-4.494-2.352-6.323-3.214-5.487-3.841-8.57-3.71-2.021-3.71-2.021c-2.543-4.982-9.441-4.424-12.089-1.881s-3.066,7.56-2.822,12.472.035,5.679-2.787,6.9a3.252,3.252,0,0,0-1.951,3.971s6.863,6.932,13.626,7.768,18.747-4.607,18.616-5.469S788.707,279.979,786.616,279.327Z" transform="translate(-736.114 -226.945)" fill="url(#ci)"/><g transform="translate(0 13.885)"><path d="M761.21,354.861l-1.881,5.017h31.04l-2.833-43.258-9.1-1.579-9.169.2s-1.962,1.931-2.746,8.1-.731,19.335-1.933,23.568A39.139,39.139,0,0,1,761.21,354.861Z" transform="translate(-737.394 -276.163)" fill="url(#cj)"/><path d="M739.026,262.087l-.006.019-6.627,17.168-.416-.436L708.292,254.1a4.1,4.1,0,0,1-1.021-3.83l6.607-26.929,4.845,1.223-2.874,24.542,15.8,13.955a2.118,2.118,0,0,0,1.945.455l.9-.234Z" transform="translate(-707.151 -223.014)" fill="url(#ck)"/><path d="M785.313,320.117c3.863,0,6.571-3.039,6.867-3.385a2.6,2.6,0,0,0,.584-1.246l-2.562-.445-9.169.2a7.873,7.873,0,0,0-1.407,2.506,7.715,7.715,0,0,0,5.6,2.374Z" transform="translate(-749.158 -276.163)" fill="url(#cl)"/><path d="M814.152,357.454H799.767a1.429,1.429,0,0,1-1.434-1.436c.021-4,.1-15.456.325-22.723a111.98,111.98,0,0,1,2.387-18.254l10.938,1.9.435,15.1,2.63,24.415A.9.9,0,0,1,814.152,357.454Z" transform="translate(-760 -276.163)" fill="url(#cm)"/><path d="M769.3,315.524a86.784,86.784,0,0,0-1.047,12.291c-.039,6.308,1.281,8.9.527,17.942-.492,5.9-.953,9.19-1.215,10.769a1.43,1.43,0,0,1-1.414,1.2H760.3a.9.9,0,0,1-.82-1.277,43.6,43.6,0,0,0,2.571-7.938c1.639-6.828,1.671-11.53.592-14.84-.143-.436-.273-.911-.383-1.411-.742-3.277-.748-7.687.975-10.464a10.529,10.529,0,0,0,1.541-5.092l4.533-1.2Z" transform="translate(-737.431 -276.432)" fill="url(#cn)"/><path d="M855.408,253.18a3.432,3.432,0,0,0,.856-3.179l-6.631-27.441-4.947,1.394,2.961,24.561L830.8,263.339l.436,15.1Z" transform="translate(-778.82 -222.561)" fill="url(#co)"/><path d="M814.152,357.454H799.767a1.429,1.429,0,0,1-1.434-1.436c.021-4,.1-15.456.325-22.723a111.98,111.98,0,0,1,2.387-18.254l10.938,1.9.435,15.1,2.63,24.415A.9.9,0,0,1,814.152,357.454Z" transform="translate(-760 -276.163)" fill="none"/><g transform="translate(21.963 39.073)"><g clip-path="url(#cp)"><g transform="translate(-10.477 -4.87)" opacity="0.5"><g transform="translate(35.954 15.238)"><rect width="1.097" height="1.097" transform="translate(16.667 1.017) rotate(157.968)" fill="#fff"/><rect width="1.097" height="1.097" transform="translate(12.698 6.404) rotate(-22.032)" fill="#fff"/><rect width="1.097" height="1.097" transform="translate(10.159 12.396) rotate(-22.032)" fill="#fff"/><rect width="1.097" height="1.097" transform="translate(7.619 18.389) rotate(-22.032)" fill="#fff"/><rect width="1.097" height="1.097" transform="translate(5.079 24.381) rotate(-22.032)" fill="#fff"/><rect width="1.097" height="1.097" transform="translate(2.54 30.374) rotate(-22.032)" fill="#fff"/><rect width="1.097" height="1.097" transform="translate(1.429 36.972) rotate(157.968)" fill="#fff"/></g><g transform="translate(29.962 12.698)"><rect width="1.097" height="1.097" transform="translate(15.238 0.412) rotate(-22.032)" fill="#fff"/><rect width="1.097" height="1.097" transform="translate(12.698 6.404) rotate(-22.032)" fill="#fff"/><rect width="1.097" height="1.097" transform="translate(10.159 12.396) rotate(-22.032)" fill="#fff"/><rect width="1.097" height="1.097" transform="translate(7.619 18.389) rotate(-22.032)" fill="#fff"/><rect width="1.097" height="1.097" transform="translate(5.079 24.381) rotate(-22.032)" fill="#fff"/><rect width="1.097" height="1.097" transform="translate(2.54 30.374) rotate(-22.032)" fill="#fff"/><rect width="1.097" height="1.097" transform="translate(0 36.366) rotate(-22.032)" fill="#fff"/></g><g transform="translate(23.97 10.159)"><rect width="1.097" height="1.097" transform="translate(15.238 0.412) rotate(-22.032)" fill="#fff"/><rect width="1.097" height="1.097" transform="translate(12.698 6.404) rotate(-22.032)" fill="#fff"/><rect width="1.097" height="1.097" transform="translate(10.159 12.396) rotate(-22.032)" fill="#fff"/><rect width="1.097" height="1.097" transform="translate(7.619 18.389) rotate(-22.032)" fill="#fff"/><rect width="1.097" height="1.097" transform="translate(5.079 24.381) rotate(-22.032)" fill="#fff"/><rect width="1.097" height="1.097" transform="translate(2.54 30.374) rotate(-22.032)" fill="#fff"/><rect width="1.097" height="1.097" transform="translate(0 36.366) rotate(-22.032)" fill="#fff"/></g><g transform="translate(17.977 7.619)"><rect width="1.097" height="1.097" transform="translate(15.238 0.412) rotate(-22.032)" fill="#fff"/><rect width="1.097" height="1.097" transform="translate(12.698 6.404) rotate(-22.032)" fill="#fff"/><rect width="1.097" height="1.097" transform="translate(10.159 12.396) rotate(-22.032)" fill="#fff"/><rect width="1.097" height="1.097" transform="translate(7.619 18.389) rotate(-22.032)" fill="#fff"/><rect width="1.097" height="1.097" transform="translate(5.079 24.381) rotate(-22.032)" fill="#fff"/><rect width="1.097" height="1.097" transform="translate(2.54 30.374) rotate(-22.032)" fill="#fff"/><rect width="1.097" height="1.097" transform="translate(0 36.366) rotate(-22.032)" fill="#fff"/></g><g transform="translate(11.985 5.079)"><rect width="1.097" height="1.097" transform="translate(15.238 0.412) rotate(-22.032)" fill="#fff"/><rect width="1.097" height="1.097" transform="translate(12.698 6.404) rotate(-22.032)" fill="#fff"/><rect width="1.097" height="1.097" transform="translate(10.159 12.396) rotate(-22.032)" fill="#fff"/><rect width="1.097" height="1.097" transform="translate(7.619 18.389) rotate(-22.032)" fill="#fff"/><rect width="1.097" height="1.097" transform="translate(5.079 24.381) rotate(-22.032)" fill="#fff"/><rect width="1.097" height="1.097" transform="translate(2.54 30.374) rotate(-22.032)" fill="#fff"/><rect width="1.097" height="1.097" transform="translate(0 36.366) rotate(-22.032)" fill="#fff"/></g><g transform="translate(5.992 2.54)"><rect width="1.097" height="1.097" transform="translate(15.238 0.412) rotate(-22.032)" fill="#fff"/><rect width="1.097" height="1.097" transform="translate(12.698 6.404) rotate(-22.032)" fill="#fff"/><rect width="1.097" height="1.097" transform="translate(10.159 12.396) rotate(-22.032)" fill="#fff"/><rect width="1.097" height="1.097" transform="translate(7.619 18.389) rotate(-22.032)" fill="#fff"/><rect width="1.097" height="1.097" transform="translate(5.079 24.381) rotate(-22.032)" fill="#fff"/><rect width="1.097" height="1.097" transform="translate(2.54 30.374) rotate(-22.032)" fill="#fff"/><rect width="1.097" height="1.097" transform="translate(0 36.366) rotate(-22.032)" fill="#fff"/></g><g transform="translate(0 0)"><rect width="1.097" height="1.097" transform="translate(16.667 1.017) rotate(157.968)" fill="#fff"/><rect width="1.097" height="1.097" transform="translate(12.698 6.404) rotate(-22.032)" fill="#fff"/><rect width="1.097" height="1.097" transform="translate(10.159 12.396) rotate(-22.032)" fill="#fff"/><rect width="1.097" height="1.097" transform="translate(7.619 18.389) rotate(-22.032)" fill="#fff"/><rect width="1.097" height="1.097" transform="translate(5.079 24.381) rotate(-22.032)" fill="#fff"/><rect width="1.097" height="1.097" transform="translate(2.54 30.374) rotate(-22.032)" fill="#fff"/><rect width="1.097" height="1.097" transform="translate(1.429 36.972) rotate(157.968)" fill="#fff"/></g></g></g></g><g transform="translate(38.333 38.878)"><g clip-path="url(#cq)"><g transform="translate(-26.846 -4.675)" opacity="0.5"><g transform="translate(35.954 15.238)"><rect width="1.097" height="1.097" transform="translate(16.667 1.017) rotate(157.968)" fill="#fff"/><rect width="1.097" height="1.097" transform="translate(12.698 6.404) rotate(-22.032)" fill="#fff"/><rect width="1.097" height="1.097" transform="translate(10.159 12.396) rotate(-22.032)" fill="#fff"/><rect width="1.097" height="1.097" transform="translate(7.619 18.389) rotate(-22.032)" fill="#fff"/><rect width="1.097" height="1.097" transform="translate(5.079 24.381) rotate(-22.032)" fill="#fff"/><rect width="1.097" height="1.097" transform="translate(2.54 30.374) rotate(-22.032)" fill="#fff"/><rect width="1.097" height="1.097" transform="translate(1.429 36.972) rotate(157.968)" fill="#fff"/></g><g transform="translate(29.962 12.698)"><rect width="1.097" height="1.097" transform="translate(15.238 0.412) rotate(-22.032)" fill="#fff"/><rect width="1.097" height="1.097" transform="translate(12.698 6.404) rotate(-22.032)" fill="#fff"/><rect width="1.097" height="1.097" transform="translate(10.159 12.396) rotate(-22.032)" fill="#fff"/><rect width="1.097" height="1.097" transform="translate(7.619 18.389) rotate(-22.032)" fill="#fff"/><rect width="1.097" height="1.097" transform="translate(5.079 24.381) rotate(-22.032)" fill="#fff"/><rect width="1.097" height="1.097" transform="translate(2.54 30.374) rotate(-22.032)" fill="#fff"/><rect width="1.097" height="1.097" transform="translate(0 36.366) rotate(-22.032)" fill="#fff"/></g><g transform="translate(23.97 10.159)"><rect width="1.097" height="1.097" transform="translate(15.238 0.412) rotate(-22.032)" fill="#fff"/><rect width="1.097" height="1.097" transform="translate(12.698 6.404) rotate(-22.032)" fill="#fff"/><rect width="1.097" height="1.097" transform="translate(10.159 12.396) rotate(-22.032)" fill="#fff"/><rect width="1.097" height="1.097" transform="translate(7.619 18.389) rotate(-22.032)" fill="#fff"/><rect width="1.097" height="1.097" transform="translate(5.079 24.381) rotate(-22.032)" fill="#fff"/><rect width="1.097" height="1.097" transform="translate(2.54 30.374) rotate(-22.032)" fill="#fff"/><rect width="1.097" height="1.097" transform="translate(0 36.366) rotate(-22.032)" fill="#fff"/></g><g transform="translate(17.977 7.619)"><rect width="1.097" height="1.097" transform="translate(15.238 0.412) rotate(-22.032)" fill="#fff"/><rect width="1.097" height="1.097" transform="translate(12.698 6.404) rotate(-22.032)" fill="#fff"/><rect width="1.097" height="1.097" transform="translate(10.159 12.396) rotate(-22.032)" fill="#fff"/><rect width="1.097" height="1.097" transform="translate(7.619 18.389) rotate(-22.032)" fill="#fff"/><rect width="1.097" height="1.097" transform="translate(5.079 24.381) rotate(-22.032)" fill="#fff"/><rect width="1.097" height="1.097" transform="translate(2.54 30.374) rotate(-22.032)" fill="#fff"/><rect width="1.097" height="1.097" transform="translate(0 36.366) rotate(-22.032)" fill="#fff"/></g><g transform="translate(11.985 5.079)"><rect width="1.097" height="1.097" transform="translate(15.238 0.412) rotate(-22.032)" fill="#fff"/><rect width="1.097" height="1.097" transform="translate(12.698 6.404) rotate(-22.032)" fill="#fff"/><rect width="1.097" height="1.097" transform="translate(10.159 12.396) rotate(-22.032)" fill="#fff"/><rect width="1.097" height="1.097" transform="translate(7.619 18.389) rotate(-22.032)" fill="#fff"/><rect width="1.097" height="1.097" transform="translate(5.079 24.381) rotate(-22.032)" fill="#fff"/><rect width="1.097" height="1.097" transform="translate(2.54 30.374) rotate(-22.032)" fill="#fff"/><rect width="1.097" height="1.097" transform="translate(0 36.366) rotate(-22.032)" fill="#fff"/></g><g transform="translate(5.992 2.54)"><rect width="1.097" height="1.097" transform="translate(15.238 0.412) rotate(-22.032)" fill="#fff"/><rect width="1.097" height="1.097" transform="translate(12.698 6.404) rotate(-22.032)" fill="#fff"/><rect width="1.097" height="1.097" transform="translate(10.159 12.396) rotate(-22.032)" fill="#fff"/><rect width="1.097" height="1.097" transform="translate(7.619 18.389) rotate(-22.032)" fill="#fff"/><rect width="1.097" height="1.097" transform="translate(5.079 24.381) rotate(-22.032)" fill="#fff"/><rect width="1.097" height="1.097" transform="translate(2.54 30.374) rotate(-22.032)" fill="#fff"/><rect width="1.097" height="1.097" transform="translate(0 36.366) rotate(-22.032)" fill="#fff"/></g><g transform="translate(0 0)"><rect width="1.097" height="1.097" transform="translate(16.667 1.017) rotate(157.968)" fill="#fff"/><rect width="1.097" height="1.097" transform="translate(12.698 6.404) rotate(-22.032)" fill="#fff"/><rect width="1.097" height="1.097" transform="translate(10.159 12.396) rotate(-22.032)" fill="#fff"/><rect width="1.097" height="1.097" transform="translate(7.619 18.389) rotate(-22.032)" fill="#fff"/><rect width="1.097" height="1.097" transform="translate(5.079 24.381) rotate(-22.032)" fill="#fff"/><rect width="1.097" height="1.097" transform="translate(2.54 30.374) rotate(-22.032)" fill="#fff"/><rect width="1.097" height="1.097" transform="translate(1.429 36.972) rotate(157.968)" fill="#fff"/></g></g></g></g></g><g transform="translate(6.838)"><path d="M865.727,193.717a24.437,24.437,0,0,0-1.908-4.185v3.695h-.053c.182,1.783-.217,3.936-1.334,4.686a3.982,3.982,0,0,0-1.146-2.813c-1.175-.993-1.646-.248-1.162.588a6.053,6.053,0,0,1,.6,3.083c-.052.98-.05,4.787,1.273,6.058s3.641-.993,3.641-.993l.287-8.851A3.287,3.287,0,0,0,865.727,193.717Z" transform="translate(-802.544 -189.532)" fill="url(#cr)"/><path d="M728.059,196.5a3.981,3.981,0,0,0-1.145,2.813c-1.14-.765-1.534-2.992-1.324-4.794v-3.681a23.388,23.388,0,0,0-1.971,4.279,3.292,3.292,0,0,0-.2,1.268l.319,8.225s2.461,2.315,3.785,1.043,1.15-4.5,1.1-5.482a6.048,6.048,0,0,1,.6-3.083C729.7,196.255,729.234,195.51,728.059,196.5Z" transform="translate(-723.417 -190.291)" fill="url(#cs)"/></g><path d="M776.663,291.554V287.4a2.671,2.671,0,0,1-2.978-1.1c-1.15-1.7-1.359-4.363-1.437-5.983s-.157-4.128-.157-4.128a4.114,4.114,0,0,0,2.944-.209c1.115-.749,1.637-1.829,1.9-1.794s-.418,1.811.122,2.142a9.2,9.2,0,0,0,4.215.157,4.426,4.426,0,0,0,1.9,2.265,6.29,6.29,0,0,1,.418,2.473s.54-.017.662-.749.314-2.944,2.073-3.362,2.3,2.909-.488,4.25v10s-2.143,2.509-4.947,2.474A4.578,4.578,0,0,1,776.663,291.554Z" transform="translate(-744.791 -238.598)" fill="url(#ct)"/><path d="M788.742,297.557c-1.951,2.891-5.775,3.388-5.775,3.388v3.266C788.9,303.323,788.742,297.557,788.742,297.557Z" transform="translate(-751.094 -252.144)" fill="url(#cu)"/></g></g></g></svg>