<svg xmlns="http://www.w3.org/2000/svg" xmlns:xlink="http://www.w3.org/1999/xlink" width="54.55" height="54.55" viewBox="0 0 54.55 54.55"><defs><linearGradient id="a" x1="0.5" y1="0.063" x2="0.64" y2="1" gradientUnits="objectBoundingBox"><stop offset="0" stop-color="#98ffdf"/><stop offset="1" stop-color="#14ac7c"/></linearGradient><filter id="b" x="0" y="0" width="54.55" height="54.55" filterUnits="userSpaceOnUse"><feOffset dy="2" input="SourceAlpha"/><feGaussianBlur stdDeviation="3" result="c"/><feFlood flood-color="#4dd9ae"/><feComposite operator="in" in2="c"/><feComposite in="SourceGraphic"/></filter></defs><g transform="translate(-144.5 -295.275)"><g transform="matrix(1, 0, 0, 1, 144.5, 295.27)" filter="url(#b)"><path d="M9.4,0H27.151a9.4,9.4,0,0,1,9.4,9.4V27.151a9.4,9.4,0,0,1-9.4,9.4H9.4a9.4,9.4,0,0,1-9.4-9.4V9.4A9.4,9.4,0,0,1,9.4,0Z" transform="translate(9 7)" fill="url(#a)"/></g><g transform="translate(159.498 311.275)"><g transform="translate(0.002)"><g transform="translate(0)"><path d="M16.352,1.492q-.134-.157-.224-.157l-3.2-.089a11.12,11.12,0,0,0-1.529.2,3.945,3.945,0,0,1-1.555.045,1.976,1.976,0,0,1-.585-.2A.936.936,0,0,1,8.891.917a2.3,2.3,0,0,0-.5-.626A1.193,1.193,0,0,0,7.623,0,2.45,2.45,0,0,0,6.072.585,1.8,1.8,0,0,0,5.7,2.047a2.64,2.64,0,0,1,.045.336q.022.224-.045.291a7.242,7.242,0,0,1-.552.518,2.752,2.752,0,0,1-.63.429A18.988,18.988,0,0,0,2.2,4.881,11.291,11.291,0,0,0,.154,6.522a.746.746,0,0,0-.112.246q-.067.134-.022.2.045.157.451.2a1.354,1.354,0,0,0,.2-.022.984.984,0,0,0,.179-.089L12.888,3.147q2.655-.854,3.24-1.055a.455.455,0,0,0,.2-.179.686.686,0,0,0,.157-.224q0-.067-.134-.179M7.832.72A4.626,4.626,0,0,1,8.8,2.092q-1.641.854-2.025.585A1.119,1.119,0,0,1,6.5,1.712,1.413,1.413,0,0,1,7.068.9Q7.519.53,7.832.723m11.265.85A2.092,2.092,0,0,0,18.828,3.1a9.937,9.937,0,0,1,.089,1.439,2.256,2.256,0,0,1-.563,1.327l.179.045a1.779,1.779,0,0,0,1.148-.832,2.815,2.815,0,0,0,.224-1.663,4.251,4.251,0,0,1-.022-1.439A2.756,2.756,0,0,1,20.51.585a2.841,2.841,0,0,0-1.395.988m2.879,1.685a5.329,5.329,0,0,1,0-1.216,2.058,2.058,0,0,1,.5-1.171,1.864,1.864,0,0,0-1.171.787,2.163,2.163,0,0,0-.179,1.492,3.949,3.949,0,0,1,.022,1.119,2.364,2.364,0,0,1-.5,1.119,1.976,1.976,0,0,0,1.119-.746,2.062,2.062,0,0,0,.2-1.395m1.767,5.433a1.119,1.119,0,0,0-.63,0l-2.364.373q.067-.474.089-.675a3.7,3.7,0,0,1,.112-.563,1.64,1.64,0,0,1,.112-.313.97.97,0,0,0,.157-.268q-.246-.089-.339-.134a1.935,1.935,0,0,0-.373-.045Q13.586,7.04,4.849,7.04a2.938,2.938,0,0,0-.541.022.373.373,0,0,0-.373.246.224.224,0,0,0,.089.313.873.873,0,0,1,.339.675,4.818,4.818,0,0,1-.022.764l-2.386-.4q-.764-.134-.876.5a.7.7,0,0,0,.089.563.832.832,0,0,0,.474.313,1.193,1.193,0,0,0,.246.067l.966.2q.563.112.988.179a.787.787,0,0,1,.451.179.861.861,0,0,1,.112.5q-.045,2.565,0,4.251a6.954,6.954,0,0,0,.313,1.753,1.939,1.939,0,0,0,.787,1.119,2.211,2.211,0,0,0,1.327.373H12.5q3.375-.022,5.69.022a2.446,2.446,0,0,0,1.734-.585,2.778,2.778,0,0,0,.72-1.372,6.015,6.015,0,0,0,.157-1.372q.045-2.405,0-3.982a.94.94,0,0,1,.134-.63.791.791,0,0,1,.571-.287q.406-.045.943-.157.336-.067.943-.224A1.16,1.16,0,0,0,24,9.688a.694.694,0,0,0,.134-.585.623.623,0,0,0-.373-.451m-18.3-.533L6.34,8.1a15.848,15.848,0,0,1,.112,2.345L6.385,12.8a12.519,12.519,0,0,0,.608,4.68q-1.025.108-1.4-1.242a2.983,2.983,0,0,1-.134-.787Q5.464,14.237,5.464,8.118Z" transform="translate(-0.002)" fill="#fff"/></g></g></g></g></svg>