<svg xmlns="http://www.w3.org/2000/svg" xmlns:xlink="http://www.w3.org/1999/xlink" width="54.55" height="54.55" viewBox="0 0 54.55 54.55"><defs><linearGradient id="a" x1="0.5" x2="0.5" y2="1" gradientUnits="objectBoundingBox"><stop offset="0" stop-color="#ff006c"/><stop offset="1" stop-color="#c90055"/></linearGradient><filter id="b" x="0" y="0" width="54.55" height="54.55" filterUnits="userSpaceOnUse"><feOffset dy="2" input="SourceAlpha"/><feGaussianBlur stdDeviation="3" result="c"/><feFlood flood-color="#dbe3ff"/><feComposite operator="in" in2="c"/><feComposite in="SourceGraphic"/></filter></defs><g transform="translate(-99 -1967)"><g transform="matrix(1, 0, 0, 1, 99, 1967)" filter="url(#b)"><path d="M9.4,0H27.151a9.4,9.4,0,0,1,9.4,9.4V27.151a9.4,9.4,0,0,1-9.4,9.4H9.4a9.4,9.4,0,0,1-9.4-9.4V9.4A9.4,9.4,0,0,1,9.4,0Z" transform="translate(9 7)" fill="url(#a)"/></g><g transform="translate(110.998 1981)"><g transform="translate(0.002)"><path d="M20.558,1.875q-.169-.2-.281-.2l-4.018-.113a13.98,13.98,0,0,0-1.922.253,4.96,4.96,0,0,1-1.955.056,2.485,2.485,0,0,1-.736-.253,1.177,1.177,0,0,1-.469-.469,2.888,2.888,0,0,0-.633-.788A1.5,1.5,0,0,0,9.584,0a3.08,3.08,0,0,0-1.95.736,2.269,2.269,0,0,0-.469,1.838A3.319,3.319,0,0,1,7.221,3q.028.281-.056.366a9.1,9.1,0,0,1-.694.652,3.46,3.46,0,0,1-.792.539A23.872,23.872,0,0,0,2.767,6.137,14.2,14.2,0,0,0,.193,8.2a.938.938,0,0,0-.141.309q-.084.169-.028.253.056.2.567.253a1.7,1.7,0,0,0,.253-.028,1.238,1.238,0,0,0,.225-.113L16.2,3.957q3.338-1.074,4.074-1.327a.572.572,0,0,0,.253-.225.863.863,0,0,0,.2-.281q0-.084-.169-.225M9.846.9A5.815,5.815,0,0,1,11.06,2.63Q9,3.7,8.515,3.366a1.406,1.406,0,0,1-.338-1.214,1.777,1.777,0,0,1,.708-1.017q.567-.469.961-.225M24.009,1.978A2.63,2.63,0,0,0,23.671,3.9a12.494,12.494,0,0,1,.113,1.81,2.836,2.836,0,0,1-.708,1.669l.225.056A2.236,2.236,0,0,0,24.745,6.39,3.54,3.54,0,0,0,25.026,4.3,5.344,5.344,0,0,1,25,2.489,3.465,3.465,0,0,1,25.786.736a3.572,3.572,0,0,0-1.753,1.242M27.652,4.1a6.7,6.7,0,0,1,0-1.528A2.588,2.588,0,0,1,28.275,1.1a2.344,2.344,0,0,0-1.472.989,2.719,2.719,0,0,0-.225,1.875,4.965,4.965,0,0,1,.028,1.406,2.972,2.972,0,0,1-.624,1.406,2.485,2.485,0,0,0,1.406-.938,2.593,2.593,0,0,0,.253-1.753m2.222,6.831a1.406,1.406,0,0,0-.792,0l-2.972.469q.084-.6.113-.849a4.65,4.65,0,0,1,.141-.708,2.063,2.063,0,0,1,.141-.394,1.219,1.219,0,0,0,.2-.338q-.309-.113-.427-.169A2.433,2.433,0,0,0,25.8,8.87Q17.08,8.851,6.1,8.851a3.694,3.694,0,0,0-.68.028.469.469,0,0,0-.469.309.281.281,0,0,0,.113.394,1.1,1.1,0,0,1,.427.849,6.057,6.057,0,0,1-.028.961l-3-.506q-.961-.169-1.1.624a.886.886,0,0,0,.113.708,1.045,1.045,0,0,0,.6.394,1.5,1.5,0,0,0,.309.084l1.214.253q.708.141,1.242.225A.989.989,0,0,1,5.4,13.4a1.083,1.083,0,0,1,.141.624q-.056,3.225,0,5.344a8.743,8.743,0,0,0,.394,2.2,2.438,2.438,0,0,0,.989,1.406,2.78,2.78,0,0,0,1.669.469h7.126q4.243-.028,7.154.028a3.075,3.075,0,0,0,2.18-.736,3.493,3.493,0,0,0,.9-1.725,7.562,7.562,0,0,0,.2-1.725q.056-3.024,0-5.007a1.181,1.181,0,0,1,.169-.792.994.994,0,0,1,.717-.361q.511-.056,1.186-.2.422-.084,1.186-.281a1.458,1.458,0,0,0,.764-.469.872.872,0,0,0,.169-.736.783.783,0,0,0-.469-.567m-23-.67,1.1-.028a19.925,19.925,0,0,1,.141,2.949l-.084,2.968a15.74,15.74,0,0,0,.764,5.884q-1.289.136-1.758-1.561a3.751,3.751,0,0,1-.169-.989Q6.869,17.9,6.869,10.206Z" transform="translate(-0.002)" fill="#fff"/></g></g></g></svg>