<svg xmlns="http://www.w3.org/2000/svg" xmlns:xlink="http://www.w3.org/1999/xlink" width="54.55" height="54.55" viewBox="0 0 54.55 54.55"><defs><linearGradient id="a" x1="0.5" x2="0.5" y2="1" gradientUnits="objectBoundingBox"><stop offset="0" stop-color="#ff2c32"/><stop offset="1" stop-color="#d81f0c"/></linearGradient><filter id="b" x="0" y="0" width="54.55" height="54.55" filterUnits="userSpaceOnUse"><feOffset dy="2" input="SourceAlpha"/><feGaussianBlur stdDeviation="3" result="c"/><feFlood flood-color="#dbe3ff"/><feComposite operator="in" in2="c"/><feComposite in="SourceGraphic"/></filter></defs><g transform="translate(-770 -2650)"><g transform="translate(625.5 2355)"><g transform="matrix(1, 0, 0, 1, 144.5, 295)" filter="url(#b)"><path d="M9.4,0H27.151a9.4,9.4,0,0,1,9.4,9.4V27.151a9.4,9.4,0,0,1-9.4,9.4H9.4a9.4,9.4,0,0,1-9.4-9.4V9.4A9.4,9.4,0,0,1,9.4,0Z" transform="translate(9 7)" fill="url(#a)"/></g></g><g transform="translate(780.426 2649.306)"><g transform="translate(2.574 15.694)"><path d="M49.453,21.074c-.152-.425-.273-.82-.425-1.215-.577-1.732-1.063-3.251-2.339-3.889a4.159,4.159,0,0,0-3.19.091,5.739,5.739,0,0,0-.76.334H36.57c-.273-.122-.517-.243-.76-.334a4.162,4.162,0,0,0-3.19-.091c-1.276.638-1.762,2.127-2.339,3.889-.122.395-.273.82-.395,1.215a11.475,11.475,0,0,0-.486,1.884h1.185a9.132,9.132,0,0,1,.425-1.489c.152-.425.273-.851.425-1.246.486-1.489.911-2.765,1.732-3.19a3.053,3.053,0,0,1,2.279.152,5.287,5.287,0,0,1,.76.334.887.887,0,0,0,.273.061H42.92a.887.887,0,0,0,.273-.061c.273-.122.516-.243.76-.334a3.053,3.053,0,0,1,2.279-.152c.82.425,1.246,1.7,1.732,3.19.122.395.273.82.425,1.246a9.921,9.921,0,0,1,.577,3.129c0,.334-.03.668-.061,1-.182,1.063-.608,1.793-1.215,2.005a2.345,2.345,0,0,1-2.218-.79,8.671,8.671,0,0,1-2.218-3.524.584.584,0,0,0-.547-.395h-3.1a4,4,0,0,1,1.185,1.185h1.458a9.785,9.785,0,0,0,2.4,3.616A3.946,3.946,0,0,0,47.2,28.852a2.456,2.456,0,0,0,.82-.152,3.41,3.41,0,0,0,2.005-2.947A10.386,10.386,0,0,0,49.453,21.074Z" transform="translate(-21.25 -15.695)" fill="#fff"/><circle cx="0.729" cy="0.729" r="0.729" transform="translate(22.704 2.523)" fill="#fff"/><circle cx="0.729" cy="0.729" r="0.729" transform="translate(24.162 3.982)" fill="#fff"/><circle cx="0.729" cy="0.729" r="0.729" transform="translate(21.245 3.982)" fill="#fff"/><circle cx="0.729" cy="0.729" r="0.729" transform="translate(22.704 5.44)" fill="#fff"/><path d="M43.179,25h-.851a.144.144,0,0,0-.152.152v1.124H41.052a.144.144,0,0,0-.152.152v.851a.144.144,0,0,0,.152.152h1.094v1.124a.144.144,0,0,0,.152.152h.851a.144.144,0,0,0,.152-.152V27.431h1.124a.144.144,0,0,0,.152-.152v-.851a.144.144,0,0,0-.152-.152H43.3V25.152A.122.122,0,0,0,43.179,25Z" transform="translate(-29.256 -22.173)" fill="#fff"/><path d="M22.361,45.159c-.577-1.732-1.063-3.251-2.339-3.889a4.159,4.159,0,0,0-3.19.091,5.738,5.738,0,0,0-.76.334H9.9c-.273-.122-.517-.243-.76-.334a4.162,4.162,0,0,0-3.19-.091c-1.306.638-1.793,2.157-2.339,3.889-.122.395-.273.82-.395,1.215a9.526,9.526,0,0,0-.547,4.679A3.451,3.451,0,0,0,4.678,54a3.476,3.476,0,0,0,3.4-1,10.17,10.17,0,0,0,2.4-3.616h5.1A9.54,9.54,0,0,0,17.986,53a3.946,3.946,0,0,0,2.552,1.155A2.791,2.791,0,0,0,21.389,54a3.41,3.41,0,0,0,2.005-2.947,9.855,9.855,0,0,0-.547-4.679A6.762,6.762,0,0,1,22.361,45.159ZM22.179,50.9c-.182,1.063-.608,1.793-1.246,2.005a2.345,2.345,0,0,1-2.218-.79A8.671,8.671,0,0,1,16.5,48.592a.584.584,0,0,0-.547-.395H10.026a.584.584,0,0,0-.547.425,8.351,8.351,0,0,1-2.218,3.494,2.345,2.345,0,0,1-2.218.79A2.394,2.394,0,0,1,3.8,50.9a8.645,8.645,0,0,1,.517-4.1c.152-.425.3-.851.425-1.246.486-1.489.911-2.765,1.732-3.19a3.053,3.053,0,0,1,2.279.152,5.288,5.288,0,0,1,.76.334.887.887,0,0,0,.273.061h6.441a.887.887,0,0,0,.273-.061c.273-.122.517-.243.76-.334a3.053,3.053,0,0,1,2.279-.152c.82.425,1.246,1.7,1.732,3.19.122.395.273.82.425,1.246h0A9,9,0,0,1,22.179,50.9Z" transform="translate(-2.574 -33.308)" fill="#fff"/><circle cx="0.729" cy="0.729" r="0.729" transform="translate(14.713 10.21)" fill="#fff"/><circle cx="0.729" cy="0.729" r="0.729" transform="translate(16.171 11.669)" fill="#fff"/><circle cx="0.729" cy="0.729" r="0.729" transform="translate(13.224 11.669)" fill="#fff"/><circle cx="0.729" cy="0.729" r="0.729" transform="translate(14.713 13.127)" fill="#fff"/><path d="M18.085,51.676H16.961V50.552a.144.144,0,0,0-.152-.152h-.851a.144.144,0,0,0-.152.152v1.124H14.652a.144.144,0,0,0-.152.152v.851a.144.144,0,0,0,.152.152h1.124v1.124a.144.144,0,0,0,.152.152h.851a.144.144,0,0,0,.152-.152V52.831h1.124a.144.144,0,0,0,.152-.152v-.851C18.237,51.737,18.176,51.676,18.085,51.676Z" transform="translate(-10.877 -39.856)" fill="#fff"/></g></g></g></svg>