<svg xmlns="http://www.w3.org/2000/svg" xmlns:xlink="http://www.w3.org/1999/xlink" width="54.55" height="54.55" viewBox="0 0 54.55 54.55"><defs><linearGradient id="a" x1="0.5" x2="0.5" y2="1" gradientUnits="objectBoundingBox"><stop offset="0" stop-color="#d0e931"/><stop offset="1" stop-color="#acc10a"/></linearGradient><filter id="b" x="0" y="0" width="54.55" height="54.55" filterUnits="userSpaceOnUse"><feOffset dy="2" input="SourceAlpha"/><feGaussianBlur stdDeviation="3" result="c"/><feFlood flood-color="#dbe3ff"/><feComposite operator="in" in2="c"/><feComposite in="SourceGraphic"/></filter></defs><g transform="translate(-98 -397)"><g transform="matrix(1, 0, 0, 1, 98, 397)" filter="url(#b)"><path d="M9.4,0H27.151a9.4,9.4,0,0,1,9.4,9.4V27.151a9.4,9.4,0,0,1-9.4,9.4H9.4a9.4,9.4,0,0,1-9.4-9.4V9.4A9.4,9.4,0,0,1,9.4,0Z" transform="translate(9 7)" fill="url(#a)"/></g><g transform="translate(117 409.001)"><g transform="translate(0 -0.001)"><path d="M17.539,15.4H16.531V24.17h1V15.4m-2.874.057a.457.457,0,0,0,.026.114v8.58h1.039v-.566l.026-5.867V16.349q-.026-.52-.026-.728a.462.462,0,0,0-.026-.14l-.026-.083q-.223,0-1,.057m-.728-.057.728.057.026-.39h1.039l.026.338h.712l.026-.364h1.039V14.55H16.5l-.026-.338h-.7l-.026.307H14.712l-.026-.281h-.728l-.026.307H12.893v.52h1.039V15.4H12.9V24.17h1.039V15.4m1.128-4.947a.915.915,0,0,0-.67-.281.868.868,0,0,0-.644.249,1.039,1.039,0,0,0-.307.67.936.936,0,1,0,1.871.031.967.967,0,0,0-.249-.67M8.154,5.477a1.8,1.8,0,0,0-1.315.561,1.71,1.71,0,0,0-.556,1.284A1.736,1.736,0,0,0,6.8,8.662a1.767,1.767,0,0,0,1.341.561A1.668,1.668,0,0,0,9.427,8.7a1.808,1.808,0,0,0,.587-1.284,1.912,1.912,0,0,0-.52-1.367,1.772,1.772,0,0,0-1.341-.561M8.964.171a.437.437,0,0,0-.13.083Q5.81,2.827,4.246,4.11a1,1,0,0,0-.281.364.717.717,0,0,0-.083.447.249.249,0,0,1-.026.114.114.114,0,0,1-.057.109,1.039,1.039,0,0,1-.249.223q-.166.14-.249.223a.852.852,0,0,0-.977,0,1,1,0,0,0-.281.364.9.9,0,0,0,0,.447q.057.166-.026.2a.5.5,0,0,1-.2.026.837.837,0,0,0-.644.2.868.868,0,0,0-.281.613,1.086,1.086,0,0,0-.057.14.353.353,0,0,1-.083.14L.39,8.023Q.14,8.247,0,8.361l.52.587.364-.307L.909,11.3a.852.852,0,0,0,.234.655.878.878,0,0,0,.67.2l1.824-.161H4.859q.057.868.083,2.765-.556.785-1.424,1.819T2.6,17.715A2.416,2.416,0,0,0,2.624,20.2L2.4,20.085a.447.447,0,0,0-.281.114.218.218,0,0,0-.026.307q.447.587.977,1.232a5.2,5.2,0,0,1,.566.842,5.129,5.129,0,0,1,.281.67q.223.026-.057.613-.109.223-.281.52-.618,1.081.057,1.185t1.814-1.2a1.97,1.97,0,0,0,.333-.52q.307-.644-.447-1.039H5.2a.108.108,0,0,0,.083-.057.67.67,0,0,0,.281-.2.27.27,0,0,0,.109-.14.78.78,0,0,0-.083-.52q-.894-2.079-1.143-2.624a.312.312,0,0,1-.026-.14V19.1a13.366,13.366,0,0,1,1.731-2.349l1.59,2.708q.109.249.2.52.249,1.143.728,3.352a.676.676,0,0,0-.281.951,2.931,2.931,0,0,0,.333.52q1.159,1.268,1.814,1.18t.057-1.174q-.166-.281-.281-.52l-.14-.338q.811.473.748-.982-.223-3.856-.894-3.045a8.99,8.99,0,0,0-.67-2.079q-.249-.52-.556-1.232-.057-.114-.52-1.232-.026-.083-.057-.2a.52.52,0,0,1,.026-.166q.109-.52.868-3.243A1.559,1.559,0,0,0,9.053,10.6,1.559,1.559,0,0,0,8.1,9.93L7.993,9.9,4.947,8.761q-.057,0-.109-.083a.436.436,0,0,1-.083-.114Q4.672,8.4,4,6.8q-.2-.421-.14-.52a1.346,1.346,0,0,1,.364-.421.728.728,0,0,1,.2-.114.572.572,0,0,1,.249,0,.816.816,0,0,0,.868-.2q.307-.281.811-.7.249-.223.811-.67L10.175,1.61a.52.52,0,0,0,.218-.405.65.65,0,0,0-.166-.473L9.874.337a.52.52,0,0,0-.2-.2A.4.4,0,0,0,9.411,0a.613.613,0,0,0-.447.166M3.352,10.092l-.728.083L2.567,8H2.6Z" transform="translate(0 0.001)" fill="#fff"/><path d="M5,17.563l.728-.083-.754-2.1H4.94Z" transform="translate(-2.373 -7.387)" fill="#fff"/></g></g></g></svg>