<svg xmlns="http://www.w3.org/2000/svg" xmlns:xlink="http://www.w3.org/1999/xlink" width="34" height="34" viewBox="0 0 34 34"><defs><clipPath id="a"><rect width="34" height="34" rx="6" transform="translate(288.757 110.757)" fill="#e3e9ff"/></clipPath></defs><g transform="translate(-288.757 -110.757)" clip-path="url(#a)"><g transform="translate(294.432 110.974)"><g transform="translate(0 0)"><path d="M22.651,19.886h-1.3V31.215h1.3V19.886m-3.711.074a.591.591,0,0,0,.034.148V31.188h1.342v-.732l.034-7.577V21.114q-.034-.671-.034-.94a.6.6,0,0,0-.034-.181l-.034-.107q-.289,0-1.3.074m-.94-.074.94.074.034-.5h1.342l.034.436h.919l.034-.47h1.342v-.631H21.309l-.034-.436h-.9l-.034.4H19l-.034-.362h-.94l-.034.4H16.651v.671h1.342v.436H16.665V31.215h1.342V19.886M19.463,13.5a1.181,1.181,0,0,0-.866-.362,1.121,1.121,0,0,0-.832.322,1.342,1.342,0,0,0-.4.866,1.208,1.208,0,1,0,2.416.04,1.248,1.248,0,0,0-.322-.866M10.53,7.073a2.322,2.322,0,0,0-1.7.725,2.208,2.208,0,0,0-.718,1.658,2.242,2.242,0,0,0,.671,1.732,2.282,2.282,0,0,0,1.732.725,2.154,2.154,0,0,0,1.658-.671,2.336,2.336,0,0,0,.758-1.658,2.47,2.47,0,0,0-.671-1.765,2.289,2.289,0,0,0-1.732-.725M11.577.221a.564.564,0,0,0-.168.107Q7.5,3.651,5.483,5.308a1.3,1.3,0,0,0-.362.47.926.926,0,0,0-.107.577A.322.322,0,0,1,4.98,6.5a.148.148,0,0,1-.074.141,1.342,1.342,0,0,1-.322.289q-.215.181-.322.289A1.1,1.1,0,0,0,3,7.221a1.3,1.3,0,0,0-.362.47,1.168,1.168,0,0,0,0,.577q.074.215-.034.255a.642.642,0,0,1-.255.034,1.081,1.081,0,0,0-.832.255,1.121,1.121,0,0,0-.362.792,1.4,1.4,0,0,0-.074.181.456.456,0,0,1-.107.181l-.47.4q-.322.289-.5.436l.671.758.47-.4.034,3.43a1.1,1.1,0,0,0,.3.846,1.134,1.134,0,0,0,.866.255L4.7,15.483H6.275q.074,1.121.107,3.571Q5.665,20.067,4.544,21.4T3.356,22.879a3.121,3.121,0,0,0,.034,3.208L3.1,25.94a.577.577,0,0,0-.362.148.282.282,0,0,0-.034.4q.577.758,1.262,1.591A6.712,6.712,0,0,1,4.7,29.161a6.624,6.624,0,0,1,.362.866q.289.034-.074.792-.141.289-.362.671-.8,1.4.074,1.53T7.04,31.47a2.544,2.544,0,0,0,.43-.671q.4-.832-.577-1.342H6.712a.14.14,0,0,0,.107-.074.866.866,0,0,0,.362-.255.349.349,0,0,0,.141-.181,1.007,1.007,0,0,0-.107-.671Q6.06,25.591,5.738,24.886A.4.4,0,0,1,5.7,24.7v-.034A17.263,17.263,0,0,1,7.94,21.637l2.054,3.5q.141.322.255.671.322,1.477.94,4.329a.872.872,0,0,0-.362,1.228,3.786,3.786,0,0,0,.43.671q1.5,1.638,2.342,1.524t.074-1.517q-.215-.362-.362-.671l-.181-.436q1.047.611.966-1.268-.289-4.98-1.154-3.933a11.611,11.611,0,0,0-.866-2.685q-.322-.671-.718-1.591-.074-.148-.671-1.591-.034-.107-.074-.255a.671.671,0,0,1,.034-.215q.141-.671,1.121-4.188a2.013,2.013,0,0,0-.074-1.517,2.013,2.013,0,0,0-1.228-.866l-.141-.034L6.389,11.315q-.074,0-.141-.107a.564.564,0,0,1-.107-.148q-.107-.215-.973-2.275-.255-.544-.181-.671a1.738,1.738,0,0,1,.47-.544.94.94,0,0,1,.255-.148.738.738,0,0,1,.322,0,1.054,1.054,0,0,0,1.121-.255q.4-.362,1.047-.9.322-.289,1.047-.866L13.141,2.08a.671.671,0,0,0,.282-.524.839.839,0,0,0-.215-.611l-.456-.51A.671.671,0,0,0,12.5.181.517.517,0,0,0,12.155,0a.792.792,0,0,0-.577.215M4.329,13.033l-.94.107-.074-2.812h.04Z" transform="translate(0 0.001)"/><path d="M5.605,20.04l.94-.107-.973-2.711h-.04Z" transform="translate(-2.216 -6.898)" fill="#fff"/></g></g></g></svg>