<svg xmlns="http://www.w3.org/2000/svg" width="32" height="32" viewBox="0 0 32 32"><g transform="translate(-23 -539)"><rect width="32" height="32" rx="16" transform="translate(23 539)" fill="rgba(142,8,191,0.1)"/><g transform="translate(32 544)"><g transform="translate(0 0)"><path d="M14.244,12.5h-.819v7.124h.815V12.5m-2.334.046a.371.371,0,0,0,.021.093v6.968h.844v-.46l.021-4.765v-1.11q-.021-.422-.021-.591a.376.376,0,0,0-.021-.114l-.021-.068q-.181,0-.815.046m-.591-.046.591.046.021-.317h.844l.021.274h.578l.021-.3h.844v-.4H13.4l-.021-.274h-.566l-.021.249h-.844l-.021-.228h-.591l-.021.249h-.844v.422h.844v.274h-.836v7.12h.844V12.5m.916-4.018a.743.743,0,0,0-.544-.228.7.7,0,0,0-.523.2.844.844,0,0,0-.249.544.76.76,0,1,0,1.519.025.785.785,0,0,0-.2-.544M6.622,4.448A1.46,1.46,0,0,0,5.554,4.9,1.389,1.389,0,0,0,5.1,5.946a1.41,1.41,0,0,0,.422,1.089,1.435,1.435,0,0,0,1.089.456,1.355,1.355,0,0,0,1.042-.422,1.469,1.469,0,0,0,.477-1.042,1.553,1.553,0,0,0-.422-1.11A1.439,1.439,0,0,0,6.622,4.46M7.28.139a.355.355,0,0,0-.106.068Q4.718,2.3,3.448,3.338a.815.815,0,0,0-.228.3A.582.582,0,0,0,3.153,4a.2.2,0,0,1-.021.093.093.093,0,0,1-.046.089.844.844,0,0,1-.2.181q-.135.114-.2.181a.692.692,0,0,0-.793,0,.815.815,0,0,0-.228.3.734.734,0,0,0,0,.363q.046.135-.021.16a.4.4,0,0,1-.16.021.679.679,0,0,0-.523.16.7.7,0,0,0-.228.5.882.882,0,0,0-.046.114.287.287,0,0,1-.068.114l-.3.249Q.114,6.7,0,6.79l.422.477.3-.249L.739,9.175a.692.692,0,0,0,.19.532.713.713,0,0,0,.544.16l1.481-.131h.992q.046.7.068,2.245-.452.637-1.156,1.477t-.747.929A1.963,1.963,0,0,0,2.131,16.4l-.181-.093a.363.363,0,0,0-.228.093.177.177,0,0,0-.021.249q.363.477.793,1a4.221,4.221,0,0,1,.46.684,4.165,4.165,0,0,1,.228.544q.181.021-.046.5-.089.181-.228.422-.5.878.046.962t1.473-.975a1.6,1.6,0,0,0,.27-.422q.249-.523-.363-.844H4.22a.088.088,0,0,0,.068-.046.544.544,0,0,0,.228-.16A.219.219,0,0,0,4.6,18.2a.633.633,0,0,0-.068-.422q-.726-1.688-.929-2.131a.253.253,0,0,1-.021-.114v-.021a10.855,10.855,0,0,1,1.405-1.908l1.291,2.2q.089.2.16.422.2.929.591,2.722a.549.549,0,0,0-.228.772,2.38,2.38,0,0,0,.27.422q.941,1.03,1.473.958t.046-.954q-.135-.228-.228-.422l-.114-.274q.658.384.608-.8-.181-3.132-.726-2.473a7.3,7.3,0,0,0-.544-1.688q-.2-.422-.452-1-.046-.093-.422-1-.021-.068-.046-.16a.422.422,0,0,1,.021-.135q.089-.422.7-2.634a1.266,1.266,0,0,0-.046-.954,1.266,1.266,0,0,0-.772-.544l-.089-.021L4.018,7.115q-.046,0-.089-.068a.354.354,0,0,1-.068-.093q-.068-.135-.612-1.431-.16-.342-.114-.422a1.093,1.093,0,0,1,.3-.342.591.591,0,0,1,.16-.093.464.464,0,0,1,.2,0,.663.663,0,0,0,.7-.16q.249-.228.658-.566.2-.181.658-.544L8.264,1.308A.422.422,0,0,0,8.441.978.528.528,0,0,0,8.306.594L8.019.274a.422.422,0,0,0-.16-.16A.325.325,0,0,0,7.643,0,.5.5,0,0,0,7.28.134M2.722,8.2l-.591.068L2.085,6.495H2.11Z" transform="translate(0 0.001)" fill="#8e08bf"/><path d="M5.578,18.994l.591-.068-.612-1.705H5.531Z" transform="translate(-3.447 -10.73)" fill="#8e08bf"/></g></g></g></svg>