<svg xmlns="http://www.w3.org/2000/svg" xmlns:xlink="http://www.w3.org/1999/xlink" width="54.55" height="54.55" viewBox="0 0 54.55 54.55"><defs><linearGradient id="a" x1="0.5" x2="0.54" y2="0.768" gradientUnits="objectBoundingBox"><stop offset="0" stop-color="#926fff"/><stop offset="1" stop-color="#5d37fa"/></linearGradient><filter id="b" x="0" y="0" width="54.55" height="54.55" filterUnits="userSpaceOnUse"><feOffset dy="2" input="SourceAlpha"/><feGaussianBlur stdDeviation="3" result="c"/><feFlood flood-color="#dbe3ff"/><feComposite operator="in" in2="c"/><feComposite in="SourceGraphic"/></filter></defs><g transform="translate(-555 -1194)"><g transform="translate(564 1201)"><g transform="matrix(1, 0, 0, 1, -9, -7)" filter="url(#b)"><path d="M9.4,0H27.151a9.4,9.4,0,0,1,9.4,9.4V27.151a9.4,9.4,0,0,1-9.4,9.4H9.4a9.4,9.4,0,0,1-9.4-9.4V9.4A9.4,9.4,0,0,1,9.4,0Z" transform="translate(9 7)" fill="url(#a)"/></g></g><g transform="translate(5547.12 -5437.686)"><g transform="translate(-0.371 -0.097)"><rect width="1.389" height="5.99" rx="0.695" transform="translate(-4963.393 6642.783)" fill="#fff"/><rect width="1.389" height="5.514" rx="0.695" transform="translate(-4963.393 6651.229)" fill="#fff"/><g transform="translate(-4975.749 6645.878)"><ellipse cx="1.794" cy="1.794" rx="1.794" ry="1.794" transform="translate(0.253 0)" fill="#fff"/><rect width="1.851" height="7.943" rx="0.926" transform="translate(8.084 7.454) rotate(139)" fill="#fff"/><ellipse cx="1.794" cy="1.794" rx="1.794" ry="1.794" transform="matrix(-0.105, -0.995, 0.995, -0.105, 0.375, 8.465)" fill="#fff"/><rect width="1.852" height="7.943" rx="0.926" transform="translate(7.104 -0.017) rotate(45)" fill="#fff"/><path d="M13.191,1.156a.578.578,0,0,1,0-1.156h1.892a.578.578,0,0,1,0,1.156Zm-3.129,0a.578.578,0,0,1,0-1.156h1.891a.578.578,0,1,1,0,1.156Zm-3.13,0A.578.578,0,1,1,6.932,0H8.824a.578.578,0,1,1,0,1.156Zm-3.225,0A.578.578,0,0,1,3.707,0H5.6a.578.578,0,0,1,0,1.156Zm-3.129,0A.578.578,0,0,1,.578,0H2.47a.578.578,0,0,1,0,1.156Z" transform="translate(6.721 3.8)" fill="#fff"/></g><path d="M-5445.94,6957.394s-4.72,4.846.531,10.906c2.915,3.363,8.513,2.977,11.175-.267a9.142,9.142,0,0,0,2.235-5.382,8.1,8.1,0,0,0-1.682-5.178,6.947,6.947,0,0,0-7.394-2.677c-1.187.283-5.694,3.088-3.4,6.547s6.338,2.057,6.63-.259-1.231-3.084-2.5-2.811a2.016,2.016,0,0,0-1.628,1.914c0,.54-1.271.88-1.466-.117s1.4-2.79,2.363-3a3.71,3.71,0,0,1,4.219,1.615c1.549,2.1-.09,5.085-2.295,5.89s-5.193.628-6.631-2.54S-5445.94,6957.394-5445.94,6957.394Z" transform="translate(477.128 -299.513)" fill="#fff"/></g></g></g></svg>