<svg xmlns="http://www.w3.org/2000/svg" xmlns:xlink="http://www.w3.org/1999/xlink" width="54.55" height="54.55" viewBox="0 0 54.55 54.55"><defs><linearGradient id="a" x1="0.5" x2="0.5" y2="1" gradientUnits="objectBoundingBox"><stop offset="0" stop-color="#ff006c"/><stop offset="1" stop-color="#c90055"/></linearGradient><filter id="b" x="0" y="0" width="54.55" height="54.55" filterUnits="userSpaceOnUse"><feOffset dy="2" input="SourceAlpha"/><feGaussianBlur stdDeviation="3" result="c"/><feFlood flood-color="#dbe3ff"/><feComposite operator="in" in2="c"/><feComposite in="SourceGraphic"/></filter></defs><g transform="translate(-99 -2357)"><g transform="matrix(1, 0, 0, 1, 99, 2357)" filter="url(#b)"><path d="M9.4,0H27.151a9.4,9.4,0,0,1,9.4,9.4V27.151a9.4,9.4,0,0,1-9.4,9.4H9.4a9.4,9.4,0,0,1-9.4-9.4V9.4A9.4,9.4,0,0,1,9.4,0Z" transform="translate(9 7)" fill="url(#a)"/></g><g transform="translate(115.04 2368.996)"><g transform="translate(-0.04 0.004)"><path d="M3.127,2.911a2.42,2.42,0,0,0-1.075.312,10.034,10.034,0,0,0-.925.6A2.366,2.366,0,0,0,.18,5.314a1.382,1.382,0,0,0,.8,1.543.36.36,0,0,1,.075.134q.059.086.027.113a.909.909,0,0,0-.027.608,4.979,4.979,0,0,0,.145.6q.059.172.231.828l-.086.086L.573,8.885.519,9a3.269,3.269,0,0,1,.312.285,2.646,2.646,0,0,0,.344.258q.231.113.231.2T1.234,10a11.362,11.362,0,0,1-1.075.715.333.333,0,0,0-.2.231.538.538,0,0,0,.086.285,1.473,1.473,0,0,0,.285.312l.742.57q-.538.457-.538.769t.742.6q-.371.344-.344.6t.484.484a.43.43,0,0,1,.258.258.618.618,0,0,1,.027.344A.93.93,0,0,0,1.847,16a.871.871,0,0,0,.774.285,7.964,7.964,0,0,0,2.941-.6A1.075,1.075,0,0,1,6.3,15.6a.887.887,0,0,1,.457.538,7.388,7.388,0,0,1,.828,2.888,9.878,9.878,0,0,1-.312,3,7.426,7.426,0,0,1-2.086,3.57l-.484.457a1.113,1.113,0,0,0-.258.6l.145.059a5.49,5.49,0,0,0,2.344.172q.688-.086.828-.113a2.242,2.242,0,0,0,.774-.312,11.174,11.174,0,0,0,1.2-.914q.484-.43,1.113-1.027a11.663,11.663,0,0,1,1.258-1.075,3.694,3.694,0,0,1,1.613-.57l.457-.086.457-.113a.866.866,0,0,0,0-.538.726.726,0,0,0-.43-.344.8.8,0,0,1-.285-.172A7.033,7.033,0,0,1,12.306,19.5a7.646,7.646,0,0,1-.828-4.571,3.226,3.226,0,0,1,.285-.973,2.452,2.452,0,0,1,.629-.828q.312-.285.973-.828a4.221,4.221,0,0,0,.85-1.011l.629-.828a4.743,4.743,0,0,0,.538-.855,5.829,5.829,0,0,0,.484-1.941,8.959,8.959,0,0,0-.059-2,7.851,7.851,0,0,0-.2-.887q-.172-.6-.258-.914a1.818,1.818,0,0,0,.258.059l.258.059a2.85,2.85,0,0,1,1.2,1.371,2.436,2.436,0,0,1,.172,1.769,13.884,13.884,0,0,1-.973,2.312q-.2.43-.629,1.226a6.334,6.334,0,0,0-.43,1.285,3.425,3.425,0,0,0,.258,2.151,2.871,2.871,0,0,0,1.3,1.495,5.065,5.065,0,0,0,1.43.484,2.8,2.8,0,0,0,1.2-.027,1.855,1.855,0,0,0,1.027-.6,8.5,8.5,0,0,0,.6-.688q.2-.231.57-.742l-.4-.484a.925.925,0,0,0-.258.145,2.022,2.022,0,0,1-.258.086,4.674,4.674,0,0,1-.484.113,1.328,1.328,0,0,1-.457.027.952.952,0,0,1-.8-.742,1.441,1.441,0,0,1,.145-1.075q.285-.484.774-1.285L20.625,9.5a8.426,8.426,0,0,0,.828-1.828,5.861,5.861,0,0,0,.285-1.941,5.6,5.6,0,0,0-3.226-5.2,4.194,4.194,0,0,0-3.974,0q-.285.172-.656.43l-.656.457a2.828,2.828,0,0,1-.231-.2,2.791,2.791,0,0,0-.285-.172A7.587,7.587,0,0,0,7.784.082,7.34,7.34,0,0,0,5.1,1.077a10.121,10.121,0,0,0-1.027.635,1.887,1.887,0,0,0-.656.979A.323.323,0,0,1,3.3,2.8.35.35,0,0,1,3.127,2.911Z" transform="translate(0.04 -0.004)" fill="#fff"/></g></g></g></svg>