<svg xmlns="http://www.w3.org/2000/svg" xmlns:xlink="http://www.w3.org/1999/xlink" width="54.55" height="54.55" viewBox="0 0 54.55 54.55"><defs><linearGradient id="a" x1="0.5" x2="0.5" y2="1" gradientUnits="objectBoundingBox"><stop offset="0" stop-color="#ff006c"/><stop offset="1" stop-color="#c90055"/></linearGradient><filter id="b" x="0" y="0" width="54.55" height="54.55" filterUnits="userSpaceOnUse"><feOffset dy="2" input="SourceAlpha"/><feGaussianBlur stdDeviation="3" result="c"/><feFlood flood-color="#dbe3ff"/><feComposite operator="in" in2="c"/><feComposite in="SourceGraphic"/></filter></defs><g transform="translate(-99 -2292)"><g transform="matrix(1, 0, 0, 1, 99, 2292)" filter="url(#b)"><path d="M9.4,0H27.151a9.4,9.4,0,0,1,9.4,9.4V27.151a9.4,9.4,0,0,1-9.4,9.4H9.4a9.4,9.4,0,0,1-9.4-9.4V9.4A9.4,9.4,0,0,1,9.4,0Z" transform="translate(9 7)" fill="url(#a)"/></g><g transform="translate(112 2303)"><path d="M14.122,0l-.107.107Q11.346,2.742,10.4,3.72a1.793,1.793,0,0,0-.528,1.4v.354H5.586V9.941H5.372a2.09,2.09,0,0,0-1.894.7L2.321,11.8,0,14.083v.14l1.439,1.439q.877.843,1.472,1.439a4.142,4.142,0,0,0,1.124.95,2.141,2.141,0,0,0,1.478.174v4.423H9.868V23a1.838,1.838,0,0,0,.6,1.545l3.2,3.2.315.354h.214q2.214-2.214,3.338-3.3a2.2,2.2,0,0,0,.7-1.332v-.736h4.321V18.263a2.566,2.566,0,0,0,2.282-.843l1.545-1.545q.528-.495,1.545-1.512a2.051,2.051,0,0,0,.174-.208q-1.264-1.264-1.86-1.9-1.09-1.051-1.86-1.826a1.984,1.984,0,0,0-.809-.421,1.124,1.124,0,0,0-.421-.067,3.737,3.737,0,0,0-.421-.034V5.653H18.19v-.14a2.321,2.321,0,0,0-.736-2.107Q16.718,2.669,14.5.421A2.057,2.057,0,0,1,14.33.208L14.122,0M6.85,6.957V6.676H10.5a1.169,1.169,0,0,1,.629.174,1.343,1.343,0,0,1,.455.495q-.775.775-.983.95a2.192,2.192,0,0,0-.736,1.4.41.41,0,0,1-.073.107q-.073.067-.107.067a2.248,2.248,0,0,0-1.4.7q-.562.6-.843.916a1.281,1.281,0,0,1-.455-.388,1.124,1.124,0,0,1-.14-.562V6.957m4.428-2.422q.562-.6,1.371-1.4l1.371-1.371a.27.27,0,0,0,.107-.034l2.6,2.6a1,1,0,0,1,.315.6.95.95,0,0,1-.107.669.466.466,0,0,1-.174.208l-.247.174-.247.14-.247.174-.247.208-1.647-1.72L12.436,6.5a3.018,3.018,0,0,0-1.264-.95.253.253,0,0,1-.107-.174.421.421,0,0,1-.034-.281.893.893,0,0,1,.247-.562m-.247,5.513a.691.691,0,0,1,.174-.7L12.644,7.9l1.478-1.472q.77.809,1.158,1.2l1.4,1.4a1.056,1.056,0,0,1,.281.455,1.287,1.287,0,0,1,0,.6,5.159,5.159,0,0,0-5.934-.034m-.736,3.827a3.5,3.5,0,0,1,.281-1.371,4.024,4.024,0,0,1,.77-1.191,3.58,3.58,0,0,1,2.883-1.051,4.057,4.057,0,0,1,1.439.421,4.462,4.462,0,0,1,1.967,2.175,3.726,3.726,0,0,1,.247,1.512,3.372,3.372,0,0,1-1.158,2.6,3.563,3.563,0,0,1-2.7.95,3.636,3.636,0,0,1-1.478-.388,4.5,4.5,0,0,1-1.2-.91,4.012,4.012,0,0,1-.809-1.264,3.625,3.625,0,0,1-.247-1.478m-.208-2.843a4.788,4.788,0,0,0-.916,3.012A5.3,5.3,0,0,0,10.149,17a.972.972,0,0,1-1.017-.208L7.8,15.454,6.429,14.083q2.388-2.349,2.843-2.843a.826.826,0,0,1,.809-.208M7.9,17.173a4.58,4.58,0,0,0,.916.809,4.035,4.035,0,0,0,1.191.281,2.2,2.2,0,0,0,.455,1.439,4.647,4.647,0,0,0,.495.562q.174.174.562.528a.8.8,0,0,1-.736.6H6.743l-.034-.174V17.7a1.073,1.073,0,0,1,.489-.91.343.343,0,0,1,.174-.073q.073,0,.14.107a1.926,1.926,0,0,0,.388.354M6.288,12.155l.208.214-1.72,1.714L6.5,15.735q-.281.388-.421.6a6.232,6.232,0,0,1-.388.528.922.922,0,0,1-.95.208.922.922,0,0,1-.45-.208L1.545,14.122l.95-.916q.6-.6,1.793-1.753a.983.983,0,0,1,1.371-.14.41.41,0,0,1,.067.107L5.9,11.7l.174.247a.894.894,0,0,0,.214.208M11.38,22.517a5.136,5.136,0,0,0,.528-.348,6.775,6.775,0,0,1,.562-.388l1.618,1.652,1.686-1.652,1.017.736A.562.562,0,0,1,17,22.8a1.09,1.09,0,0,1-.281,1.124l-2.563,2.563-.107.067q-.315-.354-.421-.455l-1.124-1.124-1.158-1.158a1.686,1.686,0,0,1-.315-.562.562.562,0,0,1,.034-.421,1.017,1.017,0,0,1,.315-.315m1.826-1.686-1.618-1.613a1.186,1.186,0,0,1-.354-1.1,5.136,5.136,0,0,0,5.974.107l.073.034q-.034.107-.14.354a.8.8,0,0,1-.174.315q-.562.6-1.371,1.4-.916.916-1.4,1.371a.27.27,0,0,0-.107.034q-.562-.6-.877-.91m3.72-13.7a1.27,1.27,0,0,1,.669-.315q.809-.034,1.933-.034h1.933a.27.27,0,0,1,.107.034v3.72a1.012,1.012,0,0,1-.669.95,6.182,6.182,0,0,0-.562-.562,4.653,4.653,0,0,0-.562-.489,1.956,1.956,0,0,0-1.472-.421q-.107-.421-.14-.629a3.613,3.613,0,0,0-.208-.562,4.5,4.5,0,0,0-.455-.6L16.977,7.7q-.315-.315-.034-.562m5.676,4.1a.23.23,0,0,1,.107-.107q.107-.073.14-.034l.354.034a1.377,1.377,0,0,1,.315.14q.6.562,1.439,1.4.489.455,1.472,1.439l-.91.877-.877.877a9.3,9.3,0,0,1-.877.843,1.225,1.225,0,0,1-.315.214.736.736,0,0,1-.388.107A.5.5,0,0,1,22.658,17a.9.9,0,0,1-.315-.388l-.281-.388q-.174-.247-.281-.421l1.72-1.72L21.815,12.43q.635-.95.809-1.2m-3.967-.067a1.219,1.219,0,0,1,.489.247l2.669,2.669-1.231,1.264-1.478,1.512a.646.646,0,0,1-.388.247,1.248,1.248,0,0,1-.455.067,5.1,5.1,0,0,0-.14-5.968.809.809,0,0,1,.528-.034m-.247,7.2a2.169,2.169,0,0,0,1.056-.348,3.372,3.372,0,0,0,.843-.736l.174-.174.174-.174q.107-.174.247-.14a.3.3,0,0,1,.247.174.916.916,0,0,1,.14.247.466.466,0,0,1,.107.281v4.007a.961.961,0,0,1-.214.034H17.735a1.2,1.2,0,0,1-.95-.455.343.343,0,0,1-.067-.174.208.208,0,0,1,.107-.174l.354-.348a2.433,2.433,0,0,1,.354-.348,3.934,3.934,0,0,0,.6-.736,2.085,2.085,0,0,0,.275-.933Z" fill="#fff"/></g></g></svg>