<svg xmlns="http://www.w3.org/2000/svg" xmlns:xlink="http://www.w3.org/1999/xlink" width="54.55" height="54.55" viewBox="0 0 54.55 54.55"><defs><linearGradient id="a" x1="0.5" x2="0.5" y2="1" gradientUnits="objectBoundingBox"><stop offset="0" stop-color="#ff006c"/><stop offset="1" stop-color="#c90055"/></linearGradient><filter id="b" x="0" y="0" width="54.55" height="54.55" filterUnits="userSpaceOnUse"><feOffset dy="2" input="SourceAlpha"/><feGaussianBlur stdDeviation="3" result="c"/><feFlood flood-color="#dbe3ff"/><feComposite operator="in" in2="c"/><feComposite in="SourceGraphic"/></filter></defs><g transform="translate(-775 -2360)"><g transform="matrix(1, 0, 0, 1, 775, 2360)" filter="url(#b)"><path d="M9.4,0H27.151a9.4,9.4,0,0,1,9.4,9.4V27.151a9.4,9.4,0,0,1-9.4,9.4H9.4a9.4,9.4,0,0,1-9.4-9.4V9.4A9.4,9.4,0,0,1,9.4,0Z" transform="translate(9 7)" fill="url(#a)"/></g><g transform="translate(787.017 2369.021)"><path d="M17.721,11.843A5.9,5.9,0,1,0,28.333,8.306a6.043,6.043,0,0,0-.668-.747.983.983,0,1,0-1.346,1.425,5.375,5.375,0,0,1,.442.5,3.93,3.93,0,1,1-3.144-1.572.57.57,0,0,0,.177,0,.9.9,0,0,0,.658-.079.983.983,0,0,0,.413-1.326,6.623,6.623,0,0,0-2.751-2.771,5.276,5.276,0,0,0-1.179-.472,5.778,5.778,0,0,0-4.088.334l-.491.246a11.034,11.034,0,0,0-1.307.8,2.024,2.024,0,0,1-2.388,0,12.891,12.891,0,0,0-1.307-.8l-.511-.285a5.827,5.827,0,0,0-5.807.423A7.016,7.016,0,0,0,2,10.251v.118a11.663,11.663,0,0,0,.983,4.038,10.5,10.5,0,0,0,.983,1.759,13.373,13.373,0,0,0,.1,6.1,12.774,12.774,0,0,0,2.85,5.394A2.7,2.7,0,0,0,8,28.39a2.594,2.594,0,0,0,2.417-.344,2.84,2.84,0,0,0,1.15-2.388c0-1.287.108-3.026,1.051-4.019a1.965,1.965,0,0,1,1.258-.757,1.965,1.965,0,0,1,1.268.757c.983.983,1.091,2.732,1.051,4.019a2.84,2.84,0,0,0,1.15,2.388,2.594,2.594,0,0,0,1.523.5,2.506,2.506,0,0,0,.884-.157,2.633,2.633,0,0,0,1.091-.727,12.685,12.685,0,0,0,2.869-5.394,13.442,13.442,0,0,0,.393-2.506.984.984,0,1,0-1.965-.118,11.182,11.182,0,0,1-.334,2.142,10.808,10.808,0,0,1-2.417,4.559.815.815,0,0,1-.295.2.639.639,0,0,1-.6-.088.894.894,0,0,1-.334-.737c.069-2.407-.462-4.235-1.592-5.424a3.8,3.8,0,0,0-2.692-1.376A3.783,3.783,0,0,0,11.2,20.293c-1.13,1.189-1.67,3.017-1.592,5.424a.875.875,0,0,1-.344.737.639.639,0,0,1-.59.088.737.737,0,0,1-.295-.2A10.808,10.808,0,0,1,5.93,21.787a11.28,11.28,0,0,1,0-5.571.983.983,0,0,0-.157-.825,8.932,8.932,0,0,1-.983-1.769,9.6,9.6,0,0,1-.825-3.351H2.982l.983-.147A5.09,5.09,0,0,1,6.127,5.662a3.93,3.93,0,0,1,3.93-.324l.4.206a9.659,9.659,0,0,1,1.1.668,4,4,0,0,0,4.648,0,9.659,9.659,0,0,1,1.1-.668l.413-.206a3.93,3.93,0,0,1,2.722-.226,4.854,4.854,0,0,1,.786.314,4.323,4.323,0,0,1,.983.707A5.9,5.9,0,0,0,17.721,11.843Z" transform="translate(0)" fill="#fff"/><path d="M23.948,14.9a.983.983,0,0,0,.983-.983V12.93h.983a.983.983,0,1,0,0-1.965H24.93V9.983a.983.983,0,0,0-1.965,0v.983h-.983a.983.983,0,1,0,0,1.965h.983v.983A.983.983,0,0,0,23.948,14.9Z" transform="translate(-0.331 -0.105)" fill="#fff"/></g></g></svg>