<svg xmlns="http://www.w3.org/2000/svg" width="32" height="32" viewBox="0 0 32 32"><g transform="translate(-13872 -8407)"><rect width="32" height="32" rx="16" transform="translate(13872 8407)" fill="rgba(255,85,57,0.1)"/><path d="M11.231,21.5a.5.5,0,0,1-.456-.294L7.25,13.4H4.829A2.317,2.317,0,0,1,2.5,11.1V4.8A2.317,2.317,0,0,1,4.829,2.5H17.886a2.331,2.331,0,0,1,2.326,1.954l1.262,8.1a2.277,2.277,0,0,1-.547,1.859,2.338,2.338,0,0,1-1.778.788H14.474v3.1A3.226,3.226,0,0,1,11.231,21.5ZM8.073,12.792l3.471,7.686a2.218,2.218,0,0,0,1.93-2.179V14.7a.5.5,0,0,1,.5-.5h5.2a1.339,1.339,0,0,0,1.005-.45,1.279,1.279,0,0,0,.309-1.044l-1.262-8.1A1.326,1.326,0,0,0,17.894,3.5H8.073ZM4.829,3.5A1.316,1.316,0,0,0,3.5,4.8v6.3a1.316,1.316,0,0,0,1.329,1.3H7.073V3.5Z" transform="translate(13876.5 8411.5)" fill="#ff5539"/></g></svg>