<svg xmlns="http://www.w3.org/2000/svg" xmlns:xlink="http://www.w3.org/1999/xlink" width="54.55" height="54.55" viewBox="0 0 54.55 54.55"><defs><linearGradient id="a" x1="0.5" x2="0.5" y2="1" gradientUnits="objectBoundingBox"><stop offset="0" stop-color="#ff006c"/><stop offset="1" stop-color="#c90055"/></linearGradient><filter id="b" x="0" y="0" width="54.55" height="54.55" filterUnits="userSpaceOnUse"><feOffset dy="2" input="SourceAlpha"/><feGaussianBlur stdDeviation="3" result="c"/><feFlood flood-color="#dbe3ff"/><feComposite operator="in" in2="c"/><feComposite in="SourceGraphic"/></filter></defs><g transform="translate(-99 -2162)"><g transform="matrix(1, 0, 0, 1, 99, 2162)" filter="url(#b)"><path d="M9.4,0H27.151a9.4,9.4,0,0,1,9.4,9.4V27.151a9.4,9.4,0,0,1-9.4,9.4H9.4a9.4,9.4,0,0,1-9.4-9.4V9.4A9.4,9.4,0,0,1,9.4,0Z" transform="translate(9 7)" fill="url(#a)"/></g><g transform="translate(114.003 2173)"><g transform="translate(-0.004)"><path d="M20.06,19.455a.921.921,0,0,0-.64,1.573.85.85,0,0,0,.651.259.889.889,0,0,0,.651-.271.878.878,0,0,0,.254-.64.889.889,0,0,0-.271-.651.867.867,0,0,0-.662-.271m-2.727-4.24a1.849,1.849,0,0,1-.331.933,2.44,2.44,0,0,1-.7.674,4.7,4.7,0,0,1-.994.552,8.193,8.193,0,0,1-4.571.392,6.525,6.525,0,0,1-1.22-.342,4.8,4.8,0,0,1-1.1-.6,2.76,2.76,0,0,1-.668-.685,1.954,1.954,0,0,1-.309-.922H7.324l-.552.072a.778.778,0,0,0-.425.2,3.511,3.511,0,0,0-1.1,2.479.094.094,0,0,0,0,.061.127.127,0,0,0,0,.05,2.335,2.335,0,0,1,.353.331,1.739,1.739,0,0,0,.364.32,2.816,2.816,0,0,1,.806.767,4.919,4.919,0,0,1,.552.961.767.767,0,0,1,.033.155q0,.05,0,.155a1.4,1.4,0,0,0,0,.144.4.4,0,0,0,0,.144,5.918,5.918,0,0,1,.32,2.76,1.656,1.656,0,0,1-.1.414,1.065,1.065,0,0,1-.237.364,1.491,1.491,0,0,1-.425.271q-.166.061-.475.144a1.866,1.866,0,0,1-.364.033H5.685a.587.587,0,0,1,.044-1.165H6.1a1.485,1.485,0,0,1,.364,0,.232.232,0,0,0,.2-.033.375.375,0,0,0,.039-.177,4.875,4.875,0,0,0-.282-2.274.679.679,0,0,0-.094-.144l-.132-.166a1.441,1.441,0,0,1-.121-.177,5.686,5.686,0,0,0-.309-.552,2.512,2.512,0,0,0-.414-.475.933.933,0,0,0-.552-.259.828.828,0,0,0-.552.259,3.08,3.08,0,0,0-.767,1q-.1.2-.144.271a.685.685,0,0,1-.215.2.237.237,0,0,0-.083.144q-.039.188-.132.552a3.737,3.737,0,0,0-.1.552,2.8,2.8,0,0,0,0,.552q0,.188.033.552a.155.155,0,0,0,.039.094.144.144,0,0,0,.083.05h.806a.607.607,0,0,1,.436.166.5.5,0,0,1,.166.4.6.6,0,0,1-.166.425A.607.607,0,0,1,3.758,25a4.583,4.583,0,0,1-.552,0,2.043,2.043,0,0,1-.552-.1,1.5,1.5,0,0,1-.6-.364,1.226,1.226,0,0,1-.282-.618,6.172,6.172,0,0,1,.039-1.943q.033-.121.2-.662a1.838,1.838,0,0,0,.1-.674.287.287,0,0,1,0-.061,5.642,5.642,0,0,1,.552-1.021,3.528,3.528,0,0,1,.839-.828l.226-.155a.839.839,0,0,0,.177-.215.32.32,0,0,1,.182-.138l.116-.1a.342.342,0,0,0,.094-.188q0-.061.072-.5a4.323,4.323,0,0,1,.094-.5q.061-.215.188-.552t.2-.552l-.132.061a7.663,7.663,0,0,0-2.595,1.921,8.342,8.342,0,0,0-1.8,3.169,7.817,7.817,0,0,0-.215,3.561,3.224,3.224,0,0,0,.685,1.6,3.312,3.312,0,0,0,1.446.972,8.409,8.409,0,0,0,1,.271A12.261,12.261,0,0,0,4.8,27.57q.6.039,1.562.039h10.2q1.965,0,3.042-.033a8.2,8.2,0,0,0,1.3-.094,7.259,7.259,0,0,0,1.292-.271,3.23,3.23,0,0,0,2.451-2.606,6.68,6.68,0,0,0,.061-1.971,8.082,8.082,0,0,0-4.444-6.6l-.248-.121-.282-.121a.458.458,0,0,1,.033.083,5.67,5.67,0,0,1,.718,2.341.331.331,0,0,0,.061.188.453.453,0,0,0,.166.094,1.949,1.949,0,0,1,1.17,1.065,2.021,2.021,0,0,1,.177.773,1.987,1.987,0,0,1-1.3,1.9,1.9,1.9,0,0,1-1.573-.083,1.993,1.993,0,0,1-.85-.806,2.076,2.076,0,0,1-.248-1.159,1.871,1.871,0,0,1,.4-1.032,1.938,1.938,0,0,1,.933-.662.254.254,0,0,0,.144-.094.248.248,0,0,0,0-.166l-.039-.282q-.033-.188-.05-.287a5.222,5.222,0,0,0-.414-1.148,3.864,3.864,0,0,0-.745-.983.927.927,0,0,0-.464-.248,2.948,2.948,0,0,0-.552-.072m-1.435,7.2a.464.464,0,0,1,.05-.271.436.436,0,0,1,.259-.05h.878a.265.265,0,0,1,.342.342v1.032h1.1a.265.265,0,0,1,.2.061.282.282,0,0,1,.066.2q0,.508,0,1.021a.259.259,0,0,1-.05.188.248.248,0,0,1-.2.061h-1.1v1.032a.271.271,0,0,1-.353.353h-.9a.386.386,0,0,1-.215-.061.348.348,0,0,1-.05-.215v-1.1H14.816a.237.237,0,0,1-.3-.3v-.839q0-.287.061-.342a.624.624,0,0,1,.342-.05H15.9v-1.06M6.706,3.069a6.79,6.79,0,0,0-.983,2.3,6.989,6.989,0,0,0-.094,2.595A12.515,12.515,0,0,0,7.5,12.891a10.45,10.45,0,0,0,1.1,1.446,7.237,7.237,0,0,0,1.375,1.17,4.074,4.074,0,0,0,4.549.155,6.724,6.724,0,0,0,1.529-1.242,12.085,12.085,0,0,0,2.727-4.969,9.385,9.385,0,0,0,.364-1.767,7.525,7.525,0,0,0-.033-1.811,6.592,6.592,0,0,0-.784-2.313A6.823,6.823,0,0,0,12.359.039V0l-.767.1a6.84,6.84,0,0,0-.773.121A6.625,6.625,0,0,0,8.461,1.281,6.674,6.674,0,0,0,6.706,3.069m1.573.723.1.226a1.5,1.5,0,0,0,.116.2,2.468,2.468,0,0,0,1.1.972,4.6,4.6,0,0,0,1.077.381,7.834,7.834,0,0,0,1.1.188,15.237,15.237,0,0,0,2.252,0A21.669,21.669,0,0,0,16.245,5.5a1.524,1.524,0,0,1,.817.072,1.463,1.463,0,0,1,.629.508,2.109,2.109,0,0,1,.32.662,5.52,5.52,0,0,1,.155.712,3.1,3.1,0,0,1-.033,1.032,8.071,8.071,0,0,1-.271.994,11.085,11.085,0,0,1-1.016,2.313A9.021,9.021,0,0,1,15.335,13.8a5.9,5.9,0,0,1-1.016.806,4.262,4.262,0,0,1-1.2.486,3.506,3.506,0,0,1-2.7-.486,6.211,6.211,0,0,1-1.292-1.065,8.121,8.121,0,0,1-1.016-1.325,10.8,10.8,0,0,1-1.623-4.24,2.054,2.054,0,0,1,0-.453,3.649,3.649,0,0,1,.072-.453A6.393,6.393,0,0,1,8.02,4.041Z" transform="translate(0.004)" fill="#fff"/></g></g></g></svg>