<svg xmlns="http://www.w3.org/2000/svg" xmlns:xlink="http://www.w3.org/1999/xlink" width="54.55" height="54.55" viewBox="0 0 54.55 54.55"><defs><linearGradient id="a" x1="0.5" x2="0.5" y2="1" gradientUnits="objectBoundingBox"><stop offset="0" stop-color="#d0e931"/><stop offset="1" stop-color="#acc10a"/></linearGradient><filter id="b" x="0" y="0" width="54.55" height="54.55" filterUnits="userSpaceOnUse"><feOffset dy="2" input="SourceAlpha"/><feGaussianBlur stdDeviation="3" result="c"/><feFlood flood-color="#dbe3ff"/><feComposite operator="in" in2="c"/><feComposite in="SourceGraphic"/></filter></defs><g transform="translate(-322 -397)"><g transform="matrix(1, 0, 0, 1, 322, 397)" filter="url(#b)"><path d="M9.4,0H27.151a9.4,9.4,0,0,1,9.4,9.4V27.151a9.4,9.4,0,0,1-9.4,9.4H9.4a9.4,9.4,0,0,1-9.4-9.4V9.4A9.4,9.4,0,0,1,9.4,0Z" transform="translate(9 7)" fill="url(#a)"/></g><g transform="translate(333 418.058) rotate(-16)"><g transform="translate(0 0)"><path d="M22.639,10.019h-.646a33.288,33.288,0,0,0-4.238.135,14.758,14.758,0,0,0-7.98,3.351,10.625,10.625,0,0,0-2.585,3.081.6.6,0,0,0,.12.827.646.646,0,0,0,.857,0,17.839,17.839,0,0,1,3.787-2.134,25.368,25.368,0,0,1,4.178-1.428h.286l-.165.24a7.725,7.725,0,0,1-1.924,1.713,1.112,1.112,0,0,0-.331.316c-.21.436,0,.842.6.842a9.633,9.633,0,0,0,3.366-.616,7.259,7.259,0,0,0,3.742-3.006.3.3,0,0,1,.331-.15A10.986,10.986,0,0,1,26.4,14.348a3.427,3.427,0,0,0,1.713.481,1.383,1.383,0,0,0,1.413-1.578,2.239,2.239,0,0,0-.21-.857,9.468,9.468,0,0,0-.827-1.2,1.924,1.924,0,0,1-.24-.406A7.65,7.65,0,0,0,26,7.209a8.266,8.266,0,0,0-3.532-1.879,15.9,15.9,0,0,0-6.132-.24c-.887.12-1.743.346-2.615.511a.481.481,0,0,1-.376,0,8.266,8.266,0,0,0-3.006-1.187,5.455,5.455,0,0,0-3.5.6.6.6,0,0,0-.24.947.872.872,0,0,0,.376.271,4.914,4.914,0,0,1,1.5.736,1.683,1.683,0,0,1,.3.271.6.6,0,0,1-.105.917c-.706.556-1.428,1.1-2.089,1.713a20.815,20.815,0,0,0-4.1,5.32,24.166,24.166,0,0,0-2.179,5.17,2.78,2.78,0,0,0,0,.346.661.661,0,0,0,.376.676.616.616,0,0,0,.706-.346c.376-.646.721-1.323,1.127-1.969a25.759,25.759,0,0,1,6.913-7.514,15.63,15.63,0,0,1,4.959-2.329,13.075,13.075,0,0,1,6.462-.18,5.38,5.38,0,0,1,1.623.8l.18.15Z" transform="translate(-0.301 -4.343)" fill="#fff"/></g></g></g></svg>