<svg xmlns="http://www.w3.org/2000/svg" xmlns:xlink="http://www.w3.org/1999/xlink" width="54.55" height="54.55" viewBox="0 0 54.55 54.55"><defs><linearGradient id="a" x1="0.5" x2="0.5" y2="1" gradientUnits="objectBoundingBox"><stop offset="0" stop-color="#ff006c"/><stop offset="1" stop-color="#c90055"/></linearGradient><filter id="b" x="0" y="0" width="54.55" height="54.55" filterUnits="userSpaceOnUse"><feOffset dy="2" input="SourceAlpha"/><feGaussianBlur stdDeviation="3" result="c"/><feFlood flood-color="#dbe3ff"/><feComposite operator="in" in2="c"/><feComposite in="SourceGraphic"/></filter></defs><g transform="translate(-99 -2097)"><g transform="matrix(1, 0, 0, 1, 99, 2097)" filter="url(#b)"><path d="M9.4,0H27.151a9.4,9.4,0,0,1,9.4,9.4V27.151a9.4,9.4,0,0,1-9.4,9.4H9.4a9.4,9.4,0,0,1-9.4-9.4V9.4A9.4,9.4,0,0,1,9.4,0Z" transform="translate(9 7)" fill="url(#a)"/></g><g transform="translate(111.003 2108)"><g transform="translate(-0.004)"><path d="M10.03,9.046h0A1.4,1.4,0,0,0,8.96,8.66H8.876a.235.235,0,0,1-.106,0,2.067,2.067,0,0,0-.627-1.232h0a1.428,1.428,0,0,0-1.227-.084A1.283,1.283,0,0,0,5.6,6.722,1.35,1.35,0,0,0,4.4,7.6a1.339,1.339,0,0,0-1.215.246h0a1.68,1.68,0,0,0-.56,1.451q0,.907,0,2.156v1.68h0a1.462,1.462,0,0,0-.762-.521,1.271,1.271,0,0,0-.958.056,1.339,1.339,0,0,0-.835.779h0a1.484,1.484,0,0,0,.106,1.176q.941,1.826,1.585,2.868h0A10.082,10.082,0,0,0,3,19.044H3a3.54,3.54,0,0,0,2.156,1.008,10.256,10.256,0,0,0,1.417.112h0a3.983,3.983,0,0,0,1.445-.3h0a3.45,3.45,0,0,0,1.68-1.2,4.268,4.268,0,0,0,.739-1.91h0q.056-.471.084-1.12h0V10.11a1.255,1.255,0,0,0-.409-1.036M3.482,11.611V9.04a.706.706,0,0,1,.134-.465A.661.661,0,0,1,4.031,8.4a.493.493,0,0,1,.381.19.627.627,0,0,1,.162.465V12.53a.241.241,0,0,0,0,.112q.162.246.246.246t.3-.274a.157.157,0,0,0,0-.112.448.448,0,0,1,0-.112V8.251a.706.706,0,0,1,.134-.465.56.56,0,0,1,.325-.218.594.594,0,0,1,.465.134.627.627,0,0,1,.162.465v4.291a.56.56,0,0,0,.084.33.235.235,0,0,0,.246.084.269.269,0,0,0,.246-.134.958.958,0,0,0,0-.274V8.716a.683.683,0,0,1,.084-.353.426.426,0,0,1,.3-.218.4.4,0,0,1,.409.056.515.515,0,0,1,.246.353,4.156,4.156,0,0,1,.056.683v3.551a.448.448,0,0,0,.056.246.248.248,0,0,0,.246.112.218.218,0,0,0,.218-.112.51.51,0,0,0,.056-.274V10.385a3.361,3.361,0,0,1,.056-.521.42.42,0,0,1,.465-.33.437.437,0,0,1,.493.33,2.353,2.353,0,0,1,.056.437v5.741a4.01,4.01,0,0,1-.3,1.473A3.137,3.137,0,0,1,8.4,18.691a2.588,2.588,0,0,1-1.585.56,10.374,10.374,0,0,1-1.854-.112,2.868,2.868,0,0,1-1.255-.6A3.809,3.809,0,0,1,2.8,17.487q-.409-.683-.924-1.613-.6-1.12-.9-1.613A.627.627,0,0,1,.889,13.8a.42.42,0,0,1,.23-.353.409.409,0,0,1,.381-.084.594.594,0,0,1,.381.218q.19.218.521.655t.521.655a.414.414,0,0,0,.162.134.325.325,0,0,0,.218,0q.056,0,.106-.134a1.286,1.286,0,0,1,.084-.19V11.611M21.978,4.89a6.9,6.9,0,0,0-.695-.409,2.241,2.241,0,0,1-.493-.56.784.784,0,0,0-.381-.353.879.879,0,0,0-.465-.056h-.106q-.022,0-.084-.056-.106-.112,0-.33a.459.459,0,0,1,.19-.3,1.428,1.428,0,0,0,.6-.437,1.367,1.367,0,0,0,.3-.683A1.574,1.574,0,0,0,20.79.991a1.742,1.742,0,0,0-.442-.639,2.24,2.24,0,0,0-.325-.19L19.664,0H19.1l-.325.112a2.19,2.19,0,0,0-.655.56,1.35,1.35,0,0,0-.2.8.325.325,0,0,0,.3.353.386.386,0,0,0,.218-.056.246.246,0,0,0,.134-.162.3.3,0,0,1,0-.134,1.361,1.361,0,0,0,0-.162A.689.689,0,0,1,18.852.9a.6.6,0,0,1,.437-.19.723.723,0,0,1,.521.134.7.7,0,0,1,.3.409.823.823,0,0,1-.084.627.863.863,0,0,1-.56.381.622.622,0,0,0-.381.134.728.728,0,0,0-.045.4V3.5q0,.067-.134.056a2.666,2.666,0,0,0-.56,0,.3.3,0,0,0-.134,0,.426.426,0,0,0-.106.084,2.543,2.543,0,0,1-.56.6,4.481,4.481,0,0,1-.683.56,15.8,15.8,0,0,1-2.072,1.12,21.061,21.061,0,0,1-2.184.958q-.56.218-.218.655l.274.33.274.246a.224.224,0,0,0,.134.084.515.515,0,0,0,.162,0l.274-.162a1.305,1.305,0,0,0,.3-.134v.325a.286.286,0,0,0,0,.218.711.711,0,0,0,.218,0h1.7l.084.084a.179.179,0,0,1,0,.162.381.381,0,0,1-.162,0,4.01,4.01,0,0,0-.437.162q-.246.084-.437.162a1.585,1.585,0,0,0-.409.274.56.56,0,0,0-.19.437,1.12,1.12,0,0,0,.134.6q.79,2.022,1.283,3.17a.678.678,0,0,1,.056.353.56.56,0,0,1-.106.33,13.086,13.086,0,0,0-.79,1.176l-.846,1.12q-.846,1.064-1.367,1.832a11.5,11.5,0,0,0-1.12,1.938,14.44,14.44,0,0,0-1.092,3.008,8.794,8.794,0,0,0-.084,3.142,1.44,1.44,0,0,0,.084.33.8.8,0,0,0,.19.218,3.45,3.45,0,0,0,3.411.767,1.12,1.12,0,0,1,.493,0,3.5,3.5,0,0,0,2.213-.056.448.448,0,0,1,.134,0q.353.112,1.171.33h.818a1.731,1.731,0,0,1,.246-.056.611.611,0,0,0,.218-.084,1.12,1.12,0,0,1,.353-.056,1.535,1.535,0,0,1,.353.056,3.742,3.742,0,0,0,1.91-.05,1.047,1.047,0,0,1,.627,0,5.427,5.427,0,0,0,1.12.134,3.523,3.523,0,0,0,1.171-.19.118.118,0,0,1,.106,0H25l.521.056h.493a3.59,3.59,0,0,0,2.1-.56,1.322,1.322,0,0,0,.409-.437,1.014,1.014,0,0,0,.162-.56,21.033,21.033,0,0,0-.353-3.361,14.524,14.524,0,0,0-.409-1.557,7.147,7.147,0,0,0-.711-1.451q-.493-.683-1.255-1.86-.98-1.395-1.283-1.832-.711-1.064-1.585-2.353a.418.418,0,0,0-.056-.19.162.162,0,0,1,0-.162,9.257,9.257,0,0,1,.325-.874,7.364,7.364,0,0,1,.4-.829l.627-1.68a1.047,1.047,0,0,0,.056-.465.655.655,0,0,0-.218-.353,3.966,3.966,0,0,0-.521-.3q-.325-.162-.521-.246a.448.448,0,0,0-.134,0,.185.185,0,0,1-.084-.162q0-.112.106-.112a.325.325,0,0,1,.19,0h1.557a.381.381,0,0,0,.162,0,.381.381,0,0,0,0-.162V7.539A1.356,1.356,0,0,0,25.3,7.7l.274.134a.414.414,0,0,0,.246,0,1.736,1.736,0,0,0,.465-.409,1.059,1.059,0,0,0,.218-.56.6.6,0,0,0,0-.19l-.185-.067q-1.311-.448-2.184-.762-1.176-.493-2.156-.986M23.048,6.99h0a.5.5,0,0,0-.437-.19,1.3,1.3,0,0,1-.437,0,.47.47,0,0,0-.19,0,1.171,1.171,0,0,1-.218,0h-.134a.106.106,0,0,0-.084.112s0,.034-.056.056a.207.207,0,0,1-.084,0H17.25a.119.119,0,0,0-.134-.134h-.19a7.887,7.887,0,0,0-.93,0h-.106a.05.05,0,0,0-.056.056q-.056.134-.134.134a.863.863,0,0,1-.19-.084q.409-.218,1.227-.683L17.922,5.6q.739-.381,1.2-.655a.364.364,0,0,1,.218-.084.728.728,0,0,1,.274.056q.56.3,2.756,1.339l1.227.627q.056,0,.084.112h-.633m-1.68,1.451a.448.448,0,0,1,.134,0l.056.056v.218a.907.907,0,0,1-.056.218q-.465.274-1.064.655-.246.134-1.064.627a.134.134,0,0,1-.162,0L17.385,9.1q-.106-.056-.134-.3a.924.924,0,0,1,0-.33.314.314,0,0,1,.218-.056h3.876m1.5,1.68-.37,1.109q-.106.3-.353.846a3.106,3.106,0,0,0-.28.835,1.338,1.338,0,0,0-.084.134.515.515,0,0,1-.162,0H16.959q-.157-.067-.157-.134-.353-.874-1.092-2.621v-.067a1.12,1.12,0,0,1,.381-.084,1.075,1.075,0,0,1,.381.134l1.12.711,1.171.711a.958.958,0,0,0,.465.134,1,1,0,0,0,.493-.134l2.291-1.451a.935.935,0,0,1,.79-.084m-7.472,6.783q.655-.846,1.064-1.395.106-.162.274-.437a2.8,2.8,0,0,1,.274-.465.308.308,0,0,1,.106-.112.157.157,0,0,1,.106-.056h4.559a.4.4,0,0,1,.129.112.162.162,0,0,1,.106.112l1.014,1.5L24,17.678l1.036,1.473q.627.958,1.036,1.529a5.646,5.646,0,0,1,.56,1.283,10.783,10.783,0,0,1,.437,1.641q.106.767.19,1.68v.3a.56.56,0,0,0,0,.3.3.3,0,0,1-.084.218.314.314,0,0,1-.218.112,3.361,3.361,0,0,1-1.473.112,3.747,3.747,0,0,1-.493-.056,1.227,1.227,0,0,0-.79.112,1.283,1.283,0,0,1-.56.112,5.08,5.08,0,0,1-.6-.056,1.294,1.294,0,0,1-.353-.084l-.353-.084a2.364,2.364,0,0,0-.325,0,1,1,0,0,0-.3.084,2.375,2.375,0,0,1-.874.218,3.814,3.814,0,0,1-.874-.112,2.33,2.33,0,0,0-.56-.084,2.9,2.9,0,0,0-.56.112,2.005,2.005,0,0,1-1.636-.112,1.524,1.524,0,0,0-.56-.134.924.924,0,0,0-.56.134,1.731,1.731,0,0,1-1.473,0,1.456,1.456,0,0,0-.56-.112,1.21,1.21,0,0,0-.56.134,1.9,1.9,0,0,1-1.826-.19.9.9,0,0,1-.134-.112.515.515,0,0,1,0-.162,7.976,7.976,0,0,1,.353-3.226,11.886,11.886,0,0,1,1.008-2.353,19.918,19.918,0,0,1,1.389-2.106Q14.562,17.924,15.329,16.916Z" transform="translate(0.004)" fill="#fff"/></g></g></g></svg>