<svg xmlns="http://www.w3.org/2000/svg" xmlns:xlink="http://www.w3.org/1999/xlink" width="50.092" height="52.018" viewBox="0 0 50.092 52.018"><defs><linearGradient id="a" x1="0.5" x2="0.5" y2="1" gradientUnits="objectBoundingBox"><stop offset="0" stop-color="#0277ff"/><stop offset="1" stop-color="#4f27f5"/></linearGradient></defs><g transform="translate(-6 -5)"><g transform="translate(6 5)"><path d="M55.128,30.046h-8.67V13.67a.963.963,0,0,0-.963-.963H32.009V5.963a.963.963,0,1,0-1.927,0H25.266a.963.963,0,0,0-.963.963V10.78a.963.963,0,0,0,.963.963h4.817v.963H16.6a.963.963,0,0,0-.963.963V30.046H6.963A.963.963,0,0,0,6,31.009V56.055a.963.963,0,0,0,.963.963H55.128a.963.963,0,0,0,.963-.963V31.009A.963.963,0,0,0,55.128,30.046ZM26.229,9.817V7.89h3.853V9.817ZM54.165,31.973v11.56H46.459V31.973ZM17.56,31.009v-5.78H44.532v18.3H17.56ZM44.532,14.633V23.3H17.56v-8.67Zm-28.9,17.339v11.56H7.927V31.973ZM7.927,45.459h7.706v9.633H7.927Zm9.633,0H44.532v9.633h-10.6V48.349a.963.963,0,0,0-.963-.963H29.119a.963.963,0,0,0-.963.963v6.743H17.56Zm12.523,9.633v-5.78h1.927v5.78Zm16.376,0V45.459h7.706v9.633Z" transform="translate(-6 -5)" fill="url(#a)"/><path d="M24.963,22.78h3.853a.963.963,0,0,0,.963-.963V17.963A.963.963,0,0,0,28.817,17H24.963a.963.963,0,0,0-.963.963v3.853A.963.963,0,0,0,24.963,22.78Zm.963-3.853h1.927v1.927H25.927Z" transform="translate(-6.661 -5.44)" fill="url(#a)"/><path d="M28.817,27H24.963a.963.963,0,0,0-.963.963v3.853a.963.963,0,0,0,.963.963h3.853a.963.963,0,0,0,.963-.963V27.963A.963.963,0,0,0,28.817,27Zm-.963,3.853H25.927V28.927h1.927Z" transform="translate(-6.661 -5.807)" fill="url(#a)"/><path d="M28.817,37H24.963a.963.963,0,0,0-.963.963v3.853a.963.963,0,0,0,.963.963h3.853a.963.963,0,0,0,.963-.963V37.963A.963.963,0,0,0,28.817,37Zm-.963,3.853H25.927V38.927h1.927Z" transform="translate(-6.661 -6.174)" fill="url(#a)"/><path d="M9.963,42.78h3.853a.963.963,0,0,0,.963-.963V37.963A.963.963,0,0,0,13.817,37H9.963A.963.963,0,0,0,9,37.963v3.853A.963.963,0,0,0,9.963,42.78Zm.963-3.853h1.927v1.927H10.927Z" transform="translate(-6.11 -6.174)" fill="url(#a)"/><path d="M34.963,22.78h3.853a.963.963,0,0,0,.963-.963V17.963A.963.963,0,0,0,38.817,17H34.963a.963.963,0,0,0-.963.963v3.853A.963.963,0,0,0,34.963,22.78Zm.963-3.853h1.927v1.927H35.927Z" transform="translate(-7.027 -5.44)" fill="url(#a)"/><path d="M38.817,27H34.963a.963.963,0,0,0-.963.963v3.853a.963.963,0,0,0,.963.963h3.853a.963.963,0,0,0,.963-.963V27.963A.963.963,0,0,0,38.817,27Zm-.963,3.853H35.927V28.927h1.927Z" transform="translate(-7.027 -5.807)" fill="url(#a)"/><path d="M38.817,37H34.963a.963.963,0,0,0-.963.963v3.853a.963.963,0,0,0,.963.963h3.853a.963.963,0,0,0,.963-.963V37.963A.963.963,0,0,0,38.817,37Zm-.963,3.853H35.927V38.927h1.927Z" transform="translate(-7.027 -6.174)" fill="url(#a)"/><path d="M49.963,42.78h3.853a.963.963,0,0,0,.963-.963V37.963A.963.963,0,0,0,53.817,37H49.963a.963.963,0,0,0-.963.963v3.853A.963.963,0,0,0,49.963,42.78Zm.963-3.853h1.927v1.927H50.927Z" transform="translate(-7.578 -6.174)" fill="url(#a)"/></g></g></svg>