<svg xmlns="http://www.w3.org/2000/svg" xmlns:xlink="http://www.w3.org/1999/xlink" width="54.55" height="54.55" viewBox="0 0 54.55 54.55"><defs><linearGradient id="a" x1="0.5" x2="0.5" y2="1" gradientUnits="objectBoundingBox"><stop offset="0" stop-color="#ff006c"/><stop offset="1" stop-color="#c90055"/></linearGradient><filter id="b" x="0" y="0" width="54.55" height="54.55" filterUnits="userSpaceOnUse"><feOffset dy="2" input="SourceAlpha"/><feGaussianBlur stdDeviation="3" result="c"/><feFlood flood-color="#dbe3ff"/><feComposite operator="in" in2="c"/><feComposite in="SourceGraphic"/></filter></defs><g transform="translate(-325 -2032)"><g transform="matrix(1, 0, 0, 1, 325, 2032)" filter="url(#b)"><path d="M9.4,0H27.151a9.4,9.4,0,0,1,9.4,9.4V27.151a9.4,9.4,0,0,1-9.4,9.4H9.4a9.4,9.4,0,0,1-9.4-9.4V9.4A9.4,9.4,0,0,1,9.4,0Z" transform="translate(9 7)" fill="url(#a)"/></g><g transform="translate(340.012 2043.004)"><g transform="translate(-0.012 -0.003)"><path d="M7.591,16.832,8,17.523q1.181-3.851,1.358-4.27L4.041,12.4A18.95,18.95,0,0,0,5.37,7.718l-1.1-.98Q2.493,7.919.025,12.644a1.335,1.335,0,0,0,.638,1.471Q2.11,15.4,7.6,16.832M9.54,14.251q-.307.833-.721,2.109-.591,1.943-.667,2.132a4.335,4.335,0,0,0-.307,2.439,6.987,6.987,0,0,0,.419,1.14,2.788,2.788,0,0,0,1.028.8,3.06,3.06,0,0,1,.916.638,1.772,1.772,0,0,1,.266.7,17.849,17.849,0,0,1,.053,2.363,5.316,5.316,0,0,1-.774,1.884q3.355,1.943,10.147.413Q17.331,27,17.018,25.715t1.028-3.768q1.335-2.457,2.439-4.229t.638-2.522a2.557,2.557,0,0,0-1.081-1.022q-.862-.39-2.912-1.181a4.306,4.306,0,0,1-.8-.413q1.583-3.662.833-4.518-.75,4.932-4.17,5.139a2.215,2.215,0,0,0,2.221,0q.106.886-1.329,2.953T11.607,19.26q-.437.112-.75-1.689a11.171,11.171,0,0,1,.555-4.8,2.109,2.109,0,0,0-1.861,1.5M13.025,0a3.916,3.916,0,0,0-3.3,1.8,4.188,4.188,0,0,0-.8,3.325q-.8,1.081-3.662.224-1.8-1.181-1.884-.224T5.181,6.85a14.359,14.359,0,0,0,3.963,1,.307.307,0,0,1,.136,0q.195,0,.833,1.772a8.612,8.612,0,0,0,1.943,3.107,25.239,25.239,0,0,1-1.8-4.826l1.471.112q2.912.136,5.021.053a2.953,2.953,0,0,0,.413,0,18.6,18.6,0,0,0,4.27-.75q4.135-1.388,2.717-1.943A9.746,9.746,0,0,0,19.6,5.261q-.886.136-1.441.248a2.563,2.563,0,0,0,.053-.555,5.075,5.075,0,0,0-1.524-3.272A4.53,4.53,0,0,0,13.025,0Z" transform="translate(0.012 0.003)" fill="#fff"/></g></g></g></svg>