<svg xmlns="http://www.w3.org/2000/svg" width="32" height="32" viewBox="0 0 32 32"><g transform="translate(-23 -246)"><rect width="32" height="32" rx="16" transform="translate(23 246)" fill="rgba(255,0,108,0.1)"/><path d="M15.069,3a5.4,5.4,0,0,0-4.056,1.884A5.4,5.4,0,0,0,6.957,3,4.909,4.909,0,0,0,2,7.957c0,3.407,3.064,6.183,7.706,10.4l1.307,1.181,1.307-1.19c4.642-4.209,7.706-6.985,7.706-10.392A4.909,4.909,0,0,0,15.069,3ZM11.1,17.015l-.09.09-.09-.09C6.633,13.13,3.8,10.562,3.8,7.957A3.08,3.08,0,0,1,6.957,4.8,3.524,3.524,0,0,1,10.175,6.93H11.86A3.5,3.5,0,0,1,15.069,4.8a3.08,3.08,0,0,1,3.154,3.154C18.223,10.562,15.393,13.13,11.1,17.015Z" transform="translate(28 251)" fill="#ff006c"/></g></svg>