<svg xmlns="http://www.w3.org/2000/svg" xmlns:xlink="http://www.w3.org/1999/xlink" width="54.55" height="54.55" viewBox="0 0 54.55 54.55"><defs><linearGradient id="a" x1="0.5" x2="0.5" y2="1" gradientUnits="objectBoundingBox"><stop offset="0" stop-color="#ff2c32"/><stop offset="1" stop-color="#d81f0c"/></linearGradient><filter id="b" x="0" y="0" width="54.55" height="54.55" filterUnits="userSpaceOnUse"><feOffset dy="2" input="SourceAlpha"/><feGaussianBlur stdDeviation="3" result="c"/><feFlood flood-color="#dbe3ff"/><feComposite operator="in" in2="c"/><feComposite in="SourceGraphic"/></filter></defs><g transform="translate(-119 -1804)"><g transform="translate(-25.5 1509)"><g transform="matrix(1, 0, 0, 1, 144.5, 295)" filter="url(#b)"><path d="M9.4,0H27.151a9.4,9.4,0,0,1,9.4,9.4V27.151a9.4,9.4,0,0,1-9.4,9.4H9.4a9.4,9.4,0,0,1-9.4-9.4V9.4A9.4,9.4,0,0,1,9.4,0Z" transform="translate(9 7)" fill="url(#a)"/></g></g><g transform="translate(130.099 1812.061)"><path d="M9.392,14.386a1.257,1.257,0,1,0,1.25,1.257A1.252,1.252,0,0,0,9.392,14.386Z" transform="translate(-0.464 -0.738)" fill="#fff"/><path d="M28.663,16.05C27.373,10.668,26.011,7.809,23.28,7a5.425,5.425,0,0,0-1.563-.243c-1.679,0-2.852.894-5.845.894s-4.166-.894-5.845-.894A5.365,5.365,0,0,0,8.465,7c-2.731.809-4.093,3.673-5.382,9.05s-1.052,9.269.468,9.992a1.774,1.774,0,0,0,.76.17c1.32,0,2.743-1.447,4.117-3.163,1.563-1.952,1.952-2.007,6.708-2.007h1.478c4.75,0,5.145.049,6.708,2.007,1.368,1.715,2.8,3.163,4.117,3.163a1.794,1.794,0,0,0,.76-.17C29.715,25.313,29.946,21.426,28.663,16.05Zm-20.137.894a2.409,2.409,0,1,1,2.384-2.408A2.4,2.4,0,0,1,8.526,16.944Zm10.515-1.186a1.222,1.222,0,1,1,1.222-1.222A1.223,1.223,0,0,1,19.041,15.758Zm2.67,2.67a1.219,1.219,0,1,1,1.222-1.216A1.221,1.221,0,0,1,21.711,18.428Zm0-5.34a1.222,1.222,0,1,1,1.222-1.222A1.223,1.223,0,0,1,21.711,13.088Zm2.67,2.67A1.222,1.222,0,1,1,25.6,14.536,1.223,1.223,0,0,1,24.381,15.758Z" transform="translate(0 1.001)" fill="#fff"/></g></g></svg>