<svg xmlns="http://www.w3.org/2000/svg" xmlns:xlink="http://www.w3.org/1999/xlink" width="54.55" height="54.55" viewBox="0 0 54.55 54.55"><defs><linearGradient id="a" x1="0.5" x2="0.5" y2="1" gradientUnits="objectBoundingBox"><stop offset="0" stop-color="#ff24ee"/><stop offset="1" stop-color="#c700b8"/></linearGradient><filter id="b" x="0" y="0" width="54.55" height="54.55" filterUnits="userSpaceOnUse"><feOffset dy="2" input="SourceAlpha"/><feGaussianBlur stdDeviation="3" result="c"/><feFlood flood-color="#dbe3ff"/><feComposite operator="in" in2="c"/><feComposite in="SourceGraphic"/></filter></defs><g transform="translate(-98 -758)"><g transform="matrix(1, 0, 0, 1, 98, 758)" filter="url(#b)"><path d="M9.4,0H27.151a9.4,9.4,0,0,1,9.4,9.4V27.151a9.4,9.4,0,0,1-9.4,9.4H9.4a9.4,9.4,0,0,1-9.4-9.4V9.4A9.4,9.4,0,0,1,9.4,0Z" transform="translate(9 7)" fill="url(#a)"/></g><g transform="translate(112 771.018)"><g transform="translate(0 -0.018)"><path d="M21.263,2.909a2.194,2.194,0,0,0-.664,1.61,2.239,2.239,0,0,0,.639,1.61,2.274,2.274,0,0,0,3.889-1.61,2.209,2.209,0,0,0-.639-1.59,2.159,2.159,0,0,0-1.61-.689,2.325,2.325,0,0,0-1.61.664M2.013,7.89q.1.287.262.83l1.9,6.038q.07.236.1.332.045.211.07.357.1.785.236,2.35a11.306,11.306,0,0,1-.453,1.278q-.428,1.2-1.509,4.624-.186.6-.332,1.042a1.313,1.313,0,0,0,.453.307,1.509,1.509,0,0,0,1.042.045,1.293,1.293,0,0,0,.755-.654q.166-.307.377-.735l.357-.76,2.013-4.055a1.711,1.711,0,0,0,.191-.951q0-.287-.191-1.9-.166-1.8-.211-2.4a.221.221,0,0,1,0-.141.171.171,0,0,1,.07-.121q.262-.166.4-.236a1.8,1.8,0,0,1,.428-.211q.5-.211,1.8-.664h.045q.181.252,1.424,1.826t2.4.735a2.717,2.717,0,0,0,.639-.569q.091-.875-1.374-2.657a.775.775,0,0,0,.191.07q2.516.9,2.918,1.006a.579.579,0,0,1,.332.211,3.351,3.351,0,0,1,.236.971q.146.77.83,3.462a.563.563,0,0,1,.045.1v.166h0v.594q.065,2.093.07,6.234a1.122,1.122,0,0,0,.287.121,1.464,1.464,0,0,0,1.872-1.4q.121-2.013.191-3.019.1-1.424.1-1.635a7.578,7.578,0,0,0-.121-1.66q-.1-.5-.191-1.328t-.191-1.328a1.006,1.006,0,0,1,0-.236.559.559,0,0,1,.161-.252q.121-.141.287-.377l1.64-1.736q.684-.694,1.067-1.137l1.706.543a7.124,7.124,0,0,0,.141,1.1q.231,1.162.307,1.565a2.516,2.516,0,0,0,.357.9.6.6,0,0,0,.855.191,1.1,1.1,0,0,0,.473-.377,2.013,2.013,0,0,0,.262-.5v-.5l-.045-.236q-.141-1.006-.191-1.509-.121-.875-.191-1.509a1.374,1.374,0,0,0-.83-1.208q-.191-.07-.83-.357-.5-.236-.83-.4-.5-.211-1.8-.855-1.112-.569-1.776-.875l-1.258-.619a10.908,10.908,0,0,0-1.278-.5q-.805-.211-1.942-.453-1.3-.262-1.967-.377a.865.865,0,0,0-.453,0,1.268,1.268,0,0,0-.428.191,1.3,1.3,0,0,0-.453.619q-.116.327.569.951a24.151,24.151,0,0,1,2.823.543L17.968,7.83l.07.045a10.632,10.632,0,0,1-.931,2.34q-4.669-1.922-5.64-2.274Q8.815,7.835,8.861,9.48L6.632,10.688l-.493-3.6q.07,0,.07-.045L6.5,6.995a1.338,1.338,0,0,0,1.052-.931q.141-.453.4-1.137.332-.9.428-1.137.191-.543.287-.805.166-.473.262-.805a1.238,1.238,0,0,0-.1-.951A1.263,1.263,0,0,0,8.141.635,1.167,1.167,0,0,0,7.2.705a1.243,1.243,0,0,0-.639.689,5.63,5.63,0,0,0-.236.639q-.07.211-.236.619Q5.58,4.1,5.489,4.338T5.3,4.575a6.6,6.6,0,0,1-.619.262l-.624.186q-.569.211-.855.307l-.855.332a1.112,1.112,0,0,0-.569.569,1.172,1.172,0,0,0-.045.805q.121.332.262.83M0,2v.5l.141.428a1.937,1.937,0,0,0,.166.4,2.309,2.309,0,0,0,.951.951,2.2,2.2,0,0,0,1.328.231,2.143,2.143,0,0,0,1.137-.453A2.209,2.209,0,0,0,4.413,3.06,2.2,2.2,0,0,0,4.528,1.7,2.4,2.4,0,0,0,3.743.494a2.133,2.133,0,0,0-1.585-.5A2.118,2.118,0,0,0,.619.705,3.17,3.17,0,0,0,.236,1.3,3.165,3.165,0,0,0,0,2Z" transform="translate(0 0.018)" fill="#fff"/></g></g></g></svg>