<svg width="16" height="16" viewBox="0 0 16 16" fill="none" xmlns="http://www.w3.org/2000/svg">
<path d="M1.73051 3.46092L4.79952 3.51871C5.22059 3.52697 5.77934 3.25449 6.03036 2.90776L7.55272 0.8604C8.52444 -0.452232 9.7148 -0.237582 10.2007 1.33097L11.0185 3.9975C11.1562 4.4433 11.6339 4.91386 12.0793 5.02944L14.46 5.66513C16.3387 6.16872 16.5249 7.42358 14.873 8.46377L12.5652 9.91676C12.1441 10.1809 11.8283 10.8084 11.8526 11.3037L11.9902 14.061C12.0874 16.0341 10.9699 16.5955 9.49616 15.3076L7.63369 13.673C7.2855 13.3676 6.63769 13.2272 6.20042 13.3676L3.58487 14.2013C2.04631 14.6884 1.19607 13.8133 1.69813 12.253L2.4836 9.81765C2.61316 9.40487 2.52408 8.78572 2.27305 8.43898L0.475372 5.89626C-0.496346 4.52584 0.0704919 3.42789 1.73051 3.46092Z" fill="#FC8C1B"/>
</svg>
