<svg xmlns="http://www.w3.org/2000/svg" xmlns:xlink="http://www.w3.org/1999/xlink" width="54.55" height="54.55" viewBox="0 0 54.55 54.55"><defs><linearGradient id="a" x1="0.5" x2="0.5" y2="1" gradientUnits="objectBoundingBox"><stop offset="0" stop-color="#eaac22"/><stop offset="1" stop-color="#c78c08"/></linearGradient><filter id="b" x="0" y="0" width="54.55" height="54.55" filterUnits="userSpaceOnUse"><feOffset dy="2" input="SourceAlpha"/><feGaussianBlur stdDeviation="3" result="c"/><feFlood flood-color="#dbe3ff"/><feComposite operator="in" in2="c"/><feComposite in="SourceGraphic"/></filter></defs><g transform="translate(-322 -1722)"><g transform="matrix(1, 0, 0, 1, 322, 1722)" filter="url(#b)"><path d="M9.4,0H27.151a9.4,9.4,0,0,1,9.4,9.4V27.151a9.4,9.4,0,0,1-9.4,9.4H9.4a9.4,9.4,0,0,1-9.4-9.4V9.4A9.4,9.4,0,0,1,9.4,0Z" transform="translate(9 7)" fill="url(#a)"/></g><g transform="translate(335 1734)"><path d="M19.64,24.343l-.406.542-.168.168-.033.07-.206.271-.07.135-.1.1-.135.271-.135.206-.374.71-.033.1-.033.07.1.1.07-.033.1-.07.677-.374.1-.07.135-.07.238-.168.1-.1.374-.271.238-.238.271-.206.135-.135.135-.1.1-.135.645-.645.033-.07.206-.206.406-.542.168-.168.033-.07.206-.271.07-.135.1-.1.135-.271.135-.206.374-.71.033-.1.016-.054-.1-.1-.07.033-.1.07-.677.374-.1.07-.135.07-.238.168-.1.1-.374.271-.238.238-.271.206-.135.135-.135.1-.1.135-.645.645-.033.07-.206.206M5.358,4.307l-.1-.1-.07.033-.1.07L4.4,4.681l-.07.065-.135.07a.666.666,0,0,1-.238.168l-.1.1-.374.271L3.245,5.6,2.975,5.8l-.157.157-.135.1-.1.135-.645.618-.033.07L1.7,7.092l-.406.542L1.122,7.8l-.038.065-.206.271-.07.135-.1.1-.135.271-.135.206-.363.71-.033.1L0,9.752l.1.1.07-.033.1-.07.677-.374.1-.07.135-.1.238-.168.1-.1L1.9,8.669,2.14,8.43l.271-.206.135-.1.135-.1.1-.135.645-.645.033-.07.206-.206.406-.542.168-.168.033-.07.206-.271.07-.135.1-.1.135-.271L4.925,5.2l.374-.71.033-.1.033-.07M25.752,5.776a3.76,3.76,0,0,0,1.122-2.747A2.135,2.135,0,0,0,26.229,1.4a2.205,2.205,0,0,0-1.7-.542,3.793,3.793,0,0,0-2.779,1.289L18.633,5.608,16.086,4.08a5.179,5.179,0,0,1,.374-.406.574.574,0,0,0,0-.845q-.889-.932-1.468-1.436a.618.618,0,0,0-.439-.206.585.585,0,0,0-.406.206q-.033.07-.813.916L8.886,0H7.97q-.542.238-.813.374Q6.68.58,6.377.748q-.439.271-.477.542t.341.612l7.845,7.851a6.2,6.2,0,0,0,.477.406l-2.048,2.248q-.677.748-1.019,1.138-.574.645-1.019,1.122a.8.8,0,0,1-.271.168.9.9,0,0,1-.341.07,11.215,11.215,0,0,1-1.766,0,3,3,0,0,0-1.9.341,4.714,4.714,0,0,0-1.382,1.333v.406l.374.206A3.381,3.381,0,0,0,5.6,17.4q.78.238,2.411.645a.58.58,0,0,1,.271.1l.406.206-.851.71a.775.775,0,0,0-.249.444.466.466,0,0,0,.168.406.542.542,0,0,0,.439.168.585.585,0,0,0,.406-.206l.748-.813a2.276,2.276,0,0,0,.206.374q.07.168.1.271.07.3.341,1.219a8.7,8.7,0,0,0,.341,1.219.878.878,0,0,0,.206.374,2.075,2.075,0,0,0,.271.374h.3a4.665,4.665,0,0,0,1.289-1.425,3.17,3.17,0,0,0,.374-1.9,10.833,10.833,0,0,1-.1-1.084,2.763,2.763,0,0,1,.168-1.051,2.281,2.281,0,0,1,.7-.786q.271-.206.851-.677l3.251-2.915a1.484,1.484,0,0,0,.135.271.726.726,0,0,0,.135.238l7.8,7.8a1.208,1.208,0,0,0,.71.439q.238-.033.574-.574.168-.3.374-.748a6.453,6.453,0,0,1,.341-.748v-.916L25.465,14.51q.135-.135.406-.374a4.031,4.031,0,0,0,.439-.439.759.759,0,0,0,.271-.509.78.78,0,0,0-.238-.477l-1.187-1.187a1.019,1.019,0,0,0-.612-.374.926.926,0,0,0-.574.341l-.271.238L22.073,9.086,23.9,7.423l.916-.813q.542-.477.916-.845M15.171,3.359a.444.444,0,0,1-.482-.108,1.858,1.858,0,0,0-.477-.271l.374-.439.585.818m9.66,10.186a1.9,1.9,0,0,1-.406-.612q-.07-.168.135-.341l.71.645Z" fill="#fff"/></g></g></svg>