<svg xmlns="http://www.w3.org/2000/svg" xmlns:xlink="http://www.w3.org/1999/xlink" width="54.55" height="54.55" viewBox="0 0 54.55 54.55"><defs><linearGradient id="a" x1="0.5" x2="0.5" y2="1" gradientUnits="objectBoundingBox"><stop offset="0" stop-color="#ff006c"/><stop offset="1" stop-color="#c90055"/></linearGradient><filter id="b" x="0" y="0" width="54.55" height="54.55" filterUnits="userSpaceOnUse"><feOffset dy="2" input="SourceAlpha"/><feGaussianBlur stdDeviation="3" result="c"/><feFlood flood-color="#dbe3ff"/><feComposite operator="in" in2="c"/><feComposite in="SourceGraphic"/></filter></defs><g transform="translate(-325 -2097)"><g transform="matrix(1, 0, 0, 1, 325, 2097)" filter="url(#b)"><path d="M9.4,0H27.151a9.4,9.4,0,0,1,9.4,9.4V27.151a9.4,9.4,0,0,1-9.4,9.4H9.4a9.4,9.4,0,0,1-9.4-9.4V9.4A9.4,9.4,0,0,1,9.4,0Z" transform="translate(9 7)" fill="url(#a)"/></g><g transform="translate(338 2112.995)"><path d="M23.309,8.855a8.284,8.284,0,0,1-2.51,6.079,8.282,8.282,0,0,1-6.079,2.515,8.276,8.276,0,0,1-6.072-2.515,8.283,8.283,0,0,1-2.52-6.079,8.275,8.275,0,0,1,2.52-6.07A8.3,8.3,0,0,1,14.72.265,8.278,8.278,0,0,1,20.8,2.785a8.294,8.294,0,0,1,2.51,6.07ZM3.921,7.272c.755-.515,1.133-1.188,1.068-2.728V.584c-.007-.553-1.011-.62-1.061,0L3.89,3.8a.452.452,0,1,1-.9,0L3.025.473a.492.492,0,0,0-.982,0C2.043,1.4,2,2.874,2,3.8a.392.392,0,1,1-.769,0l.038-3.3A.539.539,0,0,0,.424.1C.067.325.139.782.125,1.168L0,4.958A2.371,2.371,0,0,0,1.171,7.336,2.155,2.155,0,0,0,1.7,7.47l-.3,9.241a.969.969,0,0,0,.956,1h.12A1.092,1.092,0,0,0,3.55,16.587L3.289,7.468a1.666,1.666,0,0,0,.632-.2Zm21.647,9.162-.014-8.3c-2.91-1.682-1.983-8.161.929-8.125,3.54.041,3.96,7.3.915,8.1l.225,8.36c.043,1.581-2.053,1.727-2.055-.034ZM19.721,8.848a4.827,4.827,0,0,1-1.466,3.545,5,5,0,0,1-7.076,0A4.836,4.836,0,0,1,9.713,8.848a4.812,4.812,0,0,1,1.466-3.531,4.834,4.834,0,0,1,3.533-1.466,4.98,4.98,0,0,1,5.009,5Zm1.171,0a5.939,5.939,0,0,0-1.8-4.36,5.957,5.957,0,0,0-4.376-1.8,5.916,5.916,0,0,0-4.36,1.8,5.946,5.946,0,0,0-1.811,4.36,5.967,5.967,0,0,0,1.811,4.369,5.916,5.916,0,0,0,4.36,1.813,5.965,5.965,0,0,0,4.376-1.813,5.978,5.978,0,0,0,1.8-4.369Z" transform="translate(0 0)" fill="#fff" fill-rule="evenodd"/></g></g></svg>