<svg xmlns="http://www.w3.org/2000/svg" xmlns:xlink="http://www.w3.org/1999/xlink" width="421.392" height="322.062" viewBox="0 0 421.392 322.062"><defs><linearGradient id="a" x1="0.461" y1="-0.532" x2="0.626" y2="3.17" gradientUnits="objectBoundingBox"><stop offset="0" stop-opacity="0"/><stop offset="0.99"/></linearGradient><linearGradient id="b" x1="0.501" y1="1.036" x2="0.497" y2="-1.019" xlink:href="#a"/><linearGradient id="c" x1="1.9" y1="-0.454" x2="-0.908" y2="1.46" xlink:href="#a"/><linearGradient id="d" x1="2.206" y1="-0.229" x2="-1.216" y2="1.234" xlink:href="#a"/><linearGradient id="e" x1="0.518" y1="1.538" x2="0.475" y2="0.314" xlink:href="#a"/><linearGradient id="f" x1="0.502" y1="-2.249" x2="0.496" y2="5.316" xlink:href="#a"/></defs><g transform="translate(0.158 0)"><path d="M396,113.25c-17.19-19.53-39.22-34.06-61-48.35-26.33-17.3-53.81-35.05-85-39.34-29.79-4.1-60.21,4.68-86.61,19.09S114,78.86,91.21,98.5L37.58,144.76c-11.28,9.73-22.88,19.86-29.3,33.3-5.45,11.4-6.74,24.44-5.7,37a107.94,107.94,0,0,0,39.05,74C57.21,301.69,76,309.66,94.69,317c34.34,13.44,69.74,25.3,106.47,28.6,39.22,3.53,78.58-2.82,117.44-9.15,47.72-7.77,75.1-28.06,83-75.07,4.29-25.44,18.2-48.49,21.12-74C425.89,159.91,413.77,133.48,396,113.25Z" transform="translate(-1.99 -24.55)" fill="#68e1fd" opacity="0.18" style="isolation:isolate"/><rect width="316.78" height="223.86" rx="13.42" transform="translate(71.09 32.9)" fill="#68e1fd"/><rect width="295.27" height="205.46" rx="12.41" transform="translate(81.88 40.51)" fill="#fff"/><path d="M267.49,221.56l-46.46-23.23h-149V144.69H285.8l-19.01,38.39Z" fill="url(#a)"/><path d="M287.79,91.67V196.38A13.83,13.83,0,0,1,274,210.21H60.85a13.8,13.8,0,0,1-13.8-13.83V91.67a13.8,13.8,0,0,1,13.8-13.8H274a13.82,13.82,0,0,1,13.79,13.8Z" transform="translate(-1.99 -24.55)" fill="#68e1fd"/><path d="M167.21,104.72a2.55,2.55,0,0,1-3.23-1.45l-2.42-6.43a7.18,7.18,0,1,0-13.431,5.08l3.351,8.85a2.5,2.5,0,0,1,.12.45h-5.3l-2.85-7.53a12.179,12.179,0,1,1,22.782-8.621l2.428,6.421a2.5,2.5,0,0,1-1.45,3.23Z" transform="translate(-1.99 -24.55)" fill="#fff"/><rect width="360.42" height="25.34" rx="12.02" transform="translate(45.75 254.65)" fill="#68e1fd"/><rect width="360.42" height="25.34" rx="12.02" transform="translate(45.75 254.65)" fill="url(#b)"/><path d="M225.25,184.96l42.24,36.6v-44.7Z" fill="#68e1fd"/><rect width="175.52" height="30.04" rx="6.19" transform="translate(76.25 127.7)" fill="#fff"/><rect width="32.85" height="30.35" transform="translate(140.19 86.73)" fill="url(#c)"/><rect width="20.6" height="30.35" transform="translate(152.4 86.67)" fill="url(#d)"/><path d="M157.82,125.44s-3.24-2.7-.41-5,6,2.5,3,5l2.11,5.63H155.4Z" transform="translate(-1.99 -24.55)" fill="url(#e)"/><circle cx="6.27" cy="6.27" r="6.27" transform="translate(95.11 135.75)"/><circle cx="6.27" cy="6.27" r="6.27" transform="translate(112.02 135.75)"/><circle cx="6.27" cy="6.27" r="6.27" transform="translate(128.93 135.75)"/><circle cx="6.27" cy="6.27" r="6.27" transform="translate(145.84 135.75)"/><circle cx="6.27" cy="6.27" r="6.27" transform="translate(164.08 135.75)"/><circle cx="6.27" cy="6.27" r="6.27" transform="translate(180.99 135.75)"/><circle cx="6.27" cy="6.27" r="6.27" transform="translate(197.9 135.75)"/><circle cx="6.27" cy="6.27" r="6.27" transform="translate(214.82 135.75)"/><path d="M55.48,68.08a5,5,0,0,1-4.58-3L40.1,40.2a5.007,5.007,0,1,1,9.18-4L60.07,61.09a5,5,0,0,1-4.59,7Z" transform="translate(-1.99 -24.55)" fill="#68e1fd"/><path d="M7,102.19a5,5,0,1,1-.33-10l27.05-1.81a5.011,5.011,0,0,1,.67,10l-27.06,1.8Z" transform="translate(-1.99 -24.55)" fill="#68e1fd"/><path d="M35.77,77.58A4.94,4.94,0,0,1,33,76.72L10.53,61.48a5,5,0,1,1,5.62-8.27L38.58,68.45a5,5,0,0,1-2.81,9.13Z" transform="translate(-1.99 -24.55)" fill="#68e1fd"/><rect width="73.12" height="7.51" transform="translate(190.29 254.88)" fill="url(#f)"/></g></svg>