<svg xmlns="http://www.w3.org/2000/svg" width="32" height="32" viewBox="0 0 32 32"><g transform="translate(-23 -298)"><rect width="32" height="32" rx="16" transform="translate(23 298)" fill="rgba(255,82,0,0.1)"/><g transform="translate(-11 244.349)"><g transform="translate(41 61.651)"><g transform="translate(2.641)"><path d="M106.715,68.839a3.594,3.594,0,1,1,3.594-3.594A3.6,3.6,0,0,1,106.715,68.839Zm0-6.338a2.744,2.744,0,1,0,2.744,2.744A2.747,2.747,0,0,0,106.715,62.5Z" transform="translate(-103.121 -61.651)" fill="#ff5200"/></g><g transform="translate(9.565 5.686)"><path d="M272.862,203.067h-4.376a.425.425,0,0,1-.425-.425v-.357a5.378,5.378,0,0,0-1.9-4.108.425.425,0,0,1-.088-.546,4.669,4.669,0,0,1,8.651,2.436v.857a2.17,2.17,0,0,1-1.783,2.136A.424.424,0,0,1,272.862,203.067Zm-3.951-.85h3.91a1.321,1.321,0,0,0,1.05-1.293v-.857a3.819,3.819,0,0,0-6.88-2.282A6.224,6.224,0,0,1,268.911,202.217Z" transform="translate(-266.007 -195.398)" fill="#ff5200"/></g><g transform="translate(0 6.338)"><path d="M51.081,220.928H43.388a.426.426,0,0,1-.076-.007A2.815,2.815,0,0,1,41,218.15v-1.174a6.235,6.235,0,0,1,12.469,0v1.174a2.815,2.815,0,0,1-2.312,2.77A.426.426,0,0,1,51.081,220.928Zm-7.653-.85h7.613a1.965,1.965,0,0,0,1.578-1.927v-1.174a5.385,5.385,0,0,0-10.769,0v1.174A1.965,1.965,0,0,0,43.428,220.077Z" transform="translate(-41 -210.742)" fill="#ff5200"/></g><g transform="translate(10.871 1.056)"><path d="M299.467,91.978a2.74,2.74,0,1,1,2.74-2.74A2.743,2.743,0,0,1,299.467,91.978Zm0-4.629a1.89,1.89,0,1,0,1.89,1.889A1.892,1.892,0,0,0,299.467,87.349Z" transform="translate(-296.727 -86.499)" fill="#ff5200"/></g></g></g></g></svg>