<svg xmlns="http://www.w3.org/2000/svg" xmlns:xlink="http://www.w3.org/1999/xlink" width="49.728" height="41.932" viewBox="0 0 49.728 41.932"><defs><linearGradient id="a" x1="0.5" x2="0.5" y2="1" gradientUnits="objectBoundingBox"><stop offset="0" stop-color="#6243ff"/><stop offset="1" stop-color="#0229ff"/></linearGradient></defs><g transform="translate(-7.498 -57)"><path d="M69.728,68.083V61.271A4.2,4.2,0,0,0,65.571,57H24.156A4.2,4.2,0,0,0,20,61.271V94.66a4.2,4.2,0,0,0,4.156,4.271H65.571a4.2,4.2,0,0,0,4.157-4.271V68.083Zm-45.572-9.4H65.571a2.517,2.517,0,0,1,2.471,2.586V67.22H21.686V61.271A2.516,2.516,0,0,1,24.156,58.686Zm41.415,38.56H24.156a2.516,2.516,0,0,1-2.47-2.586V68.905H68.042V94.66A2.517,2.517,0,0,1,65.571,97.246Z" transform="translate(-12.502 0)" fill="url(#a)"/><path d="M117.4,90.364a3.162,3.162,0,1,0-3.052-3.16A3.111,3.111,0,0,0,117.4,90.364Zm0-4.634A1.479,1.479,0,1,1,116.03,87.2,1.425,1.425,0,0,1,117.4,85.73Z" transform="translate(-96.906 -24.195)" fill="url(#a)"/><path d="M185.534,90.364a3.162,3.162,0,1,0-3.052-3.16A3.111,3.111,0,0,0,185.534,90.364Zm0-4.634a1.479,1.479,0,1,1-1.366,1.474A1.425,1.425,0,0,1,185.534,85.73Z" transform="translate(-157.865 -24.195)" fill="url(#a)"/><path d="M49.258,90.364a3.162,3.162,0,1,0-3.052-3.16A3.111,3.111,0,0,0,49.258,90.364Zm0-4.634A1.479,1.479,0,1,1,47.892,87.2,1.425,1.425,0,0,1,49.258,85.73Z" transform="translate(-35.947 -24.195)" fill="url(#a)"/><path d="M156.654,216.175l-1.419-1.9c-.012-.016-.024-.038-.037-.054a3.055,3.055,0,0,0-2.311-1.059h-2.37v-1.414A3.762,3.762,0,0,0,146.727,208H144.41a.843.843,0,1,0,0,1.686h2.317a2.075,2.075,0,0,1,2.1,2.063v1.414h-2.39a3.036,3.036,0,0,0-2.3,1.059c-.013.015-.025.034-.037.05l-1.42,1.9a6.258,6.258,0,0,0,.741,12.474h.007a6.278,6.278,0,0,0,4.585-2h3.3a6.06,6.06,0,0,0,3.959,1.987,6.381,6.381,0,0,0,.649.042,6.272,6.272,0,0,0,.724-12.5Zm-10.2-1.327H152.9a1.344,1.344,0,0,1,1,.445l.613.819h-9.694l.614-.819A1.355,1.355,0,0,1,146.454,214.847Zm12.364,11.119a4.571,4.571,0,0,1-6.459-.677.861.861,0,0,0-.653-.328h-4.071a.845.845,0,0,0-.653.312,4.57,4.57,0,0,1-3.55,1.69h0a4.583,4.583,0,1,1-.006-9.166h12.5a4.6,4.6,0,0,1,2.9,8.169Z" transform="translate(-117.311 -135.09)" fill="url(#a)"/><path d="M174.11,321.954h-.828v-.811a.843.843,0,0,0-1.686,0v.811h-.853a.843.843,0,1,0,0,1.686h.853v.871a.843.843,0,1,0,1.686,0v-.871h.828a.843.843,0,1,0,0-1.686Z" transform="translate(-146.609 -235.56)" fill="url(#a)"/><path d="M301.906,305.3a1.551,1.551,0,0,0-1.549,1.549,20.786,20.786,0,0,1,2.495.807.843.843,0,0,0,.6-.807A1.551,1.551,0,0,0,301.906,305.3Z" transform="translate(-263.322 -222.14)" fill="url(#a)"/><path d="M302.617,358.245a1.1,1.1,0,0,1-1.652.035.843.843,0,0,0-.6.807,1.549,1.549,0,0,0,3.1,0,.843.843,0,0,0-.844-.843Z" transform="translate(-263.326 -269.507)" fill="url(#a)"/><path d="M331.024,328.411a20.734,20.734,0,0,1-.807,2.495.843.843,0,0,0,.807.6,1.549,1.549,0,1,0,0-3.1Z" transform="translate(-290.004 -242.815)" fill="url(#a)"/><path d="M279.625,329.263a.843.843,0,0,0-.843-.843,1.549,1.549,0,1,0,0,3.1,5.84,5.84,0,0,1,.843-2.256Z" transform="translate(-242.634 -242.824)" fill="url(#a)"/></g></svg>