<svg xmlns="http://www.w3.org/2000/svg" xmlns:xlink="http://www.w3.org/1999/xlink" width="54.55" height="54.55" viewBox="0 0 54.55 54.55"><defs><linearGradient id="a" x1="0.5" x2="0.54" y2="0.768" gradientUnits="objectBoundingBox"><stop offset="0" stop-color="#926fff"/><stop offset="1" stop-color="#5d37fa"/></linearGradient><filter id="b" x="0" y="0" width="54.55" height="54.55" filterUnits="userSpaceOnUse"><feOffset dy="2" input="SourceAlpha"/><feGaussianBlur stdDeviation="3" result="c"/><feFlood flood-color="#dbe3ff"/><feComposite operator="in" in2="c"/><feComposite in="SourceGraphic"/></filter></defs><g transform="translate(-98 -1129)"><g transform="translate(107 1136)"><g transform="matrix(1, 0, 0, 1, -9, -7)" filter="url(#b)"><path d="M9.4,0H27.151a9.4,9.4,0,0,1,9.4,9.4V27.151a9.4,9.4,0,0,1-9.4,9.4H9.4a9.4,9.4,0,0,1-9.4-9.4V9.4A9.4,9.4,0,0,1,9.4,0Z" transform="translate(9 7)" fill="url(#a)"/></g></g><g transform="translate(112 1142)"><g transform="translate(0 0)"><path d="M14.338.273A1.6,1.6,0,0,0,13.479,0a.737.737,0,0,0-.234.039A1.153,1.153,0,0,0,12.971,0a1.6,1.6,0,0,0-.864.273q-3.057,1.8-5.523,3.213H19.867L14.338.273m6.5,15.745a2.647,2.647,0,0,0,.82-.781.913.913,0,0,0,0-.82.825.825,0,0,0-.488-.488,3.467,3.467,0,0,0-1.138.039l-.586-1.333a2.642,2.642,0,0,0-2.588-1.763H9.6a2.642,2.642,0,0,0-2.588,1.763l-.547,1.333a3.707,3.707,0,0,0-1.177-.039.825.825,0,0,0-.488.488,1.118,1.118,0,0,0,0,.82,2.647,2.647,0,0,0,.82.781,15.925,15.925,0,0,0-.488,3.135,13.152,13.152,0,0,0,.039,3.1,1.543,1.543,0,0,0,.2.547,1.519,1.519,0,0,0,.43.488,1.367,1.367,0,0,0,1.529.078,1.5,1.5,0,0,0,.82-1.333l.039-.43H18.26l.039.43a1.5,1.5,0,0,0,.82,1.333,1.363,1.363,0,0,0,1.529-.078,1.519,1.519,0,0,0,.43-.488,1.25,1.25,0,0,0,.234-.547,16.78,16.78,0,0,0,.039-3.1,17.825,17.825,0,0,0-.488-3.135M19.1,14.841q.313.742.117,1.016t-.977.273H8.268q-.82,0-1.021-.273t.117-1.016l.82-2.076a1.66,1.66,0,0,1,1.646-1.1H16.6a1.66,1.66,0,0,1,1.646,1.1l.82,2.076m-.117,3.052a.6.6,0,0,1,.664.625v.664q-.039.625-.625.625h-1.9q-.586,0-.625-.625-.078-.86.117-1.06a1.907,1.907,0,0,1,1.1-.234h1.294m-10.148,0q.864,0,1.06.234a1.73,1.73,0,0,1,.156,1.06.6.6,0,0,1-.664.625h-1.9a.6.6,0,0,1-.645-.62v-.664A.6.6,0,0,1,7.5,17.9H8.834m15.93-12.18L22.1,4.112H4.351L1.685,5.719h23.08m1.211.63-.093-.083H.547l-.059.083A4.184,4.184,0,0,1,0,6.837V23.891a1.016,1.016,0,0,0,.488.43,2.2,2.2,0,0,0,.689.1,3.287,3.287,0,0,0,1.465-.234,2.6,2.6,0,0,0,.234-1.465q0-8.38-.039-12.609a.762.762,0,0,1,.156-.547.835.835,0,0,1,.586-.156q4.742.039,9.523.039,4.884,0,9.767-.039a.767.767,0,0,1,.547.156.762.762,0,0,1,.156.547q-.039,4.229,0,12.609a2.96,2.96,0,0,0,.2,1.465,3.287,3.287,0,0,0,1.465.234,2.2,2.2,0,0,0,.664-.078.84.84,0,0,0,.488-.43V6.837A5.908,5.908,0,0,0,25.976,6.349Z" fill="#fff"/></g></g></g></svg>