<svg xmlns="http://www.w3.org/2000/svg" xmlns:xlink="http://www.w3.org/1999/xlink" width="54.55" height="54.55" viewBox="0 0 54.55 54.55"><defs><linearGradient id="a" x1="0.5" x2="0.5" y2="1" gradientUnits="objectBoundingBox"><stop offset="0" stop-color="#ff006c"/><stop offset="1" stop-color="#c90055"/></linearGradient><filter id="b" x="0" y="0" width="54.55" height="54.55" filterUnits="userSpaceOnUse"><feOffset dy="2" input="SourceAlpha"/><feGaussianBlur stdDeviation="3" result="c"/><feFlood flood-color="#dbe3ff"/><feComposite operator="in" in2="c"/><feComposite in="SourceGraphic"/></filter></defs><g transform="translate(-99 -1902)"><g transform="matrix(1, 0, 0, 1, 99, 1902)" filter="url(#b)"><path d="M9.4,0H27.151a9.4,9.4,0,0,1,9.4,9.4V27.151a9.4,9.4,0,0,1-9.4,9.4H9.4a9.4,9.4,0,0,1-9.4-9.4V9.4A9.4,9.4,0,0,1,9.4,0Z" transform="translate(9 7)" fill="url(#a)"/></g><g transform="translate(64.987 1883.093)"><path d="M73.076,52.441c.116-.3-.127-.51-.065-.834a.49.49,0,0,1,.079-.187.31.31,0,0,0,.067-.21c-.05-.39-1.139-.827-1.454-.955-.331-.135-.667-.26-1-.4a2.654,2.654,0,0,1-.728-.407,2.269,2.269,0,0,1-.394-.491,5.818,5.818,0,0,1-.258-3.515c.1-.788.221-1.572.31-2.361a23.363,23.363,0,0,0,.161-2.765,10.148,10.148,0,0,0-1.456-5.483,6.306,6.306,0,0,0-3.469-2.664q-.273-.082-.552-.138a7.305,7.305,0,0,0-4.034.377,5.613,5.613,0,0,0-3.746,5.34l0,.258-.257-.026c-.181-.018-.469.023-.554.214-.114.255.273.56.444.674l.305.2-.31.195a.921.921,0,0,0-.429.772,3.68,3.68,0,0,0,.458,1.747,3.15,3.15,0,0,0,1.2,1.259.787.787,0,0,0,.266.085l.131.018.053.121c.021.048.042.1.064.142a13.7,13.7,0,0,0,1.678,2.823l.051.064v2.875l.081.187-.237.084a27,27,0,0,0-2.91,1.306c-.8.4-1.6.8-2.434,1.124a3.65,3.65,0,0,0-1.951,1.885,11.362,11.362,0,0,0-.692,1.782,16.614,16.614,0,0,0-.47,2.116.234.234,0,0,0,.239.271h.009a18.481,18.481,0,0,1,3.323.314c.92.172,1.816.411,2.717.657l.634.172c.738.2,1.477.378,2.23.505a15.078,15.078,0,0,0,5.063,0c.753-.127,1.492-.308,2.23-.505L68.1,58.9c.9-.246,1.8-.486,2.723-.658a18.411,18.411,0,0,1,3.333-.313.235.235,0,0,0,.235-.234.251.251,0,0,0,0-.036,13.655,13.655,0,0,0-1.162-3.9,4.325,4.325,0,0,0-.643-.971l-.363-.407.546.014a1.259,1.259,0,0,1,.311.047Z" transform="translate(-1.766 -1.76)" fill="#e30060" fill-rule="evenodd"/><path d="M55.03,38.133a1.816,1.816,0,0,0-.3-.05c-.209-.048-.071,1.018.156,1.439a1.678,1.678,0,0,0,1.595,1.135q.143.355.3.7a10.076,10.076,0,0,0,2.654,3.753,2.708,2.708,0,0,0,3,0,9.018,9.018,0,0,0,2.275-2.972,10.576,10.576,0,0,0,.164-6.924,4.368,4.368,0,0,1-2.4,1.369,3.945,3.945,0,0,0,1.229-1.648,7.93,7.93,0,0,1-5.831,2.374c2.017-.454,3.109-1.955,4.16-2.734-2.2,1.328-4.005,2.546-6.032,2.749a16.578,16.578,0,0,0,.479,2.976,7.87,7.87,0,0,0-1.452-2.17Zm3.545,7.495v1.833a.939.939,0,0,1-.63.89,26.877,26.877,0,0,0-2.834,1.273c-.833.412-1.665.824-2.489,1.149a2.686,2.686,0,0,0-.986.669,29.4,29.4,0,0,0,8.817,2.71,30.621,30.621,0,0,0,10.91-.518,10.374,10.374,0,0,0-.537-1.322,3.289,3.289,0,0,0-.853-1.118c-1.522.844-3.478,2.931-6.35,1.172a2.868,2.868,0,0,1-.293-.205A6.056,6.056,0,0,1,56.2,50.344a.471.471,0,0,1,.734-.59,4.993,4.993,0,0,0,4,1.948,5.1,5.1,0,0,0,1.743-.3c-.646-1.113-.649-2.864.1-5.385a3.563,3.563,0,0,1-1.842.491,3.464,3.464,0,0,1-2.068-.645q-.148-.111-.293-.239Zm12.417,5.243a4.554,4.554,0,0,1,.679,1.024,13.859,13.859,0,0,1,1.184,3.965h0a.46.46,0,0,1,.006.074.471.471,0,0,1-.47.47,21.236,21.236,0,0,0-5.994.962,19.3,19.3,0,0,1-5.458.9,19.3,19.3,0,0,1-5.458-.9A21.247,21.247,0,0,0,49.5,56.4a.471.471,0,0,1-.48-.544,16.931,16.931,0,0,1,.477-2.146,11.563,11.563,0,0,1,.706-1.819,3.884,3.884,0,0,1,2.077-2c.791-.312,1.6-.714,2.416-1.116a27.688,27.688,0,0,1,2.936-1.317h0V44.62a14.055,14.055,0,0,1-1.708-2.872l-.065-.144a1.022,1.022,0,0,1-.346-.11,3.365,3.365,0,0,1-1.291-1.355,3.921,3.921,0,0,1-.486-1.86,1.155,1.155,0,0,1,.539-.972c-1.019-.675-.509-1.4.264-1.32.056-4.681,4.62-6.635,8.063-5.945,3.1.622,5.635,3.554,5.666,8.514.027,4.4-1.462,7.48.107,8.961.6.563,3.9,1.188,3.144,2.278-.191.277.3.641-.1,1.178a1.011,1.011,0,0,0-.421-.1Zm-13.36-3.408h0s0,0,0,0Zm0,0Zm5.644-14.7c-2.254,1.366-4.778,3.384-8.026,4,2.764-.858,5.686-3.3,8.026-4Z" transform="translate(0 0)" fill="#fff" fill-rule="evenodd"/></g></g></svg>