<svg xmlns="http://www.w3.org/2000/svg" xmlns:xlink="http://www.w3.org/1999/xlink" width="54.55" height="54.55" viewBox="0 0 54.55 54.55"><defs><linearGradient id="a" x1="0.5" x2="0.5" y2="1" gradientUnits="objectBoundingBox"><stop offset="0" stop-color="#ff006c"/><stop offset="1" stop-color="#c90055"/></linearGradient><filter id="b" x="0" y="0" width="54.55" height="54.55" filterUnits="userSpaceOnUse"><feOffset dy="2" input="SourceAlpha"/><feGaussianBlur stdDeviation="3" result="c"/><feFlood flood-color="#dbe3ff"/><feComposite operator="in" in2="c"/><feComposite in="SourceGraphic"/></filter></defs><g transform="translate(-144.5 -295)"><g transform="matrix(1, 0, 0, 1, 144.5, 295)" filter="url(#b)"><path d="M9.4,0H27.151a9.4,9.4,0,0,1,9.4,9.4V27.151a9.4,9.4,0,0,1-9.4,9.4H9.4a9.4,9.4,0,0,1-9.4-9.4V9.4A9.4,9.4,0,0,1,9.4,0Z" transform="translate(9 7)" fill="url(#a)"/></g><g transform="translate(161.5 307)"><g transform="translate(1)"><g transform="translate(2.087)"><path d="M12.763,4.219q-.544-.082-1.23-.136-.544.082-.795.109-.5.054-.822.109A4.4,4.4,0,0,0,6.737,6.794a7.039,7.039,0,0,0-.544,1.889,8.928,8.928,0,0,0-.054,2v.136a.31.31,0,0,1-.109.109,1.845,1.845,0,0,0-.931.849,2.178,2.178,0,0,0-.25,1.29,1.96,1.96,0,0,0,.468,1.089,2.118,2.118,0,0,0,1.04.659,1.214,1.214,0,0,1,.218.109.61.61,0,0,1,.082.218A6.609,6.609,0,0,0,8.6,18.123l.054.054a4.355,4.355,0,0,0,2.466,1.04,4.241,4.241,0,0,0,3.206-1.089q.191-.163.354-.327a5.9,5.9,0,0,0,.985-1.312,8.71,8.71,0,0,0,.659-1.508,1.089,1.089,0,0,1,.054-.136.158.158,0,0,1,.109-.054A2.1,2.1,0,0,0,17.8,13.065a2.063,2.063,0,0,0-.136-1.089,2.4,2.4,0,0,0-.768-.915.18.18,0,0,1-.082-.082.174.174,0,0,1,0-.136,11.362,11.362,0,0,0,.027-1.753,6.658,6.658,0,0,0-.327-1.7,4.29,4.29,0,0,0-2.548-2.847,5.814,5.814,0,0,0-1.2-.327m1.78,7.366a9.407,9.407,0,0,0,1.59-.027.544.544,0,0,1,.163.027.691.691,0,0,1,.163.082,1.132,1.132,0,0,1,.544.6,1.2,1.2,0,0,1,.109.795,1.557,1.557,0,0,1-.408.74,1.4,1.4,0,0,1-.768.381.109.109,0,0,0-.109.054.174.174,0,0,0-.082.109,6.745,6.745,0,0,1-.6,1.633,5.591,5.591,0,0,1-1.013,1.4,4.785,4.785,0,0,1-1.089.768l-.245.109a3.3,3.3,0,0,1-1.426.272,3.566,3.566,0,0,1-1.426-.354.082.082,0,0,1-.054-.027,4.355,4.355,0,0,1-1.2-.9,6.424,6.424,0,0,1-1.481-2.793,1.23,1.23,0,0,0-.054-.245A1.394,1.394,0,0,1,6.013,13.8a1.59,1.59,0,0,1-.408-.659,1.4,1.4,0,0,1,.054-.768,1.328,1.328,0,0,1,1.111-.942,3.936,3.936,0,0,0,1.481-.5,2.863,2.863,0,0,0,1.508-2.3V8.5s.038,0,.054.054l.027.027a4.088,4.088,0,0,0,1.252,1.764,5.019,5.019,0,0,0,1.916.985,5.863,5.863,0,0,0,1.535.245M13.008,16.2a.327.327,0,0,0,.027-.218.174.174,0,0,0-.109-.163.256.256,0,0,0-.163,0,.365.365,0,0,0-.163.136.936.936,0,0,1-.191.191.544.544,0,0,1-.191.163,1.573,1.573,0,0,1-1.04.136,1.513,1.513,0,0,1-.9-.544.261.261,0,0,0-.136-.109.544.544,0,0,0-.163.027.261.261,0,0,0-.109.136.18.18,0,0,0,.027.163,1.355,1.355,0,0,0,.245.354,1.7,1.7,0,0,0,.6.354,2.237,2.237,0,0,0,.713.109h.272l.245-.054a1.481,1.481,0,0,0,.6-.218,1.519,1.519,0,0,0,.436-.468m.436-3.4a1.524,1.524,0,0,0-1.258.544.185.185,0,0,0-.027.245.74.74,0,0,0,.544.408,1.366,1.366,0,0,0,1.23-.218q.24-.169.784-.631-.408-.082-1.285-.327m-4.791.985a1.366,1.366,0,0,0,1.23.218.74.74,0,0,0,.544-.408.24.24,0,0,0-.027-.245,1.524,1.524,0,0,0-1.258-.544q-.876.245-1.285.327.544.468.822.659M12.056.027,10.629,0a.762.762,0,0,1-.163.054A3.234,3.234,0,0,0,8.735,1.2a3.266,3.266,0,0,0-.713,1.943,2.444,2.444,0,0,0,.136.958A6.211,6.211,0,0,1,9.72,3.473a6.761,6.761,0,0,1,1.633-.191,7.975,7.975,0,0,1,1.671.163,6.3,6.3,0,0,1,1.519.637A.321.321,0,0,1,14.6,4a3.1,3.1,0,0,0-.218-2.134A3.01,3.01,0,0,0,12.872.327a3.185,3.185,0,0,0-.408-.163,2.629,2.629,0,0,0-.408-.136Z" transform="translate(-4.834)" fill="#fff"/></g><path d="M1,43.979a6.729,6.729,0,0,1,2.548-5.014,9.347,9.347,0,0,1,6.217-2.178,10.615,10.615,0,0,1,2.178.218,7.621,7.621,0,0,1,1.4.408,8.362,8.362,0,0,1,2.6,1.535,6.7,6.7,0,0,1,2.586,5.03" transform="translate(-1 -16.76)" fill="none" stroke="#fff" stroke-miterlimit="10" stroke-width="2"/></g></g></g></svg>