<svg xmlns="http://www.w3.org/2000/svg" width="16.639" height="16.961" viewBox="0 0 16.639 16.961"><path d="M20.2,10.555l-.086-.363H12.22v3.34h4.714a4.719,4.719,0,0,1-4.616,3.548A5.521,5.521,0,0,1,8.6,15.6a5.3,5.3,0,0,1-1.582-3.744,5.47,5.47,0,0,1,1.554-3.74,5.285,5.285,0,0,1,3.691-1.444A4.814,4.814,0,0,1,15.405,7.9l2.373-2.361a8.4,8.4,0,0,0-5.591-2.153h0A8.643,8.643,0,0,0,6.07,5.87,8.608,8.608,0,0,0,3.656,11.86a8.522,8.522,0,0,0,2.32,5.893,8.852,8.852,0,0,0,6.382,2.59,7.873,7.873,0,0,0,5.734-2.41,8.466,8.466,0,0,0,2.2-5.864A9.765,9.765,0,0,0,20.2,10.555Z" transform="translate(-3.656 -3.382)" fill="#eb4335"/></svg>