<svg xmlns="http://www.w3.org/2000/svg" xmlns:xlink="http://www.w3.org/1999/xlink" width="54.55" height="54.55" viewBox="0 0 54.55 54.55"><defs><linearGradient id="a" x1="0.5" x2="0.5" y2="1" gradientUnits="objectBoundingBox"><stop offset="0" stop-color="#ff006c"/><stop offset="1" stop-color="#c90055"/></linearGradient><filter id="b" x="0" y="0" width="54.55" height="54.55" filterUnits="userSpaceOnUse"><feOffset dy="2" input="SourceAlpha"/><feGaussianBlur stdDeviation="3" result="c"/><feFlood flood-color="#dbe3ff"/><feComposite operator="in" in2="c"/><feComposite in="SourceGraphic"/></filter></defs><g transform="translate(-325 -2292)"><g transform="matrix(1, 0, 0, 1, 325, 2292)" filter="url(#b)"><path d="M9.4,0H27.151a9.4,9.4,0,0,1,9.4,9.4V27.151a9.4,9.4,0,0,1-9.4,9.4H9.4a9.4,9.4,0,0,1-9.4-9.4V9.4A9.4,9.4,0,0,1,9.4,0Z" transform="translate(9 7)" fill="url(#a)"/></g><g transform="translate(332.835 2298.714)"><path d="M12.055,55.641a40.97,40.97,0,0,0-5.89,5.9l7.857-3.932Z" transform="translate(0 -34.174)" fill="#fff"/><path d="M61.252,13.246A3.412,3.412,0,0,0,56.7,13c-1.019.272-3.73,2.27-4.606,2.472.21-.906,2.334-3.771,2.489-4.7A3.417,3.417,0,1,0,51.4,12.071L50,14.116l.474.475.733.732.65.65.969.969.628.628,2.022-1.383a3.41,3.41,0,1,0,5.779-2.941Zm-9.5-3.177a1.554,1.554,0,1,1,1.554-1.554A1.554,1.554,0,0,1,51.755,10.069Zm6.993,7.166A1.554,1.554,0,1,1,60.3,15.68,1.554,1.554,0,0,1,58.748,17.234Z" transform="translate(-28.71)" fill="#fff"/><path d="M22.742,73.982a40.849,40.849,0,0,0,5.9-5.889l-1.969-1.968Z" transform="translate(-11.25 -41.289)" fill="#fff"/><path d="M22.228,27.346l-.946-.946,3.948-3.948-.914-.914-3.3,3.3a.922.922,0,0,1-1.3-1.3l3.3-3.3-.319-.318L22.28,19.5l-3.3,3.3a.923.923,0,0,1-1.3-1.3l3.3-3.3-.731-.731-3.3,3.3a.922.922,0,1,1-1.3-1.3l3.3-3.3-.731-.731-3.3,3.3a.922.922,0,0,1-1.3-1.3l3.3-3.3-.981-.981-5.195,5.195a1.763,1.763,0,0,0,0,2.493l4.585,4.584,2.006,2.006.862.862,2.007,2.007,6.216,6.216A1.763,1.763,0,1,0,28.9,34.017Z" transform="translate(-0.747 -4.334)" fill="#fff"/></g></g></svg>