<svg width="17" height="17" viewBox="0 0 17 17" fill="none" xmlns="http://www.w3.org/2000/svg">
<path d="M1.80925 3.88914L4.87825 3.94693C5.29933 3.95519 5.85807 3.68271 6.1091 3.33598L7.63146 1.28862C8.60318 -0.0240095 9.79354 0.190641 10.2794 1.75919L11.0973 4.42572C11.2349 4.87152 11.7127 5.34208 12.158 5.45766L14.5388 6.09335C16.4174 6.59694 16.6037 7.8518 14.9517 8.892L12.6439 10.345C12.2228 10.6092 11.907 11.2366 11.9313 11.7319L12.069 14.4892C12.1661 16.4623 11.0487 17.0237 9.57489 15.7358L7.71243 14.1012C7.36423 13.7958 6.71643 13.6554 6.27915 13.7958L3.6636 14.6296C2.12505 15.1166 1.27481 14.2416 1.77686 12.6813L2.56233 10.2459C2.6919 9.83309 2.60281 9.21394 2.35179 8.86721L0.554107 6.32448C-0.417611 4.95406 0.149227 3.85612 1.80925 3.88914Z" fill="#D9D9D9"/>
<mask id="mask0_94_986" style="mask-type:alpha" maskUnits="userSpaceOnUse" x="0" y="0" width="17" height="17">
<path d="M1.80925 3.88914L4.87825 3.94693C5.29933 3.95519 5.85807 3.68271 6.1091 3.33598L7.63146 1.28862C8.60318 -0.0240095 9.79354 0.190641 10.2794 1.75919L11.0973 4.42572C11.2349 4.87152 11.7127 5.34208 12.158 5.45766L14.5388 6.09335C16.4174 6.59694 16.6037 7.8518 14.9517 8.892L12.6439 10.345C12.2228 10.6092 11.907 11.2366 11.9313 11.7319L12.069 14.4892C12.1661 16.4623 11.0487 17.0237 9.57489 15.7358L7.71243 14.1012C7.36423 13.7958 6.71643 13.6554 6.27915 13.7958L3.6636 14.6296C2.12505 15.1166 1.27481 14.2416 1.77686 12.6813L2.56233 10.2459C2.6919 9.83309 2.60281 9.21394 2.35179 8.86721L0.554107 6.32448C-0.417611 4.95406 0.149227 3.85612 1.80925 3.88914Z" fill="#FC8C1B"/>
</mask>
<g mask="url(#mask0_94_986)">
<rect width="8" height="16" fill="#FC8C1B"/>
</g>
</svg>
