<svg xmlns="http://www.w3.org/2000/svg" xmlns:xlink="http://www.w3.org/1999/xlink" width="54.55" height="54.55" viewBox="0 0 54.55 54.55"><defs><linearGradient id="a" x1="0.5" x2="0.5" y2="1" gradientUnits="objectBoundingBox"><stop offset="0" stop-color="#eaac22"/><stop offset="1" stop-color="#c78c08"/></linearGradient><filter id="b" x="0" y="0" width="54.55" height="54.55" filterUnits="userSpaceOnUse"><feOffset dy="2" input="SourceAlpha"/><feGaussianBlur stdDeviation="3" result="c"/><feFlood flood-color="#dbe3ff"/><feComposite operator="in" in2="c"/><feComposite in="SourceGraphic"/></filter></defs><g transform="translate(-775 -1722)"><g transform="matrix(1, 0, 0, 1, 775, 1722)" filter="url(#b)"><path d="M9.4,0H27.151a9.4,9.4,0,0,1,9.4,9.4V27.151a9.4,9.4,0,0,1-9.4,9.4H9.4a9.4,9.4,0,0,1-9.4-9.4V9.4A9.4,9.4,0,0,1,9.4,0Z" transform="translate(9 7)" fill="url(#a)"/></g><g transform="translate(785 1730)"><path d="M22.594,9.618a10.424,10.424,0,0,0-3.069.441,5.375,5.375,0,0,1,2.62-3.08.826.826,0,0,0,.221-1.345l-2.507-2.4a.829.829,0,0,0-.99-.118,8.975,8.975,0,0,0-4.4,6.905,10.521,10.521,0,0,0-2.936-.4C7.312,9.618,3,10.9,3,20.371c0,10.452,9.514,10.754,10.6,10.754h6.928c1.085,0,10.6-.3,10.6-10.754C31.125,10.9,26.813,9.618,22.594,9.618ZM19.182,4.874l1.272,1.22a6.521,6.521,0,0,0-2.749,4.748c-.057.034-.105.066-.158.1s-.109.067-.159.1q-.161.106-.293.2l-.032.022-.03-.02c-.111-.082-.236-.169-.377-.259-.043-.027-.092-.055-.138-.082-.119-.073-.243-.145-.381-.218-.025-.013-.043-.026-.068-.039a7.52,7.52,0,0,1,3.112-5.773Zm1.344,24.6H13.6c-1.494,0-8.944-.439-8.944-9.1,0-8.4,3.4-9.1,6.876-9.1a8.234,8.234,0,0,1,3.466.7,5.213,5.213,0,0,1,1.42.913l.029.028,0,0a.789.789,0,0,0,.144.1.827.827,0,0,0,.131.095.847.847,0,0,0,.334.072h.007a.8.8,0,0,0,.114-.024.776.776,0,0,0,.462-.22c.009-.009.022-.013.031-.022a4.69,4.69,0,0,1,1.215-.836c.012-.006.021-.016.033-.023a8.17,8.17,0,0,1,3.675-.786c3.479,0,6.876.7,6.876,9.1C29.471,29.032,22.02,29.471,20.526,29.471Z" transform="translate(0 0)" fill="#fff"/><path d="M13.9,22.922a3.083,3.083,0,0,0,3.374-2.506.616.616,0,0,0-.393-.7,19.124,19.124,0,0,1-4.675-2.6.619.619,0,0,0-.988.479C11.157,19.477,11.394,22.922,13.9,22.922Z" transform="translate(-1.418 -2.418)" fill="#fff"/><path d="M24.834,22.922c2.5,0,2.74-3.445,2.683-5.325a.619.619,0,0,0-.989-.479,19.123,19.123,0,0,1-4.675,2.6.616.616,0,0,0-.393.7A3.083,3.083,0,0,0,24.834,22.922Z" transform="translate(-3.188 -2.418)" fill="#fff"/><path d="M26.02,25.679l-2.9,1.03a.666.666,0,0,1-.471-.01l-.832-.335a.666.666,0,0,0-.646.083l-.923.686a.666.666,0,0,1-.679.069l-.929-.435a.666.666,0,0,0-.564,0l-.929.435a.666.666,0,0,1-.679-.069l-.923-.686a.666.666,0,0,0-.646-.083l-.832.335a.666.666,0,0,1-.471.01l-2.9-1.03a.164.164,0,0,0-.206.221c2.211,4.5,7.874,4.179,7.874,4.179s5.663.321,7.874-4.179a.164.164,0,0,0-.206-.221Z" transform="translate(-1.29 -3.917)" fill="#fff"/></g></g></svg>