<svg xmlns="http://www.w3.org/2000/svg" xmlns:xlink="http://www.w3.org/1999/xlink" width="54.55" height="54.55" viewBox="0 0 54.55 54.55"><defs><linearGradient id="a" x1="0.5" x2="0.54" y2="0.768" gradientUnits="objectBoundingBox"><stop offset="0" stop-color="#926fff"/><stop offset="1" stop-color="#5d37fa"/></linearGradient><filter id="b" x="0" y="0" width="54.55" height="54.55" filterUnits="userSpaceOnUse"><feOffset dy="2" input="SourceAlpha"/><feGaussianBlur stdDeviation="3" result="c"/><feFlood flood-color="#dbe3ff"/><feComposite operator="in" in2="c"/><feComposite in="SourceGraphic"/></filter></defs><g transform="translate(-322 -1129)"><g transform="translate(331 1136)"><g transform="matrix(1, 0, 0, 1, -9, -7)" filter="url(#b)"><path d="M9.4,0H27.151a9.4,9.4,0,0,1,9.4,9.4V27.151a9.4,9.4,0,0,1-9.4,9.4H9.4a9.4,9.4,0,0,1-9.4-9.4V9.4A9.4,9.4,0,0,1,9.4,0Z" transform="translate(9 7)" fill="url(#a)"/></g></g><g transform="translate(335 1145.017)"><g transform="translate(0 -0.016)"><path d="M15.57,5.283a4.3,4.3,0,0,0-3.214,0,3.845,3.845,0,0,0-1.323.91,4.4,4.4,0,0,0-.9,1.323,4.163,4.163,0,0,0-.313,1.607,4.291,4.291,0,0,0,.312,1.607,4.425,4.425,0,0,0,.882,1.323,4.42,4.42,0,0,0,1.323.882,4,4,0,0,0,1.607.335,4.063,4.063,0,0,0,1.63-.335,4.42,4.42,0,0,0,1.323-.882,4.091,4.091,0,0,0,.882-4.537,4.029,4.029,0,0,0-.882-1.323,4.392,4.392,0,0,0-1.323-.91M15.442,6.69A1.378,1.378,0,0,1,15.91,7a1.613,1.613,0,0,1,.285.469,1.2,1.2,0,0,1,.128.558,1.367,1.367,0,0,1-.128.558,1.747,1.747,0,0,1-.285.441,1.378,1.378,0,0,1-.469.313,1.518,1.518,0,0,1-.558.106,1.451,1.451,0,0,1-.558-.106,1.378,1.378,0,0,1-.469-.313,1.613,1.613,0,0,1-.285-.469A1.2,1.2,0,0,1,13.444,8a1.367,1.367,0,0,1,.128-.558A1.468,1.468,0,0,1,13.885,7a1.116,1.116,0,0,1,.441-.313,1.518,1.518,0,0,1,.558-.106,1.451,1.451,0,0,1,.558.106M19.795,1.22l-.106-.05A14.164,14.164,0,0,0,10.045.551a16.491,16.491,0,0,0-9.917,8.1A1,1,0,0,0,0,9.145a1.484,1.484,0,0,0,.156.519,17.919,17.919,0,0,0,2.98,3.906,15.671,15.671,0,0,0,2.383,1.97L8.164,12.9A6.792,6.792,0,0,1,7.126,8.1a6.63,6.63,0,0,1,.686-2.093A6.088,6.088,0,0,1,8.979,4.334,8.343,8.343,0,0,1,13.807,2.3q3.287-.48,5.96,3.058a6.92,6.92,0,0,1,1.06,4.509,6.786,6.786,0,0,1-1.736,3.862,6.747,6.747,0,0,1-3.5,2.1,7.11,7.11,0,0,1-2.824.106,7.166,7.166,0,0,1-2.567-1.01l-2.07,2.048a.3.3,0,0,0,.078.05,14.253,14.253,0,0,0,11.764-.106,16.692,16.692,0,0,0,7.752-7.177,1.228,1.228,0,0,0,.179-.625A1.205,1.205,0,0,0,27.7,8.5,16.675,16.675,0,0,0,24.639,4.53a14.068,14.068,0,0,0-1.088-.96l-1.088-.932h0a9.7,9.7,0,0,0-2.668-1.4Z" transform="translate(0 0.016)" fill="#fff"/></g></g></g></svg>