<svg xmlns="http://www.w3.org/2000/svg" xmlns:xlink="http://www.w3.org/1999/xlink" width="54.55" height="54.55" viewBox="0 0 54.55 54.55"><defs><linearGradient id="a" x1="0.5" x2="0.5" y2="1" gradientUnits="objectBoundingBox"><stop offset="0" stop-color="#ff5539"/><stop offset="1" stop-color="#d02e14"/></linearGradient><filter id="b" x="0" y="0" width="54.55" height="54.55" filterUnits="userSpaceOnUse"><feOffset dy="2" input="SourceAlpha"/><feGaussianBlur stdDeviation="3" result="c"/><feFlood flood-color="#dbe3ff"/><feComposite operator="in" in2="c"/><feComposite in="SourceGraphic"/></filter></defs><g transform="translate(-98 -1358)"><g transform="matrix(1, 0, 0, 1, 98, 1358)" filter="url(#b)"><path d="M9.4,0H27.151a9.4,9.4,0,0,1,9.4,9.4V27.151a9.4,9.4,0,0,1-9.4,9.4H9.4a9.4,9.4,0,0,1-9.4-9.4V9.4A9.4,9.4,0,0,1,9.4,0Z" transform="translate(9 7)" fill="url(#a)"/></g><g transform="translate(111 1370)"><path d="M16.2,0h-.836q-.314.334-.523.523a3.858,3.858,0,0,0-.481.564q-.125.167.167.752a1.7,1.7,0,0,0,.251.334,1.7,1.7,0,0,1,.272.334,1.279,1.279,0,0,1,.146.418,2.671,2.671,0,0,0,.146.418q.209.5.543.543t.627-.439a4.385,4.385,0,0,0,.314-.523q.167-.376.251-.523l.732-.209-.334-.46a.644.644,0,0,1-.1-.251A1.881,1.881,0,0,0,16.2,0M5.81,12.331a4.239,4.239,0,0,0-.836,1.714,2.96,2.96,0,0,0,.293,1.839,9.2,9.2,0,0,0,.941,1.588.836.836,0,0,1,.167.418.727.727,0,0,1-.188.5q-.359.418-.836.961a2.926,2.926,0,0,0-.669,1.484q-.155.953-.481,2.8a16.938,16.938,0,0,1-.418,2.111Q3.7,26,4.1,26.377t.648-.272q.063-.209.1-.314.773-2.571,1.317-4.326.89-.765,2.926-2.675.451.263.334,1.5a12.017,12.017,0,0,0-.084,1.672A25.14,25.14,0,0,0,9.823,24.6q.46,2.215,1.108,2.111a.573.573,0,0,0,.481-.376,1.024,1.024,0,0,0,0-.627q-.314-1.63-.543-2.717a7.549,7.549,0,0,1,.063-2.592q.226-1.254.418-2.508l1.15.042L13.69,18l5.622.23-.042,3.24q-.836,4.326-1,4.786h1.191l2.215-7.441,1.024.669q.585.376.982.606a.869.869,0,0,1,.355.355,5.472,5.472,0,0,1,.167,1.15,7.106,7.106,0,0,1-.042,1.9,2.45,2.45,0,0,0,0,1.17.539.539,0,0,0,.5.209.56.56,0,0,0,.543-.272,1.1,1.1,0,0,0,.146-.627q.063-2.759.1-3.553a1.12,1.12,0,0,0-.146-.732A21.248,21.248,0,0,0,22.7,17.347a3.908,3.908,0,0,1-.46-2.487l.836-1.735q.711.1,2.048.334a.585.585,0,0,1,.334.23,1.028,1.028,0,0,0,.669.418,1.977,1.977,0,0,0,.752-.084.581.581,0,0,0,.418-.376,2.09,2.09,0,0,0,.084-.606q.146-3.031.188-4.556V5.769a1.777,1.777,0,0,1-1.254.836,3.507,3.507,0,0,1-1.5-.293,3.787,3.787,0,0,0-2.341-.125,3.691,3.691,0,0,0-1.923,1.338q-.4.481-.961,1.254-.648.9-1,1.379L17.6,9.071q-.1-.125-.167-.188a.439.439,0,0,0-.188-.125,1.944,1.944,0,0,1-1.254-1,2.73,2.73,0,0,1-.146-1.588,2.612,2.612,0,0,0,0-.481,1.9,1.9,0,0,0-.439-1.3,1.618,1.618,0,0,0-2.362,0,1.981,1.981,0,0,0-.5,1.317v5.225l-.334.063q-4.682.209-7.106.293a3.641,3.641,0,0,0-2.215.732A2.88,2.88,0,0,0,1.839,14q-.142,1.208-.314,3.24A3.225,3.225,0,0,1,0,20.023,2.09,2.09,0,0,0,1.672,19.9l.961-.564a2.333,2.333,0,0,0,.794-1.024,6.153,6.153,0,0,0,.585-2.174q.15-1.317.355-2.654t.648-1.526q.418-.188.773.376m9.781-2.424q.042,0,0,.042a2,2,0,0,0,.314,1.442,2.926,2.926,0,0,0,1.108.941q.084.042.355.209,1.066.69,1.129,1.17a2.8,2.8,0,0,1-.69,1.568l-1.484-.69A.51.51,0,0,0,16.344,14a1.124,1.124,0,0,0-.46-.334l-.878-.585a7.821,7.821,0,0,0-.9-.523,2.245,2.245,0,0,1-1.191-1.087A2.508,2.508,0,0,1,12.875,9.8h2.654a.623.623,0,0,1,.063.084m.334-.418,2.654.9v.272a1.781,1.781,0,0,1-1.254.376,10.839,10.839,0,0,0-1.379,0V9.468m8.13.836h.314a2.307,2.307,0,0,0,.585,1.317,1.952,1.952,0,0,1,.481,1.442l-2.195-.334Z" fill="#fff"/></g></g></svg>