<svg xmlns="http://www.w3.org/2000/svg" xmlns:xlink="http://www.w3.org/1999/xlink" width="34" height="34" viewBox="0 0 34 34"><defs><clipPath id="a"><rect width="34" height="34" rx="6" transform="translate(413 111)" fill="#e3e9ff"/></clipPath></defs><g transform="translate(-413 -111)" clip-path="url(#a)"><g transform="translate(413.779 111)"><path d="M25.245,17.988H9.218a9.114,9.114,0,0,0-3.439.619,8.764,8.764,0,0,0-5.3,5.709q-.1.344-.241.894h0q-.1,1.135-.241,2.3a1.678,1.678,0,0,0,.1.172,9.548,9.548,0,0,0,.688,2.889A8.585,8.585,0,0,0,2.373,32.95a7.828,7.828,0,0,0,2.236,1.72A7.959,7.959,0,0,0,7.292,35.7a.1.1,0,0,1-.034.069h3.474a9.5,9.5,0,0,0,4.54-2.408.4.4,0,0,1,.1-.069.3.3,0,0,1,.138-.034h3.3a.385.385,0,0,1,.172.034.22.22,0,0,1,.138.1,9.169,9.169,0,0,0,4.471,2.339h.034a10.958,10.958,0,0,0,4.059-.172,9.376,9.376,0,0,0,3.13-1.582,8.626,8.626,0,0,0,3.267-5.262q.069-.275.138-.688l.069-1.513a.457.457,0,0,0-.034-.241,7.869,7.869,0,0,0-.688-2.889,9.2,9.2,0,0,0-3.3-3.99,8.984,8.984,0,0,0-4.987-1.376m-18.4,2.614a6.081,6.081,0,0,1,1.995-.344H25.349a6.879,6.879,0,0,1,3.1.757,6.37,6.37,0,0,1,2.339,2.167,6.253,6.253,0,0,1,1.135,2.924,6.879,6.879,0,0,1-.378,2.958,6.452,6.452,0,0,1-4.265,4.093,8.111,8.111,0,0,1-1.1.241,2.139,2.139,0,0,1-.413,0,1.837,1.837,0,0,0-.413,0,6.638,6.638,0,0,1-5.09-2.442.461.461,0,0,0-.206-.172.612.612,0,0,0-.275-.069H14.549a.282.282,0,0,0-.206.069.543.543,0,0,0-.206.138,6.769,6.769,0,0,1-2.614,1.995,6.961,6.961,0,0,1-3.267.413A6.342,6.342,0,0,1,4.678,31.78a6.425,6.425,0,0,1-2.029-3.233,6.961,6.961,0,0,1-.172-2.476,7.106,7.106,0,0,1,.688-2.27,6.879,6.879,0,0,1,1.513-1.857,7.1,7.1,0,0,1,2.2-1.307m20.224,5.3a1.211,1.211,0,0,0-.413.929,1.252,1.252,0,0,0,.413.963A1.266,1.266,0,0,0,28,28.2a1.211,1.211,0,0,0,.929-.413,1.266,1.266,0,0,0,.378-.929A1.293,1.293,0,0,0,28,25.555a1.266,1.266,0,0,0-.929.378M24.42,28.616a1.307,1.307,0,0,0-.344.963,1.293,1.293,0,0,0,2.236.894,1.328,1.328,0,0,0,0-1.857,1.376,1.376,0,0,0-.963-.413,1.266,1.266,0,0,0-.929.378m-2.648-2.614a1.314,1.314,0,0,0,1.857,1.857,1.286,1.286,0,0,0,.413-.929,1.321,1.321,0,0,0-.413-.963,1.266,1.266,0,0,0-.929-.344,1.211,1.211,0,0,0-.929.413m3.577-3.027a1.156,1.156,0,0,0-.929.344,1.376,1.376,0,0,0-.344.963,1.314,1.314,0,1,0,1.307-1.307m-15.2.172a.777.777,0,0,0-.482-.206H8.461a.825.825,0,0,0-.516.206.633.633,0,0,0-.206.516v1.926H5.847a.688.688,0,0,0-.791.791v1.135a.688.688,0,0,0,.688.688H7.67v1.926a.688.688,0,0,0,.172.516.949.949,0,0,0,.516.206H9.63a.777.777,0,0,0,.482-.206.688.688,0,0,0,.206-.516V28.2h1.788A.894.894,0,0,0,12.795,28,.77.77,0,0,0,13,27.378v-.963a.77.77,0,0,0-.206-.619.839.839,0,0,0-.619-.206H10.318V23.663a.633.633,0,0,0-.206-.516M14.789.585a5.95,5.95,0,0,1,.688.585,2.284,2.284,0,0,1,.894,1.307,1.8,1.8,0,0,1-.482,1.376A8.2,8.2,0,0,1,14.721,5.09q-.413.344-1.307,1.032T12.107,7.188A18.807,18.807,0,0,0,9.6,9.94l-.138.069a2.951,2.951,0,0,1-.688-.86,2.146,2.146,0,0,1-.138-1.582,3.832,3.832,0,0,1,.825-1.513,21.427,21.427,0,0,0-2.064.688A9.713,9.713,0,0,0,4.953,8.048,4.9,4.9,0,0,0,3.371,9.8q-1.376,3.061,1.307,5.847l.688.585.688.585a9.177,9.177,0,0,0-.275-1q-.055-.117-.619-2.442t1.72-4.437q.193,3.6,3.474,3.474a12.752,12.752,0,0,1,5.434-5.5,6.043,6.043,0,0,0,2.786-4.162q4.127,1.74,3.439,5.125-.578,3.082,3.3,4.127,3.632-.846,3.646-3.887,2.951,3.529.55,8.633,4.2-3.13,2.3-7.429a6.191,6.191,0,0,0-1.892-2.442,10.807,10.807,0,0,0-3.2-1.72,1.885,1.885,0,0,0,.1.275.6.6,0,0,0,.1.241,2.3,2.3,0,0,1,.275,1.513,2.9,2.9,0,0,1-1.445,1.72,10.47,10.47,0,0,1-1.135.585,2.958,2.958,0,0,1-.275-1.823,4.76,4.76,0,0,0-.378-2.855,6.06,6.06,0,0,0-2.786-2.889A11.336,11.336,0,0,0,18.366.757,21.613,21.613,0,0,0,15.133.1L13.93,0Q14.274.206,14.789.585Z"/></g></g></svg>