<svg xmlns="http://www.w3.org/2000/svg" xmlns:xlink="http://www.w3.org/1999/xlink" width="50" height="50" viewBox="0 0 50 50"><defs><linearGradient id="a" x1="0.172" y1="0.1" x2="0.887" y2="1" gradientUnits="objectBoundingBox"><stop offset="0" stop-color="#f09d00"/><stop offset="1" stop-color="#f7104e"/></linearGradient><filter id="b" x="0" y="0" width="50" height="50" filterUnits="userSpaceOnUse"><feOffset dy="2" input="SourceAlpha"/><feGaussianBlur stdDeviation="3" result="c"/><feFlood flood-color="#ff5f5a"/><feComposite operator="in" in2="c"/><feComposite in="SourceGraphic"/></filter></defs><g transform="translate(9 7)"><g transform="matrix(1, 0, 0, 1, -9, -7)" filter="url(#b)"><path d="M8.229,0H23.771A8.229,8.229,0,0,1,32,8.229V23.771A8.229,8.229,0,0,1,23.771,32H8.229A8.229,8.229,0,0,1,0,23.771V8.229A8.229,8.229,0,0,1,8.229,0Z" transform="translate(9 7)" fill="url(#a)"/></g><path d="M16.245,1a23.176,23.176,0,0,1,.8,5.176A3.742,3.742,0,0,1,13.365,10.2,3.925,3.925,0,0,1,9.451,6.181l.032-.388A14.846,14.846,0,0,0,6,15.379a8.627,8.627,0,0,0,17.254,0A18.455,18.455,0,0,0,16.245,1Zm-1.93,19.766a3.425,3.425,0,0,1-3.472-3.386,3.377,3.377,0,0,1,3.03-3.364,8.317,8.317,0,0,0,4.982-2.782,15.046,15.046,0,0,1,.636,4.357,5.177,5.177,0,0,1-5.176,5.176Z" transform="translate(1 2.995)" fill="#fff"/></g></svg>