<svg xmlns="http://www.w3.org/2000/svg" xmlns:xlink="http://www.w3.org/1999/xlink" width="54.55" height="54.55" viewBox="0 0 54.55 54.55"><defs><linearGradient id="a" x1="0.5" x2="0.5" y2="1" gradientUnits="objectBoundingBox"><stop offset="0" stop-color="#ff2c32"/><stop offset="1" stop-color="#d81f0c"/></linearGradient><filter id="b" x="0" y="0" width="54.55" height="54.55" filterUnits="userSpaceOnUse"><feOffset dy="2" input="SourceAlpha"/><feGaussianBlur stdDeviation="3" result="c"/><feFlood flood-color="#dbe3ff"/><feComposite operator="in" in2="c"/><feComposite in="SourceGraphic"/></filter></defs><g transform="translate(-549 -2615)"><g transform="translate(404.5 2320)"><g transform="matrix(1, 0, 0, 1, 144.5, 295)" filter="url(#b)"><path d="M9.4,0H27.151a9.4,9.4,0,0,1,9.4,9.4V27.151a9.4,9.4,0,0,1-9.4,9.4H9.4a9.4,9.4,0,0,1-9.4-9.4V9.4A9.4,9.4,0,0,1,9.4,0Z" transform="translate(9 7)" fill="url(#a)"/></g></g><g transform="translate(563.217 2626.182)"><path d="M18.758,13.366H6.849a6.772,6.772,0,0,0-2.556.46A6.512,6.512,0,0,0,.358,18.068q-.077.256-.179.664h0Q.1,19.576,0,20.445a1.247,1.247,0,0,0,.077.128,7.094,7.094,0,0,0,.511,2.147,6.379,6.379,0,0,0,1.176,1.763A5.816,5.816,0,0,0,3.424,25.76a5.914,5.914,0,0,0,1.993.767.072.072,0,0,1-.026.051H7.973a7.058,7.058,0,0,0,3.373-1.789.3.3,0,0,1,.077-.051.225.225,0,0,1,.1-.026h2.453a.286.286,0,0,1,.128.026.164.164,0,0,1,.1.077,6.813,6.813,0,0,0,3.322,1.738h.026a8.142,8.142,0,0,0,3.016-.128A6.966,6.966,0,0,0,22.9,25.249a6.409,6.409,0,0,0,2.428-3.91q.051-.2.1-.511l.051-1.124a.34.34,0,0,0-.026-.179,5.847,5.847,0,0,0-.511-2.147,6.834,6.834,0,0,0-2.453-2.964,6.675,6.675,0,0,0-3.706-1.022M5.111,15.333a4.518,4.518,0,0,1,1.482-.256H18.835a5.111,5.111,0,0,1,2.3.562,4.733,4.733,0,0,1,1.738,1.61,4.646,4.646,0,0,1,.843,2.172,5.111,5.111,0,0,1-.281,2.2,4.794,4.794,0,0,1-3.169,3.041,6.026,6.026,0,0,1-.818.179,1.59,1.59,0,0,1-.307,0,1.364,1.364,0,0,0-.307,0,4.932,4.932,0,0,1-3.782-1.814A.342.342,0,0,0,14.9,22.9a.455.455,0,0,0-.2-.051H10.81a.21.21,0,0,0-.153.051.4.4,0,0,0-.153.1,5.029,5.029,0,0,1-1.942,1.482,5.172,5.172,0,0,1-2.428.307,4.712,4.712,0,0,1-2.658-1.176,4.774,4.774,0,0,1-1.508-2.4,5.172,5.172,0,0,1-.128-1.84,5.28,5.28,0,0,1,.511-1.687A5.111,5.111,0,0,1,3.476,16.3a5.275,5.275,0,0,1,1.636-.971m15.027,3.936a.9.9,0,0,0-.307.69.93.93,0,0,0,.307.716.94.94,0,0,0,.664.281.9.9,0,0,0,.69-.307.94.94,0,0,0,.281-.69.961.961,0,0,0-.971-.971.94.94,0,0,0-.69.281m-1.968,1.993a.971.971,0,0,0-.256.716.961.961,0,0,0,1.661.664.986.986,0,0,0,0-1.38,1.022,1.022,0,0,0-.716-.307.94.94,0,0,0-.69.281m-1.968-1.942a.976.976,0,0,0,1.38,1.38.956.956,0,0,0,.307-.69.981.981,0,0,0-.307-.716.94.94,0,0,0-.69-.256.9.9,0,0,0-.69.307m2.658-2.249a.859.859,0,0,0-.69.256,1.022,1.022,0,0,0-.256.716.976.976,0,1,0,.971-.971m-11.3.128a.578.578,0,0,0-.358-.153h-.92A.613.613,0,0,0,5.9,17.2a.47.47,0,0,0-.153.383v1.431H4.344a.511.511,0,0,0-.588.588v.843a.511.511,0,0,0,.511.511H5.7v1.431a.511.511,0,0,0,.128.383.705.705,0,0,0,.383.153h.946a.578.578,0,0,0,.358-.153.511.511,0,0,0,.153-.383V20.956H9a.664.664,0,0,0,.511-.153.572.572,0,0,0,.153-.46v-.716a.572.572,0,0,0-.153-.46.624.624,0,0,0-.46-.153H7.667V17.582a.47.47,0,0,0-.153-.383M10.989.434A4.421,4.421,0,0,1,11.5.869a1.7,1.7,0,0,1,.664.971,1.339,1.339,0,0,1-.358,1.022,6.093,6.093,0,0,1-.869.92q-.307.256-.971.767T9,5.341A13.974,13.974,0,0,0,7.13,7.386l-.1.051A2.193,2.193,0,0,1,6.517,6.8a1.6,1.6,0,0,1-.1-1.176A2.847,2.847,0,0,1,7.028,4.5a15.921,15.921,0,0,0-1.533.511A7.217,7.217,0,0,0,3.68,5.98,3.644,3.644,0,0,0,2.5,7.283a3.683,3.683,0,0,0,.971,4.344l.511.434L4.5,12.5a6.818,6.818,0,0,0-.2-.741q-.041-.087-.46-1.814a3.313,3.313,0,0,1,1.278-3.3q.143,2.678,2.581,2.581A9.475,9.475,0,0,1,11.73,5.137,4.49,4.49,0,0,0,13.8,2.044q3.067,1.293,2.556,3.808-.429,2.29,2.453,3.067,2.7-.629,2.709-2.888,2.193,2.622.409,6.414,3.118-2.326,1.712-5.52a4.6,4.6,0,0,0-1.406-1.814,8.03,8.03,0,0,0-2.377-1.278,1.4,1.4,0,0,0,.077.2.445.445,0,0,0,.077.179,1.707,1.707,0,0,1,.2,1.124,2.152,2.152,0,0,1-1.073,1.278,7.779,7.779,0,0,1-.843.434,2.2,2.2,0,0,1-.2-1.354,3.537,3.537,0,0,0-.281-2.121,4.5,4.5,0,0,0-2.07-2.147,8.423,8.423,0,0,0-2.1-.869,16.059,16.059,0,0,0-2.4-.486L10.35,0Q10.606.153,10.989.434Z" fill="#fff"/></g></g></svg>