<svg xmlns="http://www.w3.org/2000/svg" xmlns:xlink="http://www.w3.org/1999/xlink" width="54.55" height="54.55" viewBox="0 0 54.55 54.55"><defs><linearGradient id="a" x1="0.5" x2="0.5" y2="1" gradientUnits="objectBoundingBox"><stop offset="0" stop-color="#ff2c32"/><stop offset="1" stop-color="#d81f0c"/></linearGradient><filter id="b" x="0" y="0" width="54.55" height="54.55" filterUnits="userSpaceOnUse"><feOffset dy="2" input="SourceAlpha"/><feGaussianBlur stdDeviation="3" result="c"/><feFlood flood-color="#dbe3ff"/><feComposite operator="in" in2="c"/><feComposite in="SourceGraphic"/></filter></defs><g transform="translate(-770 -2487)"><g transform="translate(625.5 2192)"><g transform="matrix(1, 0, 0, 1, 144.5, 295)" filter="url(#b)"><path d="M9.4,0H27.151a9.4,9.4,0,0,1,9.4,9.4V27.151a9.4,9.4,0,0,1-9.4,9.4H9.4a9.4,9.4,0,0,1-9.4-9.4V9.4A9.4,9.4,0,0,1,9.4,0Z" transform="translate(9 7)" fill="url(#a)"/></g></g><g transform="translate(788 2499)"><path d="M0,5.344q0,.3.033.881L.361,9.507Q.427,10.6.624,12.789l.3,3.282.613,7.2a4.529,4.529,0,0,1,.109.749,6.225,6.225,0,0,1,.066.782,1.094,1.094,0,0,0,.066.263.87.87,0,0,0,.23.164q1.953.547,7.4,2.018a.547.547,0,0,1,.23.1h.066q1.335-.394,1.466-.454,2.954-.782,6.181-1.734a.219.219,0,0,0,.2-.1.257.257,0,0,0,.033-.164q.1-.848.23-2.248.131-1.7.164-2.281t.2-1.958q.131-1.269.164-1.958.263-2.965.388-4.431.2-1.893.618-6.422H19.4V5.339H0m6.646,6.526H6.258v.3q.033.585.164,1.729a.6.6,0,0,0,.066.361q.033.066.3.066l8.533-.093q-.1,1.045-.1,1.094l-.449,4.923a10.36,10.36,0,0,1-.131,1.335.257.257,0,0,1-.033.164.416.416,0,0,1-.2.1l-4.562,1.3a.952.952,0,0,1-.454-.066L4.956,21.88a.5.5,0,0,1-.263-.131.476.476,0,0,1-.1-.3q-.066-1.012-.3-3.282a.339.339,0,0,1,.033-.2.2.2,0,0,1,.23-.066H6.75a.722.722,0,0,1,.033.23,4.535,4.535,0,0,1,.1.749q.033.547.033.749a.35.35,0,0,0,.066.2l.164.1q.815.164,2.347.618a.4.4,0,0,0,.23,0q.815-.23,2.347-.618l.2-.1a.4.4,0,0,0,.066-.23q.066-.394.3-2.609v-.1l-.066-.131-7.986-.033a.7.7,0,0,1-.361-.066.656.656,0,0,1-.038-.257q-.1-.6-.345-3.282L3.567,9.846a4.414,4.414,0,0,1-.033-.454H15.743l-.1,1.176q0,.066-.033.487a3.741,3.741,0,0,0-.033.454q0,.23-.1.263a.35.35,0,0,1-.263.1H6.646M5.864,0V1.176H6.958V3.588H8.205V1.176H9.25V0H5.858M5.311,0H4.075V1.176H2.981V0H1.729V3.588H2.965V2.412H4.059V3.588H5.311V0m8.67,3.588V0H12.647L11.9,1.236,11.181,0H9.813V3.588H11.05V1.947h.033L11.9,3.184l.782-1.236h.066V3.588h1.236m1.882-1.176V0H14.6V3.588h2.965V2.412Z" fill="#fff"/></g></g></svg>