<svg xmlns="http://www.w3.org/2000/svg" width="24.113" height="34" viewBox="0 0 24.113 34"><path d="M0,6.644q0,.367.041,1.095l.408,4.08q.082,1.36.326,4.08l.367,4.08L1.9,28.934a5.63,5.63,0,0,1,.136.932,7.738,7.738,0,0,1,.082.972,1.36,1.36,0,0,0,.082.326,1.081,1.081,0,0,0,.286.2q2.428.68,9.194,2.509a.68.68,0,0,1,.286.122h.082q1.659-.49,1.822-.564,3.672-.972,7.684-2.156a.272.272,0,0,0,.245-.122.32.32,0,0,0,.041-.2q.122-1.054.286-2.795.163-2.108.2-2.836t.245-2.434q.163-1.578.2-2.434.326-3.686.483-5.508.245-2.353.768-7.983h.082V6.637H0m8.262,8.112H7.779v.367q.041.728.2,2.149a.741.741,0,0,0,.082.449q.041.082.367.082L19.04,17.68q-.122,1.3-.122,1.36l-.558,6.12a12.879,12.879,0,0,1-.163,1.659.32.32,0,0,1-.041.2.517.517,0,0,1-.245.122q-4.76,1.36-5.671,1.618a1.183,1.183,0,0,1-.564-.082L6.161,27.2a.619.619,0,0,1-.326-.163.592.592,0,0,1-.122-.367q-.082-1.258-.367-4.08a.422.422,0,0,1,.041-.245.252.252,0,0,1,.286-.082h2.72a.9.9,0,0,1,.041.286,5.637,5.637,0,0,1,.122.932q.041.68.041.932a.435.435,0,0,0,.082.245l.2.122q1.013.2,2.917.768a.5.5,0,0,0,.286,0Q13.1,25.262,15,24.779l.245-.122a.5.5,0,0,0,.082-.286q.082-.49.367-3.244v-.122l-.082-.163L5.685,20.8a.864.864,0,0,1-.449-.082.816.816,0,0,1-.048-.32q-.122-.748-.428-4.08l-.326-4.08a5.488,5.488,0,0,1-.041-.564H19.57l-.122,1.462q0,.082-.041.605a4.651,4.651,0,0,0-.041.564q0,.286-.122.326a.435.435,0,0,1-.326.122H8.262M7.29,0V1.462H8.65v3H10.2v-3h1.3V0H7.283M6.6,0H5.066V1.462H3.706V0H2.149V4.461H3.686V3h1.36V4.461H6.6V0M17.381,4.461V0H15.722L14.79,1.537,13.9,0H12.2V4.461h1.537V2.421h.041L14.79,3.958l.972-1.537h.082v2.04h1.537M19.72,3V0H18.149V4.461h3.686V3Z"/><path d="M6.8,0H5.45V1.452H6.8V0M17.383,0h-1.81l.885,1.526Z" transform="translate(-1.719)" fill="#fff"/></svg>