<svg xmlns="http://www.w3.org/2000/svg" xmlns:xlink="http://www.w3.org/1999/xlink" width="54.55" height="54.55" viewBox="0 0 54.55 54.55"><defs><linearGradient id="a" x1="0.5" x2="0.5" y2="1" gradientUnits="objectBoundingBox"><stop offset="0" stop-color="#ff006c"/><stop offset="1" stop-color="#c90055"/></linearGradient><filter id="b" x="0" y="0" width="54.55" height="54.55" filterUnits="userSpaceOnUse"><feOffset dy="2" input="SourceAlpha"/><feGaussianBlur stdDeviation="3" result="c"/><feFlood flood-color="#dbe3ff"/><feComposite operator="in" in2="c"/><feComposite in="SourceGraphic"/></filter></defs><g transform="translate(-555 -2097)"><g transform="matrix(1, 0, 0, 1, 555, 2097)" filter="url(#b)"><path d="M9.4,0H27.151a9.4,9.4,0,0,1,9.4,9.4V27.151a9.4,9.4,0,0,1-9.4,9.4H9.4a9.4,9.4,0,0,1-9.4-9.4V9.4A9.4,9.4,0,0,1,9.4,0Z" transform="translate(9 7)" fill="url(#a)"/></g><g transform="translate(575.005 2108)"><path d="M6.377,29.423.774,14.652c4.995-.227,7.437.038,13.028,0L7.946,29.423ZM10.242,4.735C10.184,4.091,9.6,3.645,9.08,3.243a5.923,5.923,0,0,1-.67-.567A1.219,1.219,0,0,1,8.369.808,3.734,3.734,0,0,0,6.89.767a3.089,3.089,0,0,0-1.36.6,2.789,2.789,0,0,0-.879,1.188A3.607,3.607,0,0,0,4.514,4.57a.353.353,0,0,1-.292.412H4.21a2.607,2.607,0,0,0-.783.242,2.126,2.126,0,0,0-.967.984,2.508,2.508,0,0,0-.189,1.461,3.322,3.322,0,0,0,.357,1.049.353.353,0,0,1-.156.479.255.255,0,0,1-.081.029,2.5,2.5,0,0,0-1.245.733,1.708,1.708,0,0,0-.388.764,1.869,1.869,0,0,0,.041.907,3.376,3.376,0,0,0,1.082,1.566H13.144a2.34,2.34,0,0,0,1.044-1.046,2.443,2.443,0,0,0,.2-1.458,2.855,2.855,0,0,0-.637-1.379,2.467,2.467,0,0,0-1.405-.84.056.056,0,0,1-.019,0,13.754,13.754,0,0,0-1.564.611c-1.65.716-3.534,1.532-5.313.646a.352.352,0,0,1-.158-.479.367.367,0,0,1,.488-.156c1.473.735,3.187-.01,4.691-.663a14.159,14.159,0,0,1,1.647-.639,2.316,2.316,0,0,0-.194-1.669,2.208,2.208,0,0,0-1.188-.862A4.906,4.906,0,0,1,8.875,6.291a2.854,2.854,0,0,1-1.913-.1.353.353,0,0,1-.184-.469.366.366,0,0,1,.479-.18,2.122,2.122,0,0,0,1.425.06,4.052,4.052,0,0,0,1.561-.872Zm-4.691-1.2a.278.278,0,1,1-.283.278.281.281,0,0,1,.283-.278Zm1.762,7.391a.314.314,0,1,1-.321.314.318.318,0,0,1,.321-.314Zm-4.039-.558a.314.314,0,1,1-.321.314.318.318,0,0,1,.321-.314Zm9.11.3a.314.314,0,1,1-.321.314.318.318,0,0,1,.321-.314ZM5.8,11.841a.175.175,0,0,1,.022-.247.181.181,0,0,1,.251.022l.412.479a.175.175,0,0,1-.022.247.181.181,0,0,1-.251-.022L5.8,11.841Zm-4.039-.558a.173.173,0,0,1,.022-.247.181.181,0,0,1,.251.022l.412.479a.175.175,0,0,1-.022.247.181.181,0,0,1-.251-.022l-.412-.479Zm9.11.3a.175.175,0,0,1,.022-.247.181.181,0,0,1,.251.022l.412.479a.175.175,0,0,1-.022.247.181.181,0,0,1-.251-.022l-.412-.479Zm-1.341-8.9a2.983,2.983,0,0,1,1.425,1.9,2.906,2.906,0,0,1,1.59,1.173,2.938,2.938,0,0,1,.295,2.114A3.214,3.214,0,0,1,14.3,8.86a3.573,3.573,0,0,1,.8,1.722,3.112,3.112,0,0,1-.256,1.875,3.071,3.071,0,0,1-1.425,1.4.36.36,0,0,1-.189.05H1.747a.376.376,0,0,1-.235-.084,4.135,4.135,0,0,1-1.413-2,2.552,2.552,0,0,1-.05-1.24A2.412,2.412,0,0,1,.592,9.5a3.033,3.033,0,0,1,1.216-.828,4.12,4.12,0,0,1-.256-.9A3.165,3.165,0,0,1,1.8,5.91,2.835,2.835,0,0,1,3.095,4.6a3.274,3.274,0,0,1,.649-.244A4.178,4.178,0,0,1,3.969,2.3,3.488,3.488,0,0,1,5.072.815,3.83,3.83,0,0,1,6.758.071,4.532,4.532,0,0,1,9.159.3a.354.354,0,0,1,.117.591c-.687.63-.632.991-.34,1.3a6.292,6.292,0,0,0,.594.493ZM6.3,25.941l-.551-1.484,3.508-.8-.682,1.765L6.3,25.941ZM5.175,22.9l-.551-1.484,6.036-1.37-.682,1.765L5.175,22.9ZM4.048,19.857,3.5,18.373l8.565-1.944-.682,1.765L4.048,19.857Z" transform="translate(0 0)" fill="#fff" fill-rule="evenodd"/></g></g></svg>