<svg xmlns="http://www.w3.org/2000/svg" width="19.92" height="18.11" viewBox="0 0 19.92 18.11"><g transform="translate(-3 -3)"><path d="M5.04,3A2.04,2.04,0,0,0,3,5.04V9.12H5.04V6.483l4.379,4.379,1.443-1.443L6.483,5.04H9.12V3Z" transform="translate(0 0)" fill="#7b91a4"/><path d="M21.154,5.04A2.04,2.04,0,0,0,19.114,3h-4.08V5.04h2.637L13.293,9.419l1.443,1.443,4.379-4.379V9.12h2.04Z" transform="translate(1.766 0)" fill="#7b91a4"/><path d="M19.114,21.154a2.04,2.04,0,0,0,2.04-2.04v-4.08h-2.04v2.638l-4.379-4.379-1.443,1.443,4.379,4.379H15.034v2.04Z" transform="translate(1.766 -0.044)" fill="#7b91a4"/><path d="M3,19.114a2.04,2.04,0,0,0,2.04,2.04H9.12v-2.04H6.483l4.379-4.379L9.419,13.293,5.04,17.672V15.034H3Z" transform="translate(0 -0.044)" fill="#7b91a4"/></g></svg>