<svg width="20" height="19" viewBox="0 0 20 19" fill="none" xmlns="http://www.w3.org/2000/svg">
<g clip-path="url(#clip0_49_166)">
<path d="M16.515 3.419C16.515 3.89743 16.3731 4.36512 16.1073 4.76292C15.8415 5.16073 15.4637 5.47078 15.0217 5.65386C14.5797 5.83695 14.0933 5.88486 13.6241 5.79152C13.1548 5.69818 12.7238 5.46779 12.3855 5.12949C12.0472 4.79119 11.8168 4.36016 11.7235 3.89092C11.6301 3.42168 11.6781 2.9353 11.8611 2.49329C12.0442 2.05127 12.3543 1.67348 12.7521 1.40768C13.1499 1.14187 13.6176 1 14.096 1C14.7376 1 15.3528 1.25486 15.8065 1.70851C16.2601 2.16216 16.515 2.77744 16.515 3.419Z" fill="white" stroke="white" stroke-width="2" stroke-linejoin="round"/>
<path d="M6.838 9.06402C6.838 9.54245 6.69613 10.0101 6.43033 10.4079C6.16452 10.8057 5.78673 11.1158 5.34471 11.2989C4.9027 11.482 4.41632 11.5299 3.94708 11.4365C3.47784 11.3432 3.04681 11.1128 2.70851 10.7745C2.37021 10.4362 2.13982 10.0052 2.04648 9.53594C1.95314 9.0667 2.00105 8.58032 2.18414 8.13831C2.36723 7.69629 2.67727 7.3185 3.07508 7.05269C3.47288 6.78689 3.94057 6.64502 4.419 6.64502C5.06056 6.64502 5.67584 6.89988 6.12949 7.35353C6.58314 7.80718 6.838 8.42246 6.838 9.06402Z" fill="white" stroke="white" stroke-width="2" stroke-linejoin="round"/>
<path d="M16.515 14.709C16.515 15.1875 16.3731 15.6552 16.1073 16.053C15.8415 16.4508 15.4637 16.7608 15.0217 16.9439C14.5797 17.127 14.0933 17.1749 13.6241 17.0816C13.1548 16.9882 12.7238 16.7578 12.3855 16.4195C12.0472 16.0812 11.8168 15.6502 11.7235 15.181C11.6301 14.7117 11.6781 14.2253 11.8611 13.7833C12.0442 13.3413 12.3543 12.9635 12.7521 12.6977C13.1499 12.4319 13.6176 12.29 14.096 12.29C14.7376 12.29 15.3528 12.5449 15.8065 12.9985C16.2601 13.4522 16.515 14.0675 16.515 14.709Z" fill="white" stroke="white" stroke-width="2" stroke-linejoin="round"/>
<path d="M6.50806 10.282L12.0161 13.491" stroke="white" stroke-width="2" stroke-linejoin="round"/>
<path d="M12.0081 4.63696L6.50806 7.84596" stroke="white" stroke-width="2" stroke-linejoin="round"/>
</g>
<defs>
<clipPath id="clip0_49_166">
<rect width="19.92" height="18.128" fill="white"/>
</clipPath>
</defs>
</svg>
