<svg width="21" height="19" viewBox="0 0 21 19" fill="none" xmlns="http://www.w3.org/2000/svg">
<g clip-path="url(#clip0_52_216)">
<path d="M13.016 1.38968e-05H4.649C4.28362 -0.00140317 3.92603 0.105584 3.62146 0.30744C3.3169 0.509296 3.07905 0.796951 2.938 1.13401L0.13 7.68901C0.0440845 7.90508 -2.99049e-05 8.13549 1.52096e-08 8.36801V10.144L0.00899996 10.153L1.52096e-08 10.227C0.0015821 10.7196 0.197949 11.1915 0.546236 11.5398C0.894524 11.8881 1.36645 12.0844 1.859 12.086H7.726L6.843 16.335L6.815 16.635C6.81577 17.0048 6.9628 17.3593 7.224 17.621L8.21 18.597L14.337 12.47C14.5087 12.2977 14.6447 12.0932 14.7372 11.8682C14.8297 11.6433 14.8769 11.4023 14.876 11.159V1.85901C14.8744 1.36629 14.6779 0.894215 14.3294 0.545898C13.9809 0.197582 13.5087 0.00133233 13.016 1.38968e-05ZM16.735 1.38968e-05V11.157H20.454V1.38968e-05H16.735Z" fill="#FF6B5B"/>
</g>
<defs>
<clipPath id="clip0_52_216">
<rect width="20.454" height="18.595" fill="white"/>
</clipPath>
</defs>
</svg>
