<svg width="21" height="19" viewBox="0 0 21 19" fill="none" xmlns="http://www.w3.org/2000/svg">
<g clip-path="url(#clip0_49_205)">
<path d="M10.145 18.616L8.67403 17.277C3.44903 12.539 3.24044e-05 9.41403 3.24044e-05 5.58003C-0.00731969 4.84521 0.131991 4.11631 0.409809 3.43599C0.687626 2.75567 1.09837 2.13761 1.61799 1.61799C2.13761 1.09837 2.75567 0.687626 3.43599 0.409809C4.11631 0.131991 4.84521 -0.00731969 5.58003 3.24044e-05C6.44825 0.00666376 7.30495 0.199322 8.09242 0.565023C8.87988 0.930724 9.57981 1.46097 10.145 2.12003C10.7103 1.46097 11.4102 0.930724 12.1976 0.565023C12.9851 0.199322 13.8418 0.00666376 14.71 3.24044e-05C15.4449 -0.00731969 16.1738 0.131991 16.8541 0.409809C17.5344 0.687626 18.1525 1.09837 18.6721 1.61799C19.1917 2.13761 19.6024 2.75567 19.8803 3.43599C20.1581 4.11631 20.2974 4.84521 20.29 5.58003C20.29 9.41503 16.841 12.539 11.616 17.287L10.145 18.616Z" fill="white"/>
</g>
<defs>
<clipPath id="clip0_49_205">
<rect width="20.29" height="18.616" fill="white"/>
</clipPath>
</defs>
</svg>
