<svg xmlns="http://www.w3.org/2000/svg" width="19.92" height="18.128" viewBox="0 0 19.92 18.128"><g transform="translate(-645 -1060.968)"><rect width="19.92" height="18.11" transform="translate(645 1060.968)" fill="#ecd892" opacity="0"/><g transform="translate(647 1061.968)"><path d="M27.338,5.419A2.419,2.419,0,1,1,24.919,3a2.419,2.419,0,0,1,2.419,2.419Z" transform="translate(-12.823 -3)" fill="none" stroke="#7b91a4" stroke-linejoin="round" stroke-width="2"/><path d="M9.338,15.919A2.419,2.419,0,1,1,6.919,13.5,2.419,2.419,0,0,1,9.338,15.919Z" transform="translate(-4.5 -7.855)" fill="none" stroke="#7b91a4" stroke-linejoin="round" stroke-width="2"/><path d="M27.338,26.419A2.419,2.419,0,1,1,24.919,24,2.419,2.419,0,0,1,27.338,26.419Z" transform="translate(-12.823 -12.71)" fill="none" stroke="#7b91a4" stroke-linejoin="round" stroke-width="2"/><path d="M12.885,20.265l5.508,3.209" transform="translate(-8.377 -10.983)" fill="none" stroke="#7b91a4" stroke-linejoin="round" stroke-width="2"/><path d="M18.385,9.765l-5.5,3.209" transform="translate(-8.377 -6.128)" fill="none" stroke="#7b91a4" stroke-linejoin="round" stroke-width="2"/></g></g></svg>