<svg width="20" height="19" viewBox="0 0 20 19" fill="none" xmlns="http://www.w3.org/2000/svg">
<g clip-path="url(#clip0_49_195)">
<path d="M2.04 0C1.49896 0 0.980076 0.214928 0.597502 0.597502C0.214928 0.980076 0 1.49896 0 2.04V6.12H2.04V3.483L6.419 7.862L7.862 6.419L3.483 2.04H6.12V0H2.04Z" fill="white"/>
<path d="M19.9201 2.04C19.9201 1.49896 19.7052 0.980076 19.3226 0.597502C18.94 0.214928 18.4211 0 17.8801 0H13.8001V2.04H16.4371L12.0591 6.419L13.5021 7.862L17.8811 3.483V6.12H19.9211L19.9201 2.04Z" fill="white"/>
<path d="M17.8801 18.11C18.4211 18.11 18.94 17.8951 19.3226 17.5125C19.7052 17.1299 19.9201 16.6111 19.9201 16.07V11.99H17.8801V14.628L13.5011 10.249L12.0581 11.692L16.4371 16.071H13.8001V18.111L17.8801 18.11Z" fill="white"/>
<path d="M0 16.07C0 16.6111 0.214928 17.1299 0.597502 17.5125C0.980076 17.8951 1.49896 18.11 2.04 18.11H6.12V16.07H3.483L7.862 11.691L6.419 10.249L2.04 14.628V11.99H0V16.07Z" fill="white"/>
</g>
<defs>
<clipPath id="clip0_49_195">
<rect width="19.92" height="18.11" fill="white"/>
</clipPath>
</defs>
</svg>
