<svg width="20" height="19" viewBox="0 0 20 19" fill="none" xmlns="http://www.w3.org/2000/svg">
<g clip-path="url(#clip0_52_214)">
<path d="M0 18.111H3.622V7.244H0V18.111ZM19.922 8.15C19.9207 7.6701 19.7295 7.21023 19.3901 6.87089C19.0508 6.53154 18.5909 6.34032 18.111 6.339H12.4L13.26 2.201L13.287 1.911C13.2858 1.55071 13.142 1.20556 12.887 0.951L11.927 0L5.968 5.968C5.79781 6.1341 5.66282 6.33277 5.57108 6.55217C5.47933 6.77157 5.43271 7.0072 5.434 7.245V16.3C5.43532 16.7799 5.62654 17.2398 5.96589 17.5791C6.30523 17.9185 6.7651 18.1097 7.245 18.111H15.395C15.7503 18.1125 16.098 18.0089 16.3945 17.8131C16.6909 17.6174 16.9228 17.3383 17.061 17.011L19.8 10.622C19.8838 10.4117 19.9269 10.1874 19.927 9.961V8.231L19.918 8.222L19.922 8.15Z" fill="#14FF9D"/>
</g>
<defs>
<clipPath id="clip0_52_214">
<rect width="19.922" height="18.111" fill="white"/>
</clipPath>
</defs>
</svg>
