<svg width="21" height="19" viewBox="0 0 21 19" fill="none" xmlns="http://www.w3.org/2000/svg">
<g clip-path="url(#clip0_49_201)">
<path d="M0.5 18.111H4.122V7.244H0.5V18.111ZM20.422 8.15C20.4207 7.6701 20.2295 7.21023 19.8901 6.87089C19.5508 6.53154 19.0909 6.34032 18.611 6.339H12.9L13.76 2.201L13.787 1.911C13.7858 1.55071 13.642 1.20556 13.387 0.951L12.427 0L6.468 5.968C6.29781 6.1341 6.16282 6.33277 6.07108 6.55217C5.97933 6.77157 5.93271 7.0072 5.934 7.245V16.3C5.93532 16.7799 6.12654 17.2398 6.46589 17.5791C6.80523 17.9185 7.2651 18.1097 7.745 18.111H15.895C16.2503 18.1125 16.598 18.0089 16.8945 17.8131C17.1909 17.6174 17.4228 17.3383 17.561 17.011L20.3 10.622C20.3838 10.4117 20.4269 10.1874 20.427 9.961V8.231L20.418 8.222L20.422 8.15Z" fill="white"/>
</g>
<defs>
<clipPath id="clip0_49_201">
<rect width="19.922" height="18.111" fill="white" transform="translate(0.5)"/>
</clipPath>
</defs>
</svg>
