<svg xmlns="http://www.w3.org/2000/svg" xmlns:xlink="http://www.w3.org/1999/xlink" width="50.383" height="53.024" viewBox="0 0 50.383 53.024"><defs><linearGradient id="a" x1="0.5" x2="0.5" y2="1" gradientUnits="objectBoundingBox"><stop offset="0" stop-color="#65fa7c"/><stop offset="1" stop-color="#00a887"/></linearGradient></defs><g transform="translate(-604.5 -1177.5)"><g transform="translate(616.482 1198.993)"><path d="M9.294,14.386a1.158,1.158,0,1,0,1.152,1.158A1.154,1.154,0,0,0,9.294,14.386Z" transform="translate(-3.138 -7.91)" fill="url(#a)"/><path d="M28.172,15.877C26.906,10.595,25.569,7.79,22.889,7a5.324,5.324,0,0,0-1.534-.239c-1.647,0-2.8.877-5.736.877s-4.089-.877-5.736-.877A5.265,5.265,0,0,0,8.35,7C5.67,7.79,4.333,10.6,3.067,15.877s-1.033,9.1.46,9.807a1.741,1.741,0,0,0,.746.167c1.3,0,2.692-1.421,4.041-3.1,1.534-1.916,1.916-1.97,6.584-1.97h1.45c4.662,0,5.05.048,6.584,1.97,1.343,1.683,2.746,3.1,4.041,3.1a1.761,1.761,0,0,0,.746-.167C29.2,24.968,29.431,21.154,28.172,15.877Zm-19.763.877a2.364,2.364,0,1,1,2.34-2.364A2.356,2.356,0,0,1,8.409,16.755Zm10.32-1.164a1.2,1.2,0,1,1,1.2-1.2A1.2,1.2,0,0,1,18.729,15.591Zm2.62,2.62a1.2,1.2,0,1,1,1.2-1.194A1.2,1.2,0,0,1,21.349,18.211Zm0-5.241a1.2,1.2,0,1,1,1.2-1.2A1.2,1.2,0,0,1,21.349,12.97Zm2.62,2.62a1.2,1.2,0,1,1,1.2-1.2A1.2,1.2,0,0,1,23.97,15.591Z" transform="translate(-2.247 -6.757)" fill="url(#a)"/></g><g transform="translate(604.5 1177.5)"><g transform="translate(0 0)"><path d="M59.026,17.458,35.683,2.707a1.61,1.61,0,0,0-1.7,0L10.641,17.471a1.329,1.329,0,0,0-.641,1.1V22.71a1.429,1.429,0,0,0,1.49,1.358,1.592,1.592,0,0,0,.849-.244l4.117-2.6v28.12h-1.49a1.429,1.429,0,0,0-1.49,1.358v2.717a1.252,1.252,0,0,0,.089.453H11.49a.455.455,0,1,0,0,.906l47.184-.453a.476.476,0,0,0-.5-.453H56.1a1.252,1.252,0,0,0,.089-.453V50.7a1.429,1.429,0,0,0-1.49-1.358h-.993v-27.8L57.328,23.8h0a1.613,1.613,0,0,0,1.528.093,1.352,1.352,0,0,0,.811-1.184V18.576a1.328,1.328,0,0,0-.641-1.118ZM54.7,50.246a.476.476,0,0,1,.5.453v2.717a.476.476,0,0,1-.5.453H14.967a.476.476,0,0,1-.5-.453V50.7a.476.476,0,0,1,.5-.453Zm-37.25-.906V20.591L34.55,9.775a.537.537,0,0,1,.566,0l17.6,11.133V49.341ZM58.674,22.71a.45.45,0,0,1-.267.4.538.538,0,0,1-.513-.029L35.683,9.046a1.61,1.61,0,0,0-1.7,0L11.773,23.081a.538.538,0,0,1-.513.029.45.45,0,0,1-.267-.4V18.576a.443.443,0,0,1,.214-.371L34.55,3.436a.537.537,0,0,1,.566,0L58.46,18.2a.442.442,0,0,1,.214.376Z" transform="translate(-9.642 -2.107)" fill="url(#a)"/><path d="M34.691,1.965a1.942,1.942,0,0,1,1.041.3L59.075,17.013a1.683,1.683,0,0,1,.807,1.421v4.14a1.705,1.705,0,0,1-1.018,1.5,1.976,1.976,0,0,1-.83.183,1.943,1.943,0,0,1-1.041-.3l-3.072-1.92v26.8h.636a1.913,1.913,0,0,1,1.295.491,1.646,1.646,0,0,1,.553,1.225v2.717q0,.048,0,.095h1.632a.834.834,0,0,1,.854.811v.354l-47.538.456a.812.812,0,1,1,0-1.621H12.98q0-.046,0-.092v-2.72a1.788,1.788,0,0,1,1.848-1.716h1.132V21.728l-3.568,2.256a1.941,1.941,0,0,1-1.04.3A1.788,1.788,0,0,1,9.5,22.568V18.434a1.688,1.688,0,0,1,.807-1.407L33.651,2.263A1.942,1.942,0,0,1,34.691,1.965Zm24.476,20.6v-4.13a.972.972,0,0,0-.474-.816L35.35,2.867a1.252,1.252,0,0,0-1.316,0L10.69,17.632a.975.975,0,0,0-.474.806v4.13a1.074,1.074,0,0,0,1.132,1,1.227,1.227,0,0,0,.657-.189l4.667-2.951V49.556H14.825a1.074,1.074,0,0,0-1.132,1v2.716a.888.888,0,0,0,.064.32l.2.49h-2.6c-.079,0-.139.05-.139.095s.059.095.139.095l19.787-.19H14.825a.834.834,0,0,1-.854-.811V50.557a.834.834,0,0,1,.854-.811H54.558a.834.834,0,0,1,.854.811v2.717a.789.789,0,0,1-.258.58l.37,0,.1-.256a.892.892,0,0,0,.064-.323V50.557a.938.938,0,0,0-.32-.7,1.2,1.2,0,0,0-.813-.3H53.207V20.749l4.168,2.606a1.23,1.23,0,0,0,.66.188,1.255,1.255,0,0,0,.527-.116A1,1,0,0,0,59.167,22.564Zm-4.609,30.8c.079,0,.139-.05.139-.095V50.557c0-.045-.059-.095-.139-.095H14.825c-.079,0-.139.05-.139.095v2.717c0,.045.059.095.139.095ZM34.691,2.855a.886.886,0,0,1,.474.136L58.509,17.756a.8.8,0,0,1,.38.681v4.13a.8.8,0,0,1-.471.724.9.9,0,0,1-.384.086.886.886,0,0,1-.474-.136L35.35,9.206a1.252,1.252,0,0,0-1.316,0L11.822,23.241a.886.886,0,0,1-.474.136.9.9,0,0,1-.384-.086.8.8,0,0,1-.471-.723V18.434a.8.8,0,0,1,.38-.674L34.217,2.992A.886.886,0,0,1,34.691,2.855ZM58.035,22.662a.178.178,0,0,0,.076-.017.1.1,0,0,0,.063-.078V18.434a.089.089,0,0,0-.047-.073L34.783,3.6a.184.184,0,0,0-.184,0L11.256,18.365a.089.089,0,0,0-.047.07v4.133a.1.1,0,0,0,.063.077.184.184,0,0,0,.168-.009L33.651,8.6a1.968,1.968,0,0,1,2.081,0L57.943,22.636A.174.174,0,0,0,58.035,22.662ZM34.691,9.194a.886.886,0,0,1,.474.136L52.929,20.569V49.556H16.95v-29.3L34.217,9.33A.886.886,0,0,1,34.691,9.194ZM52.214,20.963,34.783,9.935a.184.184,0,0,0-.184,0L17.666,20.646V48.841H52.214Z" transform="translate(-9.5 -1.965)" fill="url(#a)"/></g></g></g></svg>