<svg xmlns="http://www.w3.org/2000/svg" width="22.322" height="22.322" viewBox="0 0 22.322 22.322"><path d="M11.161,0C8.129,0,7.75.014,6.56.067A8.23,8.23,0,0,0,3.851.586,5.466,5.466,0,0,0,1.873,1.873,5.446,5.446,0,0,0,.586,3.851,8.206,8.206,0,0,0,.067,6.56C.011,7.75,0,8.129,0,11.161s.014,3.411.067,4.6a8.235,8.235,0,0,0,.519,2.709,5.473,5.473,0,0,0,1.287,1.977,5.458,5.458,0,0,0,1.977,1.287,8.24,8.24,0,0,0,2.709.519c1.19.056,1.569.067,4.6.067s3.411-.014,4.6-.067a8.259,8.259,0,0,0,2.709-.519,5.7,5.7,0,0,0,3.265-3.265,8.235,8.235,0,0,0,.519-2.709c.056-1.19.067-1.569.067-4.6s-.014-3.411-.067-4.6a8.254,8.254,0,0,0-.519-2.709,5.478,5.478,0,0,0-1.287-1.977A5.438,5.438,0,0,0,18.471.586,8.211,8.211,0,0,0,15.762.067C14.571.011,14.193,0,11.161,0Zm0,2.009c2.979,0,3.334.015,4.511.066a6.149,6.149,0,0,1,2.071.386,3.673,3.673,0,0,1,2.119,2.118,6.162,6.162,0,0,1,.384,2.071c.053,1.177.065,1.531.065,4.511s-.014,3.334-.069,4.511a6.281,6.281,0,0,1-.392,2.071,3.544,3.544,0,0,1-.836,1.285,3.482,3.482,0,0,1-1.284.833,6.207,6.207,0,0,1-2.079.384c-1.185.053-1.534.065-4.519.065S7.8,20.3,6.614,20.242a6.329,6.329,0,0,1-2.08-.392,3.456,3.456,0,0,1-1.283-.836,3.389,3.389,0,0,1-.837-1.284,6.334,6.334,0,0,1-.391-2.079c-.042-1.172-.057-1.534-.057-4.505s.015-3.335.057-4.521a6.327,6.327,0,0,1,.391-2.078,3.308,3.308,0,0,1,.837-1.284,3.3,3.3,0,0,1,1.283-.835A6.177,6.177,0,0,1,6.6,2.037C7.786,2,8.134,1.981,11.119,1.981l.042.028Zm0,3.421a5.731,5.731,0,1,0,5.731,5.731A5.731,5.731,0,0,0,11.161,5.43Zm0,9.451a3.72,3.72,0,1,1,3.72-3.72A3.719,3.719,0,0,1,11.161,14.881Zm7.3-9.677a1.339,1.339,0,1,1-1.339-1.338A1.34,1.34,0,0,1,18.458,5.2Z" fill="#152236"/></svg>