<svg xmlns="http://www.w3.org/2000/svg" width="20.4" height="20.395" viewBox="0 0 20.4 20.395"><path d="M10.2,7.206a5.229,5.229,0,1,0,5.229,5.229A5.221,5.221,0,0,0,10.2,7.206Zm0,8.629a3.4,3.4,0,1,1,3.4-3.4,3.406,3.406,0,0,1-3.4,3.4Zm6.663-8.843a1.22,1.22,0,1,1-1.22-1.22A1.217,1.217,0,0,1,16.859,6.992ZM20.323,8.23a6.036,6.036,0,0,0-1.647-4.273A6.075,6.075,0,0,0,14.4,2.309c-1.684-.1-6.731-.1-8.415,0A6.067,6.067,0,0,0,1.714,3.952,6.056,6.056,0,0,0,.066,8.226c-.1,1.684-.1,6.731,0,8.415a6.036,6.036,0,0,0,1.647,4.273,6.083,6.083,0,0,0,4.273,1.647c1.684.1,6.731.1,8.415,0a6.036,6.036,0,0,0,4.273-1.647,6.075,6.075,0,0,0,1.647-4.273c.1-1.684.1-6.726,0-8.41ZM18.147,18.447a3.442,3.442,0,0,1-1.939,1.939c-1.343.532-4.528.41-6.012.41s-4.674.118-6.012-.41a3.442,3.442,0,0,1-1.939-1.939c-.532-1.343-.41-4.528-.41-6.012s-.118-4.674.41-6.012A3.442,3.442,0,0,1,4.185,4.485c1.343-.532,4.528-.41,6.012-.41s4.674-.118,6.012.41a3.442,3.442,0,0,1,1.939,1.939c.532,1.343.41,4.528.41,6.012S18.68,17.109,18.147,18.447Z" transform="translate(0.005 -2.238)" fill="#fff"/></svg>