<svg xmlns="http://www.w3.org/2000/svg" xmlns:xlink="http://www.w3.org/1999/xlink" width="750.401" height="504.044" viewBox="0 0 750.401 504.044"><defs><linearGradient id="a" x1="21.515" y1="-11.34" x2="21.726" y2="8.43" gradientUnits="objectBoundingBox"><stop offset="0" stop-color="#56b17e"/><stop offset="0.519" stop-color="#8e7aed" stop-opacity="0.2"/></linearGradient><linearGradient id="b" x1="75.295" y1="-11.34" x2="75.506" y2="8.43" xlink:href="#a"/><linearGradient id="c" x1="0.5" x2="0.5" y2="1" gradientUnits="objectBoundingBox"><stop offset="0" stop-color="#eaffdb"/><stop offset="0.87" stop-color="#81e5f7"/></linearGradient><linearGradient id="d" x1="0.5" x2="0.5" y2="1" gradientUnits="objectBoundingBox"><stop offset="0" stop-color="#ffd715"/><stop offset="1" stop-color="#f7931e"/></linearGradient><linearGradient id="f" y1="0.5" x2="1" y2="0.5" gradientUnits="objectBoundingBox"><stop offset="0.124" stop-color="#9c86b5"/><stop offset="1" stop-color="#fff" stop-opacity="0"/></linearGradient><linearGradient id="g" x1="0.576" y1="0.111" x2="0.321" y2="1.456" gradientUnits="objectBoundingBox"><stop offset="0" stop-color="#fff" stop-opacity="0"/><stop offset="0.876" stop-color="#9c86b5"/></linearGradient><linearGradient id="h" x1="0.153" y1="0.017" x2="1.103" y2="0.017" gradientUnits="objectBoundingBox"><stop offset="0" stop-color="#ef879f"/><stop offset="0.371" stop-color="#ffbf9f"/></linearGradient><linearGradient id="i" x1="1.156" y1="-0.035" x2="1.156" y2="0.961" gradientUnits="objectBoundingBox"><stop offset="0.532" stop-color="#ffbf9f"/><stop offset="1" stop-color="#ef879f"/></linearGradient><linearGradient id="j" x1="9.224" y1="0.072" x2="10.088" y2="0.072" gradientUnits="objectBoundingBox"><stop offset="0" stop-color="#ef879f"/><stop offset="0.468" stop-color="#ffbf9f"/></linearGradient><linearGradient id="k" x1="0.468" y1="-0.016" x2="0.468" y2="0.986" gradientUnits="objectBoundingBox"><stop offset="0" stop-color="#723d8e"/><stop offset="0.124" stop-color="#f94b61"/></linearGradient><linearGradient id="l" x1="0.5" x2="0.5" y2="1" gradientUnits="objectBoundingBox"><stop offset="0.13" stop-color="#8e7aed"/><stop offset="1" stop-color="#5635dc"/></linearGradient><linearGradient id="m" y1="0.5" x2="1" y2="0.5" gradientUnits="objectBoundingBox"><stop offset="0" stop-color="#3f2bb2"/><stop offset="1" stop-color="#5635dc" stop-opacity="0"/></linearGradient><linearGradient id="n" x1="0.5" x2="0.5" y2="1" gradientUnits="objectBoundingBox"><stop offset="0" stop-color="#5635dc" stop-opacity="0"/><stop offset="1" stop-color="#3f2bb2"/></linearGradient><linearGradient id="o" x1="0.5" x2="0.5" y2="1" gradientUnits="objectBoundingBox"><stop offset="0.13" stop-color="#e7e1ff"/><stop offset="1" stop-color="#bfaef4"/></linearGradient><linearGradient id="p" x1="0.406" y1="-0.142" x2="0.406" y2="0.911" gradientUnits="objectBoundingBox"><stop offset="0.13" stop-color="#cfbbea"/><stop offset="1" stop-color="#fff"/></linearGradient><linearGradient id="q" x1="-0.038" y1="0.385" x2="0.848" y2="0.385" gradientUnits="objectBoundingBox"><stop offset="0" stop-color="#5635dc" stop-opacity="0"/><stop offset="0.616" stop-color="#3f2bb2"/></linearGradient><linearGradient id="r" x1="0.031" y1="0.529" x2="0.965" y2="0.529" xlink:href="#p"/><linearGradient id="s" x1="0.09" y1="0.538" x2="1.007" y2="0.538" gradientUnits="objectBoundingBox"><stop offset="0" stop-color="#fff"/><stop offset="0.87" stop-color="#cfbbea"/></linearGradient><linearGradient id="t" x1="0.119" y1="0.542" x2="1.003" y2="0.542" xlink:href="#q"/><linearGradient id="u" x1="0.119" y1="0.542" x2="0.986" y2="0.542" gradientUnits="objectBoundingBox"><stop offset="0.384" stop-color="#3f2bb2"/><stop offset="1" stop-color="#5635dc" stop-opacity="0"/></linearGradient><linearGradient id="v" x1="0.163" y1="0.564" x2="1.055" y2="0.564" gradientUnits="objectBoundingBox"><stop offset="0" stop-color="#6544c1"/><stop offset="1" stop-color="#f275c5"/></linearGradient><linearGradient id="w" x1="0.041" y1="0.387" x2="0.969" y2="0.387" xlink:href="#v"/><linearGradient id="x" x1="0.031" y1="0.529" x2="0.965" y2="0.529" xlink:href="#q"/><linearGradient id="y" x1="0.041" y1="0.387" x2="0.969" y2="0.387" gradientUnits="objectBoundingBox"><stop offset="0" stop-color="#6544c1" stop-opacity="0.302"/><stop offset="1" stop-color="#1b1464"/></linearGradient><linearGradient id="z" x1="0.191" y1="0.564" x2="1.062" y2="0.564" xlink:href="#y"/><linearGradient id="aa" x1="0" y1="0.5" x2="1" y2="0.5" xlink:href="#h"/><linearGradient id="ac" x1="0" y1="0.5" x2="1" y2="0.5" xlink:href="#n"/><linearGradient id="af" x1="0" y1="0.5" x2="1" y2="0.5" xlink:href="#l"/><linearGradient id="al" x1="0.672" y1="-0.063" x2="0.672" y2="0.941" gradientUnits="objectBoundingBox"><stop offset="0" stop-color="#723d8e"/><stop offset="0.87" stop-color="#f94b61"/></linearGradient><linearGradient id="an" y1="0.5" x2="1" y2="0.5" gradientUnits="objectBoundingBox"><stop offset="0" stop-color="#ff5f7e"/><stop offset="0.73" stop-color="#cc256e"/></linearGradient><linearGradient id="ao" x1="0.5" y1="0" x2="0.5" y2="1" xlink:href="#an"/><linearGradient id="ap" x1="-0.111" y1="0.568" x2="0.889" y2="0.568" xlink:href="#an"/><linearGradient id="aq" x1="0.355" y1="0.168" x2="0.355" y2="1.167" xlink:href="#an"/><linearGradient id="ar" x1="0.325" y1="0.161" x2="1.325" y2="0.161" xlink:href="#an"/><linearGradient id="as" x1="1.196" y1="-0.834" x2="1.196" y2="0.221" xlink:href="#an"/><linearGradient id="at" x1="0.5" y1="0" x2="0.5" y2="1" xlink:href="#l"/><linearGradient id="av" x1="0.597" y1="0.051" x2="0.597" y2="1.051" xlink:href="#l"/><linearGradient id="aw" x1="0.861" y1="0.072" x2="0.861" y2="1.069" xlink:href="#l"/><linearGradient id="ax" x1="0.751" y1="-1.046" x2="0.751" y2="-0.046" xlink:href="#l"/><linearGradient id="ay" x1="1.108" y1="-1.408" x2="1.108" y2="-0.412" xlink:href="#l"/><linearGradient id="az" x1="2.268" y1="1.258" x2="1.793" y2="2.138" xlink:href="#l"/><linearGradient id="ba" x1="0.523" y1="6.621" x2="0.523" y2="7.622" xlink:href="#l"/><linearGradient id="bb" x1="2.17" y1="0.909" x2="1.695" y2="1.789" xlink:href="#l"/><linearGradient id="bc" x1="1.43" y1="3.858" x2="1.43" y2="4.873" xlink:href="#l"/><linearGradient id="bd" x1="0.782" y1="2.347" x2="0.307" y2="3.227" xlink:href="#l"/><linearGradient id="be" x1="0.721" y1="5.418" x2="0.721" y2="6.447" xlink:href="#l"/><linearGradient id="bf" x1="4.326" y1="0" x2="4.326" y2="1" xlink:href="#i"/><linearGradient id="bg" x1="6.314" y1="0.5" x2="7.314" y2="0.5" gradientUnits="objectBoundingBox"><stop offset="0" stop-color="#f275c5"/><stop offset="1" stop-color="#6544c1"/></linearGradient><linearGradient id="bh" x1="0.3" y1="0.547" x2="0.933" y2="1.415" gradientUnits="objectBoundingBox"><stop offset="0.629" stop-color="#ffbf9f"/><stop offset="1" stop-color="#ef879f"/></linearGradient><linearGradient id="bi" x1="-0.013" y1="1.534" x2="1.184" y2="1.534" xlink:href="#i"/><linearGradient id="bj" x1="-0.014" y1="2.534" x2="1.231" y2="2.534" xlink:href="#i"/><linearGradient id="bk" x1="0.5" y1="0" x2="0.5" y2="1" xlink:href="#bg"/><linearGradient id="bl" x1="0" y1="0.5" x2="1" y2="0.5" xlink:href="#y"/><linearGradient id="bm" x1="0" y1="0.5" x2="1" y2="0.5" xlink:href="#i"/><linearGradient id="bn" x1="0" y1="0.5" x2="1" y2="0.5" xlink:href="#v"/><linearGradient id="bp" y1="0.5" x2="1" y2="0.5" gradientUnits="objectBoundingBox"><stop offset="0" stop-color="#1b1464"/><stop offset="1" stop-color="#6544c1" stop-opacity="0.302"/></linearGradient><linearGradient id="br" x1="0.77" y1="-0.332" x2="0.77" y2="0.644" xlink:href="#i"/><linearGradient id="bs" x1="0.5" y1="0" x2="0.5" y2="1" xlink:href="#h"/><linearGradient id="bt" y1="0.5" x2="1" y2="0.5" gradientUnits="objectBoundingBox"><stop offset="0" stop-color="#68eab5"/><stop offset="1" stop-color="#87bdf9"/></linearGradient><linearGradient id="bv" x1="9.558" y1="0.056" x2="9.558" y2="1.063" xlink:href="#bh"/><linearGradient id="bw" x1="5.408" y1="-1.178" x2="5.408" y2="-0.231" xlink:href="#bh"/><linearGradient id="bx" x1="9.497" y1="0.059" x2="10.221" y2="0.893" xlink:href="#bh"/><linearGradient id="by" x1="5.43" y1="0.5" x2="6.43" y2="0.5" xlink:href="#bt"/><linearGradient id="bz" x1="5.43" y1="0.5" x2="6.43" y2="0.5" gradientUnits="objectBoundingBox"><stop offset="0" stop-color="#87bdf9" stop-opacity="0"/><stop offset="0.454" stop-color="#4a4abc"/></linearGradient><linearGradient id="ca" x1="4.567" y1="0" x2="4.567" y2="1" xlink:href="#bt"/><linearGradient id="cb" x1="18945.307" y1="0.499" x2="18946.307" y2="0.499" gradientUnits="objectBoundingBox"><stop offset="0.508" stop-color="#4a4abc"/><stop offset="1" stop-color="#87bdf9" stop-opacity="0"/></linearGradient><linearGradient id="cc" x1="7.484" x2="7.484" y2="1" gradientUnits="objectBoundingBox"><stop offset="0" stop-color="#87bdf9" stop-opacity="0"/><stop offset="0.492" stop-color="#4a4abc"/></linearGradient><linearGradient id="cd" x1="771.886" y1="0.5" x2="772.886" y2="0.5" xlink:href="#cb"/><linearGradient id="ce" x1="4.494" y1="0.238" x2="5.047" y2="0.913" gradientUnits="objectBoundingBox"><stop offset="0" stop-color="#87bdf9" stop-opacity="0"/><stop offset="1" stop-color="#4a4abc"/></linearGradient></defs><g transform="translate(-258.653 -166.922)"><g transform="translate(298.194 166.922)"><g transform="translate(0)"><path d="M1453.888,248.763a18.982,18.982,0,0,0,8.665,3.471,89.945,89.945,0,0,0,15.916.8,162.36,162.36,0,0,0,33.477-3.812c10.458-2.314,20.528-5.823,30.6-9.294,17.937-6.18,36.588-12.19,55.928-9.507,15.163,2.1,30.729,9.7,36.793,23.726,1.753,4.056,2.514,8.691.881,12.9-1.568,4.038-4.818,7.139-6.954,10.879-4.467,7.822-2.677,17.429,1.885,24.827,4.965,8.053,13.441,13.465,22.146,17.452,9.557,4.377,19.783,7.609,29.876,10.685A409.593,409.593,0,0,0,1743.6,344.4c-1.089-40.84-47.174-49.536-76.641-92.822-32.54-47.8-95.072-53-155.932-23.9C1487.357,238.995,1471.669,246.694,1453.888,248.763Z" transform="translate(-1084.048 -195.084)" fill="#e9f2f2"/><path d="M408.619,522.984c5.025-6.546,10.848-12.486,16.134-18.837a143.072,143.072,0,0,0,15.68-23.118A138.194,138.194,0,0,0,451.3,455.081c2.944-9.712,5.276-20.147,3.193-30.228-3.036-14.688-14.709-25.843-24.026-37.29-4.514-5.546-8.723-11.366-11.5-17.885a53.413,53.413,0,0,1-3.9-20.408c-.224-27.02,18.784-50.09,43.006-62.762a101.4,101.4,0,0,1,39.668-11.354c17.343-1.218,33.655,3.514,49.567,9.579,17.21,6.56,35.192,15.11,54.171,15.071,16.074-.033,29.839-7.493,41.245-17.685,9.217-8.234,16.788-17.894,25.27-26.753-9.917-3.594-20.95-7.865-33.353-12.864a105.953,105.953,0,0,1-21.05,14.469,85.566,85.566,0,0,1-36.857,9.947c-13.452.344-26.4-3.459-38.925-7.694-12.925-4.37-25.892-9.3-39.673-10.572-14.585-1.345-29.234,1.12-43.079,5.4q-7.037,2.174-13.909,4.9c-26.764,26.141-42.181,58.523-44.592,79.194-5.636,48.322,24.7,101.3,20.589,131.062s-50.153,40.889-33.156,81.7,29.2,62.4,3.811,77.582c-17.79,10.638-14.43,33.456-10.823,46.167q.853-.49,1.7-.969c6.331-3.557,12.977-6.615,19.142-10.432a90.067,90.067,0,0,0,19.221-15.71c10.644-11.677,16.888-26.891,13.124-42.312-2.085-8.542-6.8-16.092-12.544-22.882-4.991-5.9-10.571-11.465-14.6-18.036-3.806-6.215-5.7-13.191-4.613-20.364C399.583,536.211,403.828,529.225,408.619,522.984Z" transform="translate(-374.097 -216.616)" fill="#e9f2f2"/><path d="M2144.637,1058.374c-1.559,3.8-3.424,7.693-4.218,11.718-1.579,8,4.528,13.079,11.364,16.483a198.842,198.842,0,0,0,24.146,9.589q5.135,1.761,10.342,3.328c.782-17.152-1.164-45.935-19.99-63.755-28.185-26.679,38.085-79.312,8.382-112.538-6.016-6.73-9.865-12.993-12.1-19.147-5.272,4.884-10.794,9.55-16.144,14.327-11.643,10.4-23.184,22-27.859,36.841a42.141,42.141,0,0,0-1.4,21.469,32.921,32.921,0,0,0,10.512,17.53c5.122,4.648,11.091,8.394,16.043,13.216,5.083,4.951,8.41,10.95,9.14,17.868.778,7.373-1.248,14.794-3.735,21.72C2147.749,1050.848,2146.181,1054.608,2144.637,1058.374Z" transform="translate(-1519.612 -651.576)" fill="#e9f2f2"/><path d="M595,201.115c13.7-3.816,28.18-5.7,42.418-3.908,13.664,1.723,26.47,6.726,39.382,11.022,12.956,4.311,26.292,7.81,40.161,6.713,13.329-1.055,26.127-5.8,37.357-12.542a106,106,0,0,0,14.459-10.471c-8.349-3.378-17.307-7.077-26.957-11.116-69.828-29.225-124.468-8.176-160.384,24.689C585.9,203.864,590.427,202.389,595,201.115Z" transform="translate(-510.422 -166.922)" fill="#e9f2f2"/><path d="M1017.246,676.615c-6.009-2.542-12.757-5.531-16.213-11.134-4.232-6.861-.285-14.605,2.444-21.274,5.547-13.553,13.521-30.328,4.4-44.122-3.745-5.666-9.566-9.739-14.944-13.924-5.338-4.154-10.454-8.622-13.59-14.548-6.522-12.325-4.431-27.32,1.665-39.4,6.928-13.726,19.13-24.36,30.767-34.516,3.765-3.286,7.572-6.6,11.249-10.039-7.066-23.408,8.472-45.832,16.127-87.041a68.608,68.608,0,0,0,1.213-11.806q-10.585-1.525-21.069-3.591a374.781,374.781,0,0,1-63.68-18.071c-16.38-6.4-33.726-17.384-34.434-35.914a22.628,22.628,0,0,1,2.585-11.531c2.162-4.054,5.94-7.331,7.321-11.756,2.655-8.507-4.239-17.786-10.771-23.03-13.141-10.549-32.234-12.442-48.642-9.638-21.4,3.658-40.911,13.456-62.014,18.177a165.321,165.321,0,0,1-32.89,3.948,115.664,115.664,0,0,1-15.918-.548c-4.067-.489-8.212-1.512-11.443-4.014a13.554,13.554,0,0,1-1.623-1.484c-17.812,1.447-38.192-2.7-70.844-14.4-14.339,14.853-26.382,32.262-46.184,40.944-33.446,14.663-66.493-9.192-98.1-17.228-28.983-7.369-60.635.595-83.093,19.187-10.468,8.666-18.848,19.749-22.894,32.411-4.219,13.2-3.849,28.51,2.719,40.984,6.743,12.806,18.176,22.647,26.235,34.643,4.032,6,7.1,12.569,8.12,19.656,1.3,9.1-.574,18.34-3.1,27.105a142.077,142.077,0,0,1-23.687,46.8c-9.87,12.9-24.7,24.482-29.01,40.429-4.613,17.073,9.189,29.085,19.23,41.334,9.627,11.743,15.25,26.075,12.107,40.981-2.97,14.087-12.832,26.108-24.319,35.11-9.384,7.355-20.356,12.251-30.673,18.211a71.091,71.091,0,0,0,2.505,6.928l659.207-4.963a107.935,107.935,0,0,0,1.337-12.041A294.384,294.384,0,0,1,1017.246,676.615ZM914.528,383.358c-20.364-7.566-37.194-20.947-54.664-33.017a207.493,207.493,0,0,0-24.976-15.156,212.55,212.55,0,0,0-29.542-11.855c-10.062-3.267-20.305-6.007-30.578-8.611-10.564-2.677-21.154-5.551-31.953-7.26-10.7-1.693-21.961-2.078-32.394,1.133a49.214,49.214,0,0,0-20.239,12.391c-11.258,11.3-17.085,27.634-13.619,42.98.3,1.306-1.826,1.859-2.121.552-3.879-17.174,3.218-35.468,16.663-47.336a50.909,50.909,0,0,1,20.653-11.138c10.767-2.822,22.123-2.2,33.01-.362,10.975,1.849,21.759,4.78,32.512,7.526,10.692,2.731,21.345,5.637,31.781,9.156a204.387,204.387,0,0,1,29.846,12.521A232.1,232.1,0,0,1,863.917,350.6c16.232,11.375,32.2,23.7,51.2,30.758C916.417,381.839,915.846,383.847,914.528,383.358Z" transform="translate(-380.803 -237.401)" fill="#e9f2f2"/></g><g transform="translate(35.752 24.112)"><circle cx="5.781" cy="5.781" r="5.781" transform="translate(157.667 3.969)" fill="#fff"/><circle cx="5.781" cy="5.781" r="5.781" transform="translate(0 296.61)" fill="#fff"/><circle cx="5.781" cy="5.781" r="5.781" transform="translate(445.988 27.519)" fill="#fff"/><circle cx="5.781" cy="5.781" r="5.781" transform="translate(583.334 104.738)" fill="#fff"/><circle cx="5.781" cy="5.781" r="5.781" transform="translate(12.932 100.758)" fill="#fff"/><circle cx="3.479" cy="3.479" r="3.479" transform="translate(136.956)" fill="#fff"/><circle cx="3.479" cy="3.479" r="3.479" transform="translate(479.505 23.762)" fill="#fff"/><circle cx="3.479" cy="3.479" r="3.479" transform="translate(593.568 175.332)" fill="#fff"/><circle cx="3.479" cy="3.479" r="3.479" transform="translate(62.993 26.342)" fill="#fff"/><circle cx="1.739" cy="1.739" r="1.739" transform="translate(196.102 27.241)" fill="#fff"/><circle cx="1.739" cy="1.739" r="1.739" transform="translate(112.701 22.372)" fill="#fff"/><circle cx="1.739" cy="1.739" r="1.739" transform="translate(529.38 33.005)" fill="#fff"/></g></g><g transform="translate(870.336 405.525)"><path d="M2154.651,941.74c-1.563,8.117-3.337,16.5-5.253,24.97-5.081,22.529-11.128,45.626-16.708,65.736-.009,0-.009,0,0,.006-1.289,4.633-2.551,9.1-3.767,13.375q-.78,2.718-1.533,5.33c0,.005,0,.005,0,.011-1.718,5.977-3.342,11.49-4.8,16.385h-27.991l-.167.368-4-.073c.009-.095.021-.2.03-.3,2.3-22.055,6.134-54.134,11.713-86.352,3.368-19.457,7.371-38.964,12.056-56.347,8.771-32.508,19.921-57.585,33.751-60.964C2165.522,859.608,2163.379,896.481,2154.651,941.74Z" transform="translate(-2074.701 -863.551)" fill="#5db285"/><g transform="translate(15.716 61.302)" opacity="0.24"><path d="M2154.651,1059.417c-1.563,8.117-3.337,16.5-5.253,24.97-5.081,22.529-11.128,45.627-16.708,65.736-.009,0-.009,0,0,.005-1.289,4.633-2.551,9.1-3.767,13.375q-.78,2.718-1.533,5.33c0,.005,0,.005,0,.011-1.718,5.976-3.342,11.49-4.8,16.385h-27.991l-.167.368-4-.073c.009-.095.021-.2.03-.3,2.3-22.055,6.134-54.134,11.713-86.352,3.368-19.457,7.371-38.964,12.056-56.347,2.672,4.672,5.185,13.67,2.59,30.295-1.993,12.739-5.317,28.466-7.658,40.8-2.981,15.7-4.368,25.907.619,17.494q.148-.251.309-.535a76.525,76.525,0,0,0,3.548-7.37c.764-1.762,1.559-3.674,2.384-5.7,1.92-4.694,4.016-10,6.318-15.443,2.083-4.945,4.338-10.007,6.778-14.846C2136,1073.555,2144.373,1061.7,2154.651,1059.417Z" transform="translate(-2090.417 -1042.53)" fill="#474fb5"/></g><g transform="translate(31.054 11.604)" opacity="0.57"><path d="M2173.077,1039.95c-1.353,5-13.517,22.629-17.713,28.622-2.852,14.813-5.846,30.094-8.655,44.311-2.723,13.821-5.274,26.632-7.357,37.04H2135.2c2.861-14.562,6.739-34.208,10.854-54.775-.889-2.041-1.963-4.6-2.985-7.242-1.916-4.956-3.651-10.225-3.621-12.99.039-3.624,3.17,1.812,6,7.292.816,1.572,1.606,3.15,2.289,4.516,1.34-6.662,2.689-13.364,4.029-19.959,1.538-7.588,3.063-15.047,4.527-22.155,0,0-4.553-21.2-6.49-30.986-1.6-8.089,6.09,12.471,8.8,19.847,5.777-27.664,10.231-47.433,10.536-44.316.344,3.468-4.454,30.39-10.6,62.764-.176.942-.357,1.885-.537,2.838C2162.829,1048.887,2174.383,1035.15,2173.077,1039.95Z" transform="translate(-2135.198 -957.526)" fill="#e1ff8d"/><ellipse cx="4.236" cy="5.499" rx="4.236" ry="5.499" transform="translate(33.644)" fill="#e1ff8d"/><ellipse cx="4.236" cy="5.499" rx="4.236" ry="5.499" transform="translate(38.376 18.775)" fill="#e1ff8d"/><ellipse cx="9.959" cy="4.186" rx="9.959" ry="4.186" transform="translate(18.244 39.601) rotate(-78.501)" fill="#e1ff8d"/></g><path d="M2244.134,1147.954c-6.013,26.6-36.573,61.359-58.294,83.369h-47.1c2.027-8.814,5.438-22.289,10.3-37.041,5.571-16.893,13.053-35.469,22.545-50.622v-.011l0-.006a107.65,107.65,0,0,1,9.583-13.163c12.636-14.657,28.082-22.4,46.508-15C2243.563,1121.863,2247.355,1133.749,2244.134,1147.954Z" transform="translate(-2106.47 -1027.322)" fill="#d0ef86"/><g transform="translate(67.73 95.917)"><ellipse cx="6.068" cy="5.053" rx="6.068" ry="5.053" transform="translate(23.149)" fill="#f6ffd4"/><ellipse cx="5.016" cy="4.334" rx="5.016" ry="4.334" transform="matrix(0.613, -0.79, 0.79, 0.613, 6.364, 18.238)" fill="#f6ffd4"/><ellipse cx="3.252" cy="2.828" rx="3.252" ry="2.828" transform="translate(23.877 26.135) rotate(-64.731)" fill="#f6ffd4"/><ellipse cx="3.252" cy="2.828" rx="3.252" ry="2.828" transform="translate(0 34.968) rotate(-64.731)" fill="#f6ffd4"/></g><path d="M2249.884,1164.182c-.558,1.689-7.86,8.346-17.4,17.266-1.392,1.3-2.835,2.654-4.312,4.047-10.36,9.767-22.382,21.5-31.235,32.3-.846,1.037-1.662,2.057-2.448,3.077-1.516,1.957-2.907,3.875-4.145,5.731a177.916,177.916,0,0,0-10.544,18.247v.005q-.915,1.815-1.774,3.585c0,.005,0,.005,0,.011-2.886,5.988-5.274,11.624-7.147,16.385h-3.436a169.1,169.1,0,0,1,12.022-28.332v-.006q1.8-3.353,3.865-6.762c0-.005,0-.005,0-.005a135.5,135.5,0,0,1,15.067-20.449c2.891-3.217,5.764-6.305,8.582-9.243.777-.82,1.551-1.617,2.315-2.4C2232.188,1174.123,2251.07,1160.575,2249.884,1164.182Z" transform="translate(-2125.342 -1060.833)" fill="#f6ffd4"/><path d="M2241.915,1311.855s37.472-7.98,34.223-5.3-37.14,8.382-37.14,8.382Z" transform="translate(-2172.391 -1154.458)" fill="#f6ffd4"/><path d="M2282.531,1229.661s2.507-26.063,3.759-22.5-1.879,22.5-1.879,22.5Z" transform="translate(-2201.014 -1089.253)" fill="#f6ffd4"/><path d="M2333.649,1213.955s18.017-4.1,16.336-1.16-22.4,5.063-22.4,5.063Z" transform="translate(-2230.634 -1092.476)" fill="#f6ffd4"/><path d="M2244.134,1207.509c-6.013,26.6-36.573,61.359-58.294,83.369h-47.1c2.027-8.814,5.438-22.289,10.3-37.041,5.571-16.893,13.053-35.469,22.545-50.622-.2.775-10.081,38.735-10.991,59.324v.005a48.17,48.17,0,0,0,.1,6.607c.064.619.142,1.2.241,1.739v.005c1.026,5.664,4.127,6.785,10.656-.569,24.878-28.042,24.878-7.928,40.675-25.562C2225.179,1230.344,2237.184,1202.731,2244.134,1207.509Z" transform="translate(-2106.47 -1086.877)" fill="#69c498" opacity="0.24"/><path d="M2064.419,1459.156l-.167.368-4-.073-15.716-.3Z" transform="translate(-2044.533 -1255.155)" fill="url(#a)"/></g><g transform="translate(258.653 405.525)"><path d="M417.587,941.74c1.563,8.117,3.337,16.5,5.253,24.97,5.081,22.529,11.129,45.626,16.708,65.736.009,0,.009,0,0,.006,1.289,4.633,2.551,9.1,3.767,13.375q.779,2.718,1.533,5.33c0,.005,0,.005,0,.011,1.718,5.977,3.342,11.49,4.8,16.385H477.65l.168.368,4-.073c-.009-.095-.021-.2-.03-.3-2.3-22.055-6.133-54.134-11.713-86.352-3.367-19.457-7.37-38.964-12.056-56.347-8.771-32.508-19.921-57.585-33.751-60.964C406.716,859.608,408.859,896.481,417.587,941.74Z" transform="translate(-358.818 -863.551)" fill="#5db285"/><g transform="translate(58.769 61.302)" opacity="0.24"><path d="M430.235,1059.417c1.563,8.117,3.337,16.5,5.253,24.97,5.081,22.529,11.129,45.627,16.708,65.736.009,0,.009,0,0,.005,1.289,4.633,2.551,9.1,3.767,13.375q.779,2.718,1.533,5.33c0,.005,0,.005,0,.011,1.718,5.976,3.342,11.49,4.8,16.385H490.3l.167.368,4-.073c-.009-.095-.021-.2-.03-.3-2.3-22.055-6.133-54.134-11.713-86.352-3.367-19.457-7.37-38.964-12.056-56.347-2.672,4.672-5.184,13.67-2.59,30.295,1.993,12.739,5.317,28.466,7.659,40.8,2.981,15.7,4.368,25.907-.619,17.494q-.148-.251-.309-.535a76.392,76.392,0,0,1-3.548-7.37c-.765-1.762-1.559-3.674-2.384-5.7-1.92-4.694-4.016-10-6.318-15.443-2.083-4.945-4.338-10.007-6.778-14.846C448.889,1073.555,440.513,1061.7,430.235,1059.417Z" transform="translate(-430.235 -1042.53)" fill="#474fb5"/></g><g transform="translate(60.816 11.604)" opacity="0.57"><path d="M462.2,1039.95c1.353,5,13.517,22.629,17.713,28.622,2.852,14.813,5.846,30.094,8.655,44.311,2.723,13.821,5.275,26.632,7.358,37.04h4.153c-2.86-14.562-6.739-34.208-10.854-54.775.889-2.041,1.963-4.6,2.985-7.242,1.915-4.956,3.651-10.225,3.621-12.99-.039-3.624-3.17,1.812-6,7.292-.816,1.572-1.606,3.15-2.289,4.516-1.34-6.662-2.689-13.364-4.029-19.959-1.538-7.588-3.062-15.047-4.527-22.155,0,0,4.553-21.2,6.49-30.986,1.6-8.089-6.091,12.471-8.8,19.847-5.777-27.664-10.231-47.433-10.536-44.316-.344,3.468,4.454,30.39,10.6,62.764.176.942.356,1.885.537,2.838C472.452,1048.887,460.9,1035.15,462.2,1039.95Z" transform="translate(-453.234 -957.526)" fill="#e1ff8d"/><ellipse cx="4.236" cy="5.499" rx="4.236" ry="5.499" transform="translate(4.732)" fill="#e1ff8d"/><ellipse cx="4.236" cy="5.499" rx="4.236" ry="5.499" transform="translate(0 18.775)" fill="#e1ff8d"/><ellipse cx="4.186" cy="9.959" rx="4.186" ry="9.959" transform="translate(16.43 21.752) rotate(-11.499)" fill="#e1ff8d"/></g><path d="M259.707,1147.954c6.013,26.6,36.573,61.359,58.294,83.369h47.105c-2.027-8.814-5.438-22.289-10.3-37.041-5.571-16.893-13.053-35.469-22.545-50.622v-.011l0-.006a107.585,107.585,0,0,0-9.582-13.163c-12.636-14.657-28.082-22.4-46.508-15C260.279,1121.863,256.486,1133.749,259.707,1147.954Z" transform="translate(-258.653 -1027.322)" fill="#d0ef86"/><g transform="translate(35.703 95.917)"><ellipse cx="6.068" cy="5.053" rx="6.068" ry="5.053" fill="#f6ffd4"/><ellipse cx="4.334" cy="5.016" rx="4.334" ry="5.016" transform="matrix(0.79, -0.613, 0.613, 0.79, 15.923, 15.631)" fill="#f6ffd4"/><ellipse cx="2.828" cy="3.252" rx="2.828" ry="3.252" transform="translate(3.517 22.668) rotate(-25.269)" fill="#f6ffd4"/><ellipse cx="2.828" cy="3.252" rx="2.828" ry="3.252" transform="translate(27.394 31.501) rotate(-25.269)" fill="#f6ffd4"/></g><path d="M299.94,1164.182c.559,1.689,7.86,8.346,17.4,17.266,1.392,1.3,2.835,2.654,4.312,4.047,10.36,9.767,22.382,21.5,31.234,32.3.846,1.037,1.662,2.057,2.448,3.077,1.516,1.957,2.908,3.875,4.145,5.731a177.831,177.831,0,0,1,10.545,18.247v.005q.915,1.815,1.774,3.585c0,.005,0,.005,0,.011,2.886,5.988,5.275,11.624,7.147,16.385h3.436a169.1,169.1,0,0,0-12.022-28.332v-.006q-1.8-3.353-3.866-6.762c0-.005,0-.005,0-.005a135.539,135.539,0,0,0-15.067-20.449c-2.891-3.217-5.764-6.305-8.582-9.243-.777-.82-1.551-1.617-2.315-2.4C317.637,1174.123,298.755,1160.575,299.94,1164.182Z" transform="translate(-285.764 -1060.833)" fill="#f6ffd4"/><path d="M394.6,1311.855s-37.472-7.98-34.223-5.3,37.14,8.382,37.14,8.382Z" transform="translate(-325.403 -1154.458)" fill="#f6ffd4"/><path d="M417.876,1229.661s-2.507-26.063-3.759-22.5,1.88,22.5,1.88,22.5Z" transform="translate(-360.674 -1089.253)" fill="#f6ffd4"/><path d="M331.321,1213.955s-18.017-4.1-16.336-1.16,22.4,5.063,22.4,5.063Z" transform="translate(-295.618 -1092.476)" fill="#f6ffd4"/><path d="M261.732,1207.509c6.013,26.6,36.573,61.359,58.294,83.369h47.105c-2.027-8.814-5.438-22.289-10.3-37.041-5.571-16.893-13.053-35.469-22.545-50.622.2.775,10.081,38.735,10.991,59.324v.005a48.144,48.144,0,0,1-.1,6.607c-.064.619-.142,1.2-.24,1.739v.005c-1.027,5.664-4.128,6.785-10.657-.569-24.877-28.042-24.877-7.928-40.675-25.562C280.687,1230.344,268.682,1202.731,261.732,1207.509Z" transform="translate(-260.677 -1086.877)" fill="#69c498" opacity="0.24"/><path d="M605.6,1459.156l.167.368,4-.073,15.716-.3Z" transform="translate(-486.765 -1255.155)" fill="url(#b)"/><path d="M420.182,1230.782c2.345,3.71,4.853,7.51,7.452,11.323,6.907,10.147,14.44,20.382,21.166,29.229,0,0,0,0,0,0,1.551,2.038,3.059,4,4.5,5.873q.923,1.191,1.812,2.334s0,0,0,0c2.031,2.618,3.926,5.025,5.619,7.158l15.046-5.626.158.149,2.138-.841c-.022-.045-.048-.092-.071-.14-5.323-10.472-13.331-25.6-22.3-40.454-5.416-8.969-11.184-17.834-16.925-25.51-10.74-14.353-21.382-24.543-29.443-23.438C399.115,1192.251,407.1,1210.1,420.182,1230.782Z" transform="translate(-354.67 -1078.69)" fill="#3a8969"/></g><path d="M1050.815,1470.956a15.456,15.456,0,0,1-6.139,11.979,23.624,23.624,0,0,1-14.822,4.961H864.885c-4.821,0-8.732,3.156-8.732,7.051s3.911,7.055,8.732,7.055H959.12c9.091,0,16.459,3.406,16.459,7.609,0,2.1-1.839,4-4.821,5.381a28.531,28.531,0,0,1-11.638,2.229H474.342c-9.1,0-16.468-3.406-16.468-7.609,0-2.1,1.843-4,4.821-5.38A28.592,28.592,0,0,1,474.342,1502H542.43c4.821,0,8.727-3.16,8.727-7.055s-3.906-7.051-8.727-7.051H412.573c-11.58,0-20.966-7.584-20.966-16.94a15.443,15.443,0,0,1,6.14-11.975,23.636,23.636,0,0,1,14.827-4.961h617.28C1041.433,1454.02,1050.815,1461.6,1050.815,1470.956Z" transform="translate(-87.416 -846.253)" fill="#c1e5d8"/><ellipse cx="308.425" cy="10.788" rx="308.425" ry="10.788" transform="translate(328.012 621.36)" fill="#80bfc1"/><g transform="translate(324.489 235.189)"><path d="M1115.212,722.28V398.634c0-17.892-13.586-32.4-30.344-32.4H605.434c-16.759,0-30.344,14.5-30.344,32.4V722.28Z" transform="translate(-532.543 -366.237)" fill="#464648"/><path d="M1076.087,1388.676v7.941c0,4.3-3.506,8.2-9.234,11.105-6.192,3.134-14.977,5.092-24.721,5.092H484.82c-9.744,0-18.525-1.959-24.717-5.092-5.728-2.9-9.234-6.808-9.234-11.105v-7.941Z" transform="translate(-450.869 -1038.48)" fill="#eaeaea"/><path d="M1084.578,1444.284c-6.191,3.134-14.977,5.092-24.721,5.092H502.546c-9.744,0-18.525-1.959-24.717-5.092Z" transform="translate(-468.595 -1075.042)" fill="#464648" opacity="0.42"/><path d="M1360.054,386.544a5.722,5.722,0,1,1-5.722-5.727A5.725,5.725,0,0,1,1360.054,386.544Z" transform="translate(-1041.124 -375.823)" fill="#d4d4d4"/></g><path d="M1129.053,441.117V741.029a7.055,7.055,0,0,1-6.926,7.176H632.463a7.055,7.055,0,0,1-6.926-7.176V441.117c0-8.822,6.9-15.973,15.418-15.973h472.68C1122.15,425.144,1129.053,432.3,1129.053,441.117Z" transform="translate(-241.222 -169.778)" fill="url(#c)"/><g transform="translate(391.064 260.492)" opacity="0.56"><path d="M645.344,463.59s-2.993,224.951,23.433,218.469,50.7-52.232,104.61-26,87.016,30.054,114.4,2.895,111.784-163.148,81.248-189.316S649.219,421.763,645.344,463.59Z" transform="translate(-645.242 -440.111)" fill="#eaffdb"/><path d="M1646.748,466.914s-13.334,93.666,56.554,101.092,64.183,83.759,84.886,63.479,22.343-153.538,2.926-172.1S1642.7,449.448,1646.748,466.914Z" transform="translate(-1303.053 -445.942)" fill="#eaffdb"/></g><g transform="translate(375.241 408.703)" opacity="0.12"><path d="M1120.707,882.795v152.584a7.176,7.176,0,0,1-7.176,7.176H606.222a7.179,7.179,0,0,1-7.176-7.176V872.831s13.535,177.348,40.73,128.307,102.731-95.42,117.373-51.3,69.083,75.475,97.924,30.644,28.752-60.429,62.433-67.877,140.89-7.1,157.245,48.787S1120.707,882.795,1120.707,882.795Z" transform="translate(-599.046 -872.831)" fill="#4242a8"/></g><g transform="translate(375.241 485.966)" opacity="0.12"><path d="M1120.707,1104.893v78.8a7.176,7.176,0,0,1-7.176,7.176H606.222a7.179,7.179,0,0,1-7.176-7.176v-85.286s13.535,115.47,40.73,83.543,102.731-62.127,117.373-33.4,69.083,49.141,97.924,19.953,28.752-39.346,62.433-44.193,140.89-4.624,157.245,31.763S1120.707,1104.893,1120.707,1104.893Z" transform="translate(-599.046 -1098.408)" fill="#4242a8"/></g><g transform="translate(658.445 382.833)"><path d="M1616.956,922.773s-83.637,74.447-122.995,64.581-66.07-59.118-66.07-59.118-.336-2-.74-4.933c-.937-6.907-2.211-18.953-.148-21.9.744-1.063,5.381-8.768,12.167-19.545,13.925-22.106,36.9-57.145,53.943-74.349,7.364-7.431,13.616-11.535,17.553-9.826,3.193,1.386,8.561,4.731,15.222,9.337,19.679,13.607,50.6,38.21,69.68,55.625,9.839,8.979,16.531,16.046,16.9,18.71.417,2.983,1.014,8.122,1.632,13.791C1615.468,907.677,1616.956,922.773,1616.956,922.773Z" transform="translate(-1425.895 -797.299)" fill="#ef8720"/><path d="M1619.37,941.436s-83.637,74.447-122.995,64.581S1430.3,946.9,1430.3,946.9s-.336-2-.74-4.933c7.606.7,17.872-.372,17.589-11.369-.171-6.561-2.6-18.159-5.57-30.075,13.926-22.106,36.9-57.145,53.943-74.349,5.956,3.216,13.163,4.427,23.715,2.157a65.514,65.514,0,0,0,9.059-2.646c19.679,13.607,50.6,38.21,69.68,55.625-1.749,3.153-2.637,7.427-1.619,13.553,2.516,15.118,8.4,21.2,20.155,18.948C1617.881,926.34,1619.37,941.436,1619.37,941.436Z" transform="translate(-1428.308 -815.962)" fill="#e85c49"/><path d="M1531.583,847.6s17.927-6.027,64.27-11.409,61.441-1.569,64.132,0,4.26,3.085,7.176,11.409a38.547,38.547,0,0,1,2.242,15.051l-14.65,2.242s-104.645,31.842-112.493,23.545S1531.583,847.6,1531.583,847.6Z" transform="translate(-1495.384 -821.042)" fill="#f5fbff"/><path d="M1557.007,1022.967c-25.115-.6-56.508-24.518-56.508-24.518s-14.652-73.631-14.352-94.221,5.979-32.923,25.115-31.241,14.351,32.479,14.351,32.479l99.262-14.651s-.063,2.911-.049,7.786c.027,12.284.525,37.044,3.7,59.15a166.583,166.583,0,0,0,4.13,20.666C1641.621,1010.705,1582.122,1023.563,1557.007,1022.967Z" transform="translate(-1465.507 -846.963)" fill="#ebebff"/><g transform="translate(44.886 62.766)" opacity="0.46"><path d="M1559.184,1001.843a2.243,2.243,0,0,1-.278-4.468c.178-.023,18.168-2.318,52.206-8.378,33.639-5.989,40.823-8.309,40.892-8.331a2.242,2.242,0,0,1,1.43,4.251c-.28.095-7.26,2.393-41.537,8.5-34.165,6.083-52.251,8.39-52.429,8.412A2.282,2.282,0,0,1,1559.184,1001.843Z" transform="translate(-1556.944 -980.552)" fill="#a29ad8"/><path d="M1560.188,1068.009h-.1a2.242,2.242,0,0,1,.019-4.485h.042c.491,0,8.592-.046,21.883-2.771,13.975-2.865,18.754-3.678,18.95-3.711a2.242,2.242,0,0,1,.747,4.422c-.047.009-4.925.839-18.8,3.683C1569.425,1067.915,1561.223,1068.009,1560.188,1068.009Z" transform="translate(-1557.55 -1030.822)" fill="#a29ad8"/><path d="M1703.931,1040.133a2.243,2.243,0,0,1-.4-4.449l44.271-8a2.242,2.242,0,0,1,.8,4.413l-44.271,8A2.256,2.256,0,0,1,1703.931,1040.133Z" transform="translate(-1652.114 -1011.518)" fill="#a29ad8"/><path d="M1584.261,1191.575h-.1a2.242,2.242,0,0,1,.019-4.485h.041c.488,0,8.588-.046,21.884-2.771,13.975-2.865,18.753-3.679,18.949-3.711a2.242,2.242,0,0,1,.748,4.422c-.048.008-4.925.839-18.8,3.683C1593.5,1191.482,1585.293,1191.575,1584.261,1191.575Z" transform="translate(-1573.379 -1112.065)" fill="#a29ad8"/><path d="M1728.005,1163.7a2.243,2.243,0,0,1-.4-4.45l44.271-8a2.242,2.242,0,1,1,.8,4.413l-44.271,8A2.223,2.223,0,0,1,1728.005,1163.7Z" transform="translate(-1667.942 -1092.762)" fill="#a29ad8"/><path d="M1564.772,1091.561a2.242,2.242,0,0,1-.044-4.484c.224,0,22.776-.519,54.122-6.5,30.959-5.907,39.261-9.815,39.341-9.854a2.242,2.242,0,0,1,1.98,4.024c-.337.167-8.62,4.155-40.48,10.235-31.746,6.057-54.647,6.574-54.875,6.579Z" transform="translate(-1560.617 -1039.691)" fill="#a29ad8"/><path d="M1571.792,1129.538a2.242,2.242,0,0,1-.044-4.484c.224,0,22.776-.519,54.123-6.5,30.959-5.908,39.26-9.815,39.341-9.854a2.242,2.242,0,0,1,1.98,4.024c-.337.167-8.62,4.155-40.48,10.235-31.746,6.057-54.647,6.574-54.875,6.579Z" transform="translate(-1565.233 -1064.66)" fill="#a29ad8"/></g><path d="M1557.007,1022.967c-25.115-.6-56.508-24.518-56.508-24.518s-14.652-73.631-14.352-94.221,5.979-32.923,25.115-31.241,14.351,32.479,14.351,32.479l99.262-14.651s-.063,2.911-.049,7.786c-26.752,2.561-125.466,12.974-127.018,27.263-1.794,16.526,21.527,66.724,53.369,63.374,22.271-2.341,57.925-20.68,77.344-31.488a166.583,166.583,0,0,0,4.13,20.666C1641.621,1010.705,1582.122,1023.563,1557.007,1022.967Z" transform="translate(-1465.507 -846.963)" fill="#afa5db" opacity="0.45"/><path d="M1622.793,1190.381H1438.02s-18-67.263-10.122-64.657c7.548,2.5,92.629,29.671,106.487,27.859a3.612,3.612,0,0,0,1.4-.408c7.624-4.659,77.138-62.065,80.726-54.889,2.843,5.682,5.122,60.123,5.947,82.529.067,1.9.13,3.565.179,4.956C1622.74,1188.69,1622.793,1190.381,1622.793,1190.381Z" transform="translate(-1425.901 -994.787)" fill="url(#d)"/><path d="M1831.033,1190.381h-84.022c-3.812-17.1-4.386-36.8-4.386-36.8a3.612,3.612,0,0,0,1.4-.408c7.624-4.659,77.138-62.065,80.726-54.889,2.843,5.682,5.122,60.123,5.947,82.529.067,1.9.13,3.565.179,4.956C1830.98,1188.69,1831.033,1190.381,1831.033,1190.381Z" transform="translate(-1634.141 -994.787)" fill="url(#d)"/><path d="M1831.033,1190.381h-84.022c-3.812-17.1-4.386-36.8-4.386-36.8a3.612,3.612,0,0,0,1.4-.408c7.624-4.659,77.138-62.065,80.726-54.889,2.843,5.682,5.122,60.123,5.947,82.529.067,1.9.13,3.565.179,4.956C1830.98,1188.69,1831.033,1190.381,1831.033,1190.381Z" transform="translate(-1634.141 -994.787)" opacity="0.44" fill="url(#f)" style="mix-blend-mode:color-burn;isolation:isolate"/><path d="M1622.793,1244.1H1438.02s-18-67.263-10.122-64.657c0,0,17.747,57.324,61.7,58.522,33.169.9,96.472.269,132.866-3.431.067,1.9.13,3.565.179,4.955C1622.74,1242.408,1622.793,1244.1,1622.793,1244.1Z" transform="translate(-1425.901 -1048.506)" opacity="0.44" fill="url(#g)" style="mix-blend-mode:color-burn;isolation:isolate"/></g><g transform="translate(427.425 292.001)"><g transform="translate(157.302 109.239)"><path d="M1212.926,873.683s7.022-1.492,9.469-3.986a111.706,111.706,0,0,0,7.733-9.23c2.695-3.463,5.219-3.094,7.471-5.4s3.363-3.91,3.635-1.23a6.482,6.482,0,0,1-1.026,4.365s7.8-3.509,9.757-5.544,2.148-2.12,2.668-.409-3.554,5.376-3.554,5.376,4.934-5.577,5.968-4.718,1.944,2.2,1.014,3.815-7.659,5.489-7.3,5.514,7.015-4.055,7.854-3.012,1.343,1.669-.228,3.336-13.275,9.049-12.147,8.535,7.22-3.056,7.549-2.54.044,3.355-2.231,4.678-8.418,5.931-16.185,7.667-9.164.853-11.329,1.888-8.585,8.383-9.76,6.923S1209.022,876.176,1212.926,873.683Z" transform="translate(-1210.665 -851.039)" fill="url(#h)"/><g transform="translate(23.101 6.766)" opacity="0.28"><path d="M1278.449,882.4a.349.349,0,0,1-.247-.132.417.417,0,0,1,.034-.555,10.241,10.241,0,0,0,1.823-3.027,5.046,5.046,0,0,0,.272-3.726l-.132-.326,1.176-.724a21.967,21.967,0,0,0,2.91-2.988.347.347,0,0,1,.514-.031.416.416,0,0,1,.022.555,23.2,23.2,0,0,1-3.093,3.146l-.621.381a6.141,6.141,0,0,1-.392,4.042,10.7,10.7,0,0,1-2,3.284A.346.346,0,0,1,1278.449,882.4Z" transform="translate(-1278.112 -870.794)" fill="#d60055"/></g><g transform="translate(29.331 9.158)" opacity="0.28"><path d="M1299.65,886.046a.376.376,0,0,1-.336-.381,27.447,27.447,0,0,0-.847-3.606c-.781-2.9-1.948-3.525-1.96-3.531a.408.408,0,0,1-.174-.519.355.355,0,0,1,.475-.2c.059.029,1.468.725,2.357,4.023a24.123,24.123,0,0,1,.876,3.811.386.386,0,0,1-.357.4Z" transform="translate(-1296.299 -877.778)" fill="#d60055"/></g><g transform="translate(30.727 4.718)" opacity="0.28"><path d="M1300.431,870.444l9.392-5.631-1.76,1.864S1299.625,871.571,1300.431,870.444Z" transform="translate(-1300.377 -864.813)" fill="#d60055"/><path d="M1317.664,869.373s-13.927,8.616-12.437,8.126a54.746,54.746,0,0,0,6.115-3.358Z" transform="translate(-1303.492 -867.811)" fill="#d60055"/></g></g><g transform="translate(27.997)"><path d="M849.64,599.03c-5.945-11.919-4.558-32.241,16.36-41.805,19.5-8.915,33.284,9.68,35.068,12.247.2-.173.382-.342.549-.5,0,0,3.324,7.557,3.032,10.814s-.867,7.655-.3,11.084c.428,2.58,1.811,5.286,1.95,9.043a.445.445,0,0,0-.052-.016s-2.524,16.287-3.925,17.558c-1.361,1.237-3.331,9.556-6.566,10.284-.1.012-.192.029-.285.047-1.406.248-2.589.664-3.03,2.329-.838,3.185,1.763,9.429,1.763,9.429s5.762,8.092-3.86,12.792-7.795,15.4-18.178,5.623a36.933,36.933,0,0,1-11.212-22.339s-.057-5.2.012-10.249-2.819-13.63-2.2-13.148C858.767,612.218,855.584,610.949,849.64,599.03Z" transform="translate(-841.981 -547.042)" fill="url(#i)"/><g transform="translate(27.869 72.183)" opacity="0.31"><path d="M938.7,751.8c-.587.339-6.352-.97-13.575-2.027a15.565,15.565,0,0,1-10.613-6.927s12.377,15.937,14.767,17.877S938.7,751.8,938.7,751.8Z" transform="translate(-914.509 -742.85)" fill="#d60055"/></g><path d="M833.365,559.761a54.683,54.683,0,0,0-.18,7.052,36.557,36.557,0,0,0,2.94,13.584c4.587,10.127,11.455,16.581,16.151,18.492,4.255,1.731,8.133,6.057,8.823,6.854l.108.126A11.412,11.412,0,0,0,863,607.624c5.592,4.137,13.144,7.363,20.147,7.428a4.453,4.453,0,0,0,3.155-1,30.292,30.292,0,0,0,6.708-9.479,39.122,39.122,0,0,0,2.97-11.214,25.629,25.629,0,0,0,1.241-4.449c.8-5.717.1-6.383-.682-9.114l-.154,1.367c-.521,1.623-2.4,7.295-3.487,8.206-1.273,1.065-5.26-3.528-8.546-3.685a5.4,5.4,0,0,0-4.805,2.876,14.985,14.985,0,0,0-5.286-1.185c-3.684-.324-7.461,6.184-9.487,7.5s-4.917-1.406-9.41-7.719-2.55-11.52-.045-14.233-1.6-9.052-1.6-9.052l4.136,1.267c4.136,1.267,16.5,4.486,35.562-1.155s13.277-19.273,13.277-19.273a12.386,12.386,0,0,1-8.955,4.145c-5.587.006-18.093-13.344-18.093-13.344-9.259-5.584-11.572-2.885-22.28-1.736s-11.856,9.421-11.856,9.421c-6.882-1.791-9.871,8.371-11.506,12.7-.02.054-.04.108-.059.163A15.7,15.7,0,0,0,833.365,559.761Zm32.06,38.967,1.684-.7c1.684-.7,2.266-.648,5.936-4.592s7.764-.55,7.764-.55a4.806,4.806,0,0,1,2.312-1.355c1.787-.615,8.32,1.848,8.32,1.848s-3.188,9.392-9.568,11.794S865.425,598.728,865.425,598.728Z" transform="translate(-833.143 -532.104)" fill="#27215e"/><path d="M865.3,654.843s-4.619-2.723-5.7,2.226,3.751,10.766,5.638,11.6,3.259.4,3.161-.394-2.04-5.63-2.391-7.726S865.3,654.843,865.3,654.843Z" transform="translate(-850.437 -612.312)" fill="url(#j)"/><path d="M898.867,643.136c.126.967.943-.212,1.778.307s.471,3.22,2.364,5.544,4.163,2.283,10.074,1.553,7.421-9.244,7.4-9.647.858-.452,1.444-.484.438-.024,1.1,1.358,3.056,6.115,11.412,5.815S942,638.25,942,638.25l1.873-.669-.187-3.4s-1.344-.411-8.522-.016-9.938,2.247-11.151,2.882-3.2.581-4.427.973-6.005-1.048-11.682-.086a47.391,47.391,0,0,0-9.486,2.466C897.99,640.592,898.741,642.173,898.867,643.136Zm30.227-6.528a28.808,28.808,0,0,1,9.513-1.253c.494-.027,1.812-.1,1.924.441s.337,4.631-.69,6.966-6.543,4.189-10.935,2.425a7.791,7.791,0,0,1-4.87-5.931C923.662,637.87,924.552,638.135,929.094,636.608Zm-27.362,4.631c-.007-.554,1.294-.8,1.782-.886a28.7,28.7,0,0,1,9.535-1.032c4.751.41,5.564-.062,5.495,1.382a7.994,7.994,0,0,1-3.474,6.93c-3.9,2.76-9.672,2.261-11.175.229S901.74,641.793,901.733,641.239Z" transform="translate(-875.976 -599.099)" fill="#27215e"/><path d="M890.107,650.806l-7.237,2.851.831,3.084,6.806-2.247Z" transform="translate(-865.838 -610.15)" fill="#27215e"/><path d="M1017.9,639.8l-3.212.4.45-2.237,2.551.147Z" transform="translate(-952.506 -601.704)" fill="#27215e"/></g><path d="M878.677,782.662s16.765,6.453,24.04,6.453a100.479,100.479,0,0,0,16.577-1.9s11.859,80.089,2.465,95.65-25.35,22.267-35.876-4.524S878.677,782.662,878.677,782.662Z" transform="translate(-834.758 -696.843)" fill="#cccbef"/><path d="M959.233,843.333l11.8,78.594-14.777,5.351-4.793-84.649Z" transform="translate(-882.942 -736.271)" fill="url(#k)"/><path d="M784.6,1285.528l-.935,11.407H888.08l-5.663-33.075-59.757-4.129Z" transform="translate(-772.612 -1010.511)" fill="#2f245b"/><rect width="1.993" height="47.26" transform="translate(71.344 239.164)" fill="#3f377c"/><path d="M1056.4,850.446c-4.629,4.726-49.641,35.852-52.567,33.574-2.881-2.249-15.486-15.378-15.822-15.725a.017.017,0,0,1-.006-.011s.006,27.943,0,33.6c0,4.355,4.936,44.186,5.836,64.085.273,5.984.177,10.163-.524,11.04-3.035,3.8-27.6,4.936-34.673,0S941.7,942.85,941.7,942.85s11.569-49.345,15.087-59.969c2.249-6.792,5.073-33.9,5.728-56.74.37-12.9.051-24.431-1.458-30.181,0,0,19.358,2.488,26.884,6.462a6.228,6.228,0,0,1,2.739,2.294A60.164,60.164,0,0,1,993,811.224c4,12.526,10.96,37.292,14.154,38.1,3.985,1.008,37.4-24.7,40.059-21.385,1.811,2.261,7.561,9.7,9.582,15.7C1057.748,846.444,1057.873,848.938,1056.4,850.446Z" transform="translate(-876.521 -705.587)" fill="url(#l)"/><path d="M1144.739,941.967c-4.629,4.726-49.641,35.852-52.567,33.574-2.881-2.249-15.486-15.378-15.822-15.725a.017.017,0,0,1-.006-.011l-.285-21.464s9.115,29.685,24.225,27.158c9.5-1.583,30.54-18.213,44.853-30.34C1146.088,937.965,1146.213,940.459,1144.739,941.967Z" transform="translate(-964.861 -797.108)" fill="url(#m)"/><path d="M993.839,973.261c.273,5.984.177,10.163-.524,11.04-3.035,3.8-27.6,4.936-34.673,0S941.7,950.14,941.7,950.14s11.569-49.345,15.087-59.969c2.249-6.792,5.073-33.9,5.728-56.74,7.413.387,13.789.569,16.761-2.471,7.766-7.942-1.9-23.912-1.9-23.912l10.567,2.664,6.137,1.548L993,818.514l-5.284,35.6v27.158s-7.322-7.379-15.287,0-12.89,18.025-11.375,23.713,3.746,26.657,3.012,38.755,7.236,37.149,21.658,32.213C988.163,975.117,990.947,974.172,993.839,973.261Z" transform="translate(-876.521 -712.877)" fill="url(#n)"/><path d="M990.973,795.96s14.137,12.526,14.137,15.372-5.029,6.547-4.08,7.971,4.181,11.1,4.273,15.942-18.1,45.847-18.1,45.847S993.632,807.347,990.973,795.96Z" transform="translate(-906.437 -705.587)" fill="url(#o)"/><g transform="translate(86.965 12.608)"><path d="M1011.393,756.559s-6.442.565-6.07,2.934,1.649,12.107,4.587,13.119,6.609-.7,6.609-.7Z" transform="translate(-1005.308 -692.289)" fill="#623570"/><path d="M1094.742,861.457l-8.585,3.291a3.556,3.556,0,0,1-.658.185,3.811,3.811,0,0,1-3.324-.953c-1.978-1.845-5.342-5.818-9.8-14.2a91.81,91.81,0,0,1-9.341-26.769l16.276.512s.138.958.508,2.584c.27,1.168.658,2.69,1.212,4.447a61.931,61.931,0,0,0,3.756,9.314,64.929,64.929,0,0,0,8.023,11.542c1.2,1.432,2.362,2.753,3.4,3.893A3.826,3.826,0,0,1,1094.742,861.457Z" transform="translate(-1043.26 -735.983)" fill="url(#p)"/><path d="M1083.387,861.392a15.754,15.754,0,0,0,2.112,3.541,3.811,3.811,0,0,1-3.324-.953c-1.978-1.845-5.342-5.818-9.8-14.2a91.81,91.81,0,0,1-9.341-26.769l16.276.512s.138.958.508,2.584c-6.388-.761-14.714-1.3-14.044,1.183,1.072,3.987.428,9.238,7.564,7.067a29.2,29.2,0,0,0,7.691-3.8,61.931,61.931,0,0,0,3.756,9.314,64.929,64.929,0,0,0,8.023,11.542,14.826,14.826,0,0,1-4.776,3.3C1083.911,856.137,1079.824,852.774,1083.387,861.392Z" transform="translate(-1043.26 -735.983)" opacity="0.26" fill="url(#q)"/><path d="M1170.143,684.868s-.118-.042-.351-.121a207.426,207.426,0,0,0-28.623-7.14,97.2,97.2,0,0,0-30.99-.764,50.8,50.8,0,0,1-10.809-19.541,50.237,50.237,0,0,1-1.134-22.127s.828-.266,2.223-.754a147.833,147.833,0,0,0,17.672-7.442c5.85-3.012,15.429-12.319,21.719-18.8,3.14-3.227,5.457-5.751,6.092-6.45l.178-.2L1149.6,613.6l4.239,14.7,7.975,27.675,4.727,16.389Z" transform="translate(-1065.929 -590.364)" fill="url(#r)"/><path d="M1280.6,660.676c-1.95,3.935-4.654,6.567-8.055,7.452-4.329,1.129-9.192-.715-14.008-4.83-8.489-7.244-16.832-21.537-21.824-38.96-4.983-17.374-5.438-33.686-2.026-44.054,1.95-5.924,5.161-9.911,9.51-11.044.213-.055.425-.1.637-.143,11.889-2.286,27.5,17.11,35.2,43.933,1.058,3.69,1.911,7.334,2.566,10.882.013.058.025.116.033.174q.337,1.843.6,3.642c0,.01,0,.02,0,.029C1285.248,641.405,1284.241,653.324,1280.6,660.676Z" transform="translate(-1154.671 -568.915)" fill="url(#s)"/><path d="M1283.986,669.679c-7.22,1.888-17.012-9.234-24.407-26.416a128,128,0,0,1-5.405-15.234,124.565,124.565,0,0,1-3.669-17.1c-2.474-17.72.073-31.384,7.113-33.224,9.183-2.4,22.531,16.252,29.813,41.65S1293.169,667.283,1283.986,669.679Z" transform="translate(-1165.916 -574.556)" opacity="0.26" fill="url(#t)"/><path d="M1292,650.8c-.285,10.433-3.019,17.688-8.01,18.988-7.224,1.891-17.013-9.233-24.408-26.414a127.763,127.763,0,0,1-5.405-15.236,124.53,124.53,0,0,1-3.67-17.1c-2.476-17.722.072-31.385,7.112-33.224a5.446,5.446,0,0,1,.776-.148,87.113,87.113,0,0,0,.9,14.236,124.909,124.909,0,0,0,3.669,17.1,128.019,128.019,0,0,0,5.406,15.231C1275.5,640.81,1284.865,651.747,1292,650.8Z" transform="translate(-1165.914 -574.668)" opacity="0.45" fill="url(#u)"/><path d="M1277.66,698.055a30.825,30.825,0,0,0-3.613.614h-.014c-7.593,1.759-11.1,5.842-12.682,8.768a127.743,127.743,0,0,1-5.405-15.236,124.526,124.526,0,0,1-3.67-17.1,20.277,20.277,0,0,0,3.931,1.782,24.14,24.14,0,0,0,15.287-.334Z" transform="translate(-1167.686 -638.729)" fill="url(#v)"/><ellipse cx="5.385" cy="11.19" rx="5.385" ry="11.19" transform="translate(98.564 39.359) rotate(-16.41)" fill="#623570"/><path d="M1058.6,741.415l-22.725,3.26a10.537,10.537,0,0,1-11.629-7.528l-4.78-16.7a10.52,10.52,0,0,1,3.208-10.833,10.372,10.372,0,0,1,3.159-1.9l17.22-6.589,3.6-1.378a50.243,50.243,0,0,0,1.133,22.129A50.81,50.81,0,0,0,1058.6,741.415Z" transform="translate(-1014.349 -654.934)" fill="url(#w)"/><path d="M1169.793,685.123a207.407,207.407,0,0,0-28.623-7.14,97.2,97.2,0,0,0-30.99-.764,50.8,50.8,0,0,1-10.809-19.541,50.237,50.237,0,0,1-1.134-22.127s.828-.266,2.223-.754a45.106,45.106,0,0,0,19.986,27.617c25.754,16.532,36.034,18.03,28.862,3.208-5.422-11.206-11.4-37.951-9.457-57.063,3.14-3.227,5.457-5.751,6.092-6.45-3.412,10.368-2.957,26.68,2.026,44.054C1152.96,663.585,1161.3,677.879,1169.793,685.123Z" transform="translate(-1065.929 -590.74)" opacity="0.26" fill="url(#x)"/><path d="M1124.944,675.732s8.107,16.488,17.956,23.28,10.172,4.167,5.514-7.72,6.678-29.5,2.332-28.439S1130.335,677.132,1124.944,675.732Z" transform="translate(-1083.967 -630.649)" fill="#fff" opacity="0.58"/><path d="M1058.6,741.415l-22.725,3.26a10.537,10.537,0,0,1-11.629-7.528l-4.78-16.7a10.52,10.52,0,0,1,3.208-10.833c.7,8.963,2.629,19.495,7.6,25.042,9.722,10.85,23.523,6.26,17.512-.641-4.87-5.593-5.4-24.245-4.735-32.892l3.6-1.378a50.243,50.243,0,0,0,1.133,22.129A50.81,50.81,0,0,0,1058.6,741.415Z" transform="translate(-1014.349 -654.934)" opacity="0.53" fill="url(#y)"/><path d="M1036.937,724.344s.366,13.759,5.305,14.151,8.847-1.979,9.6-5.58,2.958-12.8.415-13.2S1037.845,720.854,1036.937,724.344Z" transform="translate(-1026.104 -668.026)" fill="#f0a9ff" opacity="0.47"/><path d="M1274.032,698.669c-7.593,1.759-11.1,5.842-12.682,8.768a127.743,127.743,0,0,1-5.405-15.236,124.526,124.526,0,0,1-3.67-17.1,20.277,20.277,0,0,0,3.931,1.782C1258.25,686.528,1263.032,699.219,1274.032,698.669Z" transform="translate(-1167.686 -638.729)" opacity="0.53" fill="url(#z)"/></g><path d="M1076.059,859.481s1.993-5.836,7.117-8.825,7.117-6.547,9.964-5.836,3.985,1.708,3.985,2.847v1.139a4.914,4.914,0,0,1,2.419,1.423c.712,1,0,3.416,0,3.416s.569-.854,1.708,1.566,0,3.558,0,4.27a8.573,8.573,0,0,1-.712,2.277s3.416,0,3.132,2.277-4.555,2.7-5.836,3.274-8.682,2.027-10.818,3.647-6.69,4.324-6.69,4.324Z" transform="translate(-964.861 -737.651)" fill="url(#aa)"/><path d="M836.3,913.9c0,1.184-.04,2.995-.125,5.238-.063,1.589-.142,3.388-.239,5.34-.723,13.8-2.5,34.992-5.329,39.524-3.8,6.069-11.279,8.347-18.737,9.485s-48.07.382-51.861-3.034c-1.93-1.737-2.391-3.672-2.021-6.348.347-2.59,1.474-5.875,2.778-10.351,1.531-5.255,4.2-19.739,6.411-32.435,1.605-9.309,2.972-17.655,3.456-20.707.262-1.663-.461-6.57-1.731-13.14-4.23-21.942-14.535-62.423-14.535-62.423l-2.414-18.236s2.738-4.885,15.264-10.96,26.571-14.04,28.467-13.283a.042.042,0,0,1,.017.006c2,1.121,25.051,72.164,31.49,90.707,1.463,4.219,2.733,8.21,3.82,11.939.359,1.235.7,2.437,1.019,3.615.479,1.771.917,3.484,1.315,5.124C835.389,902.486,836.3,909.233,836.3,913.9Z" transform="translate(-751.764 -696.747)" fill="url(#l)"/><path d="M857.754,782.679s-14.723,17.678-10.738,22.358,10.072,9.235,9.164,10.658-6.032,8.717-1.193,14.464,30.187,42.2,30.187,42.2l-18.23-54.1Z" transform="translate(-813.818 -696.855)" fill="url(#ac)"/><path d="M899.938,888.93v.017s-34.257-63.869-35.68-66.146,3.7-9.679,3.985-12.525-9.679-5.694-12.525-8.967,7.874-18.646,7.874-18.646a.042.042,0,0,1,.017.006c2,1.121,25.051,72.164,31.49,90.707C897.046,878.989,898.652,884.187,899.938,888.93Z" transform="translate(-819.673 -696.843)" fill="url(#o)"/><path d="M766.6,933.222s12.329,41.368,28.752,44.5,28.663-13.123,34.641-6.989a116.311,116.311,0,0,0,10.06,9.352l-10.488-19.519S801.524,962.349,786.722,941s-22.569-19.665-22.569-19.665Z" transform="translate(-759.786 -787.998)" fill="url(#ac)"/><path d="M871.614,873.866c.381,3.04-51.241,38.339-74.39,41.374-14.194,1.862-25.182-17.035-30.961-27.2a170.155,170.155,0,0,1-10.493-22.073c-2.351-6.012-5.119-15.537-4.179-23.275A14.152,14.152,0,0,1,753,840.816c3.746-4.242,9.627-5.494,16.9-.347,11.8,8.352,25.427,39.472,29.224,41.75s57.316-31.126,62.628-30.744c4.247.308,7.771,12.508,9.206,18.931C871.312,872.01,871.54,873.257,871.614,873.866Z" transform="translate(-751.403 -732.633)" fill="url(#af)"/><path d="M871.614,881.006c.381,3.04-51.241,38.339-74.39,41.374-14.194,1.862-25.182-17.035-30.961-27.2a170.147,170.147,0,0,1-10.493-22.073c-2.351-6.012-5.119-15.537-4.179-23.275A14.152,14.152,0,0,1,753,847.956c.068,5.073,1.423,12.947,5.7,25.119,10.818,30.8,30.756,44.488,43.27,44.181,9.172-.228,47.569-22.9,68.987-39.712C871.312,879.15,871.54,880.4,871.614,881.006Z" transform="translate(-751.403 -739.773)" fill="url(#n)"/><path d="M773.943,859.93s9.821,35.442,19.216,37.434,13.379,0,9.536-11.1S777.9,842.573,773.943,859.93Z" transform="translate(-766.223 -744.363)" fill="#d2ccff" opacity="0.28"/><path d="M890.749,938.41s49.723-34.92,52.759-29.036,2.088,12.526-3.8,17.46-45.8,21.927-50.292,21.255S884.773,942.526,890.749,938.41Z" transform="translate(-839.996 -779.716)" fill="#d2ccff" opacity="0.28"/><path d="M839.533,1171.037a31.609,31.609,0,0,0,9.679,3.274c6.12,1.139,13.807-.712,13.664,0s-.854,2.277-1.85,2.562-8.255,2.135-12.668,1.423-8.4-.854-8.825-2.847S838.232,1170.37,839.533,1171.037Z" transform="translate(-808.897 -952.135)" fill="#8e7aed"/><path d="M860.585,1187.145s-1.52,18.409-3.8,21.825-19.21,2.277-20.233,1.708,0-13.854,0-13.854-2.354,12.146-.455,16.89,20.5,2.657,23.154-.949S860.585,1187.145,860.585,1187.145Z" transform="translate(-806.603 -962.787)" fill="url(#ac)"/><path d="M865.673,1126.885c-.063-.12-.228-.455-.512-.945-1.777-3.051-8.221-12.1-22.409-12.446-13.1-.313-32.316-4.407-46.35,9.286,1.605-9.309,2.972-17.655,3.456-20.707.262-1.663-.461-6.57-1.731-13.141,3.786,5.916,8.13,11.1,12.816,13.9,15.867,9.485,43.686,1.349,47.654-3.04,1.5-1.663,2.864-3.16,3.974-4.373,2.044,8.529,2.955,15.276,2.955,19.938-.074,2.1-.114,3.826-.125,5.238C865.354,1125.485,865.6,1126.652,865.673,1126.885Z" transform="translate(-780.989 -898.213)" fill="url(#ac)"/><g transform="translate(73.337 213.351)"><circle cx="1.93" cy="1.93" r="1.93" transform="translate(2.338)" fill="#221a72"/><circle cx="2.134" cy="2.134" r="2.134" transform="translate(0 15.372)" fill="#221a72"/></g><path d="M822.683,1080.778s1.2,13.911,20.686,15.942,30.957-8.16,26.107-10.438-35.256,1.328-38.842-1.518S821.234,1076.185,822.683,1080.778Z" transform="translate(-798.119 -891.719)" fill="#8e7aed" opacity="0.57"/><path d="M789.964,1231.507s-12.784,25.958-1.939,31.124,47.487,1.708,47.676-3.226-30.744-4.65-37.007-11.055S793.949,1226,789.964,1231.507Z" transform="translate(-772.612 -991.207)" fill="#8e7aed" opacity="0.32"/><path d="M847.659,1111.045c0,1.184-.04,2.995-.125,5.238-.063,1.589-.142,3.388-.239,5.34-.723,13.8-2.5,34.992-5.329,39.524-3.8,6.069-11.279,8.347-18.737,9.485s-48.07.382-51.861-3.034c-1.93-1.737-2.391-3.672-2.021-6.348,15.042,9.315,51.924,8.745,59.712,4.452,9.508-5.244,13.283-19.358,15.822-47.449s-4.151-34.531-4.151-34.531a5.022,5.022,0,0,1,1.64-1.355c.359,1.235.7,2.437,1.019,3.615.479,1.771.917,3.484,1.315,5.124C846.749,1099.636,847.659,1106.383,847.659,1111.045Z" transform="translate(-763.124 -893.897)" fill="url(#ac)"/><path d="M1046.121,1167.77a15.532,15.532,0,0,0,8.4-.761c3.927-1.717,4.053-.521,4.107,0a2.237,2.237,0,0,1-1.261,2.42c-1.423.854-9.394,1.423-10.106,1.281S1045.41,1169.813,1046.121,1167.77Z" transform="translate(-945.029 -948.96)" fill="#8e7aed"/><path d="M1029.45,1035.326s-11.193,6.183-11.29,19.745,7.3,20.77,11.29,17.592S1039.958,1035.3,1029.45,1035.326Z" transform="translate(-926.792 -862.967)" fill="#8e7aed" opacity="0.57"/><path d="M1038.875,1187.145s3.289,23.723,8.38,24.292a42.238,42.238,0,0,0,9.3,0l.286,3.726s-14.082,3.676-16.974-3.157S1038.875,1187.145,1038.875,1187.145Z" transform="translate(-940.009 -962.787)" fill="url(#m)"/><path d="M943.989,808.183s.926,12.1,3.443,12.921,7.126-.213,7.423-.611,1.83-13-.827-16.285-7.376-1.9-8.662-1.912S943.989,808.183,943.989,808.183Z" transform="translate(-878.026 -709.568)" fill="url(#al)"/><path d="M881.575,776.211s.96-4.177,2.378-3.23a95.127,95.127,0,0,0,14.323,6.166c5.693,1.9,7.117,1.8,9.109,1.613s11.292-4.881,11.767-3.911,2.374,3.911,2.374,3.911-6.739,8.161-8.447,8.066-6.073-5.409-6.073-5.409.347,4.083-2.056,5.409C899.448,791.862,881.575,776.211,881.575,776.211Z" transform="translate(-836.99 -690.386)" fill="#fff"/><path d="M1142.051,937.375s27.9-22.312,30.459-17.419-2.3,11.2-7.7,15.023S1135.5,955.879,1142.051,937.375Z" transform="translate(-1007.509 -786.652)" fill="#d2ccff" opacity="0.28"/><path d="M826.309,868.2s12.607,17.867,18.73,25.965,7.549,7.61,7.549,7.61a7.836,7.836,0,0,1-5.783.006C843.919,900.507,826.309,868.2,826.309,868.2Z" transform="translate(-800.653 -753.082)" fill="url(#n)"/><g transform="translate(48.401 92.152)"><path d="M892.716,801.152l17.439,47.631s1.25-34.649-.662-37.075S892.716,801.152,892.716,801.152Z" transform="translate(-892.716 -801.152)" fill="#ededed"/><path d="M982.859,816.607s.983,29.18,1.487,29.268,2.012-27.029,2.253-31.258S982.859,816.607,982.859,816.607Z" transform="translate(-951.984 -809.036)" fill="#ededed"/></g></g><g transform="translate(727.298 270.164)"><circle cx="16.602" cy="16.602" r="16.602" transform="translate(0 0)" fill="url(#an)"/><path d="M1661.676,493.7a14.22,14.22,0,1,1-9.412-17.77A14.2,14.2,0,0,1,1661.676,493.7Z" transform="translate(-1631.482 -472.916)" fill="#ebebff"/><path d="M1669.719,501.031c-.562-5.845-7.307-2.966-7.307-2.966s-3.962-6.172-7.711-1.653,3.881,14.108,3.881,14.108S1670.281,506.876,1669.719,501.031Z" transform="translate(-1644.503 -485.713)" fill="url(#ao)"/><path d="M1660.968,496.794a14.219,14.219,0,1,1-17.138-19.577,13.5,13.5,0,0,0-.706,1.827,14.22,14.22,0,0,0,17.73,17.785Z" transform="translate(-1631.481 -474.18)" fill="#6565a0" opacity="0.21"/></g><g transform="translate(524.22 267.595)"><circle cx="13.911" cy="13.911" r="13.911" transform="translate(0 0)" fill="url(#ap)"/><path d="M1062.633,473.749a11.915,11.915,0,1,1-15.725-6.052A11.9,11.9,0,0,1,1062.633,473.749Z" transform="translate(-1037.832 -464.675)" fill="#ebebff"/><path d="M1065.354,483.152c-3.571-3.384-6.25,2.146-6.25,2.146s-5.9-1.721-5.783,3.2,10.214,6.781,10.214,6.781S1068.925,486.536,1065.354,483.152Z" transform="translate(-1046.704 -474.792)" fill="url(#aq)"/><path d="M1063.194,486.208a11.915,11.915,0,1,1-21.6-2.943,11.372,11.372,0,0,0,.559,1.543,11.915,11.915,0,0,0,20.99,1.485C1063.159,486.263,1063.177,486.238,1063.194,486.208Z" transform="translate(-1037.832 -475.587)" fill="#6565a0" opacity="0.21"/></g><g transform="translate(652.749 350.879)"><circle cx="23.307" cy="23.307" r="23.307" transform="translate(0)" fill="url(#ar)"/><path d="M1458.95,733.714a19.963,19.963,0,1,1-19.984-19.939A19.933,19.933,0,0,1,1458.95,733.714Z" transform="translate(-1415.68 -710.429)" fill="#ebebff"/><path d="M1466.27,749.612c-3.175-7.607-11.03-.952-11.03-.952s-7.87-6.638-11.029.976,11.048,17.317,11.048,17.317S1469.445,757.219,1466.27,749.612Z" transform="translate(-1431.939 -731.594)" fill="url(#as)"/><path d="M1458.761,743.234a19.962,19.962,0,1,1-31.1-19.162,18.983,18.983,0,0,0-.19,2.743,19.963,19.963,0,0,0,31.148,16.514C1458.67,743.3,1458.714,743.268,1458.761,743.234Z" transform="translate(-1415.68 -717.199)" fill="#6565a0" opacity="0.21"/></g><g transform="translate(709.206 312.601)"><circle cx="32.548" cy="32.548" r="32.548" fill="#ffd715"/><path d="M1644.23,635.117a27.6,27.6,0,0,1-11.93,22.811,26.691,26.691,0,0,1-28.969.843,27.575,27.575,0,0,1-13.239-23.654,27.073,27.073,0,1,1,54.138,0Z" transform="translate(-1584.613 -602.345)" fill="#e69a24"/><path d="M1645.275,637.506a25.883,25.883,0,0,1-11.285,21.4l-.142.1a25.928,25.928,0,1,1,11.427-21.5Z" transform="translate(-1586.796 -604.959)" fill="#ffbe06"/><path d="M1619.683,615.807a25.9,25.9,0,0,0-22.291,12.683c-.182.3-.354.61-.523.921a25.971,25.971,0,0,1,24.968-18.905,25.938,25.938,0,0,1,22.8,38.274,25.952,25.952,0,0,0-24.958-32.973Z" transform="translate(-1589.068 -604.253)" fill="#ffdb53"/><g transform="translate(24.021 14.956)"><path d="M1653.047,667.261a14.1,14.1,0,0,1-4.216-.647,11.563,11.563,0,0,1-3.519-1.774l1.128-2.278a1.455,1.455,0,0,1,.43-.518,1.269,1.269,0,0,1,.615-.261,1.683,1.683,0,0,1,.907.172q.5.226,1.144.536a14.675,14.675,0,0,0,1.453.6,6.439,6.439,0,0,0,1.87.336l-.394-8.379q-1.362-.2-2.714-.528a8.757,8.757,0,0,1-2.488-1.022,6.21,6.21,0,0,1-1.932-1.869,7.686,7.686,0,0,1-.847-5.9,7.39,7.39,0,0,1,1.319-2.62,8.715,8.715,0,0,1,2.414-2.094,9.009,9.009,0,0,1,3.516-1.164l-.108-2.382a1.322,1.322,0,0,1,.264-.853,1.146,1.146,0,0,1,.822-.47l1.683-.223.167,3.678a10.315,10.315,0,0,1,3.532.662,12.407,12.407,0,0,1,2.716,1.466l-.887,1.83a2.3,2.3,0,0,1-.445.623,1.062,1.062,0,0,1-.6.268,1.623,1.623,0,0,1-.679-.089q-.4-.125-.926-.31t-1.149-.365a7.582,7.582,0,0,0-1.37-.252l.366,7.747q1.386.231,2.754.549a9.624,9.624,0,0,1,2.517.957,6.129,6.129,0,0,1,1.948,1.709,5.916,5.916,0,0,1,1.031,2.809,9.088,9.088,0,0,1-.147,3.3,7.973,7.973,0,0,1-1.321,2.886,8.553,8.553,0,0,1-2.461,2.236,10.925,10.925,0,0,1-3.566,1.356l.138,2.749a1.323,1.323,0,0,1-.266.835,1.138,1.138,0,0,1-.821.475l-1.683.223Zm-4.507-19.7a2.909,2.909,0,0,0,1.206,2.072,4.841,4.841,0,0,0,1.124.6,9.745,9.745,0,0,0,1.372.412l-.333-6.924a6.68,6.68,0,0,0-1.681.665,3.893,3.893,0,0,0-1.085.906,2.789,2.789,0,0,0-.544,1.079A3.187,3.187,0,0,0,1648.541,647.564Zm10.59,10.912a2.872,2.872,0,0,0-.412-1.2,2.959,2.959,0,0,0-.826-.841,4.6,4.6,0,0,0-1.157-.562,11.269,11.269,0,0,0-1.4-.36l.364,7.593a4.857,4.857,0,0,0,2.794-1.715A3.915,3.915,0,0,0,1659.131,658.476Z" transform="translate(-1644.226 -635.917)" fill="#ef8720"/></g><path d="M1633.99,677.569l-.142.1a25.928,25.928,0,0,1-34.745-37.7,24.338,24.338,0,0,0-.9,4.662c-1,10.758,5.129,20.824,15.125,26.93a41.7,41.7,0,0,0,17.878,5.838C1632.141,677.486,1633.069,677.546,1633.99,677.569Z" transform="translate(-1586.796 -623.626)" fill="#d32424" opacity="0.21"/></g><g transform="translate(712.911 212.242)"><circle cx="16.619" cy="16.619" r="16.619" transform="translate(0 0)" fill="#ffd715"/><path d="M1620.723,321.127a14.094,14.094,0,0,1-6.091,11.647,13.628,13.628,0,0,1-14.792.431,14.08,14.08,0,0,1-6.76-12.078,13.823,13.823,0,1,1,27.643,0Z" transform="translate(-1590.282 -304.394)" fill="#e69a24"/><path d="M1621.257,322.347a13.216,13.216,0,0,1-5.762,10.925l-.073.051a13.239,13.239,0,1,1,5.835-10.976Z" transform="translate(-1591.397 -305.729)" fill="#ffbe06"/><path d="M1608.189,311.268a13.226,13.226,0,0,0-11.382,6.476c-.093.154-.181.311-.267.47a13.242,13.242,0,1,1,24.393,9.89,13.252,13.252,0,0,0-12.744-16.836Z" transform="translate(-1592.557 -305.368)" fill="#ffdb53"/><g transform="translate(12.265 7.637)"><path d="M1625.225,337.54a7.193,7.193,0,0,1-2.153-.33,5.909,5.909,0,0,1-1.8-.906l.576-1.164a.741.741,0,0,1,.22-.264.646.646,0,0,1,.314-.133.86.86,0,0,1,.463.088q.255.116.584.274a7.456,7.456,0,0,0,.742.305,3.271,3.271,0,0,0,.955.172l-.2-4.278q-.7-.1-1.386-.27a4.472,4.472,0,0,1-1.27-.522,3.171,3.171,0,0,1-.986-.954,3.923,3.923,0,0,1-.433-3.014,3.779,3.779,0,0,1,.673-1.338,4.458,4.458,0,0,1,1.233-1.069,4.6,4.6,0,0,1,1.8-.595l-.055-1.216a.674.674,0,0,1,.135-.435.584.584,0,0,1,.42-.24l.859-.114.085,1.878a5.268,5.268,0,0,1,1.8.338,6.332,6.332,0,0,1,1.387.748l-.453.934a1.174,1.174,0,0,1-.227.319.542.542,0,0,1-.309.137.83.83,0,0,1-.347-.046q-.206-.064-.473-.159t-.587-.187a3.871,3.871,0,0,0-.7-.128l.187,3.956q.707.118,1.406.28a4.914,4.914,0,0,1,1.285.488,3.133,3.133,0,0,1,.995.873,3.018,3.018,0,0,1,.526,1.434,4.648,4.648,0,0,1-.075,1.687,4.075,4.075,0,0,1-.675,1.473,4.369,4.369,0,0,1-1.257,1.142,5.587,5.587,0,0,1-1.821.693l.07,1.4a.674.674,0,0,1-.135.426.582.582,0,0,1-.42.243l-.859.113Zm-2.3-10.057a1.485,1.485,0,0,0,.616,1.058,2.47,2.47,0,0,0,.574.309,4.969,4.969,0,0,0,.7.21l-.17-3.535a3.424,3.424,0,0,0-.858.339,1.994,1.994,0,0,0-.554.463,1.425,1.425,0,0,0-.278.551A1.634,1.634,0,0,0,1622.924,327.483Zm5.408,5.572a1.469,1.469,0,0,0-.211-.611,1.51,1.51,0,0,0-.422-.429,2.349,2.349,0,0,0-.591-.287,5.813,5.813,0,0,0-.716-.184l.186,3.877a2.478,2.478,0,0,0,1.427-.876A2,2,0,0,0,1628.332,333.055Z" transform="translate(-1620.721 -321.536)" fill="#ef8720"/></g><path d="M1615.495,342.8l-.073.051a13.239,13.239,0,0,1-17.741-19.248,12.457,12.457,0,0,0-.459,2.38c-.512,5.493,2.619,10.633,7.723,13.75a21.286,21.286,0,0,0,9.129,2.981C1614.551,342.761,1615.025,342.792,1615.495,342.8Z" transform="translate(-1591.397 -315.26)" fill="#d32424" opacity="0.21"/></g><g transform="translate(639.954 293.567)"><circle cx="22.572" cy="22.572" r="22.572" fill="#ffd715"/><path d="M1418.607,574.138a19.142,19.142,0,0,1-14.023,11.048,18.511,18.511,0,0,1-18.57-7.689,19.124,19.124,0,0,1-1.663-18.725,18.775,18.775,0,1,1,34.256,15.366Z" transform="translate(-1378.969 -543.741)" fill="#e69a24"/><path d="M1419.688,575.412a17.95,17.95,0,0,1-13.213,10.336l-.119.022a17.981,17.981,0,1,1,13.332-10.359Z" transform="translate(-1380.708 -545.481)" fill="#ffbe06"/><path d="M1416.511,553.894a17.965,17.965,0,0,0-17.705,1.7c-.2.139-.4.285-.593.434a17.985,17.985,0,1,1,24.732,25.815,18,18,0,0,0-6.434-27.948Z" transform="translate(-1389.203 -545.155)" fill="#ffdb53"/><g transform="translate(14.648 11.529)"><path d="M1418.88,590.165a9.762,9.762,0,0,1-2.484-1.606,8.022,8.022,0,0,1-1.723-2.122l1.361-1.121a1.006,1.006,0,0,1,.419-.206.88.88,0,0,1,.463.01,1.168,1.168,0,0,1,.525.366q.252.285.571.663a10.1,10.1,0,0,0,.75.791,4.462,4.462,0,0,0,1.088.744l2.129-5.414q-.807-.511-1.567-1.1a6.084,6.084,0,0,1-1.284-1.353,4.314,4.314,0,0,1-.692-1.731,5.329,5.329,0,0,1,1.14-3.975,5.129,5.129,0,0,1,1.578-1.284,6.054,6.054,0,0,1,2.122-.64,6.256,6.256,0,0,1,2.555.261l.608-1.538a.916.916,0,0,1,.409-.465.8.8,0,0,1,.654-.064l1.129.337-.939,2.375a7.156,7.156,0,0,1,2.047,1.421,8.611,8.611,0,0,1,1.3,1.7l-1.08.906a1.6,1.6,0,0,1-.458.269.739.739,0,0,1-.458,0,1.124,1.124,0,0,1-.4-.249q-.219-.194-.5-.459t-.624-.557a5.21,5.21,0,0,0-.795-.548l-1.967,5.006q.811.539,1.587,1.129a6.688,6.688,0,0,1,1.321,1.32,4.252,4.252,0,0,1,.747,1.634,4.1,4.1,0,0,1-.145,2.07,6.3,6.3,0,0,1-1.03,2.049,5.531,5.531,0,0,1-1.655,1.451,5.929,5.929,0,0,1-2.192.717,7.585,7.585,0,0,1-2.641-.154l-.693,1.778a.918.918,0,0,1-.406.453.79.79,0,0,1-.655.068l-1.128-.337Zm2.738-13.743a2.019,2.019,0,0,0,.175,1.653,3.36,3.36,0,0,0,.54.7,6.709,6.709,0,0,0,.751.65l1.755-4.475a4.632,4.632,0,0,0-1.253-.056,2.7,2.7,0,0,0-.944.266,1.932,1.932,0,0,0-.651.529A2.215,2.215,0,0,0,1421.618,576.423Zm3.6,9.911a1.986,1.986,0,0,0,.078-.875,2.047,2.047,0,0,0-.284-.767,3.2,3.2,0,0,0-.572-.684,7.812,7.812,0,0,0-.785-.626l-1.924,4.908a3.368,3.368,0,0,0,2.255-.292A2.716,2.716,0,0,0,1425.222,586.334Z" transform="translate(-1414.672 -570.337)" fill="#ef8720"/></g><path d="M1406.475,589.564l-.119.022a17.982,17.982,0,0,1-11.286-33.715,16.9,16.9,0,0,0-1.891,2.695c-3.689,6.522-2.665,14.632,1.927,21.333a28.915,28.915,0,0,0,9.656,8.768C1405.329,588.987,1405.9,589.288,1406.475,589.564Z" transform="translate(-1380.708 -549.297)" fill="#d32424" opacity="0.21"/></g><g transform="translate(618.784 428.293)"><circle cx="16.981" cy="16.981" r="16.981" fill="url(#at)"/><path d="M1346.139,949.546a14.545,14.545,0,1,1-16.523-12.248A14.523,14.523,0,0,1,1346.139,949.546Z" transform="translate(-1314.772 -934.702)" fill="#ebebff"/><path d="M1356.71,970.11a14.541,14.541,0,0,1-15.332,2.728,50.614,50.614,0,0,1-1.1-10.686c.271-1.082,4.382-2.941,4.361-3.482s-.64-.865-1.482-1.781-1-3.353-1-3.353c-.248-2.931.671-4.123,2.721-4.585s3.179.581,4.164,3.157a5.823,5.823,0,0,1-.245,5.126c-.325.231-.445.557-.068,1.136s3.164.816,4.359,1.422C1354.02,960.259,1355.883,966.88,1356.71,970.11Z" transform="translate(-1329.911 -942.399)" fill="url(#l)"/></g><g transform="translate(578.109 259.355)"><circle cx="21.302" cy="21.302" r="21.302" transform="translate(0 0)" fill="url(#av)"/><path d="M1236.683,465.589a18.246,18.246,0,1,1-16.544-19.8A18.22,18.22,0,0,1,1236.683,465.589Z" transform="translate(-1197.208 -442.659)" fill="#ebebff"/><path d="M1241.834,489.408a18.244,18.244,0,0,1-19.5-1.187c-.063-3.628,1.276-12.341,1.805-13.354.649-1.24,6.21-2.3,6.343-2.963s-.526-1.243-1.283-2.608-.227-4.382-.227-4.382c.561-3.647,2.032-4.831,4.668-4.791s3.705,1.645,4.149,5.075-1.347,5.992-1.808,6.178-.707.548-.417,1.366,3.619,1.926,4.9,3.017C1241.453,476.6,1241.776,485.225,1241.834,489.408Z" transform="translate(-1211.718 -452.131)" fill="url(#aw)"/></g><g transform="translate(788.123 292.875)"><circle cx="27.214" cy="27.214" r="27.214" transform="translate(0 0)" fill="url(#ax)"/><path d="M1862.516,568.868a23.31,23.31,0,1,1-23.806-22.8A23.275,23.275,0,0,1,1862.516,568.868Z" transform="translate(-1811.998 -542.156)" fill="#ebebff"/><path d="M1874.847,600.473a23.3,23.3,0,0,1-24.925,1.251c-.594-4.6-.125-15.85.4-17.212.649-1.666,7.56-3.794,7.634-4.658s-.843-1.5-2-3.131-.908-5.531-.908-5.531c.2-4.71,1.9-6.421,5.249-6.742s4.937,1.564,5.986,5.857-.863,7.8-1.422,8.1-.82.8-.337,1.793,4.867,1.934,6.645,3.138C1872.552,584.268,1874.182,595.171,1874.847,600.473Z" transform="translate(-1834.183 -554.222)" fill="url(#ay)"/></g><rect width="619.063" height="4.135" transform="translate(326.723 588.846)" fill="#fff"/><g transform="translate(781.913 242.896)"><circle cx="18.036" cy="18.036" r="18.036" fill="url(#az)"/><path d="M1824.492,414.886a15.448,15.448,0,1,1-11.973-18.272A15.426,15.426,0,0,1,1824.492,414.886Z" transform="translate(-1791.333 -393.701)" fill="#ebebff"/><path d="M1823.911,419.255a15.447,15.447,0,1,1-20.512-19.447,14.745,14.745,0,0,0-.579,2.047,15.448,15.448,0,0,0,20.972,17.45C1823.833,419.287,1823.871,419.273,1823.911,419.255Z" transform="translate(-1791.332 -396.016)" fill="#6565a0" opacity="0.21"/><path d="M1821.978,434.983a2.911,2.911,0,0,1-2.848-2.99.754.754,0,0,0-.5-.744c-1.884-1.017-3.768-2.034-5.64-3.074a.8.8,0,0,0-.891.049,3.02,3.02,0,0,1-4.422-1.9,3.056,3.056,0,0,1,1.153-3.2,3,3,0,0,1,3.446-.073.926.926,0,0,0,1.052.088q2.846-1.279,5.717-2.5a.867.867,0,0,0,.608-.859,2.9,2.9,0,0,1,3.278-2.561,2.94,2.94,0,0,1,2.708,2.869,2.884,2.884,0,0,1-1.665,2.832,3.044,3.044,0,0,1-3.238-.308.855.855,0,0,0-.706-.054q-3,1.307-5.978,2.677c-.175.08-.406.3-.4.451a.8.8,0,0,0,.371.54c1.9,1.078,3.816,2.122,5.714,3.2.364.207.592.047.888-.106a2.965,2.965,0,0,1,3.287.2,2.878,2.878,0,0,1,1.14,3.2,2.831,2.831,0,0,1-2.231,2.2A5.283,5.283,0,0,1,1821.978,434.983Z" transform="translate(-1800.322 -407.459)" fill="url(#ba)"/></g><g transform="translate(618.684 181.906)"><circle cx="23.245" cy="23.245" r="23.245" transform="translate(0 0)" fill="url(#bb)"/><path d="M1359.213,237.916a19.91,19.91,0,1,1-22.165-17.362A19.881,19.881,0,0,1,1359.213,237.916Z" transform="translate(-1316.203 -217.073)" fill="#ebebff"/><path d="M1359.211,268.335a3.464,3.464,0,0,1-4.195-2.558.9.9,0,0,0-.8-.7c-2.479-.587-4.958-1.176-7.429-1.793a.946.946,0,0,0-1.01.331,3.593,3.593,0,0,1-5.667-.819,3.636,3.636,0,0,1,.337-4.036,3.566,3.566,0,0,1,3.938-1.146,1.1,1.1,0,0,0,1.236-.223q2.875-2.347,5.8-4.635a1.032,1.032,0,0,0,.434-1.174,3.448,3.448,0,0,1,2.978-3.954,3.5,3.5,0,0,1,4,2.462,3.432,3.432,0,0,1-1.04,3.767,3.623,3.623,0,0,1-3.817.645,1.017,1.017,0,0,0-.828.155q-3.048,2.427-6.044,4.919c-.176.146-.373.475-.319.641a.945.945,0,0,0,.593.507c2.514.654,5.04,1.262,7.553,1.918.482.126.7-.128.989-.4a3.528,3.528,0,0,1,3.837-.787,3.424,3.424,0,0,1,2.3,3.32,3.369,3.369,0,0,1-1.887,3.213A6.3,6.3,0,0,1,1359.211,268.335Z" transform="translate(-1329.43 -234.922)" fill="url(#bc)"/><path d="M1359.352,250.234a19.909,19.909,0,1,1-33.075-15.269,18.907,18.907,0,0,0,.139,2.738,19.91,19.91,0,0,0,32.81,12.641C1359.269,250.306,1359.31,250.273,1359.352,250.234Z" transform="translate(-1316.202 -226.644)" fill="#6565a0" opacity="0.21"/></g><g transform="translate(676.851 250.644)"><circle cx="13.505" cy="13.505" r="13.505" transform="translate(0 0)" fill="url(#bd)"/><path d="M1505.85,421.31a11.567,11.567,0,1,1-16.267-1.724A11.551,11.551,0,0,1,1505.85,421.31Z" transform="translate(-1483.349 -415.077)" fill="#ebebff"/><path d="M1506.768,433.378a11.567,11.567,0,1,1-21,2.669,11.021,11.021,0,0,0,.912,1.306,11.567,11.567,0,0,0,20.056-3.882C1506.75,433.439,1506.76,433.41,1506.768,433.378Z" transform="translate(-1483.352 -425.836)" fill="#6565a0" opacity="0.21"/><path d="M1513.679,441.954a2.148,2.148,0,0,1-2.981-.63.556.556,0,0,0-.613-.246c-1.571.168-3.142.335-4.714.484a.587.587,0,0,0-.522.4,2.228,2.228,0,0,1-3.483.69,2.255,2.255,0,0,1-.636-2.429,2.212,2.212,0,0,1,2.066-1.483.683.683,0,0,0,.677-.385q1.2-1.966,2.435-3.907a.64.64,0,0,0,.012-.776,2.139,2.139,0,0,1,.925-2.927,2.17,2.17,0,0,1,2.846.615,2.128,2.128,0,0,1,.169,2.418,2.245,2.245,0,0,1-2.1,1.165.631.631,0,0,0-.453.262q-1.281,2.048-2.519,4.124c-.073.122-.12.355-.054.441a.587.587,0,0,0,.451.174c1.6-.137,3.208-.3,4.813-.437.308-.026.38-.219.5-.435a2.188,2.188,0,0,1,2.082-1.253,2.123,2.123,0,0,1,2.027,1.468,2.089,2.089,0,0,1-.44,2.268A3.915,3.915,0,0,1,1513.679,441.954Z" transform="translate(-1493.419 -423.913)" fill="url(#be)"/></g><g transform="translate(803.021 322.299)"><g transform="translate(74.213)"><path d="M2076.87,653.895c.437-5.027,18.719-13.559,27.653-15.595-.192-.263-.395-.52-.617-.769-4.2-4.712-14.766-5.539-14.766-5.539-.885-.68-6.177-2.545,0-8.774s28.318-1.628,29.081,15.2-2.942,21.594,1.2,23.357a5.674,5.674,0,0,0,2.41.488c2.173-1.085,4.122-2.269,4.122-2.269s-2.69,14.7-21.955,14.427S2076.295,660.512,2076.87,653.895Z" transform="translate(-2072.675 -620.564)" fill="#27215e"/><path d="M2100.563,650.75s-3.5,20.021-11.7,19.252a38.023,38.023,0,0,0,3.266-10.391c.542-3.141-2.407-8.621-2.407-8.621s-8.8-.849-12.519-5.069-4.535-7.186-4.535-7.186-3.44,3.561-4.24,7.746c-.66,3.449.8,14.57,2.093,19.454a5.878,5.878,0,0,0-1.091-.2c-7.886-.583-3.593-26.585-3.593-26.585,4.547-9.472,12.373-9.485,14.358-8.307,0,0,6.764-5.172,16.407,6.209a17.293,17.293,0,0,1,3.821,9.274A26,26,0,0,1,2100.563,650.75Z" transform="translate(-2064.674 -626.55)" fill="#27215e"/><path d="M2071.766,667.072s-1.643,4.344-.608,6.726,1.893,3.25,1,5.376-.839,4.1.434,7.3,3.813,8.79,4.665,8.868l2.246.207s.108,4.542-.618,5.658-3.593,4.912-3.593,4.912-.366,4.62,4.841,4.9,2.818,2.73,7.164.23,7.4-8.468,7.4-8.468-.652-8.341-.975-10.815,2.2-5.318,2.544-6.548a9.179,9.179,0,0,0-.372-3.662s3.344-1.584,3.395-4.734-1.364-4.779-3.4-4.73a3.148,3.148,0,0,0-2.753,1.954s2.115-8.716-8.93-11.785S2071.766,667.072,2071.766,667.072Z" transform="translate(-2068.712 -647.635)" fill="url(#bf)"/><path d="M2095.8,755.586l8.506-2.528-8.7,7.637Z" transform="translate(-2085.014 -707.677)" fill="#c6667f" opacity="0.46"/><path d="M2076.94,652.346l3.076-2.077a32.628,32.628,0,0,0,9.251,9.258c5.943,3.835,8.131,2.976,8.131,2.976l1.774-1.753s1.615-7.1-5.652-14.087S2076.573,645.631,2076.94,652.346Z" transform="translate(-2072.732 -635.666)" fill="#27215e"/><path d="M2110,630.092s2.146-1.529,3-1.562,8.071.847,10.449,3.089,3.805,7.205,3.805,7.205-4.36-5.1-7.848-6.391A69.536,69.536,0,0,0,2110,630.092Z" transform="translate(-2094.475 -625.801)" fill="url(#bg)"/></g><ellipse cx="64.087" cy="6.35" rx="64.087" ry="6.35" transform="translate(0 303.499)" fill="#547b8e"/><path d="M1913.188,708.01c.514,3.558-.781,7.755-.345,9.3a19.588,19.588,0,0,0,1.642,3.612s-3.734,4.756-6.752,1.058c0,0-1.622-4.436-3.343-5.271s-3.247-3.145-4.781-4.636-2.313-3.409-1.967-4.339c.356-.947,2.432-1.533,2.432-1.533s.285-1.989,1.176-2.356a8.329,8.329,0,0,1,1.829-.516,1.806,1.806,0,0,1,2.249-1.237,4.422,4.422,0,0,1,2.341,1.248s1.173-1.522,2.236-.387a3.5,3.5,0,0,1,1.08,2.092,1.069,1.069,0,0,1,.78.082.938.938,0,0,1,.249.145A4.01,4.01,0,0,1,1913.188,708.01Z" transform="translate(-1880.586 -674.112)" fill="url(#bh)"/><g transform="translate(23.174 31.012)" opacity="0.31"><path d="M1917.386,717.27a3.709,3.709,0,0,0,3.87.932c2.2-.765,1.71-.095,1.3.394-.4.459-4.777,1.692-6.288-.034s-.039-2.4,2.523-3.841c1.961-1.1,3.658-1.606,4.873-3.614a.937.937,0,0,1,.249.145c-.595,1.732-2.379,2.864-3.551,3.5C1918.276,715.883,1916.922,716.942,1917.386,717.27Z" transform="translate(-1915.657 -711.108)" fill="#d60055"/></g><g transform="translate(37.31 285.818)"><path d="M2006.058,1468.541c1.669,2.779,2.569,7.05,1.71,9.089-.229.547-2.369,1-5.451,1.357h-.012c-4.312.5-10.469.834-15.829,1.011-.019,0-.039,0-.059,0-2.36.076-4.564.126-6.383.147-.023,0-.048,0-.074,0-2.367.025-4.073.006-4.614-.057a3.137,3.137,0,0,1-1.386-.451c-1.106-.717-1.2-2.2-1.1-4.21,2.675-.839,5.715-1.631,7.082-2.172,1.464-.576,3.452-1.5,5.2-2.35a17.9,17.9,0,0,0,3.931-1.958,13.38,13.38,0,0,0,1.46-1.119c2.117-1.888,4.048-12.785,4.048-12.785l10.666.26s-1.25,8.544.219,12.109a6.351,6.351,0,0,0,.454.9C2005.967,1468.386,2006.012,1468.464,2006.058,1468.541Z" transform="translate(-1967.383 -1455.044)" fill="url(#bi)"/><path d="M1982.985,1498.21c-2.68,2.327-12.293,2.194-13.5.466-.391.155-.923.331-1.541.522-3.02.476-10.8,1.818-10.989,3.019-.235,1.491.9,2.028,5.44,2.638h0c.37.074.738.142,1.108.2a37.789,37.789,0,0,0,6,.508c.026,0,.051,0,.074,0,1.752.023,3.811-.025,6.383-.147.019,0,.04,0,.059,0,9.1-.434,13.078-1.084,15.83-1.011h.011c2.755.072,5.514.391,6.1-2.888a11.814,11.814,0,0,0-1.2-6.945C1994.29,1491.955,1985.661,1495.887,1982.985,1498.21Z" transform="translate(-1956.93 -1480.464)" fill="#2f245b"/></g><g transform="translate(81.447 285.574)"><path d="M2131.838,1467.346c1.864,2.659,3.133,6.826,2.5,8.88-.167.551-2.176,1.1-5.1,1.609,0,0-.007,0-.011,0-4.085.711-9.956,1.343-15.077,1.784-.018,0-.038,0-.056,0-2.255.192-4.363.351-6.1.462-.022,0-.046,0-.071,0-2.267.143-3.9.208-4.429.173a3.073,3.073,0,0,1-1.371-.376c-1.128-.652-1.362-2.107-1.456-4.1,2.484-.961,5.323-1.893,6.581-2.494,1.348-.641,3.166-1.653,4.76-2.576a16.058,16.058,0,0,0,3.582-2.126,12.123,12.123,0,0,0,1.293-1.177c1.85-1.968,2.664-12.812,2.664-12.812l10.248-.273s-.385,8.49,1.363,11.932a6.647,6.647,0,0,0,.521.865C2131.735,1467.2,2131.786,1467.272,2131.838,1467.346Z" transform="translate(-2095.575 -1454.331)" fill="url(#bj)"/><path d="M2110.364,1496.788c-2.348,2.428-11.574,2.775-12.893,1.131-.36.172-.853.372-1.427.591-2.849.62-10.178,2.33-10.246,3.524-.083,1.483,1.052,1.956,5.466,2.331h0c.362.055.721.1,1.081.146a35.624,35.624,0,0,0,5.8.2c.025,0,.049,0,.071,0,1.682-.064,3.651-.214,6.1-.462.018,0,.038,0,.056,0,8.685-.881,12.432-1.72,15.077-1.784,0,0,.007,0,.011,0,2.648-.066,5.323.111,5.575-3.151a12.31,12.31,0,0,0-1.816-6.791C2120.6,1490.056,2112.707,1494.364,2110.364,1496.788Z" transform="translate(-2085.794 -1478.955)" fill="#2f245b"/></g><path d="M2078.231,1094.21c2.642,15.617-1.969,46.439-2.414,47.622s-6.447,2.057-8.631,1.564a6,6,0,0,1-1.49-.369c-.6-.366-.744-1.4-1.824-5.538-1.636-6.278-7.623-52.725-8.224-56.689s.2-9.142-2.091-13.293-5.991-38.716-5.991-38.716-6.149,35.781-7.281,38.158,1.791,19.391,2.187,32.5-5.285,40.441-6.4,43.283c-.953,2.42-7.594,1.777-11.053.854a9.872,9.872,0,0,1-1.473-.5c-2.445-1.1-1.118-21.051-1.075-43.541s-4.113-32.326-3.582-38.666-.329-10.883-.531-17.554c-.148-4.908,3.458-37.373,5.376-54.182.685-6.035,1.156-10.054,1.156-10.054s41.685-15.264,50.6,7.9-2.229,70.34-1.893,73.556S2075.589,1078.589,2078.231,1094.21Z" transform="translate(-1960.004 -853.049)" fill="#3f377c"/><g transform="translate(65.013 156.472)" opacity="0.83"><path d="M2055.267,1167.33c.4,13.106-5.285,40.441-6.4,43.283-.954,2.42-7.594,1.777-11.053.854,9.334-14.522,9.808-68.779,6.211-74.973-4.013-6.913,3.5-9.939,7.531-20.244s6.827-38.847,6.827-38.847l1.982,19.269s-6.149,35.781-7.281,38.158S2054.87,1154.221,2055.267,1167.33Z" transform="translate(-2037.811 -1077.403)" fill="#2f245b"/></g><g transform="translate(63.728 121.11)" opacity="0.83"><path d="M2088.559,1094.21c2.642,15.617-1.969,46.439-2.414,47.622s-6.446,2.057-8.631,1.564a6,6,0,0,1-1.49-.369c14.5-8.064,4.418-70.266.892-80.345-3.65-10.437,7.893-28.688,6.809-40.6s.245-27.766-23.718-28.838c-12.278-.549-20.676-2.41-25.948-4.094.685-6.035,1.156-10.054,1.156-10.054s41.685-15.264,50.6,7.9-2.229,70.34-1.893,73.556S2085.917,1078.589,2088.559,1094.21Z" transform="translate(-2034.06 -974.159)" fill="#2f245b"/></g><path d="M2008.7,824.7c.674,6.01,3.5,10.06.709,13.221-3.512,3.979-43.788.938-47.536,0a5.321,5.321,0,0,1-4.106-4.226,16.99,16.99,0,0,1-.341-4.906c.13-2.722,1.907-8.1,3.112-13.185.973-4.109,1.573-8.036.632-10.231a72.2,72.2,0,0,1-4.057-16.624v-4.215l-.017.028c-.07.1-.348.506-.787,1.092-.01.007-.014.017-.021.025-1.907,2.536-6.765,8.4-10.8,8.222-5.153-.235-16.627-20.607-19.9-27.4s-8.194-15.69-7.025-17.8a4.879,4.879,0,0,1,1.04-1.142c2.785-2.41,9.712-5.925,10.9-3.541,1.4,2.81,14.516,29.033,16.624,29.033s14.52-14.984,17.33-16.859,14.631-1.966,14.631-1.966-6.172,7.48-1.957,9.588,6.057-.362,10.974-4.11a27.816,27.816,0,0,0,7.028-7.492s17.576,7.6,19.507,14.949c1.591,6.045-2.6,31.618-4.812,45.46v0c-.478,2.975-.86,5.409-1.075,6.989-.056.414-.1.822-.123,1.222a.542.542,0,0,0-.011.1A20.622,20.622,0,0,0,2008.7,824.7Z" transform="translate(-1894.274 -701.216)" fill="url(#bk)"/><path d="M2029.122,864.992c.414-.608.706-.991.787-1.092C2029.839,864,2029.561,864.406,2029.122,864.992Z" transform="translate(-1967.086 -780.555)" fill="#fff" stroke="#000" stroke-miterlimit="10" stroke-width="1"/><path d="M2082.971,876.917v.038l.092,3.758a.011.011,0,0,1-.007,0c-.225-.063-7.544-2.118-14.8-5.051-7.375-2.979-13.171-6.14-13.522-4.559-.267,1.194-13.435.783-19.834.513.973-4.109,1.573-8.036.632-10.232a72.2,72.2,0,0,1-4.057-16.624v-4.215l15.089,3.537s4.833,5.419,10.8,7.176,9.135,2.659,12.121-3.586,3.245-19.251,3.245-19.251l11.45,40.219v0l-1.2,8.212Z" transform="translate(-1968.629 -757.226)" opacity="0.63" fill="url(#bl)"/><path d="M2038.476,889.454l-6.913-23.144a2.107,2.107,0,0,1,1.767-2.7l10.279-1.239a2.108,2.108,0,0,1,2.288,1.546l6.542,24.383a2.108,2.108,0,0,1-2.036,2.654H2040.5A2.108,2.108,0,0,1,2038.476,889.454Z" transform="translate(-1968.632 -779.542)" fill="#27215e"/><path d="M2051.086,895.343a11.79,11.79,0,0,1-4.427-2.066c-1.7-1.464-5.327-1.464-7.551-1.815s-2.4-1.464-3.278-1.112a1.865,1.865,0,0,0-1.112,2.81c.819,1.581,2.4,7.552,3.571,8.2s3.488-.527,4.466,0,7.242,2.224,7.242,2.224Z" transform="translate(-1970.57 -797.901)" fill="url(#bm)"/><path d="M2114.932,860.052c-7.26,1.876-33.016-8.43-35.825-10.066s-.471-10.305,1.4-11.942a.624.624,0,0,1,.155-.1c2.561-1.278,20.5,4.282,22.791,2.908,2.343-1.4-1.4-24.119,0-29.739,1.026-4.106,7.678-5.462,11.187-5.894.162-.021.316-.039.464-.053,1.032-.116,1.7-.14,1.7-.14C2125.7,807.6,2122.189,858.18,2114.932,860.052Z" transform="translate(-1999.094 -741.847)" fill="url(#bn)"/><path d="M1963.332,773.9c-.13.218-3.523,5.862-4.384,9.476-.878,3.688-1.833,9.483-1.833,9.483s0,0,0,.007c-.2.288-6.558,9.589-11.626,9.36-5.153-.235-16.627-20.607-19.9-27.4s-8.194-15.69-7.025-17.8a4.88,4.88,0,0,1,1.04-1.142c6.323,12.11,20.231,38.326,23.2,40.479,3.864,2.81,7.025.7,10.01-5.8C1955.742,784.176,1963.1,774.2,1963.332,773.9Z" transform="translate(-1894.274 -709.538)" opacity="0.63" fill="url(#bl)"/><path d="M1938.114,755s4.478,17.386,10.976,24.323,9.659,4.478,7.376-1.054-13.523-25.9-15.366-25.728S1938.026,751.752,1938.114,755Z" transform="translate(-1907.245 -707.334)" fill="#f0a9ff" opacity="0.2"/><path d="M2114.932,860.052a7.738,7.738,0,0,1-1.363.2c-5.11.33-15.258-2.764-23.269-5.672l-.031-.014a108.667,108.667,0,0,1-11.162-4.583c-2.81-1.64-.471-10.305,1.4-11.942a.624.624,0,0,1,.155-.1c-.632,2.627-1.321,6.094-1.057,7.825.46,3.006,24.316,11.471,32.278,9.132s8.546-24.354,7.692-37.81c-.678-10.67-3.382-11.882-4.471-11.924,1.032-.116,1.7-.14,1.7-.14C2125.7,807.6,2122.189,858.18,2114.932,860.052Z" transform="translate(-1999.094 -741.847)" opacity="0.53" fill="url(#bp)"/><path d="M2158.974,824.7s7.142-2.458,8.429,1.288-2.121,26.509-4.749,27.3-4.471,1.21-5.671-1.69S2155.578,824.7,2158.974,824.7Z" transform="translate(-2050.63 -754.258)" fill="#f0a9ff" opacity="0.14"/><path d="M2091.905,909.694s22.825,1.731,23.527,3.6,2.225,4.8-2.458,4.917S2087.906,912.177,2091.905,909.694Z" transform="translate(-2008.025 -810.664)" fill="#f0a9ff" opacity="0.14"/><path d="M2054.375,800.181s-6.724,10.043-1.952,16.514,19.214,5.96,23.492,2.258,7.089-16.1,3.845-14.682-17.4,2.2-20.408-.358S2055.9,797.431,2054.375,800.181Z" transform="translate(-1981.281 -738.043)" fill="#f0a9ff" opacity="0.2"/><path d="M2085.019,973.678c-3.512,3.979-43.788.938-47.536,0a5.321,5.321,0,0,1-4.106-4.226c11.285,3.9,37.364,2.736,41.221,2.118,4.39-.7,6.146-5.268,3.5-10.186-2.564-4.763-16.167-11.275-17.007-11.675,8.012,2.908,18.159,6,23.269,5.672-.056.415-.1.819-.123,1.219a.541.541,0,0,0-.01.1,20.612,20.612,0,0,0,.084,3.755C2084.984,966.467,2087.807,970.517,2085.019,973.678Z" transform="translate(-1969.883 -836.974)" opacity="0.63" fill="url(#bl)"/><path d="M2041.515,964.12s-4.917,7.5,0,9.96,35.475,3.278,35.825,0-1.7-6.322-7.755-8.781S2043.388,962.121,2041.515,964.12Z" transform="translate(-1973.797 -845.688)" fill="#f0a9ff" opacity="0.14"/><g transform="translate(60.237 146.084)" opacity="0.12"><path d="M2029.285,1052.408s-9.548,47.534-3.29,51.571,11.762-11.229,16.733-26.217S2035.986,1035.526,2029.285,1052.408Z" transform="translate(-2023.869 -1047.073)" fill="#fff"/></g><g transform="translate(91.694 152.457)" opacity="0.12"><path d="M2115.747,1072.33s.848,33.006,4.742,36.233,6.4-3.521,8.591-8.855-2.247-32.439-6.423-33.022S2115.339,1062.857,2115.747,1072.33Z" transform="translate(-2115.711 -1065.68)" fill="#fff"/></g></g><g transform="translate(301.658 279.488)"><ellipse cx="64.465" cy="8.061" rx="64.465" ry="8.061" transform="translate(24.427 346.032)" fill="#547b8e"/><g transform="translate(0)"><path d="M548.472,685.94s-9.356.956-15.51-12.84.628-23.835,5.151-27.283,17.473-4.923,23.187-1.223,8.488,4.485,10.445,4.355a23.339,23.339,0,0,0,2.562-.253,20.211,20.211,0,0,1-4.441,2.53l-1.54.4a9.268,9.268,0,0,0,3.966,0c1.972-.493,3.08-.81,3.08-.81s-3.216,5.435-10.933,5.164-13.408,9.816-13.521,15.878S548.472,685.94,548.472,685.94Z" transform="translate(-480.395 -592.13)" fill="#27215e"/><path d="M559.685,724.381s2.759-3.9,2.669-6.224-1.677-7.049-2.428-7.616a4.167,4.167,0,0,0-.378-.246,4.75,4.75,0,0,1-2.362-4.467,3.489,3.489,0,0,0-.411-2.3c-1.123-1.528-.964-.749-3.283-2.169s-4.952-3.72-4.184-6.581a4.441,4.441,0,0,1,6.967-2.1c2.2,1.984,2.162,4.426,2.805,2.942s-1.041-5.061-.332-7.233.514-5.108,3.3-4.73,14.672-1.646,14.672-1.646a19.165,19.165,0,0,1,1.034,5.062c-.114,1.646-1.163,3.573-.432,4.505s2.353,3.576,1.859,5.569-.966,10.924-2.933,11.777-1.53,5.9-.508,8.126a27.41,27.41,0,0,1,1.539,4.314s-8.021,5.3-10.182,3.987S559.685,724.381,559.685,724.381Z" transform="translate(-492.671 -618.149)" fill="url(#br)"/><g transform="translate(69.094 89.942)" opacity="0.31"><path d="M585.938,758.166s1.136,2.472,3.128,2.516,10.629-1.052,10.629-1.052a5.922,5.922,0,0,0-.648,3.266,37.586,37.586,0,0,0,.969,4.742s-5.764-.986-7.9-2.172S585.938,758.166,585.938,758.166Z" transform="translate(-585.938 -758.166)" fill="#d60055"/></g><path d="M412.843,603.92a3.068,3.068,0,0,0-1.309-2.292c-1.207-.684-1.78-.991-1.78-.991l12.091-4.3a8.5,8.5,0,0,1-.737,2.713c-.458.527.254,3.9.254,3.9Z" transform="translate(-401.005 -561.822)" fill="url(#bs)"/><path d="M384.328,567.37l2.834,7.825a1.814,1.814,0,0,0,2.309,1.127l21.222-7.551a1.917,1.917,0,0,0,1.052-2.62l-3.569-7.617a1.808,1.808,0,0,0-2.246-.964l-20.487,7.343A1.913,1.913,0,0,0,384.328,567.37Z" transform="translate(-384.211 -536.267)" fill="#27215e"/><path d="M387.86,570.7l2.769,6.248a1.713,1.713,0,0,0,2.133.846l19.186-6.706a1.5,1.5,0,0,0,.9-2.148l-3.435-6.058a1.729,1.729,0,0,0-2.072-.716l-18.52,6.517A1.506,1.506,0,0,0,387.86,570.7Z" transform="translate(-386.529 -539.288)" fill="url(#bt)"/><path d="M400.63,562.425s1.271-1.9,2.39-2.211,1.5.474,2.325-.211,1.031-1.211,1.9-1.053a4.068,4.068,0,0,0,2.37-.632,1.933,1.933,0,0,1,2.512.579,2.916,2.916,0,0,1,.2,3.053c-.407.685-1.729-.263-1.729-.263a1.6,1.6,0,0,1-.661,1.211c-.661.474-6.642,3.374-8.492,2.264A1.909,1.909,0,0,1,400.63,562.425Z" transform="translate(-394.816 -536.676)" fill="url(#bs)"/><path d="M553.59,1476.029c-2.817,2.981-31.215-9.745-32.132-11.942s-.079-6.621,1.841-10.132a13.715,13.715,0,0,0,1.007-2.76,137.3,137.3,0,0,0,2.715-14.944l13.092,3.518L537.2,1450.84s-1.38,3.88.067,5.551a6.377,6.377,0,0,0,1.546,1.063c3.465,1.9,11.19,4.953,13.577,8.1C555.3,1469.386,556.417,1473.048,553.59,1476.029Z" transform="translate(-474.205 -1114.057)" fill="url(#bv)"/><path d="M554.9,1500.943a5.51,5.51,0,0,1-1.673,3.642c-2.852,2.947-31.095-10.12-31.985-12.328a9.236,9.236,0,0,1,.011-5.066,19.525,19.525,0,0,1,1.952-5.044,13.687,13.687,0,0,0,1.04-2.748c2.52,1.026,5.619,2.8,5.93,5.353.375,3.046,4.621,1.314,8.5,1.082,3.442,1.942,11.13,5.088,13.478,8.266C553.937,1496.5,555.02,1498.824,554.9,1500.943Z" transform="translate(-474.082 -1142.428)" fill="#1a1535"/><g transform="translate(46.817 344.764)" opacity="0.57"><path d="M554.9,1515.9a5.509,5.509,0,0,1-1.673,3.642c-2.852,2.947-31.095-10.12-31.985-12.328a9.236,9.236,0,0,1,.011-5.066,27.869,27.869,0,0,0,11.377,8.288c11.13,4.271,14.475,7.317,19.043,6.479A13.174,13.174,0,0,0,554.9,1515.9Z" transform="translate(-520.9 -1502.149)" fill="#fff"/></g><path d="M741.811,1471.369c-1.149,2.75-15.054,1.376-18.463-.141s-13.853.705-16.2-.676c-2.317-1.343-1.991-8.171-.78-11.671.023-.074.045-.138.066-.2,1.251-3.415,1.217-15.319,1.217-15.319l10.733.839s-.78,6.293-.824,6.554A28.372,28.372,0,0,0,719,1457.51c.8,1.837,2.977,2.719,5.689,3.468.29.083.591.167.894.241,3.126.808,12.366,3.208,13.793,3.583S742.948,1468.628,741.811,1471.369Z" transform="translate(-595.41 -1118.733)" fill="url(#bw)"/><path d="M741.814,1500.484c-1.15,2.75-15.054,1.376-18.463-.14s-13.853.705-16.2-.676a3.642,3.642,0,0,1-1.409-2.409,19.468,19.468,0,0,1,.629-9.262c3.879-.431,8.437-.635,9.34.391a9.76,9.76,0,0,0,5.849,3.226c1.233.107,1.979-.707,3.128-1.52.29.083.591.167.894.241,3.126.808,12.366,3.208,13.793,3.583,1.2.325,2.9,2.784,2.756,5.189A4.5,4.5,0,0,1,741.814,1500.484Z" transform="translate(-595.414 -1147.848)" fill="#1a1535"/><g transform="translate(110.332 349.045)" opacity="0.57"><path d="M742.406,1518.239c-1.149,2.75-15.054,1.376-18.463-.14s-13.853.705-16.2-.676a3.642,3.642,0,0,1-1.409-2.409c3.924.461,8.087.728,9.958.081,4.044-1.411,10.182.88,15.86,1.839a41.149,41.149,0,0,0,10.571-.073A4.5,4.5,0,0,1,742.406,1518.239Z" transform="translate(-706.337 -1514.647)" fill="#fff"/></g><path d="M530.468,1170.187c2.265,2.114,9.889,3.58,13.923,3.027,1.225-.165,2.119-.52,2.431-1.1a9.835,9.835,0,0,0,.454-1.258c2.894-9.062,16.236-61.166,17.239-65.8.587-2.719,2.3-13.536,3.769-22.328,0,0,1.452-27.932,2.895-26.234,2.44,2.866,2.36,11.332,2.927,14.869,1,6.243,1.7,12.533,2.8,18.752.918,5.188,3.495,10.386,3.869,15.612.222,3.24,1.008,17.56,1.4,21.211.019.118.028.222.038.322,2.166,17.456,5.538,45.776,7.586,45.908.653.038,1.428.038,2.237.014a.392.392,0,0,0,.359.142c.927-.189,2.431-.279,4.11-.454.109,0,.222-.019.336-.033.166-.014.256-.024.256-.024a26.262,26.262,0,0,0,3.7-.643c.137-.038.27-.076.4-.113,2.492-.733,4.45-2.053,4.332-4.635-.27-5.8,0-65.942-2.147-76.437-1.807-8.825-6.082-50.557-7.387-63.488-.081-.813-.151-1.513-.208-2.081-.113-1.125-.175-1.75-.175-1.75l-51.206,5.794s-5.089,23.732-5.089,35.04,3.755,36.7,2.545,40.011S527.521,1167.43,530.468,1170.187Z" transform="translate(-480.091 -842.794)" fill="#3f377c"/><path d="M724.121,506.393c.546,4.807,3.582,9.816,3.551,11.973a27.185,27.185,0,0,1-.855,5.271s6.292,4.888,8.849-.973c0,0,.554-6.335,2.438-8.02s3.031-5.221,4.461-7.694c1.43-2.453,1.767-5.239,1.019-6.328-.766-1.108-3.573-1.148-3.573-1.148s-1.026-2.488-2.27-2.654a10.492,10.492,0,0,0-2.474-.035,2.314,2.314,0,0,0-3.244-.827A5.876,5.876,0,0,0,729.5,498.4s-1.987-1.572-2.943.275a4.854,4.854,0,0,0-.658,3.1,1.361,1.361,0,0,0-.954.377,1.243,1.243,0,0,0-.264.275C724.225,503.009,723.873,504.176,724.121,506.393Z" transform="translate(-607.644 -495.571)" fill="url(#bx)"/><g transform="translate(117.035 6.574)" opacity="0.31"><path d="M736.134,520.6a4.818,4.818,0,0,1-4.556,2.559c-3.029-.229-2.183.471-1.5.964.663.456,6.577.539,7.9-2.232s-.756-3.136-4.462-4.118c-2.835-.747-5.141-.817-7.342-3.005a1.245,1.245,0,0,0-.264.275c1.329,2.047,3.953,2.9,5.639,3.312C734.551,519.1,736.608,520.009,736.134,520.6Z" transform="translate(-725.908 -514.765)" fill="#d60055"/></g><path d="M638.857,645.6l12.8,14.746a91.3,91.3,0,0,0,10.249-14.453c5.278-9.047,9.629-23.2,11.914-26.873s6.1-46.712,5.836-49.025c-.151-1.376-2.09-2.1-4.327-2.2a12.152,12.152,0,0,0-3.15.274,9.4,9.4,0,0,0-1.324.392c-3.278,1.268-3.145,12.041-5.292,16.955s-5.581,25.624-6.8,29.176-7.316,8.556-10.882,15.248c-1.622,3.046-3.618,6.47-5.311,9.35C640.531,642.635,638.918,645.293,638.857,645.6Z" transform="translate(-551.638 -543.048)" fill="url(#by)"/><path d="M638.859,645.619l12.8,14.749a91.615,91.615,0,0,0,10.251-14.454c5.276-9.047,9.627-23.2,11.915-26.872s6.1-46.716,5.834-49.026c-.153-1.379-2.091-2.107-4.329-2.2-1.445,12.462-5.265,43.23-8.685,53.185-4.323,12.593-13.929,22.679-24.075,18.208C640.534,642.658,638.919,645.318,638.859,645.619Z" transform="translate(-551.639 -543.072)" opacity="0.27" fill="url(#bz)"/><path d="M539.617,807.291c2.46,17.191,7.383,41.056,6.99,44.281-.535,4.4-2.682,8.811,0,14.377.345.729,1.419,1.286,3.032,1.693a50.978,50.978,0,0,0,11.024.993c14.515.147,35.343-2.308,38.129-3.85a13.5,13.5,0,0,0,2.445-1.669,7.457,7.457,0,0,0,1.187-1.315,6.23,6.23,0,0,0,.913-1.9,11.689,11.689,0,0,0,.095-5.089c-.8-5.1-6.7-33.631-9.918-48.245s-13.668-24.74-17.068-27.208a16.9,16.9,0,0,0-8.574-3.1,4.093,4.093,0,0,1-.06,2.584c-.3,1.042-.084,2.766-3.426,3.371-8.579,1.546-9.449-4.5-9.449-4.5a5.327,5.327,0,0,0-2.076.946,6.634,6.634,0,0,1-3.41,1.471A11.92,11.92,0,0,0,538.378,791.3c-.043.364-.066.738-.085,1.126C538.151,795.594,538.718,801,539.617,807.291Z" transform="translate(-485.504 -680.121)" fill="url(#ca)"/><path d="M599.6,796.926s20.673,19.62,13.9,27.009-23.45,3.352-28.383-3.933-10.557-17.715-6.24-17.7,11.634,7.139,14.133,2.483S596.58,793.178,599.6,796.926Z" transform="translate(-511.19 -693.006)" fill="#fff" opacity="0.36"/><path d="M566.907,824.689a.8.8,0,0,1,.016.121C566.912,824.727,566.907,824.689,566.907,824.689Z" transform="translate(-504.332 -711.962)" fill="url(#cb)"/><path d="M416.3,615.7c.407,2.549,8.981,35.66,11.261,41.42s11,19.972,13.938,22.914S456.914,698,460.67,698s7.771-12.462,6.7-16.085c-.322-1.088-.572-2.171-.913-3.278a17.373,17.373,0,0,0-5.652-8.518c-5.226-4.687-10.324-9.648-13.138-12.594s-2.809-3.618-5.226-12.334-14.879-34.577-15.678-36.856a1.351,1.351,0,0,0-1.272-.776c-2.365-.241-7.042,1.849-7.042,1.849-.113.014-.227.024-.331.047C413.99,610.108,415.91,613.225,416.3,615.7Z" transform="translate(-404.792 -569.189)" fill="#68eab5"/><path d="M416.3,619.382c.405,2.545,8.981,35.655,11.258,41.418s10.995,19.97,13.94,22.915,15.417,17.962,19.171,17.962,7.772-12.462,6.7-16.085c-.323-1.089-.575-2.172-.914-3.278-.142-.1-.213-.153-.213-.153s-3.125,14.093-14.344,4.455-10.672-14.793-15.871-19.467c-4.411-3.962-14.426-42.075-17.913-54.017C413.992,613.783,415.914,616.9,416.3,619.382Z" transform="translate(-404.794 -572.866)" opacity="0.18" fill="url(#cc)"/><path d="M562.857,811.072c.019.1.166.823.407,1.986A6.3,6.3,0,0,0,562.857,811.072Z" transform="translate(-501.669 -703.009)" fill="url(#cd)"/><path d="M549.19,878.273c-.535,4.4-2.682,8.811,0,14.377.9,1.882,6.659,2.62,14.056,2.686,14.515.147,35.343-2.308,38.129-3.85a10.369,10.369,0,0,0,3.632-2.984c-11.114-3.622-31.919-.118-36.27-4.044-5.671-5.117-.634-6.233,4.441-16.742s-16.425-19.131-18.747-29.048c-1.783-7.629-3.873-17.6-4.748-21.8.359,6.7-7.482,17.121-7.482,17.121C544.66,851.183,549.583,875.048,549.19,878.273Z" transform="translate(-488.087 -706.822)" opacity="0.45" fill="url(#ce)"/><g transform="translate(20.693 25.019)" opacity="0.36"><path d="M655.007,630.387c-1.622,3.046-3.618,6.47-5.311,9.35,1.925,1.111,17.225-18.615,20.365-28.074,2.97-8.953,8.645-39.765,9.246-43.047a9.407,9.407,0,0,0-1.325.393c-3.277,1.268-3.145,12.041-5.292,16.955s-5.581,25.624-6.8,29.176S658.573,623.695,655.007,630.387Z" transform="translate(-579.457 -568.616)" fill="#fff"/><path d="M444.628,607.6c-.175,6.144,8.678,26.258,14.628,41.908,6.621,17.418,18,18.208,20.686,20.653-5.226-4.687-10.324-9.648-13.138-12.594s-2.809-3.618-5.226-12.335S446.7,610.651,445.9,608.372A1.351,1.351,0,0,0,444.628,607.6Z" transform="translate(-444.626 -594.245)" fill="#fff"/></g><path d="M530.468,1174.245c2.265,2.114,9.889,3.58,13.923,3.027-18.057-7.123,6.281-58.318,10.1-64.713,3.84-6.436-1.239-5.155-3.911-14.859s.544-23.874,1.376-37.59-3.906-18.445,15.191-19.788a70.78,70.78,0,0,0,28.849-8.759c-.066-.648-.123-1.225-.17-1.717a13.5,13.5,0,0,1-2.445,1.669c-2.786,1.542-23.614,4-38.129,3.85a50.985,50.985,0,0,1-11.024-.993c-.9,4.323-4.909,24.153-4.909,34.194,0,11.318,3.755,36.7,2.545,40.011S527.521,1171.488,530.468,1174.245Z" transform="translate(-480.091 -846.852)" fill="#2f245b"/><path d="M650.152,1089.677v10.22c2.44,2.866,2.36,11.332,2.927,14.869,1,6.243,1.7,12.533,2.8,18.752.918,5.188,3.495,10.386,3.869,15.612.222,3.24,1.008,17.56,1.4,21.211.019.118.028.222.038.322,2.166,17.457,5.538,45.776,7.586,45.908.653.038,1.428.038,2.237.014a.392.392,0,0,0,.359.142c.927-.189,2.431-.279,4.11-.454.109,0,.222-.019.336-.033.166-.014.256-.024.256-.024a26.227,26.227,0,0,0,3.7-.643c.137-.038.27-.076.4-.113-11.994-7.633-11.247-57.869-9.539-65.351,1.906-8.376-7.9-14.008-10.953-28.069S650.152,1089.677,650.152,1089.677Z" transform="translate(-559.064 -886.189)" fill="#2f245b"/><g transform="translate(63.46 197.261)" opacity="0.13"><path d="M702.028,1071.5s-7.549.111-8.091,11.719,11.312,48.763,13.425,46.108S706.247,1071.186,702.028,1071.5Z" transform="translate(-651.3 -1071.496)" fill="#fff"/><path d="M620.77,1088.883s-6.021,55.49-10.438,53.181-7.477-20.809-1.69-37.571S618.011,1082.208,620.77,1088.883Z" transform="translate(-593.142 -1081.114)" fill="#fff"/><path d="M728.407,1245.237s-5.861-2.344-5.8,6.98,5.978,63.322,6.8,54.767S730.592,1247.088,728.407,1245.237Z" transform="translate(-670.159 -1185.556)" fill="#fff"/><path d="M588.954,1259.042s-1.95-3.851-5.267,6.556-16.94,46.077-13.706,52.815S589.1,1265.437,588.954,1259.042Z" transform="translate(-569.488 -1194.348)" fill="#fff"/></g></g></g><g transform="translate(323.399 639.366)"><ellipse cx="12.894" cy="3.139" rx="12.894" ry="3.139" transform="translate(145.083 15.921)" fill="#80bfc1"/><ellipse cx="4.709" cy="2.018" rx="4.709" ry="2.018" transform="translate(165.04 6.054)" fill="#80bfc1"/><ellipse cx="26.012" cy="4.485" rx="26.012" ry="4.485" transform="translate(210.784 10.091)" fill="#80bfc1"/><ellipse cx="21.527" cy="4.036" rx="21.527" ry="4.036" transform="translate(322.904)" fill="#80bfc1"/><ellipse cx="14.204" cy="5.045" rx="14.204" ry="5.045" transform="translate(388.676 12.109)" fill="#80bfc1"/><ellipse cx="15.977" cy="5.045" rx="15.977" ry="5.045" transform="translate(0 12.109)" fill="#80bfc1"/><ellipse cx="19.738" cy="6.054" rx="19.738" ry="6.054" transform="translate(581.986 8.073)" fill="#80bfc1"/></g></g></svg>