<svg xmlns="http://www.w3.org/2000/svg" width="32" height="32" viewBox="0 0 32 32"><g transform="translate(-13872 -8463)"><rect width="32" height="32" rx="16" transform="translate(13872 8463)" fill="rgba(192,58,252,0.1)"/><path d="M17.882,8.257a9.227,9.227,0,0,1-.3,2,5.791,5.791,0,0,1-.778,1.757,4.106,4.106,0,0,1-1.319,1.249,3.723,3.723,0,0,1-1.926.475,2.792,2.792,0,0,1-1.393-.341,2.385,2.385,0,0,1-.941-.965A2.984,2.984,0,0,1,8.7,13.7a2.567,2.567,0,0,1-2.2-1.185,3.879,3.879,0,0,1-.548-1.373A5.921,5.921,0,0,1,5.88,9.353a8.32,8.32,0,0,1,.546-2.193,5.962,5.962,0,0,1,1.008-1.68A4.266,4.266,0,0,1,8.82,4.408a3.868,3.868,0,0,1,1.686-.375,5.242,5.242,0,0,1,1.008.086,4.128,4.128,0,0,1,.783.235,4.232,4.232,0,0,1,.648.342c.2.127.4.259.595.394l-.49,5.634a1.873,1.873,0,0,0,.015.66.923.923,0,0,0,.2.407.724.724,0,0,0,.326.212,1.212,1.212,0,0,0,1.147-.226A2.445,2.445,0,0,0,15.355,11a5.04,5.04,0,0,0,.414-1.176,8.07,8.07,0,0,0,.181-1.465,9.359,9.359,0,0,0-.23-2.737A5.44,5.44,0,0,0,14.706,3.5a4.7,4.7,0,0,0-1.816-1.364,6.59,6.59,0,0,0-2.645-.484,5.84,5.84,0,0,0-2.616.57A6,6,0,0,0,5.642,3.8a7.586,7.586,0,0,0-1.3,2.378,10.716,10.716,0,0,0-.548,2.963,9.852,9.852,0,0,0,.279,3.023,5.46,5.46,0,0,0,1.1,2.167,4.609,4.609,0,0,0,1.871,1.3,7.179,7.179,0,0,0,2.582.432,8.845,8.845,0,0,0,1.695-.182c.279-.056.544-.123.8-.2a6,6,0,0,0,.686-.246l.354,1.594a3.934,3.934,0,0,1-.768.38,7.393,7.393,0,0,1-.908.263,8.858,8.858,0,0,1-1.9.212,9.943,9.943,0,0,1-3.457-.557,6.362,6.362,0,0,1-2.52-1.657A6.958,6.958,0,0,1,2.1,12.941a11.669,11.669,0,0,1-.423-3.8A11.582,11.582,0,0,1,2.406,5.5,9.02,9.02,0,0,1,4.157,2.6,7.978,7.978,0,0,1,6.828.693,8.362,8.362,0,0,1,10.287,0a8.73,8.73,0,0,1,3.352.6,6.519,6.519,0,0,1,2.419,1.688A6.928,6.928,0,0,1,17.493,4.9,9.973,9.973,0,0,1,17.882,8.257Zm-9.6,1.1a3.8,3.8,0,0,0,.2,1.886,1.011,1.011,0,0,0,.973.637,1.074,1.074,0,0,0,.333-.061,1.188,1.188,0,0,0,.383-.23,2.046,2.046,0,0,0,.389-.47,3.6,3.6,0,0,0,.358-.794L11.3,5.943a2.284,2.284,0,0,0-.595-.078,2.056,2.056,0,0,0-.989.227,1.959,1.959,0,0,0-.7.666,3.913,3.913,0,0,0-.465,1.1,9.294,9.294,0,0,0-.264,1.5Z" transform="translate(13878.33 8470)" fill="#c03afc"/></g></svg>