<svg xmlns="http://www.w3.org/2000/svg" xmlns:xlink="http://www.w3.org/1999/xlink" width="54.55" height="54.55" viewBox="0 0 54.55 54.55"><defs><linearGradient id="a" x1="0.5" x2="0.54" y2="0.768" gradientUnits="objectBoundingBox"><stop offset="0" stop-color="#926fff"/><stop offset="1" stop-color="#5d37fa"/></linearGradient><filter id="b" x="0" y="0" width="54.55" height="54.55" filterUnits="userSpaceOnUse"><feOffset dy="2" input="SourceAlpha"/><feGaussianBlur stdDeviation="3" result="c"/><feFlood flood-color="#dbe3ff"/><feComposite operator="in" in2="c"/><feComposite in="SourceGraphic"/></filter></defs><g transform="translate(-776 -1132)"><g transform="translate(785 1139)"><g transform="matrix(1, 0, 0, 1, -9, -7)" filter="url(#b)"><path d="M9.4,0H27.151a9.4,9.4,0,0,1,9.4,9.4V27.151a9.4,9.4,0,0,1-9.4,9.4H9.4a9.4,9.4,0,0,1-9.4-9.4V9.4A9.4,9.4,0,0,1,9.4,0Z" transform="translate(9 7)" fill="url(#a)"/></g></g><g transform="translate(783.053 1133.002)"><path d="M20.17,24.524l7.507-7.507a.7.7,0,0,0,.02-.964,12.525,12.525,0,1,0,0,16.942.7.7,0,0,0-.02-.964ZM18.49,35.657a11.133,11.133,0,1,1,7.717-19.138l-7.513,7.513a.7.7,0,0,0,0,.984l7.513,7.513a11.143,11.143,0,0,1-7.717,3.129Z" transform="translate(0)" fill="#fff"/><path d="M64.087,42a2.087,2.087,0,1,0,2.087,2.087A2.087,2.087,0,0,0,64.087,42Zm0,2.783a.7.7,0,1,1,.7-.7A.7.7,0,0,1,64.087,44.783Z" transform="translate(-36.551 -19.564)" fill="#fff"/><path d="M80.087,42a2.087,2.087,0,1,0,2.087,2.087A2.087,2.087,0,0,0,80.087,42Zm0,2.783a.7.7,0,1,1,.7-.7A.7.7,0,0,1,80.087,44.783Z" transform="translate(-46.985 -19.564)" fill="#fff"/><path d="M32.087,24a2.087,2.087,0,1,0,2.087,2.087A2.087,2.087,0,0,0,32.087,24Zm0,2.783a.7.7,0,1,1,.7-.7.7.7,0,0,1-.7.7Z" transform="translate(-15.685 -7.826)" fill="#fff"/></g></g></svg>