<svg xmlns="http://www.w3.org/2000/svg" xmlns:xlink="http://www.w3.org/1999/xlink" width="54.55" height="54.55" viewBox="0 0 54.55 54.55"><defs><linearGradient id="a" x1="0.5" x2="0.5" y2="1" gradientUnits="objectBoundingBox"><stop offset="0" stop-color="#eaac22"/><stop offset="1" stop-color="#c78c08"/></linearGradient><filter id="b" x="0" y="0" width="54.55" height="54.55" filterUnits="userSpaceOnUse"><feOffset dy="2" input="SourceAlpha"/><feGaussianBlur stdDeviation="3" result="c"/><feFlood flood-color="#dbe3ff"/><feComposite operator="in" in2="c"/><feComposite in="SourceGraphic"/></filter></defs><g transform="translate(-549 -1657)"><g transform="matrix(1, 0, 0, 1, 549, 1657)" filter="url(#b)"><path d="M9.4,0H27.151a9.4,9.4,0,0,1,9.4,9.4V27.151a9.4,9.4,0,0,1-9.4,9.4H9.4a9.4,9.4,0,0,1-9.4-9.4V9.4A9.4,9.4,0,0,1,9.4,0Z" transform="translate(9 7)" fill="url(#a)"/></g><g transform="translate(555.272 1662)"><g transform="translate(7.728 6)"><path d="M33.991,19.453a2.13,2.13,0,0,1-1.268,1.024l-5.067,1.489a2.155,2.155,0,0,1-1.507-.119l-2.87-1.34-1.03,1.256,2.8.339a2.146,2.146,0,0,1,.941.345l4.7,3.174a2.132,2.132,0,0,1-1.191,3.9,2.187,2.187,0,0,1-1.191-.363l-4.275-2.888-3.99-.476-2.793,3.037a2.139,2.139,0,0,1-2.233.584L9.19,27.492a2.129,2.129,0,1,1,1.334-4.043l4.531,1.489.572-.625a2.444,2.444,0,0,1,.327-2.56l2.769-3.376-1.042-.482-3.8,1.542a2.13,2.13,0,1,1-1.6-3.948l4.656-1.894a2.158,2.158,0,0,1,1.709.042l8.581,4.013,4.293-1.262a2.14,2.14,0,0,1,2.644,1.447A2.1,2.1,0,0,1,33.991,19.453Z" transform="translate(-7.728 -9.009)" fill="#fff"/><path d="M35.066,12.389A3.195,3.195,0,1,0,31.874,9.2,3.2,3.2,0,0,0,35.066,12.389Z" transform="translate(-17.496 -6)" fill="#fff"/><path d="M30.4,46.227H28.482v-7.9a.6.6,0,1,0-1.191,0v7.9H25.38a.6.6,0,1,0,0,1.191H30.4a.6.6,0,1,0,0-1.191Z" transform="translate(-14.628 -18.836)" fill="#fff"/></g></g></g></svg>