<svg xmlns="http://www.w3.org/2000/svg" width="37.401" height="34" viewBox="0 0 37.401 34"><g transform="translate(0.003 0.056)"><g transform="translate(-0.003 -0.056)"><path d="M7.634-.018A1.766,1.766,0,0,0,6.112.743,1,1,0,0,0,6.166,2.02q-1.08.1-.91-1.155A4.075,4.075,0,0,0,3.579,2.319a6.466,6.466,0,0,0-.591,1.433,4.925,4.925,0,0,0-.1,1.291q.034.679.346,2.832A5.393,5.393,0,0,0,5.4,11.441a4.707,4.707,0,0,0,2.445.978,4.9,4.9,0,0,0,2.513-.312A5.23,5.23,0,0,0,12.4,10.639a5.115,5.115,0,0,0,1.121-2.411q.068-.591.143-1.5.034-1.08.1-1.678-.034-.312-.068-.523a3.05,3.05,0,0,0-.177-.768,4.5,4.5,0,0,0-.346-.91,7.512,7.512,0,0,0-1.746-1.78A5.04,5.04,0,0,0,7.634-.018m4.721,6.534a4.442,4.442,0,0,1-.278,2.343,3.858,3.858,0,0,1-1.433,1.78,3.94,3.94,0,0,1-2.235.591,3.539,3.539,0,0,1-2.167-.91A4.388,4.388,0,0,1,4.8,8.133q-.387-1.358-.143-1.4a3.07,3.07,0,0,0,.455.068q.177,0,.523.034.068,0,.768-.143.143-1.644,1.257-1.854a1.82,1.82,0,0,0,0,2.1l.068.1q2.167-3.878,3.7-2.513a3.172,3.172,0,0,1,.91,2.038m18.115-5.4A6.528,6.528,0,0,0,25.593.573,4.218,4.218,0,0,0,22.482,3.29a7.1,7.1,0,0,0-.455,1.569q-.1.523-.278,1.569a.482.482,0,0,1-.1.245.815.815,0,0,1-.211.143l-.944.312q-.523.211-.91.387A3.4,3.4,0,0,0,18.148,9.05a3.029,3.029,0,0,0-.245,2.038,2.432,2.432,0,0,0,.876,1.358,2.316,2.316,0,0,0,1.467.523,6.643,6.643,0,0,1,.211-2.588,5.434,5.434,0,0,1,1.277-2.3,6.792,6.792,0,0,0,2.038,3.525,5.169,5.169,0,0,0,2.038,1.155q-1.291.421-1.433.489a1.359,1.359,0,0,0-.245.177q-.312.346-.734.876l-.679.876-3.777,4.544a1.555,1.555,0,0,0-1.121-.211,4.551,4.551,0,0,1-.489.177l-1.99-2.479q-2.364-2.805-3.118-3.648a.625.625,0,0,0-.177-.177,10.189,10.189,0,0,0-1.82-.421A8.022,8.022,0,0,0,6.982,13a14.373,14.373,0,0,0-1.678.421.441.441,0,0,0-.211.1Q4.176,14.545,2.6,16.284,1.167,17.867.468,18.6q-.557.455-.455.8-.136,1.678,2.024,1.3l2.717-2.377v8.035a.842.842,0,0,0,.034.346.639.639,0,0,0,.387.068h.557v6.392q-.387.034-.591.034v.679H8.15v-7.1H9.23v7.166h2.717q.211,0,.245-.1a.469.469,0,0,0,.034-.245.577.577,0,0,0-.034-.278q-.034-.143-.245-.1a.34.34,0,0,1-.312-.068.408.408,0,0,1-.068-.278v-5.78l.034-.312h.835q.211.034.278-.068a.811.811,0,0,0,.1-.312q-.034-1.257-.034-7.472a3.034,3.034,0,0,1,.034-.387.1.1,0,0,1,.068.034h.02q.557.632,1.746,1.814,1.046,1.08,1.746,1.854l.034.034a1.759,1.759,0,0,0,.679,1.012,1.433,1.433,0,0,0,.8.312,1.5,1.5,0,0,0,.835-.1,1.474,1.474,0,0,0,.679-.489,1.651,1.651,0,0,0,.346-.768,1.155,1.155,0,0,0,.034-.278q.944-1.121,3.213-3.7.211-.211.978-1.08.211,1.814.245,1.99a.8.8,0,0,1-.068.278L20.539,25.63l-.557,1.012H24.56a.408.408,0,0,1,.278.068.312.312,0,0,1,.1.278v6.045l-.679.068v.679H27.2V27.4q0-.557.1-.632a1.8,1.8,0,0,1,.679-.1.278.278,0,0,1,.346.346v6.792h2.934v-.679l-.177-.034q-.346,0-.387-.068a1.068,1.068,0,0,1-.068-.346V27.023a.278.278,0,0,1,.346-.346h3.111l.346-.034a1.1,1.1,0,0,1-.1-.245q-1.08-2.133-1.644-3.179L31.04,20.006a2.615,2.615,0,0,1-.278-.734,2.133,2.133,0,0,1,0-.768q.034-.346.068-.835t.034-.835q.312.346.679.768.211.278.632.8,1.189,1.61,1.78,2.377a1.182,1.182,0,0,0,1.257.1.994.994,0,0,0,.489-1.4l-.679-1.046q-2.038-2.717-3.668-5a.55.55,0,0,0-.211-.143q-.1-.068-1.467-.557a5.509,5.509,0,0,0,1.569-.808,7.1,7.1,0,0,0,2.235-3.4,7.777,7.777,0,0,1,.876,2.133,6.473,6.473,0,0,1,.211,2.309,3.03,3.03,0,0,0,.421-.034,1.657,1.657,0,0,0,.387-.034,4.551,4.551,0,0,0,1.08-.346,1.868,1.868,0,0,0,.768-.876q.1-.312.177-.489v-.74a1158185855148.142,1158185855148.142,0,0,1-.068-.2A4.952,4.952,0,0,0,35.8,7.739a4.551,4.551,0,0,0-1.922-1.08.442.442,0,0,1-.211-.1.285.285,0,0,1-.068-.211q-.034-.177-.068-.421a1.563,1.563,0,0,0-.068-.387,5.964,5.964,0,0,0-3-4.368M27.1,5.708a2.717,2.717,0,0,0,.312-.455L27.76,4.8V6.265a1.094,1.094,0,0,0,.1.632q.068.1.591.068.679,0,1.576-.034l1.535-.1a.679.679,0,0,1,.312.034.475.475,0,0,1,.068.312,4.245,4.245,0,0,1-.768,2.377,4.565,4.565,0,0,1-2.1,1.569,4.075,4.075,0,0,1-2.377.143A4.347,4.347,0,0,1,23.378,7.42a.312.312,0,0,1,0-.211.319.319,0,0,1,.177-.177,2.6,2.6,0,0,0,.679-.591,7.472,7.472,0,0,0,.455-.768.815.815,0,0,0,.143-.211s0-.048.068-.068a1.651,1.651,0,0,1,.346.679,2.9,2.9,0,0,1,.1.734q.034.143.1.387a.6.6,0,0,1,.245-.034q.177-.034.211-.1A16.535,16.535,0,0,0,27.1,5.708Z" transform="translate(0.003 0.056)"/></g></g></svg>