<svg xmlns="http://www.w3.org/2000/svg" xmlns:xlink="http://www.w3.org/1999/xlink" width="54.55" height="54.55" viewBox="0 0 54.55 54.55"><defs><linearGradient id="a" x1="0.5" x2="0.5" y2="1" gradientUnits="objectBoundingBox"><stop offset="0" stop-color="#ff006c"/><stop offset="1" stop-color="#c90055"/></linearGradient><filter id="b" x="0" y="0" width="54.55" height="54.55" filterUnits="userSpaceOnUse"><feOffset dy="2" input="SourceAlpha"/><feGaussianBlur stdDeviation="3" result="c"/><feFlood flood-color="#dbe3ff"/><feComposite operator="in" in2="c"/><feComposite in="SourceGraphic"/></filter></defs><g transform="translate(-775 -1967)"><g transform="matrix(1, 0, 0, 1, 775, 1967)" filter="url(#b)"><path d="M9.4,0H27.151a9.4,9.4,0,0,1,9.4,9.4V27.151a9.4,9.4,0,0,1-9.4,9.4H9.4a9.4,9.4,0,0,1-9.4-9.4V9.4A9.4,9.4,0,0,1,9.4,0Z" transform="translate(9 7)" fill="url(#a)"/></g><g transform="translate(785.947 1968.938)"><g transform="translate(1.053 13.062)"><path d="M31.324,22.471c-.247-.148-.148-.741-.643-.643.1-.544-.445-.643-.643-.988A1.721,1.721,0,0,0,29.5,20.2c-.3-.247-.494.2-.84.2.247-.544.2-.89-.4-1.087a.779.779,0,0,1-.346-.346A16.342,16.342,0,0,0,24.7,16.046a23.4,23.4,0,0,0-4.251-2.619,2.481,2.481,0,0,0-2.669.049,3.372,3.372,0,0,1-2.916.247c-.247-.1-.544-.148-.84-.247a3.131,3.131,0,0,0-2.57.247A14.584,14.584,0,0,0,7.8,16.343c-1.137,1.186-2.471,2.175-3.608,3.41a7.094,7.094,0,0,1-1.631,1.582c-.4.247-.3.544,0,.988-.445-.148-.643-.1-.741.3a.994.994,0,0,1-.445.544c-.346.049-.346.2-.3.4a.682.682,0,0,0,.643.494c.4.049.1-.346.3-.4.2.049.3.247.4.4A1.085,1.085,0,0,0,3.4,24.4a.352.352,0,0,0,.3-.148c.049-.1-.049-.2-.148-.3-.148-.148-.4-.2-.445-.494a1.982,1.982,0,0,1,1.137.643c.1.1.247.3.4.2.247-.1.1-.3.1-.494v-.148c.346.791.89.593,1.483.494,1.631-.3,2.916-1.433,4.6-1.532.2,0,.346-.2.494-.346a2.27,2.27,0,0,1,1.087-.544,3.908,3.908,0,0,0,1.433-.544.818.818,0,0,1,.939,0,2.841,2.841,0,0,0,2.669.1,1.65,1.65,0,0,1,1.285-.049,10.691,10.691,0,0,0,2.817.692,1.4,1.4,0,0,1,.791.3A12.113,12.113,0,0,0,26.974,24c.791.148,1.73.494,2.521-.247h.148a1.673,1.673,0,0,0-.148.4,4.187,4.187,0,0,0,1.73-.741C31.571,23.015,31.818,22.768,31.324,22.471ZM7.452,19.259c.692.84.89,2.026,2.125,2.57C8.49,22.076,7.452,20.742,7.452,19.259Zm7.858,1.236c-.791-.988-.643-4.646.2-5.634A14.3,14.3,0,0,0,15.31,20.494Zm2.274-.692c0-.692.346-1.384.346-2.076C17.979,18.468,18.177,19.16,17.584,19.8Zm4.1-3.509v.049c-.346,1.038-1.285,1.73-1.73,2.768a1.9,1.9,0,0,1,.593-1.433,2.168,2.168,0,0,0,.84-1.433c0-.148.1-.4.3-.346C21.884,15.9,21.686,16.145,21.686,16.293ZM24.652,19.6a1.514,1.514,0,0,1,.791-1.334A3.548,3.548,0,0,1,24.652,19.6Zm1.68,3.064c-.1.049-.2.1-.3,0s0-.2.049-.247c.3-.247.593-.445.89-.692.049.049.049.1.1.1A2.338,2.338,0,0,1,26.332,22.669Z" transform="translate(-1.053 -13.062)" fill="#fff"/><path d="M30.531,35.026c-.148-.1-.247,0-.247.148a3.337,3.337,0,0,0,.1.692c0,.346.247.741-.148,1.137-.346-.593-.247-1.236-.593-1.779-.2.1,0,.445-.346.445-.3-.4-.148-1.087-.791-1.334,0,.692.494,1.236.3,2.026-.494-.939-.4-2.026-1.384-2.619-.049,1.087.89,1.878.692,2.965a2.649,2.649,0,0,1-.247-.544c-.3-.741-.544-1.483-.84-2.175-.692-1.68-1.878-1.928-3.213-.741a3.918,3.918,0,0,1-2.521,1.087c-.89.049-.939.049-.988.988,0,.593.049,1.186.1,1.779,0,.148.1.3-.1.4a.257.257,0,0,1-.1-.2,4.636,4.636,0,0,1-.247-2.175c.049-.2.1-.643-.2-.494-.544.3-.988-.049-1.483.049a3.6,3.6,0,0,1-3.262-.84,1.815,1.815,0,0,0-2.076-.544,4.063,4.063,0,0,0-1.928.89.4.4,0,0,1-.494.2c-.4-.3-.593-.049-.89.148a2.354,2.354,0,0,1-1.68.692.376.376,0,0,0-.4.3,1.293,1.293,0,0,1-.445.89c-.148.1-.1.247,0,.4A6.863,6.863,0,0,0,9.279,38.93c.494.247.791.148.89-.4a1.09,1.09,0,0,1,.3-.741c.247.3.1.643,0,.939a1.454,1.454,0,0,0,.544,1.68,2.825,2.825,0,0,0,1.483.741,3.728,3.728,0,0,1,1.433.445,7.287,7.287,0,0,0,4.053,1.137,15.8,15.8,0,0,0,12.06-4.448c.643-.544,1.087-1.285,1.878-1.631.247-.1.2-.3.1-.494C31.816,35.52,31.125,35.372,30.531,35.026Zm-15.816,5.14c-.593-.89-.3-3.657.445-4.3A19.8,19.8,0,0,0,14.716,40.166Zm.643-1.038A4.469,4.469,0,0,1,15.8,36.36,8.548,8.548,0,0,1,15.358,39.128Zm1.236,1.087a6.022,6.022,0,0,1,0-2.817A6.022,6.022,0,0,1,16.594,40.215Zm1.236-1.532a1.879,1.879,0,0,1,0-1.631C17.632,37.547,18.422,38.041,17.829,38.683Zm8.8-.643c-.4-.494-.2-1.236-.741-1.73a2.141,2.141,0,0,1-.741-1.68C25.836,35.718,26.973,36.558,26.627,38.041Z" transform="translate(-4.066 -22.898)" fill="#fff"/></g></g></g></svg>