<svg xmlns="http://www.w3.org/2000/svg" width="32" height="32" viewBox="0 0 32 32"><g transform="translate(-24 -675)"><rect width="32" height="32" rx="16" transform="translate(24 675)" fill="rgba(168,92,255,0.1)"/><g transform="translate(29.284 680.957)"><path d="M15.438,18.5H6.651a.551.551,0,0,1-.549-.546,2.743,2.743,0,0,1,2.744-2.744h.549V12.79a6.007,6.007,0,0,1-3.072-2.047,3.9,3.9,0,0,1-.767.077A3.844,3.844,0,0,1,1.716,6.978V4.787a.548.548,0,0,1,.549-.549H5.009V2.592a.548.548,0,0,1,.549-.549H16.533a.547.547,0,0,1,.546.549V4.237h2.74a.548.548,0,0,1,.553.549V6.978a3.846,3.846,0,0,1-3.839,3.843,3.9,3.9,0,0,1-.767-.077,6.038,6.038,0,0,1-3.079,2.047v2.422h.549a2.747,2.747,0,0,1,2.737,2.62.5.5,0,0,1,.017.124A.55.55,0,0,1,15.438,18.5ZM7.294,17.4h7.491a1.641,1.641,0,0,0-1.548-1.1h-1.1a.547.547,0,0,1-.546-.549v-3.4a.549.549,0,0,1,.439-.539,4.923,4.923,0,0,0,3.062-2.013.545.545,0,0,1,.616-.208,2.748,2.748,0,0,0,3.564-2.62V5.333H16.53a.553.553,0,0,1-.553-.549V3.138H6.1V4.787a.552.552,0,0,1-.549.549H2.811V6.981A2.745,2.745,0,0,0,5.555,9.725,2.839,2.839,0,0,0,6.379,9.6a.537.537,0,0,1,.613.2,4.937,4.937,0,0,0,3.062,2.013.549.549,0,0,1,.439.539v3.4a.548.548,0,0,1-.549.549h-1.1A1.653,1.653,0,0,0,7.294,17.4ZM5.475,8.592a1.431,1.431,0,0,1-1.42-1.437V6.361h1.42v.794a3.939,3.939,0,0,0,.258,1.414,1.1,1.1,0,0,1-.258.023m11.139,0a1.072,1.072,0,0,1-.258-.023,3.952,3.952,0,0,0,.258-1.414V6.361h1.417v.794a1.428,1.428,0,0,1-1.417,1.437M15.25,4.787v-.5H6.9v.5c0,.067-.04.111-.06.171H15.25Z" transform="translate(0 0)" fill="#a85cff"/></g></g></svg>