<svg width="350" height="264" viewBox="0 0 350 264" fill="none" xmlns="http://www.w3.org/2000/svg">
<g opacity="0.1">
<mask id="mask0_59_1186" style="mask-type:alpha" maskUnits="userSpaceOnUse" x="0" y="0" width="350" height="264">
<rect x="348.923" y="2.59028" width="260.677" height="346.936" transform="rotate(90.2847 348.923 2.59028)" fill="url(#paint0_linear_59_1186)" stroke="#6246E5"/>
</mask>
<g mask="url(#mask0_59_1186)">
<path d="M171.292 330.106C121.112 329.856 80.6343 288.917 80.884 238.664C81.1338 188.411 122.017 147.876 172.197 148.126C222.377 148.375 262.855 189.314 262.605 239.567C262.355 289.82 221.473 330.355 171.292 330.106Z" stroke="#6246E5"/>
<path d="M180.891 333.764C124.736 333.485 79.4384 287.671 79.7178 231.435C79.9973 175.198 125.748 129.837 181.903 130.116C238.059 130.395 283.356 176.209 283.077 232.445C282.797 288.682 237.047 334.043 180.891 333.764Z" stroke="#6246E5"/>
<path d="M188.687 337.415C127.22 337.109 77.6383 286.962 77.9442 225.407C78.2501 163.852 128.328 114.2 189.795 114.505C251.261 114.811 300.843 164.958 300.537 226.513C300.231 288.069 250.153 337.72 188.687 337.415Z" stroke="#6246E5"/>
<path d="M200.095 339.879C133.981 339.551 80.6507 285.612 80.9798 219.403C81.3088 153.194 135.173 99.7879 201.287 100.116C267.401 100.445 320.731 154.383 320.402 220.593C320.073 286.802 266.209 340.208 200.095 339.879Z" stroke="#6246E5"/>
<path d="M211.203 342.342C140.607 341.991 83.662 284.397 84.0134 213.7C84.3647 143.002 141.88 85.9768 212.475 86.3276C283.07 86.6784 340.016 144.273 339.664 214.97C339.313 285.667 281.798 342.693 211.203 342.342Z" stroke="#6246E5"/>
<path d="M223.81 345.415C146.243 345.029 83.6752 281.747 84.0612 204.07C84.4472 126.392 147.641 63.7349 225.208 64.1204C302.774 64.5058 365.343 127.788 364.957 205.465C364.571 283.143 301.376 345.8 223.81 345.415Z" stroke="#6246E5"/>
</g>
</g>
<defs>
<linearGradient id="paint0_linear_59_1186" x1="535.017" y1="11.8545" x2="355.01" y2="352.975" gradientUnits="userSpaceOnUse">
<stop stop-color="#747DEF"/>
<stop offset="1" stop-color="#5E3BE1"/>
</linearGradient>
</defs>
</svg>
