<svg xmlns="http://www.w3.org/2000/svg" width="20.12" height="13.69" viewBox="0 0 20.12 13.69"><g transform="translate(-204.44 -2333)"><path d="M2.149,9.858,8.1,15.813a.735.735,0,0,0,1.04,0l.695-.695a.735.735,0,0,0,0-1.039L5.12,9.338,9.839,4.6a.735.735,0,0,0,0-1.039l-.695-.695a.735.735,0,0,0-1.04,0L2.149,8.818A.735.735,0,0,0,2.149,9.858Z" transform="translate(214.507 2330.353)" fill="#fff"/><path d="M2.149,9.858,8.1,15.813a.735.735,0,0,0,1.04,0l.695-.695a.735.735,0,0,0,0-1.039L5.12,9.338,9.839,4.6a.735.735,0,0,0,0-1.039l-.695-.695a.735.735,0,0,0-1.04,0L2.149,8.818A.735.735,0,0,0,2.149,9.858Z" transform="translate(202.507 2330.662)"/></g></svg>