<svg xmlns="http://www.w3.org/2000/svg" width="32" height="32" viewBox="0 0 32 32"><g transform="translate(-13872 -8359)"><rect width="32" height="32" rx="16" transform="translate(13872 8359)" fill="rgba(0,225,236,0.1)"/><path d="M17.909,21.5H4.829A2.317,2.317,0,0,1,2.5,19.2V12.9a2.317,2.317,0,0,1,2.329-2.3H7.25l3.525-7.806a.5.5,0,0,1,.456-.294,3.226,3.226,0,0,1,3.244,3.2V8.8h4.673a2.339,2.339,0,0,1,1.778.788,2.276,2.276,0,0,1,.548,1.859l-1.262,8.1A2.331,2.331,0,0,1,17.909,21.5Zm-9.836-1h9.836a1.326,1.326,0,0,0,1.314-1.106l1.262-8.1a1.278,1.278,0,0,0-.309-1.043,1.339,1.339,0,0,0-1.021-.45H13.974a.5.5,0,0,1-.5-.5V5.7a2.218,2.218,0,0,0-1.93-2.179L8.073,11.208ZM4.829,11.6A1.316,1.316,0,0,0,3.5,12.9v6.3a1.316,1.316,0,0,0,1.329,1.3H7.073V11.6Z" transform="translate(13876.5 8362.5)" fill="#33c085"/></g></svg>