<svg xmlns="http://www.w3.org/2000/svg" width="396.098" height="344.095" viewBox="0 0 396.098 344.095"><ellipse cx="45.522" cy="11.066" rx="45.522" ry="11.066" transform="translate(19.932 321.963)" fill="#e2e7ef"/><g transform="translate(100.866 47.331)"><rect width="225.235" height="199.132" rx="16.152" transform="translate(4.48 3.821)" fill="#bed3df"/><rect width="225.235" height="199.132" rx="16.152" fill="#eee"/></g><g transform="translate(156.362 224.657)"><path d="M0,0H125.448a19.989,19.989,0,0,1,19.989,19.989V92.946a0,0,0,0,1,0,0H0a0,0,0,0,1,0,0V0A0,0,0,0,1,0,0Z" transform="translate(14.253)" fill="#016bed"/><path d="M15.049,0h0a14.47,14.47,0,0,1,14.47,14.47V92.937a0,0,0,0,1,0,0H0a0,0,0,0,1,0,0V15.049A15.049,15.049,0,0,1,15.049,0Z" transform="translate(0 0.048)" fill="#1fa8ff"/><path d="M0,0H90.867A17.129,17.129,0,0,1,108,17.129V64.4a0,0,0,0,1,0,0H0a0,0,0,0,1,0,0V0A0,0,0,0,1,0,0Z" transform="translate(78.185 28.542)" fill="#0067ce"/><path d="M0,0H33.283A13.074,13.074,0,0,1,46.356,13.074V24.151a0,0,0,0,1,0,0H0a0,0,0,0,1,0,0V0A0,0,0,0,1,0,0Z" transform="translate(167.077 68.795)" fill="#0063b5"/><path d="M15.021,0h0a14.5,14.5,0,0,1,14.5,14.5V64.637a0,0,0,0,1,0,0H0a0,0,0,0,1,0,0V15.021A15.021,15.021,0,0,1,15.021,0Z" transform="translate(65.388 28.462)" fill="#1fa8ff"/><path d="M14.759,0h0A14.759,14.759,0,0,1,29.519,14.759v9.51a0,0,0,0,1,0,0H0a0,0,0,0,1,0,0v-9.51A14.759,14.759,0,0,1,14.759,0Z" transform="translate(154.219 68.834)" fill="#1fa8ff"/></g><g transform="translate(300.99 20.679)"><path d="M770.721,268.412V385.648a4.727,4.727,0,0,1-4.732,4.732h-60.2a4.733,4.733,0,0,1-4.732-4.732V268.412a4.733,4.733,0,0,1,4.732-4.732h60.2A4.728,4.728,0,0,1,770.721,268.412Z" transform="translate(-698.476 -261.544)" fill="#9da2a8"/><path d="M765.534,264.12V381.355a4.727,4.727,0,0,1-4.732,4.732H700.6a4.733,4.733,0,0,1-4.732-4.732V264.12a4.733,4.733,0,0,1,4.732-4.732h60.2A4.727,4.727,0,0,1,765.534,264.12Z" transform="translate(-695.87 -259.388)" fill="#e9e9e9"/><ellipse cx="10.74" cy="10.472" rx="10.74" ry="10.472" transform="translate(24.095 17.493)" fill="#fff"/><rect width="47.847" height="9.952" rx="3.81" transform="translate(10.912 50.709)" fill="#fff"/><rect width="47.847" height="9.952" rx="3.662" transform="translate(10.912 70.252)" fill="#fff"/></g><g transform="translate(83.511 74.141)"><path d="M394.355,375.7v84.423a5.033,5.033,0,0,1-5.034,5.034H268.556a5.034,5.034,0,0,1-5.035-5.034V375.7a5.039,5.039,0,0,1,5.035-5.035H389.321A5.034,5.034,0,0,1,394.355,375.7Z" transform="translate(-261.184 -368.755)" fill="#8da1d2"/><path d="M389.658,371.86v84.423a5.035,5.035,0,0,1-5.035,5.035H263.858a5.034,5.034,0,0,1-5.034-5.035V371.86a5.039,5.039,0,0,1,5.034-5.035H384.623A5.034,5.034,0,0,1,389.658,371.86Z" transform="translate(-258.824 -366.825)" fill="#37d2a1"/><ellipse cx="14.729" cy="14.92" rx="14.729" ry="14.92" transform="translate(12.624 9.949)" fill="#fff"/><rect width="63.888" height="27.101" transform="translate(52.411 11.129)" fill="#fff"/><rect width="105.588" height="8.333" transform="translate(11.477 50.966)" fill="#fff"/><rect width="105.588" height="7.762" transform="translate(11.105 73.842)" fill="#fff"/></g><g transform="translate(36.65 106.81)"><path d="M166.889,858.531s-3.19,9.523-1.952,11.566,27.518,5.6,27.5,3.014S178.012,865.47,175.98,859.8Z" transform="translate(-164.652 -646.522)" fill="#f1472e"/><path d="M229.907,867.422s-1.649,9.406-.194,11.152,26.668,1.358,26.28-1.066-14.643-5.14-17.359-10.183Z" transform="translate(-197.036 -650.94)" fill="#f1472e"/><path d="M167.262,860.7s9.337.53,10.265-1.062-9.021-3.07-9.021-3.07Z" transform="translate(-165.963 -645.537)" fill="#b33e1a"/><path d="M229.688,869.023s9.026-.609,9.955-2.2-9.115-3.287-9.115-3.287Z" transform="translate(-197.325 -649.036)" fill="#b33e1a"/><path d="M169.662,658.3c-.9,6.206,1.669,28.086,7.159,47.821L166.04,757.551c3.629,2.071,7.871,2.693,12.5,2.4l14.891-44.672,8.419-23.445-4.95-33.411Z" transform="translate(-165.349 -545.927)" fill="#7265ac"/><path d="M231.9,703.538c-.864-9.17-7.16-47.535-7.16-47.535l-25.392,3.557a75.673,75.673,0,0,0,.5,11.909,103.6,103.6,0,0,0,7.433,28.794q.914,2.2,1.992,4.422l4.585,56.7a18.528,18.528,0,0,0,12.027,0S232.754,712.7,231.9,703.538Z" transform="translate(-182.055 -544.774)" fill="#7265ac"/><path d="M200.779,727.569c-.082-.018-19.74-45.361-19.74-45.361,2.673,1.975,7.536,3.687,9.5,3.091C191.361,692.8,197.795,716.516,200.779,727.569Z" transform="translate(-172.885 -557.939)" fill="#5d469b"/><path d="M222.855,468.288c-2.249,3.218-10.874,1.721-10.874,1.721l-.467,3.4-.554,4.092-10.77-2.621s-.484-22.665,4.334-28.937,13.833-3.218,16.246.8S225.1,465.079,222.855,468.288Z" transform="translate(-182.499 -437.44)" fill="#f5cabc"/><path d="M216.969,443.069s-4.985.8-6.11,2.894-1.166,7-1.166,7l-2.079-.367s-1.257-7.754-3.83-5.02,1.769,6.27,0,10.129-8.682,8.844-8.682,8.844-1.608-7.557-3.055-12.22-3.537-14.792,1.608-16.722a9.771,9.771,0,0,1,11.094-4.823c7.879,1.768,13.64,3.324,14.6,4.771S216.969,443.069,216.969,443.069Z" transform="translate(-177.575 -432.477)" fill="#0d0e11"/><path d="M195.316,509.68l1.16-2.965a89.382,89.382,0,0,1,13.148,2.578l.387,3.094C205.31,511.7,200.4,510.9,195.316,509.68Z" transform="translate(-180.057 -469.773)" fill="#d6e8e5"/><path d="M211.061,583.491c-12.537,5.35-26.356,5.75-41.185,1.155.146-2.129,4.813-11.036,3.229-23.663s-2.474-30.441,1.128-39.229,8.3-9.089,8.3-9.089l14.7,2.711c4.731,3.321,5.431,6.3,6.769,10.653.409,1.337,1.41,9.416,2.538,19.114,1.065,9.079,2.238,19.6,3.13,27.357C210.333,578.278,210.852,582.518,211.061,583.491Z" transform="translate(-167.276 -472.763)" fill="#fff"/><path d="M304.014,534.6s2.95-4.741,3.583-5.8,6.744-7.587,8.008-7.8-2,4.32-2.74,5.584c0,0,3.056.843,3.793,2.424s-1.264,3.688-3.582,5.9a42.489,42.489,0,0,1-4.426,3.688Z" transform="translate(-234.666 -476.952)" fill="#f5cabc"/><path d="M221.042,520.512c-4.127.759-6.666,5.411-3.3,17.18s10.748,28.79,18.407,28.79,28.788-27.714,28.788-27.714a27.58,27.58,0,0,0-5.745-5s-15.274,10.652-19.944,16.63C239.243,550.394,229.254,519,221.042,520.512Z" transform="translate(-190.54 -476.678)" fill="#e6f4f3"/><path d="M219.384,496.445l-.467,3.4-4.005-4.87Z" transform="translate(-189.902 -463.875)" fill="#e7bbb0"/></g><g transform="translate(219.915 112.455)"><path d="M649.882,581.972l2.348,6.393,24.787,14.089-2.74,5.088s-27-10.958-30.788-14.089-4.827-10.567-4.827-10.567Z" transform="translate(-586.055 -513.227)" fill="#f5cabc"/><path d="M649.253,551.721a59.133,59.133,0,0,0-13.109,5.759c-.209-.427-.418-.873-.628-1.346a60.493,60.493,0,0,1-2.211-6.014c1.929-6.214,3.994-14.62,4.258-21.143.127-3.266-.191-6.05-1.192-7.87a3.7,3.7,0,0,0-.728-.891V520.2C641.675,524.828,647.68,542.35,649.253,551.721Z" transform="translate(-583.364 -482.192)" fill="#d5e2e1"/><path d="M637.117,550.2c-.81,7.961-1.365,12.764-1.6,14.793a60.493,60.493,0,0,1-2.211-6.014c1.929-6.214,3.994-14.62,4.258-21.143C637.727,539.4,637.863,542.935,637.117,550.2Z" transform="translate(-583.364 -491.056)" fill="#d6e8e5"/><path d="M746.806,787.424c.455,2.866-29.3,3.321-31.023,1.255-.964-1.155-.764-5.177-.41-8.47.273-2.566.646-4.685.646-4.685l10.3-.118a7.068,7.068,0,0,0,1.31,1.674C732.668,781.983,746.4,784.849,746.806,787.424Z" transform="translate(-624.447 -610.406)" fill="#f1472e"/><path d="M727.924,777.08l-12.255,3.129c.273-2.566.646-4.685.646-4.685l10.3-.118A7.067,7.067,0,0,0,727.924,777.08Z" transform="translate(-624.743 -610.406)" fill="#b33e1a"/><path d="M664.954,836.509s-1.946,11.1-.229,13.162,31.475,1.6,31.017-1.259-17.282-6.066-20.488-12.018" transform="translate(-598.793 -641.046)" fill="#f1472e"/><path d="M676.871,838.147l-12.255,3.13c.273-2.566.646-4.685.646-4.685l10.3-.118A7.052,7.052,0,0,0,676.871,838.147Z" transform="translate(-599.094 -641.086)" fill="#b33e1a"/><path d="M614.716,744.884l-13.738.746-24.937-51.757c-14.465-7.442-27.92-24.664-33.67-32.7-1.874-2.629-2.929-4.267-2.929-4.267l31.587-5.149.064.064c1.383,1.392,25.646,25.819,29.9,33.279C605.391,692.781,614.716,744.884,614.716,744.884Z" transform="translate(-536.208 -548.288)" fill="#37d2a1"/><path d="M649.75,705.8l-13.619.41s-12.673-35.226-13.892-46.917l-.027.009a90.449,90.449,0,0,1-25.473,1.237A95.735,95.735,0,0,1,558.2,649.071l33.379-13.6s23.754.5,37.728,3.3a31.078,31.078,0,0,1,7.842,2.393,5.117,5.117,0,0,1,1.729,1.347C643.873,649.262,649.75,705.8,649.75,705.8Z" transform="translate(-545.632 -540.104)" fill="#37d2a1"/><path d="M649.022,670.419l-.027.009a90.457,90.457,0,0,1-25.473,1.238L611.512,657.61Z" transform="translate(-572.415 -551.227)" fill="#32b895"/><path d="M671.529,643.737l-44.9-3.148,37.055.755A31.077,31.077,0,0,1,671.529,643.737Z" transform="translate(-580.011 -542.676)" fill="#32b895"/><path d="M571.093,651.824a81.054,81.054,0,0,1-28.721,9.352c-1.874-2.629-2.929-4.267-2.929-4.267l31.587-5.149Z" transform="translate(-536.208 -548.288)" fill="#32b895"/><path d="M660.263,618.088s5.368.213,7.018.846c1.839.705,6.446,4.531,6.446,4.531s.75,2.51-3.431,1.288c-3.9-1.141-5.407-3.081-5.982-2.315s2.766,3.087,1.817,3.452c-2.421.933-7.588-3.062-7.588-3.062" transform="translate(-596.044 -531.372)" fill="#f5cabc"/><g transform="translate(46.619 68.314)"><path d="M655.547,638.9l-28.919-.678.16-2.335,29.993.286" transform="translate(-626.628 -608.63)" fill="#aeb4da"/><path d="M684.744,611.381l12.426-30.274,38.408.9-13.33,29.823Z" transform="translate(-655.825 -581.106)" fill="#aeb4da"/></g><path d="M585.95,516.229a3.7,3.7,0,0,0-.728-.891c-2.11-1.938-6.76-2.893-6.76-2.893l-11.272-1.956s-10.2.564-15.157,4.886c-3.4,2.966-25.364,28.7-17.34,71.171,0,0,31.978.855,44.769-14.529,0,0-.355-15.366,2.684-24.472.236-.728.491-1.492.736-2.3C585.777,535.917,588.961,521.679,585.95,516.229Z" transform="translate(-532.943 -477.315)" fill="#fff"/><path d="M623.8,464.575c-2.2,8.088-4.9,14.118-8.357,12.855-.017-.008-.034-.008-.043-.017a.225.225,0,0,1-.06-.017c-1.583-.493-2.024,1.393-2.077,3.382a24.8,24.8,0,0,0,.268,3.945s1.055,5.909-3.962,6.367c-4.4.4-8.806-3.184-7.777-9.412,0,0,2.059-5.571,2.059-7.959s.138-7.682.138-7.682.735-17.5,10.277-16.177S626.005,456.487,623.8,464.575Z" transform="translate(-567.456 -446.82)" fill="#f5cabc"/><path d="M621.842,458.8s-8.014-3.907-11.559-3.353c0,0-.824,3.278-1.942,4.235s-2.294,4.148-2.294,4.148-1.652-6.68-3.089-4.765.109,5.137-.529,8.647a34.549,34.549,0,0,1-1.5,5.736,104.253,104.253,0,0,0-3.4-11.072c-1.915-4.947-.63-15.027,6.659-14.577,0,0,10.059-8.708,18.9-.36C630.571,454.513,621.842,458.8,621.842,458.8Z" transform="translate(-564.991 -443.822)" fill="#231f20"/><path d="M632.124,585.85" transform="translate(-582.771 -515.175)" fill="#9aa1c8"/><path d="M616.653,597.137s-31.73-8.581-34.611-11.622-6.882-13.764-6.882-13.764l12.483-4.8,4,12.484s24.166,11.683,26.727,12.963Z" transform="translate(-554.152 -505.68)" fill="#f5cabc"/><path d="M569.625,550.735s-9.481-27.009.518-33.645,15.862,25.728,15.862,25.728A62.758,62.758,0,0,0,569.625,550.735Z" transform="translate(-549.329 -480.18)" fill="#d5e2e1"/><path d="M622.715,501.39c-1.583-.493-2.024,1.393-2.077,3.382-1-1.081-4.118-6.86-4.316-7.223A17.38,17.38,0,0,0,622.715,501.39Z" transform="translate(-574.832 -470.814)" fill="#e7bbb0"/><ellipse cx="3.231" cy="2.588" rx="3.231" ry="2.588" transform="matrix(0.828, -0.56, 0.56, 0.828, 99.409, 83.63)" fill="#fff"/></g><circle cx="14.008" cy="14.008" r="14.008" transform="translate(368.081 204.901)" fill="#7265ac"/><circle cx="9.419" cy="9.419" r="9.419" transform="translate(0 253.206)" fill="#37d2a1"/><circle cx="10.385" cy="10.385" r="10.385" transform="translate(203.947)" fill="#1fa7fe"/></svg>