<svg xmlns="http://www.w3.org/2000/svg" width="32" height="32" viewBox="0 0 32 32"><g transform="translate(-24 -828)"><rect width="32" height="32" rx="16" transform="translate(24 828)" fill="rgba(77,106,141,0.1)"/><g transform="translate(28.625 831.375)"><path d="M14.607,18.049a.6.6,0,0,0-.6.6.768.768,0,0,1-.766.766H5.332a.768.768,0,0,1-.766-.766V7.582a.768.768,0,0,1,.766-.766h7.914a.768.768,0,0,1,.766.766.6.6,0,1,0,1.191,0,1.957,1.957,0,0,0-1.957-1.957H5.332A1.957,1.957,0,0,0,3.375,7.582V18.644A1.957,1.957,0,0,0,5.332,20.6h7.914A1.957,1.957,0,0,0,15.2,18.644.6.6,0,0,0,14.607,18.049Z" fill="#4d6a8d"/><path d="M19.975,11a.592.592,0,0,0-.421-.174.582.582,0,0,0-.421.174.593.593,0,0,0,0,.842l2.774,2.732H11a.6.6,0,0,0,0,1.191H21.919L19.213,18.5a.6.6,0,0,0,0,.842l0,0a.615.615,0,0,0,.417.166.575.575,0,0,0,.421-.174l3.514-3.506a.836.836,0,0,0,0-1.242Z" transform="translate(-2.777 -2.055)" fill="#4d6a8d"/></g></g></svg>