<svg xmlns="http://www.w3.org/2000/svg" xmlns:xlink="http://www.w3.org/1999/xlink" width="54.55" height="54.55" viewBox="0 0 54.55 54.55"><defs><linearGradient id="a" x1="0.5" x2="0.54" y2="0.768" gradientUnits="objectBoundingBox"><stop offset="0" stop-color="#926fff"/><stop offset="1" stop-color="#5d37fa"/></linearGradient><filter id="b" x="0" y="0" width="54.55" height="54.55" filterUnits="userSpaceOnUse"><feOffset dy="2" input="SourceAlpha"/><feGaussianBlur stdDeviation="3" result="c"/><feFlood flood-color="#dbe3ff"/><feComposite operator="in" in2="c"/><feComposite in="SourceGraphic"/></filter></defs><g transform="translate(-322 -999)"><g transform="translate(331 1006)"><g transform="matrix(1, 0, 0, 1, -9, -7)" filter="url(#b)"><path d="M9.4,0H27.151a9.4,9.4,0,0,1,9.4,9.4V27.151a9.4,9.4,0,0,1-9.4,9.4H9.4a9.4,9.4,0,0,1-9.4-9.4V9.4A9.4,9.4,0,0,1,9.4,0Z" transform="translate(9 7)" fill="url(#a)"/></g></g><g transform="translate(336 1011)"><g transform="translate(0)"><path d="M9.132,25.937a6.42,6.42,0,0,0,1.669.9,12.623,12.623,0,0,0,7.232.3,9.861,9.861,0,0,0,1.437-.464,4.951,4.951,0,0,0,1.275-.788,2.017,2.017,0,0,0,.834-1.669q-.046-.974-.139-2.341-.093-1.576-.139-2.387a21.557,21.557,0,0,1-6.4,1,21.557,21.557,0,0,1-6.4-1q-.255,3.987-.278,4.5A2.234,2.234,0,0,0,8.414,25.1a2.17,2.17,0,0,0,.719.834M8.14,8.437a1.632,1.632,0,0,0-.394.6Q2.276,20.768.19,25.2a1.446,1.446,0,0,0,.093,1.576,1.687,1.687,0,0,0,1.414.742,1.321,1.321,0,0,0,.788-.232,1.6,1.6,0,0,0,.556-.7l7.621-16.272A1.391,1.391,0,0,0,10.5,8.692a1.674,1.674,0,0,0-1.715-.579,1.289,1.289,0,0,0-.626.325m-.116,1.576q.371-.742.417-.858a.779.779,0,0,1,.464-.394.992.992,0,0,1,.626.07,1.279,1.279,0,0,1,.556.44.64.64,0,0,1,.023.6L9.086,12.03q-.348.719-1,2.132L6.448,13.4l1.576-3.384m.783-5.4q-.07-.278-.093-.44L8.136,4.8l-.788-.371.139.858-.765.394L7,5.841a1.085,1.085,0,0,1,.394.278,1.071,1.071,0,0,1-.023.487l-.093.348a2.527,2.527,0,0,1,.3-.116l.232-.116a.427.427,0,0,1,.255-.046.352.352,0,0,1,.185.162l.162.232.255.278a.927.927,0,0,1,.255-.788.872.872,0,0,1,.719-.093.094.094,0,0,0,.07-.046,2.091,2.091,0,0,1-.162-.255l-.185-.232a.269.269,0,0,1-.093-.185.575.575,0,0,1,.116-.209q.07-.07.185-.209t.209-.255a3.2,3.2,0,0,1-.464-.023A.728.728,0,0,1,8.97,4.96a.566.566,0,0,1-.162-.348m13.333,4.8a14.436,14.436,0,0,0-4.149-1.275,19.633,19.633,0,0,0-4.334-.185,9.735,9.735,0,0,0-1.043.07l-1.089.139a2.976,2.976,0,0,1,.464,1.252,2.944,2.944,0,0,1-.209,1.275,1.891,1.891,0,0,0,.325-.046,15.915,15.915,0,0,1,6.027.093,9.332,9.332,0,0,1,1.113.3,5.92,5.92,0,0,1,1.043.487,1.266,1.266,0,0,1,.668,1,1.228,1.228,0,0,1-.719.95,5.2,5.2,0,0,1-1,.464,13.207,13.207,0,0,1-3.662.649,16.369,16.369,0,0,1-3.709-.3,5.563,5.563,0,0,1-.788-.185q-.556-.139-.834-.232L8.507,17.616l.348.139a16.383,16.383,0,0,0,4.5.927,19.29,19.29,0,0,0,3.917-.07,15.558,15.558,0,0,0,3.825-.927,10.662,10.662,0,0,0,1.831-.881,6.736,6.736,0,0,0,1.553-1.3,3.315,3.315,0,0,0,.858-2.04,3.2,3.2,0,0,0-.7-2.086,5.15,5.15,0,0,0-1.113-1.136,8.271,8.271,0,0,0-1.391-.834M14.167,1.646a.464.464,0,0,1-.232-.139l-.927-.7-.028.556v.51a1,1,0,0,1-.093.325.556.556,0,0,1-.232.232,3.245,3.245,0,0,0-.44.278,4.557,4.557,0,0,1-.464.325l.533.255a5.141,5.141,0,0,0,.51.209.881.881,0,0,1,.232.162.436.436,0,0,1,.116.255q.046.209.139.533a5.633,5.633,0,0,1,.185.556,3.607,3.607,0,0,1,.371-.417l.348-.417a.8.8,0,0,1,.255-.209.732.732,0,0,1,.325-.023h1.066q-.209-.325-.3-.487-.162-.278-.255-.464a1.228,1.228,0,0,1-.07-.255.464.464,0,0,1,.023-.255,3.338,3.338,0,0,1,.116-.533l.213-.556q-.394.07-.579.116l-.533.116a.6.6,0,0,1-.278.023M20.24,4.775,19.127,4.2l.394,1.182-1.136.51,1.159.44-.3,1.182,1.066-.626.742,1,.162-1.228h1.159l.07-.093-.927-.7.858-1.02-1.228.116-.236-1.228L20.24,4.775M18.543,0a1.173,1.173,0,0,1-.556.626,1.692,1.692,0,0,1-.834.139,1.242,1.242,0,0,1,.464.719,1.437,1.437,0,0,1-.185.834,1.1,1.1,0,0,1,.811-.209,1.521,1.521,0,0,1,.742.371,1.266,1.266,0,0,1,.093-.834,1.483,1.483,0,0,1,.584-.579A1.391,1.391,0,0,1,18.9.742,1.3,1.3,0,0,1,18.543,0Z" transform="translate(0)" fill="#fff"/></g></g></g></svg>