<svg xmlns="http://www.w3.org/2000/svg" xmlns:xlink="http://www.w3.org/1999/xlink" width="54.55" height="54.55" viewBox="0 0 54.55 54.55"><defs><linearGradient id="a" x1="0.5" x2="0.5" y2="1" gradientUnits="objectBoundingBox"><stop offset="0" stop-color="#ff006c"/><stop offset="1" stop-color="#c90055"/></linearGradient><filter id="b" x="0" y="0" width="54.55" height="54.55" filterUnits="userSpaceOnUse"><feOffset dy="2" input="SourceAlpha"/><feGaussianBlur stdDeviation="3" result="c"/><feFlood flood-color="#dbe3ff"/><feComposite operator="in" in2="c"/><feComposite in="SourceGraphic"/></filter></defs><g transform="translate(-99 -2227)"><g transform="matrix(1, 0, 0, 1, 99, 2227)" filter="url(#b)"><path d="M9.4,0H27.151a9.4,9.4,0,0,1,9.4,9.4V27.151a9.4,9.4,0,0,1-9.4,9.4H9.4a9.4,9.4,0,0,1-9.4-9.4V9.4A9.4,9.4,0,0,1,9.4,0Z" transform="translate(9 7)" fill="url(#a)"/></g><g transform="translate(111.992 2242)"><g transform="translate(-1.906 -1.412)"><g transform="translate(0)"><path d="M25.9,17.817a4.466,4.466,0,0,0,2.514-1.172l-1.464-3.417-2.563,1.1,1.513,3.49m.171.268a.688.688,0,0,0-.293.342.737.737,0,0,0,.073.464l1.538,3.588a.713.713,0,0,0,.342.439.747.747,0,0,0,.537-.073q.488-.2,2.392-1.025a.7.7,0,0,0,.415-.342A.693.693,0,0,0,31,20.99l-1.513-3.563a.815.815,0,0,0-.293-.415.786.786,0,0,0-.513-.049A6.024,6.024,0,0,1,26.07,18.11M25.143,9.03a3.734,3.734,0,0,0-.854.708,3.012,3.012,0,0,0-.561.927,2.611,2.611,0,0,0-.1,1.586,13.994,13.994,0,0,0,.537,1.538l2.538-1.1L25.143,9.03M6.3,18.6l3.417-1.464-1.1-2.563H8.546L5.129,16.035A4.466,4.466,0,0,0,6.3,18.549M4.519,15.962a.737.737,0,0,0-.464.073L.468,17.573a.713.713,0,0,0-.439.342.747.747,0,0,0,.073.537q.2.488,1.025,2.392a.7.7,0,0,0,.342.415.693.693,0,0,0,.513-.073l3.563-1.513a.815.815,0,0,0,.415-.293.786.786,0,0,0,.049-.488,6.024,6.024,0,0,1-1.147-2.636.688.688,0,0,0-.342-.293m5.98.586a1.172,1.172,0,0,0,1.245.244,2.984,2.984,0,0,1,2.123.488q1.4.727,2.343-1.977a1.724,1.724,0,0,1-2.148-.415,2.718,2.718,0,0,0-2.685-1.1,6.985,6.985,0,0,0-1.855.635,4.77,4.77,0,0,0,.976,2.148M25.143,6.687a12.623,12.623,0,0,0-2.685-.049,7.166,7.166,0,0,0-2.612.757,4.481,4.481,0,0,1-1.416.488,2.211,2.211,0,0,1-1.025-.049,6.7,6.7,0,0,1-1-.391q-.659-.293-.927-.391a5.428,5.428,0,0,0-.952-.317,10.187,10.187,0,0,0-4.149,0L8.5,7.151,6.618,7.59l.171.293q.2.268.317.415A15.62,15.62,0,0,0,8.571,9.909l1.611,1.464q.561.464,1.025.781a7.4,7.4,0,0,0,1.147.635,7.649,7.649,0,0,0,4.881.268,3.324,3.324,0,0,1,1.464-.049,13.668,13.668,0,0,0,1.513.268,6.087,6.087,0,0,0,1.342,0,6.4,6.4,0,0,0,1.123-.293q.635-.22.439-.537a1.909,1.909,0,0,1-.2-.976,2.929,2.929,0,0,1,.268-1.464,3.544,3.544,0,0,1,.879-1.147A4.769,4.769,0,0,1,25.338,8.1l1.22,2.319a4.178,4.178,0,0,0,1.586-1.1A7.888,7.888,0,0,0,29.511,7.59l-.171-.049Q28,7.176,27.242,7a17.675,17.675,0,0,0-2.123-.366M12.158,9.47q0-1.708,2.929-.146-1.83,1.513-2.929.146M22.263.244A4.881,4.881,0,0,0,20.725,0a2.753,2.753,0,0,0-1.464.488,2.123,2.123,0,0,1-1.172.488,2.826,2.826,0,0,1-1.22-.488A2.309,2.309,0,0,0,16.063.1,4.393,4.393,0,0,0,14.4.122a4.291,4.291,0,0,0-1.562.61,15.4,15.4,0,0,0-2.148,1.611q-1.416,1.2-3.27,3.026a3.646,3.646,0,0,0-.488.561q-.293.391-.439.561l.073.073h.1a.273.273,0,0,0,.122-.024q1.684-.317,2.758-.586a19.037,19.037,0,0,0,2.709-.879q.244-.073.976-.342a4.266,4.266,0,0,1,1.562-.268,3.324,3.324,0,0,1,1.562.439,1.655,1.655,0,0,0,.244.122l.244.073a2.646,2.646,0,0,0,1.9.073l1.245-.439a3.856,3.856,0,0,1,2.563-.1,11.457,11.457,0,0,1,1.391.464,24.933,24.933,0,0,0,4.54,1.245q.244.049.586.1l.61.073.049-.1q-.415-.488-.635-.708a9.148,9.148,0,0,0-.659-.683q-1.782-1.611-3.978-3.515a5.9,5.9,0,0,0-2.2-1.269Z" transform="translate(-0.008 0)" fill="#fff"/></g></g></g></g></svg>