<svg xmlns="http://www.w3.org/2000/svg" width="32.723" height="37.322" viewBox="0 0 32.723 37.322"><g transform="translate(-608 -234)"><path d="M14.573,7.716h5.514l-.012,5.577L18.184,11.4,16.4,13.185a4.855,4.855,0,1,1-1.69-1.742l1.763-1.786-1.9-1.94ZM9.781,15.567A2.417,2.417,0,1,0,12.2,13.15,2.417,2.417,0,0,0,9.781,15.567Z" transform="translate(620.636 226.284)" fill="#0277ff"/><path d="M14.573,7.716h5.514l-.012,5.577L18.184,11.4,16.4,13.185a4.855,4.855,0,1,1-1.69-1.742l1.763-1.786-1.9-1.94ZM9.781,15.567A2.417,2.417,0,1,0,12.2,13.15,2.417,2.417,0,0,0,9.781,15.567Z" transform="translate(600.636 226.284)" fill="#002b50"/><path d="M16.352,14.318v1.99h2.415v2.415H16.352v2.415H13.9V18.723H11.487V16.308H13.9v-2a4.808,4.808,0,1,1,2.452.007ZM15.12,7.23a2.414,2.414,0,1,0,2.415,2.414A2.414,2.414,0,0,0,15.12,7.23Z" transform="translate(619.708 250.185)" fill="#0277ff"/><path d="M16.352,14.318v1.99h2.415v2.415H16.352v2.415H13.9V18.723H11.487V16.308H13.9v-2a4.808,4.808,0,1,1,2.452.007ZM15.12,7.23a2.414,2.414,0,1,0,2.415,2.414A2.414,2.414,0,0,0,15.12,7.23Z" transform="translate(599.708 250.185)" fill="#002b50"/></g></svg>