<svg xmlns="http://www.w3.org/2000/svg" xmlns:xlink="http://www.w3.org/1999/xlink" width="54.55" height="54.55" viewBox="0 0 54.55 54.55"><defs><linearGradient id="a" x1="0.5" x2="0.54" y2="0.768" gradientUnits="objectBoundingBox"><stop offset="0" stop-color="#926fff"/><stop offset="1" stop-color="#5d37fa"/></linearGradient><filter id="b" x="0" y="0" width="54.55" height="54.55" filterUnits="userSpaceOnUse"><feOffset dy="2" input="SourceAlpha"/><feGaussianBlur stdDeviation="3" result="c"/><feFlood flood-color="#dbe3ff"/><feComposite operator="in" in2="c"/><feComposite in="SourceGraphic"/></filter></defs><g transform="translate(-553 -1068)"><g transform="translate(562 1075)"><g transform="matrix(1, 0, 0, 1, -9, -7)" filter="url(#b)"><path d="M9.4,0H27.151a9.4,9.4,0,0,1,9.4,9.4V27.151a9.4,9.4,0,0,1-9.4,9.4H9.4a9.4,9.4,0,0,1-9.4-9.4V9.4A9.4,9.4,0,0,1,9.4,0Z" transform="translate(9 7)" fill="url(#a)"/></g></g><g transform="translate(-65.455 135.545)"><circle cx="5" cy="5" r="5" transform="translate(634.455 945.455)" fill="#fff"/><circle cx="5" cy="5" r="5" transform="translate(647.455 945.455)" fill="#fff"/><circle cx="5" cy="5" r="5" transform="translate(647.455 959.455)" fill="#fff"/><rect width="12" height="11" rx="3" transform="translate(633.455 958.455)" fill="rgba(255,255,255,0)"/><path d="M3,1A2,2,0,0,0,1,3V8a2,2,0,0,0,2,2H9a2,2,0,0,0,2-2V3A2,2,0,0,0,9,1H3M3,0H9a3,3,0,0,1,3,3V8a3,3,0,0,1-3,3H3A3,3,0,0,1,0,8V3A3,3,0,0,1,3,0Z" transform="translate(633.455 958.455)" fill="#fff"/><path d="M15.194,0V0ZM0,0H0Z" transform="translate(637.474 950.431)" fill="#fff"/><path d="M0,0H0M15.194,0V0M0-1H15.194a1,1,0,0,1,1,1V15.193a1,1,0,0,1-2,0V1H0A1,1,0,0,1-1,0,1,1,0,0,1,0-1Z" transform="translate(637.474 950.431)" fill="#fff"/></g></g></svg>