<svg xmlns="http://www.w3.org/2000/svg" xmlns:xlink="http://www.w3.org/1999/xlink" width="54.55" height="54.55" viewBox="0 0 54.55 54.55"><defs><linearGradient id="a" x1="0.5" x2="0.5" y2="1" gradientUnits="objectBoundingBox"><stop offset="0" stop-color="#ff006c"/><stop offset="1" stop-color="#c90055"/></linearGradient><filter id="b" x="0" y="0" width="54.55" height="54.55" filterUnits="userSpaceOnUse"><feOffset dy="2" input="SourceAlpha"/><feGaussianBlur stdDeviation="3" result="c"/><feFlood flood-color="#dbe3ff"/><feComposite operator="in" in2="c"/><feComposite in="SourceGraphic"/></filter></defs><g transform="translate(-776 -2162)"><g transform="matrix(1, 0, 0, 1, 776, 2162)" filter="url(#b)"><path d="M9.4,0H27.151a9.4,9.4,0,0,1,9.4,9.4V27.151a9.4,9.4,0,0,1-9.4,9.4H9.4a9.4,9.4,0,0,1-9.4-9.4V9.4A9.4,9.4,0,0,1,9.4,0Z" transform="translate(9 7)" fill="url(#a)"/></g><g transform="matrix(0.985, -0.174, 0.174, 0.985, 784.409, 2162.124)"><path d="M30.739,34.422a1.131,1.131,0,0,1-1.516.265,1.268,1.268,0,0,1-.746-1.01c-1.4-1.2-3.44-3.512-3.729-3.512-.409-.024-.962,1.01-1.058,1.9.313,7.265-8.732,8.8-11.571,8.131-6.5-1.54-8.828-8.877-8.828-8.877s-4.186-1.9-3.079-4.33a3.646,3.646,0,0,1,1.2-1.54s2.141,2.526,3.416,2.526C6.106,28,8.9,26.1,8.9,26.1s1.251,2.574,0,3.729S5.937,31.1,6.924,33.316c1.107,2.43,5.22,4.571,6.9,3.392,1.708-1.179,3.2-6.327,5.1-6.567,1.9-.265,1.516-1.107,1.371-1.371-.1-.192-3.7.6-5.773,1.083a1.364,1.364,0,0,1-.674.649,1.022,1.022,0,0,1-1.371-.337,1,1,0,0,1,.7-1.227,1.29,1.29,0,0,1,.986-.048l7.626-3.416c-1.636-.794-4.859,1.275-6.687,1.083-1.9-.192,1.227-.409,2.406-1.612s-.457-.914-.457-.914L13.3,25.137l3.44-2.406-3.921.962s6.351-4.186,7.866-4.907c2.694-1.275,6.23-.072,6.519,2.574-.6.313.505,1.612.505,1.612s-.457.048-.481.12c-.024.1.144.1.12.192-.024.072-.217.072-.265.144-.024.072.241.048.217.12-.1.168,0,.746-.289.746a1.653,1.653,0,0,0-1.227.77c2.213.457,2.5,2.069,1.251,3.3-.529.529,1.01,3.368,2.382,4.5a1.309,1.309,0,0,1,.649.168A1.142,1.142,0,0,1,30.739,34.422Z" transform="translate(-1.449 -1.039)" fill="#fff"/></g></g></svg>