<svg xmlns="http://www.w3.org/2000/svg" xmlns:xlink="http://www.w3.org/1999/xlink" width="54.55" height="54.55" viewBox="0 0 54.55 54.55"><defs><linearGradient id="a" x1="0.5" x2="0.5" y2="1" gradientUnits="objectBoundingBox"><stop offset="0" stop-color="#eaac22"/><stop offset="1" stop-color="#c78c08"/></linearGradient><filter id="b" x="0" y="0" width="54.55" height="54.55" filterUnits="userSpaceOnUse"><feOffset dy="2" input="SourceAlpha"/><feGaussianBlur stdDeviation="3" result="c"/><feFlood flood-color="#dbe3ff"/><feComposite operator="in" in2="c"/><feComposite in="SourceGraphic"/></filter></defs><g transform="translate(-322 -1657)"><g transform="matrix(1, 0, 0, 1, 322, 1657)" filter="url(#b)"><path d="M9.4,0H27.151a9.4,9.4,0,0,1,9.4,9.4V27.151a9.4,9.4,0,0,1-9.4,9.4H9.4a9.4,9.4,0,0,1-9.4-9.4V9.4A9.4,9.4,0,0,1,9.4,0Z" transform="translate(9 7)" fill="url(#a)"/></g><g transform="translate(337.369 1668.253)"><g transform="translate(0.63 -0.254)"><path d="M11.084,23.992a2.222,2.222,0,0,0-1.6,3.787,2.135,2.135,0,0,0,1.565.652,2.1,2.1,0,0,0,1.575-.641,2.2,2.2,0,0,0,0-3.141A2.094,2.094,0,0,0,11.084,24m9.2,0a2.078,2.078,0,0,0-1.539.652,2.119,2.119,0,0,0-.641,1.565,2.155,2.155,0,0,0,.641,1.565,2.119,2.119,0,0,0,1.539.652A2.212,2.212,0,0,0,22.533,26.2a2.109,2.109,0,0,0-.652-1.539,2.232,2.232,0,0,0-1.6-.641m.954-8.631a1.611,1.611,0,0,0-.616-.626,1.539,1.539,0,0,0-.96-.205,1.663,1.663,0,0,0-.883.421,1.468,1.468,0,0,0-.144-.128l-.128-.1a.636.636,0,0,0-.154-.077l-.154-.077a.2.2,0,0,1-.1-.128,2.622,2.622,0,0,0-.954-1.129,2.437,2.437,0,0,0-1.411-.462,2.6,2.6,0,0,0-1.452.436,2.458,2.458,0,0,0-.975,1.155.267.267,0,0,1-.1.128l-.293.18-.318.18a1.606,1.606,0,0,0-.847-.4,1.411,1.411,0,0,0-.924.18,1.6,1.6,0,0,0-.857,1.463H21.409a1.386,1.386,0,0,0-.174-.806m2.2,2.73a.888.888,0,0,0,.036-.318.606.606,0,0,0-.128-.282.513.513,0,0,0-.231-.154.9.9,0,0,0-.282-.036H8.57a.575.575,0,0,0-.616.806l1.488,5.183a3.91,3.91,0,0,1,.693-.293,3.079,3.079,0,0,1,.718-.139,3.3,3.3,0,0,1,1.976.513,3.361,3.361,0,0,1,1.309,1.565.267.267,0,0,0,.077.113.231.231,0,0,0,.139.036H17a.257.257,0,0,0,.154-.036.267.267,0,0,0,.1-.139,3.33,3.33,0,0,1,1.539-1.683A3.146,3.146,0,0,1,21,22.96a3.382,3.382,0,0,1,.472.144l.513.18.282-1.026q.975-3.377,1.2-4.146M19.423,11.85a.405.405,0,0,0,.308.092l1.9-.149a.385.385,0,0,0,.267-.128.426.426,0,0,0-.041-.539.411.411,0,0,0-.267-.118H21.46l-1.837.144a.462.462,0,0,0-.3.139.39.39,0,0,0,.051.549M10.5,6.5,8.79,4.784,0,13.575l1.709,1.745,8.8-8.8m4.66,4.013q.062-.293.087-.488a6.738,6.738,0,0,0-1.1-4.408A15.482,15.482,0,0,0,10.048,1.4,7.035,7.035,0,0,0,6.235-.009a6.158,6.158,0,0,0-.99.026,4.105,4.105,0,0,0-1,.257A27.29,27.29,0,0,1,10.4,4.892,29.081,29.081,0,0,1,15.02,11.05l.113-.539m2.181-2.694a.405.405,0,0,0-.19.221l-.59,1.539a.446.446,0,0,0,0,.349.39.39,0,0,0,.231.221.323.323,0,0,0,.3,0,.513.513,0,0,0,.216-.267l.58-1.473.041-.1a.267.267,0,0,1,0-.1.4.4,0,0,0-.308-.411.349.349,0,0,0-.282.036m-8.37,4.259a.462.462,0,0,0-.3.144.39.39,0,0,0,.051.549A.426.426,0,0,0,9,12.872l1.95-.144a.426.426,0,0,0,.257-.139.349.349,0,0,0,.082-.282.364.364,0,0,0-.113-.257.411.411,0,0,0-.272-.118h-.128l-1.837.139m1.837-3.233a.354.354,0,0,0-.257.144.411.411,0,0,0-.1.257.375.375,0,0,0,.1.257q.759.718,1.437,1.283a.3.3,0,0,0,.195.051.513.513,0,0,0,.164-.062.4.4,0,0,0,.139-.118l.118-.18-.077-.164a.416.416,0,0,0-.077-.128q-.759-.708-1.4-1.273a.328.328,0,0,0-.282-.092m2.946-5.424.8-1.191L13.137.823l-1.221.806Z" transform="translate(0 0.018)" fill="#fff"/></g></g></g></svg>