<svg xmlns="http://www.w3.org/2000/svg" xmlns:xlink="http://www.w3.org/1999/xlink" width="54.55" height="54.55" viewBox="0 0 54.55 54.55"><defs><linearGradient id="a" x1="0.5" x2="0.5" y2="1" gradientUnits="objectBoundingBox"><stop offset="0" stop-color="#ff2c32"/><stop offset="1" stop-color="#d81f0c"/></linearGradient><filter id="b" x="0" y="0" width="54.55" height="54.55" filterUnits="userSpaceOnUse"><feOffset dy="2" input="SourceAlpha"/><feGaussianBlur stdDeviation="3" result="c"/><feFlood flood-color="#dbe3ff"/><feComposite operator="in" in2="c"/><feComposite in="SourceGraphic"/></filter></defs><g transform="translate(-99 -2778)"><g transform="translate(-45.5 2483)"><g transform="matrix(1, 0, 0, 1, 144.5, 295)" filter="url(#b)"><path d="M9.4,0H27.151a9.4,9.4,0,0,1,9.4,9.4V27.151a9.4,9.4,0,0,1-9.4,9.4H9.4a9.4,9.4,0,0,1-9.4-9.4V9.4A9.4,9.4,0,0,1,9.4,0Z" transform="translate(9 7)" fill="url(#a)"/></g></g><g transform="translate(99.651 2781.5)"><path d="M32.686,28.61a6.658,6.658,0,0,1-1.635,0v2.436H17.094V11.861H31.051V14.3a6.852,6.852,0,0,1,.793-.048,6.694,6.694,0,0,1,.842.054c.037.005.073.017.109.026V9.245A1.744,1.744,0,0,0,31.051,7.5H17.094a1.744,1.744,0,0,0-1.745,1.745V33.669a1.743,1.743,0,0,0,1.745,1.745H31.051A1.743,1.743,0,0,0,32.8,33.669V28.584C32.758,28.593,32.723,28.605,32.686,28.61ZM27.858,9.221a.436.436,0,1,1-.436.436A.437.437,0,0,1,27.858,9.221Zm-5.709.023h3.845a.436.436,0,1,1,0,.872H22.149a.436.436,0,1,1,0-.872Zm1.922,25.3a1.308,1.308,0,1,1,1.309-1.308A1.309,1.309,0,0,1,24.072,34.542Z" transform="translate(0 0)" fill="#fff"/><path d="M51.849,30a6.568,6.568,0,1,0,6.569,6.568A6.568,6.568,0,0,0,51.849,30Zm0,11.6a5.035,5.035,0,1,1,5.036-5.035A5.035,5.035,0,0,1,51.849,41.6Z" transform="translate(-20.102 -15.11)" fill="#fff"/><path d="M54.748,46.67v-.392c.021-.083.016-.169.029-.252.046-.283.088-.566.144-.847a9.971,9.971,0,0,1,.367-1.4,3.335,3.335,0,0,1,.513-1,.882.882,0,0,1,.437-.324,1.342,1.342,0,0,1,.31-.018.9.9,0,0,1,.426.106,2.856,2.856,0,0,0,.456.168,3.958,3.958,0,0,0,1.351.044,2.552,2.552,0,0,0,.683-.219,1.036,1.036,0,0,1,.636-.092.893.893,0,0,1,.544.381,3.519,3.519,0,0,1,.47.928,9.106,9.106,0,0,1,.349,1.276c.074.355.138.711.18,1.072a.474.474,0,0,0,.024.178v.378a.077.077,0,0,0-.013.051,1.066,1.066,0,0,1-.117.432.45.45,0,0,1-.312.255.663.663,0,0,1-.325-.033,1.846,1.846,0,0,1-.685-.451c-.21-.2-.407-.407-.614-.608a.853.853,0,0,0-.392-.238,3.615,3.615,0,0,0-.746-.081,6.349,6.349,0,0,0-.647.008,3.7,3.7,0,0,0-.593.072.832.832,0,0,0-.4.206c-.066.066-.128.137-.192.206a6.113,6.113,0,0,1-.629.609,1.4,1.4,0,0,1-.546.295A.463.463,0,0,1,55,47.3a.692.692,0,0,1-.2-.347C54.78,46.858,54.766,46.763,54.748,46.67Z" transform="translate(-26.46 -23.457)" fill="#fff"/></g></g></svg>