<svg xmlns="http://www.w3.org/2000/svg" xmlns:xlink="http://www.w3.org/1999/xlink" width="54.55" height="54.55" viewBox="0 0 54.55 54.55"><defs><linearGradient id="a" x1="0.5" x2="0.5" y2="1" gradientUnits="objectBoundingBox"><stop offset="0" stop-color="#ff5539"/><stop offset="1" stop-color="#d02e14"/></linearGradient><filter id="b" x="0" y="0" width="54.55" height="54.55" filterUnits="userSpaceOnUse"><feOffset dy="2" input="SourceAlpha"/><feGaussianBlur stdDeviation="3" result="c"/><feFlood flood-color="#dbe3ff"/><feComposite operator="in" in2="c"/><feComposite in="SourceGraphic"/></filter></defs><g transform="translate(-775 -1360)"><g transform="matrix(1, 0, 0, 1, 775, 1360)" filter="url(#b)"><path d="M9.4,0H27.151a9.4,9.4,0,0,1,9.4,9.4V27.151a9.4,9.4,0,0,1-9.4,9.4H9.4a9.4,9.4,0,0,1-9.4-9.4V9.4A9.4,9.4,0,0,1,9.4,0Z" transform="translate(9 7)" fill="url(#a)"/></g><g transform="translate(785 1362.595)"><g transform="translate(2 13.406)"><path d="M30.535,18.673H22.614s-.576-.612-1.211-1.409-1.329-1.777-1.329-1.777V13.642a.236.236,0,0,0-.472,0v5.031h-1v-3.69a1.473,1.473,0,0,0-1.469-1.465H12.965a2.071,2.071,0,0,0-1.63.789l-2.546,3.2a1.59,1.59,0,0,1-.9.562l-3.085.7a3.671,3.671,0,0,0-1.337.614,3.546,3.546,0,0,0-1.257,1.706A.01.01,0,0,0,2.2,21.1a3.269,3.269,0,0,0-.146.581A3.518,3.518,0,0,0,2,22.273v1.89a1.463,1.463,0,0,0,1.469,1.46h.614a.933.933,0,0,1,.118-.458l.5-.865a.958.958,0,0,1,.817-.472.381.381,0,0,1,.076,0,.951.951,0,0,1,.463-.888l.865-.5a.979.979,0,0,1,.472-.123.959.959,0,0,1,.534.161.943.943,0,0,1,.85-.534h.992a.943.943,0,0,1,.85.534.959.959,0,0,1,.534-.161.947.947,0,0,1,.468.123l.865.5a.949.949,0,0,1,.468.893.381.381,0,0,1,.076,0,.944.944,0,0,1,.813.468l.5.865a.951.951,0,0,1,.118.463h5.079a.947.947,0,0,1,.118-.458l.5-.865a.946.946,0,0,1,.817-.472.406.406,0,0,1,.076,0,.947.947,0,0,1,.458-.888l.869-.5a.974.974,0,0,1,.468-.123.959.959,0,0,1,.534.161.95.95,0,0,1,.855-.534h.992a.943.943,0,0,1,.85.534.96.96,0,0,1,1-.038l.865.5a.958.958,0,0,1,.468.893.357.357,0,0,1,.071,0,.952.952,0,0,1,.817.468l.5.865a.919.919,0,0,1,.123.463h.619A1.462,1.462,0,0,0,32,24.162V20.137A1.466,1.466,0,0,0,30.535,18.673ZM4.094,22.306H2.472v-.033c0-.043.009-.08.009-.123a2.991,2.991,0,0,1,.033-.354,1.209,1.209,0,0,1,.024-.128c.019-.085.043-.17.066-.255H4.094a.446.446,0,1,1,0,.893Zm12.534-1.583H14.305a.24.24,0,0,1-.236-.236.237.237,0,0,1,.236-.236h2.323a.234.234,0,0,1,.236.236A.237.237,0,0,1,16.628,20.723Zm.509-1.748H11.581l-1.11-1.233,2.013-2.523a.616.616,0,0,1,.482-.231h4.172v3.987Zm2.938-.3V16.244l1.936,2.428ZM31.528,21.1h-.78a.991.991,0,0,1-.992-.987v-.968h.78a1.008,1.008,0,0,1,.992.987V21.1Z" transform="translate(-2 -13.406)" fill="#fff"/><path d="M49.343,36.759h-.1a3.559,3.559,0,0,0-.123-.454l.085-.047a.477.477,0,0,0,.175-.647l-.5-.86a.472.472,0,0,0-.647-.17l-.09.052a4.314,4.314,0,0,0-.331-.326l.052-.094a.472.472,0,0,0-.17-.647l-.86-.5a.477.477,0,0,0-.647.175l-.057.094a3.6,3.6,0,0,0-.444-.113v-.118a.474.474,0,0,0-.472-.472h-.992a.474.474,0,0,0-.472.472v.118a3.614,3.614,0,0,0-.444.118l-.057-.1a.477.477,0,0,0-.647-.175l-.86.5a.476.476,0,0,0-.17.647l.057.1a3.075,3.075,0,0,0-.331.326l-.094-.057a.472.472,0,0,0-.647.17l-.5.86a.477.477,0,0,0,.175.647l.09.052c-.047.146-.085.3-.118.449h-.1a.471.471,0,0,0-.472.472v.992a.471.471,0,0,0,.472.472h.1a3.713,3.713,0,0,0,.123.449l-.094.052a.477.477,0,0,0-.175.647l.5.86a.476.476,0,0,0,.647.17l.1-.057a3.538,3.538,0,0,0,.326.326l-.057.1a.476.476,0,0,0,.17.647l.86.5a.477.477,0,0,0,.647-.175l.061-.1a3.336,3.336,0,0,0,.439.118v.118a.471.471,0,0,0,.472.472h.992a.471.471,0,0,0,.472-.472v-.118a3.6,3.6,0,0,0,.444-.113l.057.1a.477.477,0,0,0,.647.175l.86-.5a.472.472,0,0,0,.17-.647l-.057-.1a3.028,3.028,0,0,0,.331-.321l.094.052a.476.476,0,0,0,.647-.17l.5-.86a.477.477,0,0,0-.175-.647l-.085-.047a3.56,3.56,0,0,0,.123-.454h.1a.474.474,0,0,0,.472-.472v-.992A.474.474,0,0,0,49.343,36.759Zm-4.62,3.161a2.2,2.2,0,1,1,2.211-2.2A2.2,2.2,0,0,1,44.722,39.919Z" transform="translate(-21.993 -23.621)" fill="#fff"/><path d="M48.519,39.81a1.725,1.725,0,1,0,1.741,1.725A1.732,1.732,0,0,0,48.519,39.81Z" transform="translate(-25.791 -27.433)" fill="#fff"/><path d="M16.365,36.759h-.1a3.559,3.559,0,0,0-.123-.454l.085-.047a.477.477,0,0,0,.175-.647l-.5-.86a.472.472,0,0,0-.647-.17l-.09.052a4.319,4.319,0,0,0-.331-.326l.052-.094a.472.472,0,0,0-.17-.647l-.86-.5a.477.477,0,0,0-.647.175l-.057.094a3.6,3.6,0,0,0-.444-.113v-.118a.474.474,0,0,0-.472-.472h-.992a.474.474,0,0,0-.472.472v.118a3.615,3.615,0,0,0-.444.118l-.057-.1a.477.477,0,0,0-.647-.175l-.86.5a.476.476,0,0,0-.17.647l.057.1a3.074,3.074,0,0,0-.331.326l-.094-.057a.472.472,0,0,0-.647.17l-.5.86a.477.477,0,0,0,.175.647l.09.052c-.047.146-.085.3-.118.449h-.1a.471.471,0,0,0-.472.472v.992a.471.471,0,0,0,.472.472h.1a3.713,3.713,0,0,0,.123.449l-.094.052a.477.477,0,0,0-.175.647l.5.86a.476.476,0,0,0,.647.17l.1-.057a3.541,3.541,0,0,0,.326.326l-.057.1a.476.476,0,0,0,.17.647l.86.5a.477.477,0,0,0,.647-.175l.061-.1a3.339,3.339,0,0,0,.439.118v.118a.471.471,0,0,0,.472.472h.992a.471.471,0,0,0,.472-.472v-.118a3.6,3.6,0,0,0,.444-.113l.057.1a.477.477,0,0,0,.647.175l.86-.5a.472.472,0,0,0,.17-.647l-.057-.1a3.031,3.031,0,0,0,.331-.321l.094.052a.476.476,0,0,0,.647-.17l.5-.86a.477.477,0,0,0-.175-.647l-.085-.047a3.56,3.56,0,0,0,.123-.454h.1a.474.474,0,0,0,.472-.472v-.992A.474.474,0,0,0,16.365,36.759Zm-4.62,3.161a2.2,2.2,0,1,1,2.211-2.2A2.2,2.2,0,0,1,11.745,39.919Z" transform="translate(-4.474 -23.621)" fill="#fff"/><path d="M15.544,39.81a1.725,1.725,0,1,0,1.741,1.725A1.732,1.732,0,0,0,15.544,39.81Z" transform="translate(-8.273 -27.433)" fill="#fff"/></g></g></g></svg>