<svg xmlns="http://www.w3.org/2000/svg" xmlns:xlink="http://www.w3.org/1999/xlink" width="54.55" height="54.55" viewBox="0 0 54.55 54.55"><defs><linearGradient id="a" x1="0.5" x2="0.5" y2="1" gradientUnits="objectBoundingBox"><stop offset="0" stop-color="#00f2fe"/><stop offset="1" stop-color="#00a5ad"/></linearGradient><filter id="b" x="0" y="0" width="54.55" height="54.55" filterUnits="userSpaceOnUse"><feOffset dy="2" input="SourceAlpha"/><feGaussianBlur stdDeviation="3" result="c"/><feFlood flood-color="#dbe3ff"/><feComposite operator="in" in2="c"/><feComposite in="SourceGraphic"/></filter></defs><g transform="translate(9 7)"><g transform="matrix(1, 0, 0, 1, -9, -7)" filter="url(#b)"><path d="M9.4,0H27.151a9.4,9.4,0,0,1,9.4,9.4V27.151a9.4,9.4,0,0,1-9.4,9.4H9.4a9.4,9.4,0,0,1-9.4-9.4V9.4A9.4,9.4,0,0,1,9.4,0Z" transform="translate(9 7)" fill="url(#a)"/></g><g transform="translate(8.006 8)"><g transform="translate(-0.006)"><path d="M.26,10.75A.915.915,0,0,0,0,11.458v7.389a.976.976,0,0,0,.243.688.976.976,0,0,0,.688.243H3.155a1.053,1.053,0,0,0,.688-.263,1,1,0,0,0,.243-.709V11.438a.956.956,0,0,0-.263-.709.915.915,0,0,0-.709-.243H.948a.891.891,0,0,0-.688.263M14.35,1.7A2.275,2.275,0,0,0,12.791.061L12.71,0H11.9a.308.308,0,0,0-.162.2,2.024,2.024,0,0,1-.04.243q-.04.385-.142,1.174-.081.688-.162,1.174A3.608,3.608,0,0,1,9.9,5.223a2.725,2.725,0,0,0-.81.85A5.511,5.511,0,0,0,8.58,7.126q-.344.81-.688,1.478A9.065,9.065,0,0,1,7,9.96a5.114,5.114,0,0,1-.607.628,1.745,1.745,0,0,1-.445.3,1.255,1.255,0,0,1-.547.081H5.26v8.3l1.518.283,1.356.243q.81.162,1.377.223t1.458.121l1.478.1h2.632q.324-.04.972-.1a2.429,2.429,0,0,0,1.215-.506,4.531,4.531,0,0,0,.891-.972.559.559,0,0,0,.081-.344,1.348,1.348,0,0,0,0-.466.984.984,0,0,1,.061-.526,1.421,1.421,0,0,1,.324-.4,7.891,7.891,0,0,0,.567-.587.741.741,0,0,0,.142-.85q-.182-.506-.283-.769a.688.688,0,0,1,.142-.81,5.863,5.863,0,0,0,.4-.466A.911.911,0,0,0,19.836,13a.931.931,0,0,0-.162-.506s-.134-.211-.364-.587a.668.668,0,0,1,.04-.85.66.66,0,0,0,.162-.2,2.324,2.324,0,0,1,.182-.223.721.721,0,0,0,.1-.688,3.369,3.369,0,0,0-.972-1.478,1.3,1.3,0,0,0-.607-.3,2.883,2.883,0,0,0-.668-.061q-.911-.04-2.126-.04H13.277A.672.672,0,0,1,13.014,8q-.061-.04-.061-.243a2,2,0,0,1,.1-.729q.364-.911.992-2.207a4.535,4.535,0,0,0,.3-3.118Z" transform="translate(0.006)" fill="#fff"/></g></g></g></svg>