<svg xmlns="http://www.w3.org/2000/svg" xmlns:xlink="http://www.w3.org/1999/xlink" width="54.55" height="54.55" viewBox="0 0 54.55 54.55"><defs><linearGradient id="a" x1="0.5" x2="0.5" y2="1" gradientUnits="objectBoundingBox"><stop offset="0" stop-color="#ff2c32"/><stop offset="1" stop-color="#d81f0c"/></linearGradient><filter id="b" x="0" y="0" width="54.55" height="54.55" filterUnits="userSpaceOnUse"><feOffset dy="2" input="SourceAlpha"/><feGaussianBlur stdDeviation="3" result="c"/><feFlood flood-color="#dbe3ff"/><feComposite operator="in" in2="c"/><feComposite in="SourceGraphic"/></filter></defs><g transform="translate(-320 -2615)"><g transform="translate(175.5 2320)"><g transform="matrix(1, 0, 0, 1, 144.5, 295)" filter="url(#b)"><path d="M9.4,0H27.151a9.4,9.4,0,0,1,9.4,9.4V27.151a9.4,9.4,0,0,1-9.4,9.4H9.4a9.4,9.4,0,0,1-9.4-9.4V9.4A9.4,9.4,0,0,1,9.4,0Z" transform="translate(9 7)" fill="url(#a)"/></g></g><g transform="translate(336.005 2627)"><g transform="translate(-0.006)"><path d="M.315,12.983A1.105,1.105,0,0,0,0,13.839v8.924a1.178,1.178,0,0,0,.293.831,1.178,1.178,0,0,0,.831.293H3.811a1.271,1.271,0,0,0,.831-.318,1.213,1.213,0,0,0,.293-.856v-8.9a1.154,1.154,0,0,0-.318-.856,1.105,1.105,0,0,0-.856-.293H1.146a1.076,1.076,0,0,0-.831.318M17.332,2.054A2.748,2.748,0,0,0,15.45.073L15.352,0h-.978a.372.372,0,0,0-.2.244,2.445,2.445,0,0,1-.049.293Q14.08,1,13.958,1.956q-.1.831-.2,1.418a4.357,4.357,0,0,1-1.809,2.934,3.291,3.291,0,0,0-.978,1.027,6.655,6.655,0,0,0-.611,1.271q-.416.978-.831,1.785a10.949,10.949,0,0,1-1.076,1.638,6.176,6.176,0,0,1-.734.758,2.108,2.108,0,0,1-.538.367,1.516,1.516,0,0,1-.66.1H6.354V23.276l1.834.342,1.638.293q.978.2,1.663.269t1.76.147l1.785.122h3.179q.391-.049,1.174-.122a2.934,2.934,0,0,0,1.467-.611,5.472,5.472,0,0,0,1.076-1.174.675.675,0,0,0,.1-.416,1.628,1.628,0,0,0,0-.562,1.188,1.188,0,0,1,.073-.636,1.716,1.716,0,0,1,.391-.489,9.53,9.53,0,0,0,.685-.709.9.9,0,0,0,.171-1.027q-.22-.611-.342-.929a.831.831,0,0,1,.171-.978,7.081,7.081,0,0,0,.489-.562,1.1,1.1,0,0,0,.293-.538,1.125,1.125,0,0,0-.2-.611s-.161-.254-.44-.709a.807.807,0,0,1,.049-1.027.8.8,0,0,0,.2-.244,2.806,2.806,0,0,1,.22-.269A.87.87,0,0,0,23.909,12a4.069,4.069,0,0,0-1.174-1.785A1.565,1.565,0,0,0,22,9.853,3.482,3.482,0,0,0,21.2,9.78q-1.1-.049-2.567-.049H16.036a.812.812,0,0,1-.318-.073q-.073-.049-.073-.293a2.411,2.411,0,0,1,.122-.88q.44-1.1,1.2-2.665a5.477,5.477,0,0,0,.367-3.765Z" transform="translate(0.006)" fill="#fff"/></g></g></g></svg>