<svg xmlns="http://www.w3.org/2000/svg" xmlns:xlink="http://www.w3.org/1999/xlink" width="54.55" height="54.55" viewBox="0 0 54.55 54.55"><defs><linearGradient id="a" x1="0.5" x2="0.5" y2="1" gradientUnits="objectBoundingBox"><stop offset="0" stop-color="#ff5539"/><stop offset="1" stop-color="#d02e14"/></linearGradient><filter id="b" x="0" y="0" width="54.55" height="54.55" filterUnits="userSpaceOnUse"><feOffset dy="2" input="SourceAlpha"/><feGaussianBlur stdDeviation="3" result="c"/><feFlood flood-color="#dbe3ff"/><feComposite operator="in" in2="c"/><feComposite in="SourceGraphic"/></filter></defs><g transform="translate(-775 -1427)"><g transform="matrix(1, 0, 0, 1, 775, 1427)" filter="url(#b)"><path d="M9.4,0H27.151a9.4,9.4,0,0,1,9.4,9.4V27.151a9.4,9.4,0,0,1-9.4,9.4H9.4a9.4,9.4,0,0,1-9.4-9.4V9.4A9.4,9.4,0,0,1,9.4,0Z" transform="translate(9 7)" fill="url(#a)"/></g><g transform="translate(778.668 1418.052)"><path d="M75.582,54.091a2.839,2.839,0,1,1-2.839-2.837,2.838,2.838,0,0,1,2.839,2.837Zm1.377,0A4.215,4.215,0,1,0,72.744,58.3a4.214,4.214,0,0,0,4.215-4.213Z" transform="translate(-38.384 -15.883)" fill="#fff"/><g transform="translate(26.524 25.426)"><path d="M62.216,27.435a2.009,2.009,0,1,0-2.009,2.008,2.008,2.008,0,0,0,2.009-2.008Z" transform="translate(-58.198 -25.426)" fill="#fff"/></g><path d="M16.49,43.236A2.838,2.838,0,1,1,13.653,40.4a2.838,2.838,0,0,1,2.837,2.837Zm-4.46-3.89a4.215,4.215,0,1,0,5.6,5.273l3.427-1.332a2.673,2.673,0,0,0,1.523-3.458,2.554,2.554,0,0,0-.141-.3l-.972-1.8a.32.32,0,0,1-.025-.058.493.493,0,0,1,.282-.64l1.947-.757a.372.372,0,0,1,.077-.022.5.5,0,0,1,.587.381l.342,1.622a2.675,2.675,0,0,0,2.992,2.095l2.117-.3,1.4-.2-.2-1.4a1.419,1.419,0,0,0-1.6-1.2l-1.507.214a.5.5,0,0,1-.556-.387l-.374-1.778a2.671,2.671,0,0,0-3.167-2.062,2.606,2.606,0,0,0-.416.124L20,34.657a2.673,2.673,0,0,0-1.523,3.458,2.83,2.83,0,0,0,.141.3l.973,1.8a.526.526,0,0,1,.027.057.5.5,0,0,1-.282.64l-1.795.7A4.215,4.215,0,0,0,12.029,39.346Z" transform="translate(0 -5.028)" fill="#fff"/></g></g></svg>