<svg xmlns="http://www.w3.org/2000/svg" xmlns:xlink="http://www.w3.org/1999/xlink" width="48.801" height="48.801" viewBox="0 0 48.801 48.801"><defs><linearGradient id="a" x1="0.5" x2="0.5" y2="1" gradientUnits="objectBoundingBox"><stop offset="0" stop-color="#ff2c32"/><stop offset="1" stop-color="#d81f0c"/></linearGradient><filter id="b" x="0" y="0" width="48.801" height="48.801" filterUnits="userSpaceOnUse"><feOffset dy="2" input="SourceAlpha"/><feGaussianBlur stdDeviation="3" result="c"/><feFlood flood-color="#dbe3ff"/><feComposite operator="in" in2="c"/><feComposite in="SourceGraphic"/></filter></defs><g transform="translate(-99 -2583)"><g transform="translate(-45.5 2288)"><g transform="matrix(1, 0, 0, 1, 144.5, 295)" filter="url(#b)"><path d="M7.92,0h14.96A7.92,7.92,0,0,1,30.8,7.92v14.96a7.92,7.92,0,0,1-7.92,7.92H7.92A7.92,7.92,0,0,1,0,22.881V7.92A7.92,7.92,0,0,1,7.92,0Z" transform="translate(9 7)" fill="url(#a)"/></g></g><g transform="translate(104.509 2591.5)"><g transform="translate(8.491 2.5)"><circle cx="2.518" cy="2.518" r="2.518" transform="translate(1.36 0)" fill="#fff"/><path d="M13.455,31.156l.247-2a4.147,4.147,0,0,1,1.481-2.691,2.631,2.631,0,0,0-1.876-.765H11.431a2.692,2.692,0,0,0-2.666,2.37l-.272,2.173a.588.588,0,0,0,.42.617,15.561,15.561,0,0,0,3.432.346C12.715,31.206,13.085,31.181,13.455,31.156Z" transform="translate(-8.491 -19.972)" fill="#fff"/><circle cx="2.518" cy="2.518" r="2.518" transform="translate(14.1 0)" fill="#fff"/><path d="M70.819,28.07a2.668,2.668,0,0,0-2.642-2.37h-1.9a2.738,2.738,0,0,0-1.876.765,4.061,4.061,0,0,1,1.457,2.691l.247,2c.346.025.716.049,1.086.049a17.206,17.206,0,0,0,3.432-.346.549.549,0,0,0,.42-.617Z" transform="translate(-50.597 -19.972)" fill="#fff"/><path d="M34.4,35.418a5.555,5.555,0,0,1,.593.2,6.43,6.43,0,0,1,.617.247h5.259a4.6,4.6,0,0,1,.617-.247,5.555,5.555,0,0,1,.593-.2l-.272-2.173A2.646,2.646,0,0,0,39.165,30.9H37.289a2.691,2.691,0,0,0-2.666,2.345Z" transform="translate(-28.003 -23.888)" fill="#fff"/><circle cx="2.518" cy="2.518" r="2.518" transform="translate(7.73 1.284)" fill="#fff"/><path d="M26.472,53.832a7.351,7.351,0,0,0-.741.321H19.856a5.138,5.138,0,0,0-.741-.321c-3.432-1.21-3.679,1.333-4.691,4.222s-.593,5.678.988,6.246,3.679-1.333,4.691-4.222v-.025h5.382v.025c1.037,2.889,3.135,4.765,4.691,4.222,1.58-.568,2-3.358.988-6.246S29.9,52.6,26.472,53.832Zm-6.444,3.8a.159.159,0,0,1-.148.148H18.844v1.037a.159.159,0,0,1-.148.148h-.79a.159.159,0,0,1-.148-.148V57.782H16.72a.159.159,0,0,1-.148-.148v-.79a.159.159,0,0,1,.148-.148h1.037V55.659a.159.159,0,0,1,.148-.148h.79a.159.159,0,0,1,.148.148V56.7h1.037a.159.159,0,0,1,.148.148Zm7.308-2.395a.667.667,0,1,1-.667.667A.664.664,0,0,1,27.337,55.239Zm-1.308,2.666a.667.667,0,1,1,.667-.667A.664.664,0,0,1,26.028,57.905Zm1.308,1.333A.667.667,0,1,1,28,58.572.649.649,0,0,1,27.337,59.238Zm1.333-1.333a.667.667,0,1,1,.667-.667A.664.664,0,0,1,28.67,57.905Z" transform="translate(-12.546 -40.919)" fill="#fff"/></g></g></g></svg>