<svg xmlns="http://www.w3.org/2000/svg" xmlns:xlink="http://www.w3.org/1999/xlink" width="54.55" height="54.55" viewBox="0 0 54.55 54.55"><defs><linearGradient id="a" x1="0.5" x2="0.5" y2="1" gradientUnits="objectBoundingBox"><stop offset="0" stop-color="#ff006c"/><stop offset="1" stop-color="#c90055"/></linearGradient><filter id="b" x="0" y="0" width="54.55" height="54.55" filterUnits="userSpaceOnUse"><feOffset dy="2" input="SourceAlpha"/><feGaussianBlur stdDeviation="3" result="c"/><feFlood flood-color="#dbe3ff"/><feComposite operator="in" in2="c"/><feComposite in="SourceGraphic"/></filter></defs><g transform="translate(-555 -2227)"><g transform="matrix(1, 0, 0, 1, 555, 2227)" filter="url(#b)"><path d="M9.4,0H27.151a9.4,9.4,0,0,1,9.4,9.4V27.151a9.4,9.4,0,0,1-9.4,9.4H9.4a9.4,9.4,0,0,1-9.4-9.4V9.4A9.4,9.4,0,0,1,9.4,0Z" transform="translate(9 7)" fill="url(#a)"/></g><g transform="translate(436 1992.188)"><g transform="translate(146.205 262.46)"><path d="M190.329,320.772h-5.156a1.651,1.651,0,0,1-1.639-1.521l-.6-7.936a1.644,1.644,0,0,1,1.639-1.768h6.354a1.644,1.644,0,0,1,1.639,1.768l-.6,7.937A1.651,1.651,0,0,1,190.329,320.772ZM184.574,310.3a.9.9,0,0,0-.893.963l.6,7.937a.9.9,0,0,0,.893.828h5.156a.9.9,0,0,0,.893-.828l.6-7.937a.9.9,0,0,0-.893-.963Z" transform="translate(-182.93 -309.547)" fill="#fff"/></g><path d="M190.981,323.784l-.524-6.95a.266.266,0,0,1,.266-.286h5.355a.266.266,0,0,1,.266.286l-.525,6.95a.266.266,0,0,1-.266.246h-4.306A.266.266,0,0,1,190.981,323.784Z" transform="translate(-42.374 -52.341)" fill="#fff"/><g transform="translate(148.218 254.478)"><path d="M196.114,286.277h-4.739A.374.374,0,0,1,191,285.9v-6.365a1.994,1.994,0,0,1,1.992-1.992h1.5a1.994,1.994,0,0,1,1.992,1.992V285.9A.374.374,0,0,1,196.114,286.277Zm-4.365-.748h3.991v-5.991A1.245,1.245,0,0,0,194.5,278.3h-1.5a1.245,1.245,0,0,0-1.243,1.243Z" transform="translate(-191 -277.547)" fill="#fff"/></g><g transform="translate(144.811 250.495)"><path d="M179.625,271.049a.374.374,0,0,1-.374-.374v-4.2a5.882,5.882,0,0,0-1.8-4.252.374.374,0,0,1,.522-.537A6.625,6.625,0,0,1,180,266.473v4.2A.374.374,0,0,1,179.625,271.049Z" transform="translate(-177.34 -261.578)" fill="#fefeff"/></g><g transform="translate(134 250.591)"><path d="M134.374,282.313a.374.374,0,0,1-.374-.374V266.761a6.637,6.637,0,0,1,1.922-4.687.374.374,0,0,1,.533.525,5.894,5.894,0,0,0-1.707,4.162v15.177A.374.374,0,0,1,134.374,282.313Z" transform="translate(-134 -261.962)" fill="#fefeff"/></g><path d="M147.453,248.547h-.176A4.277,4.277,0,0,0,143,252.824v4.317a3.379,3.379,0,0,0,3.379,3.379h1.972a3.379,3.379,0,0,0,3.379-3.379v-4.317A4.277,4.277,0,0,0,147.453,248.547Z" transform="translate(-6.755 -1.303)" fill="#f90069"/><g transform="translate(143.479 272.937)"><path d="M186.343,352.3H172.374a.374.374,0,1,1,0-.748h13.969a.374.374,0,1,1,0,.748Z" transform="translate(-172 -351.547)" fill="#fff"/></g><g transform="translate(135.996 246.812)"><path d="M147.486,259.716h-1.742A3.748,3.748,0,0,1,142,255.973v-4.406a4.823,4.823,0,0,1,1.556-3.543,4.485,4.485,0,0,1,3.451-1.2,4.662,4.662,0,0,1,4.223,4.635v4.51A3.748,3.748,0,0,1,147.486,259.716Zm-.863-12.156a3.758,3.758,0,0,0-2.56,1.014,4.073,4.073,0,0,0-1.314,2.992v4.406a3,3,0,0,0,3,3h1.742a3,3,0,0,0,3-3v-4.51a3.909,3.909,0,0,0-3.538-3.889Q146.782,247.56,146.622,247.56Z" transform="translate(-142 -246.812)" fill="#fff"/></g><path d="M161.359,280.75l.405.741.741.405-.741.405-.405.741-.405-.741-.741-.405.741-.405Z" transform="translate(-19.674 -25.473)" fill="#fff"/><path d="M151.267,275.865l.326.6.6.326-.6.325-.326.6-.326-.6-.6-.325.6-.326Z" transform="translate(-12.269 -21.806)" fill="#fff"/><path d="M157.3,260.914c0-.022,0-.044,0-.066a1.105,1.105,0,0,0-1.021-.984,1.16,1.16,0,0,0-.881.434,1.159,1.159,0,0,0-.905-.381,1.1,1.1,0,0,0-.957.987,1.146,1.146,0,0,0,0,.134,1.044,1.044,0,0,0,.428.8l1.517,1.132,1.449-1.225A1.04,1.04,0,0,0,157.3,260.914Z" transform="translate(-14.657 -9.796)" fill="#fff"/><g transform="translate(138.49 262.211)"><path d="M156.365,309.3h-3.991a.374.374,0,1,1,0-.748h3.991a.374.374,0,0,1,0,.748Z" transform="translate(-152 -308.547)" fill="#fff"/></g><g transform="translate(138.49 263.708)"><path d="M156.365,315.3h-3.991a.374.374,0,1,1,0-.748h3.991a.374.374,0,0,1,0,.748Z" transform="translate(-152 -314.547)" fill="#fff"/></g><path d="M164.847,351.356a.4.4,0,1,0,.4.4A.4.4,0,0,0,164.847,351.356Z" transform="translate(-22.855 -78.467)" fill="#fff"/><g transform="translate(154.472 257.222)"><path d="M216.445,293.379a.374.374,0,0,1-.364-.461l.98-4.085a.374.374,0,0,1,.728.174l-.98,4.085A.374.374,0,0,1,216.445,293.379Z" transform="translate(-216.07 -288.546)" fill="#fff"/></g><path d="M215.861,272.788a.715.715,0,0,0,1.233.318l1.479-1.674,1.98-2.241a.4.4,0,0,0-.2-.645l-2.572-.663-2.572-.663a.4.4,0,0,0-.485.469l.65,2.919Z" transform="translate(-60.582 -15.308)" fill="#fff"/></g></g></svg>