<svg xmlns="http://www.w3.org/2000/svg" xmlns:xlink="http://www.w3.org/1999/xlink" width="23.905" height="23.906" viewBox="0 0 23.905 23.906"><defs><clipPath id="a"><path d="M6.148,0H17.758a6.148,6.148,0,0,1,6.148,6.148V17.758a6.148,6.148,0,0,1-6.148,6.148H6.148A6.148,6.148,0,0,1,0,17.758V6.148A6.148,6.148,0,0,1,6.148,0Z" fill="#3791fa"/></clipPath></defs><g transform="translate(-157.421 -306.421)"><g transform="translate(157.421 306.421)" clip-path="url(#a)"><g transform="translate(0.985 1.248)"><path d="M8.335.038A.923.923,0,0,0,7.692.6a1.317,1.317,0,0,0-.1.577,3.374,3.374,0,0,0-.017.391L7.523,2.8v.442a2.377,2.377,0,0,1-.088.354,1.2,1.2,0,0,1-.391.492l-.017.017a1.266,1.266,0,0,1-.594.221,2.115,2.115,0,0,1-.884-.2q-.713-.34-1.019-.476l-.408-.187h0a2.6,2.6,0,0,0-.458-.187.941.941,0,0,0-.95.221v.017a.893.893,0,0,0-.288,1.019,1.408,1.408,0,0,0,.255.476q.088.118.221.34l.682,1.016a2.148,2.148,0,0,1,.373,1.019,1.141,1.141,0,0,1-.354.832,1.779,1.779,0,0,1-.764.34L1.7,8.776Q.869,8.946.734,9-.22,9.39.069,10.255a.92.92,0,0,0,.408.53H.494a2.973,2.973,0,0,0,.354.153h0l1.12.424a6.749,6.749,0,0,1,1.019.458,1.127,1.127,0,0,1,.408,1.545h0q-.17.238-.713.866H2.653l-.8.917a1.592,1.592,0,0,0-.306.465.866.866,0,0,0,.034.747h0q.271.73,1.358.509a6.555,6.555,0,0,0,1.019-.306q.9-.238,1.1-.271a1.314,1.314,0,0,1,.866.187,1.133,1.133,0,0,1,.458.747,6.759,6.759,0,0,1-.056,1.164l-.118,1.172a2.635,2.635,0,0,0,0,.492h0A.967.967,0,0,0,6.6,20.7q.679.543,1.443-.221h0a4.831,4.831,0,0,0,.611-.8q.238-.288.679-.884a1.439,1.439,0,0,1,.713-.442,1.127,1.127,0,0,1,.611.034,1.4,1.4,0,0,1,.53.34h0a2.122,2.122,0,0,1,.2.288v.017a3.021,3.021,0,0,1,.187.34H11.6l.628,1.069v.017l.17.323.017.034h0a1,1,0,0,0,.492.469h0a.917.917,0,0,0,.781.051.869.869,0,0,0,.543-.577,3.707,3.707,0,0,0,.136-.984V19.74q0-.73.017-1.137a2.543,2.543,0,0,1,.187-.917,1.181,1.181,0,0,1,.424-.458,1.358,1.358,0,0,1,.577-.2,1.232,1.232,0,0,1,.391.068,2.349,2.349,0,0,1,.442.17l1.768.781h0a1.117,1.117,0,0,0,.95-.088h0a.862.862,0,0,0,.442-1.052v-.017a1.28,1.28,0,0,0-.238-.492v-.017L19.1,16.09h-.017l-.628-.884a3.266,3.266,0,0,1-.424-.849.991.991,0,0,1,.17-.934,1.358,1.358,0,0,1,.866-.561l1.019-.2q.645-.136,1.052-.238a1.124,1.124,0,0,0,.594-.391.927.927,0,0,0,.187-.8.967.967,0,0,0-.354-.594h-.034a1.338,1.338,0,0,0-.424-.2h.017q-1.273-.458-1.884-.713a1.209,1.209,0,0,1-.492-1.965q.255-.306.645-.73l.679-.747a1.945,1.945,0,0,0,.306-.424h0a.943.943,0,0,0,0-.764q-.288-.8-1.256-.577-.373.088-1.035.271l-.984.288a1.3,1.3,0,0,1-1.137-.221A1.087,1.087,0,0,1,15.5,3.838q.034-.391.1-.967h0q.1-.884.118-1.019a1.785,1.785,0,0,0,0-.509A.873.873,0,0,0,15.384.7V.673a.934.934,0,0,0-.849-.187,1.076,1.076,0,0,0-.611.391q-.271.306-.679.832l-.611.808h-.017a1.259,1.259,0,0,1-.884.492,1.137,1.137,0,0,1-.934-.3,4.156,4.156,0,0,1-.543-.781L9.748.957A1.521,1.521,0,0,0,9.561.635V.618a1.154,1.154,0,0,0-.34-.424A.937.937,0,0,0,8.338.04M8.59.954h.051a.34.34,0,0,1,.1.136h0a1.279,1.279,0,0,1,.153.288h.017q.17.288.509.95a4.7,4.7,0,0,0,.713,1.019,1.979,1.979,0,0,0,1.68.594,2.128,2.128,0,0,0,1.528-.832l.679-.832q.391-.492.645-.8a.3.3,0,0,1,.136-.088h.017v.051a.934.934,0,0,1-.017.288q0,.118-.1,1.019a6.817,6.817,0,0,0-.1,1.035A2,2,0,0,0,15.431,5.6a2.172,2.172,0,0,0,1.935.373H17.35l1.035-.288q.611-.187.984-.271a.251.251,0,0,1,.17,0h0q-.051.068-.17.2l-.679.747q-.424.442-.679.764a2.152,2.152,0,0,0,.865,3.478l1.9.713h.017a1.149,1.149,0,0,1,.17.088h0v.051a.377.377,0,0,1-.118.051q-.373.1-.984.238l-1.019.2a2.278,2.278,0,0,0-1.424.94h0a2,2,0,0,0-.306,1.748,3.521,3.521,0,0,0,.577,1.12h-.017q.221.323.645.917l.221.288h0a.472.472,0,0,1,.1.17h.015a.292.292,0,0,1-.17.017l-1.7-.764q-.373-.153-.577-.221a2.061,2.061,0,0,0-1.731.255,1.969,1.969,0,0,0-.747.832,2.98,2.98,0,0,0-.288,1.311q0,.408-.017,1.154a4.654,4.654,0,0,1-.088.713h0a.255.255,0,0,1-.1-.068q-.136-.238-.187-.34h-.017l-.611-1.052a3.167,3.167,0,0,0-.2-.414,3.89,3.89,0,0,0-.288-.424h-.017A1.935,1.935,0,0,0,11,17.524a2.034,2.034,0,0,0-1.1-.068,2.132,2.132,0,0,0-1.222.73l-.017.034q-.509.594-.747.9v.034a5.384,5.384,0,0,1-.543.679h0a.34.34,0,0,1-.2.118h0a1.185,1.185,0,0,1,0-.288l.118-1.154A7.245,7.245,0,0,0,7.332,17.1a1.956,1.956,0,0,0-.884-1.392,2.085,2.085,0,0,0-1.493-.34,9.876,9.876,0,0,0-1.273.306H3.633a6.975,6.975,0,0,1-.884.271.5.5,0,0,1-.34,0h0a.954.954,0,0,1,.118-.17l.815-.9a8.385,8.385,0,0,0,.813-1.022h.017a2.034,2.034,0,0,0-.645-2.8,7.332,7.332,0,0,0-1.222-.561l-1.1-.408h0l-.221-.1h0a.159.159,0,0,1,.1-.088L1.1,9.878q.051,0,.781-.17.34-.068,1.12-.2h.017a2.682,2.682,0,0,0,1.227-.591A2,2,0,0,0,4.89,7.353,2.862,2.862,0,0,0,4.38,5.877l-.7-1.052q-.153-.2-.221-.306h0A1.491,1.491,0,0,1,3.345,4.3q0-.034,0-.051h0a.116.116,0,0,1,.088-.034l.306.136.373.187h.017q.323.136,1.019.492h.017A2.689,2.689,0,0,0,6.506,5.3a2.034,2.034,0,0,0,1.069-.408,2.034,2.034,0,0,0,.713-.9A2.672,2.672,0,0,0,8.44,3.4q0-.153.034-.53l.051-1.256V1.187a1.857,1.857,0,0,1,.034-.2h0A.048.048,0,0,1,8.59.971m-.323,8.4q0-.068-.051-.068H7.47q-.034,0-.034.088,0,.221.017.645t.034.679q0,.17-.034.17t-.088-.068l-.323-.424L6.278,9.339q-.051-.068-.088-.068a1.019,1.019,0,0,0-.153,0l-.17.017h-.3q-.068,0-.068.051,0,.238.017.713t0,.713v.679a4.9,4.9,0,0,1-.034.679.061.061,0,0,0,.068.068h.713q.051,0,.051-.068V11.41q0-.492-.017-.73a.068.068,0,0,1,.017-.051l.034.034q.288.373.424.561l.679.9q.051.068.088.068h.17a1.019,1.019,0,0,0,.153,0h.153a1.018,1.018,0,0,1,.153,0,.044.044,0,0,0,.051-.051V10.786q0-.255.034-.713a5.412,5.412,0,0,0,.017-.713m2.953.017a.105.105,0,0,0-.118-.088H9.269q-.068,0-.051.051v.031q0,.323.017.492.034.645.034.884t-.034.679q0,.458-.017.679a.044.044,0,0,0,.051.051h1.9a.068.068,0,0,0,.068-.034,1.019,1.019,0,0,0,.068-.306,2.756,2.756,0,0,0,.034-.34q0-.068-.051-.068-.1,0-.34.017a1.451,1.451,0,0,1-.323,0H10.32q-.221,0-.271-.088a.777.777,0,0,1,0-.2V11q0-.034.1-.034h.221a5.127,5.127,0,0,1,.543.017H11.1q.068,0,.068-.051v-.34l.051-.323a.044.044,0,0,0-.051-.051.5.5,0,0,0-.118,0H10.3l-.068.017a.153.153,0,0,1-.136-.051q-.051-.034-.051-.187a.34.34,0,0,1,0-.153q0-.051.136-.051.442,0,.984.051h.051q.034,0,.034-.051T11.236,9.5a1.742,1.742,0,0,0-.034-.288m1.663-.068h-.679q-.034,0-.034.068,0,.17-.017.492t-.017.492a15.976,15.976,0,0,0,.815,1.8.045.045,0,0,0,.051.051,1.48,1.48,0,0,0,.306,0,1.358,1.358,0,0,0,.271,0,.068.068,0,0,0,.051,0l.034-.034q.068-.187.1-.288l.238-.577.221.577a2.153,2.153,0,0,0,.118.288.03.03,0,0,0,.034.034h.051a1.222,1.222,0,0,0,.271,0,1.358,1.358,0,0,0,.288,0h.034s.024,0,.034-.034.177-.384.442-.95.391-.838.391-.849q0-.153-.017-.476V9.371q0-.088-.051-.088h-.73q-.051,0-.051.034,0,.17.017.509a3.448,3.448,0,0,1,0,.492,1.7,1.7,0,0,1-.136.391q-.136.306-.187.408t-.051.074A.912.912,0,0,1,14.576,11a3.52,3.52,0,0,1-.221-.679v-.1q0-.153.017-.442a2.571,2.571,0,0,0,0-.424q-.017-.136-.408-.051a2.516,2.516,0,0,0-.354,0h-.034v1.019a3.5,3.5,0,0,1-.2.679q-.068.2-.088.2l-.034-.051q-.068-.118-.2-.408a1.745,1.745,0,0,1-.153-.408V9.853q0-.34.017-.509T12.9,9.3Z" transform="translate(-0.002 0.009)" fill="#fff"/></g></g></g></svg>