<svg xmlns="http://www.w3.org/2000/svg" xmlns:xlink="http://www.w3.org/1999/xlink" width="34" height="34" viewBox="0 0 34 34"><defs><clipPath id="a"><rect width="34" height="34" rx="6" transform="translate(165.221 111.221)" fill="#e3e9ff"/></clipPath></defs><g transform="translate(-165.221 -111.221)" clip-path="url(#a)"><g transform="translate(165.15 111.555)"><g transform="translate(0 0)"><path d="M12.972.063a1.437,1.437,0,0,0-1,.872,2.05,2.05,0,0,0-.159.9,5.251,5.251,0,0,0-.026.608L11.7,4.369v.687a3.7,3.7,0,0,1-.132.555,1.87,1.87,0,0,1-.608.766l-.026.026a1.971,1.971,0,0,1-.925.343A3.292,3.292,0,0,1,8.64,6.43Q7.53,5.9,7.054,5.69L6.42,5.4h0a4.047,4.047,0,0,0-.713-.291,1.464,1.464,0,0,0-1.479.343v.026a1.39,1.39,0,0,0-.449,1.585,2.193,2.193,0,0,0,.4.74q.132.185.343.528L5.575,9.917A3.345,3.345,0,0,1,6.156,11.5,1.775,1.775,0,0,1,5.6,12.8a2.769,2.769,0,0,1-1.189.528l-1.77.343q-1.295.264-1.506.343-1.479.608-1.03,1.955a1.432,1.432,0,0,0,.634.819H.767a4.629,4.629,0,0,0,.555.238h0l1.744.66A10.5,10.5,0,0,1,4.65,18.4a1.754,1.754,0,0,1,.634,2.4h0q-.264.37-1.11,1.347H4.122L2.88,23.576A2.473,2.473,0,0,0,2.4,24.3a1.347,1.347,0,0,0,.053,1.162h0q.423,1.136,2.113.793a10.2,10.2,0,0,0,1.585-.476q1.4-.37,1.717-.423a2.045,2.045,0,0,1,1.347.291,1.765,1.765,0,0,1,.713,1.162,10.52,10.52,0,0,1-.079,1.823L9.67,30.455a4.1,4.1,0,0,0,0,.766h0a1.506,1.506,0,0,0,.608,1q1.057.845,2.246-.343h0a7.519,7.519,0,0,0,.951-1.242q.37-.449,1.057-1.374a2.24,2.24,0,0,1,1.11-.687,1.754,1.754,0,0,1,.951.053,2.182,2.182,0,0,1,.819.528h0a3.3,3.3,0,0,1,.317.449v.026a4.7,4.7,0,0,1,.291.528h.026l.977,1.664v.026l.264.5.026.053h0a1.553,1.553,0,0,0,.766.729h0a1.427,1.427,0,0,0,1.215.079,1.353,1.353,0,0,0,.845-.9,5.77,5.77,0,0,0,.211-1.532v-.053q0-1.136.026-1.77a3.957,3.957,0,0,1,.291-1.427,1.839,1.839,0,0,1,.66-.713,2.114,2.114,0,0,1,.9-.317,1.918,1.918,0,0,1,.608.106,3.656,3.656,0,0,1,.687.264l2.748,1.215h0a1.738,1.738,0,0,0,1.479-.132h0a1.342,1.342,0,0,0,.687-1.638V26.3a1.992,1.992,0,0,0-.37-.766V25.5l-.343-.449H29.7l-.977-1.374a5.083,5.083,0,0,1-.66-1.321,1.543,1.543,0,0,1,.264-1.453,2.113,2.113,0,0,1,1.347-.872l1.585-.317q1-.211,1.638-.37a1.749,1.749,0,0,0,.925-.608,1.442,1.442,0,0,0,.291-1.242,1.506,1.506,0,0,0-.555-.925H33.5a2.082,2.082,0,0,0-.66-.317h.026q-1.981-.713-2.932-1.11a1.881,1.881,0,0,1-.766-3.065q.4-.476,1-1.136l1.057-1.162a3.022,3.022,0,0,0,.476-.66h0a1.469,1.469,0,0,0,0-1.189q-.449-1.242-1.955-.9-.581.132-1.612.423L26.6,7.91a2.018,2.018,0,0,1-1.77-.343,1.691,1.691,0,0,1-.713-1.585q.053-.608.159-1.506h0q.159-1.374.185-1.585a2.779,2.779,0,0,0,0-.793,1.358,1.358,0,0,0-.528-1V1.051A1.453,1.453,0,0,0,22.615.761a1.675,1.675,0,0,0-.951.608q-.423.476-1.057,1.295L19.656,3.92H19.63a1.96,1.96,0,0,1-1.374.766A1.77,1.77,0,0,1,16.8,4.221a6.467,6.467,0,0,1-.845-1.215L15.165,1.49a2.367,2.367,0,0,0-.291-.5V.961A1.8,1.8,0,0,0,14.346.3,1.458,1.458,0,0,0,12.972.063m.4,1.427h.079a.528.528,0,0,1,.159.211h0a1.992,1.992,0,0,1,.238.449h.026q.264.449.793,1.479a7.313,7.313,0,0,0,1.11,1.585,3.08,3.08,0,0,0,2.615.925,3.313,3.313,0,0,0,2.378-1.295L21.823,3.55q.608-.766,1-1.242a.465.465,0,0,1,.211-.132h.026v.079a1.453,1.453,0,0,1-.026.449q0,.185-.159,1.585A10.61,10.61,0,0,0,22.721,5.9a3.107,3.107,0,0,0,1.295,2.827,3.382,3.382,0,0,0,3.012.581H27l1.612-.449q.951-.291,1.532-.423a.391.391,0,0,1,.264,0h0q-.079.106-.264.317L29.088,9.917q-.66.687-1.057,1.189a3.35,3.35,0,0,0,1.347,5.416l2.959,1.11h.026a1.786,1.786,0,0,1,.264.132h0v.079a.586.586,0,0,1-.185.079q-.581.159-1.532.37l-1.585.317a3.545,3.545,0,0,0-2.219,1.464h0a3.117,3.117,0,0,0-.476,2.721,5.479,5.479,0,0,0,.9,1.744H27.5q.343.5,1,1.427l.343.449h0a.734.734,0,0,1,.159.264h.026a.454.454,0,0,1-.264.026l-2.642-1.189q-.581-.238-.9-.343a3.207,3.207,0,0,0-2.695.4,3.065,3.065,0,0,0-1.162,1.295,4.639,4.639,0,0,0-.449,2.034q0,.634-.026,1.8a7.244,7.244,0,0,1-.132,1.11h0a.4.4,0,0,1-.159-.106q-.211-.37-.291-.528H20.29l-.951-1.638a4.93,4.93,0,0,0-.317-.645,6.055,6.055,0,0,0-.449-.66h-.026a3.012,3.012,0,0,0-1.427-.951,3.17,3.17,0,0,0-1.717-.106A3.318,3.318,0,0,0,13.5,28.3l-.026.053q-.793.925-1.162,1.4v.053a8.38,8.38,0,0,1-.845,1.057h0a.528.528,0,0,1-.317.185h0a1.844,1.844,0,0,1,0-.449l.185-1.8a11.275,11.275,0,0,0,.079-2.193,3.043,3.043,0,0,0-1.374-2.166,3.244,3.244,0,0,0-2.325-.528,15.371,15.371,0,0,0-1.981.476H5.654a10.858,10.858,0,0,1-1.374.423.771.771,0,0,1-.528,0h0a1.485,1.485,0,0,1,.185-.264l1.268-1.4a13.051,13.051,0,0,0,1.268-1.585H6.5a3.17,3.17,0,0,0-1-4.359,11.413,11.413,0,0,0-1.9-.872L1.876,15.7h0l-.343-.159h0a.248.248,0,0,1,.159-.132l.026-.026q.079,0,1.215-.264.528-.106,1.744-.317H4.7a4.174,4.174,0,0,0,1.9-.925,3.107,3.107,0,0,0,1-2.431,4.454,4.454,0,0,0-.793-2.3L5.734,7.513Q5.5,7.2,5.39,7.038h0a2.32,2.32,0,0,1-.185-.343V6.615h0a.18.18,0,0,1,.132-.053l.476.211.581.291H6.42q.5.211,1.585.766h.026a4.185,4.185,0,0,0,2.087.423,3.17,3.17,0,0,0,1.664-.634,3.17,3.17,0,0,0,1.11-1.4,4.158,4.158,0,0,0,.238-.925q0-.238.053-.819l.079-1.955V1.86a2.885,2.885,0,0,1,.053-.317h0a.074.074,0,0,1,.053-.026m-.5,13.077q0-.106-.079-.106H11.625q-.053,0-.053.132,0,.343.026,1t.053,1.057q0,.264-.053.264t-.132-.106l-.5-.66L9.776,14.541q-.079-.106-.132-.106a1.585,1.585,0,0,0-.238,0l-.264.026H8.666q-.106,0-.106.079,0,.37.026,1.11t0,1.11v1.057a7.63,7.63,0,0,1-.053,1.057.1.1,0,0,0,.106.106h1.11q.079,0,.079-.106v-1.11q0-.766-.026-1.136a.106.106,0,0,1,.026-.079l.053.053q.449.581.66.872l1.057,1.4q.079.106.132.106h.264a1.586,1.586,0,0,0,.238,0h.238a1.585,1.585,0,0,1,.238,0,.069.069,0,0,0,.079-.079V16.786q0-.4.053-1.11a8.424,8.424,0,0,0,.026-1.11m4.6.026a.164.164,0,0,0-.185-.132H14.425q-.106,0-.079.079v.053q0,.5.026.766.053,1,.053,1.374t-.053,1.057q0,.713-.026,1.057a.069.069,0,0,0,.079.079h2.959a.106.106,0,0,0,.106-.053A1.585,1.585,0,0,0,17.6,18.4a4.29,4.29,0,0,0,.053-.528q0-.106-.079-.106-.159,0-.528.026a2.258,2.258,0,0,1-.5,0h-.476q-.343,0-.423-.132a1.21,1.21,0,0,1,0-.317V17.13q0-.053.159-.053h.343a7.985,7.985,0,0,1,.845.026h.291q.106,0,.106-.079V16.5l.079-.5a.069.069,0,0,0-.079-.079.777.777,0,0,0-.185,0H16.037l-.106.026a.238.238,0,0,1-.211-.079q-.079-.053-.079-.291a.528.528,0,0,1,0-.238q0-.079.211-.079.687,0,1.532.079h.079q.053,0,.053-.079T17.49,14.8a2.71,2.71,0,0,0-.053-.449m2.589-.106H18.969q-.053,0-.053.106,0,.264-.026.766t-.026.766a24.864,24.864,0,0,0,1.268,2.8.07.07,0,0,0,.079.079,2.3,2.3,0,0,0,.476,0,2.113,2.113,0,0,0,.423,0,.106.106,0,0,0,.079,0l.053-.053q.106-.291.159-.449l.37-.9.343.9a3.35,3.35,0,0,0,.185.449.047.047,0,0,0,.053.053h.079a1.9,1.9,0,0,0,.423,0,2.114,2.114,0,0,0,.449,0h.053s.037,0,.053-.053.28-.6.687-1.479.608-1.305.608-1.321q0-.238-.026-.74v-.581q0-.132-.079-.132H23.46q-.079,0-.079.053,0,.264.026.793a5.362,5.362,0,0,1,0,.766,2.642,2.642,0,0,1-.211.608q-.211.476-.291.634t-.079.116a1.42,1.42,0,0,1-.132-.291,5.479,5.479,0,0,1-.343-1.057v-.159q0-.238.026-.687a4,4,0,0,0,0-.66q-.026-.211-.634-.079a3.915,3.915,0,0,0-.555,0h-.053v1.585a5.443,5.443,0,0,1-.317,1.057q-.106.317-.132.317l-.053-.079q-.106-.185-.317-.634a2.716,2.716,0,0,1-.238-.634v-.766q0-.528.026-.793t-.026-.063Z" transform="translate(-0.002 0.014)"/></g></g></g></svg>