<svg xmlns="http://www.w3.org/2000/svg" xmlns:xlink="http://www.w3.org/1999/xlink" width="54.551" height="54.551" viewBox="0 0 54.551 54.551"><defs><linearGradient id="a" x1="0.5" x2="0.5" y2="1" gradientUnits="objectBoundingBox"><stop offset="0" stop-color="#1cc7fb"/><stop offset="1" stop-color="#4770fd"/></linearGradient><filter id="b" x="0" y="0" width="54.551" height="54.551" filterUnits="userSpaceOnUse"><feOffset dy="2" input="SourceAlpha"/><feGaussianBlur stdDeviation="3" result="c"/><feFlood flood-color="#dbe3ff"/><feComposite operator="in" in2="c"/><feComposite in="SourceGraphic"/></filter><clipPath id="d"><path d="M6.953,0H20.085a6.953,6.953,0,0,1,6.953,6.953V20.085a6.953,6.953,0,0,1-6.953,6.953H6.953A6.953,6.953,0,0,1,0,20.085V6.953A6.953,6.953,0,0,1,6.953,0Z" fill="#3791fa"/></clipPath></defs><g transform="translate(-144 -295)"><g transform="matrix(1, 0, 0, 1, 144, 295)" filter="url(#b)"><path d="M9.4,0H27.151a9.4,9.4,0,0,1,9.4,9.4V27.151a9.4,9.4,0,0,1-9.4,9.4H9.4a9.4,9.4,0,0,1-9.4-9.4V9.4A9.4,9.4,0,0,1,9.4,0Z" transform="translate(9 7)" fill="url(#a)"/></g><g transform="translate(158 307)" clip-path="url(#d)"><g transform="translate(1.114 1.408)"><path d="M9.427.044A1.044,1.044,0,0,0,8.7.677a1.49,1.49,0,0,0-.115.653,3.816,3.816,0,0,0-.019.442l-.058,1.4v.5a2.688,2.688,0,0,1-.1.4,1.359,1.359,0,0,1-.442.557l-.019.019a1.432,1.432,0,0,1-.672.25,2.392,2.392,0,0,1-1-.23q-.806-.384-1.152-.538l-.461-.211h0a2.941,2.941,0,0,0-.518-.211,1.064,1.064,0,0,0-1.075.25v.019a1.01,1.01,0,0,0-.326,1.152,1.593,1.593,0,0,0,.288.538q.1.134.25.384L4.052,7.2a2.43,2.43,0,0,1,.422,1.152,1.29,1.29,0,0,1-.4.941,2.012,2.012,0,0,1-.864.384l-1.286.25q-.941.192-1.094.25Q-.249,10.622.078,11.6a1.041,1.041,0,0,0,.461.6H.558a3.363,3.363,0,0,0,.4.173h0l1.267.48a7.633,7.633,0,0,1,1.152.518,1.275,1.275,0,0,1,.461,1.747h0q-.192.269-.806.979H3l-.9,1.037a1.8,1.8,0,0,0-.346.526.979.979,0,0,0,.038.845h0q.307.826,1.536.576a7.414,7.414,0,0,0,1.152-.346q1.017-.269,1.248-.307a1.486,1.486,0,0,1,.979.211,1.282,1.282,0,0,1,.518.845A7.645,7.645,0,0,1,7.162,20.8l-.134,1.325a2.98,2.98,0,0,0,0,.557h0a1.094,1.094,0,0,0,.442.73q.768.614,1.632-.25h0a5.464,5.464,0,0,0,.691-.9q.269-.326.768-1a1.628,1.628,0,0,1,.806-.5,1.275,1.275,0,0,1,.691.038,1.586,1.586,0,0,1,.6.384h0a2.4,2.4,0,0,1,.23.326v.019a3.417,3.417,0,0,1,.211.384h.019l.71,1.209v.019l.192.365.019.038h0a1.129,1.129,0,0,0,.557.53h0a1.037,1.037,0,0,0,.883.058.983.983,0,0,0,.614-.653,4.193,4.193,0,0,0,.154-1.113v-.038q0-.826.019-1.286A2.876,2.876,0,0,1,16.477,20a1.336,1.336,0,0,1,.48-.518,1.536,1.536,0,0,1,.653-.23,1.394,1.394,0,0,1,.442.077,2.657,2.657,0,0,1,.5.192l2,.883h0a1.263,1.263,0,0,0,1.075-.1h0a.975.975,0,0,0,.5-1.19V19.1a1.448,1.448,0,0,0-.269-.557v-.019L21.6,18.2h-.019l-.71-1a3.694,3.694,0,0,1-.48-.96,1.121,1.121,0,0,1,.192-1.056,1.536,1.536,0,0,1,.979-.634l1.152-.23q.73-.154,1.19-.269a1.271,1.271,0,0,0,.672-.442,1.048,1.048,0,0,0,.211-.9,1.094,1.094,0,0,0-.4-.672h-.038a1.513,1.513,0,0,0-.48-.23h.019q-1.44-.518-2.131-.806A1.367,1.367,0,0,1,21.2,8.779q.288-.346.73-.826l.768-.845a2.2,2.2,0,0,0,.346-.48h0a1.067,1.067,0,0,0,0-.864q-.326-.9-1.421-.653-.422.1-1.171.307l-1.113.326a1.467,1.467,0,0,1-1.286-.25,1.229,1.229,0,0,1-.518-1.152q.038-.442.115-1.094h0q.115-1,.134-1.152a2.019,2.019,0,0,0,0-.576A.987.987,0,0,0,17.4.79V.762a1.056,1.056,0,0,0-.96-.211,1.217,1.217,0,0,0-.691.442q-.307.346-.768.941l-.691.914h-.019a1.424,1.424,0,0,1-1,.557,1.286,1.286,0,0,1-1.056-.338,4.7,4.7,0,0,1-.614-.883l-.576-1.1a1.72,1.72,0,0,0-.211-.365V.7A1.3,1.3,0,0,0,10.43.22a1.06,1.06,0,0,0-1-.173M9.715,1.08h.058a.384.384,0,0,1,.115.154h0a1.447,1.447,0,0,1,.173.326h.019q.192.326.576,1.075a5.314,5.314,0,0,0,.806,1.152,2.238,2.238,0,0,0,1.9.672,2.407,2.407,0,0,0,1.728-.941l.768-.941q.442-.557.73-.9a.338.338,0,0,1,.154-.1h.019v.058a1.056,1.056,0,0,1-.019.326q0,.134-.115,1.152a7.71,7.71,0,0,0-.115,1.171,2.258,2.258,0,0,0,.941,2.054,2.457,2.457,0,0,0,2.189.422h-.019l1.171-.326q.691-.211,1.113-.307a.284.284,0,0,1,.192,0h0q-.058.077-.192.23l-.768.845q-.48.5-.768.864A2.434,2.434,0,0,0,21.349,12l2.15.806h.019a1.3,1.3,0,0,1,.192.1h0v.058a.426.426,0,0,1-.134.058q-.422.115-1.113.269l-1.152.23A2.576,2.576,0,0,0,19.7,14.584h0a2.265,2.265,0,0,0-.346,1.977,3.982,3.982,0,0,0,.653,1.267h-.019q.25.365.73,1.037l.25.326h0a.534.534,0,0,1,.115.192H21.1a.33.33,0,0,1-.192.019l-1.92-.864q-.422-.173-.653-.25a2.331,2.331,0,0,0-1.958.288,2.227,2.227,0,0,0-.845.941A3.371,3.371,0,0,0,15.206,21q0,.461-.019,1.305a5.264,5.264,0,0,1-.1.806h0a.288.288,0,0,1-.115-.077q-.154-.269-.211-.384h-.019l-.691-1.19a3.582,3.582,0,0,0-.23-.468,4.4,4.4,0,0,0-.326-.48h-.019a2.189,2.189,0,0,0-1.037-.691,2.3,2.3,0,0,0-1.248-.077,2.411,2.411,0,0,0-1.382.826l-.019.038q-.576.672-.845,1.017v.038a6.09,6.09,0,0,1-.614.768h0a.384.384,0,0,1-.23.134h0a1.34,1.34,0,0,1,0-.326l.134-1.3a8.194,8.194,0,0,0,.058-1.593,2.212,2.212,0,0,0-1-1.574A2.358,2.358,0,0,0,5.6,17.383a11.17,11.17,0,0,0-1.44.346H4.109a7.89,7.89,0,0,1-1,.307.561.561,0,0,1-.384,0h0a1.079,1.079,0,0,1,.134-.192l.922-1.017A9.484,9.484,0,0,0,4.7,15.671h.019a2.3,2.3,0,0,0-.73-3.168,8.293,8.293,0,0,0-1.382-.634l-1.248-.461h0l-.25-.115h0a.18.18,0,0,1,.115-.1l.019-.019q.058,0,.883-.192.384-.077,1.267-.23h.019A3.033,3.033,0,0,0,4.8,10.084a2.258,2.258,0,0,0,.73-1.766,3.237,3.237,0,0,0-.576-1.67l-.787-1.19q-.173-.23-.25-.346h0a1.686,1.686,0,0,1-.134-.25q0-.038,0-.058h0a.131.131,0,0,1,.1-.038l.346.154.422.211H4.67q.365.154,1.152.557h.019a3.041,3.041,0,0,0,1.517.307,2.3,2.3,0,0,0,1.209-.461,2.3,2.3,0,0,0,.806-1.017,3.022,3.022,0,0,0,.173-.672q0-.173.038-.6l.058-1.421v-.48a2.1,2.1,0,0,1,.038-.23h0A.054.054,0,0,1,9.715,1.1M9.35,10.6q0-.077-.058-.077H8.448q-.038,0-.038.1,0,.25.019.73t.038.768q0,.192-.038.192t-.1-.077l-.365-.48L7.1,10.564q-.058-.077-.1-.077a1.152,1.152,0,0,0-.173,0l-.192.019H6.3q-.077,0-.077.058,0,.269.019.806t0,.806v.768a5.545,5.545,0,0,1-.038.768.069.069,0,0,0,.077.077h.806q.058,0,.058-.077v-.806q0-.557-.019-.826a.077.077,0,0,1,.019-.058l.038.038q.326.422.48.634l.768,1.017q.058.077.1.077h.192a1.152,1.152,0,0,0,.173,0h.173a1.152,1.152,0,0,1,.173,0A.05.05,0,0,0,9.3,13.73V12.2q0-.288.038-.806a6.121,6.121,0,0,0,.019-.806m3.34.019a.119.119,0,0,0-.134-.1h-2.08q-.077,0-.058.058V10.6q0,.365.019.557.038.73.038,1t-.038.768q0,.518-.019.768a.05.05,0,0,0,.058.058h2.15a.077.077,0,0,0,.077-.038,1.152,1.152,0,0,0,.077-.346,3.117,3.117,0,0,0,.038-.384q0-.077-.058-.077-.115,0-.384.019a1.641,1.641,0,0,1-.365,0h-.346q-.25,0-.307-.1a.879.879,0,0,1,0-.23v-.154q0-.038.115-.038h.25a5.8,5.8,0,0,1,.614.019h.211q.077,0,.077-.058V11.98l.058-.365a.05.05,0,0,0-.058-.058.564.564,0,0,0-.134,0h-.845l-.077.019a.173.173,0,0,1-.154-.058q-.058-.038-.058-.211a.384.384,0,0,1,0-.173q0-.058.154-.058.5,0,1.113.058h.058q.038,0,.038-.058t-.019-.326a1.97,1.97,0,0,0-.038-.326m1.881-.077h-.768q-.038,0-.038.077,0,.192-.019.557t-.019.557a18.069,18.069,0,0,0,.922,2.035.051.051,0,0,0,.058.058,1.674,1.674,0,0,0,.346,0,1.536,1.536,0,0,0,.307,0,.077.077,0,0,0,.058,0l.038-.038q.077-.211.115-.326l.269-.653.25.653a2.435,2.435,0,0,0,.134.326.034.034,0,0,0,.038.038H16.3a1.382,1.382,0,0,0,.307,0,1.536,1.536,0,0,0,.326,0h.038s.027,0,.038-.038.2-.434.5-1.075.442-.948.442-.96q0-.173-.019-.538V10.6q0-.1-.058-.1h-.826q-.058,0-.058.038,0,.192.019.576a3.9,3.9,0,0,1,0,.557,1.92,1.92,0,0,1-.154.442q-.154.346-.211.461t-.058.084a1.032,1.032,0,0,1-.1-.211,3.981,3.981,0,0,1-.25-.768V11.57q0-.173.019-.5a2.908,2.908,0,0,0,0-.48q-.019-.154-.461-.058a2.845,2.845,0,0,0-.4,0h-.038v1.152a3.955,3.955,0,0,1-.23.768q-.077.23-.1.23l-.038-.058q-.077-.134-.23-.461a1.974,1.974,0,0,1-.173-.461v-.557q0-.384.019-.576t-.019-.046Z" transform="translate(-0.002 0.013)" fill="#fff"/></g></g></g></svg>