<svg xmlns="http://www.w3.org/2000/svg" width="32" height="32" viewBox="0 0 32 32"><g transform="translate(-23 -433)"><rect width="32" height="32" rx="16" transform="translate(23 433)" fill="rgba(2,119,255,0.1)"/><g transform="translate(30 440)"><g transform="translate(0 0)"><path d="M7.053.028A.781.781,0,0,0,6.507.5,1.114,1.114,0,0,0,6.421.99a2.855,2.855,0,0,0-.014.33L6.363,2.369v.373a2.011,2.011,0,0,1-.072.3,1.017,1.017,0,0,1-.33.416l-.014.014a1.071,1.071,0,0,1-.5.187A1.789,1.789,0,0,1,4.7,3.489q-.6-.287-.862-.4l-.345-.158h0A2.2,2.2,0,0,0,3.1,2.771a.8.8,0,0,0-.8.187v.014a.755.755,0,0,0-.244.862,1.192,1.192,0,0,0,.215.4q.072.1.187.287l.574.862a1.818,1.818,0,0,1,.316.862.965.965,0,0,1-.3.7,1.505,1.505,0,0,1-.646.287l-.962.187q-.7.144-.819.187-.8.33-.56,1.063A.778.778,0,0,0,.4,9.119H.418a2.516,2.516,0,0,0,.3.129h0l.948.359a5.71,5.71,0,0,1,.862.388A.954.954,0,0,1,2.874,11.3h0q-.144.2-.6.732H2.242l-.675.776a1.344,1.344,0,0,0-.259.394.732.732,0,0,0,.029.632h0q.23.618,1.149.431a5.547,5.547,0,0,0,.862-.259q.761-.2.934-.23a1.112,1.112,0,0,1,.732.158.959.959,0,0,1,.388.632,5.719,5.719,0,0,1-.043.991l-.1.991a2.229,2.229,0,0,0,0,.416h0a.819.819,0,0,0,.33.546q.574.46,1.221-.187h0a4.087,4.087,0,0,0,.517-.675q.2-.244.574-.747a1.218,1.218,0,0,1,.6-.373.954.954,0,0,1,.517.029,1.186,1.186,0,0,1,.445.287h0a1.8,1.8,0,0,1,.172.244V16.1a2.557,2.557,0,0,1,.158.287H9.81l.531.9v.014l.144.273.014.029h0a.844.844,0,0,0,.416.4h0a.776.776,0,0,0,.661.043.735.735,0,0,0,.46-.488,3.136,3.136,0,0,0,.115-.833V16.7q0-.618.014-.962a2.151,2.151,0,0,1,.158-.776,1,1,0,0,1,.359-.388,1.149,1.149,0,0,1,.488-.172,1.043,1.043,0,0,1,.33.057,1.988,1.988,0,0,1,.373.144l1.494.661h0a.945.945,0,0,0,.8-.072h0a.73.73,0,0,0,.373-.89v-.014a1.083,1.083,0,0,0-.2-.416v-.014l-.187-.244h-.014l-.531-.747a2.763,2.763,0,0,1-.359-.718.839.839,0,0,1,.144-.79,1.149,1.149,0,0,1,.732-.474l.862-.172q.546-.115.89-.2a.951.951,0,0,0,.5-.33.784.784,0,0,0,.158-.675.819.819,0,0,0-.3-.5h-.029a1.132,1.132,0,0,0-.359-.172h.014q-1.077-.388-1.594-.6a1.023,1.023,0,0,1-.416-1.666q.215-.259.546-.618l.574-.632a1.643,1.643,0,0,0,.259-.359h0a.8.8,0,0,0,0-.646q-.244-.675-1.063-.488-.316.072-.876.23l-.833.244a1.1,1.1,0,0,1-.962-.187.919.919,0,0,1-.388-.862q.029-.33.086-.819h0q.086-.747.1-.862a1.511,1.511,0,0,0,0-.431.738.738,0,0,0-.287-.546V.565a.79.79,0,0,0-.718-.158.911.911,0,0,0-.517.33q-.23.259-.574.7l-.517.684h-.014a1.066,1.066,0,0,1-.747.416.962.962,0,0,1-.79-.253,3.516,3.516,0,0,1-.46-.661L8.245.8A1.287,1.287,0,0,0,8.087.531V.516A.977.977,0,0,0,7.8.157.793.793,0,0,0,7.053.028M7.268.8h.043A.287.287,0,0,1,7.4.918h0a1.083,1.083,0,0,1,.129.244h.014q.144.244.431.8a3.975,3.975,0,0,0,.6.862,1.675,1.675,0,0,0,1.422.5,1.8,1.8,0,0,0,1.293-.7l.574-.7q.33-.416.546-.675a.253.253,0,0,1,.115-.072h.014V1.22a.79.79,0,0,1-.014.244q0,.1-.086.862a5.768,5.768,0,0,0-.086.876,1.689,1.689,0,0,0,.7,1.537,1.838,1.838,0,0,0,1.637.316h-.014l.876-.244q.517-.158.833-.23a.213.213,0,0,1,.144,0h0q-.043.057-.144.172l-.574.632q-.359.373-.574.646a1.821,1.821,0,0,0,.732,2.944l1.609.6h.014a.971.971,0,0,1,.144.072h0v.043a.319.319,0,0,1-.1.043q-.316.086-.833.2l-.862.172a1.927,1.927,0,0,0-1.206.8h0a1.7,1.7,0,0,0-.259,1.479,2.979,2.979,0,0,0,.488.948h-.014q.187.273.546.776l.187.244h0a.4.4,0,0,1,.086.144h.014a.247.247,0,0,1-.144.014L14.2,13.864q-.316-.129-.488-.187a1.744,1.744,0,0,0-1.465.215,1.666,1.666,0,0,0-.632.7,2.522,2.522,0,0,0-.244,1.106q0,.345-.014.977a3.938,3.938,0,0,1-.072.6h0a.215.215,0,0,1-.086-.057q-.115-.2-.158-.287h-.014l-.517-.89a2.68,2.68,0,0,0-.172-.35,3.291,3.291,0,0,0-.244-.359h-.014a1.637,1.637,0,0,0-.776-.517,1.723,1.723,0,0,0-.934-.057,1.8,1.8,0,0,0-1.034.618l-.014.029q-.431.5-.632.761V16.2a4.555,4.555,0,0,1-.46.574h0a.287.287,0,0,1-.172.1h0a1,1,0,0,1,0-.244l.1-.977a6.129,6.129,0,0,0,.043-1.192,1.654,1.654,0,0,0-.747-1.178A1.764,1.764,0,0,0,4.195,13a8.356,8.356,0,0,0-1.077.259H3.075a5.9,5.9,0,0,1-.747.23.419.419,0,0,1-.287,0h0a.807.807,0,0,1,.1-.144l.689-.761a7.1,7.1,0,0,0,.689-.862h.014a1.723,1.723,0,0,0-.546-2.37,6.2,6.2,0,0,0-1.034-.474L1.021,8.53h0L.834,8.444h0A.135.135,0,0,1,.92,8.372l.014-.014q.043,0,.661-.144.287-.057.948-.172h.014a2.269,2.269,0,0,0,1.034-.5,1.689,1.689,0,0,0,.546-1.321,2.421,2.421,0,0,0-.431-1.249l-.589-.89q-.129-.172-.187-.259h0a1.261,1.261,0,0,1-.1-.187V3.59h0A.1.1,0,0,1,2.9,3.561l.259.115.316.158h.014q.273.115.862.416h.014A2.275,2.275,0,0,0,5.5,4.48a1.723,1.723,0,0,0,.9-.345,1.723,1.723,0,0,0,.6-.761,2.261,2.261,0,0,0,.129-.5q0-.129.029-.445l.043-1.063V1A1.568,1.568,0,0,1,7.239.832h0A.04.04,0,0,1,7.268.818M7,7.927q0-.057-.043-.057H6.32q-.029,0-.029.072,0,.187.014.546t.029.574q0,.144-.029.144t-.072-.057l-.273-.359L5.315,7.9q-.043-.057-.072-.057a.862.862,0,0,0-.129,0l-.144.014H4.712q-.057,0-.057.043,0,.2.014.6t0,.6v.574a4.148,4.148,0,0,1-.029.574.052.052,0,0,0,.057.057h.6q.043,0,.043-.057v-.6q0-.416-.014-.618a.057.057,0,0,1,.014-.043l.029.029q.244.316.359.474l.574.761q.043.057.072.057h.144a.862.862,0,0,0,.129,0H6.78a.861.861,0,0,1,.129,0,.037.037,0,0,0,.043-.043V9.119q0-.215.029-.6A4.579,4.579,0,0,0,7,7.912m2.5.014a.089.089,0,0,0-.1-.072H7.843q-.057,0-.043.043v.029q0,.273.014.416.029.546.029.747t-.029.574q0,.388-.014.574a.037.037,0,0,0,.043.043H9.451a.057.057,0,0,0,.057-.029.862.862,0,0,0,.057-.259,2.332,2.332,0,0,0,.029-.287q0-.057-.043-.057-.086,0-.287.014a1.227,1.227,0,0,1-.273,0H8.733q-.187,0-.23-.072a.658.658,0,0,1,0-.172V9.306q0-.029.086-.029h.187a4.341,4.341,0,0,1,.46.014h.158q.057,0,.057-.043V8.961l.043-.273a.037.037,0,0,0-.043-.043.422.422,0,0,0-.1,0H8.719l-.057.014a.129.129,0,0,1-.115-.043Q8.5,8.587,8.5,8.458a.287.287,0,0,1,0-.129q0-.043.115-.043.373,0,.833.043h.043q.029,0,.029-.043t-.014-.244A1.474,1.474,0,0,0,9.48,7.8m1.407-.057h-.574q-.029,0-.029.057,0,.144-.014.416t-.014.416a13.516,13.516,0,0,0,.689,1.522.038.038,0,0,0,.043.043,1.252,1.252,0,0,0,.259,0,1.149,1.149,0,0,0,.23,0,.057.057,0,0,0,.043,0l.029-.029q.057-.158.086-.244l.2-.488.187.488a1.821,1.821,0,0,0,.1.244.025.025,0,0,0,.029.029h.043a1.034,1.034,0,0,0,.23,0,1.149,1.149,0,0,0,.244,0H12.7s.02,0,.029-.029.152-.325.373-.8.33-.709.33-.718q0-.129-.014-.4V7.927q0-.072-.043-.072h-.618q-.043,0-.043.029,0,.144.014.431a2.915,2.915,0,0,1,0,.416,1.436,1.436,0,0,1-.115.33q-.115.259-.158.345t-.043.063a.772.772,0,0,1-.072-.158,2.978,2.978,0,0,1-.187-.574V8.651q0-.129.014-.373a2.175,2.175,0,0,0,0-.359q-.014-.115-.345-.043a2.128,2.128,0,0,0-.3,0H11.49v.862a2.959,2.959,0,0,1-.172.574q-.057.172-.072.172l-.029-.043q-.057-.1-.172-.345a1.476,1.476,0,0,1-.129-.345V8.335q0-.287.014-.431t-.014-.034Z" transform="translate(-0.002 0.014)" fill="#0277ff"/></g></g></g></svg>