<svg xmlns="http://www.w3.org/2000/svg" xmlns:xlink="http://www.w3.org/1999/xlink" width="54.55" height="54.55" viewBox="0 0 54.55 54.55"><defs><linearGradient id="a" x1="0.5" x2="0.5" y2="1" gradientUnits="objectBoundingBox"><stop offset="0" stop-color="#ff2c32"/><stop offset="1" stop-color="#d81f0c"/></linearGradient><filter id="b" x="0" y="0" width="54.55" height="54.55" filterUnits="userSpaceOnUse"><feOffset dy="2" input="SourceAlpha"/><feGaussianBlur stdDeviation="3" result="c"/><feFlood flood-color="#dbe3ff"/><feComposite operator="in" in2="c"/><feComposite in="SourceGraphic"/></filter></defs><g transform="translate(-320 -2485)"><g transform="translate(175.5 2190)"><g transform="matrix(1, 0, 0, 1, 144.5, 295)" filter="url(#b)"><path d="M9.4,0H27.151a9.4,9.4,0,0,1,9.4,9.4V27.151a9.4,9.4,0,0,1-9.4,9.4H9.4a9.4,9.4,0,0,1-9.4-9.4V9.4A9.4,9.4,0,0,1,9.4,0Z" transform="translate(9 7)" fill="url(#a)"/></g></g><g transform="translate(334.998 2498.017)"><g transform="translate(0.002 -0.016)"><path d="M9.763.042A1.082,1.082,0,0,0,9.008.7a1.543,1.543,0,0,0-.119.676,3.953,3.953,0,0,0-.02.457l-.06,1.451V3.8a2.783,2.783,0,0,1-.1.418,1.408,1.408,0,0,1-.457.577l-.02.02a1.483,1.483,0,0,1-.7.258A2.477,2.477,0,0,1,6.5,4.834q-.835-.4-1.193-.557l-.477-.219h0A3.046,3.046,0,0,0,4.3,3.839,1.1,1.1,0,0,0,3.182,4.1v.02a1.046,1.046,0,0,0-.338,1.193,1.65,1.65,0,0,0,.3.557q.1.139.258.4l.8,1.193a2.517,2.517,0,0,1,.437,1.193,1.336,1.336,0,0,1-.418.974,2.084,2.084,0,0,1-.895.4l-1.332.258q-.974.2-1.133.258Q-.257,11,.081,12.011a1.078,1.078,0,0,0,.477.616h.02A3.483,3.483,0,0,0,1,12.806H1l1.312.5A7.905,7.905,0,0,1,3.5,13.84a1.32,1.32,0,0,1,.477,1.809h0q-.2.278-.835,1.014H3.1l-.934,1.074a1.861,1.861,0,0,0-.358.545,1.014,1.014,0,0,0,.04.875h0q.318.855,1.591.6A7.679,7.679,0,0,0,4.634,19.4q1.054-.278,1.292-.318A1.539,1.539,0,0,1,6.94,19.3a1.328,1.328,0,0,1,.537.875,7.917,7.917,0,0,1-.06,1.372l-.139,1.372a3.086,3.086,0,0,0,0,.577h0a1.133,1.133,0,0,0,.457.756q.8.636,1.69-.258h0a5.659,5.659,0,0,0,.716-.934q.278-.338.8-1.034a1.686,1.686,0,0,1,.835-.517,1.32,1.32,0,0,1,.716.04,1.642,1.642,0,0,1,.616.4h0a2.485,2.485,0,0,1,.239.338v.02a3.539,3.539,0,0,1,.219.4h.02l.736,1.253v.02l.2.378.02.04h0a1.169,1.169,0,0,0,.577.549h0a1.074,1.074,0,0,0,.915.06,1.018,1.018,0,0,0,.636-.676,4.342,4.342,0,0,0,.159-1.153v-.04q0-.855.02-1.332a2.978,2.978,0,0,1,.219-1.074,1.384,1.384,0,0,1,.5-.537,1.591,1.591,0,0,1,.676-.239,1.444,1.444,0,0,1,.457.08,2.752,2.752,0,0,1,.517.2l2.068.915h0a1.308,1.308,0,0,0,1.113-.1h0a1.01,1.01,0,0,0,.517-1.233v-.02a1.5,1.5,0,0,0-.278-.577v-.02l-.258-.338h-.02l-.736-1.034a3.825,3.825,0,0,1-.5-.994,1.161,1.161,0,0,1,.2-1.094,1.591,1.591,0,0,1,1.014-.656l1.193-.239q.756-.159,1.233-.278a1.316,1.316,0,0,0,.7-.457,1.086,1.086,0,0,0,.219-.934,1.133,1.133,0,0,0-.418-.7h-.04a1.567,1.567,0,0,0-.5-.239h.02q-1.491-.537-2.207-.835a1.416,1.416,0,0,1-.577-2.306q.3-.358.756-.855l.8-.875a2.274,2.274,0,0,0,.358-.5h0a1.105,1.105,0,0,0,0-.895q-.338-.934-1.471-.676-.437.1-1.213.318l-1.153.338a1.519,1.519,0,0,1-1.332-.258A1.272,1.272,0,0,1,18.154,4.5q.04-.457.119-1.133h0q.119-1.034.139-1.193a2.092,2.092,0,0,0,0-.6,1.022,1.022,0,0,0-.4-.756V.785A1.094,1.094,0,0,0,17.02.567a1.261,1.261,0,0,0-.716.457q-.318.358-.8.974l-.716.946h-.02a1.475,1.475,0,0,1-1.034.577,1.332,1.332,0,0,1-1.094-.35,4.867,4.867,0,0,1-.636-.915l-.6-1.141a1.782,1.782,0,0,0-.219-.378V.718a1.352,1.352,0,0,0-.4-.5A1.1,1.1,0,0,0,9.763.042m.3,1.074h.06a.4.4,0,0,1,.119.159h0a1.5,1.5,0,0,1,.179.338h.02q.2.338.6,1.113a5.5,5.5,0,0,0,.835,1.193,2.318,2.318,0,0,0,1.968.7,2.493,2.493,0,0,0,1.789-.974l.8-.974q.457-.577.756-.934a.35.35,0,0,1,.159-.1h.02v.06a1.094,1.094,0,0,1-.02.338q0,.139-.119,1.193A7.985,7.985,0,0,0,17.1,4.436a2.338,2.338,0,0,0,.974,2.127A2.545,2.545,0,0,0,20.341,7h-.02l1.213-.338q.716-.219,1.153-.318a.294.294,0,0,1,.2,0h0q-.06.08-.2.239l-.8.875q-.5.517-.8.895a2.521,2.521,0,0,0,1.014,4.076l2.227.835h.02a1.344,1.344,0,0,1,.2.1h0v.06a.441.441,0,0,1-.139.06q-.437.119-1.153.278L22.071,14a2.668,2.668,0,0,0-1.67,1.1h0a2.346,2.346,0,0,0-.358,2.048,4.124,4.124,0,0,0,.676,1.312H20.7q.258.378.756,1.074l.258.338h0a.553.553,0,0,1,.119.2h.02a.342.342,0,0,1-.2.02L19.665,19.2q-.437-.179-.676-.258a2.414,2.414,0,0,0-2.028.3,2.306,2.306,0,0,0-.875.974,3.491,3.491,0,0,0-.338,1.531q0,.477-.02,1.352a5.451,5.451,0,0,1-.1.835h0a.3.3,0,0,1-.119-.08q-.159-.278-.219-.4h-.02l-.716-1.233a3.71,3.71,0,0,0-.239-.485,4.557,4.557,0,0,0-.338-.5h-.02a2.267,2.267,0,0,0-1.074-.716,2.386,2.386,0,0,0-1.292-.08,2.5,2.5,0,0,0-1.432.855l-.02.04q-.6.7-.875,1.054v.04a6.307,6.307,0,0,1-.636.8h0a.4.4,0,0,1-.239.139h0a1.388,1.388,0,0,1,0-.338l.139-1.352a8.486,8.486,0,0,0,.06-1.65,2.29,2.29,0,0,0-1.034-1.63,2.442,2.442,0,0,0-1.75-.4,11.568,11.568,0,0,0-1.491.358h-.06a8.172,8.172,0,0,1-1.034.318.581.581,0,0,1-.4,0h0a1.117,1.117,0,0,1,.139-.2l.954-1.054a9.822,9.822,0,0,0,.954-1.193h.02a2.386,2.386,0,0,0-.756-3.281,8.589,8.589,0,0,0-1.432-.656l-1.292-.477h0l-.258-.119h0a.187.187,0,0,1,.119-.1l.02-.02q.06,0,.915-.2.4-.08,1.312-.239h.02a3.141,3.141,0,0,0,1.432-.7,2.338,2.338,0,0,0,.756-1.829,3.352,3.352,0,0,0-.6-1.73L4.316,5.649q-.179-.239-.258-.358h0a1.746,1.746,0,0,1-.139-.258q0-.04,0-.06h0a.135.135,0,0,1,.1-.04l.358.159.437.219h.02q.378.159,1.193.577h.02a3.149,3.149,0,0,0,1.571.318,2.386,2.386,0,0,0,1.253-.477A2.386,2.386,0,0,0,9.7,4.674a3.129,3.129,0,0,0,.179-.7q0-.179.04-.616l.06-1.471v-.5a2.171,2.171,0,0,1,.04-.239h0a.056.056,0,0,1,.04-.02m-.378,9.842q0-.08-.06-.08H8.749q-.04,0-.04.1,0,.258.02.756t.04.8q0,.2-.04.2t-.1-.08l-.378-.5-.895-1.233q-.06-.08-.1-.08a1.193,1.193,0,0,0-.179,0l-.2.02H6.523q-.08,0-.08.06,0,.278.02.835t0,.835v.8a5.743,5.743,0,0,1-.04.8.072.072,0,0,0,.08.08h.835q.06,0,.06-.08v-.835q0-.577-.02-.855a.08.08,0,0,1,.02-.06l.04.04q.338.437.5.656l.8,1.054q.06.08.1.08h.2a1.194,1.194,0,0,0,.179,0h.179a1.193,1.193,0,0,1,.179,0,.052.052,0,0,0,.06-.06V12.627q0-.3.04-.835a6.34,6.34,0,0,0,.02-.835m3.46.02a.123.123,0,0,0-.139-.1H10.857q-.08,0-.06.06v.04q0,.378.02.577.04.756.04,1.034t-.04.8q0,.537-.02.8a.052.052,0,0,0,.06.06h2.227a.08.08,0,0,0,.08-.04,1.193,1.193,0,0,0,.08-.358,3.229,3.229,0,0,0,.04-.4q0-.08-.06-.08-.119,0-.4.02a1.7,1.7,0,0,1-.378,0H12.09q-.258,0-.318-.1a.911.911,0,0,1,0-.239v-.159q0-.04.119-.04h.258a6.009,6.009,0,0,1,.636.02H13q.08,0,.08-.06v-.4l.06-.378a.052.052,0,0,0-.06-.06.585.585,0,0,0-.139,0H12.07l-.08.02a.179.179,0,0,1-.159-.06q-.06-.04-.06-.219a.4.4,0,0,1,0-.179q0-.06.159-.06.517,0,1.153.06h.06q.04,0,.04-.06t-.02-.338a2.04,2.04,0,0,0-.04-.338m1.948-.08h-.8q-.04,0-.04.08,0,.2-.02.577t-.02.577a18.713,18.713,0,0,0,.954,2.108.053.053,0,0,0,.06.06,1.734,1.734,0,0,0,.358,0,1.591,1.591,0,0,0,.318,0,.08.08,0,0,0,.06,0l.04-.04q.08-.219.119-.338l.278-.676.258.676a2.521,2.521,0,0,0,.139.338.035.035,0,0,0,.04.04h.06a1.431,1.431,0,0,0,.318,0,1.591,1.591,0,0,0,.338,0h.04s.028,0,.04-.04.211-.449.517-1.113.457-.982.457-.994q0-.179-.02-.557v-.437q0-.1-.06-.1h-.855q-.06,0-.06.04,0,.2.02.6a4.035,4.035,0,0,1,0,.577,1.988,1.988,0,0,1-.159.457q-.159.358-.219.477t-.06.087a1.069,1.069,0,0,1-.1-.219,4.123,4.123,0,0,1-.258-.8v-.119q0-.179.02-.517a3.011,3.011,0,0,0,0-.5q-.02-.159-.477-.06a2.947,2.947,0,0,0-.418,0h-.04V12.1a4.1,4.1,0,0,1-.239.8q-.08.239-.1.239l-.04-.06q-.08-.139-.239-.477a2.044,2.044,0,0,1-.179-.477v-.577q0-.4.02-.6t-.02-.048Z" transform="translate(-0.002 0.016)" fill="#fff"/></g></g></g></svg>