<svg xmlns="http://www.w3.org/2000/svg" xmlns:xlink="http://www.w3.org/1999/xlink" width="63" height="63" viewBox="0 0 63 63"><defs><linearGradient id="a" x1="0.5" x2="0.5" y2="1" gradientUnits="objectBoundingBox"><stop offset="0" stop-color="#ff5539"/><stop offset="1" stop-color="#d02e14"/></linearGradient><filter id="b" x="0" y="0" width="63" height="63" filterUnits="userSpaceOnUse"><feOffset dy="2" input="SourceAlpha"/><feGaussianBlur stdDeviation="3" result="c"/><feFlood flood-color="#dbe3ff"/><feComposite operator="in" in2="c"/><feComposite in="SourceGraphic"/></filter></defs><g transform="translate(-144.104 -295.5)"><g transform="matrix(1, 0, 0, 1, 144.1, 295.5)" filter="url(#b)"><path d="M11.571,0H33.429A11.571,11.571,0,0,1,45,11.571V33.429A11.571,11.571,0,0,1,33.429,45H11.571A11.571,11.571,0,0,1,0,33.429V11.571A11.571,11.571,0,0,1,11.571,0Z" transform="translate(9 7)" fill="url(#a)"/></g><path d="M25.332,6H5.481A2.478,2.478,0,0,0,3.012,8.481L3,23.369A2.489,2.489,0,0,0,5.481,25.85h19.85a2.489,2.489,0,0,0,2.481-2.481V8.481A2.489,2.489,0,0,0,25.332,6Zm0,4.963-9.925,6.2-9.925-6.2V8.481l9.925,6.2,9.925-6.2Z" transform="translate(160.104 309.5)" fill="#fff"/></g></svg>