<svg xmlns="http://www.w3.org/2000/svg" xmlns:xlink="http://www.w3.org/1999/xlink" width="54.55" height="54.55" viewBox="0 0 54.55 54.55"><defs><linearGradient id="a" x1="0.5" x2="0.5" y2="1" gradientUnits="objectBoundingBox"><stop offset="0" stop-color="#ff24ee"/><stop offset="1" stop-color="#c700b8"/></linearGradient><filter id="b" x="0" y="0" width="54.55" height="54.55" filterUnits="userSpaceOnUse"><feOffset dy="2" input="SourceAlpha"/><feGaussianBlur stdDeviation="3" result="c"/><feFlood flood-color="#dbe3ff"/><feComposite operator="in" in2="c"/><feComposite in="SourceGraphic"/></filter></defs><g transform="translate(-551 -695)"><g transform="matrix(1, 0, 0, 1, 551, 695)" filter="url(#b)"><path d="M9.4,0H27.151a9.4,9.4,0,0,1,9.4,9.4V27.151a9.4,9.4,0,0,1-9.4,9.4H9.4a9.4,9.4,0,0,1-9.4-9.4V9.4A9.4,9.4,0,0,1,9.4,0Z" transform="translate(9 7)" fill="url(#a)"/></g><g transform="translate(558.741 707.383)"><path d="M30.928,4.342a2.133,2.133,0,0,0-2.016.63,2.217,2.217,0,0,0-.463-.621,3.02,3.02,0,0,1,2.459-1.77c1.968-.133.5-4.236-2.068-2.068a4.855,4.855,0,0,0-1.549,3.269,2.257,2.257,0,0,0-.351-.031,2.192,2.192,0,0,0-.992.238A10.936,10.936,0,0,0,10.094,2.242c.343-.11.69-.2,1.034-.275a12.727,12.727,0,0,1,1.483-.226,15.6,15.6,0,0,1,2.623-.008,14.471,14.471,0,0,1,2.5.405,14.4,14.4,0,0,0-2.505-.093,15.057,15.057,0,0,0-2.52.321,12.091,12.091,0,0,0-1.361.384,9.569,9.569,0,0,0-1.321.569,8.343,8.343,0,0,0-1.194.753c-.188.135-.354.293-.528.434-.16.158-.32.31-.468.468-.051.055-.093.113-.141.169a10.891,10.891,0,0,0-1.435,5.414V15l.027,0s0,.116,0,.334c0,.054,0,.115,0,.181s.012.1.017.158a3.546,3.546,0,0,0,.052.4,5.269,5.269,0,0,0,.123.563l.086.323.12.345A10.1,10.1,0,0,0,7.4,18.884a13.29,13.29,0,0,0,1.153,1.749,15.408,15.408,0,0,0,1.594,1.753,16.015,16.015,0,0,0,2,1.59q.277.187.566.361l.026.006c.274.073.561.152.867.2a17.045,17.045,0,0,0,1.97.3,14.287,14.287,0,0,0,2.2.024l.571-.043.573-.085c.386-.043.764-.154,1.148-.233a12.23,12.23,0,0,0,2.211-.832,12.079,12.079,0,0,0,1.968-1.256,11.967,11.967,0,0,0,2.82-3.262,12.552,12.552,0,0,0,.816-1.661c.094-.249.178-.488.253-.719V10.557a10.963,10.963,0,0,0-.309-2.58,2.209,2.209,0,0,0,1.305-1.807,3.1,3.1,0,0,1,1.988.1C32.17,6.761,32.726,4.669,30.928,4.342Zm-5.453,9.975a4.6,4.6,0,0,1-6.255,1.8,4.817,4.817,0,0,0-4.258.044,4.6,4.6,0,0,1-4.286-8.148,14.027,14.027,0,0,1,12.995.044A4.6,4.6,0,0,1,25.475,14.317Z" transform="translate(0 0)" fill="#fff"/><path d="M22.29,38.377l1.917.825c-.87.166-1.5.675-1.5,1.276,0,.737.949,1.334,2.12,1.334s2.12-.6,2.12-1.334a.872.872,0,0,0-.008-.1l1.172.5A6.689,6.689,0,0,0,22.29,38.377Z" transform="translate(-11.629 -28.11)" fill="#fff"/><path d="M49.9,40.88l.845-.364c.031.72.966,1.3,2.116,1.3,1.171,0,2.12-.6,2.12-1.334,0-.552-.533-1.026-1.293-1.229l2.028-.872A6.687,6.687,0,0,0,49.9,40.88Z" transform="translate(-31.661 -28.111)" fill="#fff"/><path d="M46.951,80.919A13.625,13.625,0,0,1,44.578,82.1a13.485,13.485,0,0,1-2.541.663c-.429.044-.85.118-1.271.122l-.624.026L39.53,82.9a15.1,15.1,0,0,1-2.3-.268q-.518-.107-1-.231a16.011,16.011,0,0,0,2.514.847,15.287,15.287,0,0,0,2.576.386l.631.038.622,0c.411.01.812-.029,1.2-.056s.769-.086,1.137-.133.718-.12,1.056-.19c.681-.121,1.282-.322,1.827-.463.289-.1.557-.19.805-.273a2.107,2.107,0,0,0,1.278-1.888h0V78.385c-.278.319-.574.634-.893.936A14.5,14.5,0,0,1,46.951,80.919Z" transform="translate(-21.739 -57.14)" fill="#fff"/><path d="M14.035,82.232a17.231,17.231,0,0,1-2.627-1.179,17.476,17.476,0,0,1-2.329-1.564,17.2,17.2,0,0,1-1.93-1.8q-.477-.533-.889-1.065v2.764h0c.027,1.287,1.076,1.945,2.4,2.352,0,0,2.669,1.156,8.223,1.2l-.071-.009A17.136,17.136,0,0,1,14.035,82.232Z" transform="translate(0 -55.86)" fill="#fff"/></g></g></svg>