<svg xmlns="http://www.w3.org/2000/svg" width="32" height="32" viewBox="0 0 32 32"><g transform="translate(-23 -622)"><rect width="32" height="32" rx="16" transform="translate(23 622)" fill="rgba(255,85,57,0.1)"/><path d="M12.8,5.836a7.612,7.612,0,0,1,1.223.222A5.077,5.077,0,0,1,18,11v6.315l.477.463.4.387H6.629l.4-.387.477-.463V11a5.077,5.077,0,0,1,3.972-4.941A9.322,9.322,0,0,1,12.7,5.836M12.75,2.25a1.539,1.539,0,0,0-1.588,1.544v.721A6.721,6.721,0,0,0,5.868,11v5.661L3.75,18.72v1.029h18V18.72l-2.118-2.059V11a6.721,6.721,0,0,0-5.294-6.485V3.794A1.539,1.539,0,0,0,12.75,2.25Zm2.118,18.528H10.632a2.118,2.118,0,0,0,4.235,0Z" transform="translate(26.25 625.75)" fill="#ff5539"/></g></svg>