<svg xmlns="http://www.w3.org/2000/svg" width="339.848" height="351.67" viewBox="0 0 339.848 351.67"><g transform="translate(-93.17 -85.604)"><rect width="168.569" height="328.685" rx="74.66" transform="translate(105.759 98.587)" fill="#ffece5"/><path d="M229.806,695.665,206.64,767.7s2.955,2.053,7.439,4.572h42.31c10.444-20.024,16.292-71.207,16.292-71.207L249.71,679.41Z" transform="translate(-60.466 -345.015)" fill="#ffe2d9"/><path d="M258.012,114.47a34.942,34.942,0,0,0-11.084-1.8H140.418a34.986,34.986,0,0,0-11.089,1.8,31.034,31.034,0,0,0-19.95,28.981V410.063a31.038,31.038,0,0,0,21.611,29.571,26.915,26.915,0,0,1-17.455-25.169V147.844A26.874,26.874,0,0,1,140.41,120.97H155.9a4.988,4.988,0,0,1,4.83,3.741h0a7.872,7.872,0,0,0,7.61,5.868h52.658a7.872,7.872,0,0,0,7.614-5.87h0a4.987,4.987,0,0,1,4.829-3.741h13.491a26.875,26.875,0,0,1,26.878,26.878V414.465a26.919,26.919,0,0,1-17.456,25.17,31.038,31.038,0,0,0,21.612-29.571V143.438a31.034,31.034,0,0,0-19.95-28.968Z" transform="translate(-3.629 -13.821)" fill="#ffd8c5"/><path d="M3-10H165.569a13.015,13.015,0,0,1,13,13V325.685a13.015,13.015,0,0,1-13,13H3a13.015,13.015,0,0,1-13-13V3A13.015,13.015,0,0,1,3-10ZM158.569,10H10V318.685H158.569Z" transform="translate(105.759 98.587)" fill="#3a3144"/><path d="M296.4,121.979H243.744a3.707,3.707,0,0,1-3.591-2.768l-1.733-6.571h63.306L300,119.211A3.716,3.716,0,0,1,296.4,121.979Z" transform="translate(-79.038 -13.803)" fill="#3a3144"/><path d="M296.4,131.979H243.744V122.64l0,9.339a13.713,13.713,0,0,1-13.261-10.234l-5.039-19.1H314.7l-5.03,19.115A13.728,13.728,0,0,1,296.4,131.979Z" transform="translate(-79.038 -13.803)" fill="#3a3144"/><path d="M103.831,267.61h1.928v34.08h-1.928a.661.661,0,0,1-.661-.661V268.271a.661.661,0,0,1,.661-.661Z" transform="translate(0 -104.365)" fill="#3a3144"/><path d="M103.831,257.61h11.928v54.08H93.831L93.17,301.03V258.271Z" transform="translate(0 -104.365)" fill="#3a3144"/><path d="M103.831,377.08h1.928v34.08h-1.928a.661.661,0,0,1-.661-.661V377.741a.661.661,0,0,1,.661-.661Z" transform="translate(0 -168.338)" fill="#3a3144"/><path d="M103.831,367.08h11.928v54.08H93.831L93.17,410.5V367.741Z" transform="translate(0 -168.338)" fill="#3a3144"/><path d="M.673,0H2.589v34.08H.661A.661.661,0,0,1,0,33.42V.661A.661.661,0,0,1,.673,0Z" transform="translate(277.683 208.742) rotate(180)" fill="#3a3144"/><path d="M.661-10H12.589v54.08H-9.339L-10,33.42V-3.536l3.194-3.412,2.917-2.863Z" transform="translate(277.683 208.742) rotate(180)" fill="#3a3144"/><rect width="1.962" height="1.962" transform="translate(134.541 108.974)" fill="#f99192"/><rect width="1.962" height="1.962" transform="translate(138.618 108.974)" fill="#f99192"/><rect width="1.962" height="1.962" transform="translate(142.691 108.974)" fill="#f99192"/><path d="M421.91,138.651h10.652V136.44Z" transform="translate(-186.267 -27.712)" fill="#f99192"/><rect width="123.737" height="122.091" rx="10.75" transform="translate(128.36 137.855)" fill="#ffe2d9"/><rect width="123.737" height="122.091" rx="10.75" transform="translate(128.36 132.913)" fill="#fff4f0"/><path d="M162.88,249.59l.374,94.781a4.468,4.468,0,0,0,4.472,4.468h114.8A4.468,4.468,0,0,0,287,344.371l-.378-94.76Z" transform="translate(-34.894 -93.835)" fill="#fffdfd"/><path d="M287.521,217.27V334.582a4.468,4.468,0,0,1-4.468,4.468h-114.8a4.468,4.468,0,0,1-4.472-4.468V217.27" transform="translate(-35.42 -74.947)" fill="#ffe2d9"/><path d="M287.521,205.38V322.692a4.468,4.468,0,0,1-4.468,4.468h-114.8a4.468,4.468,0,0,1-4.472-4.468V205.38" transform="translate(-35.42 -67.999)" fill="#fff4f0"/><path d="M162.88,249.59l.374,98.937A4.468,4.468,0,0,0,167.726,353h114.8A4.468,4.468,0,0,0,287,348.527l-.378-98.916" transform="translate(-34.894 -93.835)" fill="#fffdfd"/><path d="M286.617,249.59H162.88l.283,74.25H286.9Z" transform="translate(-34.894 -93.835)" fill="#ffe2d9"/><path d="M163.478,360.734H287.215l-.025-6.463-22.476-22.476a13.6,13.6,0,0,0-19.23,0h0a13.6,13.6,0,0,1-19.235,0l-15.087-15.087a13.6,13.6,0,0,0-19.235,0L163.42,345.219Z" transform="translate(-35.209 -130.729)" fill="#ffd8c5"/><circle cx="5.91" cy="5.91" r="5.91" transform="translate(136.319 138.969)" fill="#ffd8c5"/><circle cx="9.883" cy="9.883" r="9.883" transform="translate(193.184 170.402)" fill="#fffdfd"/><rect width="123.737" height="82.329" rx="10.75" transform="translate(128.36 275.968)" fill="#ffe2d9"/><rect width="123.737" height="82.329" rx="10.75" transform="translate(128.36 271.026)" fill="#fff4f0"/><path d="M162.88,581.9l.374,55.019a4.468,4.468,0,0,0,4.472,4.455h114.8A4.468,4.468,0,0,0,287,636.907l-.378-55.007Z" transform="translate(-34.894 -288.032)" fill="#fffdfd"/><path d="M287.521,549.58v77.55a4.468,4.468,0,0,1-4.468,4.468h-114.8a4.468,4.468,0,0,1-4.472-4.468V549.58" transform="translate(-35.42 -269.144)" fill="#ffe2d9"/><path d="M287.521,537.69v77.55a4.468,4.468,0,0,1-4.468,4.455h-114.8a4.468,4.468,0,0,1-4.472-4.468V537.69" transform="translate(-35.42 -262.196)" fill="#fff4f0"/><path d="M162.88,581.9l.374,59.175a4.468,4.468,0,0,0,4.472,4.455h114.8A4.468,4.468,0,0,0,287,641.063l-.378-59.163" transform="translate(-34.894 -288.032)" fill="#fffdfd"/><path d="M237.316,600.63H184.35l.121,47.235h52.966Z" transform="translate(-47.44 -298.977)" fill="#ffe2d9"/><path d="M184.645,673.574h52.783V662.353l-9.592-9.588a5.794,5.794,0,0,0-8.2,0h0a5.819,5.819,0,0,1-8.208,0l-6.438-6.438a5.794,5.794,0,0,0-8.2,0L184.62,658.5Z" transform="translate(-47.598 -324.687)" fill="#ffd8c5"/><circle cx="5.91" cy="5.91" r="5.91" transform="translate(136.319 277.077)" fill="#ffd8c5"/><circle cx="7.543" cy="7.543" r="7.543" transform="translate(164.743 305.992)" fill="#fffdfd"/><path d="M2.656,0h0A2.656,2.656,0,0,1,5.312,2.656V8.74H0V2.656A2.656,2.656,0,0,1,2.656,0Z" transform="translate(140.425 243.358) rotate(-45)" fill="#ffece5"/><path d="M2.652,0h0A2.656,2.656,0,0,1,5.307,2.656V8.74H0V2.656A2.656,2.656,0,0,1,2.652,0Z" transform="translate(149.029 239.604) rotate(45)" fill="#ffece5"/><circle cx="4.468" cy="4.468" r="4.468" transform="translate(158.792 240.653)" fill="#ffece5"/><path d="M254.26,467.3l2.232.312-2-2.8" transform="translate(-88.295 -219.606)" fill="#ffece5"/><path d="M410.953,459.283l4.9,3.354a.187.187,0,0,0,.291-.154v-8.84a.187.187,0,0,0-.187-.183h-10a.187.187,0,0,0-.187.183v8.769a.187.187,0,0,0,.291.154l4.68-3.263A.187.187,0,0,1,410.953,459.283Z" transform="translate(-176.835 -212.973)" fill="#ffece5"/><path d="M2.652,0h0A2.656,2.656,0,0,1,5.307,2.656V8.74H0V2.656A2.656,2.656,0,0,1,2.652,0Z" transform="translate(198.5 307.197) rotate(-45)" fill="#ffece5"/><path d="M2.656,0h0A2.656,2.656,0,0,1,5.312,2.656V8.74H0V2.656A2.656,2.656,0,0,1,2.656,0Z" transform="translate(207.104 303.441) rotate(45)" fill="#ffece5"/><circle cx="4.468" cy="4.468" r="4.468" transform="translate(216.866 304.491)" fill="#ffece5"/><path d="M393.99,620.905l2.232.316-2-2.8" transform="translate(-169.951 -309.373)" fill="#ffece5"/><path d="M415.533,693.033l4.9,3.354a.187.187,0,0,0,.291-.154v-8.84a.187.187,0,0,0-.187-.183h-10a.187.187,0,0,0-.187.183v8.753a.183.183,0,0,0,.291.15l4.68-3.263a.2.2,0,0,1,.212,0Z" transform="translate(-179.511 -349.573)" fill="#ffece5"/><rect width="41.616" height="0.694" transform="translate(179.83 241.484)" fill="#ffe2d9"/><rect width="41.616" height="0.694" transform="translate(179.83 244.743)" fill="#ffe2d9"/><rect width="25.228" height="0.694" transform="translate(179.83 248.005)" fill="#ffe2d9"/><rect width="41.616" height="0.694" transform="translate(199.601 320.301)" fill="#ffe2d9"/><rect width="41.616" height="0.694" transform="translate(199.601 323.56)" fill="#ffe2d9"/><rect width="25.228" height="0.694" transform="translate(199.601 326.822)" fill="#ffe2d9"/><path d="M5-10H163.569a15.017,15.017,0,0,1,15,15V323.685a15.017,15.017,0,0,1-15,15H5a15.017,15.017,0,0,1-15-15V5A15.017,15.017,0,0,1,5-10ZM158.569,10H10V318.685H158.569Z" transform="translate(105.759 95.603)" fill="#3a3144"/><ellipse cx="29.55" cy="23.59" rx="29.55" ry="23.59" transform="translate(155.905 322.188) rotate(-66.75)" fill="#3eb7b2"/><path d="M281.508,546.369a10,10,0,0,1-3.14-19.5c15.559-5.148,47.974-12.125,49.346-12.42a10,10,0,0,1,4.2,19.555c-.326.07-32.727,7.044-47.26,11.852A9.994,9.994,0,0,1,281.508,546.369Z" transform="translate(-104.219 -254.33)" fill="#3eb7b2"/><path d="M293.148,577.489a10,10,0,0,1-3.139-19.5c15.563-5.148,47.973-12.125,49.345-12.419a10,10,0,0,1,4.2,19.555c-.326.07-32.724,7.044-47.261,11.853A9.991,9.991,0,0,1,293.148,577.489Z" transform="translate(-111.021 -272.516)" fill="#3eb7b2"/><path d="M293.148,609.019a10,10,0,0,1-3.129-19.5c15.556-5.129,47.959-12.12,49.331-12.415a10,10,0,0,1,4.207,19.553c-.326.07-32.731,7.062-47.275,11.857A9.994,9.994,0,0,1,293.148,609.019Z" transform="translate(-111.021 -290.942)" fill="#3eb7b2"/><path d="M164.391,352.369h0a20.1,20.1,0,0,1,9.592-22.5l143.653-81.095a15.2,15.2,0,0,1,19.459,3.861c11.966,15.353,30.232,47.667,16.093,89.889a15.257,15.257,0,0,1-12.934,10.341l-94.4,9.434a9.144,9.144,0,0,0-8.138,7.818l-2.7,19.152a9.322,9.322,0,0,1-13.088,7.186h0a9.326,9.326,0,0,1-5.465-8.4l-.216-23.69-30.406,3.051A20.112,20.112,0,0,1,164.391,352.369Z" transform="translate(-35.408 -92.203)" fill="#2e60b8"/><path d="M556.939,240.829s37.231-27.846,53.074-49.184c13.266-17.851,29.376-7.119,25.685,10.212a4.218,4.218,0,0,0,5.968,4.634c10.182-4.888,25.689-9.7,36.99-1.342,16.284,12.053,11.288,47.081-19.289,61.532a6.8,6.8,0,0,0-1.629,11.222c6.259,5.644,11.055,14.5.607,25.594-15.66,16.625-50.373-9.717-50.373-9.717s12.128,9.144,3.25,15.025c-10.561,7-23.162-15.025-46.408-25C564.823,283.8,551.386,263.4,556.939,240.829Z" transform="translate(-264.39 -54.601)" fill="#f99192"/><path d="M656.2,238.307,649.169,222.8v-.033a2.419,2.419,0,0,0-3.994-.54,249.461,249.461,0,0,1-18.4,18.088l4.248,9.4a5.3,5.3,0,0,0,7.011,2.639l15.519-7.007a5.3,5.3,0,0,0,2.639-7.032Z" transform="translate(-305.99 -77.361)" fill="#f97171"/><path d="M574.193,289.77c-9.725,8.138-17.252,13.773-17.252,13.773-5.552,22.572,7.9,42.966,7.9,42.966A89.266,89.266,0,0,1,584.7,358.862C591.686,329.615,583.436,305.721,574.193,289.77Z" transform="translate(-264.391 -117.315)" fill="#f97171"/><path d="M566.4,367.713a4.991,4.991,0,0,1-3.948-1.928c-8.586-11.026-21.488-34.009-11.428-64.043a5,5,0,0,1,9.482,3.176c-8.578,25.608,2.48,45.277,9.835,54.723a5,5,0,0,1-3.942,8.072Z" transform="translate(-262.508 -125.24)" fill="#3a3144"/><path d="M173.984,439.085a20.1,20.1,0,0,0-9.592,22.5h0a20.112,20.112,0,0,0,21.454,15.041l10.062-.993c-10.619-15.644-12.813-30.668-12.331-41.944Z" transform="translate(-35.408 -201.42)" fill="#4f8ae0"/><path d="M279.578,640.559a10,10,0,0,1-3.14-19.5c15.559-5.148,47.974-12.125,49.346-12.419a10,10,0,0,1,4.2,19.555c-.326.07-32.727,7.044-47.26,11.852A9.994,9.994,0,0,1,279.578,640.559Z" transform="translate(-103.091 -309.373)" fill="#3eb7b2"/><path d="M262.394,563.059c-.309,0-.619-.009-.932-.029a15,15,0,0,1-14.054-15.89c2.24-36.533,16.009-47.34,20.176-49.782a15,15,0,0,1,16.523,24.989c-.873,1.047-5.584,7.532-6.755,26.629A15,15,0,0,1,262.394,563.059Z" transform="translate(-93.04 -246.19)" fill="#3eb7b2"/><path d="M120.62,708.838a31,31,0,0,0,26.367,14.671H182.38c18.782-42.393,38.922-98.226,41.9-106.555L165.59,595.94C154.218,627.7,134.73,678.527,120.62,708.838Z" transform="translate(-10.198 -296.237)" fill="#3a3144"/><circle cx="12.311" cy="12.311" r="12.311" transform="translate(345.162 232.249)" fill="#ffd8c5"/><rect width="27.622" height="27.622" rx="12.74" transform="matrix(0.911, -0.413, 0.413, 0.911, 310.421, 149.264)" fill="#3a3144"/><rect width="20.914" height="20.914" rx="10.457" transform="matrix(0.839, 0.544, -0.544, 0.839, 397.278, 256.409)" fill="#ffd8c5"/><circle cx="4.672" cy="4.672" r="4.672" transform="translate(395.709 266.193)" fill="#ffa97f"/><circle cx="1.11" cy="1.11" r="1.11" transform="translate(397.712 262.606)" fill="#fff"/><path d="M8.183,0h0a8.183,8.183,0,0,1,8.183,8.183V26.936H0V8.188A8.183,8.183,0,0,1,8.183,0Z" transform="translate(346.456 187.449) rotate(-45)" fill="#ffece5"/><path d="M8.183,0h0A8.183,8.183,0,0,1,16.35,8.188V26.94H0V8.188A8.183,8.183,0,0,1,8.183,0Z" transform="translate(372.977 175.875) rotate(45)" fill="#ffece5"/><path d="M834.626,382.876l1.014,9.588a4.119,4.119,0,0,0,2.423,3.325l8.811,3.915a4.123,4.123,0,0,0,4.1-.416l7.8-5.673a4.119,4.119,0,0,0,1.662-3.765l-1.014-9.588a4.127,4.127,0,0,0-2.423-3.325l-8.815-3.915a4.114,4.114,0,0,0-4.094.416l-7.8,5.673A4.123,4.123,0,0,0,834.626,382.876Z" transform="translate(-427.438 -165.755)" fill="#ffa97f"/><path d="M788.907,169.192l17.007,7.56a1.829,1.829,0,0,0,2.56-1.862l-1.958-18.507a1.825,1.825,0,0,0-2.909-1.284l-15.033,10.968a1.825,1.825,0,0,0,.332,3.125Z" transform="translate(-400.11 -38.403)" fill="#3eb7b2"/><path d="M580.114,195.678l28.515-35.955c.328-.416-.254-1.006-.586-.586l-28.52,35.951C579.2,195.5,579.782,196.094,580.114,195.678Z" transform="translate(-278.318 -40.891)" fill="#3a3144"/><path d="M574.624,267.235l6.978-8.449c.337-.416-.249-1-.59-.586l-6.974,8.449c-.337.416.245,1,.586.586Z" transform="translate(-275.109 -98.783)" fill="#3a3144"/><path d="M661.212,187.9l4.572-5.968c.328-.416-.416-.831-.715-.416l-4.572,5.968c-.324.416.416.831.719.416Z" transform="translate(-325.646 -53.954)" fill="#3a3144"/><path d="M595.833,332.988,628.646,319c.49-.208.067-.923-.416-.715l-32.817,13.99c-.49.208-.067.927.416.719Z" transform="translate(-287.532 -133.958)" fill="#3a3144"/><path d="M610.852,372.327l6.234-1.866a.416.416,0,1,0-.22-.8l-6.234,1.87a.416.416,0,0,0,.22.8Z" transform="translate(-296.395 -163.992)" fill="#3a3144"/><path d="M617.085,450.6l15.162,2.107c.524.071.752-.727.224-.8L617.3,449.793c-.524-.075-.748.727-.22.8Z" transform="translate(-300.143 -210.828)" fill="#3a3144"/><path d="M622.416,431h4.6a.416.416,0,1,0,0-.831h-4.6a.416.416,0,1,0,0,.831Z" transform="translate(-303.196 -199.363)" fill="#3a3144"/><path d="M654.346,428.391h1.625a.416.416,0,0,0,0-.831h-1.625a.416.416,0,0,0,0,.831Z" transform="translate(-321.856 -197.838)" fill="#3a3144"/><path d="M696.861,550.135a15.59,15.59,0,0,0-1.367,20.5,1.8,1.8,0,0,0,2.714.191l19.334-19.33a1.812,1.812,0,0,0-.191-2.718A15.594,15.594,0,0,0,696.861,550.135Z" transform="translate(-344.272 -266.802)" fill="#ffe2d9"/><circle cx="7.336" cy="7.336" r="7.336" transform="translate(341.139 271.882)" fill="#ffe2d9"/><circle cx="6.101" cy="6.101" r="6.101" transform="translate(365.502 102.527)" fill="#ffe2d9"/><circle cx="1.492" cy="1.492" r="1.492" transform="translate(344.405 102.527)" fill="#ffe2d9"/><circle cx="2.369" cy="2.369" r="2.369" transform="translate(312.312 280.436)" fill="#ffe2d9"/><circle cx="2.032" cy="2.032" r="2.032" transform="translate(324.635 269.896)" fill="#ffe2d9"/><circle cx="3.915" cy="3.915" r="3.915" transform="translate(176.484 334.412)" fill="#4f8ae0"/><circle cx="3.915" cy="3.915" r="3.915" transform="translate(169.34 354.382)" fill="#4f8ae0"/><circle cx="12.311" cy="12.311" r="12.311" transform="translate(334.028 89.02)" fill="#ffa97f"/><path d="M674.518,121.6a2.614,2.614,0,0,1,2.111-2.041c1.047-.2.6-1.808-.445-1.6a4.247,4.247,0,0,0-3.267,3.2C672.685,122.2,674.289,122.647,674.518,121.6Z" transform="translate(-332.939 -16.899)" fill="#3a3144"/><path d="M689.935,116.646a3.894,3.894,0,0,1-3.873,3.707c-1.068.046-1.072,1.708,0,1.662a5.594,5.594,0,0,0,5.536-5.37C691.668,115.578,690.006,115.582,689.935,116.646Z" transform="translate(-340.164 -15.677)" fill="#3a3144"/><path d="M690.4,103.678a4.235,4.235,0,0,0-3.2,3.271c-.2,1.043,1.4,1.492,1.6.441a2.606,2.606,0,0,1,2.041-2.107C691.883,105.049,691.442,103.445,690.4,103.678Z" transform="translate(-341.285 -8.552)" fill="#3a3144"/><rect width="11.949" height="52.347" transform="translate(338.78 306.487) rotate(45)" fill="#ffa97f"/><rect width="11.949" height="52.347" transform="matrix(0.966, -0.259, 0.259, 0.966, 311.955, 305.481)" fill="#ffa97f"/><rect width="11.949" height="52.347" transform="matrix(0.259, -0.966, 0.966, 0.259, 297.672, 328.21)" fill="#ffa97f"/><circle cx="21.068" cy="21.068" r="21.068" transform="translate(303.43 308.145)" fill="#ffa97f"/><circle cx="6.085" cy="6.085" r="6.085" transform="translate(318.413 323.128)" fill="#ffd8c5"/><path d="M294.079,517.029a14.031,14.031,0,0,1-2.7,3.371,28.338,28.338,0,0,0-2.494,3.171,16.1,16.1,0,0,0-2.8,7.352c-.054.532.777.528.831,0a15.6,15.6,0,0,1,3.076-7.481,29.928,29.928,0,0,1,2.556-3.067,11.017,11.017,0,0,0,2.257-2.909c.216-.486-.5-.91-.719-.416Z" transform="translate(-106.892 -250.005)" fill="#fff"/></g></svg>