<svg xmlns="http://www.w3.org/2000/svg" xmlns:xlink="http://www.w3.org/1999/xlink" width="382.642" height="286.104" viewBox="0 0 382.642 286.104"><defs><clipPath id="a"><path d="M1597.521,472.078c1.092,16.641-4.69,69.214-46.344,79.427C1556.522,509.018,1579.79,510.684,1597.521,472.078Z" transform="translate(-1551.177 -472.078)" fill="#9595ce"/></clipPath></defs><g transform="translate(-775.61 -322.298)"><g transform="translate(775.61 322.298)"><path d="M1160.849,1061.629c9.851,0,19.339,3.649,28.825,6.933,25.906,8.757,53.637,8.757,79.179-1.095,42.149-16.606,42.872-71.892-11.313-61.3a15.982,15.982,0,0,0-10.8,5.2c-1,8.984.03,19.029,4.361,27.634,5.21,10.351,13.652,15.574,11.965,18.728-2.762,5.163-28.252-3.484-31.734-4.682-54.706-18.825-72.392-47.341-88.437-40.057-21.554,13.719-6.649,61.257-47.341,36.414-18.858-9.5-89.1-19.6-96.388,6.668a20.693,20.693,0,0,0,9.992,22.287c10.678,6.193,23.677,3.964,35.436,5.951,6.332,1.581,12.85,1.848,18.264-2.181C1105.188,1064.4,1113.815,1058.569,1160.849,1061.629Z" transform="translate(-998.721 -820.728)" fill="#9595ce" opacity="0.5"/><path d="M1484.866,943.755c-24.9-42.612-102.88-40.328-120.658-12.485-2.911,4.559-5.126,11.252-5.955,18.666a15.99,15.99,0,0,1,10.8-5.205c15.69-1.824,37.217-2.189,41.231,16.055,4.743,19.7-12.041,38.312-29.92,45.245-25.542,9.852-53.272,9.852-79.179,1.095-9.487-3.284-18.974-6.933-28.825-6.933-21.893-.365-45.974-2.919-66.772,7.662-11.968,5.984-24.751,9.253-36.473,15.666,21.418,1.5,44.575-3.19,52.781-4.853,19.233-3.9,20.059-7.039,30.433-6.243,28.724,2.205,33.025,27.1,56.462,31.993,33.038,6.9,48.823-37.484,85.559-33.554,31.257,3.343,38,37.419,58.525,34.334C1478.62,1041.328,1507.11,981.816,1484.866,943.755Z" transform="translate(-1110.231 -759.291)" fill="#c4c3fc" opacity="0.5"/><g transform="translate(82.646 84.673)"><path d="M1238.056,1105.954c.458,1.409,1.775,2.758,3.765,4l71.24,2.3c2.2-1.26,3.53-2.7,3.74-4.283.613-4.619-8.411-8.969-22.088-11.353.054-.547.082-1.109.084-1.68.033-9.527-6.836-17.857-15.138-17.675-6.63.146-11.394,5.757-12.117,12.833a9.007,9.007,0,0,0-2.968-.5c-3.986.009-6.7,2.722-6.372,6.065C1244.644,1097.358,1236.566,1101.375,1238.056,1105.954Z" transform="translate(-1237.88 -952.798)" fill="#b4bded"/><path d="M1696.5,746.18c0,1.738-1.128,3.394-3.178,4.907h-80.78c-2.051-1.513-3.178-3.169-3.178-4.907,0-4.9,9-9.174,22.316-11.407-.051-.542-.077-1.1-.077-1.657,0-8.843,6.174-16.013,13.785-16.013,6.225,0,11.483,4.788,13.194,11.369a9.236,9.236,0,0,1,3-.492c4.174,0,7.6,2.687,7.965,6.119C1685.367,736.057,1696.5,740.726,1696.5,746.18Z" transform="translate(-1480.99 -717.103)" fill="#c4c3fc" opacity="0.5"/></g><g transform="translate(75.729 0)"><g transform="translate(116.735 52.638)"><path d="M1557.848,656.091c12.671-1.1,16.9,12.391,23.448,10.539,5.628-1.755,7.938-10.239,11.327-10.48,3.39-.626,8.257,5.124,13.7,3.1,4.821-1.8,2.028-11.428,6.285-12.426,4.509-1.057,11.95-4.35,11.381-7.853-.633-3.894-10.111-4.318-12.654-5.016-4.546-1.25-6.618-9.038-13.568-9.542-4.262-.309-3.95,6.752-8.851,8.108-5.522,1.529-6.256-7.592-16.4-5.792-15.148,2.687-7.881,18.666-15.824,25.814C1554.138,654.837,1557.086,656.032,1557.848,656.091Z" transform="translate(-1555.67 -624.4)" fill="#c4c3fc"/><path d="M1618.353,669.607l-19.65,2.449c-3.275.408-6.553.817-9.776,1.476-6.653,1.361-26.091,8.73-32.4,11.132" transform="translate(-1556.23 -653.985)" fill="none" stroke="#fff" stroke-miterlimit="10" stroke-width="1.056"/><path d="M1718.536,671.746a12.115,12.115,0,0,1,2.438,1.553,3.484,3.484,0,0,1,1.038,1.214" transform="translate(-1662.254 -655.385)" fill="none" stroke="#fff" stroke-miterlimit="10" stroke-width="1.056"/><path d="M1662.174,678.775a17.8,17.8,0,0,1,9.274,12.03" transform="translate(-1625.369 -659.984)" fill="none" stroke="#fff" stroke-miterlimit="10" stroke-width="1.056"/><path d="M1694.249,664.322c1.2-.223,3.9-4.77,4.733-5.433" transform="translate(-1646.36 -646.97)" fill="none" stroke="#fff" stroke-miterlimit="10" stroke-width="1.056"/><path d="M1597.149,697.972c1.064.129,11.536,5.671,11.592,12.321" transform="translate(-1582.815 -672.548)" fill="none" stroke="#fff" stroke-miterlimit="10" stroke-width="1.056"/><path d="M1610.8,642.766c.279,1.149,4.488,10.12.96,16.9" transform="translate(-1591.749 -636.419)" fill="none" stroke="#fff" stroke-miterlimit="10" stroke-width="1.056"/><path d="M1641.02,657.9c.045,3.077-.351,6.282-2.095,8.773" transform="translate(-1610.155 -646.321)" fill="none" stroke="#fff" stroke-miterlimit="10" stroke-width="1.056"/><path d="M1584.364,663.049c1.613,3.652.773,11.07-.97,13.561" transform="translate(-1573.813 -649.693)" fill="none" stroke="#fff" stroke-miterlimit="10" stroke-width="1.056"/><path d="M1677.867,635.061a105.916,105.916,0,0,0-2.98,14.546" transform="translate(-1633.689 -631.377)" fill="none" stroke="#fff" stroke-miterlimit="10" stroke-width="1.056"/><path d="M1629.781,686.95c2.593,1.07,8.126,4.979,9.336,8.632" transform="translate(-1604.17 -665.334)" fill="none" stroke="#fff" stroke-miterlimit="10" stroke-width="1.056"/><path d="M1683.108,698.3a1.556,1.556,0,0,1,.927.233q2.4,1.17,4.858,2.209" transform="translate(-1639.069 -672.753)" fill="none" stroke="#fff" stroke-miterlimit="10" stroke-width="1.056"/></g><g transform="translate(0 91.122)"><path d="M1286.058,761.788c-12.647,1.344-14.224,15.393-21,14.826-5.859-.647-9.749-8.533-13.121-8.122-3.447.034-7.125,6.607-12.855,5.657-5.075-.842-4.174-10.83-8.543-11-4.629-.176-12.561-1.986-12.672-5.534-.123-3.943,9.1-6.17,11.462-7.342,4.224-2.1,4.769-10.136,11.5-11.959,4.124-1.118,5.167,5.873,10.237,6.268,5.712.445,4.691-8.647,14.991-8.82,15.382-.257,11.3,16.816,20.465,22.315C1289.46,759.849,1286.795,761.585,1286.058,761.788Z" transform="translate(-1217.865 -735.764)" fill="#6e66c9"/><path d="M1236.044,795.221l19.756-1.351c3.292-.225,6.588-.451,9.878-.419,6.79.064,27.279,3.584,33.931,4.735" transform="translate(-1229.762 -773.514)" fill="none" stroke="#fff" stroke-miterlimit="10" stroke-width="1.056"/><path d="M1247.584,797.448a12.132,12.132,0,0,0-2.1,1.99,3.491,3.491,0,0,0-.787,1.39" transform="translate(-1235.427 -776.132)" fill="none" stroke="#fff" stroke-miterlimit="10" stroke-width="1.056"/><path d="M1296.826,793.577a17.8,17.8,0,0,0-6.8,13.58" transform="translate(-1265.086 -773.599)" fill="none" stroke="#fff" stroke-miterlimit="10" stroke-width="1.056"/><path d="M1266.667,787.232c-1.216.01-4.743-3.936-5.684-4.428" transform="translate(-1246.082 -766.548)" fill="none" stroke="#fff" stroke-miterlimit="10" stroke-width="1.056"/><path d="M1359.91,799.994c-1.02.33-10.24,7.771-9.024,14.31" transform="translate(-1304.846 -777.798)" fill="none" stroke="#fff" stroke-miterlimit="10" stroke-width="1.056"/><path d="M1352.005,748.414c-.055,1.182-2.471,10.792,2.288,16.777" transform="translate(-1305.218 -744.042)" fill="none" stroke="#fff" stroke-miterlimit="10" stroke-width="1.056"/><path d="M1322.591,769.8c.544,3.029,1.546,6.1,3.733,8.211" transform="translate(-1286.4 -758.037)" fill="none" stroke="#fff" stroke-miterlimit="10" stroke-width="1.056"/><path d="M1380.9,763.624c-.885,3.893,1.357,11.013,3.544,13.126" transform="translate(-1324.432 -753.996)" fill="none" stroke="#fff" stroke-miterlimit="10" stroke-width="1.056"/><path d="M1280.414,754.746a105.931,105.931,0,0,1,5.705,13.709" transform="translate(-1258.799 -748.186)" fill="none" stroke="#fff" stroke-miterlimit="10" stroke-width="1.056"/><path d="M1328.839,795.412c-2.341,1.545-7.025,6.44-7.514,10.257" transform="translate(-1285.572 -774.799)" fill="none" stroke="#fff" stroke-miterlimit="10" stroke-width="1.056"/><path d="M1283.028,816.766a1.556,1.556,0,0,0-.865.406q-2.132,1.607-4.346,3.1" transform="translate(-1257.099 -788.774)" fill="none" stroke="#fff" stroke-miterlimit="10" stroke-width="1.056"/></g><g transform="translate(115.183)"><path d="M1597.521,472.078c1.092,16.641-4.69,69.214-46.344,79.427C1556.522,509.018,1579.79,510.684,1597.521,472.078Z" transform="translate(-1551.177 -472.078)" fill="#9595ce"/><g clip-path="url(#a)"><g transform="translate(-1.576 -0.531)"><path d="M1594.39,470.721c.281,3.216-1.088,6.258-2.284,9.162q-1.77,4.3-3.716,8.522-3.882,8.433-8.4,16.554-4.526,8.172-9.6,16.027t-10.575,15.43q-5.477,7.536-11.324,14.794-.735.914-1.474,1.825c-.179.22-.537-.04-.357-.262q5.847-7.2,11.364-14.66,5.482-7.436,10.56-15.158,5.079-7.749,9.669-15.8,4.574-8.057,8.56-16.43,1.975-4.164,3.786-8.4.923-2.164,1.8-4.348a22.055,22.055,0,0,0,1.452-4.726,10.1,10.1,0,0,0,.095-2.449c-.025-.283.412-.357.437-.073Z" transform="translate(-1546.618 -470.541)" fill="#d8d5f7"/></g><g transform="translate(35.004 7.588)"><path d="M1657.288,503.575c-1.146-2.491-2.891-4.65-4.034-7.142a13.1,13.1,0,0,1-.776-2.153c-.072-.276.365-.346.437-.073.687,2.634,2.35,4.853,3.708,7.166a22.846,22.846,0,0,1,1.069,2.019.221.221,0,0,1-.4.183Z" transform="translate(-1652.47 -494.035)" fill="#d8d5f7"/></g><g transform="translate(31.223 14.462)"><path d="M1646.717,523.6q-1.832-3.748-3.941-7.352-.6-1.018-1.214-2.023c-.149-.243.256-.422.4-.182q2.184,3.555,4.1,7.266.54,1.049,1.058,2.108c.125.257-.278.439-.4.183Z" transform="translate(-1641.53 -513.927)" fill="#d8d5f7"/></g><g transform="translate(27.025 17.295)"><path d="M1635.611,535.285a38.136,38.136,0,0,0-2.709-4.912,35.939,35.939,0,0,1-2.475-5.009q-.586-1.467-1.04-2.982a.222.222,0,0,1,.182-.255.227.227,0,0,1,.255.182,35.293,35.293,0,0,0,2.043,5.215c.8,1.656,1.783,3.2,2.719,4.787a21.675,21.675,0,0,1,1.429,2.79c.108.264-.3.447-.4.183Z" transform="translate(-1629.381 -522.125)" fill="#d8d5f7"/></g><g transform="translate(24.549 21.79)"><path d="M1630.06,545.537a42.766,42.766,0,0,0-5.822-8.036q-.953-1.037-1.973-2.009a.223.223,0,0,1,.033-.311.226.226,0,0,1,.311.033,42.98,42.98,0,0,1,6.388,7.709q.772,1.192,1.466,2.432c.14.249-.265.43-.4.183Z" transform="translate(-1622.215 -535.132)" fill="#d8d5f7"/></g><g transform="translate(20.973 27.238)"><path d="M1617.721,565.151a5.4,5.4,0,0,0-.7-2.652q-.59-1.385-1.191-2.766-1.2-2.76-2.477-5.49-.714-1.526-1.458-3.039c-.126-.257.278-.438.4-.183,1.8,3.668,3.467,7.4,5.069,11.163a6.114,6.114,0,0,1,.8,3.012.222.222,0,0,1-.44-.046Z" transform="translate(-1611.869 -550.899)" fill="#d8d5f7"/></g><g transform="translate(19.123 27.91)"><path d="M1613.015,568.589a104.28,104.28,0,0,1-5.281-11.965q-.634-1.722-1.207-3.466c-.088-.268.314-.453.4-.183a104.394,104.394,0,0,0,4.856,12.144q.787,1.658,1.632,3.287c.131.254-.273.435-.4.182Z" transform="translate(-1606.515 -552.843)" fill="#d8d5f7"/></g><g transform="translate(16.351 37.25)"><path d="M1604.437,591.376a41.749,41.749,0,0,0-4.175-8.978,18.46,18.46,0,0,0-1.713-2.173c-.194-.21.151-.488.344-.279a27.125,27.125,0,0,1,4.929,8.574c.351.887.685,1.78,1.017,2.673.1.266-.3.45-.4.183Z" transform="translate(-1598.493 -579.872)" fill="#d8d5f7"/></g><g transform="translate(9.84 44.675)"><path d="M1586.642,613.944a45.981,45.981,0,0,0-5.086-9.717q-.884-1.285-1.854-2.509c-.177-.224.167-.5.344-.279a46.447,46.447,0,0,1,5.8,9.445q.65,1.418,1.2,2.878c.1.265-.3.449-.4.182Z" transform="translate(-1579.652 -601.356)" fill="#d8d5f7"/></g><g transform="translate(9.728 48.669)"><path d="M1585.356,623a20.919,20.919,0,0,0-4.206-7.858,20.527,20.527,0,0,0-1.745-1.811c-.208-.19.051-.55.262-.357a21.236,21.236,0,0,1,6.125,9.954c.077.274-.361.344-.437.073Z" transform="translate(-1579.329 -612.916)" fill="#d8d5f7"/></g><g transform="translate(3.783 51.124)"><path d="M1570.241,633.115a25.586,25.586,0,0,0-5.628-10.335,25.073,25.073,0,0,0-2.409-2.352c-.215-.183.044-.543.262-.357a25.877,25.877,0,0,1,4.123,4.45,26.155,26.155,0,0,1,2.981,5.285,25.89,25.89,0,0,1,1.107,3.237c.075.275-.363.346-.436.073Z" transform="translate(-1562.123 -620.019)" fill="#d8d5f7"/></g><g transform="translate(1.489 58.749)"><path d="M1562.141,652.658c-.561-3.168-2.5-5.843-4.625-8.168-.641-.7-1.3-1.38-1.969-2.058-.2-.2.145-.481.344-.279,2.312,2.354,4.662,4.814,5.943,7.909a12.126,12.126,0,0,1,.745,2.523.222.222,0,0,1-.437.073Z" transform="translate(-1555.486 -642.083)" fill="#d8d5f7"/></g><g transform="translate(1.487 61.77)"><path d="M1561.461,659.226a15.509,15.509,0,0,0-5.89-8c-.233-.163.028-.521.262-.357a16.087,16.087,0,0,1,5.187,6.075,15.646,15.646,0,0,1,.845,2.1c.086.268-.317.453-.4.182Z" transform="translate(-1555.48 -650.826)" fill="#d8d5f7"/></g><g transform="translate(35.223 21.47)"><path d="M1653.29,539.3c2.675-.808,5.272-1.845,7.906-2.773a41.293,41.293,0,0,1,7.877-2.091,21.58,21.58,0,0,1,4.543-.184c.284.02.238.46-.046.44a24.606,24.606,0,0,0-7.975.912c-2.656.7-5.224,1.688-7.8,2.628-1.466.535-2.938,1.053-4.432,1.5a.223.223,0,0,1-.255-.182.227.227,0,0,1,.182-.255Z" transform="translate(-1653.104 -534.208)" fill="#d8d5f7"/></g><g transform="translate(39.089 11.593)"><path d="M1664.425,512.83a34.985,34.985,0,0,0,10.159-5.117q1.311-.957,2.528-2.033c.214-.189.492.155.279.344a35.355,35.355,0,0,1-9.736,6.1q-1.5.626-3.048,1.11c-.269.084-.454-.318-.183-.4Z" transform="translate(-1664.292 -505.625)" fill="#d8d5f7"/></g><g transform="translate(42.522 6.679)"><path d="M1674.344,496.034a37.736,37.736,0,0,0,6.524-4.575c.215-.188.494.157.279.344a38.271,38.271,0,0,1-6.62,4.634c-.25.138-.431-.266-.182-.4Z" transform="translate(-1674.225 -491.405)" fill="#d8d5f7"/></g><g transform="translate(30.54 28.724)"><path d="M1639.727,562.023q4.411-1.015,8.76-2.277t8.6-2.763q2.4-.846,4.77-1.769c.265-.1.449.3.183.4q-4.236,1.647-8.558,3.053t-8.7,2.562q-2.477.654-4.974,1.228c-.278.064-.349-.373-.073-.437Z" transform="translate(-1639.552 -555.197)" fill="#d8d5f7"/></g><g transform="translate(25.039 39.965)"><path d="M1623.871,592.689a35.393,35.393,0,0,0,4.951-.495c1.588-.25,3.172-.527,4.755-.8,3.129-.549,6.253-1.152,9.321-1.986a52.176,52.176,0,0,0,5.1-1.659c.266-.1.449.3.183.4a61.373,61.373,0,0,1-9.223,2.659c-3.158.678-6.348,1.217-9.536,1.738a38.435,38.435,0,0,1-5.6.584c-.284,0-.236-.436.046-.44Z" transform="translate(-1623.634 -587.728)" fill="#d8d5f7"/></g><g transform="translate(29.21 31.357)"><path d="M1635.883,569.365a106.617,106.617,0,0,0,21.928-4.46q3-.947,5.933-2.071c.266-.1.449.3.183.4a107,107,0,0,1-21.668,5.771q-3.139.491-6.3.794c-.282.027-.356-.409-.073-.437Z" transform="translate(-1635.704 -562.818)" fill="#d8d5f7"/></g><g transform="translate(20.943 47.848)"><path d="M1612.011,613.952c3.917.922,7.959.353,11.868-.315,4.027-.687,8.053-1.379,12.087-2.025q3.43-.549,6.865-1.07a.222.222,0,0,1,.073.437q-6.111.926-12.206,1.943-3.04.507-6.078,1.037c-1.984.344-3.975.677-5.984.83a21.815,21.815,0,0,1-6.671-.4c-.274-.064-.231-.505.046-.44Z" transform="translate(-1611.781 -610.539)" fill="#d8d5f7"/></g><g transform="translate(19.193 52.028)"><path d="M1606.951,624.365a63.747,63.747,0,0,0,8.536.858c2.889.1,5.783.044,8.669-.118,2.868-.161,5.73-.421,8.587-.716s5.721-.627,8.582-.93,5.753-.58,8.638-.762q.536-.034,1.072-.063c.282-.016.357.421.073.437-2.887.159-5.766.418-8.642.714s-5.749.629-8.625.933-5.746.581-8.628.764-5.773.276-8.661.213a66.159,66.159,0,0,1-8.592-.718q-.528-.081-1.055-.172c-.279-.048-.235-.489.046-.441Z" transform="translate(-1606.716 -622.634)" fill="#d8d5f7"/></g><g transform="translate(14.339 60.445)"><path d="M1592.9,647.348a55.007,55.007,0,0,0,18.372.6q2.581-.351,5.121-.947c.278-.065.349.372.073.437a55.1,55.1,0,0,1-9.205,1.349,55.716,55.716,0,0,1-9.224-.2q-2.608-.275-5.181-.8c-.277-.056-.234-.5.046-.441Z" transform="translate(-1592.671 -646.993)" fill="#d8d5f7"/></g><g transform="translate(10.076 66.114)"><path d="M1580.573,663.808q4.383.2,8.772.188t8.784-.259q2.462-.135,4.92-.341c.282-.024.357.413.073.437q-4.409.367-8.832.511-4.4.143-8.8.064-2.483-.045-4.965-.161c-.285-.013-.238-.453.046-.44Z" transform="translate(-1580.335 -663.396)" fill="#d8d5f7"/></g><g transform="translate(6.306 71.622)"><path d="M1569.605,679.72c3.18-.148,6.36-.3,9.543-.356s6.343-.034,9.508.168c1.781.114,3.558.284,5.326.523.282.038.237.479-.046.44a83.618,83.618,0,0,0-9.437-.693c-3.167-.067-6.334,0-9.5.122-1.775.067-3.549.15-5.324.232-.281.013-.357-.424-.073-.437Z" transform="translate(-1569.426 -679.335)" fill="#d8d5f7"/></g></g></g></g><g transform="translate(96.862 7.016)"><path d="M1310.664,592.824c0,40.076,31.384,70.443,66.887,67.914,32.514-2.316,57.013-31.852,57.013-66.012s-24.5-64.448-57.013-67.762C1342.048,523.344,1310.664,552.749,1310.664,592.824Zm14.816.227c0-31.2,24.2-54.547,52.071-52.207,25.993,2.183,45.884,26.219,45.884,53.711s-19.891,50.917-45.884,52.3C1349.682,648.342,1325.48,624.25,1325.48,593.051Z" transform="translate(-1310.664 -526.662)" fill="#9595ce"/><path d="M1345.971,612.441c0,31.2,24.2,55.291,52.071,53.806,25.993-1.385,45.884-24.81,45.884-52.3s-19.891-51.528-45.884-53.711C1370.172,557.894,1345.971,581.243,1345.971,612.441Zm14.774.227c0-22.382,17.134-39.405,37.3-38.087,19.162,1.253,34.012,18.771,34.012,39.182s-14.85,37.472-34.012,38.137C1377.879,652.6,1360.744,635.05,1360.744,612.668Z" transform="translate(-1331.154 -546.052)" fill="#eef"/><path d="M1381.176,632.633c0,22.382,17.134,39.931,37.3,39.232,19.162-.665,34.012-17.726,34.012-38.137s-14.85-37.928-34.012-39.181C1398.31,593.228,1381.176,610.252,1381.176,632.633Zm14.226.219c0-13.845,10.5-24.577,23.07-23.987,12.178.571,21.771,11.611,21.771,24.676s-9.593,23.81-21.771,24.007C1405.9,657.751,1395.4,646.7,1395.4,632.852Z" transform="translate(-1351.586 -566.018)" fill="#2a2a7c"/><path d="M1438.147,628.733c12.177.571,21.771,11.611,21.771,24.676s-9.593,23.81-21.771,24.007c-12.573.2-23.07-10.851-23.07-24.7S1425.574,628.144,1438.147,628.733Z" transform="translate(-1371.26 -585.886)" fill="#d8d5f7"/><path d="M1454.379,657.842c6.12.19,11.01,5.7,11.01,12.305s-4.89,11.966-11.01,11.967c-6.218,0-11.333-5.509-11.333-12.31S1448.161,657.649,1454.379,657.842Z" transform="translate(-1387.492 -602.79)" fill="#f76d1a"/></g><g transform="translate(168.066 77.296)"><path d="M1485.065,695.754,1540.1,723.92l-1.351,19.49Z" transform="translate(-1485.065 -695.754)" fill="#5851bc"/><path d="M1485.065,695.754l54,24.369,24.088-15.9Z" transform="translate(-1485.065 -695.754)" fill="#6e66c9"/><path d="M1540.1,723.92l-16.994,16.647-38.042-44.813" transform="translate(-1485.065 -695.754)" fill="#6e66c9"/><g transform="translate(79.607 48.955)"><path d="M1715.431,837.42,1751.5,867.3l-4.205,14.191Z" transform="translate(-1715.431 -837.42)" fill="#5851bc"/><path d="M1715.431,837.42l35.925,26.9,20.429-7.8Z" transform="translate(-1715.431 -837.42)" fill="#6e66c9"/><path d="M1751.5,867.3l-15.305,9.515-20.76-39.4" transform="translate(-1715.431 -837.42)" fill="#6e66c9"/></g><g transform="translate(36.862 145.909)"><path d="M1677.147,1124.92l-47.525,7.226,1.821,15.693Z" transform="translate(-1616.53 -1122.523)" fill="#5851bc"/><path d="M1652.353,1120.38l-48.333,4.45-12.285-6.848Z" transform="translate(-1591.736 -1117.982)" fill="#6e66c9"/><path d="M1629.622,1132.147l10.009,16.765,37.517-23.992" transform="translate(-1616.53 -1122.523)" fill="#6e66c9"/></g><g transform="translate(137.33 107.431)"><path d="M1882.467,1006.636l25.15,39.511-8.359,12.215Z" transform="translate(-1882.467 -1006.636)" fill="#5851bc"/><path d="M1882.467,1006.636l25.931,36.634,21.836-1.148Z" transform="translate(-1882.467 -1006.636)" fill="#6e66c9"/><path d="M1907.617,1046.147l-17.487,4.357-7.663-43.868" transform="translate(-1882.467 -1006.636)" fill="#6e66c9"/></g></g><g transform="translate(145.93 158.864)"><g transform="translate(18.803 21.889)"><path d="M1491.047,1000.018c2.232-.356.581-6.039-2.848-4.669s-12.779,9.7-12.779,9.7l1.982,2.9S1486.379,1000.762,1491.047,1000.018Z" transform="translate(-1475.421 -995.136)" fill="#6691dd"/><path d="M1481.837,1021.684a11.427,11.427,0,0,1-1.378-2.461c-.008-.484-2.875,1.687-2.875,1.687l1.895,2.818Z" transform="translate(-1476.837 -1010.853)" fill="#fff"/><circle cx="0.361" cy="0.361" r="0.361" transform="translate(2.806 8.906)" fill="#3b57b5"/></g><path d="M1559.194,945.249s3.749,6.087.874,7.622-.833,4.239-.833,4.239l-6.429,2.734s.838-2.545.5-3.56-2.536-2.491-3.578-5.579c-1.541-4.57-.36-6.1.992-7.12S1556.466,940.513,1559.194,945.249Z" transform="translate(-1504.767 -938.64)" fill="#f8a17a"/><path d="M1491.16,1234.737s-.026.088-.075.228c-.284.819-1.342,3.4-2.531.394a33.814,33.814,0,0,1-1.735-6.808c-.044-.249.394-1.052.35-1.293s-.573.062-.62-.179c-.074-.379-.151-.746-.236-1.1-.622-2.606-.622-2.606,1.587-2.583s3.005-2.187,3.771-2.937,2.748,1.712,2.748,1.712a38.532,38.532,0,0,0-2.792,5.293C1491.353,1228.631,1491.828,1232.924,1491.16,1234.737Z" transform="translate(-1463.512 -1120.612)"/><path d="M1438.033,1224.905s-.026.089-.074.229c-.284.819-1.342,3.4-2.532.394a33.824,33.824,0,0,1-1.734-6.808c-.044-.249.394-1.051.35-1.293s-.573.062-.62-.179c-.074-.379-.152-.746-.236-1.1-.623-2.605-.623-2.605,1.587-2.583s3.006-2.186,3.771-2.937,2.748,1.712,2.748,1.712a38.513,38.513,0,0,0-2.792,5.293C1438.227,1218.8,1438.7,1223.093,1438.033,1224.905Z" transform="translate(-1428.744 -1114.178)"/><path d="M1460.789,1138.847c-.437,1.342-2.331,3.548-3.17,4.763a70.731,70.731,0,0,0-10.147,20.75c.39,1.892,3.57,2.6,3.973,1.611s13.327-20.039,15.031-22.817l.036-.057C1468.489,1137.6,1463.583,1136.684,1460.789,1138.847Z" transform="translate(-1438.328 -1066.588)" fill="#2a2a7c"/><path d="M1499.045,1064.306c-2.993,1.678-5.409,7.637-6.925,12.8-1.063,3.623-4.336,9.19-7.165,13.6-2.022,3.818,1.4,8.415,5.724,4.25,1.813-2.889,7.421-8.994,12.674-15.606s5.455-10.4,5.455-10.4C1504.829,1067.516,1500.637,1065.771,1499.045,1064.306Z" transform="translate(-1462.467 -1018.514)" fill="#2a2a7c"/><path d="M1508.17,1148.043c-7.775,11.456-12.78,26.122-12.78,26.122l4.079,1.7s13.249-19.411,16.577-24.481S1512,1144.624,1508.17,1148.043Z" transform="translate(-1469.686 -1072.145)" fill="#2a2a7c"/><path d="M1546.208,1083.259a56.952,56.952,0,0,0,2.254-14.119s-4.557-3.137-8.611-2.807-5.507,7.083-5.432,11.11c.075,2.779-1.943,16.345-1.606,18.888s6.669,4.852,8.348,1.579S1545.476,1085.556,1546.208,1083.259Z" transform="translate(-1494.152 -1019.825)" fill="#2a2a7c"/><path d="M1557.134,938.268c1.025,2.2-.664,3.9.021,5.931s-1.688,1.7-1.866-.5-1.869-1.349-1.863.345c.009,2.732,1.886,6.433-4.215,5.945-4.4-.352-4.086-5.408-4.092-7.1s-.52-3.218,2.692-5.432C1552.418,934.278,1556.11,936.069,1557.134,938.268Z" transform="translate(-1502.209 -934.373)" fill="#0b2d4e"/><path d="M1505.412,992.968c3.949.266,7.984-.341,11.943-.237a27.247,27.247,0,0,0,8.921.014,6.2,6.2,0,0,0,3.153-4.331,8.271,8.271,0,0,0-2.549-3.712c-2.7-1.976-6.21-1.181-9.181-.306-4.165,1.226-8.465,2.088-12.273,4.213a3.461,3.461,0,0,0-1.24,1.424,2.985,2.985,0,0,0,.36,1.73C1504.715,992.238,1504.869,992.823,1505.412,992.968Z" transform="translate(-1475.414 -965.614)" fill="#6691dd"/><path d="M1468.017,1028.042a2.852,2.852,0,0,1-3.146,1.333c-1.8,0-1.155-1.82-.6-2.863a2.2,2.2,0,0,1,2.871-1.568C1470.308,1024.834,1470.855,1026.415,1468.017,1028.042Z" transform="translate(-1448.938 -992.69)" fill="#f8a17a"/><g transform="translate(33.35 16.028)"><path d="M1538.737,1010.176s-12.761,5.81-20.721-1.219c-2.909-3.528,7.83-16.934,7.948-18.6,0,0,.775-8.835,2.6-9.885s6.385-2.939,8.461-2.076c.419.174,2.372,3.09,4.869,2.851,4.863,3.586,4.65,6.846,2.587,11.229s-4.728,9.386-5.391,12.564A15.654,15.654,0,0,0,1538.737,1010.176Z" transform="translate(-1517.517 -978.176)" fill="#6691dd"/></g><g transform="translate(58.524 21.385)"><path d="M1592.036,993.68c.561,3.981.618,8.162-1.671,11.758a3.879,3.879,0,0,0,.376.127c.482-.993.963-1.983,1.414-2.943C1593.773,999.183,1594.252,996.436,1592.036,993.68Z" transform="translate(-1590.365 -993.68)" fill="#3b57b5"/></g><path d="M1576.6,1025.3a1.858,1.858,0,0,0-.243-.034,5.458,5.458,0,0,0-2.82.807,10.285,10.285,0,0,0-4.7,4.152c-1.03,2.046-.853,4.478-.463,6.735.429,2.485.427,4.985.553,5.394a14.227,14.227,0,0,0,2.893-1.366,15.66,15.66,0,0,1,.353-5.136C1572.735,1033.15,1574.744,1029.133,1576.6,1025.3Z" transform="translate(-1517.248 -992.959)" fill="#3b57b5"/><g transform="translate(49.699)"><path d="M1588.368,982.682c-3.957-.1-7.963.673-11.923.734a27.272,27.272,0,0,0-8.914.357c-3.463,1.86-3.65,5.943-.269,8.062,2.781,1.862,6.253.921,9.185-.077C1579.617,990.27,1594.051,987.895,1588.368,982.682Z" transform="translate(-1564.827 -965.091)" fill="#6691dd"/><path d="M1650.511,936.978c1.02-1.346.895-3.43,2.265-4.468,1.548-1.287,4.35-.814,4.863,1.243-.693,1.368-.972,4.377-3,4.13-1.264-.477-2.139.535-3.186.953C1650.63,938.521,1649.953,937.868,1650.511,936.978Z" transform="translate(-1620.768 -931.795)" fill="#f8a17a"/><g transform="translate(19.153 5.859)"><path d="M1620.751,961.085c-1.831,1.326,1.775,5.914,4.487,3.41s8.474-14.887,8.474-14.887l-3.369-.857S1623.891,958.811,1620.751,961.085Z" transform="translate(-1620.252 -948.751)" fill="#6691dd"/></g></g><path d="M1557.792,981.225s-3.456-1.724-1.3-2.518c.613-.226,7.023-.39,7.37-.093s.834.8.834.8-.14,1.345-.931,1.213A56.529,56.529,0,0,0,1557.792,981.225Z" transform="translate(-1509.209 -962.329)" fill="#fff"/><path d="M1642.657,952.065s3.032,1.7,3.438,1.341,2.184-2.824,2.184-2.824a28.672,28.672,0,0,0-3.855-.642A15.874,15.874,0,0,0,1642.657,952.065Z" transform="translate(-1566.062 -943.66)" fill="#fff"/><circle cx="0.391" cy="0.391" r="0.391" transform="translate(79.253 8.53)" fill="#3b57b5"/><path d="M1517.464,1069.824a18.528,18.528,0,0,0,12.334,2.734c7.517-1.29,8.207-2.436,8.207-2.436l.416-1.651s-10.942,2.221-16.265.737c-4.015-1.769-4.18-1.624-4.18-1.624C1518.02,1068.264,1518.47,1068.773,1517.464,1069.824Z" transform="translate(-1484.132 -1020.657)" fill="#fff"/><g transform="translate(0 33.529)"><path d="M1429.836,1033.722c.143.182,2.177,1.862,2.177,1.862l-7.862,14.1-3.142-3Z" transform="translate(-1421.009 -1032.028)" fill="#2a2a7c"/><path d="M1437.962,1039.109c.984.194,10.557,3.771,10.557,3.771s-5.6,11.456-5.536,11.647-12.882-1.315-12.882-1.315" transform="translate(-1426.958 -1035.553)" fill="#5751bb"/><path d="M1446.552,1033.722l10.706,3.532,2.027,2.1-10.557-3.771Z" transform="translate(-1437.725 -1032.028)" fill="#5851bc"/><g transform="translate(12.043)"><path d="M1455.858,1031.9l2.385-3.083,1.941.46.513.4-.317.677-1.548-.369-1.665,2.471-.888-.226Z" transform="translate(-1455.858 -1028.819)" fill="#2a2a7c"/><path d="M1471.771,1034.3l-.726,2.221.335.26.881.327,1.147-3.756s-.395-.407-.431-.215C1472.907,1033.521,1472.458,1033.906,1471.771,1034.3Z" transform="translate(-1465.797 -1031.611)" fill="#2a2a7c"/></g><path d="M1429.964,1035.817l1.686,1.3-2.761,4.943.175.645-4.577,7.841-2.751-2.448Z" transform="translate(-1421.484 -1033.399)" fill="#5851bc"/><path d="M1451.7,1039.388l-1.146,4.432,8.678,2.388,2.671-3.146Z" transform="translate(-1440.347 -1035.736)" fill="#6e66c9"/></g></g><g transform="translate(262.799 92.388)"><path d="M1760.255,773.349c-.336-.041-.673-.071-1.01-.1-.163.291.182.526.435.594,3.356.672,1.037,2.872,3.385,3.819,1.956.9,2.294-.852,3.662-.7.345.537,1.035,1,1.3.123C1768.174,775.329,1761.807,773.426,1760.255,773.349Z" transform="translate(-1759.202 -761.561)" fill="#f8a17a"/><path d="M1795.55,792.261c-3.514-3.009-8.088-6.646-14.036-11.066l-1.286,1.586s5.985,6.8,11.65,13.187C1794.486,798.083,1797.455,794.656,1795.55,792.261Z" transform="translate(-1772.962 -766.762)" fill="#7a79cc"/><g transform="translate(18.085 22.918)"><path d="M1829.39,811.481c1.88-.322,3.747-1.15,3.1-2.99-.761-1.123.118-5.035-18.541-.86-3.857.971-2.7,5.243.766,5.161C1821.8,812.206,1828.536,811.628,1829.39,811.481Z" transform="translate(-1811.536 -805.749)" fill="#7a79cc"/><path d="M1836.4,812.417c1.879-.322,3.746-1.15,3.1-2.99-.348-.513-.354-1.608-2.036-2.248-7.41,1.747-8.107,5.032-15.217,6.506C1829.016,812.28,1835.563,812.56,1836.4,812.417Z" transform="translate(-1818.542 -806.685)" fill="#5851bc"/></g><path d="M1888.038,817.143a15.915,15.915,0,0,1-18.056,7.1c-2.681-7.019-2.771-7.845-6.754-16.978s-5.266-9.8-1.115-13,13.8-4.974,14.827-4.35S1887.569,813.957,1888.038,817.143Z" transform="translate(-1824.877 -772.385)" fill="#7a79cc"/><g transform="translate(37.493 30.576)"><path d="M1867.7,830.276a47.719,47.719,0,0,0,8.1.411,30.63,30.63,0,0,0,8.885-1.1,14.094,14.094,0,0,0,3.507-1.683c2.53,6.211,4.949,12.622,5.179,14.182a15.915,15.915,0,0,1-18.056,7.1c-2.681-7.019-2.771-7.845-6.753-16.977C1868.255,831.517,1867.971,830.877,1867.7,830.276Z" transform="translate(-1867.7 -827.908)" fill="#5851bc"/></g><path d="M1933.531,916.936l-2.207,1.208s-22.884-35-25.386-39.115c1.465,7.184,2.483,14.043,3.087,17.208.986,5.165,14.4,20.261,14.4,20.261l-2.666,2.169s-14.379-14.141-17.591-19.381c-3.882-6.333-5.932-18.022-8.2-24.357,5.321-4.407,13.395-7.2,15.838-8.663.719,2.226,6.4,12.739,10.641,21.612S1933.531,916.936,1933.531,916.936Z" transform="translate(-1848.05 -822.435)" fill="#3d3c5b"/><path d="M1983.681,838.493s2.783.357,3.445,1.612.419,2.89-.858,3.4-2.492-3.052-2.492-3.052l-.969-1.076Z" transform="translate(-1905.537 -804.259)" fill="#f8a17a"/><path d="M1942.586,809.187c3.782,2.664,7.869,5.884,13.62,10.558l-1.22,1.638s-8.062-4.124-15.652-8.039C1936.64,811.338,1939.8,807.931,1942.586,809.187Z" transform="translate(-1876.415 -784.903)" fill="#7a79cc"/><g transform="translate(47.831 17.268)"><path d="M1899.97,794.687c-1.658-.941-3.134-2.354-1.9-3.864,1.1-.8,1.6-4.776,17.732,5.486,3.3,2.223.764,5.85-2.473,4.594C1906.86,797.943,1900.724,795.114,1899.97,794.687Z" transform="translate(-1897.614 -789.398)" fill="#7a79cc"/></g><path d="M1881.3,809.8l5.788,10.31-1,4.418s-3.118-2.624-3.178-2.777-2.377-11.651-2.377-11.651Z" transform="translate(-1838.607 -785.483)" fill="#212121"/><path d="M1871.617,781.033c0,.294,2.81,4.009,2.769,4.2a9.013,9.013,0,0,1-3.22,2.276,10.96,10.96,0,0,1-2.133.482s-1.923-5.041-2.466-5.973C1870.465,779.9,1871.617,781.033,1871.617,781.033Z" transform="translate(-1829.465 -766.457)" fill="#f8a17a"/><ellipse cx="6.345" cy="8.169" rx="6.345" ry="8.169" transform="matrix(0.992, -0.126, 0.126, 0.992, 31.848, 1.594)" fill="#f8a17a"/><path d="M1883.348,787.027l2.315,1.3s-1.935,5.992-1.982,5.874-2.236-3.2-2.189-3.274S1883.348,787.027,1883.348,787.027Z" transform="translate(-1839.232 -770.578)" fill="#5851bc"/><path d="M1870.9,796.537a32.643,32.643,0,0,1-.3,4.075c-.126.03-2.722-3.534-2.722-3.534l.362-2.317Z" transform="translate(-1830.321 -775.64)" fill="#5851bc"/><path d="M1878.31,801.809l1.1,1.068-.6,1.547-1.5-.817.438-1.578Z" transform="translate(-1836.497 -780.252)" fill="#212121"/><path d="M1970.834,1012.792c.542-.73,2.222-.461,2.778,1.259s1.447,3.75,1.353,5.189-1.114,1.355-1.513.878-3.525-3.7-3.292-5.674c.171-1.445.672-1.725.672-1.725" transform="translate(-1897.251 -918.077)" fill="#212121"/><path d="M2002.454,1015.34c.663-.621,2.269-.057,2.508,1.735s.753,3.948.4,5.348-1.338,1.134-1.646.593-2.808-4.27-2.225-6.171c.426-1.391.969-1.577.969-1.577" transform="translate(-1917.709 -919.834)" fill="#212121"/><path d="M1880.035,755.554s2.225,1.242,2.6-1,1.3-5.224.306-7.292-3.131-3.26-4.215-2.026-2.659,1.86-1.457,4.39,3.008,1.691,3.608.7.432,1.61-.29,2.048S1878.637,754.756,1880.035,755.554Z" transform="translate(-1836.187 -742.902)" fill="#212121"/><ellipse cx="1.224" cy="1.642" rx="1.224" ry="1.642" transform="matrix(0.992, -0.126, 0.126, 0.992, 42.855, 7)" fill="#f8a17a"/><path d="M1860.791,742.924s-.491,2.218-4.7,2.684-4.5,3.664-5.681,3.042-3.494-4.079,2.12-6.187S1860.639,741.142,1860.791,742.924Z" transform="translate(-1817.92 -740.587)" fill="#212121"/><g transform="translate(71.196 36.312)"><path d="M1966.792,859.556c.213.091,2.8.6,2.8.6l-.175,16.146-4.191-1.134Z" transform="translate(-1965.227 -854.356)" fill="#2a2a7c"/><path d="M1977.531,858.011c.957-.3,11.076-1.727,11.076-1.727s.548,12.74.7,12.877-11.947,5-11.947,5" transform="translate(-1973.165 -852.214)" fill="#5751bb"/><path d="M1969.756,855.753l11.094-2.008,2.784.878-11.077,1.727Z" transform="translate(-1968.191 -850.552)" fill="#5851bc"/><g transform="translate(5.054)"><path d="M1979.851,850.368l.624-3.848L1982.4,846l.64.1.045.746-1.537.415-.283,2.966-.889.225Z" transform="translate(-1979.851 -845.483)" fill="#2a2a7c"/><path d="M1995.542,846.527l.062,1.965.419.068.931-.133-.786-3.849s-.541-.17-.481.017A2.505,2.505,0,0,1,1995.542,846.527Z" transform="translate(-1990.12 -844.508)" fill="#2a2a7c"/></g><path d="M1967.288,861.877l2.1.341-.066,5.661.462.483-.278,9.075-3.586-.837Z" transform="translate(-1965.683 -855.875)" fill="#5851bc"/><path d="M1978.895,857.927l1.109,4.442,8.766-2.045.844-4.04Z" transform="translate(-1974.172 -852.214)" fill="#6e66c9"/></g><path d="M1911.886,807.892l-1.781-.436-.044-.011c2.141,1.01,5.746,2.672,9.653,4.462-.154-.119-.311-.235-.469-.347a40.05,40.05,0,0,0-4.371-2.574c-.312-.167-.625-.333-.95-.474A12.791,12.791,0,0,0,1911.886,807.892Z" transform="translate(-1857.929 -783.941)" fill="#5851bc"/></g><g transform="translate(25.927 167.15)"><g transform="translate(8.224 67.623)"><path d="M1114.481,1153.891s-5.83-1.268-5.88,2.39-.687,8.7-.687,8.7a17.655,17.655,0,0,1,9.111-7.077l-.949-4.108Z" transform="translate(-1104.332 -1152.911)" fill="#f8a17a"/><path d="M1097.592,1152.763c1.427-.294,6.186-2.119,7.02-.88.64.565.427,1.176.089,1.835s-3.838,7.236-2.937,8.845c-.547,2.024-1.025,4.243-1.815,4.27s-1.667-1.757-2.236-3.756,3.875-9.155,3.274-9.206-3.44-.209-3.44-.209Z" transform="translate(-1097.548 -1151.457)" fill="#212121"/></g><g transform="translate(0 47.355)"><path d="M1093.025,1099.007s-4.724-3.644-6.337-.361-1.9,8.642-1.9,8.642,1.882-4.2,8.81-3.563l.9-4.118Z" transform="translate(-1080.976 -1095.73)" fill="#f8a17a"/><path d="M1074.209,1092.994c1.324-.04,6.951-.547,8.19.283s-.063,1.765-.488,2.226-4.75,6.674-4.066,8.387c-.806,1.935-1.9,3.921-2.356,4s-1.423-1.959-1.726-4.016,5.037-8.57,4.448-8.7-4.375-1.433-4.375-1.433Z" transform="translate(-1073.749 -1092.804)" fill="#212121"/></g><path d="M1221.161,1087.162l-.6,1.892c-1.258,4.367-13.3,15.2-17.226,17.658-5.554,4.132-11.6.514-6.964-4.363a48.541,48.541,0,0,0,9.616-12.566c-.125.1,5.281-7.965,9.218-11.2Z" transform="translate(-1152.92 -1036.143)" fill="#323656"/><path d="M1196.289,1065.189l3.3,7.337c2.956,8.574-6.57,7.832-11.576,9.553-3.571.985-7.747,2.455-15.628,4.223-5.176-.917-7.237-5.7-1.694-7.747.257-.108.517-.214.767-.328C1178.035,1075.208,1187.429,1065.939,1196.289,1065.189Z" transform="translate(-1135.033 -1027.377)" fill="#323656"/><path d="M1130.463,1109.5c-.5-.034-2.274-.3-2.794-.332-6.967-.481-18.641-.937-24.328-2.84l1.771-5.665c8.85-.276,17.629,1.474,24.667.7C1135.952,1102.676,1138.124,1107.5,1130.463,1109.5Z" transform="translate(-1093.115 -1050.57)" fill="#323656"/><path d="M1127.519,1152.507l-1.933-6.718s11.465-3.517,19.606-2.825a36.784,36.784,0,0,0,7.863-.276c5.83,1.217,6.088,4.84,2.747,7.152S1127.519,1152.507,1127.519,1152.507Z" transform="translate(-1107.673 -1078.095)" fill="#323656"/><path d="M1319.432,966.517s2.016,5.977-.533,8.334a4.117,4.117,0,0,1-5.3.211l-1.162,5.566-5.053-.835s1.166-10.8,2.913-13.612S1317.9,961.972,1319.432,966.517Z" transform="translate(-1226.65 -960.88)" fill="#f8a17a"/><g transform="translate(66.708 21.235)"><path d="M1316.249,1075.808l1.767.876a1.426,1.426,0,0,0,1.575.7,2.833,2.833,0,0,0,1.731-1.119,4.64,4.64,0,0,0,.427-2.021c-.045-.177-.4-1.65-2.206-.668-3.495,1.9-2.878.253-2.878.253Z" transform="translate(-1299.156 -1053.88)" fill="#f8a17a"/><path d="M1271.063,1065.767c5.695,2.407,15.251,1.71,15.251,1.71a6.878,6.878,0,0,1-1.2,3.292c-1.169,1.774-11.441,1.281-16.581-1.614-2.615-1.472-2.271-3.931.934-4.123A6.6,6.6,0,0,1,1271.063,1065.767Z" transform="translate(-1266.787 -1048.51)" fill="#7a79cc"/><path d="M1280.9,1067.527a30.022,30.022,0,0,1-9.837-1.76,6.615,6.615,0,0,0-1.6-.735c-3.2.192-3.549,2.65-.934,4.123a20.5,20.5,0,0,0,5.7,1.974C1276.636,1070.514,1279.191,1069.561,1280.9,1067.527Z" transform="translate(-1266.787 -1048.51)" fill="#5751bb"/><path d="M1280.384,1017.464c4.837,2.532-.13,6.951-2.552,9.68-2.172,2.447-5.585,6.046-6.405,8.534s-3.848,2.365-3.739-1.02C1268.159,1029.464,1276.048,1015.194,1280.384,1017.464Z" transform="translate(-1267.375 -1017.222)" fill="#5851bc"/></g><path d="M1229.776,1025.373s3.452,10.01,15.742,14.7a74.716,74.716,0,0,1,9.266-14.184c2.959-3.313,4.066.374,6.886-1.665,1.3-.938,1.366-4.187,1.563-6.252s2.7-3.793,1.868-5.219a23.479,23.479,0,0,0-3.771-5.161c-4.231-4.938-8.925-4.619-14.494,4.687S1232.216,1025.347,1229.776,1025.373Z" transform="translate(-1175.858 -987.616)" fill="#7a79cc"/><path d="M1326.437,1023.067a26.671,26.671,0,0,0-1.838-2.883c-.838,3.271-1.875,7.494-.216,10.258.077-.763.126-1.516.187-2.155C1324.766,1026.221,1327.268,1024.494,1326.437,1023.067Z" transform="translate(-1237.193 -997.925)" fill="#5751bb"/><g transform="translate(81.739 4.112)"><path d="M1405.369,969.015c.555-.676,1.3-1.48,2.255-1.326,1.947,3.178-5.091,9.457-6.31,5.887C1402.267,971.858,1404.211,970.669,1405.369,969.015Z" transform="translate(-1369.857 -967.67)" fill="#f8a17a"/><path d="M1361.581,990.782c5.737-2.3,12.218-9.27,12.218-9.27a6.881,6.881,0,0,1,1.464,3.184c.42,2.082-7.558,7.67-13.114,10.835-2.607,1.486-4.57-2.025-2.032-3.882A9.869,9.869,0,0,1,1361.581,990.782Z" transform="translate(-1342.124 -976.729)" fill="#7a79cc"/><path d="M1310.716,1017.135c-2.187-5,4.452-5.339,8.05-5.951,3.225-.548,8.14-1.219,10.337-2.646s4.171,1.393,1.967,3.965C1325.659,1015.91,1312.677,1021.619,1310.716,1017.135Z" transform="translate(-1310.284 -994.164)" fill="#7a79cc"/></g><path d="M1231.268,968.347s-5.551,7.49.117,8.919c5.518-1.489,6.5-2.142,6.5-2.142l-4.348,2.887s-1.772,1.529-.306,2.718,5.145-.069,9.034-1.686c1.939-.807-.115,3.406,2.178,2.6,9.616-3.364,14.8-10.26,16.554-13.892,3.568-5.237,4.159-3.111,4.159-3.111l4.873-3.077a7.361,7.361,0,0,0-6.812-5.746c-9.057-.884-11.822,10.4-11.977,10.636C1249.316,969.4,1234.885,970.605,1231.268,968.347Z" transform="translate(-1175.242 -955.771)" fill="#212121"/><ellipse cx="1.698" cy="1.519" rx="1.698" ry="1.519" transform="translate(85.943 10.614) rotate(-74.609)" fill="#f8a17a"/></g><g transform="translate(109.188 203.476)"><path d="M1333.867,1067.823l-.4-.635-.212-.339-2.467-3.95-.212-.339-.183-.293a2.924,2.924,0,0,0-4.026-.93l-10.31,6.44a2.921,2.921,0,0,0-.93,4.026l3.471,5.557a2.92,2.92,0,0,0,4.026.93l10.31-6.44A2.923,2.923,0,0,0,1333.867,1067.823Zm-1.456-.445-.432.27a.619.619,0,0,1-.853-.2l-1.812-2.9a.621.621,0,0,1,.2-.854l.432-.27ZM1322.1,1077.44a1.921,1.921,0,0,1-2.649-.612l-3.471-5.557a1.92,1.92,0,0,1,.612-2.649l10.31-6.44a1.925,1.925,0,0,1,2.649.612l.183.293-.432.27a1.019,1.019,0,0,0-.324,1.4l1.811,2.9a1.018,1.018,0,0,0,1.4.325l.432-.27.4.635a1.923,1.923,0,0,1-.612,2.649Z" transform="translate(-1314.686 -1060.892)" fill="#6e66c9"/><g transform="translate(9.219 3.173)"><path d="M1343.269,1074.475l.125-.078-1.622-2.6,2.115-1.321,1.544,2.472-2.24,1.4.078.125.125-.078-.125.078.078.125,2.49-1.555-1.857-2.972-2.615,1.634,1.857,2.972.125-.078Z" transform="translate(-1341.365 -1070.072)" fill="#6e66c9"/><rect width="0.351" height="3.71" transform="matrix(0.848, -0.53, 0.53, 0.848, 4.43, 3.848)" fill="#6e66c9"/><rect width="0.351" height="3.71" transform="matrix(0.848, -0.53, 0.53, 0.848, 3.741, 4.278)" fill="#6e66c9"/><rect width="0.351" height="3.71" transform="matrix(0.848, -0.53, 0.53, 0.848, 3.052, 4.708)" fill="#6e66c9"/><rect width="0.351" height="2.305" transform="matrix(0.848, -0.53, 0.53, 0.848, 2.363, 5.139)" fill="#6e66c9"/><path d="M1347.083,1072.959l-.252,1.37,2.718.628.155-.671-2.082-.481.14-.727Z" transform="translate(-1344.942 -1071.962)" fill="#7ac943"/></g><g transform="translate(5.565 5.455)"><path d="M1332.692,1081.081l.125-.078-1.622-2.6,2.115-1.321,1.544,2.472-2.24,1.4.078.125.125-.078-.125.078.078.125,2.49-1.556-1.856-2.972-2.615,1.634,1.857,2.972.125-.078Z" transform="translate(-1330.789 -1076.679)" fill="#6e66c9"/><rect width="0.351" height="3.71" transform="matrix(0.848, -0.53, 0.53, 0.848, 4.43, 3.848)" fill="#6e66c9"/><rect width="0.351" height="3.71" transform="matrix(0.848, -0.53, 0.53, 0.848, 3.741, 4.278)" fill="#6e66c9"/><rect width="0.351" height="3.71" transform="matrix(0.848, -0.53, 0.53, 0.848, 3.052, 4.708)" fill="#6e66c9"/><rect width="0.351" height="2.305" transform="matrix(0.848, -0.53, 0.53, 0.848, 2.363, 5.139)" fill="#6e66c9"/><path d="M1336.507,1079.565l-.252,1.37,2.718.628.155-.671-2.082-.481.139-.727Z" transform="translate(-1334.366 -1078.568)" fill="#7ac943"/></g><g transform="translate(1.91 7.738)"><path d="M1322.116,1087.687l.125-.078-1.622-2.6,2.115-1.321,1.544,2.471-2.24,1.4.078.125.125-.078-.125.078.078.125,2.49-1.555-1.857-2.972-2.615,1.634,1.857,2.972.125-.078Z" transform="translate(-1320.213 -1083.285)" fill="#6e66c9"/><rect width="0.351" height="3.71" transform="matrix(0.848, -0.53, 0.53, 0.848, 4.43, 3.848)" fill="#6e66c9"/><rect width="0.351" height="3.71" transform="matrix(0.848, -0.53, 0.53, 0.848, 3.741, 4.278)" fill="#6e66c9"/><rect width="0.351" height="3.71" transform="matrix(0.848, -0.53, 0.53, 0.848, 3.052, 4.708)" fill="#6e66c9"/><rect width="0.351" height="2.305" transform="matrix(0.848, -0.53, 0.53, 0.848, 2.363, 5.139)" fill="#6e66c9"/><path d="M1325.93,1086.172l-.252,1.37,2.718.628.155-.671-2.082-.481.14-.727Z" transform="translate(-1323.789 -1085.174)" fill="#7ac943"/></g></g></g></g></svg>