<svg xmlns="http://www.w3.org/2000/svg" width="343.682" height="327.673" viewBox="0 0 343.682 327.673"><g transform="translate(-996.296 -317.426)"><path d="M1139.789,340.338s-20.874,2.229-72.552,31.047-88.142,71.407-62.563,86.031,35.375,27.624,23.4,40.716-42.994,43.122,5.987,61.305,117.009,31.245,191.024,8.387,114.288-49.769,98.505-73.865-11.708-43.389,3.4-59.049,12.027-37.263-18.271-58.027-92.163-46.225-117.816-45.1S1139.789,340.338,1139.789,340.338Z" transform="translate(0 -9.767)" fill="#f2f1f0"/><circle cx="115.912" cy="115.912" r="115.912" transform="translate(1066.648 317.426)" fill="#929fff"/><circle cx="95.161" cy="95.161" r="95.161" transform="translate(1087.399 338.177)" fill="#8094f9"/><path d="M1565.014,591.422l45.375-29.662-29.662,45.375Z" transform="translate(-387.878 -166.641)" fill="#ffbc48"/><path d="M1501.392,655.043l-29.662,45.375,45.375-29.662Z" transform="translate(-324.256 -230.263)" fill="#ffbc48"/><circle cx="11.111" cy="11.111" r="11.111" transform="translate(1173.881 421.526)" fill="#1e43c6"/><g transform="translate(1180.94 347.62)"><path d="M1577.75,425.648a.773.773,0,0,1-.772-.773V413.157a.773.773,0,1,1,1.545,0v11.718A.773.773,0,0,1,1577.75,425.648Z" transform="translate(-1576.978 -412.384)" fill="#ffbc48"/></g><g transform="translate(1180.94 502.151)"><path d="M1577.75,911.628a.773.773,0,0,1-.772-.773V899.136a.773.773,0,1,1,1.545,0v11.719A.773.773,0,0,1,1577.75,911.628Z" transform="translate(-1576.978 -898.363)" fill="#ffbc48"/></g><g transform="translate(1252.346 430.745)"><path d="M1814.032,675.346h-11.719a.773.773,0,1,1,0-1.545h11.719a.773.773,0,1,1,0,1.545Z" transform="translate(-1801.54 -673.801)" fill="#ffbc48"/></g><g transform="translate(1097.815 430.745)"><path d="M1328.052,675.346h-11.718a.773.773,0,1,1,0-1.545h11.718a.773.773,0,1,1,0,1.545Z" transform="translate(-1315.561 -673.801)" fill="#ffbc48"/></g><g transform="translate(1231.432 481.237)"><path d="M1744.827,842.423a.771.771,0,0,1-.547-.226l-8.286-8.286a.773.773,0,0,1,1.093-1.093l8.286,8.286a.773.773,0,0,1-.546,1.319Z" transform="translate(-1735.768 -832.591)" fill="#f2f1f0"/></g><g transform="translate(1122.162 371.967)"><path d="M1401.187,498.783a.769.769,0,0,1-.546-.226l-8.286-8.286a.773.773,0,0,1,1.093-1.093l8.286,8.286a.773.773,0,0,1-.546,1.319Z" transform="translate(-1392.128 -488.951)" fill="#f2f1f0"/></g><g transform="translate(1122.162 481.237)"><path d="M1392.9,842.423a.773.773,0,0,1-.546-1.319l8.286-8.286a.773.773,0,0,1,1.093,1.093l-8.286,8.286A.771.771,0,0,1,1392.9,842.423Z" transform="translate(-1392.128 -832.591)" fill="#f2f1f0"/></g><g transform="translate(1231.432 371.967)"><path d="M1736.541,498.783a.773.773,0,0,1-.546-1.319l8.286-8.286a.773.773,0,0,1,1.093,1.093l-8.286,8.286A.769.769,0,0,1,1736.541,498.783Z" transform="translate(-1735.768 -488.951)" fill="#f2f1f0"/></g><g transform="translate(1103.898 457.558)"><path d="M1335.463,764.07a.773.773,0,0,1-.29-1.489l10.861-4.4a.772.772,0,1,1,.58,1.432l-10.861,4.4A.774.774,0,0,1,1335.463,764.07Z" transform="translate(-1334.69 -758.125)" fill="#f2f1f0"/></g><g transform="translate(1247.121 399.532)"><path d="M1785.881,581.585a.773.773,0,0,1-.291-1.489l10.861-4.4a.773.773,0,1,1,.58,1.432l-10.861,4.4A.77.77,0,0,1,1785.881,581.585Z" transform="translate(-1785.107 -575.639)" fill="#f2f1f0"/></g><g transform="translate(1104.392 398.339)"><path d="M1347.807,578a.771.771,0,0,1-.3-.061l-10.792-4.568a.773.773,0,0,1,.6-1.423l10.792,4.568a.773.773,0,0,1-.3,1.484Z" transform="translate(-1336.243 -571.887)" fill="#f2f1f0"/></g><g transform="translate(1247.408 459.21)"><rect width="0.314" height="11.719" transform="translate(0 0.289) rotate(-67.054)"/></g><g transform="translate(1149.726 353.703)"><path d="M1483.988,443.92a.773.773,0,0,1-.716-.483l-4.4-10.861a.773.773,0,0,1,1.432-.58l4.4,10.861a.773.773,0,0,1-.716,1.063Z" transform="translate(-1478.815 -431.514)" fill="#f2f1f0"/></g><g transform="translate(1207.753 496.926)"><path d="M1666.474,894.338a.773.773,0,0,1-.716-.483l-4.4-10.861a.773.773,0,1,1,1.432-.58l4.4,10.861a.773.773,0,0,1-.716,1.063Z" transform="translate(-1661.301 -881.931)" fill="#f2f1f0"/></g><g transform="translate(1208.777 354.196)"><path d="M1665.293,445.4a.773.773,0,0,1-.711-1.074l4.568-10.792a.773.773,0,0,1,1.423.6l-4.568,10.792A.773.773,0,0,1,1665.293,445.4Z" transform="translate(-1664.521 -433.065)" fill="#f2f1f0"/></g><g transform="translate(1148.534 496.502)"><path d="M1475.838,892.934a.773.773,0,0,1-.711-1.074l4.568-10.791a.773.773,0,1,1,1.423.6l-4.568,10.791A.774.774,0,0,1,1475.838,892.934Z" transform="translate(-1475.065 -880.597)" fill="#f2f1f0"/></g><circle cx="2.738" cy="2.738" r="2.738" transform="translate(1176.286 432.139)" fill="#2758e2"/><circle cx="1.859" cy="1.859" r="1.859" transform="translate(1183.438 432.638)" fill="#2758e2"/><path d="M1140.747,1239.287s-55.595,6.3-29.91,15.548,58.542,4.508,46.863,12.67c-7.763,5.426,6.788,7.135,18.489,5.708s49.769-13.111,23.839-24.249C1171.861,1236.867,1140.747,1239.287,1140.747,1239.287Z" transform="translate(-73.497 -628.595)" fill="#e0e0e0"/><path d="M1777.485,1177.562s74.7,8.684,54.343,23.577c-21.635,15.828-111.536,11.486-98.9,1.265,10.045-8.125,25.82-10.649,14.413-12.619-13.562-2.341-3.917-7.974,8.767-10.292C1777.021,1175.672,1777.485,1177.562,1777.485,1177.562Z" transform="translate(-501.573 -586.313)" fill="#e0e0e0"/><path d="M1929.706,1095.236l7.714,36h23.141l6.353-36Z" transform="translate(-636.606 -530.484)" fill="#8094f9"/><path d="M1988.319,901s-4.235-12.251,2.722-21.931,11.446-10.442,12.4-16.335c1.664-10.247-3.676-13.131-2.988-18.975,1.021-8.66,10.386-5.487,9.529-15.774-.681-8.167,4.225-23.12-10.473-15.389-13.177,6.93-16.637,26.846-18.679,46.13S1982.08,901,1982.08,901Z" transform="translate(-671.02 -336.251)" fill="#3062ef"/><path d="M1923.726,918.576s3.852-11.143-2.476-19.947-10.41-9.5-11.28-14.857c-1.513-9.32,3.343-11.944,2.717-17.258-.929-7.877-9.446-4.991-8.667-14.347.619-7.429-3.842-21.029,9.526-14,11.984,6.3,15.132,24.417,16.989,41.957s-1.135,38.449-1.135,38.449Z" transform="translate(-618.925 -353.824)" fill="#1e43c6"/><g transform="translate(1311.99 488.108)"><path d="M1990.943,931.071a.227.227,0,0,1-.219-.169,55.312,55.312,0,0,1-1.61-11.247c-.093-5.581,3.779-21.482,9.106-27.716,3.542-4.146,2.4-9.425,1.194-15.014a40.511,40.511,0,0,1-1.249-8.89,20.143,20.143,0,0,1,6.2-13.78.227.227,0,0,1,.3.343,19.665,19.665,0,0,0-6.047,13.444,40.12,40.12,0,0,0,1.239,8.787c1.232,5.7,2.4,11.089-1.293,15.406-5.263,6.159-9.088,21.889-9,27.414a54.777,54.777,0,0,0,1.595,11.138.227.227,0,0,1-.162.277A.221.221,0,0,1,1990.943,931.071Z" transform="translate(-1989.112 -854.2)" fill="#eaeaea"/></g><g transform="translate(1288.714 487.2)"><path d="M1935.121,929.124h-.016a.228.228,0,0,1-.211-.242c.014-.2,1.368-20.263-.7-25.615-.442-1.141-1.1-2.432-1.791-3.8-2.4-4.725-5.381-10.605-3.853-17.656,1.182-5.456-1.7-9.37-4.249-12.823-1.619-2.195-3.016-4.09-3.016-5.991,0-5.3-5.258-11.214-5.311-11.273a.227.227,0,1,1,.338-.3c.221.247,5.427,6.107,5.427,11.576,0,1.752,1.357,3.592,2.927,5.722,2.474,3.356,5.553,7.532,4.327,13.188-1.493,6.893,1.45,12.694,3.815,17.355.7,1.378,1.359,2.68,1.809,3.841,2.108,5.445.791,24.98.734,25.81A.227.227,0,0,1,1935.121,929.124Z" transform="translate(-1915.912 -851.345)" fill="#eaeaea"/></g><path d="M1100.66,1148.3l7.714,36h23.141l6.352-36Z" transform="translate(-71.179 -566.675)" fill="#1e43c6"/><path d="M1159.274,954.067s-4.235-12.251,2.722-21.931,11.446-10.442,12.4-16.334c1.664-10.247-3.676-13.132-2.987-18.975,1.021-8.66,10.386-5.487,9.529-15.774-.681-8.168,4.224-23.12-10.474-15.39-13.176,6.93-16.637,26.846-18.679,46.13s1.248,42.274,1.248,42.274Z" transform="translate(-105.593 -372.441)" fill="#3062ef"/><path d="M1094.681,971.641s3.852-11.143-2.476-19.947-10.41-9.5-11.28-14.857c-1.513-9.32,3.344-11.944,2.717-17.258-.929-7.877-9.446-4.99-8.666-14.347.619-7.428-3.842-21.028,9.526-14,11.984,6.3,15.132,24.418,16.989,41.957s-1.135,38.449-1.135,38.449Z" transform="translate(-53.498 -390.015)" fill="#8094f9"/><g transform="translate(1048.372 504.981)"><path d="M1161.9,984.135a.227.227,0,0,1-.219-.169,55.291,55.291,0,0,1-1.61-11.246c-.093-5.582,3.779-21.482,9.105-27.716,3.542-4.146,2.4-9.425,1.194-15.014a40.509,40.509,0,0,1-1.249-8.89,20.144,20.144,0,0,1,6.2-13.781.227.227,0,0,1,.3.343,19.663,19.663,0,0,0-6.048,13.444,40.142,40.142,0,0,0,1.239,8.787c1.232,5.7,2.4,11.089-1.293,15.405-5.263,6.159-9.089,21.889-9,27.413a54.774,54.774,0,0,0,1.595,11.139.227.227,0,0,1-.162.277A.211.211,0,0,1,1161.9,984.135Z" transform="translate(-1160.067 -907.264)" fill="#eaeaea"/></g><g transform="translate(1025.096 504.074)"><path d="M1106.075,982.189h-.016a.227.227,0,0,1-.211-.242c.014-.2,1.368-20.263-.7-25.614-.442-1.141-1.1-2.432-1.791-3.8-2.4-4.725-5.381-10.605-3.853-17.656,1.182-5.456-1.7-9.37-4.249-12.823-1.618-2.195-3.016-4.09-3.016-5.991,0-5.3-5.258-11.213-5.311-11.273a.227.227,0,1,1,.338-.3c.222.247,5.427,6.107,5.427,11.576,0,1.752,1.356,3.592,2.927,5.722,2.474,3.356,5.553,7.533,4.328,13.188-1.493,6.893,1.45,12.694,3.815,17.355.7,1.378,1.359,2.679,1.809,3.841,2.108,5.445.791,24.981.733,25.81A.227.227,0,0,1,1106.075,982.189Z" transform="translate(-1086.867 -904.409)" fill="#eaeaea"/></g><path d="M1276.467,1261.765a5.908,5.908,0,0,0-1.208,4.057c.064,2.7,0,4.25,0,4.25s4.507,4.829,9.529,3.541,18.93-10.624,18.93-10.624.129-4.829-3.219-6.182a8.9,8.9,0,0,0-5.8-.515l-5.924-.579-6.632,4.636Z" transform="translate(-190.257 -639.933)" fill="#1730a4"/><path d="M1222.964,1246.487a5.455,5.455,0,0,0-1.115,3.745c.06,2.5,0,3.923,0,3.923s4.161,4.458,8.8,3.269,17.475-9.807,17.475-9.807.119-4.458-2.972-5.706a8.219,8.219,0,0,0-5.35-.475l-5.468-.535-6.122,4.28Z" transform="translate(-153.83 -629.83)" fill="#1730a4"/><path d="M1279.064,1256.958v3.426s1.947,3.026,6.776,2.7,6.181-3.053,6.181-3.053v-3.242l-7.018-3.106Z" transform="translate(-192.854 -638.551)" fill="#6774ff"/><path d="M1225.361,1242.05v3.163s1.8,2.794,6.255,2.5,5.706-2.819,5.706-2.819V1241.9l-6.479-2.867Z" transform="translate(-156.227 -628.555)" fill="#6774ff"/><path d="M1179.4,911.32s-1.148,12.541,3.681,19.882,6.76,17.578,7.34,34.19-1.159,50.029-1.159,50.029,1.546,3.67,8.886,3.477a38.51,38.51,0,0,0,12.169-2.125V916.552l-17.771-3.894Z" transform="translate(-124.798 -405.049)" fill="#ffbc48"/><path d="M1206.978,904.793s-3.125,9.727,0,15.329,9.684,15.346,10.879,33.911,5.981,53.279,5.981,53.279l6.3-60.212-2.7-28.181-6.848-9.383-2.74-11.585-8.467-2.877Z" transform="translate(-142.742 -393.97)" fill="#f9a935"/><path d="M1218.1,905.437s-1.967,8.118,1.509,14.106,7.34,12.749,9.079,22.987,3.477,67.221,3.477,67.221,4.056,4.057,12.363,3.284,10.817-2.7,10.817-2.7-3.438-59.623-4.327-79.2-1.967-27.483-1.967-27.483L1237,895.075Z" transform="translate(-150.895 -393.97)" fill="#ffbc48"/><path d="M1315.844,793.927s2.246,8.974,3.5,11.775a63.106,63.106,0,0,0,2.994,5.7l-2.414,5.409-4.081-2.608-6.157-8.833s.709-9.807.645-10.1,4.668-5.795,4.668-5.795Z" transform="translate(-213.739 -321.949)" fill="#8291f9"/><path d="M1285.11,624.938a3.227,3.227,0,0,1-.246-2.293c.418-.966,1.513-.833,2.382-2.67s1.32-3.978,2.769-4.7a9.727,9.727,0,0,1,1.316-.543.452.452,0,0,0,.033-.845,17.313,17.313,0,0,0-4.568-1.381,5.678,5.678,0,0,0-3.606.58s-3.141,2.449-4.2,4.668a8,8,0,0,0-.711,5.65,32.415,32.415,0,0,1,.47,3.8,9.8,9.8,0,0,0,.821,1.561,36.23,36.23,0,0,0,4.6-.773C1284.253,627.844,1285.11,624.938,1285.11,624.938Z" transform="translate(-192.168 -201.22)" fill="#5e71fc"/><path d="M1195.278,719.876a147.171,147.171,0,0,0-2.886-16.438c-.147-.657-.286-1.267-.41-1.812h0c-3.875.159-8.353-6.861-9.384-13.815s-1.932-6.309-4.153-15.859a12.574,12.574,0,0,1,.193-7.553,7.623,7.623,0,0,1,.908-1.677c.023-.035.035-.054.035-.054a6.853,6.853,0,0,1,3.017-2.415,5.238,5.238,0,0,1,3.786.348l-.07-.541a7.117,7.117,0,0,0-.745-.784,15.815,15.815,0,0,0-3.6-2.453c-1-.506-1.785-.858-2.391-1.1a8.218,8.218,0,0,0-1.743-.56h0s-9.222-2.538-15.75-.977-16.574,6.842-16.574,6.842-20.089,18.544-13.008,35.028,12.621,21.762,12.621,21.762a50.862,50.862,0,0,0-1.5,7.773,45.784,45.784,0,0,0,.34,7.634s6.374,8.642,23.856,8.159,26.2-3.384,26.2-3.384S1195.954,727.505,1195.278,719.876Zm-43.01-26.923c-.066.525-2.882,5.613-2.882,5.613l-.788,1.738-2.445-3.446-2.9-6.085.456-3.778,2.762-1.92s2.511-2.8,3.349-2.156.386,3.152.386,3.152l2.059,3.863S1152.334,692.427,1152.268,692.952Z" transform="translate(-91.863 -229.331)" fill="#1e43c6"/><path d="M1244.526,632.709h0s-9.222-2.538-15.75-.977a35.041,35.041,0,0,1,.521-5.861,12.244,12.244,0,0,1,.87-2.268l11.25-2.847,2.125,4.844a38.68,38.68,0,0,0,.437,4.52A25.691,25.691,0,0,0,1244.526,632.709Z" transform="translate(-158.553 -206.878)" fill="#5e71fc"/><path d="M1249.371,571.392a37.88,37.88,0,0,1,3.477,9.175,36.615,36.615,0,0,1,.515,10.689s-7.276,2.06-12.684-.837a19.789,19.789,0,0,1-7.533-6.567s1.094-6.439,1.352-7.6,3.8-2.962,3.8-2.962Z" transform="translate(-161.537 -173.211)" fill="#6774ff"/><path d="M1177.89,734.22c-2.994,1.932-7.727,18.93-7.727,18.93a107.717,107.717,0,0,1,1.932-11.493s-3.346-6.069-5.023-9.515c-2.607-5.358,3.574-7.869,3.574-7.869s-3.381,2.9-2.511,5.652,4.81,8.213,4.81,8.213c1.047-4.119,1.951-7.008,1.951-7.008s-1.062-3.766-2.028-9.562c-.935-5.613-1.781-10.141-1.831-10.419a111.958,111.958,0,0,1,4.7,12.834c1.835,6.274,5.536,5.795,8.144,7.437S1180.884,732.288,1177.89,734.22Z" transform="translate(-116.036 -268.527)" fill="#1730a4"/><path d="M1299.6,692.04c-.386,4.5-2.963,6.954-6.838,7.116h0c-3.875.159-8.353-6.861-9.384-13.815s-1.932-6.309-4.153-15.859,4.153-11.7,4.153-11.7a5.239,5.239,0,0,1,3.786.348l-.07-.541a7.107,7.107,0,0,0-.745-.784,15.813,15.813,0,0,0-3.6-2.453c-1-.506-1.785-.858-2.391-1.1a15.65,15.65,0,0,1,3.531-2.044,13.2,13.2,0,0,1,5.347-1.151,121.636,121.636,0,0,1,7.564,18.544A72.483,72.483,0,0,1,1299.6,692.04Z" transform="translate(-192.638 -226.862)" fill="#1e43c6"/><path d="M1313.114,694.929s-2.639-5.54-3.218-8.951a33.02,33.02,0,0,0-4.377-11.4,5.41,5.41,0,0,0-2.075-1.97l-.07-.541a7.091,7.091,0,0,0-.745-.784,5.354,5.354,0,0,1,3.114,1.317c2.059,2.171,5.988,9.944,5.826,13.309C1311.46,688.23,1313.114,694.929,1313.114,694.929Z" transform="translate(-208.926 -241.341)" fill="#1730a4"/><path d="M1224.37,517.327s6.568,8.306,4.443,14.294-6.414,5.6-7.476,8.113.812,3,1.73,5.072a6.721,6.721,0,0,1,.22,4.281s-1.926-4.481-4.18-4.281c-2.7.24-4.733,3.138-2.028,5.359s4.79,2.347,4.259,4.008c-.975,3.042-11.55,6.133-17.732-3.236-5.045-7.646-1.545-10.528-1.545-10.528s-2.854-11.691,7.05-15.936c8.113-3.477,9.718-.6,12.556-1.739C1224.466,521.609,1224.37,517.327,1224.37,517.327Z" transform="translate(-139.529 -136.337)" fill="#0a0189"/><path d="M1290.15,726.434s-1.395.568-5.065-1.171-6.375-8.016-6.761-12.4-.483-3.531-3.187-11.644c-1.916-5.745-.016-11.153,1.255-13.819a12.577,12.577,0,0,0-.193,7.553c2.221,9.55,3.122,8.9,4.153,15.859s5.509,13.974,9.384,13.815h0C1289.864,725.167,1290,725.778,1290.15,726.434Z" transform="translate(-189.621 -252.328)" fill="#1730a4"/><path d="M1865.8,1195.571s1.573.994,1.739,4.264a21.147,21.147,0,0,1,0,4.057s-.663,2.774-4.389,2.815-20.908-3.519-20.908-3.519-.207-5.051,4.43-6.583a45.662,45.662,0,0,1,9.923-1.863Z" transform="translate(-576.956 -598.35)" fill="#ffbc48"/><path d="M1879.553,968.335s-1.114,4.525,0,12.767,1.3,33.519,1.114,43.959.062,13,.062,13,1.678,2.015,5.8,1.648,4.3-2.381,4.3-2.381,2.839-23.994,2.106-35.9-1.04-10.623.121-18.316,1.722-14.1,1.722-14.1l-6.788-6.6Z" transform="translate(-602.063 -439.9)" fill="#b0bdff"/><path d="M1825.484,1217.878s1.659,1.048,1.834,4.5a22.268,22.268,0,0,1,0,4.279s-.7,2.925-4.629,2.969-22.05-3.711-22.05-3.711-.218-5.327,4.672-6.942a48.153,48.153,0,0,1,10.465-1.964Z" transform="translate(-548.579 -613.533)" fill="#ffbc48"/><path d="M1840.468,977.045s-1.174,4.772,0,13.464,1.367,35.349,1.174,46.359.065,13.714.065,13.714,1.77,2.125,6.116,1.739,4.539-2.511,4.539-2.511,2.994-25.3,2.221-37.86-1.1-11.2.128-19.316,1.815-14.87,1.815-14.87l-7.158-6.957Z" transform="translate(-575.388 -445.621)" fill="#b8c2ff"/><path d="M1814.876,869.084s-.711,9.119-1.742,15.815a108.515,108.515,0,0,1-3.091,13.393s9.272,7.984,27.3,4.507,20.347-8.628,20.347-8.628,1.674-13.5.773-20.72-2.34-9.853-2.34-9.853l-13.5-2.136Z" transform="translate(-554.994 -371.045)" fill="#ffbc48"/><path d="M1929.906,528.929a200.953,200.953,0,0,1,15.586-12.757c8.757-6.439,15.968-11.332,15.968-11.332s.322-4.056,2.382-5.795,3.8-1.352,4.958-2.254,7.855-6.954,7.92-5.666-4.894,5.988-4.7,7.018,2.9,4.056.193,7.018-5.537,2.7-6.374,3.67-29.088,27.88-29.088,27.88l-5.3-.837Z" transform="translate(-636.742 -118.345)" fill="#b8c2ff"/><path d="M1820.542,631.614s-9.16,13.232-7.357,17.159,5.924,3.992,5.022,14.552-5.258,29.876-5.258,29.876a27.08,27.08,0,0,0,26.248,6.439c16.226-4.378,21.892-11.59,21.892-11.59s-1.674-11.847-5.924-21.248-7.34-9.69-6.858-13.457-.74-11.654-1.255-16.033,1.417-11.718,4.25-13.779a70.319,70.319,0,0,0,6.052-5.151,11.556,11.556,0,0,0-3.155-6.5,15.675,15.675,0,0,0-5.666-3.734,25.062,25.062,0,0,0-6.289,4.945l-2.21,2.717-17.835,13.2Z" transform="translate(-556.976 -198.277)" fill="#fff"/><path d="M1834.762,639.133a45.451,45.451,0,0,1,.656,5.447v5.264s5.215-.048,7.678-3.187,1.352-5.94,1.063-6.133-5.022-5.022-5.022-5.022l-1.4-.628-2.974.917Z" transform="translate(-571.852 -216.507)" fill="#a9b8ff"/><path d="M1811.752,575.5a37.739,37.739,0,0,0-2.382,10.366c-.322,5.28,1.932,11.332,1.932,11.332s6.117.129,9.851-3.091,5.666-10.366,5.666-10.366l-1.8-8.242-3.605-3.09-4.572-.515-2.254.515Z" transform="translate(-554.512 -173.557)" fill="#b8c2ff"/><path d="M1836.221,686.806s5.834-.575,6.788,7.239a110.839,110.839,0,0,1,.712,15.231,1.684,1.684,0,0,1-1.441,1.786,11.083,11.083,0,0,1-2.41-.019c-.677-.091-.676-.1-.676-.1s-.048,9.69-4.427,11.88a20.219,20.219,0,0,1-8.488,2.116l.245-1.608,4.6-6.159,1.063-6.712Z" transform="translate(-566.067 -251.919)" fill="#e0e0e0"/><path d="M1750.471,736.521s.1,19.221-15.067,13.04-24.387-13.666-25.836-13.811-2.946.145-4.443-.869c-1.106-.749-2.994-.048-4.443.676a3.339,3.339,0,0,1-2.041.188,1.491,1.491,0,0,1-1.192-1.861,13.989,13.989,0,0,1,2.172-4.8c2.093-2.511,4.636-2.849,7.871-1.883s3.96,2.946,5.312,3.525,21.335,8.693,25.047,8.083c2.042-.335,1.939-3.988,1.939-3.988s5.207-2.743,5.4-2.679S1750.471,736.521,1750.471,736.521Z" transform="translate(-478.165 -279.137)" fill="#b8c2ff"/><g transform="translate(1264.064 486.232)"><path d="M1845.7,851.278c-.346,0-.708-.005-1.087-.017-4.147-.132-5.577-1.037-5.822-1.218a.966.966,0,0,1,1.125-1.57c.063.039,1.263.747,4.758.857a20.121,20.121,0,0,0,5.8-.472.966.966,0,0,1,.573,1.845A19.547,19.547,0,0,1,1845.7,851.278Z" transform="translate(-1838.393 -848.3)" fill="#e0e0e0"/></g><path d="M1816.929,562.45s9.433-2.028,10.109,3.67-3.782,6.375-2.769,13.328c.857,5.88,6.472,19.586,16.9,17.481,11.01-2.221,11.783-12.818,9.658-17.371a7.641,7.641,0,0,0-5.026-3.863,3.475,3.475,0,0,1-2.329-4.363,14.275,14.275,0,0,0-1.82-12.1c-4.372-5.954-11.01-7.4-17.063-5.948C1819.464,554.517,1816.929,562.45,1816.929,562.45Z" transform="translate(-559.69 -160.502)" fill="#0a0189"/><path d="M1841.271,689.636a5.855,5.855,0,0,0-9.548-.929,10.842,10.842,0,0,0-2.081,4.66c-1.678,7.662-2.387,13.328-2.387,13.328s1.545,1.867,6.89,2.318,6.954,0,6.954,0,1.349-10.879,1.352-14.359A9.82,9.82,0,0,0,1841.271,689.636Z" transform="translate(-566.733 -251.821)" fill="#fff"/></g></svg>