<svg xmlns="http://www.w3.org/2000/svg" xmlns:xlink="http://www.w3.org/1999/xlink" width="54.55" height="54.55" viewBox="0 0 54.55 54.55"><defs><linearGradient id="a" x1="0.5" x2="0.5" y2="1" gradientUnits="objectBoundingBox"><stop offset="0" stop-color="#ff006c"/><stop offset="1" stop-color="#c90055"/></linearGradient><filter id="b" x="0" y="0" width="54.55" height="54.55" filterUnits="userSpaceOnUse"><feOffset dy="2" input="SourceAlpha"/><feGaussianBlur stdDeviation="3" result="c"/><feFlood flood-color="#dbe3ff"/><feComposite operator="in" in2="c"/><feComposite in="SourceGraphic"/></filter></defs><g transform="translate(-775 -2292)"><g transform="matrix(1, 0, 0, 1, 775, 2292)" filter="url(#b)"><path d="M9.4,0H27.151a9.4,9.4,0,0,1,9.4,9.4V27.151a9.4,9.4,0,0,1-9.4,9.4H9.4a9.4,9.4,0,0,1-9.4-9.4V9.4A9.4,9.4,0,0,1,9.4,0Z" transform="translate(9 7)" fill="url(#a)"/></g><g transform="translate(787.85 2302.743)"><path d="M22.511,10.219a.735.735,0,0,1-.72-.72,4.8,4.8,0,1,0-9.579,0,.735.735,0,0,1-.72.72.72.72,0,0,1-.72-.72,6.237,6.237,0,1,1,12.459,0,.72.72,0,0,1-.72.72Z" transform="translate(4.675 0.751)" fill="#fff"/><circle cx="0.922" cy="0.922" r="0.922" transform="translate(9.858 12.972)" fill="#fff"/><circle cx="0.663" cy="0.663" r="0.663" transform="translate(13.546 13.894)" fill="#fff"/><circle cx="0.663" cy="0.663" r="0.663" transform="translate(15.44 15.579)" fill="rgba(255,255,255,0.62)"/><path d="M4.16,15.68l.994,1.44a31.962,31.962,0,0,1,6.035-1.44" transform="translate(1.766 6.352)" fill="#fff"/><path d="M5.375,18.072a.72.72,0,0,1-.591-.288l-1.008-1.44a.735.735,0,0,1,.187-.994.72.72,0,0,1,1.008.187l.691,1.023a27.151,27.151,0,0,1,5.762-1.34.72.72,0,1,1,0,1.44A30.494,30.494,0,0,0,5.663,18.1.591.591,0,0,1,5.375,18.072Z" transform="translate(1.545 6.149)" fill="#fff"/><circle cx="0.663" cy="0.663" r="0.663" transform="translate(6.675 13.894)" fill="#fff"/><circle cx="0.663" cy="0.663" r="0.663" transform="translate(4.601 15.579)" fill="rgba(255,255,255,0.62)"/><path d="M2.085,14.713h.807A7.2,7.2,0,0,1,9.848,9.34h.807a7.2,7.2,0,0,1,6.957,5.373h.807a1.642,1.642,0,0,1,.735.187,8.642,8.642,0,0,0-8.5-7H9.848a8.642,8.642,0,0,0-8.5,7,1.584,1.584,0,0,1,.735-.187Z" transform="translate(0.528 2.926)" fill="#fff"/><path d="M18.471,15.768h-.547v.317a3.572,3.572,0,0,1-3.558,3.572H6.243A3.572,3.572,0,0,1,2.67,16.085v-.317H2.137a1.7,1.7,0,0,1-.907-.288v.6A5.013,5.013,0,0,0,6.243,21.1h8.124a5.013,5.013,0,0,0,5-5.013v-.6A1.613,1.613,0,0,1,18.471,15.768Z" transform="translate(0.476 6.264)" fill="#fff"/><path d="M24.383,8.61H10.93a.721.721,0,1,1,0-1.44H24.383a.721.721,0,1,1,0,1.44Z" transform="translate(4.038 2.604)" fill="#fff"/><path d="M15.806,6.112a.917.917,0,0,1-.442-.131.8.8,0,0,1-.229-1.13l2.079-3.274a.835.835,0,0,1,1.146-.246.819.819,0,0,1,.229,1.13l-2.1,3.324a.786.786,0,0,1-.688.327Z" transform="translate(6.537 0.056)" fill="#fff"/><path d="M27.042,9.079a.749.749,0,0,0-.533-.23h-1.44v1.282a.72.72,0,1,1-1.44,0V8.82h-1.44v3.572a.72.72,0,1,1-1.44,0V10.174A1.354,1.354,0,0,0,19.393,8.82H16.858a.749.749,0,0,0-.533.23.763.763,0,0,0-.187.547V10a7.98,7.98,0,0,1,2.521,3.587H2.613A2.477,2.477,0,0,0,.15,16.065v.893a2.477,2.477,0,0,0,2.463,2.463H19.077a4.321,4.321,0,0,1-1.685,3.039l.115,1.181a.706.706,0,0,0,.706.648h6.943a.72.72,0,0,0,.706-.663L27.215,9.6a.706.706,0,0,0-.173-.519ZM2.555,18.01a1.023,1.023,0,0,1-1.023-1.023v-.893a1.023,1.023,0,0,1,1.023-1.037H18.947a1.023,1.023,0,0,1,1.023,1.037v.893a1.023,1.023,0,0,1-1.023,1.023Z" transform="translate(0 3.331)" fill="#fff"/></g></g></svg>