<svg xmlns="http://www.w3.org/2000/svg" xmlns:xlink="http://www.w3.org/1999/xlink" width="54.55" height="54.55" viewBox="0 0 54.55 54.55"><defs><linearGradient id="a" x1="0.5" x2="0.5" y2="1" gradientUnits="objectBoundingBox"><stop offset="0" stop-color="#ff5539"/><stop offset="1" stop-color="#d02e14"/></linearGradient><filter id="b" x="0" y="0" width="54.55" height="54.55" filterUnits="userSpaceOnUse"><feOffset dy="2" input="SourceAlpha"/><feGaussianBlur stdDeviation="3" result="c"/><feFlood flood-color="#dbe3ff"/><feComposite operator="in" in2="c"/><feComposite in="SourceGraphic"/></filter></defs><g transform="translate(-322 -1358)"><g transform="matrix(1, 0, 0, 1, 322, 1358)" filter="url(#b)"><path d="M9.4,0H27.151a9.4,9.4,0,0,1,9.4,9.4V27.151a9.4,9.4,0,0,1-9.4,9.4H9.4a9.4,9.4,0,0,1-9.4-9.4V9.4A9.4,9.4,0,0,1,9.4,0Z" transform="translate(9 7)" fill="url(#a)"/></g><g transform="translate(337 1373)"><path d="M4.545,15.641l-.048.1a4.269,4.269,0,0,0,.024,3.36v.121H5.85v.653H11.7v-.653h.387V15.641H11.7v-.653H5.874v.677H4.545m9.839-.677v.677h-1.33l-.048.1a4.269,4.269,0,0,0,.048,3.336v.121H14.36v.653h5.85v-.653H20.6V15.641H20.21v-.653H14.384M25.5,0H0V20.79H1.934V1.934H23.57V20.79H25.5V0M21.346,4.424H17.333v.435H16.56v6.575h.774v1.45l.121.073a4.719,4.719,0,0,0,3.771,0l.121-.048v-1.45h.774v-6.6h-.774V4.424m-10.709.435H9.863v6.575h.774v1.45l.121.073a4.724,4.724,0,0,0,3.771,0l.121-.048v-1.45h.774v-6.6H14.65V4.424H10.637v.435M8.074,4.424H4.037v.435H3.288v6.575h.749v1.45l.121.073a4.719,4.719,0,0,0,3.771,0l.145-.048v-1.45h.749v-6.6H8.074Z" fill="#fff"/></g></g></svg>