<svg xmlns="http://www.w3.org/2000/svg" viewBox="0 0 4680 3120"><defs><style>.cls-1,.cls-11,.cls-8{fill:#fff;}.cls-2{fill:#f7a33e;}.cls-3{fill:#ffb957;}.cls-4{fill:#f48a16;}.cls-5{fill:#d04719;}.cls-6{opacity:0.19;}.cls-7{fill:#ffe3c2;}.cls-8{opacity:0.5;}.cls-9{opacity:0.47;}.cls-10{fill:#d6eaff;}.cls-11{opacity:0.39;}.cls-12{opacity:0.27;}.cls-13{fill:#56cbb8;}.cls-14,.cls-17,.cls-27{fill:none;stroke-miterlimit:10;}.cls-14,.cls-17{stroke:#fff;}.cls-14{stroke-width:5px;}.cls-15{fill:#13a497;}.cls-16{opacity:0.49;}.cls-17{stroke-width:3px;}.cls-18{fill:#ffe7d7;}.cls-19{fill:#153858;}.cls-20{fill:#d2eaee;}.cls-21{fill:#00737f;}.cls-22{fill:#3db1b7;}.cls-23{fill:#fc8f6e;}.cls-24{fill:#ad0000;}.cls-25{fill:#376f92;}.cls-26{fill:#0d3f56;}.cls-27{stroke:#d04719;}.cls-28{fill:#5e1212;}.cls-29{fill:#891d00;}</style></defs><title>05</title><g id="_05" data-name="05"><rect id="_05-2" data-name="05" class="cls-1" width="4680" height="3120"/><path class="cls-2" d="M1750.81,2098.52V2213c0,10.9,5.58,21.4,16,31.29a111.12,111.12,0,0,0,10.19,8.4,178.14,178.14,0,0,0,26.21,15.3c3.26,1.5,6.64,3.1,10.19,4.6a350.33,350.33,0,0,0,41.52,14.6c3.33,1,6.7,2,10.14,3,16.82,4.49,35,8.59,54.62,12.08,3.32.61,6.74,1.22,10.18,1.81,16,2.6,32.8,5,50.26,6.9,3.38.3,6.76.7,10.13,1,11.66,1.18,23.54,2.1,35.71,2.88,3.35.31,6.75.51,10.18.71,15.21.8,30.75,1.3,46.6,1.6,3.37,0,6.75.1,10.18.1h7.28c14.79,0,29.35-.31,43.68-.8,3.43-.1,6.81-.31,10.18-.4,14.62-.7,28.94-1.7,42.92-2.91l10.25-.89c9.67-.9,19.11-2,28.37-3.1,3.42-.5,6.82-.9,10.2-1.41,11.75-1.59,23.23-3.38,34.22-5.4,3.44-.59,6.83-1.19,10.16-1.89,9.6-1.8,18.8-3.8,27.71-6,3.43-.8,6.8-1.6,10.11-2.5,11.08-2.79,21.5-5.8,31.35-9.1,3.49-1.09,6.86-2.29,10.18-3.48a270.57,270.57,0,0,0,28.36-11.81c3.62-1.7,7-3.5,10.25-5.3a132,132,0,0,0,21.77-14.69,74,74,0,0,0,10.25-10.39c6.18-7.81,9.45-15.92,9.45-24.21V2098.52Z"/><path class="cls-3" d="M1750.81,2098.52v0c0,50.81,155.2,92,347.12,92.36.76,0,1.52,0,2.28,0,193,0,349.41-41.37,349.41-92.38v0c0-6.55-2.59-12.94-7.5-19.08-22.39-28.16-93.29-51.6-188.51-63.91-18.5-2.4-37.93-4.38-58.1-5.88-30.29-2.27-62.26-3.49-95.3-3.49a1224.29,1224.29,0,0,0-142,8c-87.46,10.29-156,29.81-187.85,53.88C1757.71,2077.56,1750.82,2087.82,1750.81,2098.52Z"/><path class="cls-4" d="M1813.41,2086.27c0,35.08,128.4,63.53,286.8,63.53s286.8-28.45,286.8-63.53-128.4-63.55-286.8-63.55S1813.41,2051.16,1813.41,2086.27Z"/><path class="cls-5" d="M2378.26,2101.88c-31.44-27.54-144-47.92-278.05-47.92s-246.61,20.38-278,47.92c-5.69-5-8.75-10.22-8.75-15.61,0-35.11,128.4-63.55,286.8-63.55s286.8,28.44,286.8,63.55C2387,2091.66,2384,2096.88,2378.26,2101.88Z"/><path class="cls-2" d="M1762.22,1931.05v114.47c0,7.72,2.8,15.24,8.15,22.48a65.67,65.67,0,0,0,7.86,8.81,111.51,111.51,0,0,0,10.21,8.4,170.54,170.54,0,0,0,22.21,13.31c1.3.67,2.64,1.32,4,2,3.26,1.51,6.65,3.11,10.19,4.6,1.23.53,2.47,1.07,3.74,1.59a359.72,359.72,0,0,0,37.78,13c3.32,1,6.69,2,10.13,3,16.82,4.51,35.06,8.6,54.62,12.09,3.32.61,6.76,1.22,10.2,1.81,16,2.6,32.78,5,50.24,6.9,3.4.3,6.77.7,10.14,1,11.65,1.19,23.53,2.1,35.71,2.89,3.36.31,6.74.51,10.18.71,15.2.8,30.74,1.29,46.59,1.6,2.81,0,5.63.07,8.49.08.57,0,1.14,0,1.7,0h7.28q7.1,0,14.11-.1c10-.11,19.82-.37,29.57-.71,3.43-.09,6.81-.29,10.19-.4,14.61-.69,28.94-1.7,42.92-2.9l10.25-.88c9.67-.91,19.1-2,28.35-3.11,3.44-.5,6.82-.9,10.21-1.41,11.75-1.59,23.22-3.38,34.23-5.4,3.42-.58,6.81-1.19,10.14-1.89,9.6-1.8,18.8-3.8,27.71-6,3.44-.79,6.81-1.6,10.13-2.5,11.06-2.79,21.49-5.79,31.34-9.09,3.5-1.1,6.85-2.31,10.17-3.49a269,269,0,0,0,28.37-11.82c1.11-.52,2.2-1,3.27-1.58,2.41-1.22,4.73-2.46,7-3.71a132.67,132.67,0,0,0,21.77-14.7c.26-.22.52-.44.77-.67a73.49,73.49,0,0,0,9.48-9.71c6.17-7.81,9.45-15.91,9.45-24.21V1931.05Z"/><path class="cls-3" d="M1762.22,1931.05v0c0,36.47,79.93,68,196,83a1165.57,1165.57,0,0,0,116.54,8.84q18.18.52,36.87.51,12.82,0,25.41-.23c18.4-.36,36.39-1.08,53.87-2.16,21.75-1.32,42.72-3.2,62.7-5.55,122.21-14.38,207.44-46.78,207.44-84.43v0c0-11.63-8.17-22.76-23-33-28.46-19.63-81.52-36-149.21-46.58q-20.2-3.18-42.06-5.6a1235.13,1235.13,0,0,0-135.12-7.15c-74,0-142.69,6.07-199.19,16.46-86.56,15.92-144.63,41.9-149.84,71.55A24.17,24.17,0,0,0,1762.22,1931.05Z"/><path class="cls-4" d="M1824.83,1918.81c0,35.08,128.4,63.53,286.8,63.53s286.8-28.45,286.8-63.53-128.4-63.55-286.8-63.55S1824.83,1883.7,1824.83,1918.81Z"/><path class="cls-5" d="M2389.68,1934.42c-31.44-27.54-144-47.92-278-47.92s-246.61,20.38-278.05,47.92c-5.69-5-8.75-10.23-8.75-15.61,0-35.11,128.4-63.55,286.8-63.55s286.8,28.44,286.8,63.55C2398.43,1924.19,2395.38,1929.42,2389.68,1934.42Z"/><path class="cls-2" d="M1740.24,1775.5V1890c0,10.89,5.58,21.39,16,31.29,1.93,1.83,4.06,3.64,6.35,5.46,1.23,1,2.52,2,3.84,2.93.65.47,1.3.92,2,1.39a181.79,181.79,0,0,0,24.23,13.91c3.26,1.51,6.65,3.1,10.2,4.61a349.51,349.51,0,0,0,41.51,14.6c3.31,1,6.7,2,10.14,3,16.83,4.48,35,8.59,54.61,12.08,3.33.61,6.75,1.2,10.19,1.8,16,2.61,32.79,5,50.25,6.91,3.4.29,6.77.69,10.14,1,11.66,1.19,23.54,2.09,35.71,2.89,3.36.31,6.75.5,10.18.69,15.2.82,30.75,1.32,46.6,1.61,3.37,0,6.74.11,10.18.11h7.28c14.79,0,29.36-.31,43.68-.81,3.43-.09,6.81-.3,10.18-.4,14.62-.7,28.94-1.7,42.92-2.9,3.44-.29,6.88-.61,10.26-.9l6.93-.67c7.27-.75,14.4-1.59,21.43-2.42,3.42-.51,6.82-.9,10.19-1.41,11.76-1.59,23.24-3.38,34.24-5.4,3.43-.59,6.82-1.19,10.13-1.89,9.62-1.8,18.81-3.8,27.73-6,3.43-.8,6.8-1.6,10.11-2.5,11.08-2.79,21.5-5.8,31.35-9.1,3.49-1.09,6.86-2.3,10.18-3.5a266.38,266.38,0,0,0,28.36-11.8c3.62-1.69,7-3.49,10.25-5.29a153.6,153.6,0,0,0,13.31-8.22c3.05-2.12,5.88-4.28,8.46-6.48a73.5,73.5,0,0,0,10.25-10.4,43.58,43.58,0,0,0,8.42-16.12,32.13,32.13,0,0,0,1-8.07V1775.5Z"/><path class="cls-3" d="M1740.23,1775.55c0,51,156.44,92.38,349.41,92.38s349.41-41.37,349.41-92.38-156.43-92.38-349.41-92.38S1740.23,1724.53,1740.23,1775.55Z"/><path class="cls-4" d="M1802.84,1763.26c0,35.08,128.4,63.53,286.8,63.53s286.8-28.45,286.8-63.53-128.4-63.55-286.8-63.55S1802.84,1728.16,1802.84,1763.26Z"/><path class="cls-5" d="M2367.69,1778.88c-31.44-27.55-144-47.92-278.05-47.92s-246.61,20.37-278,47.92c-5.69-5-8.75-10.23-8.75-15.62,0-35.1,128.4-63.55,286.8-63.55s286.8,28.45,286.8,63.55C2376.44,1768.65,2373.39,1773.88,2367.69,1778.88Z"/><path class="cls-2" d="M1833.63,1610.12v114.49a32.46,32.46,0,0,0,1.4,9.38c2.26,7.55,7.22,14.88,14.61,21.91,1,.92,2,1.86,3.1,2.77q3.29,2.82,7.11,5.61A157.31,157.31,0,0,0,1878,1775.5q3.86,2.07,8,4.09c3.27,1.51,6.64,3.09,10.19,4.6a349.25,349.25,0,0,0,41.53,14.6q5,1.5,10.13,3c16.82,4.49,35,8.59,54.62,12.09,3.32.61,6.76,1.2,10.18,1.79,16,2.61,32.8,5,50.26,6.91,3.38.29,6.75.69,10.13,1,11.66,1.19,23.54,2.09,35.72,2.89.62,0,1.24.11,1.87.15,2.73.22,5.51.39,8.3.54,15.21.81,30.75,1.31,46.59,1.6,3.38,0,6.76.11,10.19.11H2183c14.78,0,29.34-.3,43.68-.8,3.43-.1,6.8-.31,10.17-.4q7.21-.36,14.33-.79,14.52-.89,28.61-2.11l10.25-.9c9.65-.9,19.1-2,28.34-3.1,3.44-.51,6.83-.89,10.21-1.4,11.76-1.59,23.23-3.4,34.24-5.41,3.42-.59,6.81-1.18,10.14-1.9,9.6-1.78,18.8-3.79,27.71-6,3.42-.81,6.81-1.61,10.12-2.5q8.68-2.21,16.84-4.58c3.89-1.13,7.67-2.29,11.37-3.49l3.13-1c3.49-1.09,6.86-2.29,10.18-3.49a267.8,267.8,0,0,0,28.37-11.8c3.61-1.7,7-3.5,10.25-5.29a135.35,135.35,0,0,0,21.78-14.7,74.37,74.37,0,0,0,10.23-10.4c6.19-7.8,9.45-15.9,9.45-24.19V1610.12Z"/><path class="cls-3" d="M1833.63,1610.12v.06c0,32,61.76,60.3,155.55,76.86a1013.91,1013.91,0,0,0,108,12.7c24.77,1.66,50.6,2.63,77.15,2.79,2.89,0,5.79,0,8.69,0,31.77,0,62.55-1.12,91.81-3.23,2.9-.21,5.79-.42,8.66-.65,144-11.41,248.93-46.72,248.93-88.5v-.06c-.1-40.91-100.75-75.6-240.15-87.72-34.37-3-71.09-4.61-109.25-4.61C1990.13,1517.79,1833.74,1559.12,1833.63,1610.12Z"/><path class="cls-4" d="M1896.23,1597.89c0,35.08,128.4,63.53,286.8,63.53s286.81-28.45,286.81-63.53-128.41-63.55-286.81-63.55S1896.23,1562.78,1896.23,1597.89Z"/><path class="cls-5" d="M2461.08,1613.5c-31.43-27.54-144-47.92-278-47.92S1936.42,1586,1905,1613.5c-5.69-5-8.75-10.23-8.75-15.61,0-35.11,128.4-63.55,286.8-63.55s286.81,28.44,286.81,63.55C2469.84,1603.27,2466.78,1608.5,2461.08,1613.5Z"/><g class="cls-6"><path class="cls-5" d="M1980.13,2311c3.38.3,6.76.7,10.13,1,11.66,1.18,23.54,2.1,35.71,2.88,3.35.31,6.75.51,10.18.71,15.21.8,30.75,1.3,46.6,1.6,3.37,0,6.75.1,10.18.1h7.28c14.79,0,29.35-.31,43.68-.8,3.43-.1,6.81-.31,10.18-.4,14.62-.7,28.94-1.7,42.92-2.91l10.25-.89c9.67-.9,19.11-2,28.37-3.1,3.42-.5,6.82-.9,10.2-1.41,11.75-1.59,23.23-3.38,34.22-5.4,3.44-.59,6.83-1.19,10.16-1.89,9.6-1.8,18.8-3.8,27.71-6,3.43-.8,6.8-1.6,10.11-2.5,11.08-2.79,21.5-5.8,31.35-9.1,3.49-1.09,6.86-2.29,10.18-3.48a270.57,270.57,0,0,0,28.36-11.81c3.62-1.7,7-3.5,10.25-5.3a132,132,0,0,0,21.77-14.69,74,74,0,0,0,10.25-10.39c6.18-7.81,9.45-15.92,9.45-24.21V2098.52c0-6.55-2.59-12.94-7.5-19.08a73.49,73.49,0,0,0,9.48-9.71c6.17-7.81,9.45-15.91,9.45-24.21V1931.05c0-11.63-8.17-22.76-23-33a32.13,32.13,0,0,0,1-8.07v-94.46l3.13-1c3.49-1.09,6.86-2.29,10.18-3.49a267.8,267.8,0,0,0,28.37-11.8c3.61-1.7,7-3.5,10.25-5.29a135.35,135.35,0,0,0,21.78-14.7,74.37,74.37,0,0,0,10.23-10.4c6.19-7.8,9.45-15.9,9.45-24.19V1610.12c-.1-40.91-100.75-75.6-240.15-87.72-.29,5.38-.6,10.91-.94,16.62q-.92,14.87-2.16,31.07c-1,12.78-2.13,26.16-3.49,40-1.48,15.27-3.22,31.16-5.24,47.54-1.57,12.89-3.34,26.11-5.29,39.58-.1.69-.21,1.38-.32,2.09-.72,5-1.46,10-2.25,15q-2.32,15-5,30.37T2262,1775.5q-3.79,19.76-8.2,39.86c-.83,3.84-1.7,7.69-2.57,11.53q-2.16,9.46-4.47,19c-1,4.2-2,8.42-3.1,12.63l-1,3.76q-3.86,15.13-8.09,30.36-5.35,19.22-11.35,38.43-7.47,23.92-16,47.66-1.77,4.93-3.61,9.87c-2.61,7-5.3,14.08-8.1,21.07q-2.24,5.73-4.6,11.43c-.63,1.58-1.28,3.17-1.94,4.74q-6.36,15.3-13.25,30.37-9.81,21.46-20.7,42.33-13.67,26.13-29.19,51a.34.34,0,0,1-.09.15c-8.79,14.1-18.06,27.88-27.81,41.22C2064.62,2236.57,2025.66,2277.46,1980.13,2311Z"/></g><path class="cls-7" d="M3481.7,1462.23a730.29,730.29,0,0,1-17.4,137.64c-94.88,418.1-522.1,698.13-932,731.84-289.69,23.82-599.88,16-886-36.32-196.91-36-384.74-101.66-532-221.91a752,752,0,0,1-170.68-196.76C774.72,1595.35,785.26,1211,1015.91,966.79c114.32-121,271.53-164.63,424.64-215,86.77-28.54,165.49-76.25,241.11-126.63,237.22-158,457.18-278.1,752.11-242.44,276.28,33.4,529.76,116.63,727.11,318.78,167.21,171.3,288.18,399.19,315.65,638.56A832.2,832.2,0,0,1,3481.7,1462.23Z"/><path class="cls-8" d="M2562.6,996.35a7.16,7.16,0,0,0,6.55-10,58.81,58.81,0,0,0-63.73-34.71,7.08,7.08,0,0,1-7.4-3.57,86.53,86.53,0,0,0-96.76-42.69,7.15,7.15,0,0,1-7.69-3,106.58,106.58,0,0,0-185.89,16,7.12,7.12,0,0,1-9.32,3.71,73.13,73.13,0,0,0-102.14,67.11v.07a7.12,7.12,0,0,0,7.15,7Z"/><path class="cls-8" d="M3140.77,858.14a7.16,7.16,0,0,0,6.55-10,58.73,58.73,0,0,0-54-35.53,59.36,59.36,0,0,0-9.77.81,7.08,7.08,0,0,1-7.4-3.56,86.53,86.53,0,0,0-96.76-42.69,7.17,7.17,0,0,1-7.69-3,106.58,106.58,0,0,0-185.89,16,7.12,7.12,0,0,1-9.31,3.71,73.14,73.14,0,0,0-102.15,67.12v.07a7.11,7.11,0,0,0,7.15,7Z"/><path class="cls-8" d="M2662.1,692.07a4.63,4.63,0,0,0,4.24-6.48,38,38,0,0,0-34.91-23,38.69,38.69,0,0,0-6.32.52,4.58,4.58,0,0,1-4.79-2.31,56,56,0,0,0-62.6-27.62,4.63,4.63,0,0,1-5-1.91,69,69,0,0,0-120.28,10.36,4.6,4.6,0,0,1-6,2.41,47.3,47.3,0,0,0-66.09,43.42v0a4.59,4.59,0,0,0,4.62,4.54Z"/><g class="cls-9"><rect class="cls-2" x="1144.18" y="1083.01" width="1105.77" height="806.69"/><polygon class="cls-1" points="2325.03 1093.34 1078.6 1093.34 1713.15 826.69 2325.03 1093.34"/><polygon class="cls-2" points="1267.8 1057.75 2135.83 1056.23 1712.72 873.83 1267.8 1057.75"/><rect class="cls-5" x="1111.13" y="1093.34" width="1187.43" height="17.79"/><rect class="cls-1" x="1199.31" y="1098.4" width="116.96" height="51.13"/><rect class="cls-1" x="1225.55" y="1149.52" width="64.47" height="740.17"/><rect class="cls-1" x="1452.04" y="1093.34" width="116.96" height="56.19"/><rect class="cls-1" x="1478.28" y="1149.52" width="64.47" height="740.17"/><rect class="cls-1" x="1849.33" y="1098.4" width="116.96" height="51.13"/><rect class="cls-1" x="1875.58" y="1149.52" width="64.47" height="740.17"/><rect class="cls-1" x="2087.31" y="1098.4" width="116.96" height="51.13"/><rect class="cls-1" x="2113.56" y="1149.52" width="64.47" height="740.17"/><path class="cls-1" d="M1726.21,997.76a11.37,11.37,0,0,0-.83-4.7,9.85,9.85,0,0,0-2.9-3.72,22.73,22.73,0,0,0-5.25-3.1,66.33,66.33,0,0,0-7.9-2.83q-8-2.43-14.57-5.09a50.72,50.72,0,0,1-11.17-6.06,25,25,0,0,1-7.15-8,22.76,22.76,0,0,1,.07-20.55,23.44,23.44,0,0,1,6.72-7.65,36,36,0,0,1,10.35-5.24A53.93,53.93,0,0,1,1707,928.4l.24-13.56,13.17.15-.24,13.76A47.75,47.75,0,0,1,1733,932a31.64,31.64,0,0,1,9.69,6.21,25.42,25.42,0,0,1,6.06,8.92,28.56,28.56,0,0,1,2,11.47l-23.79-.29q.13-7.61-3.88-11.43c-2.67-2.54-6.28-3.85-10.84-3.9a21,21,0,0,0-6.39.78,12.54,12.54,0,0,0-4.45,2.29,9.15,9.15,0,0,0-2.61,3.49,11.25,11.25,0,0,0-.9,4.36,10.43,10.43,0,0,0,.75,4.26,9.25,9.25,0,0,0,2.77,3.56,23.09,23.09,0,0,0,5.3,3.1,84,84,0,0,0,8.22,3q8,2.57,14.45,5.25a51.56,51.56,0,0,1,11.13,6.12,25.3,25.3,0,0,1,7.15,8,22.9,22.9,0,0,1-.12,20.67,23.21,23.21,0,0,1-6.76,7.59,35.38,35.38,0,0,1-10.42,5.08,58.2,58.2,0,0,1-13.51,2.37l-.22,12.62-13.09-.16.22-12.56a64.44,64.44,0,0,1-13.17-2.63,37.09,37.09,0,0,1-11.23-5.62,26.62,26.62,0,0,1-7.74-9.13,26.88,26.88,0,0,1-2.74-13.09l23.8.28a16.41,16.41,0,0,0,1.39,7.53,12.79,12.79,0,0,0,4,4.87,15.77,15.77,0,0,0,5.76,2.61,30.42,30.42,0,0,0,6.61.81,25.08,25.08,0,0,0,6.81-.75,15,15,0,0,0,4.94-2.22,9.47,9.47,0,0,0,4.09-7.75Z"/><path class="cls-10" d="M1225.55,1171.57s9.51-14.7,32.24-14c24.73.75,32.23,14,32.23,14v-22.43h-64.47Z"/><path class="cls-10" d="M1478.28,1171.57s9.52-14.7,32.24-14c24.73.75,32.24,14,32.24,14v-22.43h-64.48Z"/><path class="cls-10" d="M1875.58,1171.57s9.51-14.7,32.23-14c24.73.75,32.24,14,32.24,14v-22.43h-64.47Z"/><path class="cls-10" d="M2113.56,1171.57s9.51-14.7,32.24-14c24.72.75,32.23,14,32.23,14v-22.43h-64.47Z"/><rect class="cls-10" x="1199.31" y="1093.29" width="116.96" height="5.98"/><rect class="cls-10" x="1452.04" y="1093.29" width="116.96" height="5.98"/><rect class="cls-10" x="1849.33" y="1093.29" width="116.96" height="5.98"/><rect class="cls-10" x="2087.31" y="1093.29" width="116.96" height="5.98"/><polygon class="cls-5" points="1699.34 879.35 2103.53 1056.29 2135.83 1056.33 1712.72 873.83 1699.34 879.35"/><rect class="cls-1" x="1341.15" y="1195.03" width="81.8" height="108.03"/><rect class="cls-1" x="1341.15" y="1407.16" width="81.8" height="108.03"/><rect class="cls-1" x="1983.33" y="1195.03" width="81.8" height="108.03"/><rect class="cls-1" x="1983.33" y="1407.16" width="81.8" height="108.03"/></g><path class="cls-11" d="M3481.7,1462.23a730.4,730.4,0,0,1-17.4,137.64c-22.07,97.28-62.15,187.09-115.8,268.05-176.94,267-501.68,437.92-816.22,463.79-289.69,23.82-599.88,16-886-36.32-143.54-26.24-282.26-68.25-404-135.69a861.53,861.53,0,0,1-128-86.22c105-342.45,379.11-726.73,1064.54-846.89C2793.63,1118.82,3208.6,1256.26,3481.7,1462.23Z"/><g class="cls-12"><path class="cls-5" d="M3348.5,1867.92c-176.94,267-501.68,437.92-816.22,463.79-289.69,23.82-599.88,16-886-36.32-143.54-26.24-282.26-68.25-404-135.69-17.59-97.35-56.48-267.37-56.48-267.37s370.51-21,1442.47,7.11C2869.29,1905.77,3348.5,1867.92,3348.5,1867.92Z"/></g><path class="cls-13" d="M3205.43,2260.77c-11.67-165.1,77.14-320.26,177.45-451.91a2238,2238,0,0,1,716.67-612C4048.19,1291,4021,1396,3981.31,1495.62c-67,168.09-170.17,317.83-279.21,461.07-125.16,164.4-292.48,245.45-481.06,315.61"/><path class="cls-14" d="M3194.84,2309.21c2.45-9.82,618.72-835.17,904.71-1112.36"/><path class="cls-15" d="M3163.14,2364.34c33.81-104.86,135.87-174.29,240-225.92,199.23-98.74,426.12-156.08,660.65-167-60.14,42.84-106,99.49-159.34,149.09-90,83.72-200.79,145.65-314.06,201.85-130,64.51-268.52,65.48-419.22,53.57"/><g class="cls-16"><path class="cls-13" d="M1196.1,2046.8c-87.9-35.33-177.8-71.8-241.76-125.62-20.54-17.28-38.06-36.09-54.36-55.31a725.21,725.21,0,0,1-86.94-127c-13.15-24.63-24.77-49.74-36-74.94-5.74-12.92-11.35-25.87-17-38.81-4.51-10.31-14.38-24.08-14.32-34.85,0,2.84,16.81,12.16,19.82,14.31q11.76,8.42,23.61,16.74c13.45,9.46,26.24,18.89,40.16,27.92,27.74,18,53.58,37.68,78.38,58.09,43.07,35.45,85.69,71.28,126.12,108.59,20.47,18.88,40.39,38.15,59.48,57.9,19.45,20.12,34.83,41.25,51.52,62.81q4.67,6,9.19,12.12a641.9,641.9,0,0,1,42.81,65.4c6.16,10.86,12.06,22.69,9,34.33"/><path class="cls-15" d="M1136.72,1874.59c-40.83-45.15-71.68-100.84-79.31-161.86a171.85,171.85,0,0,1-1.65-21.37c0-6.12,1.06-12.72,6.39-16.55,9.52-6.85,25.06-3.76,34,2.56,11.45,8.09,15.71,22.33,19.08,35.21a294.27,294.27,0,0,1,8.52,52,496.3,496.3,0,0,1,.63,59.25c-.84,19.78-2.64,39.51-2.38,59.32.09,6.15,10,8,11.15,1.51,6.69-37.94,7.93-77.94,5.2-116.34a321,321,0,0,0-9-57.64c-4-15.3-9.12-31.43-21.59-42a49.44,49.44,0,0,0-41.67-10.52c-16.27,3.48-24.32,17.37-24.36,33.22-.08,32.19,9,65.24,21.49,94.65a286.63,286.63,0,0,0,66.57,95.54c4.61,4.39,11.2-2.28,7-7Z"/><path class="cls-15" d="M971.23,1715.12c-8.4-6.93-16.17-14.73-24.24-22.07a286.83,286.83,0,0,1-21.94-22.17c-13.88-15.7-25.7-33.64-32.26-53.66a102.28,102.28,0,0,1-5.33-29.86c-.1-5.09-1.37-21.89,6-23,3.77-.56,6.75,3.31,8.53,6.1,3.06,4.8,5.67,10,8.31,15,5.32,10.15,10.22,20.53,14.57,31.13a348.91,348.91,0,0,1,12,34.3c3.51,12,5.37,24.67,9.33,36.53,1.9,5.7,11.27,5.11,11-1.48-.59-12.61-4.63-25.41-8.24-37.44-3.66-12.18-8-24.18-12.81-36-5-12.13-10.55-24-16.73-35.61-4.78-9-10-21.27-20.87-24.11-10.25-2.67-18.73,4.37-21.27,14-2.86,10.79-2.32,23-.77,33.88,3.37,23.89,14.44,46,28.92,65.11a234.47,234.47,0,0,0,27.53,30.2c10.44,9.69,21.73,17.46,33.36,25.56,3.77,2.62,8.53-3.45,5-6.41Z"/><path class="cls-15" d="M760.71,1713c-23.35-12.66-44.65-30.42-59-53A134.48,134.48,0,0,1,693,1644.2a49.17,49.17,0,0,1-3.44-8.49c-.41-1.7-1.12-1.11.69-1.65,1.5-.46,3.76-.06,5.28.18,13,2.09,22.12,14.48,29.9,24q8.13,10,15.42,20.64,3.81,5.55,7.38,11.25c2.28,3.62,4.2,7.75,7.43,10.62a5.34,5.34,0,0,0,8.85-5.16c-.92-4.24-3.63-7.89-5.92-11.52q-3.85-6.06-8-11.94-8-11.42-16.91-22.17c-9.86-11.94-21-25.12-37.39-27.15-7-.87-16.48.29-18.43,8.42-1.57,6.55,3.49,14.89,6.28,20.59a137.57,137.57,0,0,0,27,36.79,169.47,169.47,0,0,0,45.38,31.63c4.83,2.35,9.08-4.67,4.26-7.29Z"/><path class="cls-17" d="M745.76,1590.22s264,323.2,390.26,378.73"/><path class="cls-13" d="M580.45,1613.7l330,328.67c2.19-8.35-2-16.84-6.46-24.63a460.37,460.37,0,0,0-30.71-46.91q-3.24-4.36-6.59-8.69c-12-15.47-23-30.62-37-45.06-13.69-14.17-28-28-42.66-41.53-29-26.76-59.57-52.46-90.47-77.89A615.45,615.45,0,0,0,640.41,1656c-10-6.47-19.16-13.24-28.81-20q-8.49-6-16.93-12c-2.16-1.55-14.23-8.23-14.22-10.26,0,7.72,7,17.6,10.27,25,4.06,9.28,8.08,18.57,12.2,27.84,8,18.08,16.36,36.09,25.79,53.75a520,520,0,0,0,62.36,91.14c11.7,13.78,24.26,27.28,39,39.67,45.88,38.61,110.36,64.77,173.41,90.11"/><path class="cls-15" d="M625.31,1891.14c7.12,2,491.27,165.23,491.27,165.23-3.2-8.15-12.11-14-20.77-19.2-17.86-10.7-36.5-20.59-55.72-29.71q-5.53-2.62-11.12-5.18c-20-9.1-39-18.28-60.07-25.74-20.71-7.32-41.72-14.11-62.92-20.52-41.88-12.66-84.47-23.8-127.19-34.58-24.6-6.21-49.53-11.69-74.91-15.57-12.73-1.95-24.94-4.46-37.57-6.82q-11.13-2.07-22.23-4.21c-2.84-.55-17.54-1.91-18.77-3.7,4.7,6.8,17,12.83,24.33,18.11,9.26,6.63,18.49,13.28,27.78,19.88,18.13,12.88,36.49,25.57,55.61,37.56a741.72,741.72,0,0,0,110.63,56.71c18.71,7.73,38,14.88,58.56,20.26,63.95,16.75,136.6,15.62,207.5,14.3"/><path class="cls-1" d="M1059.91,1917.28c-1.27-4.3-3.11-8.47-4.65-12.69s-3-8.46-4.37-12.74c-2.69-8.44-5-16.94-7.09-25.54-.58-2.42-1.19-4.83-1.71-7.26a35.19,35.19,0,0,0-2.1-7.13c-.41-.91-1.65-.35-1.72.46-.34,4.35,1,8.78,1.8,13s2,8.68,3.19,12.95a252.54,252.54,0,0,0,8.66,25.69,97.78,97.78,0,0,0,6.33,13.94.91.91,0,0,0,1.66-.7Z"/><path class="cls-1" d="M987.19,1852.19c-4-12.37-8.3-24.63-12.11-37.06s-7.18-24.8-10.09-37.38c-.82-3.56-1.69-7.1-2.5-10.66q-.59-2.53-1.15-5.1a21.05,21.05,0,0,0-1.49-5.38c-.73-1.41-2.61-.59-2.74.74a16.84,16.84,0,0,0,.57,4.67q.48,2.58,1,5.14c.62,3.12,1.22,6.23,1.94,9.33,1.47,6.35,3.09,12.67,4.82,19,3.42,12.5,7.23,24.9,11.7,37.06,2.54,6.91,5.22,13.76,8.32,20.43.46,1,2.07.28,1.75-.74Z"/><path class="cls-1" d="M897.76,1761a50,50,0,0,1-5.06-14.25c-1.13-5.2-2.08-10.46-3.13-15.68-2.23-11-4.43-22-6.72-33l-1.87-9c-.65-3.1-1.12-6.35-2.69-9.15a1.28,1.28,0,0,0-2.36.63c-.27,2.81.43,5.62,1,8.34l1.74,8.31q1.74,8.31,3.51,16.6c2.34,10.94,4.5,22,7.13,32.82,1.34,5.54,3.09,10.94,6.26,15.73a1.27,1.27,0,0,0,2.19-1.28Z"/><path class="cls-1" d="M842.25,1701.73l0,.08,1.32-.75h0l.68.52a2.37,2.37,0,0,0-.5-.55c-.22-.19-.2-.13.07.17,0-.33,0-.66-.08-1-.08-1-.15-2-.23-3q-.24-3.23-.47-6.45c-.3-4.22-.48-8.44-.6-12.66s-.47-8.44-.7-12.66c-.12-2.15-.2-4.31-.34-6.46-.07-1-.17-2-.25-3a5.94,5.94,0,0,0-.78-3.2,1.45,1.45,0,0,0-2.46,0,6.64,6.64,0,0,0-.54,3.7c0,1.16,0,2.31.08,3.47q.18,3.48.39,7c.29,4.9.68,9.76,1.21,14.65s1,9.59,1.47,14.39l.39,3.72a7.11,7.11,0,0,0,.48,2.84c.7,1.09,3.12,1.28,3-.46a1.11,1.11,0,0,0-1.08-1.07h-.07a1,1,0,0,0-.94.72Z"/><path class="cls-1" d="M804.69,1709.13q25.72,9.27,51.1,19.54c2.4,1,4.79,2,7.19,2.95s4.66,2.18,7.12,2.42a1.11,1.11,0,0,0,.78-1.89,22.32,22.32,0,0,0-5.75-2.89c-2.1-.87-4.2-1.71-6.3-2.54q-6.44-2.54-12.91-5c-8.58-3.27-17.2-6.46-25.88-9.43q-7.41-2.54-14.85-5c-1.16-.38-1.62,1.4-.5,1.81Z"/><path class="cls-1" d="M850.18,1778.11A550.41,550.41,0,0,1,913.7,1798c2.86,1.12,5.71,2.26,8.54,3.44s5.7,2.76,8.66,3.58a1.66,1.66,0,0,0,1.27-3,49.09,49.09,0,0,0-7.51-3.35c-2.54-1.06-5.1-2.1-7.66-3.11q-7.74-3-15.61-5.74c-10.53-3.6-21.2-6.84-32-9.57-6.17-1.57-12.42-2.91-18.68-4.07-1.28-.24-1.85,1.65-.54,2Z"/><path class="cls-1" d="M927.17,1867.68a520.51,520.51,0,0,1,76.09,16.6q5.18,1.54,10.31,3.2a86.66,86.66,0,0,0,10.3,3c1.31.24,2.3-1.59,1-2.29a58.34,58.34,0,0,0-9-3.49q-4.57-1.47-9.18-2.86-9.37-2.82-18.84-5.26c-12.59-3.24-25.33-5.89-38.15-8.06-7.34-1.25-14.73-2.27-22.13-3.19-1.32-.17-1.64,2.14-.32,2.33Z"/><path class="cls-1" d="M1005.7,1939.36a526.69,526.69,0,0,1,78.46,11.1q5.35,1.18,10.69,2.48,2.65.64,5.31,1.33a36.59,36.59,0,0,0,5.47,1.21,1.42,1.42,0,0,0,.71-2.62c-2.94-1.36-6.35-1.92-9.49-2.7s-6.48-1.59-9.74-2.33q-9.57-2.16-19.23-3.89c-13.08-2.36-26.27-4.26-39.51-5.44q-11.32-1-22.67-1.48c-1.52-.07-1.5,2.24,0,2.34Z"/><path class="cls-1" d="M1005.59,2019.12c-6.91-7-13.68-14.17-20.31-21.43-3.29-3.6-6.59-7.19-9.81-10.85s-6.11-7.58-9.71-10.77c-.81-.73-2.19.2-1.57,1.21,2.49,4,5.95,7.53,9.1,11.08,3.29,3.7,6.6,7.38,10,11,6.87,7.17,14,14,21.34,20.73.62.57,1.53-.32.93-.92Z"/><path class="cls-1" d="M919.4,1989.36c-6.13-6.61-12.14-13.37-17.93-20.28-2.83-3.38-5.59-6.83-8.31-10.31s-5.23-7.19-8.6-10.09c-.47-.41-1.47,0-1.17.68,1.67,4,4.4,7.39,7.06,10.82,2.79,3.61,5.7,7.13,8.66,10.61,5.95,7,12.19,13.68,18.79,20.07a1.06,1.06,0,0,0,1.5-1.5Z"/><path class="cls-1" d="M839.54,1961.82a43.66,43.66,0,0,0-4.33-4.38q-2-2-4-4c-2.76-2.76-5.46-5.58-8.14-8.42s-5.26-5.69-7.81-8.6q-1.82-2.09-3.6-4.2c-1.17-1.39-2.4-3.15-4-4.1a.83.83,0,0,0-1.2.92,16.24,16.24,0,0,0,3.14,4.55q1.85,2.22,3.73,4.39,3.88,4.48,7.93,8.8c2.67,2.85,5.42,5.63,8.21,8.36,1.46,1.43,2.93,2.86,4.42,4.26a35.92,35.92,0,0,0,4.51,3.86c1,.63,1.74-.7,1.14-1.47Z"/><path class="cls-1" d="M787.35,1944.47a50,50,0,0,0-4.36-5.07c-1.56-1.74-3.19-3.43-4.79-5.14s-3.09-3.33-4.66-5a36.72,36.72,0,0,0-5-4.67c-.67-.49-1.52.45-1.11,1.11a35.92,35.92,0,0,0,4.25,5.14c1.54,1.67,3.12,3.31,4.68,5s3,3.23,4.55,4.83a49.29,49.29,0,0,0,5,4.91c.74.58,2.06-.16,1.43-1.09Z"/><path class="cls-1" d="M695,1932.87q9.78-.11,19.57-.06l9.66.08c1.65,0,3.3.06,5,0a18.12,18.12,0,0,0,4.66-.34.76.76,0,0,0,0-1.45,17.68,17.68,0,0,0-4.66-.43c-1.65,0-3.3,0-5,0-3.22,0-6.44,0-9.66.06q-9.78.1-19.57.36a.88.88,0,0,0,0,1.75Z"/><path class="cls-1" d="M750.55,1970.53a240.64,240.64,0,0,1,52.09-7.71q3.61-.13,7.23-.18c2.47,0,5,.22,7.45-.32a.87.87,0,0,0,0-1.66,24.74,24.74,0,0,0-6.49-.37c-2.25,0-4.5.08-6.74.17q-6.62.27-13.21.88a238,238,0,0,0-26.29,4q-7.3,1.53-14.5,3.51a.86.86,0,0,0,.46,1.66Z"/><path class="cls-1" d="M804,1999.43a286.88,286.88,0,0,1,60-12.62q4.25-.42,8.51-.72l4.5-.28a20,20,0,0,0,4.3-.5,1,1,0,0,0,0-1.93c-2.51-.51-5.31-.08-7.85.09s-5,.37-7.57.61q-7.71.72-15.37,1.88a233.37,233.37,0,0,0-30.46,6.57q-8.34,2.42-16.5,5.39c-.93.34-.55,1.83.42,1.51Z"/><path class="cls-1" d="M861.19,2024.77a382.64,382.64,0,0,1,74.69-17.13c3.61-.44,7.22-.85,10.83-1.2s7.19-.46,10.73-1c1.37-.2,1-2.34-.32-2.36a94.71,94.71,0,0,0-9.94.72c-3.14.3-6.28.63-9.42,1q-9.66,1.18-19.26,2.88a327.41,327.41,0,0,0-37.33,8.81c-6.86,2.07-13.63,4.41-20.34,7-.79.3-.47,1.57.36,1.3Z"/><path class="cls-1" d="M963.36,2050c21.1-6.82,43.28-8.94,65.13-12,6.21-.88,12.41-1.84,18.57-3,1.4-.27.81-2.4-.59-2.14-21.82,4.12-44,6-65.72,10.81a182.91,182.91,0,0,0-17.81,4.83c-1,.32-.56,1.86.42,1.54Z"/></g><path class="cls-5" d="M1380.62,2121.35c0,5.47-.12,10.84-.45,16.21-.22,4.49-.54,8.87-1.1,13.25a269.82,269.82,0,0,1-4.38,28.67c-.87,4.51-1.86,8.88-3,13.27a285,285,0,0,1-19,52.43c-2,4.49-4.27,9-6.57,13.25a286.2,286.2,0,0,1-18.51,29.67,160.69,160.69,0,0,1-9.95,13.25,248.35,248.35,0,0,1-26.07,28.69c-4.82,4.71-9.74,9.09-14.77,13.24a278.08,278.08,0,0,1-38,26.94,246.42,246.42,0,0,1-25,13.24,286.79,286.79,0,0,1-122.51,27.27h-65.7V1832h65.7a287.36,287.36,0,0,1,131.82,31.86,231.59,231.59,0,0,1,23.2,13.25,274.12,274.12,0,0,1,37.77,28.68c4.83,4.16,9.42,8.66,13.92,13.25a292.37,292.37,0,0,1,39.42,50.26c2.61,4.27,5.25,8.65,7.65,13.14a283.46,283.46,0,0,1,22.89,54.31c1.31,4.37,2.62,8.75,3.72,13.24a271.75,271.75,0,0,1,7.44,43.35c.55,4.39.88,8.76,1.1,13.24Q1380.61,2114,1380.62,2121.35Z"/><path class="cls-3" d="M1315,2121.34c0,159.81-129.53,289.35-289.34,289.35s-289.35-129.54-289.35-289.35S865.81,1832,1025.61,1832,1315,1961.55,1315,2121.34Z"/><path class="cls-2" d="M1265.77,2121.34c0,132.64-107.52,240.17-240.16,240.17S785.44,2254,785.44,2121.34,893,1881.18,1025.61,1881.18,1265.77,1988.71,1265.77,2121.34Z"/><path class="cls-5" d="M1045.68,2341.43c-132.65,0-240.17-107.52-240.17-240.16a239.28,239.28,0,0,1,60.61-159.44,239.54,239.54,0,0,0-80.68,179.51c0,132.64,107.52,240.17,240.17,240.17a239.6,239.6,0,0,0,179.55-80.73A239.16,239.16,0,0,1,1045.68,2341.43Z"/><path class="cls-1" d="M1024.11,2299.81v-44.18c-25.38-.46-51.64-8.33-66.94-19.27l10.49-29.28a116.91,116.91,0,0,0,63,18.81c31.07,0,52.07-18,52.07-42.9,0-24-17.06-38.93-49.45-52-44.62-17.53-72.17-37.66-72.17-75.71,0-36.3,25.81-63.87,66.06-70.43V1940.6h27.11v42.47c26.26.85,44.2,7.87,56.9,15.28l-11,28.89a105.79,105.79,0,0,0-55.11-14.89c-33.7,0-46.38,20.13-46.38,37.66,0,22.72,16.19,34.12,54.25,49.87,45.07,18.35,67.82,41.11,67.82,80,0,34.56-24.07,66.94-69.13,74.38v45.5Z"/><path class="cls-2" d="M1693.86,2341.74v86.11c0,8.2-4.2,16.09-12,23.53a86.26,86.26,0,0,1-7.67,6.32,133.8,133.8,0,0,1-19.72,11.51c-2.45,1.13-5,2.33-7.67,3.46a260.92,260.92,0,0,1-31.22,11c-2.51.75-5,1.51-7.63,2.26-12.66,3.37-26.37,6.46-41.09,9.09-2.5.46-5.07.91-7.66,1.36-12,1.95-24.67,3.76-37.81,5.19-2.54.23-5.08.53-7.61.76-8.77.89-17.71,1.57-26.87,2.17-2.52.23-5.08.38-7.66.53-11.44.6-23.13,1-35,1.2-2.53,0-5.08.08-7.66.08H1431c-11.13,0-22.09-.23-32.86-.61-2.58-.07-5.13-.23-7.66-.3-11-.52-21.77-1.28-32.29-2.18l-7.71-.68c-7.28-.67-14.37-1.5-21.34-2.32-2.57-.38-5.13-.68-7.68-1.06-8.83-1.2-17.47-2.55-25.74-4.07-2.58-.44-5.13-.89-7.64-1.42-7.22-1.35-14.14-2.86-20.84-4.51-2.58-.6-5.11-1.21-7.61-1.88-8.33-2.1-16.17-4.37-23.58-6.85-2.63-.82-5.16-1.73-7.66-2.62a205.57,205.57,0,0,1-21.33-8.88c-2.72-1.28-5.26-2.63-7.71-4a100.28,100.28,0,0,1-16.38-11.06,56,56,0,0,1-7.71-7.82c-4.65-5.87-7.11-12-7.11-18.2v-86.11Z"/><path class="cls-3" d="M1693.86,2341.74v0c0,38.22-116.75,69.24-261.12,69.48H1431c-145.17,0-262.85-31.11-262.85-69.49v0c0-4.93,2-9.73,5.64-14.35,16.85-21.18,70.18-38.82,141.81-48.08,13.92-1.81,28.53-3.29,43.7-4.42,22.79-1.71,46.84-2.62,71.7-2.62a922,922,0,0,1,106.81,6c65.79,7.74,117.32,22.43,141.31,40.53C1688.67,2326,1693.85,2333.69,1693.86,2341.74Z"/><path class="cls-4" d="M1646.77,2332.52c0,26.39-96.59,47.8-215.75,47.8s-215.74-21.41-215.74-47.8,96.59-47.8,215.74-47.8S1646.77,2306.12,1646.77,2332.52Z"/><path class="cls-5" d="M1221.86,2344.27c23.65-20.72,108.32-36.05,209.16-36.05s185.51,15.33,209.17,36.05c4.28-3.76,6.58-7.69,6.58-11.75,0-26.4-96.59-47.8-215.75-47.8s-215.74,21.4-215.74,47.8C1215.28,2336.58,1217.58,2340.51,1221.86,2344.27Z"/><path class="cls-2" d="M1685.28,2215.77v86.1c0,5.81-2.11,11.47-6.13,16.91a49.68,49.68,0,0,1-5.92,6.63,85,85,0,0,1-7.68,6.32,127.6,127.6,0,0,1-16.71,10c-1,.51-2,1-3,1.49-2.45,1.14-5,2.34-7.66,3.46-.92.4-1.86.81-2.82,1.2a269.67,269.67,0,0,1-28.42,9.79c-2.49.75-5,1.51-7.62,2.25-12.65,3.39-26.37,6.47-41.09,9.1l-7.66,1.36c-12,2-24.66,3.76-37.8,5.18-2.56.23-5.09.53-7.63.76-8.76.9-17.7,1.58-26.86,2.17-2.53.23-5.07.39-7.66.53-11.43.61-23.12,1-35,1.21-2.12,0-4.24.05-6.39.06h-6.76c-3.55,0-7.1,0-10.61-.07-7.5-.08-14.91-.28-22.25-.53-2.58-.07-5.12-.22-7.66-.3-11-.52-21.77-1.28-32.29-2.18l-7.71-.67c-7.27-.68-14.37-1.52-21.32-2.34-2.59-.37-5.13-.67-7.68-1.06-8.84-1.19-17.47-2.54-25.75-4.06-2.58-.44-5.12-.89-7.63-1.42-7.22-1.35-14.14-2.86-20.85-4.51-2.58-.6-5.12-1.21-7.61-1.88-8.33-2.1-16.17-4.36-23.58-6.84-2.63-.83-5.16-1.74-7.65-2.63a203.78,203.78,0,0,1-21.35-8.89c-.83-.39-1.65-.79-2.45-1.19-1.82-.92-3.56-1.85-5.26-2.79a100.06,100.06,0,0,1-16.38-11l-.58-.51a55.94,55.94,0,0,1-7.13-7.31c-4.64-5.87-7.1-12-7.1-18.21v-86.1Z"/><path class="cls-3" d="M1685.28,2215.77v0c0,27.43-60.13,51.15-147.44,62.45a878.69,878.69,0,0,1-87.67,6.65q-13.68.39-27.74.39-9.65,0-19.11-.18-20.76-.41-40.53-1.62c-16.36-1-32.13-2.41-47.16-4.18-91.94-10.82-156-35.18-156-63.51v0c0-8.75,6.14-17.13,17.32-24.83,21.41-14.77,61.32-27.11,112.24-35q15.21-2.39,31.64-4.21a928.6,928.6,0,0,1,101.64-5.38c55.69,0,107.34,4.57,149.84,12.38,65.12,12,108.8,31.52,112.72,53.82A18.73,18.73,0,0,1,1685.28,2215.77Z"/><path class="cls-4" d="M1638.18,2206.55c0,26.39-96.59,47.79-215.75,47.79s-215.74-21.4-215.74-47.79,96.59-47.8,215.74-47.8S1638.18,2180.15,1638.18,2206.55Z"/><path class="cls-5" d="M1213.27,2218.3c23.65-20.72,108.32-36.05,209.16-36.05s185.51,15.33,209.17,36.05c4.28-3.76,6.58-7.69,6.58-11.75,0-26.4-96.59-47.8-215.75-47.8s-215.74,21.4-215.74,47.8C1206.69,2210.61,1209,2214.54,1213.27,2218.3Z"/><path class="cls-2" d="M1701.81,2098.75v86.12c0,8.19-4.2,16.09-12,23.54-1.46,1.37-3.06,2.73-4.78,4.1-.93.73-1.89,1.47-2.89,2.21l-1.49,1.05a138.89,138.89,0,0,1-18.23,10.46c-2.45,1.13-5,2.33-7.67,3.46a262.64,262.64,0,0,1-31.22,11c-2.5.74-5,1.5-7.63,2.25-12.66,3.38-26.37,6.46-41.08,9.09-2.51.46-5.08.91-7.67,1.35-12,2-24.66,3.77-37.8,5.2-2.55.22-5.09.52-7.62.76-8.77.89-17.71,1.57-26.87,2.17-2.52.23-5.08.37-7.66.52-11.43.61-23.13,1-35.05,1.21-2.53,0-5.07.08-7.66.08H1439c-11.13,0-22.09-.23-32.86-.6-2.58-.08-5.13-.23-7.66-.3q-16.5-.81-32.29-2.19l-7.71-.67-5.22-.51c-5.46-.56-10.83-1.2-16.12-1.82-2.57-.39-5.13-.68-7.67-1.06-8.84-1.2-17.48-2.55-25.75-4.06-2.59-.45-5.13-.9-7.63-1.43-7.23-1.35-14.14-2.86-20.85-4.51-2.58-.6-5.11-1.2-7.61-1.88-8.33-2.1-16.17-4.36-23.58-6.85-2.63-.82-5.16-1.72-7.66-2.63a200.11,200.11,0,0,1-21.33-8.87c-2.73-1.28-5.26-2.63-7.71-4a116.16,116.16,0,0,1-10-6.18c-2.3-1.6-4.43-3.23-6.37-4.88a56,56,0,0,1-7.71-7.82,32.82,32.82,0,0,1-6.33-12.13,24.12,24.12,0,0,1-.78-6.07v-86.12Z"/><path class="cls-3" d="M1701.82,2098.79c0,38.37-117.68,69.49-262.85,69.49s-262.84-31.12-262.84-69.49,117.68-69.5,262.84-69.5S1701.82,2060.41,1701.82,2098.79Z"/><path class="cls-4" d="M1654.72,2089.54c0,26.4-96.59,47.8-215.75,47.8s-215.74-21.4-215.74-47.8,96.59-47.8,215.74-47.8S1654.72,2063.14,1654.72,2089.54Z"/><path class="cls-5" d="M1229.81,2101.29c23.65-20.72,108.32-36.05,209.16-36.05s185.52,15.33,209.17,36.05c4.28-3.76,6.58-7.69,6.58-11.75,0-26.4-96.59-47.8-215.75-47.8s-215.74,21.4-215.74,47.8C1223.23,2093.6,1225.53,2097.53,1229.81,2101.29Z"/><path class="cls-2" d="M1631.56,1974.35v86.12a24,24,0,0,1-1.06,7.05c-1.69,5.69-5.42,11.2-11,16.48-.74.7-1.52,1.41-2.34,2.09-1.64,1.42-3.43,2.82-5.34,4.22a119.37,119.37,0,0,1-13.69,8.44c-1.93,1-3.94,2.06-6,3.08-2.46,1.13-5,2.33-7.67,3.46a260.49,260.49,0,0,1-31.23,11c-2.5.75-5,1.51-7.62,2.26-12.66,3.37-26.37,6.46-41.09,9.09-2.5.46-5.08.9-7.66,1.35-12.06,2-24.67,3.76-37.81,5.2-2.54.22-5.08.52-7.61.76-8.78.89-17.71,1.57-26.88,2.17l-1.4.11c-2.06.17-4.15.29-6.25.41-11.44.61-23.13,1-35.05,1.2-2.53,0-5.08.09-7.66.09h-5.48c-11.12,0-22.08-.23-32.86-.61-2.58-.07-5.12-.23-7.65-.3-3.62-.17-7.22-.37-10.78-.59q-10.92-.67-21.52-1.59l-7.71-.68c-7.27-.67-14.37-1.5-21.33-2.32-2.58-.39-5.13-.68-7.68-1.06-8.84-1.2-17.47-2.56-25.75-4.07-2.58-.44-5.12-.89-7.63-1.43-7.22-1.34-14.14-2.85-20.84-4.5-2.58-.6-5.13-1.21-7.62-1.88q-6.52-1.65-12.67-3.44-4.38-1.28-8.55-2.63l-2.35-.78c-2.63-.82-5.16-1.73-7.66-2.63a201.53,201.53,0,0,1-21.34-8.87c-2.72-1.28-5.26-2.63-7.71-4a102.46,102.46,0,0,1-16.38-11.06,55.91,55.91,0,0,1-7.7-7.83c-4.66-5.86-7.11-12-7.11-18.19v-86.12Z"/><path class="cls-3" d="M1631.56,1974.35v0c0,24.11-46.46,45.36-117,57.82a762.83,762.83,0,0,1-81.26,9.55c-18.63,1.25-38.06,2-58,2.1l-6.53,0c-23.91,0-47.06-.84-69.07-2.43-2.18-.16-4.35-.31-6.52-.49-108.31-8.58-187.25-35.14-187.25-66.57v0c.07-30.78,75.79-56.88,180.65-66,25.86-2.26,53.48-3.47,82.19-3.47C1513.83,1904.89,1631.48,1936,1631.56,1974.35Z"/><path class="cls-4" d="M1584.46,1965.14c0,26.39-96.58,47.79-215.74,47.79S1153,1991.53,1153,1965.14s96.6-47.8,215.75-47.8S1584.46,1938.74,1584.46,1965.14Z"/><path class="cls-5" d="M1159.56,1976.89c23.65-20.72,108.31-36.05,209.16-36.05s185.51,15.33,209.16,36.05c4.28-3.76,6.58-7.69,6.58-11.75,0-26.4-96.58-47.8-215.74-47.8s-215.75,21.4-215.75,47.8C1153,1969.2,1155.27,1973.13,1159.56,1976.89Z"/><g class="cls-6"><path class="cls-5" d="M1521.35,2501.55c-2.54.23-5.08.53-7.61.76-8.77.89-17.71,1.57-26.87,2.17-2.52.23-5.08.38-7.66.53-11.44.6-23.13,1-35,1.2-2.53,0-5.08.08-7.66.08H1431c-11.13,0-22.09-.23-32.86-.61-2.58-.07-5.13-.23-7.66-.3-11-.52-21.77-1.28-32.29-2.18l-7.71-.68c-7.28-.67-14.37-1.5-21.34-2.32-2.57-.38-5.13-.68-7.68-1.06-8.83-1.2-17.47-2.55-25.74-4.07-2.58-.44-5.13-.89-7.64-1.42-7.22-1.35-14.14-2.86-20.84-4.51-2.58-.6-5.11-1.21-7.61-1.88-8.33-2.1-16.17-4.37-23.58-6.85-2.63-.82-5.16-1.73-7.66-2.62a205.57,205.57,0,0,1-21.33-8.88c-2.72-1.28-5.26-2.63-7.71-4a100.28,100.28,0,0,1-16.38-11.06,56,56,0,0,1-7.71-7.82c-4.65-5.87-7.11-12-7.11-18.2v-86.11c0-4.93,2-9.73,5.64-14.35a55.94,55.94,0,0,1-7.13-7.31c-4.64-5.87-7.1-12-7.1-18.21v-86.1c0-8.75,6.14-17.13,17.32-24.83a24.12,24.12,0,0,1-.78-6.07v-71.06l-2.35-.78c-2.63-.82-5.16-1.73-7.66-2.63a201.53,201.53,0,0,1-21.34-8.87c-2.72-1.28-5.26-2.63-7.71-4a102.46,102.46,0,0,1-16.38-11.06,55.91,55.91,0,0,1-7.7-7.83c-4.66-5.86-7.11-12-7.11-18.19v-86.12c.07-30.78,75.79-56.88,180.65-66q.33,6.06.71,12.5c.46,7.45,1,15.26,1.62,23.37.74,9.61,1.6,19.68,2.63,30.12,1.11,11.48,2.42,23.43,3.94,35.76,1.19,9.69,2.52,19.64,4,29.77.07.52.16,1,.24,1.57q.81,5.6,1.69,11.27c1.17,7.53,2.4,15.15,3.74,22.85s2.74,15.39,4.24,23.18q2.87,14.85,6.18,30c.62,2.89,1.28,5.79,1.93,8.68q1.62,7.13,3.36,14.28,1.14,4.74,2.34,9.5c.23.94.47,1.88.71,2.82q2.91,11.4,6.09,22.84,4,14.46,8.53,28.92,5.64,18,12.07,35.85c.88,2.47,1.79,4.94,2.71,7.42q3,8,6.09,15.85,1.68,4.31,3.46,8.6c.48,1.19,1,2.38,1.47,3.56q4.79,11.5,10,22.85,7.38,16.14,15.57,31.84,10.29,19.65,22,38.39a.26.26,0,0,0,.07.11q9.92,15.91,20.92,31C1457.8,2445.59,1487.1,2476.35,1521.35,2501.55Z"/></g><polygon class="cls-1" points="2430.9 888.93 2430.9 2433.47 3124.11 2668.04 3137.84 2083.39 3163.14 1005.66 2430.9 888.93"/><polygon class="cls-18" points="2430.9 1157.47 2430.9 2433.47 3124.11 2668.04 3137.84 2083.39 2430.9 1157.47"/><polygon class="cls-19" points="2458.09 886.25 2458.09 2376.29 3097.32 2624.41 3086.22 2665.36 2426.01 2395.68 2426.01 886.25 2458.09 886.25"/><polygon class="cls-19" points="3289.55 912.38 3289.55 2612.16 3119.24 2695.82 3119.24 978.89 3289.55 912.38"/><polygon class="cls-15" points="3289.55 912.38 2592.82 793.61 2400.39 861.15 3119.24 978.89 3289.55 912.38"/><path class="cls-13" d="M3119.24,978.89V2695.82l-718.85-259.89V861.15ZM2442.66,2389.05,3077,2630.42V1019L2442.66,903.8Z"/><path class="cls-20" d="M2765.25,1579.12c-26.67,0-52.34-8-76.29-23.71-22.79-15-43.22-36.84-59.1-63.25-1.87-3.12-3.65-6.25-5.3-9.32-.85-1.56-1.68-3.15-2.5-4.74-17.62-34.38-27.77-74.36-29.36-115.62-2.3-59.4,13-116,43.09-159.26,30.29-43.61,71.94-68.58,117.27-70.33,1.67-.06,3.37-.1,5.05-.1,44.31,0,86.57,22.48,119,63.3,32.28,40.63,51.29,95.08,53.53,153.34,1.55,40-5.05,79.63-19.09,114.46a227.94,227.94,0,0,1-21.59,41.25c-3.37,5.07-7,10.07-10.88,14.86-29.34,36.48-68,57.44-108.79,59C2768.61,1579.08,2766.92,1579.12,2765.25,1579.12Z"/><path class="cls-1" d="M2758.11,1136.29c89.24,0,164.43,94.18,169,213.27,1.58,41-5.39,79.64-18.84,113a224.23,224.23,0,0,1-21.26,40.61q-5.09,7.65-10.7,14.62c-27.73,34.48-64.8,56.11-106.2,57.71-1.63.06-3.26.1-4.89.1-53.05,0-101.14-33.27-132.39-85.27q-2.7-4.5-5.22-9.17-1.26-2.33-2.47-4.68c-16.84-32.87-27.35-72-29-114.15-4.69-121.27,65.6-222.44,157-226,1.64-.07,3.29-.1,4.92-.1m0-7v0c-1.73,0-3.47,0-5.19.1-23.55.91-46.14,7.9-67.13,20.77-20.11,12.33-37.9,29.51-52.88,51.06-30.51,43.92-46,101.24-43.71,161.4,1.61,41.76,11.9,82.24,29.74,117.07.91,1.77,1.75,3.35,2.55,4.83,1.66,3.08,3.47,6.26,5.37,9.44,16.15,26.86,37,49.12,60.18,64.37,24.53,16.12,50.85,24.29,78.21,24.29,1.71,0,3.45,0,5.16-.1,41.85-1.62,81.4-23,111.39-60.32,3.92-4.88,7.64-10,11.07-15.13a231.66,231.66,0,0,0,21.92-41.88c14.22-35.28,20.91-75.36,19.34-115.9-2.27-59-21.55-114.17-54.28-155.37-16.06-20.22-34.56-36.1-55-47.2-21.28-11.56-43.74-17.43-66.76-17.43Z"/><ellipse class="cls-19" cx="2761.66" cy="1304.96" rx="55.53" ry="47.42" transform="translate(1344.56 4010.8) rotate(-87.65)"/><path class="cls-19" d="M2876.34,1517.81c-27.73,34.48-64.8,56.11-106.2,57.71-55,2.12-105.07-31.58-137.28-85.17a104.74,104.74,0,0,1-5.25-9.1l0-.07c14-31.06,50.73-80,76.4-94.67,45.56-26,100.94-13.58,148.08,60.3C2870.74,1476,2875.79,1513.75,2876.34,1517.81Z"/><path class="cls-1" d="M2937.67,1792.61a26.73,26.73,0,0,1-5.34-.54L2577.5,1716.8c-17.29-2.52-23.28-18.83-23.47-26.35l-1.2-23.08a26.43,26.43,0,0,1,7.29-19.78,26.81,26.81,0,0,1,19.36-8.37,27.68,27.68,0,0,1,5.5.57l358.89,74.54a26.69,26.69,0,0,1,21.29,27l-.8,25.33A26.62,26.62,0,0,1,2937.67,1792.61Z"/><path class="cls-21" d="M2579.48,1641.72a24.53,24.53,0,0,1,5,.52l358.89,74.53a24.24,24.24,0,0,1,19.3,24.52l-.8,25.33a24.2,24.2,0,0,1-29,23l-354.89-75.28c-15.06-2.16-21.21-16.46-21.41-23.95l-1.2-23.15a24.28,24.28,0,0,1,24.16-25.52m0-5v0h0a29.41,29.41,0,0,0-21.18,9.15,29,29,0,0,0-8,21.63l1.2,23.09c.3,10.42,8.4,26.13,25.52,28.67l354.73,75.25a29.66,29.66,0,0,0,5.89.6,29.25,29.25,0,0,0,29.18-28.33l.81-25.33a29.19,29.19,0,0,0-23.28-29.57l-358.9-74.53a29,29,0,0,0-6-.63Z"/><path class="cls-19" d="M2821.77,2009.94l-159.24-37.33c-4.92-1.08-11.91-4.71-11.66-11.53l-.81-17.61c.36-9.8.1-19.67,14.66-16.2l155.6,35.56c7.72,1.56,10.33,5.56,10.24,14.73l-.3,20.19C2829.34,2007.05,2828.44,2011.41,2821.77,2009.94Z"/><path class="cls-22" d="M2845.4,1751.53l-198.52-40.88c-6-1.25-10.78-5.27-11.51-9.77l-.53-12.14c.8-6.86,5.07-10.2,13.73-8.39l199.86,42c6.42,1.35,10.87,5.43,11.11,10.2l-.38,10.81C2858.54,1750,2853.59,1753.21,2845.4,1751.53Z"/><path class="cls-1" d="M2935.93,1938.18a26.89,26.89,0,0,1-6.18-.72L2575.62,1854a26.75,26.75,0,0,1-20.61-25.5l-.54-27.86c-.15-7.59,2-13.88,6.2-18.17,3.74-3.82,8.92-5.83,15-5.83a32.6,32.6,0,0,1,7.53.94l360.59,82.59a26.72,26.72,0,0,1,20.45,27.72l-1.63,25.3A26.79,26.79,0,0,1,2935.93,1938.18Z"/><path class="cls-21" d="M2575.64,1779.09a29.61,29.61,0,0,1,6.94.87l360.63,82.6a24.25,24.25,0,0,1,18.5,25.12l-1.62,25.3a24.27,24.27,0,0,1-24.16,22.7,24.66,24.66,0,0,1-5.61-.65l-354.13-83.51a24.25,24.25,0,0,1-18.68-23.12l-.54-27.86c-.27-13.37,7.12-21.45,18.67-21.45m0-5h0c-6.74,0-12.53,2.27-16.75,6.58-4.69,4.78-7.09,11.69-6.92,20l.55,27.86a29.23,29.23,0,0,0,22.52,27.89l354.14,83.5a29.21,29.21,0,0,0,35.9-26.59l1.62-25.3a29.2,29.2,0,0,0-22.32-30.3h-.06l-360.59-82.59a34.78,34.78,0,0,0-8.09-1Z"/><ellipse cx="2598.61" cy="1817.88" rx="14.12" ry="17.29" transform="translate(-115.14 176.84) rotate(-3.81)"/><ellipse cx="2651.61" cy="1831.05" rx="14.12" ry="17.29" transform="matrix(1, -0.07, 0.07, 1, -115.9, 180.39)"/><ellipse cx="2706.3" cy="1846.15" rx="14.12" ry="17.29" transform="matrix(1, -0.07, 0.07, 1, -116.78, 184.06)"/><ellipse cx="2775.8" cy="1862.03" rx="14.12" ry="17.29" transform="translate(-117.68 188.72) rotate(-3.81)"/><ellipse cx="2842.72" cy="1878.22" rx="14.12" ry="17.29" transform="translate(-118.61 193.2) rotate(-3.81)"/><ellipse cx="2907.74" cy="1894.6" rx="14.12" ry="17.29" transform="translate(-119.56 197.56) rotate(-3.81)"/><path class="cls-23" d="M2159.38,1424.19c-19.39-8.06-31.12-10.25-31.12-10.25s15.41-46.89,26.12-86.48c4.79-17.69,8.64-33.92,9.77-43.87,3.66-32.22,90.07,39.54,90.07,39.54,0,.83-.73,10.57-1.37,24.21-1,22.59-1.82,55.84,1.37,76.85C2259.35,1457.88,2178.78,1432.25,2159.38,1424.19Z"/><path class="cls-5" d="M2254.22,1323.13c0,.83-.73,10.57-1.37,24.21-40.22,7.86-73.55-3.8-98.47-19.88,4.79-17.69,8.64-33.92,9.77-43.87C2167.81,1251.37,2254.22,1323.13,2254.22,1323.13Z"/><path class="cls-7" d="M1977.6,2622.19c-66.44,0-133.62,2-197.84,19.11-15.16,4-32.24,11-36.59,26-3.09,10.75,1.79,22.56,9.71,30.45s18.44,12.54,28.89,16.5c84.42,32,177.27,29.48,267.5,32.43,66.57,2.18,133,7.58,199.54,10.27,60.75,2.46,127.67,8.74,186.43-10,10.78-3.43,21.44-7.9,30.11-15.16s15.2-17.65,15.77-28.94c.74-14.48-8.45-28.07-20.41-36.27-23.05-15.81-56.88-19.19-83.91-22.57-30.68-3.82-61.59-5.15-92.37-7.94q-98.07-8.89-196.55-12.11Q2032.76,2622.21,1977.6,2622.19Z"/><path class="cls-5" d="M1989.2,2528.61c-.26,1.72,4.76,56.47,2.53,78.42s51.34,7.94,51.34,7.94l5-91.33Z"/><path class="cls-24" d="M1986.14,2590.07s14.23,2.58,36,1.73,21.34-6.07,21.34-6.07,5.47-5.53,22,8.22,116,46,139.92,40.8,21.46,57.13-16.08,59.71-195.36,3.44-203.23-3.87S1977.43,2584.06,1986.14,2590.07Z"/><path class="cls-23" d="M2090.16,2535.63l6.38,87.5h-56.82s-8.7-80.59-5.8-80.59S2090.16,2535.63,2090.16,2535.63Z"/><path class="cls-25" d="M2147.25,1887.42c-16.29,62.25-19.06,349.43-15.52,370.65s-11.32,145-18.4,215-7.07,84.17-7.07,84.17-2.12,7.77-35.37,15.56-57.29-6.36-57.29-6.36c-13.44,3.53-31.13-3.55-31.13-3.55S1925.89,2413,1916,2370.54c-6.51-27.87-10.57-60.33-17.21-99.15-3.46-20.3-7.63-42.33-13.21-66.37-16.26-70-45.27-298.5-43.86-340.23s17.81-65.08,17.81-65.08S1933,1775,1974.7,1778.49,2163.56,1825.18,2147.25,1887.42Z"/><path class="cls-26" d="M1854.65,1808.48c1.62,1.08,148,92.62,157.18,104.54s10.24,27.16,20,29.87l-5.35-19.46,36.91-14.23,76.36,30.7,7.51-52.48-281.7-99Z"/><path class="cls-1" d="M1873.55,1762.93l-21.93,38.91s72.86,58,165.27,84.93c66.17,19.28,139.59,21.88,139.59,21.88L2172,1862Z"/><path class="cls-27" d="M1873.55,1762.93l-21.93,38.91s72.86,58,165.27,84.93c66.17,19.28,139.59,21.88,139.59,21.88L2172,1862Z"/><path class="cls-23" d="M2268.14,1103.18s-3.32,54.89,37.68,80.52,25.75,30.88,17,41.13-4.85,3.11-4.12,18.49,6.59,49.79-15.38,67.37-63,48.33-103.25,24.89-81.28-49.79-63.71-119.36S2238.85,1089.26,2268.14,1103.18Z"/><path class="cls-28" d="M2268.51,1187.56c-3,2.78-2.51,6.92-1.14,10.33,1.15,2.88,2.27,6.25,4.05,8.83,2.32,3.34,6.23,5,10.13,3.31,3.35-1.41,6.24-5.82,4.69-9.56a46.53,46.53,0,0,0-5.64-9.53c-1.51-2.08-3.09-4-5.67-4.72a6.59,6.59,0,0,0-6.42,1.34Z"/><path class="cls-3" d="M2545.15,1496.69s-63.23,196.09-102.79,196.09c-23,0-59.86-19.24-99.1-45.33-26.75-17.78-47.77-33.25-50-34.92l-.2-.14s-83.48,240.19-121.56,276.8a263.65,263.65,0,0,1-65.78-10.12,201.49,201.49,0,0,1-26.49-9.65v31.06c-.25.07-59.65-1.44-59.12-1.72,0,0-9-30.08-9.71-55,0,0-8.28-2.15-21.19-6.24-32.91-10.43-96-33.44-129.66-65.51,0,0,47.59-82,136.2-215.29s135.65-201,145.09-182.54c0,0,27.73,31,65.07,31s46.25-8,46.25-8,5.75-12.47,18.2,2.19c6.1,7.18,13.61,11.36,22.7,19.46l.13.1.42.39.12.1c8.69,7.87,18.83,19.41,30.54,40.54h0c.8,1.48,1.63,3,2.46,4.57,25.64,48.33,73.36,107.44,82.88,106s60.29-89.27,69.44-114.77C2479,1455.67,2523.4,1447.62,2545.15,1496.69Z"/><path class="cls-23" d="M2644.7,1353.46c-12.5,11.08-46.82,11.53-53.25,17.74s-9.29,26.57-9.12,26.57,25.21-2.51,26.63,8.94-18.58,22.86-24.65,25.36h0c-6,2.5-.36,1.46-9.63,17.87s-43.24,37.16-44.31,38.23-44.31-21.44-44.31-21.44,6.25-8.41,14.16-20.61c8.46-13.06,18.85-30.49,25.51-46.57,12.86-31.1,18.23-48.61,28.23-49.32s70.05-13.22,83.63-22.16,37.16-24.3,40.73-17.86S2657.21,1342.38,2644.7,1353.46Z"/><path class="cls-5" d="M2644.7,1353.46c-12.5,11.08-46.82,11.53-53.25,17.74s-9.29,26.57-9.12,26.57c0,0-20.89,2.14-24.12,0s11.08-4.65,15.73-11.8,11.08-17.86,21.45-22.15,37.16-8.94,45-14.65,37.87-39,37.87-39C2681.87,1316.65,2657.21,1342.38,2644.7,1353.46Z"/><path class="cls-5" d="M2584.28,1432.08c-6,2.5-.36,1.46-9.63,17.87s-43.24,37.16-44.31,38.23-44.31-21.44-44.31-21.44,6.25-8.41,14.16-20.61c6.49,3.95,15.15,9.13,21.82,12.79,12.2,6.69,25.2,13.78,32.29,0s-1.58-26,9.44-25.2A72.49,72.49,0,0,0,2584.28,1432.08Z"/><path class="cls-1" d="M2545.15,1496.69s-63.23,196.09-102.79,196.09c-23,0-59.86-19.24-99.1-45.33-26.75-17.78-47.77-33.25-50-34.92l-.2-.14s27.31-13.69,27.93-32.66,3.28-119.84,3.28-119.84h0c.8,1.48,1.63,3,2.46,4.57,25.64,48.33,73.36,107.44,82.88,106s60.29-89.27,69.44-114.77C2479,1455.67,2523.4,1447.62,2545.15,1496.69Z"/><path class="cls-27" d="M2545.15,1496.69s-63.23,196.09-102.79,196.09c-23,0-59.86-19.24-99.1-45.33-26.75-17.78-47.77-33.25-50-34.92l-.2-.14s27.31-13.69,27.93-32.66,3.28-119.84,3.28-119.84h0c.8,1.48,1.63,3,2.46,4.57,25.64,48.33,73.36,107.44,82.88,106s60.29-89.27,69.44-114.77C2479,1455.67,2523.4,1447.62,2545.15,1496.69Z"/><path class="cls-26" d="M2013.6,2566.48c-13.44,3.53-31.13-3.55-31.13-3.55S1925.89,2413,1916,2370.54c-6.51-27.87-10.57-60.33-17.21-99.15,14-20.85,35.34-35.54,27.82-81.22-10.61-64.37-73.57-331.74-38.91-294.26,0,0,0,30.42,12.74,111.77s43.15,189.56,53.76,243.32,1.41,41.73,19.09,147.83S2013.6,2566.48,2013.6,2566.48Z"/><path class="cls-5" d="M2343.26,1647.45l-50-34.92-.2-.14s15.25-33.62,17.41-74.11c2.13-39.81-3.94-106.54-16.74-118.93,8.69,7.87,18.83,19.41,30.54,40.54,5.54,33.34,11.37,82.8,10,104.84C2332,1598.19,2343.26,1647.45,2343.26,1647.45Z"/><path class="cls-28" d="M2171.73,1245.77c-2.23,13.43-2.12,26.55,1.89,39.7,3.72,12.19,9.45,23.69,16.07,34.55a328.68,328.68,0,0,0,19.52,29.32c7.55,9.83,17.5,20.73,30.3,22.92,4.94.84,11.12-.47,13.55-5.51,1.5-3.12,2.24-5.78,1.21-9.25-1.39-4.67-4.44-6.44-8.5-8.43a42.26,42.26,0,0,1-11.81-8.54c-7.72-7.84-13.52-17.53-19.51-26.69-12.61-19.31-25.72-41.78-24.79-65.65.4-10.07-16.22-12.71-17.93-2.42Z"/><path class="cls-28" d="M2161.25,1287.55c-1.91,4.38-3,8.21-2.72,13.06a130.24,130.24,0,0,0,2,14c1.6,9,4.74,17.67,8.34,26.09a114.62,114.62,0,0,0,12.61,22.55c2.9,4,6.08,8.72,10.2,11.55,3.56,2.44,7.7,5.68,12.22,5.15,4.76-.56,7.4-3.27,8-8,.55-4.19-2.38-8.45-4.28-12.06-1.79-3.41-4.74-6.51-7-9.68a159.38,159.38,0,0,1-11.69-19.37,156.28,156.28,0,0,1-8.15-20.1c-2.74-7.9-3.7-16.22-8.52-23.19-2.42-3.49-8.94-4.78-11,0Z"/><path class="cls-28" d="M2140.58,1298.5c-2.49,13.9-.67,27.93,3.18,41.42a141.41,141.41,0,0,0,7.19,19.32c2.69,5.94,6.92,14.72,14.58,14.32a7.94,7.94,0,0,0,7.2-6.14c1-3.64-.86-7.37-2.33-10.58-2.67-5.87-5.63-11.5-7.78-17.61-4.63-13.2-6.4-27-8.87-40.73-1.17-6.51-12-6.52-13.17,0Z"/><path class="cls-28" d="M2123.94,1317.19a87.2,87.2,0,0,0,2.1,29.46c2,8,5.75,21.65,14.74,24.1a6.17,6.17,0,0,0,7.49-4.25c1.14-4.43-1-8.72-2.53-12.88-1.4-3.77-3.19-7.33-4.41-11.19a98.23,98.23,0,0,1-4.63-25.24c-.37-8.31-12-8.1-12.76,0Z"/><path class="cls-28" d="M2104.88,1326.92c-3.88,16.35-.42,36,12.24,48,7.51,7.13,20.28-2,14.63-11.29-3.25-5.32-6.63-10.2-8.54-16.21a72.65,72.65,0,0,1-3.61-18.55c-.35-8.15-12.69-10.55-14.72-2Z"/><path class="cls-28" d="M2202.52,1254.12c-2.84,6.54-1.5,12.46,1.55,18.68a163.4,163.4,0,0,0,12.45,20.76c4.27,6.22,8.63,12.79,13.78,18.33,3.91,4.21,9.8,9.33,15.71,6.39a4.2,4.2,0,0,0,1.92-4.72c-1.43-4.29-6.24-6.76-9.15-10.15-3.9-4.56-7.51-9.38-11-14.26s-6.78-9.81-10.11-14.75c-3.07-4.54-8.85-11.15-7.43-17,1.07-4.42-5.73-7.81-7.71-3.25Z"/><path class="cls-28" d="M2216.69,1257.86c-1.73,10.12,6.19,17.58,13.24,23.71,6.88,6,16.38,13.77,26.1,12.41,2.23-.31,3.28-3.49,2.13-5.23-4-6-11.69-9-17.39-13.11-4.88-3.48-14.78-9.79-14.69-16.51.07-5.24-8.46-6.7-9.39-1.27Z"/><path class="cls-28" d="M2263,1130.94c10.1,5.49,20.11,11.21,30.17,16.8,5,2.79,10,5.74,15.26,8.13,3.45,1.58,9,3.83,11.46-.57,4.71-8.29-14.51-15.41-19.51-18-10.56-5.47-21.29-10.44-32.08-15.42-6-2.78-11.34,5.79-5.3,9.06Z"/><path class="cls-28" d="M2279.36,1122.07a147.71,147.71,0,0,1,19.64,8.25c6.19,3.28,11.88,7.54,17.58,11.59,1.82,1.29,4.27.91,6.12,0a5.35,5.35,0,0,0,2.78-3.62,6,6,0,0,0-1.55-5.9c-11.51-11.13-27.49-18-43.32-19.53-5.56-.53-5.93,7.54-1.25,9.21Z"/><path class="cls-5" d="M2409.59,1570.45s-10.4,7-4.15,36.23c2.25,10.54-14.58-5.84-14.25-21.3s5.91-23.23,5.91-23.23S2406.26,1572.66,2409.59,1570.45Z"/><path class="cls-1" d="M2222.89,1575.16s-2.29,2.09-6.27,5.75c-25.18,23.18-117.69,109.48-121.14,129.32-4,23-16.28,154.62-16.28,154.62v35.63s-40.54,3.48-59.12-1.72c0,0-14.15-69.47-19.13-84.63s-17-125.33,0-143.85,82.14-127.28,113.81-146c0,0,18.16-21.11,40.51-36,13.28-8.86,28-15.5,41.35-14.22C2232.34,1477.47,2230.44,1534,2222.89,1575.16Z"/><path class="cls-27" d="M2222.89,1575.16s-2.29,2.09-6.27,5.75c-25.18,23.18-117.69,109.48-121.14,129.32-4,23-16.28,154.62-16.28,154.62v35.63s-40.54,3.48-59.12-1.72c0,0-14.15-69.47-19.13-84.63s-17-125.33,0-143.85,82.14-127.28,113.81-146c0,0,18.16-21.11,40.51-36,13.28-8.86,28-15.5,41.35-14.22C2232.34,1477.47,2230.44,1534,2222.89,1575.16Z"/><path class="cls-18" d="M2222.89,1579.73s-2.29,2.09-6.27,5.76c1.3-16.6.84-32.15-2.12-45.58-9.92-45-37.08-50.79-59.23-47.1,13.28-8.85,28-15.49,41.35-14.21C2232.34,1482.05,2230.44,1538.55,2222.89,1579.73Z"/><path class="cls-5" d="M2235.63,1521.23c-2.75-17.73-8.87-37.15-24.79-45.34-9.84-5.06-21.78-4.68-32.3-1.27-20.62,6.69-37.63,21.41-52.83,36.34-8,7.9-16.71,15.18-24.65,23.22-10,10.1-19,21.09-28.75,31.41-22.64,24.05-71.44,81.34-82,120.25-8.36,30.62-6.18,116.05-1.08,151.7,12.91,4.09,18.4,5.49,18.4,5.49-16.11-84.21-2.47-150.13,2.49-171.35,4.27-18.33,79.27-111.6,99.62-136.66,1.44-1.77,3.36-3.07,5-4.69,1.9-1.89,3.81-3.78,5.75-5.64,3.87-3.74,7.81-7.41,11.87-11a176.51,176.51,0,0,1,25.73-19,109,109,0,0,1,25.19-11.13c7.4-2.15,15.51-3.35,22.7-.56,7.55,2.93,12.94,9.92,15.83,17.49s3.62,15.75,4.32,23.82c1.31,15.16,2.52,31-3.48,45-5.52,12.88-16.46,22.5-27.06,31.67l-61.27,53c-16.82,14.54-34.22,29.88-42.56,50.49-6.08,15-6.79,31.64-7.42,47.85l-4.56,116.94,25.84,9.47c-4.48-45.85-9-91.91-6.45-137.91.68-12.52,2.47-26.23,11.71-34.71,10.51-9.64,26.68-8.91,40.76-6.61s29.26,5.45,42-.9c11.72-5.83,18.46-18.29,23.57-30.34a272.53,272.53,0,0,0,18.5-146.67Z"/><path class="cls-26" d="M2025.39,1996.77c7.48,34.86,15.59,69.91,17.48,105.63,1.88,35.57-2.83,71-4.77,106.47-2,36-2.22,72.07-2.36,108.12-.13,35.25-.06,70.57,1.64,105.79.92,19.15,2.49,38.27,5.26,57.23,2.81,19.22,6.61,38.32,14.16,56.28,1.21,2.87,5.55,1.9,4.8-1.32-3.87-16.75-8-33.48-10.74-50.45a521.5,521.5,0,0,1-5.51-52.32c-2.11-35-2.36-70.24-2.55-105.33-.2-36.06.1-72.19,1.72-108.22,1.6-35.48,6-71,4.88-106.53-1.23-39.58-10.4-78.22-20.21-116.4-.64-2.46-4.33-1.42-3.8,1Z"/><path class="cls-23" d="M2078.42,1925.53s-17.79,14.39-47.17,17.44a221.05,221.05,0,0,1-7.7-35.49c-.33-2.64-.61-5.34-.82-8.07,0,0,38.55,4.17,53.24,1.31,0,0,.15,1,.31,2.5C2077,1909.51,2078.42,1925.53,2078.42,1925.53Z"/><path class="cls-5" d="M2076.28,1903.22c-7.37,3.82-24.31,9.7-52.73,4.26-.33-2.64-.61-5.34-.82-8.07,0,0,38.55,4.17,53.24,1.31C2076,1900.72,2076.12,1901.68,2076.28,1903.22Z"/><path class="cls-26" d="M2079.45,1921.78a122,122,0,0,1-51.95,17.93c-8.37.8-16.79,1-25.2,1-7.8,0-16.48-1.48-24.14,0-3.06.59-2.61,4.93,0,5.75,7.53,2.39,17.06,1.44,24.9,1.5a199.88,199.88,0,0,0,27.57-1.28c18.15-2.36,38.08-8.53,51.74-21.15,2-1.85-.59-5.23-2.92-3.78Z"/><path class="cls-5" d="M2036.47,2590.81s14.23,2.92,36,2,21.34-6.89,21.34-6.89,5.47-6.28,22,9.32,116,52.17,139.92,46.32,21.45,64.84-16.09,67.76-195.36,3.9-203.23-4.38S2027.76,2584,2036.47,2590.81Z"/><path class="cls-5" d="M2303.28,1084.41S2288.64,1184,2241.77,1247s-187.47,113.5-187.47,113.5,0-36.61-11-52.72-63-142.8,11.72-209.44,182.66-22,182.66-22S2287.9,1085.87,2303.28,1084.41Z"/><path class="cls-29" d="M2050,1300.83c14.46,5.52,31.24-2.21,44.38-8.15a241.63,241.63,0,0,0,42.25-25c25.83-18.75,50.4-40.77,69.91-66.13,10.6-13.78,21.13-29.64,25.5-46.66,1.5-5.85-7.31-10.09-10.11-4.26-6.36,13.23-12.23,26.27-20.55,38.47a247.19,247.19,0,0,1-28.46,33.92c-21.27,21.58-44.92,41.45-71.2,56.65a188.73,188.73,0,0,1-23,11.4c-8.74,3.57-17.8,7.51-27.28,4.38-3.43-1.13-4.74,4.09-1.47,5.34Z"/><path class="cls-29" d="M2232.35,1132.8a79.71,79.71,0,0,0,5.09-18.73c.36-2.76.47-5.54.73-8.31s1.39-5.57,1.3-8.45a4.18,4.18,0,0,0-7-2.92c-4,3.89-3.19,10.18-3.16,15.35a74.07,74.07,0,0,1-2.88,21.41c-1.14,3.91,4.54,5.27,6,1.65Z"/><path class="cls-28" d="M2305.29,1264.77c-11.17,2.43-25.77,4.29-36.73,0a1.61,1.61,0,0,0-1.8,2.34c3.18,4.73,10.7,4.16,15.75,4.25a95.85,95.85,0,0,0,23.85-2.73c2.51-.6,1.44-4.4-1.07-3.86Z"/><path class="cls-7" d="M1474.24,360c-51.78,1.16-104.16,14.76-146.46,44.64s-73.52,77.11-78.17,128.69,19.92,106.25,64.82,132.06c39.37,22.63,89.3,21.37,131.64,5,53.47-20.72,106.07-66.21,138.59-113.1,17.66-25.47,29.2-56.48,25.59-87.26-3.29-28.06-19.1-53.79-40.49-72.25C1544.15,375.67,1508.52,359.25,1474.24,360Z"/><path class="cls-13" d="M3435.5,1382.92c63.68-89.59,150.89-160.19,243.92-218.74-8.32,5.24-13.84,76-17.05,88.62a790.29,790.29,0,0,1-28.12,88.5c-52.78,137.68-146.58,252.49-246.39,358.82q-26.76,28.52-54.57,56C3335.3,1621.82,3356.11,1494.61,3435.5,1382.92Z"/><path class="cls-13" d="M3801.25,1955.09c17.28-31,43.22-56.77,70.46-79.11,27-22.17,57.87-41.22,90.39-54.21,16.72-6.67,34.6-11.75,52.76-10.55a64.86,64.86,0,0,1,12.31,2c2.37.63,8,1.62,9.27,4.19s-1.16,6.75-2.23,8.92a53.21,53.21,0,0,1-5.59,9.12c-9.31,12-23.09,20-36.47,26.67-16.78,8.41-34.12,15.8-51.21,23.58l-63.38,28.86c-21.34,9.72-43.09,19-63.13,31.25-5.39,3.29-1.95,12.46,4.41,10.46,21.43-6.75,41.89-16.43,62.35-25.7l62.55-28.32c18.91-8.56,38.12-16.67,56.71-25.94,14.9-7.42,29.82-16.53,40.3-29.72,5.56-7,10.68-15.32,12.08-24.28,1.71-10.87-4.57-18.86-14.33-22.78-18.48-7.43-39.86-5.83-58.75-1-19.23,4.93-37.61,13.52-55.1,22.79a378.64,378.64,0,0,0-97.2,73.89c-15.31,16.24-29.47,34-37.16,55.19-2.34,6.44,7.69,10.48,11,4.62Z"/><path class="cls-13" d="M3945.49,1727.41c10.9-18.85,22.53-37.46,35-55.31,10.53-15.09,22.37-30.26,38-40.38a72.32,72.32,0,0,1,11.38-6.09c3.06-1.28,10.59-4.89,14-3.66,3,1.1,3.28,5.81,3.26,8.53a35.88,35.88,0,0,1-3.8,15c-8.29,17.14-24.7,30.12-40.84,39.48-18.89,10.94-39.53,17.55-59.62,25.78-6.55,2.68-4.15,13.16,3,10.94,21.23-6.58,42.45-15.25,61.55-26.68,18.4-11,37.53-26.09,46.35-46.23,3.89-8.89,6.47-20.49,1.89-29.64-5.15-10.28-15.83-8.54-25-5.38-20.12,6.92-35.88,22-48.72,38.5-17.06,21.87-30.69,46.51-42.38,71.59-1.86,4,3.71,7.43,6,3.5Z"/><path class="cls-13" d="M3727.92,1347.36c-7.52-61.77,34.54-114.33,75.15-155.57,9.55-9.69,19.7-19,31.75-25.5a65.24,65.24,0,0,1,9.52-4.23c1.53-.52,3.06-1,4.62-1.41a12.32,12.32,0,0,1,2.36-.58c1,0,1,.14.66-.2,1.48,1.54.53,7.8.37,9.74A55.66,55.66,0,0,1,3850,1181c-4,13.57-11.23,26.34-18,38.72a369.9,369.9,0,0,1-21.41,34.83,236.85,236.85,0,0,1-28.54,34,189.28,189.28,0,0,1-17.2,14.93c-6,4.61-12.47,8.61-18.24,13.52-3.88,3.31.25,10.29,5,8.62,13.81-4.82,26-15.44,36.56-25.36a244.15,244.15,0,0,0,29.56-34.1,356.7,356.7,0,0,0,24.25-38.69c7.65-14,15.82-28.57,20.15-44,3-10.82,7.07-38.27-11.94-35.58-15,2.12-28.78,11.34-40.14,20.78-12.33,10.25-23.29,22.3-33.95,34.25a325.51,325.51,0,0,0-30.69,39.6c-20.37,31.49-32.47,68.39-26.49,106.07.79,5,9.55,3.88,8.93-1.21Z"/><path class="cls-13" d="M3399.42,1293.64c-16.55-37.14-14.24-83.87,10.07-117.21,5.54-7.6,12.69-14.48,21.28-18.48,3.69-1.71,8.56-3.41,12.69-3.12,5.31.38,5.05,7.09,5,11.25-.18,11.67-5.26,22.79-10.25,33.11s-10.29,20.3-16,30.14c-13,22.28-28.19,43-43.4,63.76-3.8,5.18,4.51,11.4,8.84,6.81,18.44-19.53,33.52-42.21,46.66-65.58,6.47-11.51,12.56-23.29,17.85-35.39s9.71-25,8.33-38.26c-.51-5-1.94-10.34-5.72-13.94-4.41-4.19-10.33-4.45-16-3.64-11.16,1.57-21.12,7.44-29.22,15.11-16.88,16-26.81,39.52-30.45,62.18-4.29,26.77-.67,54.11,11.82,78.27,3,5.78,11.13.71,8.58-5Z"/><path class="cls-8" d="M2203.19,787.56a7.15,7.15,0,0,0,6.55-10A58.79,58.79,0,0,0,2146,742.83a7.08,7.08,0,0,1-7.41-3.56,86.52,86.52,0,0,0-96.75-42.69,7.16,7.16,0,0,1-7.7-3,106.58,106.58,0,0,0-185.88,16,7.14,7.14,0,0,1-9.32,3.72,73.11,73.11,0,0,0-102.14,67.11v.07a7.09,7.09,0,0,0,7.14,7Z"/></g></svg>