<svg xmlns="http://www.w3.org/2000/svg" xmlns:xlink="http://www.w3.org/1999/xlink" width="54.55" height="54.55" viewBox="0 0 54.55 54.55"><defs><linearGradient id="a" x1="0.5" x2="0.5" y2="1" gradientUnits="objectBoundingBox"><stop offset="0" stop-color="#d0e931"/><stop offset="1" stop-color="#acc10a"/></linearGradient><filter id="b" x="0" y="0" width="54.55" height="54.55" filterUnits="userSpaceOnUse"><feOffset dy="2" input="SourceAlpha"/><feGaussianBlur stdDeviation="3" result="c"/><feFlood flood-color="#dbe3ff"/><feComposite operator="in" in2="c"/><feComposite in="SourceGraphic"/></filter></defs><g transform="translate(-98 -530)"><g transform="matrix(1, 0, 0, 1, 98, 530)" filter="url(#b)"><path d="M9.4,0H27.151a9.4,9.4,0,0,1,9.4,9.4V27.151a9.4,9.4,0,0,1-9.4,9.4H9.4a9.4,9.4,0,0,1-9.4-9.4V9.4A9.4,9.4,0,0,1,9.4,0Z" transform="translate(9 7)" fill="url(#a)"/></g><g transform="translate(110 545)"><path d="M23.588,3.232a1.077,1.077,0,0,0,.593-.081.576.576,0,0,1,.442-.043.716.716,0,0,1,.307.339l.388.76a2.661,2.661,0,0,1,.259.813q.038.291.07.754.048.619.059.76.054.582.178,1.751a.539.539,0,0,1-.14-.038,3.076,3.076,0,0,0-3.264.269.442.442,0,0,1-.221.081.539.539,0,0,1-.226-.054,7.886,7.886,0,0,0-.991-.372,4.088,4.088,0,0,0-1.077-.162,2.979,2.979,0,0,0-1.616.5.35.35,0,0,1-.113.048.172.172,0,0,1-.113,0l-.593-.291-.593-.3a.366.366,0,0,1-.172-.151.442.442,0,0,1-.027-.253,4.412,4.412,0,0,1,.2-.889l.3-.856a3.873,3.873,0,0,0,.269-1.514q0-.14-.038-.156a.189.189,0,0,1-.124-.167v-.2q.065-.63.14-1.244a1.013,1.013,0,0,0-.436-.98A3.41,3.41,0,0,0,14.894.883a3.394,3.394,0,0,0-2.155.716.98.98,0,0,0-.35.98q.038.275.075.668a5.6,5.6,0,0,0,.059.673v.14a.582.582,0,0,0-.221.512,2.979,2.979,0,0,0,.1.539,2.036,2.036,0,0,0,.14.436q.151.366.172.431t.075.312a1.616,1.616,0,0,0,.086.3,2.742,2.742,0,0,1,.259,1.034.431.431,0,0,1,0,.151.2.2,0,0,1-.1.1q-.9.452-1.357.668a.232.232,0,0,1-.113,0,.248.248,0,0,1-.108-.032A3.108,3.108,0,0,0,8.3,8.339a1.735,1.735,0,0,1-.733.172,1.39,1.39,0,0,1-.716-.242,2.661,2.661,0,0,0-2.629-.092l-.393.156a5.586,5.586,0,0,0,.248-1.384q.027-.916.059-1.368a4.04,4.04,0,0,1,.291-1.217,6.927,6.927,0,0,1,.6-1.131.42.42,0,0,1,.215-.167.345.345,0,0,1,.28,0,1.077,1.077,0,0,0,.824.1,2.343,2.343,0,0,0,.727-.4A2.925,2.925,0,0,1,7.455,2.5a.42.42,0,0,1,.3-.059.436.436,0,0,0,.3,0,.388.388,0,0,0,.178-.232A.539.539,0,0,1,8.3,2.1l.086-.108a.3.3,0,0,0,.075-.21.4.4,0,0,0-.1-.162.539.539,0,0,1-.081-.145l-.065-.162-.081-.232A.458.458,0,0,0,8.026.916q-.237-.2-.593-.474L6.836,0H6.464Q4.589,1.19,3.943,1.616a1.077,1.077,0,0,0-.426.447,4.972,4.972,0,0,1-.506.953,10.556,10.556,0,0,1-.652.851l-.512.609q-.312.372-.506.614A4.708,4.708,0,0,0,.609,6.464a8.554,8.554,0,0,0-.361,1.5Q.2,8.22.129,8.592L0,9.2v1.325l.889.426q.539.253.883.447.259.14.684.409l.673.42a4.051,4.051,0,0,0,1.39.5A7.439,7.439,0,0,0,6,12.815a3.386,3.386,0,0,0,.393-.027l.388-.048a.42.42,0,0,1,.2,0,.366.366,0,0,1,.162.14,3.814,3.814,0,0,0,1.4,1.212.474.474,0,0,1,.113.081.323.323,0,0,1,.081.108,11.894,11.894,0,0,0,.646,1.4q.253.479.765,1.341a.986.986,0,0,1,.14.452q.027.587.151,3.41h8.958q.113-2.693.151-3.437a.846.846,0,0,1,.124-.409q.485-.781.792-1.352a12.47,12.47,0,0,0,.657-1.422.307.307,0,0,1,.07-.108.323.323,0,0,1,.1-.081,3.415,3.415,0,0,0,1.336-1.083.6.6,0,0,1,.291-.226.862.862,0,0,1,.356,0,8.587,8.587,0,0,0,1.023.075,5.543,5.543,0,0,0,1.023-.081,3.566,3.566,0,0,0,.873-.28q.285-.129.813-.426.91-.512,2.155-1.158l.452-.237a.97.97,0,0,0,.345-.366V9.949L29.8,9.211q-.086-.442-.14-.738-.178-.98-.21-1.137a6.8,6.8,0,0,0-.334-1.11,5.134,5.134,0,0,0-.571-1.045q-.156-.215-.733-.932t-1.18-1.492a1.616,1.616,0,0,1-.259-.539,1.007,1.007,0,0,0-.183-.356,1.228,1.228,0,0,0-.3-.248L23.362,0h-.393L22.43.442l-.539.431a.749.749,0,0,0-.2.2.469.469,0,0,0-.059.28A.377.377,0,0,1,21.5,1.6a.409.409,0,0,0-.108.2.253.253,0,0,0,.081.21.592.592,0,0,1,.07.145.539.539,0,0,0,.21.3.452.452,0,0,0,.366,0,.356.356,0,0,1,.269.081l.329.221.323.226A1.3,1.3,0,0,0,23.588,3.232Z" fill="#fff"/></g></g></svg>