<svg xmlns="http://www.w3.org/2000/svg" width="20.722" height="26.933" viewBox="0 0 20.722 26.933"><path d="M11.008.457C5.472.457,0,4.148,0,10.122c0,3.8,2.137,5.957,3.432,5.957.534,0,.842-1.489.842-1.91,0-.5-1.279-1.57-1.279-3.659A7.293,7.293,0,0,1,10.571,3.1c3.675,0,6.395,2.088,6.395,5.925,0,2.865-1.149,8.24-4.873,8.24A2.4,2.4,0,0,1,9.6,14.9c0-2.04,1.425-4.015,1.425-6.119,0-3.572-5.067-2.925-5.067,1.392a6.34,6.34,0,0,0,.518,2.736c-.745,3.205-2.266,7.981-2.266,11.284,0,1.02.146,2.024.243,3.044.183.205.092.183.372.081,2.72-3.723,2.623-4.452,3.853-9.325a4.377,4.377,0,0,0,3.74,1.943c5.731,0,8.3-5.585,8.3-10.62C20.722,3.954,16.092.457,11.008.457Z" transform="translate(0 -0.457)" fill="#fff"/></svg>