<svg xmlns="http://www.w3.org/2000/svg" width="21.542" height="28" viewBox="0 0 21.542 28"><path d="M11.444.457C5.689.457,0,4.294,0,10.5,0,14.454,2.222,16.7,3.568,16.7c.555,0,.875-1.548.875-1.986,0-.522-1.33-1.633-1.33-3.8A7.582,7.582,0,0,1,10.99,3.2c3.82,0,6.648,2.171,6.648,6.16,0,2.979-1.195,8.566-5.066,8.566A2.491,2.491,0,0,1,9.98,15.469c0-2.121,1.481-4.174,1.481-6.362,0-3.714-5.268-3.041-5.268,1.447A6.591,6.591,0,0,0,6.732,13.4c-.774,3.332-2.356,8.3-2.356,11.731,0,1.06.151,2.1.252,3.164.191.213.1.191.387.084,2.827-3.871,2.726-4.628,4.006-9.694a4.55,4.55,0,0,0,3.888,2.02c5.958,0,8.634-5.806,8.634-11.041C21.542,4.092,16.729.457,11.444.457Z" transform="translate(0 -0.457)" fill="#152236"/></svg>