<svg xmlns="http://www.w3.org/2000/svg" xmlns:xlink="http://www.w3.org/1999/xlink" width="54.55" height="54.55" viewBox="0 0 54.55 54.55"><defs><linearGradient id="a" x1="0.5" x2="0.5" y2="1" gradientUnits="objectBoundingBox"><stop offset="0" stop-color="#ff006c"/><stop offset="1" stop-color="#c90055"/></linearGradient><filter id="b" x="0" y="0" width="54.55" height="54.55" filterUnits="userSpaceOnUse"><feOffset dy="2" input="SourceAlpha"/><feGaussianBlur stdDeviation="3" result="c"/><feFlood flood-color="#dbe3ff"/><feComposite operator="in" in2="c"/><feComposite in="SourceGraphic"/></filter></defs><g transform="translate(-325 -2357)"><g transform="matrix(1, 0, 0, 1, 325, 2357)" filter="url(#b)"><path d="M9.4,0H27.151a9.4,9.4,0,0,1,9.4,9.4V27.151a9.4,9.4,0,0,1-9.4,9.4H9.4a9.4,9.4,0,0,1-9.4-9.4V9.4A9.4,9.4,0,0,1,9.4,0Z" transform="translate(9 7)" fill="url(#a)"/></g><g transform="translate(331.111 2365.5)"><g transform="translate(8.889 2.5)"><path d="M55.123,40.7h8.017a.408.408,0,0,0,.4-.4,10.19,10.19,0,0,0-2.436-5.92.368.368,0,0,0-.555-.031l-5.7,5.7A.379.379,0,0,0,55.123,40.7Zm7-1.48a.678.678,0,1,1-.678-.678A.647.647,0,0,1,62.123,39.221ZM60.55,35.952a.678.678,0,1,1-.678.678A.684.684,0,0,1,60.55,35.952Zm-2.22,2.559a.678.678,0,1,1-.678.678A.684.684,0,0,1,58.33,38.511Z" transform="translate(-40.596 -24.45)" fill="#fff"/><path d="M51.693,69.911a10.391,10.391,0,0,0,5.89-2.436.368.368,0,0,0,.031-.555L51.94,61.246a.379.379,0,0,0-.648.278V69.51A.347.347,0,0,0,51.693,69.911Zm2.991-2.837a1.079,1.079,0,1,1-1.079-1.079A1.054,1.054,0,0,1,54.684,67.074Zm-1.758-3.731a.678.678,0,1,1-.678.678A.684.684,0,0,1,52.927,63.343Z" transform="translate(-38.215 -43.053)" fill="#fff"/><path d="M25.118,57.7H17.1a.415.415,0,0,0-.4.432,10.25,10.25,0,0,0,2.467,5.89.366.366,0,0,0,.555,0l5.643-5.643A.384.384,0,0,0,25.118,57.7ZM18.55,60.044a.678.678,0,1,1,.678-.678A.684.684,0,0,1,18.55,60.044Zm1.6,2a.678.678,0,1,1,.678-.678A.684.684,0,0,1,20.154,62.048Zm2.22-2a.678.678,0,1,1,.678-.678A.684.684,0,0,1,22.374,60.044Z" transform="translate(-14.291 -40.679)" fill="#fff"/><path d="M33.761,61.281l-2.837,2.837a.944.944,0,0,1,.586.863.928.928,0,0,1-.925.925.913.913,0,0,1-.863-.586l-1.573,1.573a.366.366,0,0,0,.031.555,10.217,10.217,0,0,0,5.89,2.436.372.372,0,0,0,.4-.4V65.2a.521.521,0,0,1-.308.093.678.678,0,0,1,0-1.357.521.521,0,0,1,.308.093V61.62A.438.438,0,0,0,33.761,61.281Zm-1.2,7.185a.678.678,0,1,1,.678-.678A.684.684,0,0,1,32.558,68.465Z" transform="translate(-22.132 -43.088)" fill="#fff"/><path d="M57.244,19.188l3.978-3.978a.694.694,0,0,1-.493-.648.684.684,0,0,1,.678-.678.694.694,0,0,1,.648.493l.863-.863a.39.39,0,0,0,0-.555A10.341,10.341,0,0,0,57,10.492a.372.372,0,0,0-.4.4v8.048A.375.375,0,0,0,57.244,19.188ZM58.231,17a.678.678,0,1,1,.678-.678A.684.684,0,0,1,58.231,17Zm.247-5.18a1.11,1.11,0,1,1-1.11,1.11A1.087,1.087,0,0,1,58.477,11.818Z" transform="translate(-41.885 -8.026)" fill="#fff"/><path d="M33.835,23.092a10.341,10.341,0,0,0-5.92,2.467.366.366,0,0,0,0,.555l5.7,5.7a.379.379,0,0,0,.648-.278V23.462A.375.375,0,0,0,33.835,23.092Zm-3.7,3.392a.678.678,0,1,1,.678-.678A.665.665,0,0,1,30.134,26.484ZM32.6,29.2a.678.678,0,1,1,.678-.678A.684.684,0,0,1,32.6,29.2Zm.123-2.714a.678.678,0,1,1,.678-.678A.665.665,0,0,1,32.724,26.484Z" transform="translate(-21.959 -16.74)" fill="#fff"/><path d="M23.268,37.864l-3.484-3.515a.366.366,0,0,0-.555.031,10.19,10.19,0,0,0-2.436,5.92.372.372,0,0,0,.4.4h1.7a1.278,1.278,0,0,1-.093-.493,1.2,1.2,0,0,1,2.405,0,1.278,1.278,0,0,1-.093.493h4.07a.379.379,0,0,0,.278-.648L24.07,38.666a.668.668,0,0,1-1.326-.123A.641.641,0,0,1,23.268,37.864ZM19.6,37.833a.678.678,0,1,1,.678-.678A.684.684,0,0,1,19.6,37.833Z" transform="translate(-14.353 -24.45)" fill="#fff"/><path d="M55.123,57.631a.379.379,0,0,0-.278.648l5.643,5.643a.39.39,0,0,0,.555,0,10.25,10.25,0,0,0,2.467-5.89.4.4,0,0,0-.4-.432H62.061a.861.861,0,0,1,.185.555.956.956,0,1,1-1.912,0,1.082,1.082,0,0,1,.185-.555h-5.4Zm3.084,2.344a.678.678,0,1,1,.678-.678A.647.647,0,0,1,58.207,59.974Zm2.714,1.449a.678.678,0,1,1-.678-.678A.684.684,0,0,1,60.92,61.424Z" transform="translate(-40.596 -40.61)" fill="#fff"/><path d="M9.262,36.82h.894a.356.356,0,0,0,.37-.37,10.928,10.928,0,0,1,2.683-6.537.418.418,0,0,0,0-.524l-.617-.648a.39.39,0,0,0-.555,0,12.546,12.546,0,0,0-3.145,7.647A.375.375,0,0,0,9.262,36.82Z" transform="translate(-8.889 -20.569)" fill="#fff"/><path d="M30.119,85.875a10.919,10.919,0,0,1-6.506-2.683.418.418,0,0,0-.524,0l-.648.648a.39.39,0,0,0,0,.555,12.643,12.643,0,0,0,7.616,3.145.389.389,0,0,0,.4-.4v-.894A.318.318,0,0,0,30.119,85.875Z" transform="translate(-18.182 -58.246)" fill="#fff"/><path d="M58.6,83.141a.355.355,0,0,0-.524,0,10.919,10.919,0,0,1-6.506,2.683.375.375,0,0,0-.37.37v.894a.408.408,0,0,0,.4.4,12.72,12.72,0,0,0,7.616-3.145.366.366,0,0,0,0-.555Z" transform="translate(-38.153 -58.195)" fill="#fff"/><path d="M56.932,4.165a10.959,10.959,0,0,1,6.537,2.714.418.418,0,0,0,.524,0l.648-.648a.39.39,0,0,0,0-.555A12.761,12.761,0,0,0,56.993,2.5a.389.389,0,0,0-.4.4V3.8A.333.333,0,0,0,56.932,4.165Z" transform="translate(-41.88 -2.5)" fill="#fff"/><path d="M29.988,15.192a12.761,12.761,0,0,0-7.647,3.176.391.391,0,0,0,0,.555l.648.648a.355.355,0,0,0,.524,0,10.851,10.851,0,0,1,6.537-2.714.375.375,0,0,0,.37-.37v-.894A.381.381,0,0,0,29.988,15.192Z" transform="translate(-18.113 -11.276)" fill="#fff"/><path d="M13.279,64.576a10.872,10.872,0,0,1-2.714-6.506.375.375,0,0,0-.37-.37H9.3a.408.408,0,0,0-.4.4,12.674,12.674,0,0,0,3.176,7.616.391.391,0,0,0,.555,0l.648-.648A.375.375,0,0,0,13.279,64.576Z" transform="translate(-8.897 -40.679)" fill="#fff"/><path d="M77.388,28.749l-.648.648a.355.355,0,0,0,0,.524,11.007,11.007,0,0,1,2.683,6.537.375.375,0,0,0,.37.37h.894a.408.408,0,0,0,.4-.4,12.729,12.729,0,0,0-3.145-7.647A.366.366,0,0,0,77.388,28.749Z" transform="translate(-55.738 -20.577)" fill="#fff"/><path d="M80.77,57.7h-.894a.356.356,0,0,0-.37.37,11.062,11.062,0,0,1-2.714,6.506.418.418,0,0,0,0,.524l.648.648a.39.39,0,0,0,.555,0A12.84,12.84,0,0,0,81.171,58.1.408.408,0,0,0,80.77,57.7Z" transform="translate(-55.79 -40.679)" fill="#fff"/></g></g></g></svg>