<svg xmlns="http://www.w3.org/2000/svg" xmlns:xlink="http://www.w3.org/1999/xlink" width="54.55" height="54.55" viewBox="0 0 54.55 54.55"><defs><linearGradient id="a" x1="0.5" x2="0.5" y2="1" gradientUnits="objectBoundingBox"><stop offset="0" stop-color="#eaac22"/><stop offset="1" stop-color="#c78c08"/></linearGradient><filter id="b" x="0" y="0" width="54.55" height="54.55" filterUnits="userSpaceOnUse"><feOffset dy="2" input="SourceAlpha"/><feGaussianBlur stdDeviation="3" result="c"/><feFlood flood-color="#dbe3ff"/><feComposite operator="in" in2="c"/><feComposite in="SourceGraphic"/></filter></defs><g transform="translate(-99 -1785)"><g transform="matrix(1, 0, 0, 1, 99, 1785)" filter="url(#b)"><path d="M9.4,0H27.151a9.4,9.4,0,0,1,9.4,9.4V27.151a9.4,9.4,0,0,1-9.4,9.4H9.4a9.4,9.4,0,0,1-9.4-9.4V9.4A9.4,9.4,0,0,1,9.4,0Z" transform="translate(9 7)" fill="url(#a)"/></g><g transform="translate(113 1797)"><g transform="translate(0 0)"><path d="M16.077,22.9H13.9l1,4.1h2.175l-1-4.1M15,1.7l-6.726.65H15V1.7m9.876,21.2H22.7l1,4.1h2.175l-1-4.1m-4.4,0H18.3l1,4.1h2.175l-1-4.1m-8.8,0H9.5l1,4.1h2.175l-1-4.1m-4.4,0H5.1l1,4.1H8.276l-1-4.1M2.9,22.9H.725l1,4.1H3.9l-1-4.1M6.726,8.651V8L.8,8.551l-.8.1H6.726m1.55,3.6V11.6l-6.7.65h6.7m4.051-7.076q-.725.4-1.35.725Q9,6.9,8.3,7.276q-.9.5-.725,1.2A1.16,1.16,0,0,0,8.2,9.3a1.255,1.255,0,0,0,1.05-.125q.3-.15,1-.55a.165.165,0,0,1,.075-.075l3-1.675q-.25.65-.675,2a4.531,4.531,0,0,1-1.1,1.725l-.6.65q-.175.2-.4.5-.725.825-1,1.125a1.72,1.72,0,0,1-.85.5q-.55.175-1.425.4-1.375.4-1.45.4a2.28,2.28,0,0,0-.7.35,1.15,1.15,0,0,0-.4.7,1.21,1.21,0,0,0,.45,1.175,1.285,1.285,0,0,0,1.3.2q2.125-.7,4-1.375a1.89,1.89,0,0,0,.45-.225,2.81,2.81,0,0,0,.5-.425q.4-.4.9-1,.3-.35.925-1.05,1.75,2.175,2.1,2.65a.59.59,0,0,1,.075.225,1.685,1.685,0,0,1-.025.275q-.325,1.3-1,3.9a1.325,1.325,0,0,0,.1,1,1.085,1.085,0,0,0,.75.575,1.17,1.17,0,0,0,.925-.125,1.275,1.275,0,0,0,.575-.825q.275-.95.625-2.375.575-2.275.625-2.375a1.565,1.565,0,0,0-.3-1.3q-1.05-1.425-1.85-2.6a.875.875,0,0,1-.125-.25.765.765,0,0,1,0-.275q.175-.425.45-1.05t.5-1.1q.175.4.475,1.15.275.625.5,1.05a1.31,1.31,0,0,0,.25.325.945.945,0,0,0,.35.2l2.875.8a1.755,1.755,0,0,0,1,.05,1.6,1.6,0,0,0,.675-.725v-.55a1.5,1.5,0,0,0-.5-.575,2,2,0,0,0-.7-.275q-.375-.075-1-.25a9.337,9.337,0,0,0-.975-.25.73.73,0,0,1-.575-.575Q18.578,7.576,18,6a1.55,1.55,0,0,0-.475-.75l-.5-.5a5.141,5.141,0,0,1-.5-.5,1.675,1.675,0,0,0-2.05-.2q-.725.35-2.175,1.1M18.3,0a2.305,2.305,0,0,0-1.625.7,2.22,2.22,0,0,0-.7,1.6,2.31,2.31,0,0,0,.7,1.65,2.215,2.215,0,0,0,1.625.675,2.185,2.185,0,0,0,1.6-.675,2.175,2.175,0,0,0,.7-1.625A2.27,2.27,0,0,0,19.928.7,2.23,2.23,0,0,0,18.3,0Z" transform="translate(0 0)" fill="#fff"/></g></g></g></svg>