<svg xmlns="http://www.w3.org/2000/svg" xmlns:xlink="http://www.w3.org/1999/xlink" width="54.55" height="54.55" viewBox="0 0 54.55 54.55"><defs><linearGradient id="a" x1="0.5" x2="0.5" y2="1" gradientUnits="objectBoundingBox"><stop offset="0" stop-color="#ff24ee"/><stop offset="1" stop-color="#c700b8"/></linearGradient><filter id="b" x="0" y="0" width="54.55" height="54.55" filterUnits="userSpaceOnUse"><feOffset dy="2" input="SourceAlpha"/><feGaussianBlur stdDeviation="3" result="c"/><feFlood flood-color="#dbe3ff"/><feComposite operator="in" in2="c"/><feComposite in="SourceGraphic"/></filter></defs><g transform="translate(-323 -693)"><g transform="matrix(1, 0, 0, 1, 323, 693)" filter="url(#b)"><path d="M9.4,0H27.151a9.4,9.4,0,0,1,9.4,9.4V27.151a9.4,9.4,0,0,1-9.4,9.4H9.4a9.4,9.4,0,0,1-9.4-9.4V9.4A9.4,9.4,0,0,1,9.4,0Z" transform="translate(9 7)" fill="url(#a)"/></g><g transform="translate(-471.967 218.649)"><path d="M833.928,505.446l-5.965-2.669-1.5-.8v-1.625a10.69,10.69,0,0,0,1.234-2.583,2.057,2.057,0,0,0,1.13-1.806h0a2.371,2.371,0,0,0-.374-1.57,2.1,2.1,0,0,0,.324-.951,1.724,1.724,0,0,0,.906-1.442c0-3.115-3.232-5.65-7.2-5.65s-7.2,2.534-7.2,5.65a1.623,1.623,0,0,0,.729,1.306,2.1,2.1,0,0,0,.331,1.086,1.817,1.817,0,0,0-.1.153,2.619,2.619,0,0,0,.243,2.767,1.483,1.483,0,0,0,.609.452,10.746,10.746,0,0,0,1.226,2.563v1.651l-1.5.8-5.938,2.659a3.818,3.818,0,0,0-1.908,3.344V513.2h26.854v-4.419A3.773,3.773,0,0,0,833.928,505.446Zm-10.9,4.054.813,2.652h-2.908l.81-2.652a.88.88,0,0,0-.106-.694l-.428-.63,1.181-2.4,1.177,2.386-.258.38-.178.263A.88.88,0,0,0,823.032,509.5Zm.054-4.7,3.131-1.764.757.4-2.607,3.955Zm-6.01-11.339a29.015,29.015,0,0,1,10.642,0,.843.843,0,0,1-.64.714,29.1,29.1,0,0,1-9.362,0A.843.843,0,0,1,817.076,493.463Zm11.231,2.455a1.984,1.984,0,0,1-.374,1.021,11.256,11.256,0,0,0,.215-1.17c.03-.234.048-.47.058-.713A2.081,2.081,0,0,1,828.307,495.918Zm-5.825-8.515c3.392,0,6.152,2.063,6.152,4.6a.687.687,0,0,1-.345.5,30.086,30.086,0,0,0-11.652-.025.653.653,0,0,1-.308-.476C816.331,489.466,819.09,487.4,822.482,487.4Zm-6,8.515a2.066,2.066,0,0,1,.1-.881c.01.25.028.5.059.729a10.536,10.536,0,0,0,.209,1.171A1.958,1.958,0,0,1,816.486,495.918Zm.685-.218c-.026-.2-.042-.408-.052-.617a1.653,1.653,0,0,0,.428.133,30.141,30.141,0,0,0,9.7,0,1.657,1.657,0,0,0,.431-.134c-.01.21-.026.416-.052.619a10.559,10.559,0,0,1-.393,1.814,10.134,10.134,0,0,1-2.205,3.835l-.533.581a2.3,2.3,0,0,1-1.7.747h-.806a2.307,2.307,0,0,1-1.692-.747l-.528-.582a10.2,10.2,0,0,1-2.6-5.65Zm2.211,6.005.528.582a2.837,2.837,0,0,0,2.08.918h.806a2.824,2.824,0,0,0,2.086-.919l.533-.581c.185-.2.358-.412.526-.626v.9l-3.547,2-3.548-2,0,0v-.913Q819.1,501.4,819.382,501.706Zm-.812,1.331L821.7,504.8l-1.278,2.6-2.611-3.955Zm-8.551,5.748a2.812,2.812,0,0,1,1.25-2.368l5.594-2.5,3.188,4.829a.526.526,0,0,0,.439.236h.033a.524.524,0,0,0,.419-.263l.264.388a.37.37,0,0,1,.037.244l-.856,2.806H810.02Zm24.749,3.367H824.4l-.86-2.806a.374.374,0,0,1,.037-.245l.178-.263.092-.135a.525.525,0,0,0,.428.275h.033a.527.527,0,0,0,.439-.237l3.184-4.83,5.6,2.5a2.828,2.828,0,0,1,1.248,2.37Zm-4.387-4.226a4.041,4.041,0,0,1-.749-.2,6.352,6.352,0,0,1-.828-.384.263.263,0,0,0-.251,0,6.318,6.318,0,0,1-.83.384,4.005,4.005,0,0,1-.746.2.263.263,0,0,0-.221.257,4.55,4.55,0,0,0,.761,2.747,3.479,3.479,0,0,0,1.026.941.263.263,0,0,0,.274,0,3.51,3.51,0,0,0,1.025-.94,4.523,4.523,0,0,0,.762-2.748A.263.263,0,0,0,830.381,507.927Zm-.967,2.7a2.961,2.961,0,0,1-.736.711,2.921,2.921,0,0,1-.735-.71,3.913,3.913,0,0,1-.66-2.221,4.683,4.683,0,0,0,.621-.183,6.612,6.612,0,0,0,.775-.349,6.494,6.494,0,0,0,.773.349,4.693,4.693,0,0,0,.623.183A3.888,3.888,0,0,1,829.415,510.623Zm-.469-1.479h.858l-.695.5.265.818-.695-.505-.7.505.266-.818-.7-.5h.86l.266-.817Zm-6.428-17.586a.264.264,0,0,0,.238,0,3.2,3.2,0,0,0,1.805-3.109.264.264,0,0,0-.228-.258,4.736,4.736,0,0,1-.756-.167,7.1,7.1,0,0,1-.832-.32.265.265,0,0,0-.216,0,7.125,7.125,0,0,1-.834.32,4.754,4.754,0,0,1-.753.167.263.263,0,0,0-.228.258,3.387,3.387,0,0,0,.776,2.325A3.335,3.335,0,0,0,822.517,491.559Zm.119-.533a2.84,2.84,0,0,1-.636-.476l.636-.462.635.462A2.864,2.864,0,0,1,822.636,491.026Zm-.788-2.5a1.2,1.2,0,0,1,1.575,0,5.475,5.475,0,0,0,.608.149,2.769,2.769,0,0,1-.643,1.753c-.025.029-.054.056-.081.084l-.24-.739.695-.5H822.9l-.266-.817-.266.817h-.86l.7.5-.241.74c-.027-.028-.055-.055-.081-.084a2.748,2.748,0,0,1-.644-1.754A5.486,5.486,0,0,0,821.848,488.528Z" transform="translate(0 0)" fill="#fff"/></g></g></svg>