<svg xmlns="http://www.w3.org/2000/svg" xmlns:xlink="http://www.w3.org/1999/xlink" width="54.55" height="54.55" viewBox="0 0 54.55 54.55"><defs><linearGradient id="a" x1="0.5" x2="0.5" y2="1" gradientUnits="objectBoundingBox"><stop offset="0" stop-color="#d0e931"/><stop offset="1" stop-color="#acc10a"/></linearGradient><filter id="b" x="0" y="0" width="54.55" height="54.55" filterUnits="userSpaceOnUse"><feOffset dy="2" input="SourceAlpha"/><feGaussianBlur stdDeviation="3" result="c"/><feFlood flood-color="#dbe3ff"/><feComposite operator="in" in2="c"/><feComposite in="SourceGraphic"/></filter></defs><g transform="translate(-551 -466)"><g transform="matrix(1, 0, 0, 1, 551, 466)" filter="url(#b)"><path d="M9.4,0H27.151a9.4,9.4,0,0,1,9.4,9.4V27.151a9.4,9.4,0,0,1-9.4,9.4H9.4a9.4,9.4,0,0,1-9.4-9.4V9.4A9.4,9.4,0,0,1,9.4,0Z" transform="translate(9 7)" fill="url(#a)"/></g><path d="M6939-7104a14.9,14.9,0,0,1-10.606-4.394A14.9,14.9,0,0,1,6924-7119a14.9,14.9,0,0,1,4.394-10.606A14.9,14.9,0,0,1,6939-7134a14.9,14.9,0,0,1,10.606,4.394A14.9,14.9,0,0,1,6954-7119a14.9,14.9,0,0,1-4.394,10.606A14.9,14.9,0,0,1,6939-7104Zm0-25a10.012,10.012,0,0,0-10,10,10.01,10.01,0,0,0,10,10,10.012,10.012,0,0,0,10-10A10.013,10.013,0,0,0,6939-7129Z" transform="translate(-6361 7610)" fill="#fff"/><g transform="translate(0 1)"><path d="M4,8A4,4,0,1,1,8,4,4,4,0,0,1,4,8ZM4,2A2,2,0,1,0,6,4,2,2,0,0,0,4,2Z" transform="translate(574 483)" fill="#fff"/><path d="M4,8A4,4,0,1,1,8,4,4,4,0,0,1,4,8ZM4,2A2,2,0,1,0,6,4,2,2,0,0,0,4,2Z" transform="translate(574 489)" fill="#fff"/></g></g></svg>