<svg xmlns="http://www.w3.org/2000/svg" xmlns:xlink="http://www.w3.org/1999/xlink" width="54.55" height="54.55" viewBox="0 0 54.55 54.55"><defs><linearGradient id="a" x1="0.5" x2="0.5" y2="1" gradientUnits="objectBoundingBox"><stop offset="0" stop-color="#ff006c"/><stop offset="1" stop-color="#c90055"/></linearGradient><filter id="b" x="0" y="0" width="54.55" height="54.55" filterUnits="userSpaceOnUse"><feOffset dy="2" input="SourceAlpha"/><feGaussianBlur stdDeviation="3" result="c"/><feFlood flood-color="#dbe3ff"/><feComposite operator="in" in2="c"/><feComposite in="SourceGraphic"/></filter></defs><g transform="translate(-99 -2426)"><g transform="matrix(1, 0, 0, 1, 99, 2426)" filter="url(#b)"><path d="M9.4,0H27.151a9.4,9.4,0,0,1,9.4,9.4V27.151a9.4,9.4,0,0,1-9.4,9.4H9.4a9.4,9.4,0,0,1-9.4-9.4V9.4A9.4,9.4,0,0,1,9.4,0Z" transform="translate(9 7)" fill="url(#a)"/></g><g transform="translate(113.542 2437.541)"><g transform="translate(0.01)"><path d="M.3,26.843H.4L.073,26.78l.063.031a.524.524,0,0,0,.162.031M13.162,0H12.9a.131.131,0,0,1-.031.1q-1.5,1.367-2.1,1.922a.361.361,0,0,1-.162.031.613.613,0,0,1-.194-.031Q9.082,1.5,8.2,1.11a.393.393,0,0,0-.262-.031.849.849,0,0,0-.23.131q-.293.356-.848.943L6.012,3.1a1.571,1.571,0,0,1-.23.194.665.665,0,0,1-.293,0L4.195,3.143q-.88-.1-1.336-.131L4.912,7.93a11.79,11.79,0,0,1,8.124-2.944,11.989,11.989,0,0,1,8.176,2.933L23.26,3.027q-2.184.23-2.671.262a.524.524,0,0,1-.262,0,.409.409,0,0,1-.225-.147q-.293-.293-.88-.911T18.373,1.3a.639.639,0,0,0-.23-.162.958.958,0,0,0-.23.031q-1.3.524-2.247.848a.3.3,0,0,1-.194,0,.267.267,0,0,1-.194-.063q-.23-.194-.88-.812Q13.874.691,13.162.005m.461,3.19a.649.649,0,0,1-.162.424.649.649,0,0,1-.424.162.555.555,0,0,1-.555-.555.44.44,0,0,1,.131-.393A.676.676,0,0,1,13,2.619a.571.571,0,0,1,.424.162.492.492,0,0,1,.2.414m4.19.131a.649.649,0,0,1,.424.162.571.571,0,0,1,.162.424.524.524,0,0,1-.162.393.571.571,0,0,1-.424.162.613.613,0,0,1-.393-.162.676.676,0,0,1-.194-.393.492.492,0,0,1,.194-.393.492.492,0,0,1,.393-.2M7.725,3.876a.555.555,0,0,1,.555-.555.649.649,0,0,1,.424.162.571.571,0,0,1,.162.424.492.492,0,0,1-.194.393.55.55,0,0,1-.78,0,.487.487,0,0,1-.162-.424M25.606,22.967l.063-.063.524-1.011-.456-.194-.618-.225a4.237,4.237,0,0,1-.618-.194,2.556,2.556,0,0,1-1.074-.943A2.493,2.493,0,0,1,23,18.971q0-.356.031-.88t.063-.88a22,22,0,0,0-.031-3.195A13.167,13.167,0,0,0,22.348,11a6.149,6.149,0,0,0-1.3-2.1,9.213,9.213,0,0,0-1.922-1.5A11.942,11.942,0,0,0,11,5.9,10.7,10.7,0,0,0,5.766,8.176,6.233,6.233,0,0,0,4.142,10.13a8.543,8.543,0,0,0-.88,2.409,18.552,18.552,0,0,0-.194,5.636,3.1,3.1,0,0,1-.618,2.477A3.593,3.593,0,0,1,.3,21.7a1.467,1.467,0,0,0-.293.063V22a4.766,4.766,0,0,0,1.954,2.378,5.939,5.939,0,0,0,2.964.812H8.249a.587.587,0,0,1,.356.1,17.127,17.127,0,0,0,1.728.943l.393.131a6.257,6.257,0,0,0,4.625,0,10.852,10.852,0,0,0,1.048-.456,2.515,2.515,0,0,0,.293-.131l.262-.162a1.891,1.891,0,0,1,.686-.356,2.289,2.289,0,0,1,.78-.063h2.8a5.206,5.206,0,0,0,4.4-2.247M5.572,14.922a4.248,4.248,0,0,1,.943-1.074,5,5,0,0,1,2.346-1.011,4.6,4.6,0,0,1,.618-.031,3.792,3.792,0,0,0,.618-.031,6.091,6.091,0,0,0,2.619-.718,5.1,5.1,0,0,0,1.954-1.891.251.251,0,0,0,.1-.031,4.468,4.468,0,0,0,.487,1.074,3.216,3.216,0,0,0,.78.911,2.687,2.687,0,0,0,.78.424,4.6,4.6,0,0,0,.88.23,4.7,4.7,0,0,1,.456.131,3.939,3.939,0,0,1,1.692,1.105,3.08,3.08,0,0,1,.943,1.76,6.479,6.479,0,0,1-.1,2.315,9.81,9.81,0,0,1-1.571,3.776,9.951,9.951,0,0,1-3.022,2.755,5.814,5.814,0,0,1-3.483.848,6.516,6.516,0,0,1-3.321-1.3,9.622,9.622,0,0,1-3-3.41A10.1,10.1,0,0,1,5.242,16.32a2.462,2.462,0,0,1,.356-1.4m12.047.1a1.273,1.273,0,0,0-.979-.424,1.22,1.22,0,0,0-.979.356,1.273,1.273,0,0,0-.424.979,1.336,1.336,0,0,0,1.357,1.351,1.184,1.184,0,0,0,.943-.356,1.241,1.241,0,0,0,.424-.943,1.226,1.226,0,0,0-.356-.979m-8.144-.414a1.178,1.178,0,0,0-.979.393,1.241,1.241,0,0,0-.424.943,1.336,1.336,0,0,0,1.351,1.357,1.283,1.283,0,0,0,1.367-1.3,1.268,1.268,0,0,0-.319-1A1.4,1.4,0,0,0,9.485,14.592Z" transform="translate(-0.01)" fill="#fff"/></g></g></g></svg>