<svg xmlns="http://www.w3.org/2000/svg" xmlns:xlink="http://www.w3.org/1999/xlink" width="54.55" height="54.55" viewBox="0 0 54.55 54.55"><defs><linearGradient id="a" x1="0.5" x2="0.54" y2="0.768" gradientUnits="objectBoundingBox"><stop offset="0" stop-color="#926fff"/><stop offset="1" stop-color="#5d37fa"/></linearGradient><filter id="b" x="0" y="0" width="54.55" height="54.55" filterUnits="userSpaceOnUse"><feOffset dy="2" input="SourceAlpha"/><feGaussianBlur stdDeviation="3" result="c"/><feFlood flood-color="#dbe3ff"/><feComposite operator="in" in2="c"/><feComposite in="SourceGraphic"/></filter></defs><g transform="translate(-98 -999)"><g transform="translate(107 1006)"><g transform="matrix(1, 0, 0, 1, -9, -7)" filter="url(#b)"><path d="M9.4,0H27.151a9.4,9.4,0,0,1,9.4,9.4V27.151a9.4,9.4,0,0,1-9.4,9.4H9.4a9.4,9.4,0,0,1-9.4-9.4V9.4A9.4,9.4,0,0,1,9.4,0Z" transform="translate(9 7)" fill="url(#a)"/></g></g><g transform="translate(113 1010)"><g transform="translate(0 0)"><path d="M19.612,9.656A2,2,0,0,0,17.52,7.569H14.6A4.792,4.792,0,0,0,15.662,5.21a4.377,4.377,0,0,0-.4-2.492A4.568,4.568,0,0,0,12.595.205,5.786,5.786,0,0,0,8.335.653a5,5,0,0,0-2.092,2.13,4.574,4.574,0,0,0-.335,2.4A4.387,4.387,0,0,0,6.972,7.542H2.026a1.97,1.97,0,0,0-1.262.426A1.944,1.944,0,0,0-.019,9.592v3.1a5.2,5.2,0,0,0,.091.7.9.9,0,0,0,.362.532.82.82,0,0,0,.628,0l.74-.293q.564-.245.74-.314a3.77,3.77,0,0,1,1.6-.272,3.983,3.983,0,0,1,1.549.357,4.259,4.259,0,0,1,1.283.942,4.116,4.116,0,0,1,.852,1.416,3.759,3.759,0,0,1-.176,2.886,4.052,4.052,0,0,1-2.183,1.975,3.945,3.945,0,0,1-3.035-.091A4.462,4.462,0,0,1,2,20.347l-.426-.224a1.107,1.107,0,0,0-1.065,0,1.033,1.033,0,0,0-.532.942q-.043,1.6,0,3.5a1.6,1.6,0,0,0,.426,1,2.194,2.194,0,0,0,.942.65.532.532,0,0,1,.16.043.5.5,0,0,1,.16.069l.383.133,13.513.17a14.7,14.7,0,0,0,2.385-.272,2.449,2.449,0,0,0,1.123-.628,1.874,1.874,0,0,0,.532-1.347V20.592a2.459,2.459,0,0,0,.245.16,4.882,4.882,0,0,0,3.557.942,4.51,4.51,0,0,0,1.709-.559A4.93,4.93,0,0,0,26.555,19.9a6.213,6.213,0,0,0,.458-.724q.112-.245.383-.74a3.8,3.8,0,0,0,0-2.694,3.461,3.461,0,0,1-.181-.4q-.112-.245-.2-.4a4.85,4.85,0,0,0-4.792-2.47,4.994,4.994,0,0,0-2.359.964.868.868,0,0,0-.16.112h-.069Z" transform="translate(0.04 -0.018)" fill="#fff"/></g></g></g></svg>