<svg xmlns="http://www.w3.org/2000/svg" xmlns:xlink="http://www.w3.org/1999/xlink" width="54.55" height="54.55" viewBox="0 0 54.55 54.55"><defs><linearGradient id="a" x1="0.5" x2="0.5" y2="1" gradientUnits="objectBoundingBox"><stop offset="0" stop-color="#ff006c"/><stop offset="1" stop-color="#c90055"/></linearGradient><filter id="b" x="0" y="0" width="54.55" height="54.55" filterUnits="userSpaceOnUse"><feOffset dy="2" input="SourceAlpha"/><feGaussianBlur stdDeviation="3" result="c"/><feFlood flood-color="#dbe3ff"/><feComposite operator="in" in2="c"/><feComposite in="SourceGraphic"/></filter></defs><g transform="translate(-775 -2097)"><g transform="matrix(1, 0, 0, 1, 775, 2097)" filter="url(#b)"><path d="M9.4,0H27.151a9.4,9.4,0,0,1,9.4,9.4V27.151a9.4,9.4,0,0,1-9.4,9.4H9.4a9.4,9.4,0,0,1-9.4-9.4V9.4A9.4,9.4,0,0,1,9.4,0Z" transform="translate(9 7)" fill="url(#a)"/></g><g transform="translate(786 2090.428)"><g transform="translate(0 20.572)"><path d="M32.416,28.855a2.312,2.312,0,0,1-2.309,2.314.308.308,0,0,1-.065,0L27.785,39.79H4.631L2.212,31.826a2.312,2.312,0,1,1,2.406-2.309,2.42,2.42,0,0,1-.125.759l5.592,3.272,4.728-8.7a2.309,2.309,0,1,1,2.457,0L22,33.548l6.091-3.563a2.311,2.311,0,1,1,4.327-1.129ZM27.785,40.716H4.631v1.852H27.785V40.716Z" transform="translate(0 -20.572)" fill="#fff"/></g></g></g></svg>