<svg xmlns="http://www.w3.org/2000/svg" xmlns:xlink="http://www.w3.org/1999/xlink" width="54.55" height="54.55" viewBox="0 0 54.55 54.55"><defs><linearGradient id="a" x1="0.5" x2="0.5" y2="1" gradientUnits="objectBoundingBox"><stop offset="0" stop-color="#ff5539"/><stop offset="1" stop-color="#d02e14"/></linearGradient><filter id="b" x="0" y="0" width="54.55" height="54.55" filterUnits="userSpaceOnUse"><feOffset dy="2" input="SourceAlpha"/><feGaussianBlur stdDeviation="3" result="c"/><feFlood flood-color="#dbe3ff"/><feComposite operator="in" in2="c"/><feComposite in="SourceGraphic"/></filter></defs><g transform="translate(-144 -295)"><g transform="matrix(1, 0, 0, 1, 144, 295)" filter="url(#b)"><path d="M9.4,0H27.151a9.4,9.4,0,0,1,9.4,9.4V27.151a9.4,9.4,0,0,1-9.4,9.4H9.4a9.4,9.4,0,0,1-9.4-9.4V9.4A9.4,9.4,0,0,1,9.4,0Z" transform="translate(9 7)" fill="url(#a)"/></g><g transform="translate(156.996 310.005)"><g transform="translate(0.004 -0.005)"><g transform="translate(0 0)"><path d="M23.5,7.365a4.527,4.527,0,0,0-.982.281.264.264,0,0,0-.138.168q-.109.143.336.42t-.42,1.036a6.129,6.129,0,0,1-2.937,1.12q2.24-2.84-1.733-5.4t-4.8-2.605a2.517,2.517,0,0,0-1.46.336,2.312,2.312,0,0,0,.055-1.431l-.025-.029h0a2.58,2.58,0,0,0-.5-.617H10.86L10.831.61A2.87,2.87,0,0,0,8.951,0,2.983,2.983,0,0,0,7.042.614V.643H7.013a2.568,2.568,0,0,0-.9,1.821v.029a5.081,5.081,0,0,0,.222,2.018h0a1.41,1.41,0,0,0,1.12,1.12A1.984,1.984,0,0,0,8.972,5.38V5.351a.487.487,0,0,0,.168-.084Q7.592,7.818,6.979,8.992a3.6,3.6,0,0,1-.168-.923,11.773,11.773,0,0,0-.73-2.324Q3.292,7.327,2.687,9a13.061,13.061,0,0,1-.646,1.678.65.65,0,0,0-.029.2q0,.076,0,.138a1.037,1.037,0,0,1-.029.2,1.754,1.754,0,0,0,.222.868,5.139,5.139,0,0,1,1.8.029,2.924,2.924,0,0,1,1.85.7q-.029.055-.113.2l-.084.168a.541.541,0,0,1-.252.281.592.592,0,0,1-.365-.029,3.356,3.356,0,0,0-2.1-.055A3.558,3.558,0,0,0,.946,14.6a3.776,3.776,0,0,0-.1,4.867A3.663,3.663,0,0,0,3.233,20.9a3.57,3.57,0,0,0,2.777-.587,3.663,3.663,0,0,0,1.628-2.383,3.734,3.734,0,0,0-.029-1.875A3.684,3.684,0,0,0,6.627,14.4a.81.81,0,0,1-.2-.336.453.453,0,0,1,.113-.336,2.362,2.362,0,0,0,.336-.449q.776.235,1.653,1.85a12.75,12.75,0,0,1,1.011,2.186.839.839,0,0,0,.814.646,8.39,8.39,0,0,0,.868.084h8.106a.986.986,0,0,1,.281.029.512.512,0,0,1,.168.281,3.667,3.667,0,0,0,1.544,1.989,3.776,3.776,0,0,0,1.6.587,3.717,3.717,0,0,0,1.628-.138,3.822,3.822,0,0,0,1.46-.839,3.885,3.885,0,0,0,.982-1.4,4.552,4.552,0,0,0,.281-1.859,3.969,3.969,0,0,0-.587-1.624A3.717,3.717,0,0,0,25.5,13.842a4.246,4.246,0,0,0-1.712-.587,3.7,3.7,0,0,0-2.58.671,3.751,3.751,0,0,0-1.544,2.215,2.97,2.97,0,0,1-.084.39q-1.955-1.88,2.866-4.149l-.671.222q.839-.3,1.544-.587,1.4-.617,2.58-1.259a9.23,9.23,0,0,0,1.85-1.288.78.78,0,0,0,.31-.73.864.864,0,0,0-.449-.7,2.907,2.907,0,0,0-.7-.39A7.418,7.418,0,0,0,23.5,7.365m1.46,9.864a.814.814,0,0,0-.2-.449.533.533,0,0,0-.42-.2q-.587-.029-1.4-.029-.927,0-1.4-.029h-.42a1.678,1.678,0,0,1,.73-1.259,2.375,2.375,0,0,1,3.2,0,2.412,2.412,0,0,1,.814,1.678,2.358,2.358,0,0,1-1.934,2.517,2.517,2.517,0,0,1-1.653-.252,1.833,1.833,0,0,1-1.032-1.171h2.681a1.884,1.884,0,0,0,.5-.055.709.709,0,0,0,.42-.281.726.726,0,0,0,.113-.478M10.466,8.065a5.707,5.707,0,0,1,4.04.982,12.091,12.091,0,0,0-1.347.982L11.422,10q-2.219.084-1.46-1.15.306-.466.5-.785M5.557,15.407a1.98,1.98,0,0,1,.738,1.4,2.358,2.358,0,0,1-.42,1.594,2.542,2.542,0,0,1-1.4,1.036,2.433,2.433,0,0,1-1.712-.168,2.542,2.542,0,0,1-1.187-1.4,2.156,2.156,0,0,1,.1-1.762,2.446,2.446,0,0,1,1.259-1.259,2.173,2.173,0,0,1,1.678-.029,3.071,3.071,0,0,0-.2.306q-.281.5-.9,1.456l-.084.168a.273.273,0,0,0-.055.138,1.082,1.082,0,0,0,.113.306,1.1,1.1,0,0,0,.113.252.42.42,0,0,0,.31.138.566.566,0,0,0,.31-.168,2.614,2.614,0,0,0,.394-.587q.147-.164.931-1.422Z" transform="translate(-0.004 0.005)" fill="#fff"/></g></g></g></g></svg>