<svg xmlns="http://www.w3.org/2000/svg" width="32" height="32" viewBox="0 0 32 32"><g transform="translate(-13872 -8257)"><rect width="32" height="32" rx="16" transform="translate(13872 8257)" fill="rgba(229,53,53,0.1)"/><path d="M9.011.563a9.011,9.011,0,1,0,9.011,9.011A9.01,9.01,0,0,0,9.011.563ZM3.437,6.409l1.268-.182.563-1.148a.281.281,0,0,1,.505,0l.563,1.148,1.268.182a.283.283,0,0,1,.156.48l-.923.894.218,1.268a.272.272,0,0,1-.4.287L5.523,8.749l-1.137.592a.272.272,0,0,1-.4-.287L4.2,7.786l-.923-.894a.285.285,0,0,1,.156-.483Zm5.574,9.56c-2.2,0-4.887-1.392-5.225-3.39a.583.583,0,0,1,.752-.65,15.706,15.706,0,0,0,4.473.552,15.706,15.706,0,0,0,4.473-.552.582.582,0,0,1,.752.65C13.9,14.578,11.213,15.969,9.011,15.969Zm5.73-9.081-.923.894.218,1.268a.272.272,0,0,1-.4.287L12.5,8.749l-1.137.592a.272.272,0,0,1-.4-.287l.218-1.268-.923-.894a.284.284,0,0,1,.156-.48l1.268-.182.563-1.148a.281.281,0,0,1,.505,0l.563,1.148,1.268.182a.279.279,0,0,1,.16.476Z" transform="translate(13879 8263.438)" fill="#e53535"/></g></svg>