<svg xmlns="http://www.w3.org/2000/svg" xmlns:xlink="http://www.w3.org/1999/xlink" width="54.55" height="54.55" viewBox="0 0 54.55 54.55"><defs><linearGradient id="a" x1="0.5" x2="0.5" y2="1" gradientUnits="objectBoundingBox"><stop offset="0" stop-color="#d0e931"/><stop offset="1" stop-color="#acc10a"/></linearGradient><filter id="b" x="0" y="0" width="54.55" height="54.55" filterUnits="userSpaceOnUse"><feOffset dy="2" input="SourceAlpha"/><feGaussianBlur stdDeviation="3" result="c"/><feFlood flood-color="#dbe3ff"/><feComposite operator="in" in2="c"/><feComposite in="SourceGraphic"/></filter></defs><g transform="translate(-98 -466)"><g transform="translate(107 473)"><g transform="matrix(1, 0, 0, 1, -9, -7)" filter="url(#b)"><path d="M9.4,0H27.151a9.4,9.4,0,0,1,9.4,9.4V27.151a9.4,9.4,0,0,1-9.4,9.4H9.4a9.4,9.4,0,0,1-9.4-9.4V9.4A9.4,9.4,0,0,1,9.4,0Z" transform="translate(9 7)" fill="url(#a)"/></g></g><g transform="translate(112.638 478.636)"><g transform="translate(0.001 0.002)"><path d="M10.269,2.016A17.128,17.128,0,0,0,6.888,4.2,16.571,16.571,0,0,0,4.127,6.946a18.981,18.981,0,0,0-2.583,4.328,18.436,18.436,0,0,0-1.091,3.4,9.505,9.505,0,0,0-.2,1.148q-.08.448-.161,1.211a10.085,10.085,0,0,0,.321,4.207,5.516,5.516,0,0,0,.97,1.9A5.1,5.1,0,0,0,3,24.349a5.843,5.843,0,0,0,1.9.574,13.844,13.844,0,0,0,2.83.121,25.22,25.22,0,0,0,2.83-.442,16.364,16.364,0,0,0,3.306-1.068,20.227,20.227,0,0,0,3.834-2.3,18.7,18.7,0,0,0,5.654-7.158,19.148,19.148,0,0,0,1.291-3.92,22.126,22.126,0,0,0,.4-3.237,10.332,10.332,0,0,0-.2-2.1,5.82,5.82,0,0,0-.574-1.86A4.511,4.511,0,0,0,21.335.477,5.063,5.063,0,0,0,20.245.236q-.367-.08-1.05-.161a10.389,10.389,0,0,0-2.061-.04q-.849.121-2.061.321a18.586,18.586,0,0,0-2.445.689,23.591,23.591,0,0,0-2.342.97m-.281,2.508a17.053,17.053,0,0,1,2.967-1.418A16.3,16.3,0,0,1,16,2.3q1.091-.161,1.94-.2a7.226,7.226,0,0,1,1.9.161,3.57,3.57,0,0,1,.522.161l.608.161q-.608.649-1.613,1.659-1.148,1.148-1.573,1.619L19.2,7.273l3.232-3.117.08.04q.04.2.161.649a2.877,2.877,0,0,1,.121.689,9.557,9.557,0,0,1,0,3.277,14.923,14.923,0,0,1-.574,2.348,25.077,25.077,0,0,1-1.05,2.669,15.8,15.8,0,0,1-3.375,4.684,15.5,15.5,0,0,1-4.8,3.117,14.172,14.172,0,0,1-1.412.528l-1.492.442a10.1,10.1,0,0,1-3.874.362,9.464,9.464,0,0,1-1.045-.121,5.981,5.981,0,0,1-1.05-.321l3.151-3.237L5.815,17.863,2.635,20.98l-.121-.04a5.292,5.292,0,0,0-.161-.689q-.08-.4-.121-.689a8.868,8.868,0,0,1,0-3.157,11.479,11.479,0,0,1,.4-1.86,12.8,12.8,0,0,1,.6-1.917,13.965,13.965,0,0,1,2.02-3.719A16.071,16.071,0,0,1,9.982,4.5m2.543,3.84q-.161.161-.121.281a.333.333,0,0,0,.121.2,3.358,3.358,0,0,1,.442.442,6.153,6.153,0,0,0,.482.448.39.39,0,0,1,.08.2.276.276,0,0,1-.08.2,4.626,4.626,0,0,0-.729.729.333.333,0,0,1-.2.121.35.35,0,0,1-.241-.121q-.161-.161-.442-.488l-.442-.442a.333.333,0,0,0-.2-.121.333.333,0,0,0-.2.121q-.574.528-1.148,1.091a.276.276,0,0,0-.08.2.39.39,0,0,0,.08.2,2.256,2.256,0,0,1,.482.442l.482.488a.166.166,0,0,1,.08.2.39.39,0,0,1-.08.2q-.4.362-.769.729a.235.235,0,0,1-.2.121q-.08,0-.161-.121L9.2,12.979l-.482-.488q-.08-.121-.161-.121a.235.235,0,0,0-.2.121q-.442.488-1.091,1.091a.23.23,0,0,0,0,.4l.482.488.442.442a.23.23,0,0,1,0,.4,3.352,3.352,0,0,1-.442.448,5.252,5.252,0,0,0-.442.488q-.161.121-.161.2a.327.327,0,0,0,.161.241q.574.528,1.05,1.05a.235.235,0,0,0,.2.121q.08,0,.161-.121a11.588,11.588,0,0,0,.97-.93.235.235,0,0,1,.2-.121.333.333,0,0,1,.2.121l.442.448a5.258,5.258,0,0,1,.442.488.35.35,0,0,0,.241.121.333.333,0,0,0,.2-.121Q12.1,17.06,12.5,16.7a.436.436,0,0,0,.08-.241.235.235,0,0,0-.121-.2,6.164,6.164,0,0,0-.442-.488,5.246,5.246,0,0,0-.482-.448.4.4,0,0,1-.08-.2.235.235,0,0,1,.08-.161,10.206,10.206,0,0,0,.769-.769.235.235,0,0,1,.2-.121q.08,0,.161.121l.482.488a6.157,6.157,0,0,0,.482.442.459.459,0,0,0,.161.161.235.235,0,0,0,.2-.121q.574-.574,1.148-1.091a.293.293,0,0,0,0-.4,4.058,4.058,0,0,1-.482-.488,5.241,5.241,0,0,0-.482-.442.333.333,0,0,1-.121-.2.235.235,0,0,1,.121-.2q.4-.4.729-.769.121-.121.2-.08a.235.235,0,0,1,.2.121q.281.281.93.89a.132.132,0,0,0,.121.08.282.282,0,0,0,.121.08l.08-.04a.034.034,0,0,1,.04-.04l1.148-1.148a.4.4,0,0,0,.08-.2.333.333,0,0,0-.121-.2q-.121-.121-.482-.442l-.482-.488a.235.235,0,0,1-.121-.2.333.333,0,0,1,.121-.2q.161-.161.482-.448a6.142,6.142,0,0,0,.442-.488q.161-.08.161-.2a.327.327,0,0,0-.161-.241q-.574-.528-1.05-1.05a.235.235,0,0,0-.2-.121.631.631,0,0,0-.161.121,3.955,3.955,0,0,0-.482.488q-.321.281-.482.442a.23.23,0,0,1-.4,0,3.346,3.346,0,0,0-.442-.442,4.058,4.058,0,0,1-.482-.488.293.293,0,0,0-.4,0Z" transform="translate(-0.001 -0.002)" fill="#fff"/></g></g></g></svg>