<svg xmlns="http://www.w3.org/2000/svg" xmlns:xlink="http://www.w3.org/1999/xlink" width="54.55" height="54.55" viewBox="0 0 54.55 54.55"><defs><linearGradient id="a" x1="0.5" x2="0.5" y2="1" gradientUnits="objectBoundingBox"><stop offset="0" stop-color="#eaac22"/><stop offset="1" stop-color="#c78c08"/></linearGradient><filter id="b" x="0" y="0" width="54.55" height="54.55" filterUnits="userSpaceOnUse"><feOffset dy="2" input="SourceAlpha"/><feGaussianBlur stdDeviation="3" result="c"/><feFlood flood-color="#dbe3ff"/><feComposite operator="in" in2="c"/><feComposite in="SourceGraphic"/></filter></defs><g transform="translate(-99 -1720)"><g transform="matrix(1, 0, 0, 1, 99, 1720)" filter="url(#b)"><path d="M9.4,0H27.151a9.4,9.4,0,0,1,9.4,9.4V27.151a9.4,9.4,0,0,1-9.4,9.4H9.4a9.4,9.4,0,0,1-9.4-9.4V9.4A9.4,9.4,0,0,1,9.4,0Z" transform="translate(9 7)" fill="url(#a)"/></g><g transform="translate(112 1735.002)"><g transform="translate(0 -0.001)"><path d="M9.407,13.133l3.454-.475L10.469,9.281,9.407,13.133m11.844,6H13.326a.3.3,0,0,0-.076.058.032.032,0,0,0-.036.036.734.734,0,0,1,.036.094.3.3,0,0,0,.076.058h7.7a.869.869,0,0,0,.228,0,.08.08,0,0,0,.058-.036.107.107,0,0,0,.036-.076.08.08,0,0,0-.036-.058l-.058-.058m-4.372,1.066a.3.3,0,0,0,.134.036h5.2a.291.291,0,0,0,.112-.036l.112-.094-.228-.152h-5.2a.206.206,0,0,0-.134.076.735.735,0,0,0-.134.094l.134.076M6.621,16.7a.26.26,0,0,0-.17-.094.233.233,0,0,0-.188.076L4.609,17.917q-.34.264-1.026.757-.587.448-.985.757a1.6,1.6,0,0,0-.627,1.254,1.639,1.639,0,0,0,.551,1.29l.058.058a1.819,1.819,0,0,0,2.182,0l6.6-4.927-.054-.085-1.653.211-.448.036q-.246.036-.417.076A2.119,2.119,0,0,1,6.612,16.7M9.232,6.62A.735.735,0,0,1,9.1,6.526a.3.3,0,0,0-.134-.036H3.834a.448.448,0,0,0-.152.036L3.548,6.6l.134.076a.233.233,0,0,0,.134.058H8.959a.233.233,0,0,0,.134-.058l.134-.058M7.884,5.612H.242a.358.358,0,0,0-.112,0l-.076.076L0,5.787l.076.076A.2.2,0,0,0,.152,5.9a.211.211,0,0,0,.094,0H7.893A.358.358,0,0,0,8,5.9a.108.108,0,0,0,.076-.188.121.121,0,0,0-.058-.076.264.264,0,0,0-.112,0m2.352-.8A.448.448,0,0,0,10.11,4.8H4.856a.108.108,0,0,0-.076.036L4.7,4.913l.058.076.094.058a.112.112,0,0,0,.076,0h5.183a.233.233,0,0,0,.134-.058.833.833,0,0,0,.152-.076l-.134-.076m.4-4.175L8.995.9a1.093,1.093,0,0,0-.721.4,1.053,1.053,0,0,0-.246.739,1.1,1.1,0,0,0,.34.739.981.981,0,0,0,.739.287,2.907,2.907,0,0,0,.448-.036l.417-.058q1.29-.188,1.725-.264,1.478-.228,2.522-.417a.82.82,0,0,1,.3,0,1.133,1.133,0,0,1,.287.134q1.272.873,3.852,2.562a1.209,1.209,0,0,0,.533.228,1.093,1.093,0,0,0,.569-.036,1.214,1.214,0,0,0,.511-.381,1.259,1.259,0,0,0,.211-.587,1.048,1.048,0,0,0-.542-.981L15.163.057a1.133,1.133,0,0,0-.721,0l-.323.058q-1.747.246-1.792.246L10.675.649M23.293,18.28H18.142a.211.211,0,0,0-.094,0,.3.3,0,0,0-.076.058.108.108,0,0,0-.036.076.2.2,0,0,0,.036.076.108.108,0,0,0,.076.036.264.264,0,0,0,.112,0h5.178a.233.233,0,0,0,.134-.058l.134-.076-.287-.152h0m-.627-8.883a.34.34,0,0,1-.246-.363q-.058-2.562-.112-4.614a2.02,2.02,0,0,0-.076-.493A2.54,2.54,0,0,0,20.968,2.4a3.49,3.49,0,0,0-2.087-.323l.246.188.533.34q.323.228.533.363A1.344,1.344,0,0,1,20.8,4.205a1.344,1.344,0,0,1-.726,1.169,1.4,1.4,0,0,1-1.595-.094q-.9-.609-1.344-.9l-1.344-.932a.9.9,0,0,0-.34-.134.641.641,0,0,0-.358.076,16.1,16.1,0,0,0-3.548,2.526,2.836,2.836,0,0,0-.968,1.729,2.71,2.71,0,0,0,.533,1.877q.4.627,1.044,1.536.381.493,1.1,1.5a1.97,1.97,0,0,0,.228.363l-2.943.4-1.075.112-1.008.134q-.381.058-.551.094a1.738,1.738,0,0,0-.511.17,1.451,1.451,0,0,0-.8.8,1.828,1.828,0,0,0-.094,1.2,1.572,1.572,0,0,0,.587.9,1.59,1.59,0,0,0,1.044.363q.475-.036,1.08-.112.112,0,1.062-.134l1.519-.211q.985-.152,1.5-.211t1.478-.188l1.5-.188a3.676,3.676,0,0,0,.417-.036,1,1,0,0,0,.4-.112,1.657,1.657,0,0,0,1.12-1.156,1.792,1.792,0,0,0-.358-1.613L15.293,9.581q-.112-.152-.094-.228a.4.4,0,0,1,.17-.211q.779-.475,1.765-.968.739-.363,1.823-.856.112-.036,1.2-.493.036.287.036.323.076,2.486.076,2.791a1.075,1.075,0,0,0,.645,1.008L26.7,13.814a1.16,1.16,0,0,0,.9.094.977.977,0,0,0,.627-.546,1.012,1.012,0,0,0,.058-.873,1.156,1.156,0,0,0-.609-.663L22.7,9.357m5.375-7.781a3.046,3.046,0,0,0-4.4,0,2.952,2.952,0,0,0-.9,2.105,3.083,3.083,0,0,0,5.281,2.24,2.934,2.934,0,0,0,.882-1.689V3.189a2.849,2.849,0,0,0-.856-1.613Z" transform="translate(0 0.001)" fill="#fff"/></g></g></g></svg>