<svg xmlns="http://www.w3.org/2000/svg" xmlns:xlink="http://www.w3.org/1999/xlink" width="54.55" height="54.55" viewBox="0 0 54.55 54.55"><defs><linearGradient id="a" x1="0.5" x2="0.5" y2="1" gradientUnits="objectBoundingBox"><stop offset="0" stop-color="#ff006c"/><stop offset="1" stop-color="#c90055"/></linearGradient><filter id="b" x="0" y="0" width="54.55" height="54.55" filterUnits="userSpaceOnUse"><feOffset dy="2" input="SourceAlpha"/><feGaussianBlur stdDeviation="3" result="c"/><feFlood flood-color="#dbe3ff"/><feComposite operator="in" in2="c"/><feComposite in="SourceGraphic"/></filter></defs><g transform="translate(-775.45 -2230)"><g transform="matrix(1, 0, 0, 1, 775.45, 2230)" filter="url(#b)"><path d="M9.4,0H27.151a9.4,9.4,0,0,1,9.4,9.4V27.151a9.4,9.4,0,0,1-9.4,9.4H9.4a9.4,9.4,0,0,1-9.4-9.4V9.4A9.4,9.4,0,0,1,9.4,0Z" transform="translate(9 7)" fill="url(#a)"/></g><g transform="translate(659.884 1937.988)"><g transform="translate(131.566 303.012)"><path d="M-1088.937,430.411c-6.912-.025-10.019,4.278-8.619,6.6a3.322,3.322,0,0,0,2.793,1.392v8.385a5.277,5.277,0,0,0,.827,2.376c1.635,2.577.3,2.523-1.367,1.4.15,1.348.694,2.072,1.373,2.283a3.951,3.951,0,0,0-.994.759,1.134,1.134,0,0,1-.74.364c-.248.028-.522,0-.825.057a.176.176,0,0,0-.14.206.176.176,0,0,0,.206.14c.238-.046.5-.018.8-.052a1.541,1.541,0,0,0,.948-.464,2.466,2.466,0,0,1,1.543-.872,2.8,2.8,0,0,1,1.822.778l1.105.866a.885.885,0,0,1-.822-.053c-.316-.167-.661-.49-1.159-.732a.588.588,0,0,0-.633.035.805.805,0,0,0-.258.521,1.545,1.545,0,0,0,.03.6.78.78,0,0,0,.29.48,2.237,2.237,0,0,0,1.628.474,5.506,5.506,0,0,1,1.076-.184.475.475,0,0,1,.238.11c.03.022.077.057.11.083-.069.032-.131.059-.2.093a1.439,1.439,0,0,0-.39.242.176.176,0,0,0-.041.182.177.177,0,0,0,.145.117c.138.017.149.018.192.047.027.019.127.111.206.184a1.2,1.2,0,0,1-.123.087,3.186,3.186,0,0,1-.575.271.176.176,0,0,0-.12.158.176.176,0,0,0,.1.17c.106.049.123.059.146.083.009.009.045.068.061.091a.28.28,0,0,1-.058.027,2.482,2.482,0,0,1-.381.083,4.522,4.522,0,0,1-.768.047.177.177,0,0,0-.17.108.176.176,0,0,0,.043.2l.025.024a2.993,2.993,0,0,1-1.8-.071,3,3,0,0,1-1.6-1.126,1.233,1.233,0,0,0-.989-.7,1.17,1.17,0,0,0-.343.046l-.028.008a.177.177,0,0,0-.158.037.176.176,0,0,0-.061.15.24.24,0,0,0,.132.165.178.178,0,0,0,.1,0,.852.852,0,0,0,.1-.024.829.829,0,0,1,.242-.035c.186.006.426.076.7.529a3.269,3.269,0,0,0,1.8,1.282,3.106,3.106,0,0,0,2.272-.028.176.176,0,0,0,.09-.217c.15-.008.313-.023.474-.047a2.77,2.77,0,0,0,.438-.1.654.654,0,0,0,.337-.2.176.176,0,0,0,.009-.208,2.8,2.8,0,0,0-.172-.25,3.563,3.563,0,0,0,.343-.181,1.459,1.459,0,0,0,.246-.178.365.365,0,0,0,.088-.113.222.222,0,0,0,.023-.1.222.222,0,0,0-.052-.134l-.014-.014c-.167-.151-.239-.225-.326-.29l.019-.011c.149-.074.32-.152.455-.214a.176.176,0,0,0,.1-.147.176.176,0,0,0-.078-.16c-.118-.077-.224-.17-.34-.255l-.046-.031h.609c.086.705.53,1.244,1.064,1.244s.978-.539,1.064-1.245h.549c.048.6.359,1.067.8,1.126.5.068,1.007-.423,1.19-1.127h.728a1.091,1.091,0,0,0,.779,1.075c.49.072.975-.4,1.145-1.077h.653a.961.961,0,0,0,.45,1c.474.206,1.118-.224,1.439-.962.005-.012.009-.024.014-.036l3.54,0-.79-.315-2.636-.036c.138-.6-.013-1.148-.4-1.318a.631.631,0,0,0-.28-.052,1.533,1.533,0,0,0-1.159,1.014,2.248,2.248,0,0,0-.112.328l-.658-.011c.04-.709-.29-1.308-.786-1.381a.691.691,0,0,0-.1-.008c-.5,0-.977.553-1.085,1.291,0,.024-.007.047-.01.071l-.663-.009c.044-.735-.291-1.35-.8-1.419a.723.723,0,0,0-.106-.006c-.52.008-1.014.59-1.132,1.36,0,.012,0,.024,0,.036l-.56-.008c-.077-.72-.526-1.272-1.068-1.272s-.978.537-1.065,1.242l-1.417-.019a1.643,1.643,0,0,0,.679-.224.177.177,0,0,0,.089-.141.176.176,0,0,0-.068-.152l-1.33-1.044a3.963,3.963,0,0,0-1.5-.8,3.51,3.51,0,0,0,1.168-1.014c2.373,2.159,4.759,1.974,6.334.055.934,1.908,2.834,1.457,2.921-.943-2.085,1.509-1.617-.434-.721-2.195.311-.61.252-7.1.252-10.653,1.411.223,2.089.42,2.563-.548a3.006,3.006,0,0,0,.258-1.412,5.221,5.221,0,0,1,.994,2.933v6.634c-.018-.042-.037-.084-.058-.126a.176.176,0,0,0-.152-.1.177.177,0,0,0-.159.087c-.3.512-.413.837-.575,1.107a2.975,2.975,0,0,1-.888.891,2.73,2.73,0,0,0-1.219,2,2.844,2.844,0,0,0,1.173,2.274.613.613,0,0,1,.146.666c-.06.293-.209.631-.309.946a.177.177,0,0,0,.116.221.177.177,0,0,0,.221-.116,9.5,9.5,0,0,0,.318-.981,1,1,0,0,0-.265-1.006,2.477,2.477,0,0,1-1.049-1.985,2.374,2.374,0,0,1,1.075-1.734,3.384,3.384,0,0,0,.981-.993c.136-.227.251-.481.4-.781.379,1.149-.542,1.607-.792,2.253a.728.728,0,0,0,.028.55.7.7,0,0,0,.414.4,1.353,1.353,0,0,0,1.134-.225,1.1,1.1,0,0,0,.6-.842,5.06,5.06,0,0,0-.176-1.075v-.979a2.19,2.19,0,0,1,.334.7.176.176,0,0,0,.2.129.177.177,0,0,0,.147-.185,1.694,1.694,0,0,1,.044-.7c0-.006.007-.008.01-.013a4.063,4.063,0,0,1,.242.565.176.176,0,0,0,.193.118.176.176,0,0,0,.151-.168.379.379,0,0,1,.08-.244.358.358,0,0,1,.074-.061,4.757,4.757,0,0,0,.6,1.187.177.177,0,0,0,.187.076.176.176,0,0,0,.136-.149,2.153,2.153,0,0,1,.151-.572c.3,1.989-.329,2.958-1.105,3.568a7.673,7.673,0,0,1-1.263.748c-.389.2-.732.372-.85.707a5.006,5.006,0,0,0-.083,2.546.176.176,0,0,0,.1.148.177.177,0,0,0,.18-.023.177.177,0,0,0,.065-.169,4.578,4.578,0,0,1,.066-2.384c.049-.139.3-.316.682-.513a7.848,7.848,0,0,0,1.316-.782c.9-.711,1.648-1.949,1.176-4.3a.176.176,0,0,0-.1-.127.176.176,0,0,0-.163.012,1.074,1.074,0,0,0-.428.66,3.63,3.63,0,0,1-.389-.915.176.176,0,0,0-.216-.124.8.8,0,0,0-.39.23,2.6,2.6,0,0,0-.247-.449.176.176,0,0,0-.149-.075.176.176,0,0,0-.145.083.73.73,0,0,1-.08.1.691.691,0,0,0-.124.187.828.828,0,0,0-.038.115c-.118-.187-.246-.348-.364-.509v-6.1c0-2.475,2.721-3.629,2.661-5.867a2.8,2.8,0,0,0-2.787-2.789c-.125-.01-.246-.015-.364-.014a2.479,2.479,0,0,0-2.642,2.5c-1.262-1.471-3.688-2.707-7.956-2.722Zm-.452.847c.21,0,.42,0,.633.009,2.361.088,5.065.513,6.984,2.274,2.039,1.87,1.248,4.866-1.763,3.059v5.991h-9.842l-.019-6.567c-2.545,2.921-4.965-.688-2.159-2.7a10.034,10.034,0,0,1,6.166-2.067Zm11.014.178h.058c2.392.033,2.921,2.979,1.008,4.535a2.553,2.553,0,0,0-.846,1.529,4.019,4.019,0,0,0-.918-1.655C-1081.493,433.461-1079.63,431.48-1078.375,431.436Zm.184.239v4.906a2.084,2.084,0,0,1,.668-1.239C-1076.049,434.111-1076.414,431.805-1078.191,431.675Zm-8.151,11.582c-.059,1.868,1.957,1.952,2.231,2.88.8,2.7-1.124,6.515-3.563,6.657-3.655.213-6.941-5.343-4.606-7.306,1.181-.993,2.817.725,5.937-2.231Zm.178,2.272c-.332-.006-.667.169-1.186.661a3.124,3.124,0,0,1,2.357-.233A3.343,3.343,0,0,0-1086.164,445.529Zm-4.308.044a3.455,3.455,0,0,0-1.233.329,3.083,3.083,0,0,1,2.466.576A1.256,1.256,0,0,0-1090.472,445.574Zm-2.078.743c.1.972.167.852.9,1.638-.015-.243.068-.5-.216-.7a8.214,8.214,0,0,1,1.519.087,1.174,1.174,0,0,0-.156.071c-.34.187-.547.5-.46.7s.433.213.773.027a.935.935,0,0,0,.464-.507,9.128,9.128,0,0,1,.7.7c.077-1.506-.814-1.613-2.429-1.422C-1091.944,446.968-1092.206,446.593-1092.551,446.317Zm7.972.216a2.129,2.129,0,0,1-.9.181c-.9-.171-2,.26-1.8,1.538a1.434,1.434,0,0,1,1.5-1.164,1.074,1.074,0,0,0-.351.124c-.34.187-.546.5-.46.7s.433.213.773.027.545-.5.458-.7a.235.235,0,0,0-.1-.112.688.688,0,0,1,.286.143c.111.1.09.382.036.594.225-.313.3-.767.792-.99l-.342-.09Zm5.758.705v1.094a.544.544,0,0,0,.381.241l-.025.017a1.064,1.064,0,0,1-.831.186.362.362,0,0,1-.2-.206.42.42,0,0,1-.024-.282C-1079.441,448.085-1079.06,447.742-1078.821,447.238Zm3.122.26a.176.176,0,0,0-.173.161,1.367,1.367,0,0,1-.428.9,2.953,2.953,0,0,1-.885.527,4.378,4.378,0,0,0-2.012,1.2.176.176,0,0,0,.039.246.176.176,0,0,0,.246-.039,4.294,4.294,0,0,1,1.866-1.079,3.243,3.243,0,0,0,.99-.6,1.755,1.755,0,0,0,.534-1.116.177.177,0,0,0-.043-.139.177.177,0,0,0-.133-.059Zm-12.286.961c.5.809.215.994-.611,1.31C-1087.3,449.824-1086.83,449.259-1087.984,448.458Zm1.31,2.036a5.6,5.6,0,0,1-2.913.076C-1089.137,451.85-1087.763,452.774-1086.674,450.494Zm-.6.508c-1.006.5-.775.684-1.678.063A4.055,4.055,0,0,0-1087.273,451Zm-5.232,3.108a.371.371,0,0,1,.165.049c.442.215.766.525,1.148.726a1.371,1.371,0,0,0,.49.154l-.967-.013h-.036a.27.27,0,1,0,.036.538h.685c-.064.015-.129.029-.194.038a1.819,1.819,0,0,1-1.381-.417.527.527,0,0,1-.145-.272,1.241,1.241,0,0,1-.024-.465.514.514,0,0,1,.132-.3.141.141,0,0,1,.09-.038Zm12.757.016a.42.42,0,0,1,.187.035c.294.128.385.579.225,1.038l-.36,0a.245.245,0,0,0-.054.364h.233c-.231.334-.564.5-.822.392-.317-.138-.4-.651-.184-1.145a1.024,1.024,0,0,1,.775-.679Zm-5.387.134a.427.427,0,0,1,.065,0c.311.042.518.414.5.861l-.372,0h0c-.2.047-.2.272-.033.441h.315c-.139.353-.414.585-.688.548-.344-.046-.56-.5-.482-1.006C-1085.761,454.625-1085.456,454.266-1085.135,454.261Zm-2.7.035c.34,0,.621.344.674.8l-.367,0c-.247.053-.334.376-.082.477h.419a.741.741,0,0,1-.644.628c-.378,0-.685-.424-.685-.948s.307-.948.685-.948Zm5.358.08a.367.367,0,0,1,.054,0c.271.04.445.387.4.783l-.227,0c-.127.07-.131.317-.085.4h.184a.514.514,0,0,1-.49.305c-.28-.041-.458-.407-.4-.817.056-.384.3-.672.562-.672Z" transform="translate(1097.885 -430.409)" fill="#fff"/></g></g></g></svg>