<svg xmlns="http://www.w3.org/2000/svg" xmlns:xlink="http://www.w3.org/1999/xlink" width="54.55" height="54.55" viewBox="0 0 54.55 54.55"><defs><linearGradient id="a" x1="0.5" x2="0.5" y2="1" gradientUnits="objectBoundingBox"><stop offset="0" stop-color="#ff24ee"/><stop offset="1" stop-color="#c700b8"/></linearGradient><filter id="b" x="0" y="0" width="54.55" height="54.55" filterUnits="userSpaceOnUse"><feOffset dy="2" input="SourceAlpha"/><feGaussianBlur stdDeviation="3" result="c"/><feFlood flood-color="#dbe3ff"/><feComposite operator="in" in2="c"/><feComposite in="SourceGraphic"/></filter></defs><g transform="translate(-775 -696)"><g transform="matrix(1, 0, 0, 1, 775, 696)" filter="url(#b)"><path d="M9.4,0H27.151a9.4,9.4,0,0,1,9.4,9.4V27.151a9.4,9.4,0,0,1-9.4,9.4H9.4a9.4,9.4,0,0,1-9.4-9.4V9.4A9.4,9.4,0,0,1,9.4,0Z" transform="translate(9 7)" fill="url(#a)"/></g><g transform="translate(785 704)"><path d="M17.551,18.811a.644.644,0,0,0-.411-.735,20.011,20.011,0,0,1-4.892-2.716.648.648,0,0,0-1.034.5c-.06,1.967.188,5.572,2.807,5.572A3.226,3.226,0,0,0,17.551,18.811Z" transform="translate(-1.104 -1.646)" fill="#fff"/><path d="M26.763,15.36a20.005,20.005,0,0,1-4.891,2.716.644.644,0,0,0-.411.735,3.226,3.226,0,0,0,3.53,2.622c2.618,0,2.866-3.6,2.807-5.572a.648.648,0,0,0-1.034-.5Z" transform="translate(-2.482 -1.646)" fill="#fff"/><path d="M22.389,25.831a4.793,4.793,0,0,1-6.156,0,.9.9,0,0,0-.562-.206H14.88v4.724l1.571-3.027-.012-.013a4.754,4.754,0,0,0,5.745,0l-.012.013,1.571,3.027V25.625h-.791a.9.9,0,0,0-.562.206Z" transform="translate(-1.598 -3.044)" fill="#fff"/><path d="M30.087,11.063a.865.865,0,0,0-1.123.826,3.709,3.709,0,0,1-.111.868,11.238,11.238,0,0,0-22.28,0,3.71,3.71,0,0,1-.111-.867.866.866,0,0,0-1.124-.826c-.1.03-2.338.774-2.338,4.5,0,2.143.77,4.8,2.489,5.918a2.92,2.92,0,0,0,1.605.49,3.026,3.026,0,0,0,.339-.039,16.973,16.973,0,0,0,3.955,7.871,8.63,8.63,0,0,0,6.324,2.618,8.629,8.629,0,0,0,6.324-2.618,16.975,16.975,0,0,0,3.955-7.871,3.036,3.036,0,0,0,.34.039,2.917,2.917,0,0,0,1.6-.49c1.72-1.114,2.49-3.775,2.49-5.918C32.426,11.837,30.183,11.093,30.087,11.063ZM6.431,20.033c-.969-.628-1.7-2.547-1.7-4.465a4.845,4.845,0,0,1,.31-1.855,6,6,0,0,0,1.489,2.3,36.064,36.064,0,0,0,.534,4.224,1.213,1.213,0,0,1-.633-.208Zm20.153.231c-.013.065-.026.13-.04.2-.592,2.865-1.691,6.077-3.736,8.13a6.865,6.865,0,0,1-5.095,2.105,6.866,6.866,0,0,1-5.1-2.106c-2.03-2.037-3.128-5.218-3.723-8.067-.022-.106-.044-.212-.064-.317-.025-.127-.05-.254-.074-.38-.007-.036-.013-.07-.019-.106a34.1,34.1,0,0,1-.545-5.469A9.513,9.513,0,0,1,8.4,12.278a6.45,6.45,0,0,1,5.309-2.9A5.424,5.424,0,0,1,17.3,10.644a.669.669,0,0,0,.832,0,5.424,5.424,0,0,1,3.587-1.261,6.449,6.449,0,0,1,5.308,2.894,9.525,9.525,0,0,1,.209,1.978,34.292,34.292,0,0,1-.65,6.01ZM29,20.033a1.215,1.215,0,0,1-.633.208,36.058,36.058,0,0,0,.534-4.224,6.009,6.009,0,0,0,1.489-2.3,4.827,4.827,0,0,1,.31,1.854C30.695,17.486,29.964,19.406,29,20.033Z" transform="translate(0)" fill="#fff"/></g></g></svg>