<svg xmlns="http://www.w3.org/2000/svg" xmlns:xlink="http://www.w3.org/1999/xlink" width="34" height="34" viewBox="0 0 34 34"><defs><clipPath id="a"><rect width="34" height="34" rx="6" transform="translate(661 111.461)" fill="#e3e9ff"/></clipPath></defs><g transform="translate(-661 -111.461)" clip-path="url(#a)"><g transform="translate(661.073 111.049)"><path d="M31.582,19.177h.69a1.952,1.952,0,0,0,1.242-.379,1.993,1.993,0,0,0,.759-1.1v-.862A2.007,2.007,0,0,0,33.2,15.555a4.022,4.022,0,0,0-1.621-.207A16.514,16.514,0,0,0,27.408,7a15.8,15.8,0,0,0-8.278-4.139q-.069-.517-.1-.793a3.815,3.815,0,0,0-.172-.793A1.787,1.787,0,0,0,17.579.138.738.738,0,0,0,17.751,0h-.759a.779.779,0,0,1-.345.138,1.78,1.78,0,0,0-1.242,1.1,2.877,2.877,0,0,0-.228,1.621A14.8,14.8,0,0,0,6.8,7a14.438,14.438,0,0,0-4.084,8.416,2.8,2.8,0,0,0-1.69.138,2.849,2.849,0,0,0-.655.483.11.11,0,0,1-.069.1,2.207,2.207,0,0,0,.069,2.311.393.393,0,0,1,.138.138,1.711,1.711,0,0,0,1.38.586h.759a16.162,16.162,0,0,0,4.139,8.347,16.19,16.19,0,0,0,8.381,4.139v.517a2.552,2.552,0,0,0,.31,1.38,2.442,2.442,0,0,0,.966.759.648.648,0,0,0,.207,0,1.656,1.656,0,0,0,1.1,0,1.9,1.9,0,0,0,1.035-1.035,3.449,3.449,0,0,0,.207-1.621,15.466,15.466,0,0,0,8.278-4.139,16.238,16.238,0,0,0,4.242-8.347m-16.335-7.14a5.243,5.243,0,0,1,3.828,0V6.795a8.9,8.9,0,0,1,3.07,1,10.133,10.133,0,0,1,2.587,1.931,9.175,9.175,0,0,1,1.931,2.587,8.009,8.009,0,0,1,1,3.035h-5.1a5.279,5.279,0,0,0,.138,1,5.091,5.091,0,0,1,.1.9,5.2,5.2,0,0,1-.1.931,5.279,5.279,0,0,1-.138,1h5.1a7.885,7.885,0,0,1-.828,2.725,10.43,10.43,0,0,1-1.794,2.587,10.837,10.837,0,0,1-2.656,2.1A9.7,9.7,0,0,1,19.041,27.8V22.522a5.422,5.422,0,0,1-1.9.345,5.912,5.912,0,0,1-1.931-.345V27.73a8.23,8.23,0,0,1-2.794-.828A11.685,11.685,0,0,1,9.832,25.04,10.016,10.016,0,0,1,7.8,22.453a9.7,9.7,0,0,1-1.221-3.277h5.243a5.76,5.76,0,0,1,.034-3.828H6.645a8.381,8.381,0,0,1,.945-2.932A13.389,13.389,0,0,1,9.453,9.83a12.368,12.368,0,0,1,2.621-2,9.519,9.519,0,0,1,3.1-1.035v5.243m1.9,2.863a2.256,2.256,0,0,0-1.656.69,2.332,2.332,0,0,0-.69,1.656,2.228,2.228,0,0,0,.69,1.69,2.3,2.3,0,0,0,1.69.69,2.256,2.256,0,0,0,1.656-.69,2.187,2.187,0,0,0,.69-1.656,2.373,2.373,0,0,0-.69-1.69A2.228,2.228,0,0,0,17.1,14.9Z" transform="translate(-0.006)"/></g></g></svg>