<svg xmlns="http://www.w3.org/2000/svg" xmlns:xlink="http://www.w3.org/1999/xlink" width="54.55" height="54.55" viewBox="0 0 54.55 54.55"><defs><linearGradient id="a" x1="0.5" x2="0.5" y2="1" gradientUnits="objectBoundingBox"><stop offset="0" stop-color="#33c085"/><stop offset="1" stop-color="#12a568"/></linearGradient><filter id="b" x="0" y="0" width="54.55" height="54.55" filterUnits="userSpaceOnUse"><feOffset dy="2" input="SourceAlpha"/><feGaussianBlur stdDeviation="3" result="c"/><feFlood flood-color="#dbe3ff"/><feComposite operator="in" in2="c"/><feComposite in="SourceGraphic"/></filter></defs><g transform="translate(-144.125 -295)"><g transform="matrix(1, 0, 0, 1, 144.13, 295)" filter="url(#b)"><path d="M9.4,0H27.151a9.4,9.4,0,0,1,9.4,9.4V27.151a9.4,9.4,0,0,1-9.4,9.4H9.4a9.4,9.4,0,0,1-9.4-9.4V9.4A9.4,9.4,0,0,1,9.4,0Z" transform="translate(9 7)" fill="url(#a)"/></g><g transform="translate(159.12 308)"><g transform="translate(0.005)"><path d="M22.912,13.912h.5a1.416,1.416,0,0,0,.9-.275,1.446,1.446,0,0,0,.55-.8V12.21a1.456,1.456,0,0,0-.776-.926,2.917,2.917,0,0,0-1.176-.15,11.98,11.98,0,0,0-3.028-6.055,11.465,11.465,0,0,0-6-3Q13.829,1.7,13.8,1.5a2.767,2.767,0,0,0-.125-.575A1.3,1.3,0,0,0,12.753.1a.535.535,0,0,0,.125-.1h-.55a.565.565,0,0,1-.25.1,1.291,1.291,0,0,0-.9.8,2.087,2.087,0,0,0-.165,1.176,10.739,10.739,0,0,0-6.08,3,10.474,10.474,0,0,0-2.962,6.105,2.032,2.032,0,0,0-1.226.1,2.067,2.067,0,0,0-.475.35.08.08,0,0,1-.05.075,1.6,1.6,0,0,0,.05,1.676.285.285,0,0,1,.1.1,1.241,1.241,0,0,0,1,.425h.55a11.725,11.725,0,0,0,3,6.055,11.745,11.745,0,0,0,6.08,3v.375a1.852,1.852,0,0,0,.225,1,1.771,1.771,0,0,0,.7.55.47.47,0,0,0,.15,0,1.2,1.2,0,0,0,.8,0,1.376,1.376,0,0,0,.751-.751,2.5,2.5,0,0,0,.15-1.176,11.219,11.219,0,0,0,6-3,11.78,11.78,0,0,0,3.078-6.055M11.012,8.732a3.8,3.8,0,0,1,2.777,0v-3.8a6.455,6.455,0,0,1,2.227.726,7.351,7.351,0,0,1,1.877,1.4,6.656,6.656,0,0,1,1.4,1.877,5.81,5.81,0,0,1,.726,2.2h-3.7a3.83,3.83,0,0,0,.1.726,3.693,3.693,0,0,1,.075.651,3.773,3.773,0,0,1-.075.676,3.83,3.83,0,0,1-.1.726h3.7a5.72,5.72,0,0,1-.6,1.977,7.566,7.566,0,0,1-1.3,1.877,7.861,7.861,0,0,1-1.927,1.526,7.036,7.036,0,0,1-2.377.876V16.339a3.933,3.933,0,0,1-1.376.25,4.289,4.289,0,0,1-1.4-.25v3.778a5.97,5.97,0,0,1-2.027-.6,8.477,8.477,0,0,1-1.877-1.351,7.266,7.266,0,0,1-1.476-1.877,7.036,7.036,0,0,1-.886-2.377h3.8A4.178,4.178,0,0,1,8.6,11.134H4.821a6.08,6.08,0,0,1,.686-2.127A9.713,9.713,0,0,1,6.858,7.131,8.973,8.973,0,0,1,8.76,5.68a6.906,6.906,0,0,1,2.252-.751v3.8m1.376,2.077a1.636,1.636,0,0,0-1.2.5,1.691,1.691,0,0,0-.5,1.2,1.616,1.616,0,0,0,.5,1.226,1.666,1.666,0,0,0,1.226.5,1.636,1.636,0,0,0,1.2-.5,1.586,1.586,0,0,0,.5-1.2,1.721,1.721,0,0,0-.5-1.226,1.616,1.616,0,0,0-1.211-.5Z" transform="translate(-0.005)" fill="#fff"/></g></g></g></svg>