<svg xmlns="http://www.w3.org/2000/svg" xmlns:xlink="http://www.w3.org/1999/xlink" width="54.55" height="54.55" viewBox="0 0 54.55 54.55"><defs><linearGradient id="a" x1="0.5" x2="0.5" y2="1" gradientUnits="objectBoundingBox"><stop offset="0" stop-color="#ff24ee"/><stop offset="1" stop-color="#c700b8"/></linearGradient><filter id="b" x="0" y="0" width="54.55" height="54.55" filterUnits="userSpaceOnUse"><feOffset dy="2" input="SourceAlpha"/><feGaussianBlur stdDeviation="3" result="c"/><feFlood flood-color="#dbe3ff"/><feComposite operator="in" in2="c"/><feComposite in="SourceGraphic"/></filter></defs><g transform="translate(-98 -693)"><g transform="matrix(1, 0, 0, 1, 98, 693)" filter="url(#b)"><path d="M9.4,0H27.151a9.4,9.4,0,0,1,9.4,9.4V27.151a9.4,9.4,0,0,1-9.4,9.4H9.4a9.4,9.4,0,0,1-9.4-9.4V9.4A9.4,9.4,0,0,1,9.4,0Z" transform="translate(9 7)" fill="url(#a)"/></g><g transform="translate(110.995 704)"><g transform="translate(0.005)"><path d="M26.207,15.913h.572a1.62,1.62,0,0,0,1.03-.315,1.654,1.654,0,0,0,.63-.916v-.716a1.666,1.666,0,0,0-.887-1.059,3.337,3.337,0,0,0-1.345-.172A13.7,13.7,0,0,0,22.744,5.81a13.114,13.114,0,0,0-6.869-3.434q-.057-.429-.086-.658a3.165,3.165,0,0,0-.143-.658A1.483,1.483,0,0,0,14.587.114.613.613,0,0,0,14.73,0H14.1a.647.647,0,0,1-.286.114,1.477,1.477,0,0,0-1.03.916A2.387,2.387,0,0,0,12.6,2.376,12.284,12.284,0,0,0,5.64,5.81a11.981,11.981,0,0,0-3.389,6.983,2.324,2.324,0,0,0-1.4.114,2.364,2.364,0,0,0-.544.4.092.092,0,0,1-.057.086,1.832,1.832,0,0,0,.057,1.918.326.326,0,0,1,.114.114,1.42,1.42,0,0,0,1.145.487h.63a13.412,13.412,0,0,0,3.434,6.926,13.434,13.434,0,0,0,6.955,3.434V26.7a2.118,2.118,0,0,0,.258,1.145,2.026,2.026,0,0,0,.8.63.538.538,0,0,0,.172,0,1.374,1.374,0,0,0,.916,0,1.574,1.574,0,0,0,.859-.859,2.862,2.862,0,0,0,.172-1.345,12.833,12.833,0,0,0,6.869-3.434,13.474,13.474,0,0,0,3.52-6.926M12.6,9.989a4.35,4.35,0,0,1,3.177,0V5.638a7.384,7.384,0,0,1,2.547.83,8.409,8.409,0,0,1,2.147,1.6,7.613,7.613,0,0,1,1.6,2.147,6.646,6.646,0,0,1,.83,2.519H18.663a4.381,4.381,0,0,0,.114.83,4.224,4.224,0,0,1,.086.744,4.316,4.316,0,0,1-.086.773,4.381,4.381,0,0,1-.114.83H22.9a6.543,6.543,0,0,1-.687,2.261,8.655,8.655,0,0,1-1.488,2.147,8.993,8.993,0,0,1-2.2,1.746,8.048,8.048,0,0,1-2.719,1V18.689a4.5,4.5,0,0,1-1.574.286,4.906,4.906,0,0,1-1.6-.286v4.322a6.829,6.829,0,0,1-2.318-.687,9.7,9.7,0,0,1-2.147-1.546A8.311,8.311,0,0,1,6.47,18.632a8.048,8.048,0,0,1-1.013-2.719h4.35a4.78,4.78,0,0,1,.029-3.177H5.514A6.955,6.955,0,0,1,6.3,10.3,11.11,11.11,0,0,1,7.844,8.157,10.263,10.263,0,0,1,10.019,6.5,7.9,7.9,0,0,1,12.6,5.638v4.35m1.574,2.376a1.872,1.872,0,0,0-1.374.572,1.935,1.935,0,0,0-.572,1.374,1.849,1.849,0,0,0,.572,1.4,1.906,1.906,0,0,0,1.4.572,1.872,1.872,0,0,0,1.374-.572,1.815,1.815,0,0,0,.572-1.374,1.969,1.969,0,0,0-.572-1.4,1.849,1.849,0,0,0-1.385-.572Z" transform="translate(-0.005)" fill="#fff"/></g></g></g></svg>