<svg xmlns="http://www.w3.org/2000/svg" xmlns:xlink="http://www.w3.org/1999/xlink" width="54.55" height="54.55" viewBox="0 0 54.55 54.55"><defs><linearGradient id="a" x1="0.5" x2="0.5" y2="1" gradientUnits="objectBoundingBox"><stop offset="0" stop-color="#ff006c"/><stop offset="1" stop-color="#c90055"/></linearGradient><filter id="b" x="0" y="0" width="54.55" height="54.55" filterUnits="userSpaceOnUse"><feOffset dy="2" input="SourceAlpha"/><feGaussianBlur stdDeviation="3" result="c"/><feFlood flood-color="#dbe3ff"/><feComposite operator="in" in2="c"/><feComposite in="SourceGraphic"/></filter></defs><g transform="translate(-325 -1967)"><g transform="matrix(1, 0, 0, 1, 325, 1967)" filter="url(#b)"><path d="M9.4,0H27.151a9.4,9.4,0,0,1,9.4,9.4V27.151a9.4,9.4,0,0,1-9.4,9.4H9.4a9.4,9.4,0,0,1-9.4-9.4V9.4A9.4,9.4,0,0,1,9.4,0Z" transform="translate(9 7)" fill="url(#a)"/></g><g transform="translate(339.002 1982.002)"><g transform="translate(-1.199 -0.976)"><path d="M26.906,3.758H7.017a.728.728,0,0,1-.4-.1.7.7,0,0,1-.238-.333Q6.208,2.806,5.9,2.045,5.566,1.189,5.423.76A1.18,1.18,0,0,0,5,.189,1.1,1.1,0,0,0,4.329,0H1.141A1.175,1.175,0,0,0,.308.308.985.985,0,0,0,0,1.07a1.033,1.033,0,0,0,.309.761,1.232,1.232,0,0,0,.833.285H3.377a.6.6,0,0,1,.262.048.571.571,0,0,1,.167.238Q6.327,9.135,9.182,16.676a.438.438,0,0,1,.048.262.447.447,0,0,1-.19.214A2.812,2.812,0,0,0,7.826,18.7a3.079,3.079,0,0,0,3.045,4.14,2.812,2.812,0,0,0,1.808-.761,2.793,2.793,0,0,0,.975-1.761,4.834,4.834,0,0,0,.048-.761q0-.523-.024-.785h6.067l-.071.428a3.473,3.473,0,0,0-.024.381,3.178,3.178,0,0,0,.357,1.642,2.855,2.855,0,0,0,1.19,1.19,3.1,3.1,0,0,0,1.642.428,3.04,3.04,0,0,0,2.855-3.5A2.883,2.883,0,0,0,24.67,17.39a3.2,3.2,0,0,0-2.094-.761H11.823a.652.652,0,0,1-.143,0,.266.266,0,0,1-.119,0l-.119-.048a.271.271,0,0,1-.1-.1q-.1-.238-.5-1.332H23.909a1.542,1.542,0,0,0,.88-.19,1.47,1.47,0,0,0,.452-.785L28,5.233a1.09,1.09,0,0,0-.119-1.047,1.123,1.123,0,0,0-.975-.428M20.221,5.9h5.353l-.071.285-.809,2.665a.519.519,0,0,1-.1.19.214.214,0,0,1-.19.071H20.15a.78.78,0,0,1-.19,0l.262-3.164m-6.019.1V5.923h4.925v.238l-.1,1.309q-.048.809-.1,1.356a.252.252,0,0,1-.285.285H14.535a.19.19,0,0,1-.1-.19s-.1-.985-.238-2.9m.333,4.282.024-.048a.1.1,0,0,1,0-.071h4.235l.024.071v.071a11.384,11.384,0,0,1-.1,1.213,11.385,11.385,0,0,0-.1,1.213.328.328,0,0,1-.071.238.324.324,0,0,1-.214.048H15.011a.476.476,0,0,1-.19,0q-.071,0-.1-.143,0-.4-.19-2.569M13.393,9.087H8.825a.723.723,0,0,1-.214,0,.8.8,0,0,1-.119-.19q-.214-.571-.547-1.427A9.366,9.366,0,0,0,7.4,6.042a.709.709,0,0,0-.024-.119h5.781l.238,3.164M8.968,10.181h4.211a.328.328,0,0,1,.238.071q.071.048.071.238.048.738.167,2.236a1.071,1.071,0,0,1,0,.309H10.277a.385.385,0,0,1-.167-.048.152.152,0,0,1-.1-.071q-.262-.642-1.047-2.76m15.274.048a.48.48,0,0,1-.024.214q-.595,1.951-.738,2.379a.509.509,0,0,1-.1.167.338.338,0,0,1-.19.048H19.7v-.285l.19-2.308a.276.276,0,0,1,.048-.19.186.186,0,0,1,.167-.071h4.044a.233.233,0,0,1,.119.048M22.7,20.673a.9.9,0,0,1-.69-.309.978.978,0,0,1,.024-1.356.975.975,0,0,1,1.356.024.952.952,0,0,1,.285.69.866.866,0,0,1-.285.666.952.952,0,0,1-.69.285M11.68,19.722a.99.99,0,0,1-.285.666.952.952,0,0,1-.69.285.866.866,0,0,1-.666-.285.952.952,0,0,1,.69-1.642.914.914,0,0,1,.666.285.952.952,0,0,1,.262.714Z" transform="translate(0.002 0.002)" fill="#fff"/></g></g></g></svg>