<svg xmlns="http://www.w3.org/2000/svg" width="298.421" height="296.768" viewBox="0 0 298.421 296.768"><g transform="translate(-2191.747 -1389.621)"><ellipse cx="142.685" cy="143.265" rx="142.685" ry="143.265" transform="translate(2191.747 1686.389) rotate(-90)" fill="#f1f1f1"/><g transform="translate(2265.162 1554.229)"><g transform="translate(137.838)"><path d="M2389.265,1561.125c2.92,3.885,9.3,5.913,14.294,6.988a75.91,75.91,0,0,0,22.327,1.227c6.358-.565,13.085-1.8,18.627-4.677.488-.254.966-.522,1.429-.81,3.839-2.38,6.056-6.622,3.855-10.551a8.094,8.094,0,0,0-4.329-3.537,19.063,19.063,0,0,0-3.432-.771,47.3,47.3,0,0,1-5.389-1.63,53.028,53.028,0,0,0-6.809-1.4,76.225,76.225,0,0,0-29.705,1.948,26.646,26.646,0,0,1-4.735,1.408,12.453,12.453,0,0,0-5.17,1.233,4.469,4.469,0,0,0-2.863,4.453A9.831,9.831,0,0,0,2389.265,1561.125Z" transform="translate(-2387.299 -1541.857)" fill="#ffac58"/><path d="M2412.387,1559.5c.07.075.14.15.213.222a21.058,21.058,0,0,0,2.55,2.027,15.825,15.825,0,0,1,4.792,5.033,2.07,2.07,0,0,1,.156,2.167,1.023,1.023,0,0,0-.221.369c-.1.542,3.834.033,4.378-.015,6.358-.565,13.085-1.8,18.627-4.677.488-.254.967-.522,1.429-.81,3.84-2.38,6.056-6.622,3.855-10.55a8.094,8.094,0,0,0-4.329-3.537,19.065,19.065,0,0,0-3.432-.771,47.21,47.21,0,0,1-5.388-1.63q-1.791-.5-3.624-.863a14.245,14.245,0,0,0-3.6-.566,18.659,18.659,0,0,0-3.573,1.039q-1.941.609-3.833,1.33c-3.076,1.174-6.217,2.718-7.756,5.3a12.412,12.412,0,0,0-1.227,3.309A2.872,2.872,0,0,0,2412.387,1559.5Z" transform="translate(-2385.667 -1541.817)" fill="#f49947"/><path d="M2430.354,1559.041a3.789,3.789,0,0,0,.583,2.077c1.015,1.586,3.322,2.613,3.476,4.421.033.386-.18,1.273.306,1.47.389.157,2-.6,2.4-.737a33.694,33.694,0,0,0,4.466-1.906c.488-.254.967-.522,1.429-.809,3.84-2.38,6.056-6.622,3.855-10.551-.862-1.54-3.021-3.854-5.17-3.239a25.02,25.02,0,0,0-7.347,3.506,10.563,10.563,0,0,0-3.387,3.451A4.991,4.991,0,0,0,2430.354,1559.041Z" transform="translate(-2384.373 -1541.56)" fill="#f49947"/><path d="M2389.059,1557.977a19.324,19.324,0,0,0,7.068,4.493c.147.06.294.119.443.176a61.94,61.94,0,0,0,19.143,3.695c11.647.519,23.82-1.756,30.207-5.715,3.819-2.369,5.213-5.22,4.115-7.97-1.755-4.4-9.6-8.412-20.221-9.924a76.221,76.221,0,0,0-29.705,1.948c-4.452,1.3-8.264,3.069-10.541,5.086C2386.588,1552.406,2386.685,1555.344,2389.059,1557.977Z" transform="translate(-2387.303 -1542.076)" fill="#ffd38d"/><path d="M2390.731,1556.922a18.407,18.407,0,0,0,6.677,4.014q.207.08.419.157a61.493,61.493,0,0,0,18.089,3.3c11.006.459,22.51-1.577,28.545-5.117,3.61-2.118,4.928-4.665,3.891-7.124-1.656-3.927-9.072-7.515-19.1-8.863a76.039,76.039,0,0,0-28.071,1.749c-4.207,1.16-7.81,2.745-9.962,4.548C2388.4,1551.944,2388.488,1554.569,2390.731,1556.922Z" transform="translate(-2387.183 -1542.034)" fill="#fcc67e"/><path d="M2390.731,1556.927c3.3,3.465,8.38,4.811,13.077,5.988a2.055,2.055,0,0,0,.728.09c.879-.1,1.427-1.224,2-1.744l18.526-16.739.525-.474c.067-.061.142-.119.2-.184.25-.263.38-.591.692-.8-.376.246-2.6-.256-3.131-.293q-1.742-.117-3.488-.14c-2.126-.028-4.255.049-6.373.225a66.833,66.833,0,0,0-12.7,2.287c-3.37.956-6.954,2.239-9.584,4.441C2388.4,1551.949,2388.488,1554.574,2390.731,1556.927Z" transform="translate(-2387.183 -1542.039)" fill="#fff4e9" opacity="0.24"/><path d="M2390.731,1556.907a13.593,13.593,0,0,0,1.951,1.682c.633.451,1.648,1.129,2.527.762a1.611,1.611,0,0,0,.45-.323c3.775-3.442,7.577-6.861,11.37-10.288l3-2.713,1.441-1.3c.334-.3,1.162-.795,1.323-1.193.425-1.045-1.713-.453-2.351-.371q-1.634.208-3.253.5a65.032,65.032,0,0,0-6.392,1.469c-3.37.956-6.954,2.239-9.584,4.441C2388.4,1551.929,2388.488,1554.554,2390.731,1556.907Z" transform="translate(-2387.183 -1542.019)" fill="#fff4e9" opacity="0.24"/></g><g transform="translate(0 36.674)"><path d="M2260.212,1595.461c2.919,3.885,9.3,5.914,14.293,6.988a75.845,75.845,0,0,0,22.327,1.227c6.358-.564,13.084-1.8,18.627-4.676.488-.254.967-.522,1.43-.81,3.838-2.381,6.055-6.622,3.854-10.551a8.1,8.1,0,0,0-4.329-3.538,19.057,19.057,0,0,0-3.432-.77,47.507,47.507,0,0,1-5.388-1.63,53.2,53.2,0,0,0-6.81-1.406,76.223,76.223,0,0,0-29.705,1.949,26.594,26.594,0,0,1-4.735,1.408,12.451,12.451,0,0,0-5.17,1.232,4.471,4.471,0,0,0-2.863,4.454A9.824,9.824,0,0,0,2260.212,1595.461Z" transform="translate(-2258.245 -1576.193)" fill="#ffac58"/><path d="M2283.333,1593.836c.069.075.139.148.213.222a21.155,21.155,0,0,0,2.55,2.027,15.809,15.809,0,0,1,4.791,5.033,2.07,2.07,0,0,1,.156,2.167,1.028,1.028,0,0,0-.221.369c-.1.542,3.834.033,4.378-.016,6.358-.564,13.085-1.8,18.627-4.676.489-.254.967-.522,1.43-.809,3.839-2.381,6.055-6.622,3.854-10.552a8.1,8.1,0,0,0-4.329-3.537,19.044,19.044,0,0,0-3.432-.77,47.492,47.492,0,0,1-5.388-1.63q-1.79-.5-3.624-.863a14.243,14.243,0,0,0-3.6-.567,18.824,18.824,0,0,0-3.573,1.039q-1.942.609-3.832,1.331c-3.077,1.174-6.218,2.718-7.757,5.3a12.467,12.467,0,0,0-1.228,3.309A2.873,2.873,0,0,0,2283.333,1593.836Z" transform="translate(-2256.613 -1576.154)" fill="#f49947"/><path d="M2301.3,1593.379a3.789,3.789,0,0,0,.583,2.077c1.015,1.586,3.322,2.611,3.476,4.42.033.385-.18,1.274.308,1.471.387.157,2-.6,2.4-.737a33.6,33.6,0,0,0,4.465-1.905c.489-.254.967-.522,1.43-.81,3.839-2.381,6.055-6.622,3.854-10.552-.862-1.539-3.021-3.855-5.169-3.238a24.985,24.985,0,0,0-7.349,3.505,10.561,10.561,0,0,0-3.385,3.452A4.992,4.992,0,0,0,2301.3,1593.379Z" transform="translate(-2255.319 -1575.897)" fill="#f49947"/><path d="M2260,1592.314a19.346,19.346,0,0,0,7.068,4.493l.444.176a61.941,61.941,0,0,0,19.143,3.694c11.647.518,23.82-1.756,30.207-5.715,3.82-2.369,5.214-5.219,4.115-7.97-1.755-4.4-9.6-8.413-20.221-9.924a76.225,76.225,0,0,0-29.705,1.948c-4.451,1.3-8.264,3.07-10.541,5.086C2257.534,1586.743,2257.63,1589.68,2260,1592.314Z" transform="translate(-2258.249 -1576.413)" fill="#ffd38d"/><path d="M2261.677,1591.259a18.4,18.4,0,0,0,6.677,4.013c.139.054.278.106.42.158a61.445,61.445,0,0,0,18.087,3.3c11.006.46,22.51-1.575,28.545-5.116,3.61-2.118,4.928-4.666,3.891-7.124-1.656-3.928-9.072-7.515-19.1-8.864a76.033,76.033,0,0,0-28.07,1.75c-4.207,1.159-7.81,2.745-9.963,4.548C2259.344,1586.281,2259.434,1588.906,2261.677,1591.259Z" transform="translate(-2258.129 -1576.371)" fill="#fcc67e"/><path d="M2261.677,1591.264c3.3,3.465,8.38,4.809,13.078,5.986a2.024,2.024,0,0,0,.727.091c.88-.1,1.427-1.224,2-1.745l18.525-16.738.524-.474c.067-.061.142-.12.2-.185.25-.262.379-.591.692-.795-.376.246-2.6-.256-3.13-.292q-1.741-.119-3.489-.14c-2.126-.029-4.255.049-6.373.224a66.841,66.841,0,0,0-12.695,2.287c-3.37.957-6.954,2.239-9.584,4.442C2259.344,1586.286,2259.434,1588.911,2261.677,1591.264Z" transform="translate(-2258.129 -1576.376)" fill="#fff4e9" opacity="0.24"/><path d="M2261.677,1591.245a13.737,13.737,0,0,0,1.951,1.682c.632.451,1.648,1.129,2.527.761a1.615,1.615,0,0,0,.451-.324c3.774-3.442,7.577-6.86,11.37-10.288l3-2.712,1.441-1.3c.334-.3,1.162-.8,1.325-1.193.424-1.044-1.714-.453-2.352-.372q-1.634.21-3.253.5a65.456,65.456,0,0,0-6.392,1.468c-3.37.957-6.954,2.239-9.584,4.442C2259.344,1586.266,2259.434,1588.891,2261.677,1591.245Z" transform="translate(-2258.129 -1576.356)" fill="#fff4e9" opacity="0.24"/></g><g transform="translate(156.737 35.573)"><path d="M2407.08,1603.506c3.084,5.757,9.806,8.774,15.071,10.376a57.459,57.459,0,0,0,23.518,1.867c6.7-.82,13.777-2.628,19.609-6.879.514-.374,1.017-.77,1.5-1.194a14.11,14.11,0,0,0,4.036-15.609,10.009,10.009,0,0,0-4.568-5.245,15.334,15.334,0,0,0-3.617-1.148c-2.087-.475-3.672-1.639-5.679-2.426a42.6,42.6,0,0,0-7.175-2.095,57.974,57.974,0,0,0-31.282,2.817c-1.635.665-3.306,1.863-4.983,2.073a10.13,10.13,0,0,0-5.442,1.811,7.411,7.411,0,0,0-2.793,4.152,10.929,10.929,0,0,0-.213,2.434A18.915,18.915,0,0,0,2407.08,1603.506Z" transform="translate(-2404.993 -1575.057)" fill="#ffac58"/><path d="M2431.428,1601.154c.073.112.148.221.225.33a25.766,25.766,0,0,0,2.69,3.007,22.088,22.088,0,0,1,5.058,7.459,4.143,4.143,0,0,1,.17,3.208,1.707,1.707,0,0,0-.233.545c-.108.8,4.038.058,4.611-.013,6.7-.82,13.778-2.628,19.609-6.879.514-.374,1.017-.77,1.5-1.194a14.11,14.11,0,0,0,4.036-15.609,10.008,10.008,0,0,0-4.568-5.245,15.331,15.331,0,0,0-3.617-1.148c-2.087-.475-3.672-1.638-5.678-2.426q-1.886-.739-3.818-1.285c-1.132-.322-2.626-.985-3.79-.847a15.659,15.659,0,0,0-3.76,1.531q-2.044.9-4.034,1.96c-3.237,1.73-6.542,4.01-8.157,7.83a23.462,23.462,0,0,0-1.285,4.894A5.311,5.311,0,0,0,2431.428,1601.154Z" transform="translate(-2403.273 -1574.997)" fill="#f49947"/><path d="M2450.351,1600.52a7.411,7.411,0,0,0,.619,3.076c1.071,2.35,3.5,3.873,3.67,6.55.036.571-.186,1.885.327,2.178.409.233,2.1-.879,2.528-1.086a30.965,30.965,0,0,0,4.7-2.81c.513-.374,1.017-.77,1.5-1.194a14.111,14.111,0,0,0,4.036-15.609c-.912-2.28-3.191-5.712-5.453-4.805a24,24,0,0,0-7.732,5.173,14.409,14.409,0,0,0-3.559,5.1A9.827,9.827,0,0,0,2450.351,1600.52Z" transform="translate(-2401.91 -1574.614)" fill="#f49947"/><path d="M2406.856,1598.848a21.294,21.294,0,0,0,7.454,6.666q.232.133.468.263a49.379,49.379,0,0,0,20.17,5.512c12.269.794,25.085-2.545,31.8-8.392,4.018-3.5,5.48-7.712,4.317-11.787-1.858-6.51-10.134-12.472-21.319-14.735a57.989,57.989,0,0,0-31.283,2.817c-4.686,1.909-8.7,4.524-11.09,7.5C2404.241,1590.6,2404.349,1594.944,2406.856,1598.848Z" transform="translate(-2404.997 -1575.382)" fill="#ffd38d"/><path d="M2408.614,1597.289a19.758,19.758,0,0,0,7.042,5.955q.219.119.442.235a48.69,48.69,0,0,0,19.059,4.92c11.593.706,23.7-2.281,30.052-7.509,3.8-3.126,5.181-6.894,4.083-10.534-1.755-5.818-9.573-11.144-20.142-13.163a57.75,57.75,0,0,0-29.561,2.526c-4.428,1.707-8.219,4.046-10.482,6.71C2406.146,1589.916,2406.246,1593.8,2408.614,1597.289Z" transform="translate(-2404.871 -1575.319)" fill="#fcc67e"/><path d="M2408.614,1597.3c3.488,5.136,8.837,7.139,13.788,8.892a1.568,1.568,0,0,0,.766.136c.926-.152,1.5-1.808,2.106-2.578l19.473-24.732.552-.7c.07-.09.149-.175.215-.272a6.241,6.241,0,0,1,.726-1.175c-.4.363-2.741-.386-3.3-.44q-1.834-.179-3.674-.216a50.047,50.047,0,0,0-6.713.318,52.362,52.362,0,0,0-13.365,3.356c-3.547,1.408-7.32,3.3-10.083,6.553C2406.146,1589.923,2406.246,1593.809,2408.614,1597.3Z" transform="translate(-2404.871 -1575.327)" fill="#fff4e9" opacity="0.24"/><path d="M2408.614,1597.268a17.281,17.281,0,0,0,2.059,2.495c.667.669,1.738,1.675,2.663,1.132a1.848,1.848,0,0,0,.474-.476c3.968-5.087,7.964-10.138,11.951-15.2l3.155-4.008,1.514-1.924c.352-.446,1.222-1.174,1.392-1.763.444-1.544-1.807-.674-2.478-.554q-1.721.306-3.425.728a52.348,52.348,0,0,0-6.729,2.158c-3.547,1.408-7.32,3.3-10.083,6.553C2406.146,1589.9,2406.246,1593.781,2408.614,1597.268Z" transform="translate(-2404.871 -1575.298)" fill="#fff4e9" opacity="0.24"/></g><g transform="translate(150.023 29.998)"><path d="M2400.794,1598.287c3.083,5.756,9.807,8.774,15.07,10.376a57.485,57.485,0,0,0,23.519,1.867c6.695-.821,13.776-2.628,19.608-6.879.513-.375,1.017-.77,1.5-1.194a14.112,14.112,0,0,0,4.035-15.609,10,10,0,0,0-4.568-5.245,15.333,15.333,0,0,0-3.617-1.148c-2.087-.475-3.672-1.639-5.679-2.426a42.5,42.5,0,0,0-7.174-2.095,57.975,57.975,0,0,0-31.283,2.817c-1.635.665-3.305,1.863-4.983,2.073a10.127,10.127,0,0,0-5.442,1.812,7.407,7.407,0,0,0-2.793,4.152,10.939,10.939,0,0,0-.213,2.433A18.91,18.91,0,0,0,2400.794,1598.287Z" transform="translate(-2398.706 -1569.838)" fill="#ffac58"/><path d="M2425.143,1595.935c.072.111.148.221.224.329a25.815,25.815,0,0,0,2.691,3.008,22.1,22.1,0,0,1,5.058,7.459,4.143,4.143,0,0,1,.169,3.208,1.727,1.727,0,0,0-.232.545c-.108.8,4.038.058,4.612-.013,6.695-.821,13.776-2.628,19.607-6.879.514-.375,1.017-.77,1.5-1.194a14.112,14.112,0,0,0,4.036-15.609,10,10,0,0,0-4.569-5.245,15.34,15.34,0,0,0-3.616-1.148c-2.087-.475-3.672-1.638-5.679-2.426q-1.886-.739-3.818-1.285c-1.132-.322-2.626-.985-3.789-.847a15.6,15.6,0,0,0-3.761,1.531q-2.045.9-4.035,1.96c-3.237,1.73-6.542,4.01-8.156,7.829a23.437,23.437,0,0,0-1.285,4.895A5.309,5.309,0,0,0,2425.143,1595.935Z" transform="translate(-2396.987 -1569.778)" fill="#f49947"/><path d="M2444.065,1595.3a7.4,7.4,0,0,0,.62,3.075c1.072,2.351,3.5,3.874,3.671,6.55.035.571-.187,1.885.327,2.178.408.233,2.1-.879,2.527-1.086a30.9,30.9,0,0,0,4.7-2.81c.514-.375,1.017-.77,1.5-1.194a14.113,14.113,0,0,0,4.035-15.609c-.912-2.28-3.191-5.712-5.453-4.805a23.987,23.987,0,0,0-7.732,5.173,14.388,14.388,0,0,0-3.557,5.1A9.8,9.8,0,0,0,2444.065,1595.3Z" transform="translate(-2395.624 -1569.395)" fill="#f49947"/><path d="M2400.569,1593.629a21.3,21.3,0,0,0,7.455,6.666c.154.089.31.176.467.263a49.363,49.363,0,0,0,20.17,5.511c12.269.795,25.085-2.544,31.8-8.391,4.018-3.5,5.48-7.712,4.317-11.787-1.858-6.51-10.134-12.473-21.32-14.735a57.971,57.971,0,0,0-31.281,2.817c-4.687,1.909-8.7,4.524-11.091,7.5C2397.954,1585.376,2398.063,1589.725,2400.569,1593.629Z" transform="translate(-2398.711 -1570.163)" fill="#ffd38d"/><path d="M2402.328,1592.07a19.768,19.768,0,0,0,7.042,5.955q.22.119.442.235a48.706,48.706,0,0,0,19.058,4.919c11.593.706,23.7-2.281,30.054-7.509,3.8-3.126,5.18-6.894,4.082-10.534-1.755-5.818-9.573-11.144-20.142-13.163a57.75,57.75,0,0,0-29.561,2.526c-4.428,1.707-8.219,4.046-10.482,6.709C2399.859,1584.7,2399.96,1588.583,2402.328,1592.07Z" transform="translate(-2398.584 -1570.1)" fill="#fcc67e"/><path d="M2402.328,1592.078c3.487,5.136,8.837,7.139,13.788,8.892a1.568,1.568,0,0,0,.766.136c.926-.153,1.5-1.808,2.106-2.578l19.473-24.732.552-.7c.071-.09.149-.176.215-.272a6.238,6.238,0,0,1,.726-1.175c-.4.362-2.741-.385-3.3-.44q-1.834-.18-3.674-.216a49.812,49.812,0,0,0-6.713.318,52.384,52.384,0,0,0-13.365,3.356c-3.547,1.408-7.318,3.3-10.083,6.552C2399.859,1584.7,2399.96,1588.59,2402.328,1592.078Z" transform="translate(-2398.584 -1570.107)" fill="#fff4e9" opacity="0.24"/><path d="M2402.328,1592.049a17.348,17.348,0,0,0,2.06,2.495c.667.669,1.738,1.675,2.664,1.132a1.834,1.834,0,0,0,.473-.478c3.969-5.086,7.965-10.137,11.952-15.2l3.155-4.007,1.515-1.924c.352-.446,1.222-1.174,1.392-1.763.445-1.544-1.806-.674-2.478-.554q-1.719.306-3.425.728a52.357,52.357,0,0,0-6.729,2.159c-3.547,1.408-7.318,3.3-10.083,6.552C2399.859,1584.676,2399.96,1588.562,2402.328,1592.049Z" transform="translate(-2398.584 -1570.079)" fill="#fff4e9" opacity="0.24"/></g></g><g transform="translate(2272.031 1539.903)"><g transform="translate(0.442 18.343)"><path d="M2478.623,1657.559c4.174-3.955,4.023-9.649-.875-13.539-3.626-2.881-5.254-4.9-6.75-8.507l-6.131-14.783-12.988-31.313-10.1-24.342-2.892-6.972c-2.667-6.431-7.917-10.458-13.771-10.566l-92.431-1.7c-5.855-.108-11.425,3.722-14.613,10.045l-13.95,27.677-11.738,23.286q-3.321,6.591-6.644,13.182c-1.132,2.247-2.088,4.571-3.415,6.776-1.038,1.727-2.779,2.892-4.718,4.348-4.2,3.156-8.668,6.392-11.178,10.234-3.267,5-.246,10.924,5.635,14.685,7.023,4.491,18.247,4.358,27.638,4.439q44.644.388,89.288.88,22.318.264,44.633.6c11.464.176,27.925,2.25,38.6-.936A15.72,15.72,0,0,0,2478.623,1657.559Z" transform="translate(-2265.095 -1545.837)" fill="#0a303a" stroke="#0a303a" stroke-miterlimit="10" stroke-width="1.619"/></g><path d="M2478.008,1653.117c3.387-1.221,4.576-3.451,3.935-6.315-2.786-12.443-10.2-25.141-15.276-37.294l-18.628-44.607-10.007-23.96c-2.685-6.432-7.969-10.46-13.86-10.568l-93.017-1.709c-5.891-.108-11.5,3.72-14.7,10.043q-4.46,8.8-8.918,17.591l-19.12,37.711-17.54,34.594c-2.38,4.693-5.057,9.393-6.047,14.306a5.575,5.575,0,0,0,2.405,6.094c3.826,2.533,9.276,2.287,14.434,2.428,29.875.818,59.775,1.169,89.669,1.535,29.451.361,58.948,1.419,88.361,1.694a108.421,108.421,0,0,0,14.8-.746A16.688,16.688,0,0,0,2478.008,1653.117Z" transform="translate(-2264.681 -1528.663)" fill="#ced1d3" stroke="#0a303a" stroke-miterlimit="10" stroke-width="1.388"/><g transform="translate(15.643 4.233)" opacity="0.93"><path d="M2465.029,1632.788c-.7-3.3-2.99-6.89-4.244-9.973l-4.851-11.935-12.1-29.768L2428.5,1543.4c-2.3-5.663-6.838-9.208-11.9-9.3l-79.916-1.468c-5.062-.093-9.88,3.281-12.641,8.851l-15.487,31.256-23.7,47.824c-2.219,4.477-6.508,10.284-5.335,15.012a6.417,6.417,0,0,0,4.676,4.344,21.889,21.889,0,0,0,5.736.584c52.433.742,104.854,1.877,157.283,2.777a47.387,47.387,0,0,0,8.976-.413c5.355-.951,8.713-4.339,9.01-7.635A8.278,8.278,0,0,0,2465.029,1632.788Z" transform="translate(-2279.327 -1532.626)" fill="#fff"/></g><g transform="translate(28.782 64.171)"><path d="M2355.269,1626.387c.9-3.183.584-7.1.543-9.954l-.287-20.287a12.032,12.032,0,0,0-.546-4.144c-1.668-4.367-8.339-3.08-11.831-3.08h-22.512c-3.262,0-7.331-.372-10.335.944-3.512,1.537-4.238,5.306-5.777,8.415q-4.06,8.2-8.128,16.4c-1.911,3.857-5.605,8.859-4.6,12.931a5.529,5.529,0,0,0,4.029,3.741c4.848,1.431,11.859.368,16.911.368h22.668c4.49,0,10,.885,14.387.018C2352.981,1631.114,2354.532,1629,2355.269,1626.387Z" transform="translate(-2291.628 -1588.744)" fill="#ced1d3"/></g><g transform="translate(98.379 92.372)" opacity="0.5"><path d="M2443.462,1621.837c-1.207-8.653-10.011-6.434-16.6-6.434h-53.71c-6.807,0-17.942-1.275-16.173,9.389a3.7,3.7,0,0,0,2.157,2.872,7.171,7.171,0,0,0,2.671.357c24.437.186,48.866.634,73.3.926a15.6,15.6,0,0,0,4.187-.33,5.841,5.841,0,0,0,4.239-5.151A7.879,7.879,0,0,0,2443.462,1621.837Z" transform="translate(-2356.79 -1615.148)" fill="#384242"/></g><g transform="translate(94.12 37.142)" opacity="0.5"><path d="M2426.618,1570.089c-.993-8.648-8.5-6.394-14.113-6.367l-21.607.1-24.134.114c-5.8.028-15.274-1.2-13.811,9.456a3.654,3.654,0,0,0,1.826,2.862,5.271,5.271,0,0,0,2.273.346c20.81.086,41.614.436,62.422.628a11.372,11.372,0,0,0,3.566-.347,5.775,5.775,0,0,0,3.632-5.167A9.161,9.161,0,0,0,2426.618,1570.089Z" transform="translate(-2352.802 -1563.438)" fill="#384242"/></g><path d="M2382.168,1643.194a13.724,13.724,0,0,0,2.386-.126c2.521-.4,3.548-2.138,2.656-3.729-1.041-1.852-4.021-2.139-6.613-2.181l-14.782-.234c-4.436-.07-9.6-.72-13.924.1-2.237.423-4.773,2.153-4.557,3.815.358,2.751,6.774,2.214,9.529,2.178q12.259-.16,24.52.162C2381.643,1643.184,2381.906,1643.19,2382.168,1643.194Z" transform="translate(-2259.055 -1521.315)" fill="#aab2b5" stroke="#0a303a" stroke-miterlimit="10" stroke-width="0.578"/><path d="M2314.013,1607.01c-.967-.058-1.249-1.551-2.245-1.462a1.494,1.494,0,0,0-.932.679l-4.925,6.192a17.815,17.815,0,0,0,15.381,7.222,1.531,1.531,0,0,0,.757-.193c.518-.348.449-1.111.619-1.712a3.088,3.088,0,0,1,1.3-1.595,7.15,7.15,0,0,1,6.7-.712,5.283,5.283,0,0,1,2.847,3.048,1.568,1.568,0,0,0,.4.676,1.318,1.318,0,0,0,.833.2,13.626,13.626,0,0,0,7.844-2.808,39.493,39.493,0,0,0,6.1-5.851.485.485,0,0,0,.16-.3.469.469,0,0,0-.089-.234,46.262,46.262,0,0,0-5.613-7.444c-.471.478-1.846,2.435-2.526,1.964-.43-.3-.378-1.556-.377-2l.008-9.84q-13.179-.1-26.357-.028c.038,4.693-.249,9.538.157,14.2Z" transform="translate(-2261.874 -1524.299)" fill="#797f7f"/><ellipse cx="10.166" cy="8.561" rx="10.166" ry="8.561" transform="translate(100.618 62.068)" fill="#f49947"/><ellipse cx="10.701" cy="9.096" rx="10.701" ry="9.096" transform="translate(105.969 69.559)" fill="#fcc67e"/><line x2="42.806" transform="translate(127.372 66.349)" fill="none" stroke="#384242" stroke-miterlimit="10" stroke-width="1.388" opacity="0.71"/><line x2="41.735" transform="translate(128.442 74.91)" fill="none" stroke="#384242" stroke-miterlimit="10" stroke-width="1.388" opacity="0.71"/><line x2="43.876" transform="translate(128.442 84.541)" fill="none" stroke="#384242" stroke-miterlimit="10" stroke-width="1.388" opacity="0.71"/><line x2="42.806" transform="translate(113.46 13.912)" fill="none" stroke="#384242" stroke-miterlimit="10" stroke-width="1.388" opacity="0.71"/><line x2="41.735" transform="translate(114.53 22.473)" fill="none" stroke="#384242" stroke-miterlimit="10" stroke-width="1.388" opacity="0.71"/><line x2="43.876" transform="translate(114.53 32.105)" fill="none" stroke="#384242" stroke-miterlimit="10" stroke-width="1.388" opacity="0.71"/></g><g transform="translate(2199.577 1613.793)"><g transform="translate(12.423 26.032)"><path d="M2210.851,1647.649c3.527,5.193,11.228,7.909,17.26,9.348a82.946,82.946,0,0,0,26.956,1.656c7.675-.75,15.795-2.39,22.484-6.236.59-.339,1.166-.7,1.725-1.08,4.633-3.178,7.305-8.846,4.646-14.1a10.086,10.086,0,0,0-5.229-4.73,21.11,21.11,0,0,0-4.143-1.032c-2.393-.426-4.208-1.474-6.507-2.182a59.039,59.039,0,0,0-8.222-1.882,83.426,83.426,0,0,0-35.86,2.583c-1.874.6-3.792,1.685-5.715,1.878a13.842,13.842,0,0,0-6.24,1.643,6.9,6.9,0,0,0-3.207,3.752,7.868,7.868,0,0,0-.247,2.2A14.138,14.138,0,0,0,2210.851,1647.649Z" transform="translate(-2208.471 -1621.923)" fill="#ffac58"/><path d="M2238.761,1645.493c.083.1.17.2.256.3a26.264,26.264,0,0,0,3.082,2.711,20.428,20.428,0,0,1,5.788,6.728,3.023,3.023,0,0,1,.19,2.9,1.393,1.393,0,0,0-.268.492c-.124.723,4.63.046,5.287-.018,7.675-.75,15.795-2.39,22.484-6.237.59-.338,1.166-.7,1.725-1.08,4.633-3.178,7.305-8.846,4.646-14.1a10.086,10.086,0,0,0-5.229-4.73,21.116,21.116,0,0,0-4.143-1.032c-2.393-.426-4.208-1.474-6.507-2.182q-2.161-.665-4.376-1.156a15.69,15.69,0,0,0-4.343-.759,20.985,20.985,0,0,0-4.313,1.386q-2.343.812-4.626,1.775c-3.714,1.566-7.5,3.628-9.361,7.079a17.752,17.752,0,0,0-1.479,4.421A4.074,4.074,0,0,0,2238.761,1645.493Z" transform="translate(-2206.5 -1621.87)" fill="#f49947"/><path d="M2260.452,1644.895a5.477,5.477,0,0,0,.706,2.776c1.226,2.12,4.013,3.492,4.2,5.908.041.516-.216,1.7.372,1.965.469.209,2.41-.8,2.9-.984a38.378,38.378,0,0,0,5.39-2.543c.59-.339,1.167-.7,1.725-1.08,4.633-3.178,7.305-8.845,4.646-14.1-1.042-2.058-3.651-5.153-6.244-4.332a29.005,29.005,0,0,0-8.869,4.68,13.555,13.555,0,0,0-4.085,4.61A7.249,7.249,0,0,0,2260.452,1644.895Z" transform="translate(-2204.938 -1621.525)" fill="#f49947"/><path d="M2210.6,1643.444a23.272,23.272,0,0,0,8.536,6.008q.266.12.536.237a68.54,68.54,0,0,0,23.113,4.949c14.061.7,28.756-2.329,36.463-7.616,4.61-3.162,6.291-6.971,4.963-10.647-2.122-5.876-11.6-11.247-24.418-13.275a83.409,83.409,0,0,0-35.86,2.584c-5.374,1.728-9.975,4.095-12.722,6.789C2207.612,1636,2207.731,1639.922,2210.6,1643.444Z" transform="translate(-2208.476 -1622.217)" fill="#ffd38d"/><path d="M2212.615,1642.035a21.988,21.988,0,0,0,8.064,5.367q.252.107.506.211a67.914,67.914,0,0,0,21.84,4.417c13.287.623,27.172-2.09,34.457-6.817,4.357-2.827,5.947-6.231,4.693-9.516-2-5.25-10.958-10.048-23.071-11.857a83.189,83.189,0,0,0-33.886,2.319c-5.078,1.546-9.427,3.664-12.023,6.071C2209.8,1635.381,2209.906,1638.888,2212.615,1642.035Z" transform="translate(-2208.33 -1622.16)" fill="#fcc67e"/><path d="M2212.615,1642.041c3.99,4.632,10.12,6.433,15.792,8.008a2.227,2.227,0,0,0,.879.122c1.062-.138,1.722-1.634,2.417-2.329l22.354-22.354.633-.634c.081-.081.171-.159.245-.247.3-.35.457-.789.835-1.062-.454.328-3.142-.345-3.779-.393q-2.1-.159-4.212-.19a72.777,72.777,0,0,0-7.693.3,73.67,73.67,0,0,0-15.325,3.047c-4.067,1.275-8.393,2.987-11.566,5.929C2209.8,1635.387,2209.906,1638.895,2212.615,1642.041Z" transform="translate(-2208.33 -1622.166)" fill="#fff4e9" opacity="0.24"/><path d="M2212.615,1642.015a17.14,17.14,0,0,0,2.357,2.25c.764.6,1.99,1.509,3.051,1.019a1.976,1.976,0,0,0,.544-.432q6.832-6.9,13.718-13.739l3.622-3.623,1.739-1.739c.4-.4,1.4-1.062,1.6-1.594.513-1.395-2.069-.605-2.839-.5q-1.972.277-3.927.661a72.608,72.608,0,0,0-7.715,1.958c-4.067,1.275-8.393,2.988-11.566,5.929C2209.8,1635.361,2209.906,1638.868,2212.615,1642.015Z" transform="translate(-2208.33 -1622.14)" fill="#fff4e9" opacity="0.24"/></g><g transform="translate(0 11.581)"><path d="M2199.219,1634.119c3.527,5.193,11.228,7.909,17.261,9.348a82.939,82.939,0,0,0,26.955,1.655c7.675-.75,15.794-2.39,22.484-6.236.59-.339,1.167-.7,1.725-1.08,4.634-3.179,7.306-8.845,4.646-14.1a10.084,10.084,0,0,0-5.229-4.729,21.046,21.046,0,0,0-4.143-1.033c-2.391-.426-4.208-1.474-6.507-2.182a59.044,59.044,0,0,0-8.222-1.882,83.43,83.43,0,0,0-35.86,2.584c-1.874.6-3.79,1.685-5.715,1.879a13.825,13.825,0,0,0-6.24,1.641,6.9,6.9,0,0,0-3.207,3.752,7.833,7.833,0,0,0-.248,2.2A14.139,14.139,0,0,0,2199.219,1634.119Z" transform="translate(-2196.839 -1608.393)" fill="#ffac58"/><path d="M2227.13,1631.963c.084.1.17.2.257.3a26.1,26.1,0,0,0,3.081,2.711,20.41,20.41,0,0,1,5.788,6.729,3.016,3.016,0,0,1,.19,2.9,1.4,1.4,0,0,0-.267.492c-.125.723,4.629.046,5.286-.018,7.675-.75,15.794-2.39,22.484-6.236.59-.339,1.167-.7,1.725-1.08,4.634-3.179,7.305-8.845,4.646-14.1a10.083,10.083,0,0,0-5.229-4.729,21.055,21.055,0,0,0-4.143-1.033c-2.391-.426-4.208-1.474-6.507-2.182q-2.161-.665-4.375-1.156a15.713,15.713,0,0,0-4.343-.759,20.978,20.978,0,0,0-4.313,1.386q-2.343.812-4.627,1.775c-3.712,1.567-7.5,3.628-9.36,7.079a17.773,17.773,0,0,0-1.48,4.421A4.074,4.074,0,0,0,2227.13,1631.963Z" transform="translate(-2194.869 -1608.34)" fill="#f49947"/><path d="M2248.821,1631.365a5.465,5.465,0,0,0,.706,2.776c1.225,2.12,4.011,3.493,4.2,5.909.039.516-.217,1.7.372,1.965.468.209,2.41-.8,2.9-.984a38.441,38.441,0,0,0,5.389-2.543c.59-.339,1.166-.7,1.725-1.08,4.633-3.179,7.306-8.845,4.646-14.1-1.042-2.058-3.651-5.153-6.244-4.332a28.988,28.988,0,0,0-8.868,4.68,13.54,13.54,0,0,0-4.085,4.61A7.213,7.213,0,0,0,2248.821,1631.365Z" transform="translate(-2193.307 -1607.995)" fill="#f49947"/><path d="M2198.967,1629.914a23.282,23.282,0,0,0,8.536,6.009q.266.118.536.236a68.546,68.546,0,0,0,23.113,4.949c14.061.7,28.755-2.329,36.463-7.616,4.61-3.163,6.291-6.97,4.963-10.648-2.121-5.874-11.6-11.247-24.418-13.275a83.412,83.412,0,0,0-35.86,2.584c-5.374,1.728-9.975,4.095-12.721,6.788C2195.981,1622.467,2196.1,1626.392,2198.967,1629.914Z" transform="translate(-2196.844 -1608.687)" fill="#ffd38d"/><path d="M2200.984,1628.5a21.988,21.988,0,0,0,8.063,5.367q.252.107.506.211a67.924,67.924,0,0,0,21.84,4.417c13.287.623,27.173-2.09,34.457-6.817,4.357-2.827,5.947-6.231,4.693-9.516-2-5.25-10.957-10.048-23.07-11.857a83.187,83.187,0,0,0-33.887,2.319c-5.077,1.547-9.426,3.664-12.023,6.071C2198.164,1621.851,2198.274,1625.359,2200.984,1628.5Z" transform="translate(-2196.699 -1608.63)" fill="#fcc67e"/><path d="M2200.984,1628.511c3.99,4.632,10.12,6.433,15.792,8.009a2.241,2.241,0,0,0,.878.121c1.062-.138,1.721-1.634,2.417-2.329l22.354-22.354.634-.633c.081-.081.17-.159.245-.247.3-.35.458-.789.835-1.062-.454.328-3.143-.345-3.779-.393q-2.1-.159-4.211-.19a72.465,72.465,0,0,0-7.695.3,73.663,73.663,0,0,0-15.323,3.046c-4.069,1.275-8.394,2.987-11.568,5.929C2198.164,1621.857,2198.274,1625.366,2200.984,1628.511Z" transform="translate(-2196.699 -1608.636)" fill="#fff4e9" opacity="0.24"/><path d="M2200.984,1628.485a17.059,17.059,0,0,0,2.357,2.249c.764.6,1.99,1.509,3.052,1.019a1.959,1.959,0,0,0,.543-.431q6.833-6.9,13.72-13.739l3.621-3.623,1.738-1.739c.4-.4,1.4-1.062,1.6-1.593.511-1.4-2.07-.606-2.84-.5q-1.971.277-3.927.661a72.633,72.633,0,0,0-7.715,1.958c-4.069,1.275-8.394,2.987-11.568,5.929C2198.164,1621.831,2198.274,1625.34,2200.984,1628.485Z" transform="translate(-2196.699 -1608.61)" fill="#fff4e9" opacity="0.24"/></g><g transform="translate(3.531)"><path d="M2202.524,1623.276c3.528,5.193,11.23,7.909,17.261,9.348a82.941,82.941,0,0,0,26.955,1.656c7.676-.75,15.8-2.39,22.485-6.237.588-.338,1.166-.7,1.725-1.08,4.634-3.179,7.306-8.845,4.646-14.1a10.092,10.092,0,0,0-5.229-4.73,21.133,21.133,0,0,0-4.144-1.032c-2.391-.426-4.207-1.474-6.506-2.182a59.046,59.046,0,0,0-8.222-1.882,83.432,83.432,0,0,0-35.86,2.584c-1.875.6-3.792,1.686-5.715,1.879a13.82,13.82,0,0,0-6.24,1.642,6.9,6.9,0,0,0-3.207,3.752,7.877,7.877,0,0,0-.247,2.2A14.139,14.139,0,0,0,2202.524,1623.276Z" transform="translate(-2200.145 -1597.55)" fill="#ffac58"/><path d="M2230.435,1621.12c.084.1.17.2.257.3a26.225,26.225,0,0,0,3.08,2.711,20.438,20.438,0,0,1,5.789,6.728,3.021,3.021,0,0,1,.19,2.9,1.4,1.4,0,0,0-.268.493c-.124.723,4.629.046,5.286-.018,7.677-.75,15.8-2.39,22.485-6.237.589-.338,1.166-.7,1.725-1.08,4.634-3.178,7.306-8.845,4.646-14.1a10.092,10.092,0,0,0-5.229-4.73,21.133,21.133,0,0,0-4.144-1.032c-2.391-.426-4.207-1.474-6.506-2.182q-2.161-.665-4.376-1.156a15.7,15.7,0,0,0-4.343-.759,20.976,20.976,0,0,0-4.313,1.386q-2.343.812-4.626,1.775c-3.714,1.567-7.5,3.628-9.361,7.079a17.782,17.782,0,0,0-1.479,4.421A4.075,4.075,0,0,0,2230.435,1621.12Z" transform="translate(-2198.174 -1597.497)" fill="#f49947"/><path d="M2252.126,1620.522a5.477,5.477,0,0,0,.706,2.776c1.225,2.12,4.011,3.493,4.2,5.908.041.516-.217,1.7.371,1.965.469.209,2.411-.8,2.9-.984a38.386,38.386,0,0,0,5.39-2.543c.588-.338,1.167-.7,1.725-1.08,4.634-3.179,7.306-8.845,4.646-14.1-1.042-2.058-3.651-5.153-6.244-4.332a28.986,28.986,0,0,0-8.869,4.68,13.546,13.546,0,0,0-4.086,4.61A7.241,7.241,0,0,0,2252.126,1620.522Z" transform="translate(-2196.612 -1597.153)" fill="#f49947"/><path d="M2202.272,1619.071a23.278,23.278,0,0,0,8.536,6.008c.176.08.356.159.536.237a68.534,68.534,0,0,0,23.113,4.949c14.061.7,28.756-2.329,36.463-7.616,4.61-3.162,6.291-6.971,4.963-10.648-2.122-5.875-11.6-11.247-24.418-13.275a83.415,83.415,0,0,0-35.86,2.584c-5.373,1.728-9.975,4.095-12.722,6.789C2199.286,1611.624,2199.4,1615.549,2202.272,1619.071Z" transform="translate(-2200.15 -1597.844)" fill="#ffd38d"/><path d="M2204.29,1617.662a21.99,21.99,0,0,0,8.064,5.367q.252.107.506.212a67.915,67.915,0,0,0,21.84,4.416c13.287.623,27.172-2.09,34.457-6.817,4.357-2.827,5.947-6.231,4.693-9.517-2-5.25-10.958-10.048-23.071-11.857a83.182,83.182,0,0,0-33.886,2.319c-5.079,1.547-9.427,3.663-12.023,6.071C2201.47,1611.008,2201.58,1614.516,2204.29,1617.662Z" transform="translate(-2200.005 -1597.787)" fill="#fcc67e"/><path d="M2204.29,1617.668c3.99,4.632,10.12,6.433,15.792,8.009a2.247,2.247,0,0,0,.879.121c1.062-.138,1.721-1.634,2.417-2.329l22.353-22.354.635-.633c.081-.081.171-.159.246-.247.3-.35.457-.789.834-1.062-.452.328-3.141-.345-3.778-.393q-2.1-.158-4.212-.19a72.507,72.507,0,0,0-7.693.3,73.677,73.677,0,0,0-15.325,3.046c-4.067,1.275-8.393,2.987-11.566,5.929C2201.47,1611.014,2201.58,1614.522,2204.29,1617.668Z" transform="translate(-2200.005 -1597.794)" fill="#fff4e9" opacity="0.24"/><path d="M2204.29,1617.642a17.164,17.164,0,0,0,2.357,2.249c.764.6,1.99,1.509,3.052,1.019a1.951,1.951,0,0,0,.542-.432c4.555-4.6,9.144-9.163,13.719-13.739l3.622-3.623,1.739-1.739c.4-.4,1.4-1.062,1.6-1.594.512-1.4-2.069-.606-2.839-.5q-1.972.278-3.927.661a72.646,72.646,0,0,0-7.716,1.958c-4.067,1.275-8.393,2.987-11.566,5.929C2201.47,1610.988,2201.58,1614.5,2204.29,1617.642Z" transform="translate(-2200.005 -1597.767)" fill="#fff4e9" opacity="0.24"/></g></g><g transform="translate(2370.764 1491.981)"><g transform="translate(14.443 33.348)"><path d="M2372.607,1534.066c2.919,3.885,9.3,5.914,14.293,6.988a75.883,75.883,0,0,0,22.327,1.227c6.358-.565,13.085-1.8,18.627-4.676.488-.254.967-.522,1.43-.81,3.839-2.381,6.055-6.622,3.854-10.552a8.1,8.1,0,0,0-4.329-3.537,19.057,19.057,0,0,0-3.431-.77,47.175,47.175,0,0,1-5.389-1.631,53.368,53.368,0,0,0-6.81-1.4,76.219,76.219,0,0,0-29.7,1.948,26.6,26.6,0,0,1-4.735,1.409,12.438,12.438,0,0,0-5.17,1.231,4.471,4.471,0,0,0-2.863,4.454A9.824,9.824,0,0,0,2372.607,1534.066Z" transform="translate(-2370.64 -1514.798)" fill="#ffac58"/><path d="M2395.727,1532.441c.07.075.14.148.213.222a21.156,21.156,0,0,0,2.551,2.027,15.792,15.792,0,0,1,4.791,5.033,2.068,2.068,0,0,1,.156,2.166,1.016,1.016,0,0,0-.221.37c-.1.541,3.834.032,4.378-.016,6.358-.565,13.085-1.8,18.627-4.676.488-.254.967-.522,1.43-.81,3.839-2.381,6.055-6.622,3.854-10.552a8.1,8.1,0,0,0-4.329-3.537,19.052,19.052,0,0,0-3.431-.77,47.2,47.2,0,0,1-5.389-1.631q-1.789-.5-3.624-.862a14.231,14.231,0,0,0-3.6-.567,18.787,18.787,0,0,0-3.573,1.039q-1.942.609-3.832,1.331c-3.077,1.174-6.219,2.718-7.757,5.3a12.492,12.492,0,0,0-1.228,3.309A2.875,2.875,0,0,0,2395.727,1532.441Z" transform="translate(-2369.008 -1514.759)" fill="#f49947"/><path d="M2413.7,1531.983a3.79,3.79,0,0,0,.583,2.078c1.015,1.586,3.322,2.611,3.476,4.419.033.385-.181,1.274.307,1.471.388.156,2-.6,2.4-.738a33.512,33.512,0,0,0,4.465-1.9c.488-.254.967-.522,1.43-.81,3.839-2.381,6.055-6.622,3.854-10.551-.862-1.539-3.022-3.855-5.17-3.238a24.989,24.989,0,0,0-7.348,3.505,10.564,10.564,0,0,0-3.385,3.452A4.986,4.986,0,0,0,2413.7,1531.983Z" transform="translate(-2367.714 -1514.502)" fill="#f49947"/><path d="M2372.4,1530.919a19.346,19.346,0,0,0,7.069,4.492c.146.06.293.119.443.177a61.974,61.974,0,0,0,19.143,3.694c11.647.518,23.82-1.756,30.207-5.716,3.82-2.368,5.214-5.219,4.115-7.97-1.754-4.4-9.6-8.412-20.22-9.923a76.227,76.227,0,0,0-29.706,1.948c-4.452,1.3-8.264,3.068-10.541,5.086C2369.93,1525.348,2370.025,1528.285,2372.4,1530.919Z" transform="translate(-2370.644 -1515.018)" fill="#ffd38d"/><path d="M2374.072,1529.864a18.412,18.412,0,0,0,6.677,4.013c.139.053.278.106.42.158a61.446,61.446,0,0,0,18.087,3.3c11.006.46,22.51-1.575,28.545-5.117,3.61-2.118,4.928-4.665,3.891-7.123-1.656-3.928-9.072-7.516-19.1-8.864a76.025,76.025,0,0,0-28.07,1.75c-4.207,1.16-7.81,2.746-9.963,4.549C2371.739,1524.886,2371.829,1527.51,2374.072,1529.864Z" transform="translate(-2370.524 -1514.976)" fill="#fcc67e"/><path d="M2374.072,1529.869c3.3,3.465,8.38,4.809,13.077,5.986a2.032,2.032,0,0,0,.728.091c.879-.1,1.427-1.224,2-1.745l18.525-16.738.526-.474c.067-.061.142-.12.2-.185.25-.263.379-.591.692-.795-.376.246-2.6-.257-3.13-.292q-1.74-.119-3.488-.141c-2.126-.028-4.255.05-6.373.225a66.857,66.857,0,0,0-12.695,2.287c-3.37.956-6.953,2.239-9.584,4.442C2371.739,1524.891,2371.829,1527.515,2374.072,1529.869Z" transform="translate(-2370.524 -1514.981)" fill="#fff4e9" opacity="0.24"/><path d="M2374.072,1529.849a13.739,13.739,0,0,0,1.951,1.682c.632.451,1.648,1.129,2.527.761a1.616,1.616,0,0,0,.451-.324c3.774-3.442,7.577-6.861,11.37-10.287l3-2.712,1.441-1.3c.335-.3,1.162-.8,1.325-1.194.424-1.043-1.714-.452-2.352-.37q-1.634.21-3.254.5c-2.157.384-4.293.874-6.392,1.468-3.37.956-6.953,2.239-9.584,4.442C2371.739,1524.871,2371.829,1527.5,2374.072,1529.849Z" transform="translate(-2370.524 -1514.961)" fill="#fff4e9" opacity="0.24"/></g><g transform="translate(7.773 25.556)"><path d="M2366.362,1526.771c2.919,3.885,9.3,5.914,14.294,6.988a75.917,75.917,0,0,0,22.327,1.227c6.358-.565,13.084-1.8,18.627-4.677q.732-.38,1.429-.809c3.838-2.381,6.055-6.623,3.854-10.552a8.093,8.093,0,0,0-4.33-3.537,18.961,18.961,0,0,0-3.432-.77,47.344,47.344,0,0,1-5.388-1.631,53.243,53.243,0,0,0-6.809-1.4,76.231,76.231,0,0,0-29.706,1.948,26.67,26.67,0,0,1-4.735,1.409,12.438,12.438,0,0,0-5.169,1.231,4.476,4.476,0,0,0-2.864,4.453A9.84,9.84,0,0,0,2366.362,1526.771Z" transform="translate(-2364.396 -1507.503)" fill="#ffac58"/><path d="M2389.483,1525.145c.069.076.141.15.212.222a21.266,21.266,0,0,0,2.55,2.028,15.818,15.818,0,0,1,4.792,5.032,2.071,2.071,0,0,1,.156,2.167,1.036,1.036,0,0,0-.222.369c-.1.543,3.834.033,4.379-.015,6.358-.565,13.084-1.8,18.627-4.677q.732-.38,1.429-.809c3.839-2.381,6.055-6.623,3.855-10.551a8.1,8.1,0,0,0-4.33-3.537,18.992,18.992,0,0,0-3.432-.77,47.345,47.345,0,0,1-5.388-1.631q-1.789-.5-3.624-.863a14.262,14.262,0,0,0-3.6-.566,18.707,18.707,0,0,0-3.574,1.039q-1.942.609-3.833,1.33c-3.077,1.174-6.218,2.718-7.756,5.3a12.432,12.432,0,0,0-1.227,3.309A2.868,2.868,0,0,0,2389.483,1525.145Z" transform="translate(-2362.764 -1507.464)" fill="#f49947"/><path d="M2407.45,1524.689a3.777,3.777,0,0,0,.584,2.076c1.014,1.586,3.321,2.612,3.475,4.421.032.386-.18,1.273.307,1.47.388.157,2-.6,2.4-.737a33.763,33.763,0,0,0,4.466-1.905q.732-.38,1.429-.809c3.839-2.381,6.055-6.623,3.855-10.551-.863-1.54-3.022-3.855-5.171-3.239a25.024,25.024,0,0,0-7.348,3.506,10.566,10.566,0,0,0-3.386,3.451A5.007,5.007,0,0,0,2407.45,1524.689Z" transform="translate(-2361.469 -1507.206)" fill="#f49947"/><path d="M2366.156,1523.623a19.325,19.325,0,0,0,7.067,4.493q.22.09.444.176a61.946,61.946,0,0,0,19.143,3.694c11.647.519,23.82-1.755,30.206-5.715,3.821-2.369,5.215-5.219,4.116-7.97-1.755-4.4-9.6-8.412-20.221-9.925a76.241,76.241,0,0,0-29.7,1.948c-4.453,1.3-8.265,3.07-10.542,5.086C2363.685,1518.053,2363.781,1520.99,2366.156,1523.623Z" transform="translate(-2364.4 -1507.723)" fill="#ffd38d"/><path d="M2367.827,1522.568a18.413,18.413,0,0,0,6.677,4.014q.208.08.42.158a61.529,61.529,0,0,0,18.088,3.3c11.006.46,22.51-1.576,28.545-5.117,3.61-2.118,4.929-4.665,3.892-7.124-1.658-3.927-9.073-7.515-19.105-8.863a76.031,76.031,0,0,0-28.07,1.749c-4.207,1.16-7.81,2.745-9.962,4.549C2365.494,1517.59,2365.584,1520.215,2367.827,1522.568Z" transform="translate(-2364.28 -1507.68)" fill="#fcc67e"/><path d="M2367.827,1522.573c3.3,3.466,8.38,4.811,13.077,5.988a2.065,2.065,0,0,0,.728.091c.879-.1,1.426-1.225,2-1.745l18.525-16.739.524-.474c.067-.061.142-.119.205-.184.25-.263.378-.591.691-.795-.376.245-2.6-.257-3.13-.293q-1.742-.118-3.489-.141-3.19-.042-6.373.225a66.828,66.828,0,0,0-12.694,2.287c-3.37.956-6.955,2.239-9.584,4.442C2365.494,1517.595,2365.584,1520.22,2367.827,1522.573Z" transform="translate(-2364.28 -1507.685)" fill="#fff4e9" opacity="0.24"/><path d="M2367.827,1522.553a13.612,13.612,0,0,0,1.952,1.682c.631.451,1.647,1.129,2.526.761a1.6,1.6,0,0,0,.451-.323q5.663-5.163,11.37-10.288l3-2.713,1.44-1.3c.335-.3,1.162-.795,1.324-1.193.425-1.045-1.714-.453-2.352-.371q-1.632.208-3.253.5a65.378,65.378,0,0,0-6.391,1.469c-3.37.956-6.955,2.239-9.584,4.442C2365.494,1517.575,2365.584,1520.2,2367.827,1522.553Z" transform="translate(-2364.28 -1507.665)" fill="#fff4e9" opacity="0.24"/></g><g transform="translate(11.108 14.451)"><path d="M2369.484,1516.373c2.919,3.885,9.3,5.914,14.294,6.988a75.864,75.864,0,0,0,22.327,1.227c6.358-.565,13.085-1.8,18.627-4.676.488-.254.967-.522,1.429-.809,3.839-2.381,6.054-6.622,3.854-10.552a8.1,8.1,0,0,0-4.329-3.537,19.086,19.086,0,0,0-3.433-.77,47.31,47.31,0,0,1-5.388-1.631,53.342,53.342,0,0,0-6.809-1.4,76.222,76.222,0,0,0-29.705,1.948,26.637,26.637,0,0,1-4.735,1.409,12.432,12.432,0,0,0-5.169,1.231,4.476,4.476,0,0,0-2.865,4.454A9.838,9.838,0,0,0,2369.484,1516.373Z" transform="translate(-2367.518 -1497.105)" fill="#ffac58"/><path d="M2392.606,1514.748c.069.075.139.148.213.222a21.019,21.019,0,0,0,2.551,2.027,15.81,15.81,0,0,1,4.791,5.033,2.068,2.068,0,0,1,.156,2.166,1.041,1.041,0,0,0-.222.369c-.1.542,3.835.033,4.379-.015,6.358-.565,13.085-1.8,18.627-4.676.489-.254.967-.522,1.429-.81,3.84-2.381,6.055-6.622,3.854-10.552a8.1,8.1,0,0,0-4.329-3.538,19.082,19.082,0,0,0-3.433-.77,47.317,47.317,0,0,1-5.388-1.631q-1.79-.5-3.624-.862a14.227,14.227,0,0,0-3.6-.567,18.786,18.786,0,0,0-3.573,1.039q-1.942.609-3.834,1.331c-3.076,1.174-6.217,2.718-7.756,5.3a12.39,12.39,0,0,0-1.227,3.309A2.874,2.874,0,0,0,2392.606,1514.748Z" transform="translate(-2365.886 -1497.066)" fill="#f49947"/><path d="M2410.573,1514.291a3.789,3.789,0,0,0,.583,2.077c1.014,1.586,3.322,2.611,3.476,4.42.032.386-.18,1.274.306,1.471.389.156,2-.6,2.4-.738a33.557,33.557,0,0,0,4.466-1.9c.488-.254.967-.522,1.429-.81,3.84-2.38,6.055-6.622,3.855-10.552-.862-1.539-3.022-3.855-5.171-3.238a24.99,24.99,0,0,0-7.347,3.505,10.581,10.581,0,0,0-3.387,3.452A4.985,4.985,0,0,0,2410.573,1514.291Z" transform="translate(-2364.592 -1496.809)" fill="#f49947"/><path d="M2369.278,1513.226a19.35,19.35,0,0,0,7.067,4.492c.146.06.295.118.444.177a61.974,61.974,0,0,0,19.143,3.694c11.647.518,23.82-1.756,30.206-5.716,3.821-2.368,5.214-5.219,4.116-7.97-1.754-4.4-9.6-8.412-20.221-9.923a76.23,76.23,0,0,0-29.705,1.948c-4.452,1.3-8.264,3.069-10.541,5.086C2366.808,1507.655,2366.9,1510.593,2369.278,1513.226Z" transform="translate(-2367.522 -1497.325)" fill="#ffd38d"/><path d="M2370.95,1512.171a18.392,18.392,0,0,0,6.677,4.013c.138.053.278.106.419.158a61.465,61.465,0,0,0,18.089,3.3c11.005.46,22.509-1.575,28.544-5.117,3.611-2.118,4.929-4.665,3.892-7.123-1.658-3.928-9.072-7.516-19.1-8.864a76.031,76.031,0,0,0-28.071,1.75c-4.207,1.16-7.81,2.746-9.962,4.549C2368.616,1507.193,2368.707,1509.817,2370.95,1512.171Z" transform="translate(-2367.402 -1497.283)" fill="#fcc67e"/><path d="M2370.95,1512.176c3.3,3.465,8.379,4.81,13.077,5.987a2.028,2.028,0,0,0,.727.09c.879-.1,1.427-1.224,2-1.745l18.525-16.738.526-.474c.067-.061.142-.12.2-.185.25-.263.379-.591.691-.795-.376.246-2.6-.257-3.13-.293q-1.741-.118-3.488-.141c-2.126-.028-4.255.05-6.373.225a66.826,66.826,0,0,0-12.695,2.287c-3.37.956-6.954,2.239-9.584,4.442C2368.616,1507.2,2368.707,1509.822,2370.95,1512.176Z" transform="translate(-2367.402 -1497.288)" fill="#fff4e9" opacity="0.24"/><path d="M2370.95,1512.156a13.6,13.6,0,0,0,1.951,1.682c.632.451,1.648,1.129,2.527.762a1.612,1.612,0,0,0,.45-.324c3.775-3.443,7.578-6.861,11.371-10.287l3-2.712,1.441-1.3c.334-.3,1.162-.8,1.324-1.194.425-1.043-1.714-.452-2.351-.37q-1.634.21-3.253.5-3.238.577-6.392,1.468c-3.37.956-6.954,2.239-9.584,4.442C2368.616,1507.178,2368.707,1509.8,2370.95,1512.156Z" transform="translate(-2367.402 -1497.268)" fill="#fff4e9" opacity="0.24"/></g><g transform="translate(5.34 9.386)"><path d="M2364.084,1511.631c2.919,3.885,9.3,5.914,14.294,6.988a75.908,75.908,0,0,0,22.327,1.227c6.357-.565,13.083-1.8,18.626-4.677q.734-.38,1.43-.809c3.839-2.381,6.055-6.623,3.855-10.551a8.1,8.1,0,0,0-4.33-3.537,18.969,18.969,0,0,0-3.431-.77,47.233,47.233,0,0,1-5.389-1.631,53.222,53.222,0,0,0-6.81-1.4,76.22,76.22,0,0,0-29.705,1.948,26.626,26.626,0,0,1-4.734,1.409,12.434,12.434,0,0,0-5.17,1.231,4.475,4.475,0,0,0-2.863,4.453A9.839,9.839,0,0,0,2364.084,1511.631Z" transform="translate(-2362.117 -1492.363)" fill="#ffac58"/><path d="M2387.2,1510c.07.076.141.15.212.222a21.267,21.267,0,0,0,2.551,2.028,15.805,15.805,0,0,1,4.792,5.032,2.073,2.073,0,0,1,.156,2.167,1.034,1.034,0,0,0-.222.369c-.1.543,3.834.033,4.379-.015,6.357-.565,13.084-1.8,18.626-4.677q.734-.38,1.43-.809c3.839-2.381,6.055-6.623,3.854-10.551a8.1,8.1,0,0,0-4.33-3.537,18.987,18.987,0,0,0-3.432-.77,47.228,47.228,0,0,1-5.389-1.631q-1.79-.5-3.624-.863a14.282,14.282,0,0,0-3.6-.566,18.817,18.817,0,0,0-3.573,1.039q-1.941.609-3.832,1.33c-3.077,1.174-6.218,2.719-7.757,5.3a12.474,12.474,0,0,0-1.229,3.309A2.873,2.873,0,0,0,2387.2,1510Z" transform="translate(-2360.485 -1492.324)" fill="#f49947"/><path d="M2405.172,1509.549a3.774,3.774,0,0,0,.584,2.076c1.014,1.586,3.322,2.612,3.475,4.421.033.386-.18,1.273.308,1.47.387.157,2-.6,2.4-.737a33.533,33.533,0,0,0,4.465-1.905q.734-.38,1.43-.809c3.839-2.381,6.055-6.623,3.855-10.551-.863-1.54-3.023-3.855-5.171-3.239a25.039,25.039,0,0,0-7.348,3.506,10.571,10.571,0,0,0-3.386,3.451A5,5,0,0,0,2405.172,1509.549Z" transform="translate(-2359.191 -1492.066)" fill="#f49947"/><path d="M2363.878,1508.483a19.321,19.321,0,0,0,7.067,4.493c.146.06.295.118.443.176a61.941,61.941,0,0,0,19.143,3.695c11.647.519,23.821-1.755,30.207-5.715,3.82-2.369,5.214-5.219,4.116-7.97-1.756-4.4-9.6-8.412-20.22-9.924a76.233,76.233,0,0,0-29.707,1.949c-4.451,1.3-8.264,3.069-10.541,5.086C2361.407,1502.912,2361.5,1505.849,2363.878,1508.483Z" transform="translate(-2362.122 -1492.583)" fill="#ffd38d"/><path d="M2365.549,1507.428a18.41,18.41,0,0,0,6.677,4.014l.42.158a61.529,61.529,0,0,0,18.087,3.3c11.007.46,22.51-1.577,28.546-5.117,3.61-2.118,4.928-4.665,3.891-7.124-1.657-3.927-9.072-7.515-19.1-8.863a76.03,76.03,0,0,0-28.07,1.749c-4.207,1.16-7.81,2.745-9.962,4.549C2363.216,1502.45,2363.306,1505.075,2365.549,1507.428Z" transform="translate(-2362.001 -1492.54)" fill="#fcc67e"/><path d="M2365.549,1507.433c3.3,3.466,8.38,4.811,13.077,5.988a2.065,2.065,0,0,0,.728.09c.879-.1,1.426-1.225,2-1.745l18.526-16.738.525-.475c.067-.06.142-.119.2-.184.25-.263.379-.591.692-.795-.376.245-2.6-.257-3.129-.293q-1.741-.118-3.49-.141c-2.126-.028-4.255.049-6.373.226a66.815,66.815,0,0,0-12.694,2.287c-3.37.956-6.954,2.239-9.584,4.442C2363.216,1502.455,2363.306,1505.08,2365.549,1507.433Z" transform="translate(-2362.001 -1492.545)" fill="#fff4e9" opacity="0.24"/><path d="M2365.549,1507.413a13.572,13.572,0,0,0,1.952,1.682c.631.452,1.647,1.129,2.526.762a1.594,1.594,0,0,0,.451-.323q5.663-5.164,11.369-10.288l3-2.713,1.441-1.3c.335-.3,1.162-.794,1.325-1.193.425-1.045-1.714-.453-2.352-.371q-1.633.208-3.254.5a65.336,65.336,0,0,0-6.391,1.469c-3.37.956-6.954,2.239-9.584,4.442C2363.216,1502.435,2363.306,1505.06,2365.549,1507.413Z" transform="translate(-2362.001 -1492.525)" fill="#fff4e9" opacity="0.24"/></g><path d="M2359.084,1502.843c2.919,3.885,9.3,5.914,14.294,6.988a75.886,75.886,0,0,0,22.327,1.227c6.358-.564,13.085-1.8,18.627-4.676.488-.254.967-.522,1.429-.81,3.84-2.381,6.055-6.622,3.854-10.552a8.1,8.1,0,0,0-4.329-3.537,19.089,19.089,0,0,0-3.432-.77,47.275,47.275,0,0,1-5.39-1.631,53.4,53.4,0,0,0-6.809-1.4,76.222,76.222,0,0,0-29.705,1.948,26.624,26.624,0,0,1-4.735,1.409,12.445,12.445,0,0,0-5.169,1.231,4.469,4.469,0,0,0-2.863,4.454A9.827,9.827,0,0,0,2359.084,1502.843Z" transform="translate(-2357.117 -1483.575)" fill="#ffac58"/><path d="M2382.206,1501.218c.07.075.14.149.212.222a21.16,21.16,0,0,0,2.551,2.027,15.809,15.809,0,0,1,4.791,5.033,2.07,2.07,0,0,1,.156,2.167,1.01,1.01,0,0,0-.221.369c-.1.541,3.834.032,4.378-.016,6.358-.564,13.085-1.8,18.627-4.676.488-.254.966-.522,1.429-.81,3.84-2.381,6.055-6.622,3.854-10.552a8.1,8.1,0,0,0-4.329-3.537,19.093,19.093,0,0,0-3.431-.77,47.269,47.269,0,0,1-5.39-1.631q-1.79-.5-3.623-.862a14.241,14.241,0,0,0-3.6-.567,18.787,18.787,0,0,0-3.573,1.039q-1.942.609-3.833,1.331c-3.076,1.174-6.217,2.718-7.756,5.3a12.4,12.4,0,0,0-1.227,3.308A2.874,2.874,0,0,0,2382.206,1501.218Z" transform="translate(-2355.486 -1483.536)" fill="#f49947"/><path d="M2400.173,1500.76a3.789,3.789,0,0,0,.583,2.078c1.014,1.586,3.322,2.611,3.475,4.42.033.386-.18,1.274.307,1.471.389.156,2-.6,2.4-.738a33.626,33.626,0,0,0,4.466-1.9c.488-.254.966-.522,1.429-.81,3.84-2.381,6.055-6.622,3.855-10.552-.862-1.539-3.021-3.855-5.171-3.238a24.994,24.994,0,0,0-7.347,3.505,10.575,10.575,0,0,0-3.386,3.452A4.99,4.99,0,0,0,2400.173,1500.76Z" transform="translate(-2354.192 -1483.279)" fill="#f49947"/><path d="M2358.878,1499.7a19.359,19.359,0,0,0,7.068,4.493l.444.176a61.978,61.978,0,0,0,19.143,3.694c11.647.518,23.82-1.756,30.206-5.716,3.821-2.368,5.214-5.219,4.116-7.97-1.755-4.4-9.6-8.412-20.221-9.923a76.216,76.216,0,0,0-29.705,1.948c-4.452,1.3-8.264,3.068-10.541,5.086C2356.407,1494.125,2356.5,1497.063,2358.878,1499.7Z" transform="translate(-2357.122 -1483.795)" fill="#ffd38d"/><path d="M2360.55,1498.641a18.387,18.387,0,0,0,6.677,4.013c.137.053.278.106.418.158a61.461,61.461,0,0,0,18.089,3.3c11.005.46,22.509-1.575,28.544-5.117,3.611-2.117,4.929-4.665,3.892-7.123-1.658-3.928-9.073-7.516-19.1-8.864a76.06,76.06,0,0,0-28.071,1.75c-4.207,1.16-7.81,2.746-9.962,4.549C2358.217,1493.663,2358.306,1496.288,2360.55,1498.641Z" transform="translate(-2357.001 -1483.753)" fill="#fcc67e"/><path d="M2360.55,1498.646c3.3,3.465,8.379,4.81,13.077,5.986a2.028,2.028,0,0,0,.727.091c.879-.1,1.427-1.224,2-1.745l18.526-16.738.526-.474c.067-.061.142-.12.2-.185.25-.263.379-.591.691-.794-.376.246-2.6-.258-3.129-.293q-1.742-.118-3.489-.141c-2.126-.028-4.255.05-6.373.225a66.842,66.842,0,0,0-12.7,2.287c-3.37.956-6.955,2.239-9.584,4.442C2358.217,1493.668,2358.306,1496.293,2360.55,1498.646Z" transform="translate(-2357.001 -1483.758)" fill="#fff4e9" opacity="0.24"/><path d="M2360.55,1498.626a13.579,13.579,0,0,0,1.951,1.682c.632.451,1.648,1.129,2.527.761a1.641,1.641,0,0,0,.451-.324c3.774-3.442,7.577-6.861,11.369-10.287l3-2.712,1.441-1.3c.334-.3,1.162-.8,1.323-1.194.425-1.044-1.715-.452-2.351-.371q-1.634.21-3.253.5c-2.158.385-4.294.874-6.392,1.469-3.37.956-6.955,2.239-9.584,4.442C2358.217,1493.648,2358.306,1496.273,2360.55,1498.626Z" transform="translate(-2357.001 -1483.738)" fill="#fff4e9" opacity="0.24"/></g><g transform="translate(2221.956 1479.994)"><rect width="111.088" height="69.915" rx="10.061" fill="#b55447"/><rect width="23.305" height="16.314" rx="5.261" transform="translate(6.222 10.083)" fill="#a53e34"/><rect width="41.949" height="7.854" rx="3.677" transform="translate(62.936 2.342)" fill="#a53e34"/><rect width="41.949" height="7.854" rx="3.677" transform="translate(6.204 55.835)" fill="#a53e34"/><rect width="24.082" height="7.854" rx="3.677" transform="translate(5.439 29.418)" fill="#fff" opacity="0.33"/><rect width="24.082" height="7.854" rx="3.677" transform="translate(31.074 29.515)" fill="#fff" opacity="0.33"/><rect width="24.082" height="7.854" rx="3.677" transform="translate(56.71 29.44)" fill="#fff" opacity="0.33"/><rect width="24.082" height="7.854" rx="3.677" transform="translate(82.346 29.536)" fill="#fff" opacity="0.33"/><g transform="translate(87.772 55.172)"><path d="M2311.838,1524.23a5.419,5.419,0,0,0-3.5,1.272,5.436,5.436,0,0,1,0,8.329,5.438,5.438,0,1,0,3.5-9.6Z" transform="translate(-2299.406 -1524.228)" fill="#fff" stroke="#000" stroke-miterlimit="10" stroke-width="0.578"/><path d="M2306.967,1529.667a5.426,5.426,0,0,1,1.944-4.164,5.438,5.438,0,1,0,0,8.329A5.423,5.423,0,0,1,2306.967,1529.667Z" transform="translate(-2299.975 -1524.228)" fill="#fff" stroke="#000" stroke-miterlimit="10" stroke-width="0.578"/><ellipse cx="1.942" cy="4.164" rx="1.942" ry="4.164" transform="translate(6.991 1.275)" fill="#fff" stroke="#000" stroke-miterlimit="10" stroke-width="0.578"/></g></g><g transform="translate(2256.851 1390.084)"><rect width="151.113" height="205.662" rx="8.557" transform="translate(0 9.435)" fill="#0a303a" stroke="#0a303a" stroke-miterlimit="10" stroke-width="1.619"/><path d="M2259.609,1602.925a9.167,9.167,0,0,1-9.141-9.141V1406.4a9.167,9.167,0,0,1,9.141-9.14H2283.3c4.033,0,8.158-.253,12.179-.011a.793.793,0,0,0,.1-.532h24.832c.329,0,.658-.01.988-.014v20.27c1.4,1.068,2.389,1.411,2.383,3.227-.005,1.633,0,3.266,0,4.9v165.552c0,3.409.721,6.888.171,10.284-.358,2.215-.741,1.987-2.868,1.987q-2.981,0-5.964,0h-55.513Z" transform="translate(-2250.468 -1387.826)" fill="#10414c"/><rect width="140.444" height="189.703" rx="8.557" transform="translate(5.037 20.738)" fill="#ffdca9"/><rect width="130.813" height="176.666" rx="8.557" transform="translate(10.446 24.309)" fill="#ffb96c"/><path d="M2320.613,1584.626q0,1.588,0,3.177c-2.447,0-4.9.125-7.333.122q-4.284-.008-8.568-.034c-5.393-.029-10.908-.066-16.224-.066h-19.1a9.166,9.166,0,0,1-9.139-9.14V1420.3a9.166,9.166,0,0,1,9.139-9.14h38.634c4.152,0,8.31-.1,12.465-.1,0,8.679.247,17.287.247,25.98V1493q0,15.789,0,31.578v28.5C2320.733,1563.606,2320.631,1574.105,2320.613,1584.626Z" transform="translate(-2249.802 -1386.849)" fill="#fccb88"/><path d="M2370.218,1388.392h-16.084a5.32,5.32,0,0,0-5.174,5.457v22.6a5.32,5.32,0,0,0,5.174,5.457h16.084a5.321,5.321,0,0,0,5.174-5.457v-22.6A5.321,5.321,0,0,0,2370.218,1388.392Zm-.318,23.581a5.321,5.321,0,0,1-5.174,5.457h-5.672a5.321,5.321,0,0,1-5.174-5.457V1398.81a5.322,5.322,0,0,1,5.174-5.458h5.672a5.322,5.322,0,0,1,5.174,5.458Z" transform="translate(-2243.764 -1388.392)" fill="#ce7125" stroke="#ce7125" stroke-miterlimit="10" stroke-width="0.925"/><rect width="118.786" height="14.123" rx="4.568" transform="translate(16.052 70.613)" fill="#ffe5c2"/><rect width="118.786" height="14.123" rx="4.568" transform="translate(16.052 91.253)" fill="#ffe5c2"/><rect width="118.786" height="14.123" rx="4.568" transform="translate(16.052 111.894)" fill="#ffdca9"/><rect width="118.786" height="14.123" rx="4.568" transform="translate(16.052 132.535)" fill="#ffdca9"/><rect width="118.786" height="14.123" rx="4.568" transform="translate(16.052 154.262)" fill="#f9cd93"/><g transform="translate(29.965 44.033)"><path d="M2279.131,1442.693a9.969,9.969,0,0,0,4.308.993c2.458,0,3.894-1.062,3.894-2.6,0-1.423-.994-2.235-3.507-3.026-3.039-.881-4.917-2.168-4.917-4.313,0-2.371,2.4-4.132,6.021-4.132a10,10,0,0,1,4.115.746l-.662,1.6a8.723,8.723,0,0,0-3.535-.723c-2.541,0-3.509,1.242-3.509,2.28,0,1.422,1.133,2.123,3.7,2.936,3.149.993,4.751,2.235,4.751,4.471,0,2.348-2.127,4.38-6.518,4.38a11.351,11.351,0,0,1-4.751-.971Z" transform="translate(-2278.523 -1429.619)" fill="#ce7125" stroke="#ce7125" stroke-miterlimit="10" stroke-width="0.925"/><path d="M2294.554,1429.852v15.219h-2.4v-15.219Z" transform="translate(-2277.595 -1429.603)" fill="#ce7125" stroke="#ce7125" stroke-miterlimit="10" stroke-width="0.925"/><path d="M2312.571,1444.4a20.779,20.779,0,0,1-5.717.836,10.924,10.924,0,0,1-6.96-2.01,7.1,7.1,0,0,1-2.6-5.667c.027-4.539,3.839-7.858,10.082-7.858a13.761,13.761,0,0,1,4.639.7l-.58,1.6a11.534,11.534,0,0,0-4.115-.655c-4.53,0-7.485,2.3-7.485,6.119,0,3.861,2.844,6.141,7.181,6.141a9.428,9.428,0,0,0,3.2-.406v-4.538h-3.784v-1.581h6.131Z" transform="translate(-2277.245 -1429.613)" fill="#ce7125" stroke="#ce7125" stroke-miterlimit="10" stroke-width="0.925"/><path d="M2315.038,1445.071v-15.219h2.625l5.966,7.7a41.559,41.559,0,0,1,3.342,4.945l.054-.023a55.569,55.569,0,0,1-.275-6.255v-6.367h2.264v15.219h-2.43l-5.91-7.723a46.505,46.505,0,0,1-3.481-5.08l-.083.022c.138,1.919.194,3.748.194,6.277v6.5Z" transform="translate(-2276.037 -1429.603)" fill="#ce7125" stroke="#ce7125" stroke-miterlimit="10" stroke-width="0.925"/><path d="M2339.941,1429.852v9.009c0,3.409,1.851,4.854,4.336,4.854,2.762,0,4.531-1.49,4.531-4.854v-9.009h2.43v8.874c0,4.674-3.011,6.593-7.043,6.593-3.812,0-6.684-1.784-6.684-6.5v-8.964Z" transform="translate(-2274.508 -1429.603)" fill="#ce7125" stroke="#ce7125" stroke-miterlimit="10" stroke-width="0.925"/><path d="M2354.268,1430.04a33.958,33.958,0,0,1,4.613-.294,8.852,8.852,0,0,1,5.22,1.265,3.782,3.782,0,0,1,1.63,3.184,4.043,4.043,0,0,1-1.436,3.251,8.774,8.774,0,0,1-5.69,1.671,10.119,10.119,0,0,1-1.933-.135v6.1h-2.4Zm2.4,7.339a9.843,9.843,0,0,0,1.989.158c2.9,0,4.667-1.153,4.667-3.252,0-2.009-1.74-2.98-4.392-2.98a12.2,12.2,0,0,0-2.264.158Z" transform="translate(-2273.367 -1429.61)" fill="#ce7125" stroke="#ce7125" stroke-miterlimit="10" stroke-width="0.925"/></g><path d="M2372.367,1388.931h-16.084a5.322,5.322,0,0,0-5.175,5.458v22.6a5.321,5.321,0,0,0,5.175,5.457h16.084a5.321,5.321,0,0,0,5.174-5.457v-22.6A5.322,5.322,0,0,0,2372.367,1388.931Zm-.318,23.582a5.321,5.321,0,0,1-5.174,5.457H2361.2a5.321,5.321,0,0,1-5.174-5.457V1399.35a5.321,5.321,0,0,1,5.174-5.458h5.672a5.322,5.322,0,0,1,5.174,5.458Z" transform="translate(-2243.618 -1388.355)" fill="#a35821"/><path d="M2370.218,1388.392h-16.084a5.32,5.32,0,0,0-5.174,5.457v22.6a5.32,5.32,0,0,0,5.174,5.457h16.084a5.321,5.321,0,0,0,5.174-5.457v-22.6A5.321,5.321,0,0,0,2370.218,1388.392Zm-.318,23.581a5.321,5.321,0,0,1-5.174,5.457h-5.672a5.321,5.321,0,0,1-5.174-5.457V1398.81a5.322,5.322,0,0,1,5.174-5.458h5.672a5.322,5.322,0,0,1,5.174,5.458Z" transform="translate(-2243.764 -1388.392)" fill="#ce7125" stroke="#ce7125" stroke-miterlimit="10" stroke-width="0.925"/></g><g transform="translate(2199.297 1532.431)"><rect width="111.088" height="69.915" rx="10.061" fill="#ffaf8f"/><rect width="23.305" height="16.314" rx="5.261" transform="translate(6.222 10.083)" fill="#c44931" opacity="0.61"/><rect width="41.949" height="7.854" rx="3.677" transform="translate(62.936 2.343)" fill="#b53f30" opacity="0.61"/><rect width="41.949" height="7.854" rx="3.677" transform="translate(6.204 55.835)" fill="#ffd0b6" opacity="0.61"/><rect width="24.082" height="7.854" rx="3.677" transform="translate(5.438 29.418)" fill="#ffd0b6" opacity="0.61"/><rect width="24.082" height="7.854" rx="3.677" transform="translate(31.074 29.515)" fill="#ffd0b6" opacity="0.61"/><rect width="24.082" height="7.854" rx="3.677" transform="translate(56.71 29.44)" fill="#fff" stroke="#000" stroke-miterlimit="10" stroke-width="0.231"/><rect width="24.082" height="7.854" rx="3.677" transform="translate(82.345 29.536)" fill="#ffd0b6" opacity="0.61"/><g transform="translate(87.772 55.172)"><path d="M2290.623,1573.325a5.42,5.42,0,0,0-3.5,1.272,5.435,5.435,0,0,1,0,8.329,5.437,5.437,0,1,0,3.5-9.6Z" transform="translate(-2278.191 -1573.323)" fill="#b53f30" opacity="0.61"/><path d="M2285.752,1578.762a5.427,5.427,0,0,1,1.944-4.164,5.438,5.438,0,1,0,0,8.329A5.422,5.422,0,0,1,2285.752,1578.762Z" transform="translate(-2278.76 -1573.323)" fill="#721d16" opacity="0.61"/><ellipse cx="1.942" cy="4.164" rx="1.942" ry="4.164" transform="translate(6.992 1.275)" fill="#a0261d" opacity="0.61"/></g></g><g transform="translate(2218.507 1426.949)"><g transform="translate(25.922)"><path d="M2285.771,1515.4c1.369.67,1.207,2.647.825,4.123-4.417,17.03-10.421,33.286-16.808,49.648-1.213,3.109-3.373,7.338-7.192,7.7-3.126.293-2.449-2.958-1.707-4.79l2.4-5.924c1.623-4,3.246-8.013,4.582-12.122,3.276-10.078,4.783-20.644,7.626-30.852a28.946,28.946,0,0,1,1.475-4.3c.588-1.289,1.342-2.5,1.959-3.773a39.844,39.844,0,0,0,2.419-7.24c1.63-.334,3,1.317,3.487,2.906S2284.277,1514.673,2285.771,1515.4Z" transform="translate(-2237.379 -1417.128)" fill="#909496"/><path d="M2309.192,1456.339a30.779,30.779,0,0,0,1.892-13q-.256-7.512-.149-15.029c.024-1.771.014-4.1-1.843-5.089-2.806-1.5-6.8,2.772-8.471,4.389q-4.573,4.436-8.807,9.181c-3.163,3.527-5.974,7.232-7.357,11.744.729,2.453,1.69,5.042,3.608,6.811a12.16,12.16,0,0,0,2.844,1.844,31.182,31.182,0,0,0,10.508,3.092,10.778,10.778,0,0,0,4-.144C2306.71,1459.786,2308.7,1457.535,2309.192,1456.339Z" transform="translate(-2235.732 -1422.908)" fill="#e5e5e5"/><path d="M2313.389,1452.866l-1.55,3.9-10.358,26.055-15.068,37.9-11.221,28.226c-3.491,8.782-6.55,17.9-10.589,26.446-2.865,6.057-8.145,9.686-15,9.228-6.224-.417-10.894-4.826-10.766-11.218.081-4.04,1.655-7.955,3.118-11.664.918-2.333,1.852-4.659,2.778-6.988l11.451-28.8,14.641-36.827,12.614-31.727,5.368-13.5a1.338,1.338,0,0,1,1.706-.729l22.107,8.075A1.251,1.251,0,0,1,2313.389,1452.866Z" transform="translate(-2238.838 -1421.535)" fill="#ced1d3"/><path d="M2301.45,1452.209c-.82,2.1-1.685,4.176-2.463,6.306-3.5,9.585-7.3,19.054-11.227,28.474-7.842,18.833-16.164,37.469-23.5,56.511q-3.893,10.109-7.734,20.24c-2.1,5.512-3.611,11.579-7.819,15.927-2.362,2.439-3.812,3.791-6.67,1.768-2.331-1.649-3.252-5.385-3.2-8.045.081-4.041,1.655-7.955,3.118-11.665.918-2.333,1.852-4.659,2.778-6.988l11.451-28.8,14.641-36.827,12.614-31.727,5.368-13.5c.854-2.151,8.4,1.7,9.94,2.276a9.495,9.495,0,0,1,4.059,2.353C2302.389,1449.759,2301.928,1450.988,2301.45,1452.209Z" transform="translate(-2238.838 -1421.524)" fill="#b7bbbc"/><path d="M2292.045,1437.716a1.637,1.637,0,0,0-.47.716,1.307,1.307,0,0,0,.5,1.186,3,3,0,0,0,3.463.357,5.623,5.623,0,0,0,1.441-1.405c3.268-4.095,7.115-9.072,8.825-14.071-1.239-.26-2.381,1.492-3.132,2.248q-1.794,1.807-3.573,3.628Q2295.545,1434.016,2292.045,1437.716Z" transform="translate(-2235.249 -1422.801)" fill="#fff" opacity="0.61"/><path d="M2301.735,1475.069c-.222.049-1.913,5.314-2.2,5.915a47.877,47.877,0,0,0-1.964,5.287,70.946,70.946,0,0,1-5.244,11.639c-5.864,10.387-16.74,14.465-28.145,15.2a2.32,2.32,0,0,1-2.085-.576,2.259,2.259,0,0,1-.107-1.876c1.923-7.8,6.07-14.805,8.529-22.424,1.311-4.065,2.727-3.669,6.721-4.694a93.8,93.8,0,0,0,11.425-4.023A85.8,85.8,0,0,1,2301.735,1475.069Z" transform="translate(-2237.272 -1419.357)" fill="#909496" opacity="0.26"/></g><g transform="translate(0 3.764)"><path d="M2264.722,1531.981q.777-6.564,1.055-13.171c.253-5.933.378-8.155-4.083-12.033-3.332-2.9-7.412-6-11.709-4.984a12.28,12.28,0,0,0-4.025,2.007c-3.416,2.343-6.664,5.311-7.967,9.243a22.916,22.916,0,0,0-.637,8.457c.968,17.87,1.96,35.849-3.462,53.2-3.363,10.76-6.89,22.4-12.223,32.388a41.667,41.667,0,0,1-3.446,5.42c-.825,1.1-2.4,2.519-1.4,3.981s3.161,2.44,4.785,3.229a29.2,29.2,0,0,0,3.522,1.5,7.174,7.174,0,0,0,1.936.408c3.353.133-1.483-4.3-1.158-6.028a9.431,9.431,0,0,1,2.064-3.78C2245.794,1588.349,2261.265,1561.21,2264.722,1531.981Z" transform="translate(-2214.436 -1421.316)" fill="#e87454"/><path d="M2218.993,1605.232a7.256,7.256,0,0,1,.173.712c.439,2.19,2.018,2.807,4.01,3.3a2.776,2.776,0,0,0,1.986-.01c.528-.286.849-.89,1.392-1.145a1.7,1.7,0,0,1,1.5.115,14.948,14.948,0,0,1,3.6,3.466c1.769,2.008,4,3.638,5.466,5.882a1.065,1.065,0,0,1,.177.37,1.13,1.13,0,0,1-.074.534l-.339,1.081a2.044,2.044,0,0,1-.584,1.059c-1.2.927-3.532-.437-4.634-.9l-12.02-5.034c-1.2-.5-3.85-1.06-4.712-2.055-1.239-1.429,1.022-4.35,1.552-5.7.264-.668.515-2.206,1.089-2.654C2218.341,1603.666,2218.768,1604.492,2218.993,1605.232Z" transform="translate(-2214.567 -1414.341)" fill="#363f44"/><path d="M2269.8,1531.716q-1.293-6.484-3.073-12.852c-2.29-8.2-5.453-15.339-14.861-15.083-5.385.145-10.476,2.347-14.894,5.382-1.709,1.174-5.948,3.123-6.28,5.5-.611,4.385,3.815,11.612,5.65,15.472,2.849,5.993,6.4,11.6,9.6,17.395,5.919,10.718,7.621,22.6,7.759,34.349.131,11.271.379,23.43-1.6,34.581a41.619,41.619,0,0,1-1.6,6.221c-.446,1.3-1.5,3.137-.1,4.218s3.761,1.344,5.55,1.59a29.23,29.23,0,0,0,3.814.337,7.144,7.144,0,0,0,1.968-.21c3.229-.911-2.741-3.628-2.967-5.375a9.442,9.442,0,0,1,.793-4.233C2269.245,1591.173,2275.56,1560.579,2269.8,1531.716Z" transform="translate(-2213.473 -1421.168)" fill="#e06746"/><path d="M2229.538,1484.136c-.167.123-.309.013-.98.008a6.932,6.932,0,0,0-6.875,5.83c-.713,4.079,2.1,7.172,5.561,8.85-5.725,1.713-.653,8.751,2.363,10.213a9.614,9.614,0,0,0,7.589.3c2.492-.973,5.818-2.2,7.772-4.068a10.452,10.452,0,0,0,1.958-12.066c-.786-1.492-1.931-2.764-2.817-4.2-2.64-4.274-2.791-9.6-2.54-14.614a23.717,23.717,0,0,0-.162-6.055c-.24-1.147-1.433-4.735-3-4.139-1.138.433-2.183,5.46-2.636,6.615q-2.025,5.165-4.457,10.158a15.218,15.218,0,0,1-1.271,2.544A4.041,4.041,0,0,1,2229.538,1484.136Z" transform="translate(-2214.091 -1423.866)" fill="#0a303a"/><path d="M2237.863,1466.622c.133-2.574,2.607-1.638,3.808-.158a9.805,9.805,0,0,1,1.829,5.571c.138,1.981.015,3.983.321,5.945.983,6.3,6.171,11.229,7.6,17.441a15.665,15.665,0,0,1-5.548,15.541,7.631,7.631,0,0,1-2.543,1.385,7.513,7.513,0,0,1-4.114-.208,14.486,14.486,0,0,1-6.884-4.507,9.346,9.346,0,0,1-2.177-3.514c-.291-1.413.293-2.985.116-4.432-.221-1.815-1.465-3.334-2-5.081a2.946,2.946,0,0,1-.138-1.472,3.95,3.95,0,0,1,.794-1.462A46.593,46.593,0,0,0,2237.863,1466.622Z" transform="translate(-2213.647 -1423.807)" fill="#052128"/><path d="M2228.685,1525.945c-.707,5.278-.741,10.5-.934,16.02-.287,8.26.012,16.561-.228,24.832a2.97,2.97,0,0,0,.241,1.574,2.239,2.239,0,0,0,.645.669,10.387,10.387,0,0,0,4.375,1.539,178.66,178.66,0,0,0,27.518,2.907c5.427.15,11.346-.124,15.495-3.745-.61-19.117,1.517-38.672-3.51-57.078a74.615,74.615,0,0,0-5.235-13.7,4.079,4.079,0,0,0-1.066-1.5,3.994,3.994,0,0,0-1.331-.573l-9.16-2.666c-3.126-.91-6.453-1.822-9.57-.879-2.255.681-4.143,2.154-6.087,3.458-2.346,1.572-2.835,3.155-3.943,5.833a139.613,139.613,0,0,0-5.719,15.912A54.012,54.012,0,0,0,2228.685,1525.945Z" transform="translate(-2213.686 -1421.904)" fill="#7f1611"/><path d="M2228.684,1525.945c-.707,5.278-.741,10.5-.934,16.02-.287,8.26.012,16.561-.228,24.832-.033,1.149.136,1.776,1.167,2.2a25.553,25.553,0,0,0,3.6,1.149l1.644.4c1.917.464,3.311.674,4.959-.5a12.267,12.267,0,0,0,3.226-3.628,24.5,24.5,0,0,0,3.256-9.864c1.261-10.652,2.5-21.8,8.463-30.714,2.818-4.217,6.573-7.729,9.564-11.826,2.7-3.7,7.66-12.689,2.581-16.539a3.994,3.994,0,0,0-1.331-.573l-9.16-2.666c-3.126-.91-6.453-1.822-9.57-.879-2.255.681-4.143,2.154-6.087,3.458-2.346,1.572-2.835,3.155-3.943,5.833a139.565,139.565,0,0,0-5.719,15.912A53.976,53.976,0,0,0,2228.684,1525.945Z" transform="translate(-2213.686 -1421.904)" fill="#6d0c0c"/><path d="M2239.492,1462.589a1.776,1.776,0,0,0-1.9-.447,2.95,2.95,0,0,0-1.18.41,1.88,1.88,0,0,0-.094,3.181c1.049.71,2.07,1.471,3.12,2.175a2.111,2.111,0,0,0,2.857-.115l-.182-1.5c-.085-.71-.052-1.689-.567-2.226A23.6,23.6,0,0,0,2239.492,1462.589Z" transform="translate(-2213.143 -1424.008)" fill="#7f1611"/><path d="M2298.587,1491.051c-.587-.313-.552-.657-.572-1.225a7.2,7.2,0,0,0-.412-2.122,10.2,10.2,0,0,0-.44-.99c-.452-.927-1.129-1.838-1-2.905a8.712,8.712,0,0,1,1.116-2.812,24.166,24.166,0,0,0,1.365-3.214,5.327,5.327,0,0,1,2.214,2.235,13.205,13.205,0,0,1,1.115,2.985,11.841,11.841,0,0,1,.559,4.233,4.707,4.707,0,0,1-2.034,3.607A1.984,1.984,0,0,1,2298.587,1491.051Z" transform="translate(-2209.014 -1422.937)" fill="#d65d41"/><path d="M2256.981,1444.319a14.379,14.379,0,0,1,.076,3.209,26.689,26.689,0,0,1-1.812,4.262c-2.094,4.925-3.81,10.636-8.52,13.641a12.383,12.383,0,0,1-3.88,1.478c-6.623,1.554-7.912-6.327-7.93-11.241-.031-8.2,1.539-19.5,7.656-25.588,3.708-3.688,11.066-4.278,15.96-3.1a8.063,8.063,0,0,1,4.778,3.023,6.388,6.388,0,0,1,0,7.125,19.282,19.282,0,0,1-3.622,3.336C2258.663,1441.339,2257,1442.86,2256.981,1444.319Z" transform="translate(-2213.183 -1426.432)" fill="#0a303a"/><path d="M2256.8,1444.274a14.363,14.363,0,0,1,.076,3.208,26.667,26.667,0,0,1-1.812,4.262c-2.094,4.925-3.81,10.636-8.52,13.641a12.383,12.383,0,0,1-3.88,1.478c-4.75,1.115-6.238-2.622-4.126-6.372,3.25-5.773,7.1-11.344,8.835-17.738.9-3.3,1.222-6.787,2.646-9.9,2.315-5.059,9.222-8.457,13.107-2.9a6.388,6.388,0,0,1,0,7.125,19.271,19.271,0,0,1-3.622,3.336C2258.48,1441.294,2256.819,1442.815,2256.8,1444.274Z" transform="translate(-2213 -1426.387)" fill="#052128"/><path d="M2246.455,1449.073l.058-.238a5.366,5.366,0,0,0,2.641.738,1.728,1.728,0,0,0,1.928-1.369c.685-1.9.181-3.917.161-5.881-.014-1.359.25-3.112,1.995-3.151a1.213,1.213,0,0,1,.892.323,3.984,3.984,0,0,1,.516,1.066c.182.354.652.652.975.414a.838.838,0,0,0,.254-.426,22.085,22.085,0,0,0,1.109-5.226c.084-.954-.082-1.078.812-1.339a23.054,23.054,0,0,1,2.39-.375c.129-.024.956,12.735.905,13.811a3.4,3.4,0,0,1-.794,2.387,3.182,3.182,0,0,1-2.215.682c-.7,0-2.026-.317-2.58.267-.605.639-.435,2.42-.492,3.24a51.817,51.817,0,0,0,.016,7.573,15.59,15.59,0,0,1,.021,3.818c-.158.912-.619,2.352-1.532,2.826-.692.359-2.115.1-2.871.074a5.418,5.418,0,0,1-4.827-3.154,9.348,9.348,0,0,1-.824-2.967,6.961,6.961,0,0,1,.067-1.427,6.461,6.461,0,0,0-.525-1.862,6.1,6.1,0,0,1,.229-2.871Z" transform="translate(-2212.534 -1425.944)" fill="#e06746"/><path d="M2246.455,1449.073l.058-.238a5.366,5.366,0,0,0,2.641.738,1.728,1.728,0,0,0,1.928-1.369c.685-1.9.181-3.917.161-5.881-.014-1.359.25-3.112,1.995-3.151a1.213,1.213,0,0,1,.892.323,3.984,3.984,0,0,1,.516,1.066c.182.354.652.652.975.414a.838.838,0,0,0,.254-.426,22.085,22.085,0,0,0,1.109-5.226c.084-.954-.082-1.078.812-1.339a22.592,22.592,0,0,1,2.384-.374c.563-.1-1.734,6.144-1.873,6.5a9.1,9.1,0,0,1-.944,1.944,16.972,16.972,0,0,1-1.229,1.412,9.968,9.968,0,0,0-2.43,7.171,4.154,4.154,0,0,0-3.542,1.895,9.179,9.179,0,0,0-1.363,3.935,24.125,24.125,0,0,0-.089,6.593,4.663,4.663,0,0,1-.093,2.461c-.758,1.724-2.225.792-2.8-.39a9.348,9.348,0,0,1-.824-2.967,6.961,6.961,0,0,1,.067-1.427,6.461,6.461,0,0,0-.525-1.862,6.1,6.1,0,0,1,.229-2.871Z" transform="translate(-2212.534 -1425.944)" fill="#d1593d"/><path d="M2251.673,1440.274a2.094,2.094,0,0,1,1.061.128,1.663,1.663,0,0,1,.714,1.552c0,.346-.1.768-.442.863a1,1,0,0,1-.97-.416.692.692,0,0,1-.16-.518c.038-.222.283-.324.482-.406a.962.962,0,0,1,1.038.144" transform="translate(-2212.042 -1425.491)" fill="none" stroke="#000" stroke-miterlimit="10" stroke-width="0.347"/><path d="M2239.947,1504.132c-2.243-.047-4.765-.471-5.638-2.468-.76-1.738.2-3.691.935-5.439,4.02-9.535.558-20.41,3.814-30.293,1.384-4.2,2.713-10.211,7.714-11.506a6.873,6.873,0,0,1,3.407.187c12.109,3.115,18.723,15.857,19.774,27.51.6,6.7-1.844,12.631-1.352,19.26a6.325,6.325,0,0,1-.015,1.931c-.325.932-1.216.7-2.088.708l-3.71.016-7.421.033-14.84.064C2240.335,1504.137,2240.142,1504.136,2239.947,1504.132Z" transform="translate(-2213.243 -1424.536)" fill="#5d6266"/><path d="M2261.852,1504.019c-2.091.009-5.185.614-7.179.033-1.391-.4-2.115-2.12-2.488-3.474-.827-3-.282-6.32.173-9.287a52.411,52.411,0,0,0-2.639-25.977,28.68,28.68,0,0,1-1.781-5.672c-.261-1.78-.5-4.661,1.343-5.044,1.17-.243,3.694,1.3,4.709,1.833a24.736,24.736,0,0,1,7.825,6.676,36.258,36.258,0,0,1,7.2,19c.6,6.7-1.844,12.63-1.352,19.259a6.317,6.317,0,0,1-.015,1.931c-.325.933-1.215.705-2.088.708Z" transform="translate(-2212.308 -1424.516)" fill="#50575b"/><path d="M2290.8,1486.3a5.551,5.551,0,0,1,3.333-3.3,3.706,3.706,0,0,1,3.821.839,7.809,7.809,0,0,1,1.96,4.925,4.678,4.678,0,0,1-.188,2.024c-.835,2.27-4.236,2.28-6.219,2.444a2.672,2.672,0,0,1-1.462-.152,1.382,1.382,0,0,1-.618-1.433,6.056,6.056,0,0,0,.164-1.589C2291.445,1489.151,2290.54,1487.185,2290.8,1486.3Z" transform="translate(-2209.381 -1422.597)" fill="#5d6266"/><path d="M2251.319,1491.281a46.3,46.3,0,0,0,3.029,3.5c10.544,11.025,29.126,8.742,41.643,2.365a12.219,12.219,0,0,0,2.5-1.58c2.023-1.757,1.616-4.614,1.191-6.963-.3-1.668-.453-3.205-2.216-3.908a8.918,8.918,0,0,0-3.22-.56,17.209,17.209,0,0,0-5.737,1.311,35.223,35.223,0,0,1-7.58,1.967c-2.412.307-5.242,1.138-7.449-.364a7.827,7.827,0,0,1-1.994-2.322l-9.074-13.923c-3.132-4.807-11.374-15.674-17.84-9.621-6.421,6.011.313,20.315,4.107,26.342A45.3,45.3,0,0,0,2251.319,1491.281Z" transform="translate(-2212.707 -1424.188)" fill="#474f54"/><path d="M2249.872,1614.7c.165.235.3.468.386.624,1.094,1.946,2.786,2.044,4.833,1.9a2.775,2.775,0,0,0,1.886-.624c.414-.436.531-1.108.969-1.519a1.7,1.7,0,0,1,1.466-.356,14.977,14.977,0,0,1,4.493,2.182c2.3,1.363,4.933,2.222,7.018,3.9a1.06,1.06,0,0,1,.283.3,1.117,1.117,0,0,1,.094.532l.013,1.131a2.053,2.053,0,0,1-.228,1.189c-.851,1.252-3.493.678-4.685.581l-12.988-1.067c-1.3-.106-3.99.183-5.118-.5-1.62-.974-.375-4.453-.286-5.895.044-.717-.194-2.257.215-2.862C2248.768,1613.414,2249.429,1614.067,2249.872,1614.7Z" transform="translate(-2212.328 -1413.675)" fill="#363f44"/><path d="M2256.094,1487.185a28.052,28.052,0,0,0,9.746,8.016c4.075,1.829,8.659,2.132,13.126,2.125,4.6-.005,21.9-1.286,20.556-8.724-.3-1.668-.453-3.205-2.216-3.908a8.916,8.916,0,0,0-3.22-.56,17.211,17.211,0,0,0-5.737,1.31,35.21,35.21,0,0,1-7.58,1.967c-2.412.307-5.242,1.138-7.449-.364a7.824,7.824,0,0,1-1.994-2.322l-9.074-13.923c-2.2-3.38-4.809-6.849-8.116-9.224-2.757-1.979-10.027-4.183-9.822,1.56.274,7.727,4.621,14.679,9.271,20.858C2254.393,1485.071,2255.225,1486.144,2256.094,1487.185Z" transform="translate(-2212.543 -1424.184)" fill="#2d3438" opacity="0.35"/><path d="M2260.58,1587.145c-.111,1.085.045,2.481,1.085,2.809.979.309,1.907-.639,2.316-1.581a12.9,12.9,0,0,0,.755-4.822c.061-2.184-.845-3.97-2.539-1.706A10.9,10.9,0,0,0,2260.58,1587.145Z" transform="translate(-2211.438 -1415.925)" fill="#d1593d"/><path d="M2236.4,1585.216a.82.82,0,0,0,.092.559.683.683,0,0,0,.555.225c1.168.022,1.994-1.1,2.608-2.091l1.3-2.1a7.8,7.8,0,0,0,1.047-2.176c.745-3.048-1.561-3.085-2.96-1.25A13.389,13.389,0,0,0,2236.4,1585.216Z" transform="translate(-2213.082 -1416.173)" fill="#d1593d" opacity="0.49"/><path d="M2259.032,1438.691a3.477,3.477,0,0,0-1.047.3c-.133.057-.393.222-.313.411.092.218.438.084.586.017a2.243,2.243,0,0,1,1.161-.189c.2.021.628-.028.469-.326C2259.756,1438.659,2259.261,1438.671,2259.032,1438.691Z" transform="translate(-2211.634 -1425.599)" fill="#052128"/><path d="M2259,1439.819a.668.668,0,0,0-.006.37.675.675,0,0,0,.12.286c.129.168.367.23.474,0a.9.9,0,0,0,.047-.426,1.083,1.083,0,0,0-.094-.3.26.26,0,0,0-.371-.114A.325.325,0,0,0,2259,1439.819Z" transform="translate(-2211.545 -1425.536)" fill="#052128"/><path d="M2259.34,1443.17a.553.553,0,0,0,.018.194.571.571,0,0,0,.155.214c.586.6,1.207-.324,1.1-.935a2.3,2.3,0,0,0-.381-.823,1.019,1.019,0,0,0-.239-.29.352.352,0,0,0-.355-.053c-.22.112-.194.552-.229.763A6.979,6.979,0,0,0,2259.34,1443.17Z" transform="translate(-2211.52 -1425.41)" fill="#d1593d"/></g></g></g></svg>