<svg xmlns="http://www.w3.org/2000/svg" xmlns:xlink="http://www.w3.org/1999/xlink" width="54.55" height="54.55" viewBox="0 0 54.55 54.55"><defs><linearGradient id="a" x1="0.5" x2="0.5" y2="1" gradientUnits="objectBoundingBox"><stop offset="0" stop-color="#d0e931"/><stop offset="1" stop-color="#acc10a"/></linearGradient><filter id="b" x="0" y="0" width="54.55" height="54.55" filterUnits="userSpaceOnUse"><feOffset dy="2" input="SourceAlpha"/><feGaussianBlur stdDeviation="3" result="c"/><feFlood flood-color="#dbe3ff"/><feComposite operator="in" in2="c"/><feComposite in="SourceGraphic"/></filter></defs><g transform="translate(-322 -333)"><g transform="matrix(1, 0, 0, 1, 322, 333)" filter="url(#b)"><path d="M9.4,0H27.151a9.4,9.4,0,0,1,9.4,9.4V27.151a9.4,9.4,0,0,1-9.4,9.4H9.4a9.4,9.4,0,0,1-9.4-9.4V9.4A9.4,9.4,0,0,1,9.4,0Z" transform="translate(9 7)" fill="url(#a)"/></g><g transform="translate(337.009 346.01)"><g transform="translate(-0.009 -0.01)"><path d="M20.412.647a2.259,2.259,0,0,0-.758,1.722,2.219,2.219,0,0,0,.668,1.777,2.384,2.384,0,0,0,.778.5,2.214,2.214,0,0,0,.868.221A2.4,2.4,0,0,0,23.8,4.182a2.339,2.339,0,0,0,.723-1.626,2.324,2.324,0,0,0-.648-1.8,2.41,2.41,0,0,0-1.687-.763,2.329,2.329,0,0,0-1.777.653m-8.9,4.869q-.151.09-.146.166a.4.4,0,0,0,.146.151q.612.392,1.852,1.2,1.054.688,1.832,1.225a1.14,1.14,0,0,0,.5.221.663.663,0,0,0,.5-.186q.09-.09.166-.055t.055.186v1.2a1.506,1.506,0,0,0,.141.723,1.722,1.722,0,0,0,.5.537q1.275.868,3.127,2.058a.949.949,0,0,0,1.074,0,1,1,0,0,0,.387-.371.944.944,0,0,0,.146-.5,1.215,1.215,0,0,0-.146-.612,1.34,1.34,0,0,0-.442-.427l-2.39-1.506a.853.853,0,0,1-.241-.221A.5.5,0,0,1,18.524,9V4.889a2.731,2.731,0,0,0-.131-.743,2.189,2.189,0,0,0-.5-.813,2.123,2.123,0,0,0-.8-.5,2.008,2.008,0,0,0-.924-.11,2.229,2.229,0,0,0-.924.316q-.7.462-1.852,1.24l-1.882,1.24m-1.24.813L10,6.536A3.052,3.052,0,0,0,8.9,7.947a3.253,3.253,0,0,0-.11,1.707,2.977,2.977,0,0,0,.331.909,2.575,2.575,0,0,0,.668.7q.572.447,1.406,1.039.5.331,1.426,1l1.315.929-.075.131a.607.607,0,0,1-.075.09q-1.15,1.3-1.15,1.335l-1.165,1.3a2.62,2.62,0,0,0-.462.668,1.466,1.466,0,0,0-.075.813.964.964,0,0,1,0,.241l-.186-.075L8.083,17.229,4.418,15.221,2.606,14.191l-1.852-1a.422.422,0,0,0-.221-.055.758.758,0,0,0-.241.035.442.442,0,0,0-.221.166.587.587,0,0,0-.075.3.432.432,0,0,0,.09.331,1.2,1.2,0,0,0,.261.221l2.54,1.375,1.571.889q1,.572,1.556.868,1.506.853,4.553,2.51l3.961,2.259q1.22.688,3.685,2.038a12.23,12.23,0,0,0,1.094.572,4.659,4.659,0,0,0,1.185.371,3.79,3.79,0,0,0,2.535-.427,2.51,2.51,0,0,0,.562-.4,1.822,1.822,0,0,0,.387-.557.467.467,0,0,0-.131-.557q-.3-.276-.557-.09a1.636,1.636,0,0,0-.331.276,1.777,1.777,0,0,1-1.2.7,3.514,3.514,0,0,1-2.259-.407l-6.827-3.815a.06.06,0,0,1-.055-.055l-.065-.055.055-.055a.263.263,0,0,1,.055-.035,1.074,1.074,0,0,0,.387-.206,1.361,1.361,0,0,0,.316-.3q1.406-1.591,2.093-2.39l.868-1q.5-.572.853-1a1.27,1.27,0,0,0,.241-.964,1.305,1.305,0,0,0-.5-.889L13.489,10.17l-.075-.075a.371.371,0,0,1-.075-.11l1.054-.648q.131-.075.131-.131t-.11-.131a.5.5,0,0,0-.11-.09L10.9,6.762l-.628-.427M5.216,1.757a.562.562,0,0,0-.427-.09.467.467,0,0,0-.351.221.427.427,0,0,0-.055.407.643.643,0,0,0,.261.371L9.308,5.723q.3.186.964.627l.612-.407q.276-.166.261-.241t-.261-.261L8.178,3.685Q5.718,2.073,5.216,1.757Z" transform="translate(0.009 0.01)" fill="#fff"/></g></g></g></svg>