<svg xmlns="http://www.w3.org/2000/svg" xmlns:xlink="http://www.w3.org/1999/xlink" width="54.55" height="54.55" viewBox="0 0 54.55 54.55"><defs><linearGradient id="a" x1="0.5" x2="0.54" y2="0.768" gradientUnits="objectBoundingBox"><stop offset="0" stop-color="#926fff"/><stop offset="1" stop-color="#5d37fa"/></linearGradient><filter id="b" x="0" y="0" width="54.55" height="54.55" filterUnits="userSpaceOnUse"><feOffset dy="2" input="SourceAlpha"/><feGaussianBlur stdDeviation="3" result="c"/><feFlood flood-color="#dbe3ff"/><feComposite operator="in" in2="c"/><feComposite in="SourceGraphic"/></filter></defs><g transform="translate(-776 -1003)"><g transform="translate(785 1010)"><g transform="matrix(1, 0, 0, 1, -9, -7)" filter="url(#b)"><path d="M9.4,0H27.151a9.4,9.4,0,0,1,9.4,9.4V27.151a9.4,9.4,0,0,1-9.4,9.4H9.4a9.4,9.4,0,0,1-9.4-9.4V9.4A9.4,9.4,0,0,1,9.4,0Z" transform="translate(9 7)" fill="url(#a)"/></g></g><g transform="translate(792 1014)"><path d="M404.6,257.13a9.582,9.582,0,0,0-6.106,2.085,6.85,6.85,0,0,0-1.527,1.824,9.805,9.805,0,0,0-1.061,2.551,11.678,11.678,0,0,0-.372,4.915,22.557,22.557,0,0,0,2.029,6.069,16.433,16.433,0,0,1,1.173,3.7,26.673,26.673,0,0,1,.484,5.064h8.173c-.019-.484-.056-.894-.093-1.266-.037-.41-.075-.745-.075-1.024,0-1.285.41-1.824,2.309-1.824.3,0,.707.019,1.117.019,1.452.037,2.83.074,3.165-.5h0a6.613,6.613,0,0,0,.019-1.638,34.684,34.684,0,0,0-.335-3.556.605.605,0,0,1,.484-.689h.782a5.782,5.782,0,0,0,1.6-.13c-.2-.447-.763-1.4-1.322-2.346a11.621,11.621,0,0,1-1.675-3.425c0-.484-.037-1.675-.112-2.662a7.91,7.91,0,0,0-.168-1.452,7.366,7.366,0,0,0-3-4.077,10.216,10.216,0,0,0-5.51-1.657Zm-3.63-.614a10.712,10.712,0,0,1,3.649-.577,11.082,11.082,0,0,1,6.162,1.862,8.453,8.453,0,0,1,3.481,4.729,10.93,10.93,0,0,1,.2,1.694c.074,1.043.112,2.253.112,2.755a17.2,17.2,0,0,0,1.508,2.811,12.379,12.379,0,0,1,1.564,3.109.6.6,0,0,1-.13.465c-.6.689-1.694.689-2.718.689.112.856.223,2.011.261,3.016a5.915,5.915,0,0,1-.186,2.271h0c-.689,1.191-2.4,1.154-4.226,1.1-.335,0-.652-.019-1.1-.019-.912,0-1.117.186-1.117.633a8.8,8.8,0,0,0,.056.912,18.848,18.848,0,0,1,.112,1.955.588.588,0,0,1-.6.6h-9.383a.588.588,0,0,1-.6-.6,28.378,28.378,0,0,0-.465-5.436,15.406,15.406,0,0,0-1.08-3.444,24.421,24.421,0,0,1-2.141-6.4,12.927,12.927,0,0,1,.391-5.38,11.786,11.786,0,0,1,1.191-2.848,8.022,8.022,0,0,1,1.806-2.141,10.629,10.629,0,0,1,3.221-1.769Z" transform="translate(-394.218 -255.937)" fill="#fff"/><path d="M730.447,487.835h-2.234a.453.453,0,0,1-.447-.447.486.486,0,0,1,.186-.372,1.154,1.154,0,0,0,.316-.41,1.263,1.263,0,0,0-.242-1.4,1.207,1.207,0,0,0-.875-.354,1.239,1.239,0,0,0-.875.354,1.207,1.207,0,0,0-.354.875,1.189,1.189,0,0,0,.112.521,1.075,1.075,0,0,0,.335.428.443.443,0,0,1,.056.633.458.458,0,0,1-.354.168h-2.234v.875h.093a2.055,2.055,0,0,1,1.452.6,2.023,2.023,0,0,1,.6,1.452,2.056,2.056,0,0,1-.6,1.452,2.023,2.023,0,0,1-1.452.6h-.093v1.6h2.234a.453.453,0,0,1,.447.447.486.486,0,0,1-.186.372,1.154,1.154,0,0,0-.316.41,1.264,1.264,0,0,0,.242,1.4,1.207,1.207,0,0,0,.875.354,1.239,1.239,0,0,0,.875-.354,1.207,1.207,0,0,0,.354-.875,1.188,1.188,0,0,0-.112-.521,1.076,1.076,0,0,0-.335-.428.444.444,0,0,1-.056-.633.459.459,0,0,1,.354-.168h2.234v-2.42a.453.453,0,0,1,.447-.447.434.434,0,0,1,.391.242,1.283,1.283,0,0,0,.428.41,1.262,1.262,0,0,0,1.471-.2,1.207,1.207,0,0,0,.354-.875,1.239,1.239,0,0,0-.354-.875,1.207,1.207,0,0,0-.875-.354,1.228,1.228,0,0,0-.6.149,1.406,1.406,0,0,0-.447.428.44.44,0,0,1-.819-.223h0v-2.4Zm-1.34-.894h1.787a.453.453,0,0,1,.447.447v1.862a2.148,2.148,0,0,1,2.495.372,2.093,2.093,0,0,1,.614,1.508,2.207,2.207,0,0,1-.614,1.508,2.093,2.093,0,0,1-1.508.614,2.207,2.207,0,0,1-.987-.242v1.862a.453.453,0,0,1-.447.447h-1.787a2.125,2.125,0,0,1-.428,2.364,2.093,2.093,0,0,1-1.508.614,2.207,2.207,0,0,1-1.508-.614,2.093,2.093,0,0,1-.614-1.508,1.919,1.919,0,0,1,.186-.856h-1.787a.453.453,0,0,1-.447-.447v-2.588h0a.41.41,0,0,1,.019-.149.465.465,0,0,1,.577-.279c.056.019.13.037.186.056a.7.7,0,0,0,.2.019,1.154,1.154,0,1,0,0-2.308.764.764,0,0,0-.2.019c-.056.019-.112.019-.168.037a.543.543,0,0,1-.168.037.453.453,0,0,1-.447-.447v-1.843a.453.453,0,0,1,.447-.447h1.787a2.125,2.125,0,0,1,.428-2.364A2.093,2.093,0,0,1,727.17,484a2.207,2.207,0,0,1,1.508.614,2.094,2.094,0,0,1,.614,1.508,1.918,1.918,0,0,1-.186.856Z" transform="translate(-716.879 -479.754)" fill="#fff"/></g></g></svg>