<svg xmlns="http://www.w3.org/2000/svg" xmlns:xlink="http://www.w3.org/1999/xlink" width="54.55" height="54.55" viewBox="0 0 54.55 54.55"><defs><linearGradient id="a" x1="0.5" x2="0.5" y2="1" gradientUnits="objectBoundingBox"><stop offset="0" stop-color="#d0e931"/><stop offset="1" stop-color="#acc10a"/></linearGradient><filter id="b" x="0" y="0" width="54.55" height="54.55" filterUnits="userSpaceOnUse"><feOffset dy="2" input="SourceAlpha"/><feGaussianBlur stdDeviation="3" result="c"/><feFlood flood-color="#dbe3ff"/><feComposite operator="in" in2="c"/><feComposite in="SourceGraphic"/></filter></defs><g transform="translate(-98 -333)"><g transform="translate(107 340)"><g transform="matrix(1, 0, 0, 1, -9, -7)" filter="url(#b)"><path d="M9.4,0H27.151a9.4,9.4,0,0,1,9.4,9.4V27.151a9.4,9.4,0,0,1-9.4,9.4H9.4a9.4,9.4,0,0,1-9.4-9.4V9.4A9.4,9.4,0,0,1,9.4,0Z" transform="translate(9 7)" fill="url(#a)"/></g></g><g transform="translate(111.562 344.558)"><g transform="translate(0)"><path d="M15.79.2,15.084.092,14.37,0H12.635l-.729.092L11.177.2A13.142,13.142,0,0,0,3.5,4.421,13.287,13.287,0,0,0,.069,12.1,3.172,3.172,0,0,1,0,12.643v1.735a4.136,4.136,0,0,0,.092.714q.092.476.115.706A13.3,13.3,0,0,0,8.651,26.053a12.159,12.159,0,0,0,3.669.814l.207.046h1.9l.829-.046q.491-.069.829-.138A13.456,13.456,0,0,0,26.567,16.673q.061-.253.138-.629l.13-.629v-3.9l-.146-.676q-.084-.4-.154-.676a13.234,13.234,0,0,0-1.489-3.6A13.487,13.487,0,0,0,19.49,1.4,13.264,13.264,0,0,0,15.79.2M14.255,5.957h0V4.99a.353.353,0,0,1,.054-.161.315.315,0,0,1,.107-.123q1.781-.967,3.746-2.019a.338.338,0,0,1,.146,0,.361.361,0,0,1,.146,0,11.33,11.33,0,0,1,3.216,2.2.307.307,0,0,1,.069.123.3.3,0,0,1,0,.146q-.476,2.249-1.013,4.429a.361.361,0,0,1-.069.146.422.422,0,0,1-.123.107q-.683.368-1.336.668a.353.353,0,0,1-.161,0,.307.307,0,0,1-.161-.054Q16.7,8.92,14.393,7.193A.292.292,0,0,1,14.3,7.07a.415.415,0,0,1-.023-.161V5.941m1.988-4.022-1.435.768-1.205.645L13.5,3.37a.184.184,0,0,1-.115,0l-2.7-1.451a12.482,12.482,0,0,1,2.794-.33,12.136,12.136,0,0,1,2.786.33m7.377,9.211-1.2-.983a.345.345,0,0,1-.092-.123.223.223,0,0,1,0-.13q.146-.668.768-3.331a3.677,3.677,0,0,1,.768,1.059A13.51,13.51,0,0,1,24.656,9.3a13.664,13.664,0,0,1,.545,1.789,4.322,4.322,0,0,1,.146,1.366l-1.7-1.336M25.178,14.4a.422.422,0,0,1,.107.146.33.33,0,0,1,.038.177,11.783,11.783,0,0,1-1.635,4.89.415.415,0,0,1-.161.161.461.461,0,0,1-.223.038H19.659a.453.453,0,0,1-.192-.054.407.407,0,0,1-.154-.115l-.768-1.052-.768-1.052a.453.453,0,0,1-.069-.461l.768-2.3.768-2.3a.453.453,0,0,1,.1-.192.468.468,0,0,1,.146-.115l.821-.422.821-.415a.292.292,0,0,1,.169-.038.315.315,0,0,1,.161.077l1.85,1.535,1.85,1.535m-7.507-2.871a.238.238,0,0,1,.077.123.253.253,0,0,1,0,.154Q17.225,13.433,16.2,16.6a.269.269,0,0,1-.107.154.361.361,0,0,1-.177,0h-4.9a.345.345,0,0,1-.192-.038.315.315,0,0,1-.107-.169Q9.7,13.395,9.181,11.814a.315.315,0,0,1,.084-.276q2.027-1.489,4.068-2.955a.23.23,0,0,1,.13,0,.207.207,0,0,1,.13,0q2.042,1.466,4.068,2.955m1.819,9.979a.253.253,0,0,1,.092-.092.238.238,0,0,1,.123-.038h2.618a11.238,11.238,0,0,1-4.26,2.978q.944-1.9,1.42-2.84m-3.285-3.186a.438.438,0,0,1,.223.046.53.53,0,0,1,.161.161q.637.913,1.4,1.965a.407.407,0,0,1,.084.184.338.338,0,0,1-.046.192L17,22.906l-1,2.042a.391.391,0,0,1-.115.123.368.368,0,0,1-.154.069,11.514,11.514,0,0,1-4.468,0,.422.422,0,0,1-.161-.069.384.384,0,0,1-.115-.123L9.979,22.913,8.958,20.872a.407.407,0,0,1-.046-.184.322.322,0,0,1,.069-.177L9.7,19.505l.722-1.006a.338.338,0,0,1,.13-.1.384.384,0,0,1,.169-.038h5.5M4.982,5.373a.353.353,0,0,1,0-.169.345.345,0,0,1,.077-.154A11.376,11.376,0,0,1,8.444,2.71a.461.461,0,0,1,.353,0l1.842.983,1.842.983a.4.4,0,0,1,.161.138.384.384,0,0,1,.038.207V6.663a.921.921,0,0,1-.069.445.844.844,0,0,1-.307.3q-.284.169-.407.253L8.06,10.432a.53.53,0,0,1-.238.107.461.461,0,0,1-.261-.054l-.652-.3-.768-.315A.407.407,0,0,1,6,9.756.438.438,0,0,1,5.918,9.6L4.982,5.373m.391,5.957a.284.284,0,0,1,.154,0q.929.384,1.98.852a.322.322,0,0,1,.107.084.391.391,0,0,1,.069.115q.829,2.518,1.535,4.767a.368.368,0,0,1,0,.161.376.376,0,0,1-.061.154q-.768,1.113-1.535,2.2a.345.345,0,0,1-.13.1.438.438,0,0,1-.169.038H3.669a.368.368,0,0,1-.376-.207,11.722,11.722,0,0,1-1.5-3.93,11.515,11.515,0,0,1-.154-1.144.4.4,0,0,1,0-.177.361.361,0,0,1,.1-.154Q3.278,12.919,5.2,11.368a.292.292,0,0,1,.169-.038m-3.662.883A2.963,2.963,0,0,1,1.8,11.107a12.5,12.5,0,0,1,.461-1.535A8.981,8.981,0,0,1,3.669,6.8l.706,3.07a.307.307,0,0,1,0,.123.184.184,0,0,1-.054.1l-2.61,2.119m5.7,9.28a.246.246,0,0,1,.092.092L8.973,24.51a12.005,12.005,0,0,1-4.352-3.07H7.3A.23.23,0,0,1,7.415,21.493Z" transform="translate(0)" fill="#fff"/></g></g></g></svg>