<svg xmlns="http://www.w3.org/2000/svg" xmlns:xlink="http://www.w3.org/1999/xlink" width="54.55" height="54.55" viewBox="0 0 54.55 54.55"><defs><linearGradient id="a" x1="0.5" x2="0.5" y2="1" gradientUnits="objectBoundingBox"><stop offset="0" stop-color="#d0e931"/><stop offset="1" stop-color="#acc10a"/></linearGradient><filter id="b" x="0" y="0" width="54.55" height="54.55" filterUnits="userSpaceOnUse"><feOffset dy="2" input="SourceAlpha"/><feGaussianBlur stdDeviation="3" result="c"/><feFlood flood-color="#dbe3ff"/><feComposite operator="in" in2="c"/><feComposite in="SourceGraphic"/></filter></defs><g transform="translate(9 7)"><g transform="matrix(1, 0, 0, 1, -9, -7)" filter="url(#b)"><path d="M9.4,0H27.151a9.4,9.4,0,0,1,9.4,9.4V27.151a9.4,9.4,0,0,1-9.4,9.4H9.4a9.4,9.4,0,0,1-9.4-9.4V9.4A9.4,9.4,0,0,1,9.4,0Z" transform="translate(9 7)" fill="url(#a)"/></g><g transform="translate(3.049 10.01)"><g transform="translate(-0.05 -0.011)"><g transform="translate(0 0)"><path d="M22.013,10.112a6.778,6.778,0,0,0-1.947,0,6.444,6.444,0,0,0-1.807.622q-.281.141-.984.522-.582.341-.964.522a3.209,3.209,0,0,1-3.272-.3,13.583,13.583,0,0,0-1.586-.9,6.645,6.645,0,0,0-1.727-.482,6.858,6.858,0,0,0-3.413.482,6.28,6.28,0,0,0-1.084.642q-.883.642-1.044.743a11.455,11.455,0,0,1-1.526.763,4.793,4.793,0,0,1-2.71,0q.245,2.04,2.67,2.188a5.621,5.621,0,0,0,3.393-.863,6.5,6.5,0,0,1,.843-.442,2.947,2.947,0,0,1,.923-.241,3.413,3.413,0,0,1,2.65.683,10.194,10.194,0,0,0,1.767,1.1,5.991,5.991,0,0,0,2.008.582,6.151,6.151,0,0,0,3.413-.482,8.171,8.171,0,0,0,.883-.5l.843-.6a5.453,5.453,0,0,1,1.1-.6,2.618,2.618,0,0,1,1.225-.221,5.1,5.1,0,0,1,1.164.221,7.866,7.866,0,0,1,1.1.462q.663.3,1.084.482a6.207,6.207,0,0,0,1.124.341,5.2,5.2,0,0,0,2.349-.06,6.323,6.323,0,0,0,.783-.261q1.538-1.044,1.486-1.927a12.624,12.624,0,0,1-2.489.442,3.341,3.341,0,0,1-1.285-.3,8.344,8.344,0,0,1-1.445-.9,9.921,9.921,0,0,0-1.606-1.124,6.023,6.023,0,0,0-1.927-.582m.241-1.1.4.06a5.714,5.714,0,0,0-.341-.462L16.593,1.559q-.462-.582-.462-.6-.281-.3-.522-.542a1.606,1.606,0,0,0-.662-.381,1.313,1.313,0,0,0-.8.04Q13.2.415,13.1.435q-1.967.7-2.289.8L8,2.3a1.112,1.112,0,0,0-.8.883,1.229,1.229,0,0,0,.422,1.345,1.51,1.51,0,0,0,.8.221,5.838,5.838,0,0,0,.8-.141q.442-.06,1.024-.181l1.024-.221,1.024-.2q.6-.12,1-.221a.843.843,0,0,1,.261,0,.4.4,0,0,1,.181.161l.8,1.285a.325.325,0,0,1,.08.241.454.454,0,0,1-.141.241L12.216,7.843q-.863.843-1.345,1.285.281.12.8.321.462.181.743.321a4.707,4.707,0,0,1,.683.442,6.223,6.223,0,0,0,.723.4,2.7,2.7,0,0,0,1.024.3,1.755,1.755,0,0,0,.9-.08,3.533,3.533,0,0,0,.8-.442,9.142,9.142,0,0,1,2.811-1.3,6.633,6.633,0,0,1,2.851-.1M26.008,1.8a3.248,3.248,0,0,0-2.449-1,3.152,3.152,0,0,0-2.329,1,3.1,3.1,0,0,0-.944,2.329A3.176,3.176,0,0,0,21.25,6.5a3.429,3.429,0,0,0,2.349.984A3.377,3.377,0,0,0,26.008,6.5a3.188,3.188,0,0,0,.944-2.349,3.16,3.16,0,0,0-.9-2.329Z" transform="translate(0.05 0.011)" fill="#fff"/></g></g></g></g></svg>