<svg xmlns="http://www.w3.org/2000/svg" xmlns:xlink="http://www.w3.org/1999/xlink" width="54.55" height="54.55" viewBox="0 0 54.55 54.55"><defs><linearGradient id="a" x1="0.5" x2="0.5" y2="1" gradientUnits="objectBoundingBox"><stop offset="0" stop-color="#d0e931"/><stop offset="1" stop-color="#acc10a"/></linearGradient><filter id="b" x="0" y="0" width="54.55" height="54.55" filterUnits="userSpaceOnUse"><feOffset dy="2" input="SourceAlpha"/><feGaussianBlur stdDeviation="3" result="c"/><feFlood flood-color="#dbe3ff"/><feComposite operator="in" in2="c"/><feComposite in="SourceGraphic"/></filter></defs><g transform="translate(9 7)"><g transform="matrix(1, 0, 0, 1, -9, -7)" filter="url(#b)"><path d="M9.4,0H27.151a9.4,9.4,0,0,1,9.4,9.4V27.151a9.4,9.4,0,0,1-9.4,9.4H9.4a9.4,9.4,0,0,1-9.4-9.4V9.4A9.4,9.4,0,0,1,9.4,0Z" transform="translate(9 7)" fill="url(#a)"/></g><g transform="translate(5.05 12.011)"><g transform="translate(-0.05 -0.011)"><g transform="translate(0 0)"><path d="M18.61,8.55a5.732,5.732,0,0,0-1.647,0,5.45,5.45,0,0,0-1.528.526q-.238.119-.832.441-.492.289-.815.441A2.714,2.714,0,0,1,11.02,9.7a11.488,11.488,0,0,0-1.341-.764,5.62,5.62,0,0,0-1.46-.407,5.8,5.8,0,0,0-2.886.407,5.311,5.311,0,0,0-.917.543q-.747.543-.883.628a9.688,9.688,0,0,1-1.29.645,4.054,4.054,0,0,1-2.292,0q.207,1.725,2.258,1.851a4.754,4.754,0,0,0,2.869-.73,5.5,5.5,0,0,1,.713-.374,2.493,2.493,0,0,1,.781-.2,2.886,2.886,0,0,1,2.241.577,8.622,8.622,0,0,0,1.494.934,5.067,5.067,0,0,0,1.7.492,5.2,5.2,0,0,0,2.886-.407,6.911,6.911,0,0,0,.747-.424l.713-.509a4.611,4.611,0,0,1,.934-.509,2.214,2.214,0,0,1,1.036-.187,4.316,4.316,0,0,1,.985.187,6.653,6.653,0,0,1,.934.391q.56.255.917.407a5.25,5.25,0,0,0,.951.289,4.394,4.394,0,0,0,1.987-.051,5.348,5.348,0,0,0,.662-.221q1.3-.883,1.256-1.63a10.676,10.676,0,0,1-2.105.374,2.825,2.825,0,0,1-1.087-.255A7.056,7.056,0,0,1,21.6,9.993a8.391,8.391,0,0,0-1.358-.951,5.094,5.094,0,0,0-1.63-.492m.2-.934.34.051a4.832,4.832,0,0,0-.289-.391l-4.839-5.96q-.391-.492-.391-.509Q13.4.553,13.194.349a1.358,1.358,0,0,0-.56-.323,1.11,1.11,0,0,0-.679.034q-.8.289-.883.306-1.664.594-1.936.679l-2.377.9a.941.941,0,0,0-.679.747A1.039,1.039,0,0,0,6.436,3.83a1.277,1.277,0,0,0,.679.187A4.937,4.937,0,0,0,7.794,3.9q.374-.051.866-.153l.866-.187.866-.17q.509-.1.849-.187a.713.713,0,0,1,.221,0,.34.34,0,0,1,.153.136l.679,1.087a.275.275,0,0,1,.068.2.384.384,0,0,1-.119.2l-1.919,1.8q-.73.713-1.138,1.087.238.1.679.272.391.153.628.272a3.981,3.981,0,0,1,.577.374,5.263,5.263,0,0,0,.611.34,2.282,2.282,0,0,0,.866.255,1.484,1.484,0,0,0,.764-.068,2.988,2.988,0,0,0,.679-.374,7.732,7.732,0,0,1,2.377-1.1A5.61,5.61,0,0,1,18.78,7.6m3.209-6.079A2.747,2.747,0,0,0,19.917.672a2.666,2.666,0,0,0-1.97.849,2.625,2.625,0,0,0-.8,1.97,2.686,2.686,0,0,0,.815,2,2.9,2.9,0,0,0,1.987.832,2.856,2.856,0,0,0,2.037-.832,2.7,2.7,0,0,0,.8-1.987,2.673,2.673,0,0,0-.764-1.97Z" transform="translate(0.05 0.011)" fill="#fff"/></g></g></g></g></svg>