<svg xmlns="http://www.w3.org/2000/svg" xmlns:xlink="http://www.w3.org/1999/xlink" width="54.55" height="54.55" viewBox="0 0 54.55 54.55"><defs><linearGradient id="a" x1="0.5" x2="0.5" y2="1" gradientUnits="objectBoundingBox"><stop offset="0" stop-color="#eaac22"/><stop offset="1" stop-color="#c78c08"/></linearGradient><filter id="b" x="0" y="0" width="54.55" height="54.55" filterUnits="userSpaceOnUse"><feOffset dy="2" input="SourceAlpha"/><feGaussianBlur stdDeviation="3" result="c"/><feFlood flood-color="#dbe3ff"/><feComposite operator="in" in2="c"/><feComposite in="SourceGraphic"/></filter></defs><g transform="translate(-549 -1787)"><g transform="matrix(1, 0, 0, 1, 549, 1787)" filter="url(#b)"><path d="M9.4,0H27.151a9.4,9.4,0,0,1,9.4,9.4V27.151a9.4,9.4,0,0,1-9.4,9.4H9.4a9.4,9.4,0,0,1-9.4-9.4V9.4A9.4,9.4,0,0,1,9.4,0Z" transform="translate(9 7)" fill="url(#a)"/></g><g transform="translate(543.185 1797)"><path d="M27,24.226S19.092,8.991,30.747,3.58c0,0,1-2.955,2.539-3.58l.5,3.58A13.935,13.935,0,0,1,37.449,6.2c.957,1.249,5.37,5.453,5.37,5.453v1.582L40.9,14.708a11.269,11.269,0,0,0-3.746-1.346c-1.623-.125-3.08,1.665-4.038.333,0,0,6.868,6.743,5.911,10.531Zm14.512,4.487h-17.7v1.553h17.7Zm-1.156-3.862H24.97a1.155,1.155,0,0,0-1.155,1.155v2.066h17.7V26.006A1.155,1.155,0,0,0,40.358,24.851Z" transform="translate(0 0)" fill="#fff"/></g></g></svg>