<svg xmlns="http://www.w3.org/2000/svg" width="393.525" height="265.124" viewBox="0 0 393.525 265.124"><g transform="translate(-50.873 -39.777)"><path d="M395.574,109.1c-13.928-18.74-44.236-15.38-65.1-25.871-20.417-10.267-40.806-49.835-96.807-42.562-49.265,6.4-73.306,44-89.713,55.08C123.335,109.675,94.6,114.993,80.949,135.8c-12.206,18.6-4.72,50.683-10.431,65.929C64.047,219,50.1,235.045,50.907,253.472c.977,22.457,15.347,51.325,36.3,51.325H404.753c24.111,0,39.888-35.169,39.642-60.5-.355-36.334-28.211-56.091-33.8-74.275C404.45,150.025,413.493,133.205,395.574,109.1Z" transform="translate(0 0)" fill="#fce8ff"/><path d="M87.271,340.13H404.817c20,0,34.267-24.2,38.408-46.919H51.324C53.825,314.858,67.666,340.13,87.271,340.13Z" transform="translate(-0.063 -35.334)" fill="#99dafc"/><rect width="135.136" height="78.781" transform="translate(151.67 97.897)" fill="#bff8fc"/><rect width="34.573" height="70.852" transform="translate(156.261 101.862)" fill="#48c2c5"/><rect width="62.8" height="47.57" transform="translate(294.176 104.506)" fill="#ff7b79"/><rect width="55.288" height="33.799" transform="translate(106.821 136.741)" fill="#58b2f0"/><rect width="71.563" height="45.9" transform="translate(207.383 59.649)" fill="#58b2f0"/><rect width="44.23" height="39.433" transform="translate(230.647 62.883)" fill="#84ecfe"/><rect width="14.709" height="23.993" transform="translate(210.618 78.322)" fill="#84ecfe"/><rect width="9.909" height="2.922" transform="translate(210.618 62.883)" fill="#84ecfe"/><rect width="13.874" height="2.921" transform="translate(210.618 69.977)" fill="#84ecfe"/><path d="M241.108,88.689a1.1,1.1,0,1,0,1.095,1.095A1.1,1.1,0,0,0,241.108,88.689Z" transform="translate(-26.37 -6.819)" fill="#4d8bd2"/><path d="M241.108,96.871a1.1,1.1,0,1,0,1.095,1.1A1.1,1.1,0,0,0,241.108,96.871Z" transform="translate(-26.37 -7.96)" fill="#4d8bd2"/><path d="M241.108,105.052a1.1,1.1,0,1,0,1.095,1.1A1.1,1.1,0,0,0,241.108,105.052Z" transform="translate(-26.37 -9.101)" fill="#4d8bd2"/><path d="M292.631,70.893a12.2,12.2,0,0,0,1.238-4.26l0-.007h-2.513a11.365,11.365,0,0,1-.865,3.011c-1.1,1.864-3.629,2.937-5.524,5.417a15.95,15.95,0,0,0-2.239,5.111,23.921,23.921,0,0,1-4.1-6.021l.065.018a37.932,37.932,0,0,1,3.039-7.537h-2.781a41.233,41.233,0,0,0-1.909,4.527,43.894,43.894,0,0,0-2.726-4.527H271.2a49.807,49.807,0,0,1,5.136,8.49c1.538,2.9,3.1,5.7,5.47,7.52a3.771,3.771,0,0,1-1.124,1.527c-2.35,1.55-4.828,1.473-7.431.964s-5.147-1.541-7.6-1.469c-2.168.064-4.16,1.45-5.885,2.881v3.3c.294-.274.6-.552.93-.837,1.728-1.486,3.97-2.832,5.026-2.863,1.6-.046,4.181.86,7.049,1.423.16.031.321.061.485.089a32.432,32.432,0,0,1-8.836,18.413h3.355a35.647,35.647,0,0,0,7.949-18.15,10.764,10.764,0,0,0,5.56-1.226c5.389,6.337,6.024,12.674,4.684,19.376h2.515a29.047,29.047,0,0,0,.46-7.141A99.668,99.668,0,0,0,304,98.862V96.381a95.763,95.763,0,0,1-15.359.017,23.574,23.574,0,0,0-5.417-11.261,11.883,11.883,0,0,0,1.742-3.829,25.257,25.257,0,0,1,1.5-4A166.945,166.945,0,0,1,304,79.375v-2.51c-5.278-.849-10.454-1.548-15.4-1.905A15.112,15.112,0,0,0,292.631,70.893Z" transform="translate(-29.124 -3.743)" fill="#4d8bd2"/><path d="M269.247,75.686a1.475,1.475,0,1,0,1.475,1.475A1.476,1.476,0,0,0,269.247,75.686Z" transform="translate(-30.24 -5.006)" fill="#4d8bd2"/><path d="M283.819,100.2a1.475,1.475,0,1,0,1.474,1.475A1.476,1.476,0,0,0,283.819,100.2Z" transform="translate(-32.271 -8.424)" fill="#4d8bd2"/><path d="M264.967,98.255h4.089l-2.046-3.541Z" transform="translate(-29.849 -7.659)" fill="#4d8bd2"/><path d="M301.729,89.4c-.706-.881-.193-2.626-1.18-3.172a4.82,4.82,0,0,0-5.127.406,4.565,4.565,0,0,0-1.512,3.356c.2,1.078,2.1,1.166,2.434,2.213s-1.511,2.45-.737,3.245c1.05,1.077,2.719-.566,4.2-.332.947.149,1.892.776,2.8.479a3.62,3.62,0,0,0,2.065-4.278C304.354,90.187,302.463,90.312,301.729,89.4Z" transform="translate(-33.881 -6.398)" fill="#4d8bd2"/><rect width="19.928" height="62.718" transform="translate(259.019 109.996)" fill="#48c2c5"/><rect width="10.919" height="1.514" transform="translate(164.867 105.846)" fill="#35a1ad"/><rect width="5.901" height="1.514" transform="translate(179.437 105.846)" fill="#35a1ad"/><path d="M177.8,116.338a.939.939,0,1,0,.939.939A.938.938,0,0,0,177.8,116.338Z" transform="translate(-17.565 -10.674)" fill="#35a1ad"/><path d="M177.8,126.54a.939.939,0,1,0,.939.939A.939.939,0,0,0,177.8,126.54Z" transform="translate(-17.565 -12.096)" fill="#35a1ad"/><path d="M177.8,136.742a.939.939,0,1,0,.939.94A.939.939,0,0,0,177.8,136.742Z" transform="translate(-17.565 -13.519)" fill="#35a1ad"/><path d="M177.8,146.945a.939.939,0,1,0,.939.939A.939.939,0,0,0,177.8,146.945Z" transform="translate(-17.565 -14.941)" fill="#35a1ad"/><rect width="10.919" height="1.514" transform="translate(164.867 114.625)" fill="#35a1ad"/><rect width="10.919" height="1.514" transform="translate(164.867 123.405)" fill="#35a1ad"/><rect width="10.919" height="1.514" transform="translate(164.867 132.185)" fill="#35a1ad"/><rect width="5.901" height="1.514" transform="translate(179.437 114.625)" fill="#35a1ad"/><rect width="5.901" height="1.514" transform="translate(179.437 123.405)" fill="#35a1ad"/><rect width="5.901" height="1.514" transform="translate(179.437 132.185)" fill="#35a1ad"/><rect width="16.065" height="24.515" transform="translate(170.35 143.626)" fill="#bff8fc"/><path d="M201.6,175.41l-2.348-1.2-3.233,2.5-2.556-1.095-3.755,2.336v8.513h16.065V171.663l-.73-.426Z" transform="translate(-19.356 -18.328)" fill="#35a1ad"/><path d="M224.253,120.205a4.12,4.12,0,1,0,4.12,4.12A4.121,4.121,0,0,0,224.253,120.205Zm1.291,5.412a1.826,1.826,0,1,1,.534-1.292A1.83,1.83,0,0,1,225.544,125.617Z" transform="translate(-23.598 -11.213)" fill="#35a1ad"/><rect width="9.495" height="0.516" transform="translate(205.192 130.85)" fill="#35a1ad"/><path d="M279.172,145.349H270.56v.515h8.911l2.788-4.822-.449-.26Z" transform="translate(-30.629 -14.082)" fill="#35a1ad"/><rect width="9.389" height="0.515" transform="translate(244.52 142.429)" fill="#35a1ad"/><path d="M272.984,177v.517h6.739l2.428,4.045.443-.265-2.578-4.3Z" transform="translate(-30.966 -19.131)" fill="#35a1ad"/><path d="M227.954,182.7h-4.428v.517h4.754l2.817-5.947h7.452v-.516h-7.78Z" transform="translate(-24.071 -19.097)" fill="#35a1ad"/><rect width="14.92" height="1.641" transform="translate(262.044 113.242)" fill="#35a1ad"/><rect width="10.851" height="1.642" transform="translate(266.112 117.519)" fill="#35a1ad"/><rect width="7.043" height="1.641" transform="translate(269.92 121.796)" fill="#35a1ad"/><rect width="9.702" height="4.277" transform="translate(96.18 292.071)" fill="#7351a0"/><path d="M50.907,282.3c.593,13.614,6.108,29.582,15.027,40.048h42.657V246.514H62.931C56.765,258.1,50.355,269.633,50.907,282.3Z" transform="translate(0 -28.823)" fill="#a384e4"/><path d="M62.99,249.58c11.416-.125,38.472-.318,43.642.585a23.943,23.943,0,0,1,3.649.9v-4.55H64.62Q63.8,248.046,62.99,249.58Z" transform="translate(-1.689 -28.823)" fill="#9975d6"/><path d="M63.789,247.567h49.554v-6.2H67.057C65.991,243.441,64.888,245.5,63.789,247.567Z" transform="translate(-1.801 -28.106)" fill="#896ac0"/><path d="M50.907,283.3c.009.219.022.439.034.659h52.488V253.714H59.653C54.7,263.248,50.453,272.894,50.907,283.3Z" transform="translate(0 -29.827)" fill="#8a6ac1"/><path d="M62.659,324.586H103.51V294.342H51.461A72.374,72.374,0,0,0,62.659,324.586Z" transform="translate(-0.082 -35.491)" fill="#8a6ac1"/><path d="M69.754,269.314a1.7,1.7,0,1,0,1.7,1.7A1.7,1.7,0,0,0,69.754,269.314Z" transform="translate(-2.396 -32.002)" fill="#7351a0"/><path d="M69.754,309.942a1.7,1.7,0,1,0,1.2.5A1.695,1.695,0,0,0,69.754,309.942Z" transform="translate(-2.396 -37.666)" fill="#7351a0"/><rect width="31.866" height="49.866" transform="translate(137.36 248.671)" fill="#376bcc"/><path d="M168.583,290.743a8.04,8.04,0,1,0,8.04,8.04A8.04,8.04,0,0,0,168.583,290.743Z" transform="translate(-15.29 -34.989)" fill="#5ca0fc"/><path d="M169.384,296.486a3.1,3.1,0,1,0,3.1,3.1A3.1,3.1,0,0,0,169.384,296.486Z" transform="translate(-16.091 -35.79)" fill="#aceafc"/><path d="M178.937,304.733c-3.756,4.173-2.921,13.458-6.051,17.526s-10.64,2.608-15.543-2.5-3.337-25.871-4.694-30.982a14.594,14.594,0,0,0-1.278-3.287v47.308h31.866V300.779A33.113,33.113,0,0,0,178.937,304.733Z" transform="translate(-14.011 -34.256)" fill="#3461c3"/><path d="M168.583,315.428a8.04,8.04,0,1,0,8.04,8.04A8.043,8.043,0,0,0,168.583,315.428Z" transform="translate(-15.29 -38.431)" fill="#5ca0fc"/><path d="M169.384,321.171a3.1,3.1,0,1,0,3.1,3.1A3.1,3.1,0,0,0,169.384,321.171Z" transform="translate(-16.091 -39.232)" fill="#aceafc"/><path d="M182.455,285.171a1.515,1.515,0,1,0,1.069.443A1.51,1.51,0,0,0,182.455,285.171Z" transform="translate(-18.134 -34.213)" fill="#aceafc"/><rect width="27.902" height="49.866" transform="translate(323.673 248.671)" fill="#48c2c5"/><rect width="19.766" height="5.531" transform="translate(327.741 256.808)" fill="#acecf0"/><path d="M392,304.733c-3.287,4.173-2.558,13.458-5.3,17.526s-9.318,2.608-13.61-2.5-2.923-25.871-4.111-30.982a15.931,15.931,0,0,0-1.118-3.287v47.308h27.9V300.779A30.778,30.778,0,0,0,392,304.733Z" transform="translate(-44.195 -34.256)" fill="#42b4bc"/><rect width="16.427" height="2.087" transform="translate(329.41 279.655)" fill="#acecf0"/><path d="M392.28,324.814a1.014,1.014,0,1,0,1.014,1.015A1.015,1.015,0,0,0,392.28,324.814Z" transform="translate(-47.457 -39.74)" fill="#acecf0"/><path d="M392.28,330.557a1.014,1.014,0,1,0,1.014,1.015A1.015,1.015,0,0,0,392.28,330.557Z" transform="translate(-47.457 -40.54)" fill="#acecf0"/><path d="M256.338,245.771l.862,8.853h12.638l-.863-8.853Z" transform="translate(-28.646 -28.72)" fill="#4d93f3"/><path d="M269.486,252.426H256.263a2.315,2.315,0,0,0-2.349,2.6l.6,6.18a2.925,2.925,0,0,0,2.855,2.6h13.223a2.314,2.314,0,0,0,2.349-2.6l-.6-6.18A2.927,2.927,0,0,0,269.486,252.426Z" transform="translate(-28.306 -29.647)" fill="#4077d7"/><rect width="59.406" height="67.278" transform="translate(175.123 231.259)" fill="#e87a83"/><rect width="46.424" height="24.642" transform="translate(181.614 237.75)" fill="#c54d5d"/><rect width="46.424" height="24.642" transform="translate(181.614 268.436)" fill="#c54d5d"/><path d="M229.528,282.425A1.475,1.475,0,1,0,231,283.9,1.475,1.475,0,0,0,229.528,282.425Z" transform="translate(-24.702 -33.83)" fill="#fe858f"/><path d="M229.528,318.082A1.475,1.475,0,1,0,231,319.557,1.475,1.475,0,0,0,229.528,318.082Z" transform="translate(-24.702 -38.801)" fill="#fe858f"/><path d="M264.159,265.967h80.35v63.591h4.426V262.279H264.159Z" transform="translate(-29.736 -31.021)" fill="#e87a83"/><path d="M195.252,262.279v5.649c2.015-1.492,5-3.3,7.745-3.359,4.612-.1,131.791-1.73,136.331-1.788v-.215l-3.7-.287Z" transform="translate(-20.129 -31.021)" fill="#d76574"/><rect width="148.66" height="5.571" transform="translate(172.91 226.158)" fill="#c54d5d"/><path d="M283.548,202.283H225.42A1.531,1.531,0,0,0,223.867,204l3.367,34.593a1.937,1.937,0,0,0,1.891,1.721h58.128a1.531,1.531,0,0,0,1.552-1.721L285.436,204A1.934,1.934,0,0,0,283.548,202.283Z" transform="translate(-24.117 -22.656)" fill="#5ca0fc"/><path d="M223.868,204.284l3.368,34.593h61.571l-3.369-34.593Z" transform="translate(-24.119 -22.935)" fill="#aceafc"/><path d="M254.139,207.677l2.8,28.75h30.692l-2.8-28.75Z" transform="translate(-28.339 -23.409)" fill="#5ca0fc"/><path d="M229.41,207.677l2.8,28.75H245.69l-2.8-28.75Z" transform="translate(-24.891 -23.409)" fill="#5ca0fc"/><path d="M232.626,210.829l.341,3.507h8.474l-.342-3.507Z" transform="translate(-25.34 -23.848)" fill="#4983e4"/><path d="M233.206,216.789l.342,3.507h8.473l-.342-3.507Z" transform="translate(-25.421 -24.679)" fill="#4983e4"/><path d="M234.949,224.829a.673.673,0,0,0-.682.756.85.85,0,0,0,.829.756.674.674,0,0,0,.682-.756A.852.852,0,0,0,234.949,224.829Z" transform="translate(-25.568 -25.8)" fill="#4983e4"/><path d="M235.351,228.956a.674.674,0,0,0-.682.756.852.852,0,0,0,.83.756.673.673,0,0,0,.682-.756A.852.852,0,0,0,235.351,228.956Z" transform="translate(-25.624 -26.375)" fill="#4983e4"/><path d="M235.753,233.085a.675.675,0,0,0-.682.756.852.852,0,0,0,.83.756.675.675,0,0,0,.683-.756A.854.854,0,0,0,235.753,233.085Z" transform="translate(-25.68 -26.951)" fill="#4983e4"/><path d="M236.155,237.214a.673.673,0,0,0-.682.756.851.851,0,0,0,.829.756.674.674,0,0,0,.682-.756A.852.852,0,0,0,236.155,237.214Z" transform="translate(-25.736 -27.527)" fill="#4983e4"/><path d="M298.9,340.062l-5.761-1.281s-1.66,1.005-2.676,1.484c-1.545.728-5.25,1.734-7.332,2.706-1.082.505-1.31,3.1-.232,3.258,4.8.7,9.022.143,14.9.233.863.013,1.789-1.063,1.4-2.909A9.2,9.2,0,0,1,298.9,340.062Z" transform="translate(-32.251 -41.687)" fill="#9466cf"/><path d="M279.833,340.062l-5.761-1.281s-1.66,1.005-2.676,1.484c-1.545.728-5.25,1.734-7.332,2.706-1.083.505-1.311,3.1-.232,3.258,4.8.7,9.022.143,14.9.233.865.013,1.788-1.063,1.4-2.909A9.19,9.19,0,0,1,279.833,340.062Z" transform="translate(-29.592 -41.687)" fill="#a370e4"/><path d="M278.615,274.563c-3.168,1.829-4.182,3.394-4.423,7.215-.982,15.547.033,46.735.033,46.735a9.715,9.715,0,0,0,7.414,2.047c1.528-2.915,4.441-24.672,6.663-37.008.639,11.934.234,26.558,1.929,35.783a12.437,12.437,0,0,0,7.528,1.358c.746-2.782,2.6-26.87,3.9-40.3l7.8-8.262,3.841-16.643-12.452-1.744S285.467,270.607,278.615,274.563Z" transform="translate(-31.075 -31.225)" fill="#2b478d"/><path d="M319.625,204.864l.576,9.463,10.286-2.387-1.811-9.051Z" transform="translate(-37.469 -22.741)" fill="#fdbc9d"/><path d="M294.048,246.234c-1.656.608-11.472,2.565-16.629,1.738a5.738,5.738,0,0,0-3.739,1.122,8.339,8.339,0,0,0-3.5,3.872c-.763,2.036,4.271.315,6.41.7,3.107.552,6.434-.5,16.093,1.553,2.354.5,4.466.5,6.144-.694,4.175-2.982,6.49-12.6,6.49-12.6l-8.572-1.5S295.9,245.556,294.048,246.234Z" transform="translate(-30.565 -27.974)" fill="#fdbc9d"/><path d="M336.3,214.7c-1.442-1.848-6.254-3.209-6.254-3.209A42.765,42.765,0,0,0,317,213.319s-5.087,1.407-7.122,2.981c-4.614,3.572-10.538,18.892-10.538,18.892,2.178,3.763,8.528,5.211,9.806,4.886a109.639,109.639,0,0,1-4.262,11.75c-.285.573-.067,1.726-.262,2.337-.243.77-1.241.347-1.552,1.093-.254.608-.654,1.364-.349,1.949,1.521,2.923,5.758,3.425,8.973,4.15,7.412,1.674,17.079,5.255,22.8.248,9.08-7.96,5.014-23.9,4.361-35.962C338.647,221.9,338.6,217.652,336.3,214.7Z" transform="translate(-34.641 -23.936)" fill="#a370e4"/><path d="M317.238,228.042a.205.205,0,0,0-.192.152c-1.132,4.041-4.12,10.938-6.511,14.071a.207.207,0,0,0,.33.25c2.466-3.231,5.43-10.1,6.579-14.209A.207.207,0,0,0,317.238,228.042Z" transform="translate(-36.196 -26.248)" fill="#7e57b1"/><path d="M328.473,189.409a4.563,4.563,0,0,0-1.571-4.364c-3.347-3.183-11.9-.977-14.038.906-3.4,3-7.059,4.682-5.33,9.211.713,1.868,3.225,1.559,3.225,1.559l10.092,5.577,2.706,4.015a9.417,9.417,0,0,0,5.062-.553,28.914,28.914,0,0,1,.463-4.555c.5-2.175,2.342-4.849,2.359-7.082A4.794,4.794,0,0,0,328.473,189.409Z" transform="translate(-35.722 -20.029)" fill="#1f347e"/><path d="M320.078,212.246a12.191,12.191,0,0,0,3.153-6.656s-1.941,1.3-3.416,2.343Z" transform="translate(-37.496 -23.118)" fill="#c7947b"/><path d="M322.462,199.98c-1.12.013-1.481,2.1-1.481,2.1s-.9.53-.885.225c.063-1.539-.466-2.529-1.154-2.65-1.343-.236-1.4-1.151-2.967-1.354a17.7,17.7,0,0,0-4.622.486s.6,6.725,2.634,9.176c1.184,1.429,3.225,2.329,4.855,1.11a8.272,8.272,0,0,0,2.675-3.867c.131-.342.312.766,1.069.248C324.09,204.42,324.689,199.956,322.462,199.98Z" transform="translate(-36.316 -22.096)" fill="#fdbc9d"/><path d="M324.091,201.987a1.08,1.08,0,0,0-.532.428.207.207,0,0,0,.33.251.763.763,0,0,1,.319-.283c.063-.018.082-.013.136.036a1.423,1.423,0,0,1,.258.81,1.723,1.723,0,0,1-.2.972.422.422,0,0,1-.25.191.624.624,0,0,1-.423-.074.207.207,0,1,0-.179.372,1.033,1.033,0,0,0,.7.1.851.851,0,0,0,.493-.358,2.021,2.021,0,0,0,.275-1.23,1.572,1.572,0,0,0-.392-1.089A.563.563,0,0,0,324.091,201.987Z" transform="translate(-37.998 -22.612)" fill="#c7947b"/><rect width="4.131" height="4.695" transform="translate(285.122 264.321)" fill="#185f7b"/><path d="M346.164,297.631H286.93a1.162,1.162,0,0,0-1.106,1.215v1.92a1.161,1.161,0,0,0,1.106,1.214h59.235a1.161,1.161,0,0,0,1.106-1.214v-1.92A1.162,1.162,0,0,0,346.164,297.631Z" transform="translate(-32.757 -35.95)" fill="#1c6f90"/><path d="M347.6,220.7c-7.22-.461-15.828-.151-23.74,0-5.731.11-9.965,5.029-10.939,9.835-2.389,11.775-3.1,29.239-5.063,39.567-.551,2.892-3.672,3.114-5.935,3.434-4.913.694-9.119.922-14.082,1.745a6.146,6.146,0,0,0-4.132,3.84,11.968,11.968,0,0,0-.406,4.888,3.546,3.546,0,0,0,3.637,3.2h55.772c3.535,0,4.56-1.4,5.238-5.47,3.055-18.337,6.323-33.386,7.971-50.274C356.546,225.09,352.13,220.987,347.6,220.7Z" transform="translate(-32.392 -25.19)" fill="#2285ac"/><path d="M355.393,225.84c-3.654-.4-8.83-.664-13.644-.719a66.168,66.168,0,0,0-11.471.559c-2.781.581-5,3.482-5.747,6.145-3.873,13.871-5.936,41.864-5.936,41.864a.31.31,0,1,0,.618.045s2.083-28.024,5.913-41.741c.688-2.462,2.848-5.2,5.28-5.706a67.089,67.089,0,0,1,11.336-.547c4.8.055,9.964.323,13.584.717a3.647,3.647,0,0,1,2.967,1.529,2.337,2.337,0,0,1,.377,1.2.31.31,0,1,0,.62.018,3.062,3.062,0,0,0-.471-1.545A4.324,4.324,0,0,0,355.393,225.84Z" transform="translate(-37.325 -25.839)" fill="#1c668c"/><rect width="6.61" height="25.702" transform="translate(283.889 268.778)" fill="#1c6f90"/><path d="M331.957,334.081H315.731a7.506,7.506,0,0,0-7.521,7.522v4.225h31.269V341.6A7.506,7.506,0,0,0,331.957,334.081Z" transform="translate(-35.878 -41.032)" fill="#185f7b"/><rect width="7.008" height="6.123" transform="translate(223.737 129.616)" fill="#35a1ad"/><rect width="12.318" height="6.123" transform="translate(221.083 144.221)" fill="#35a1ad"/><path d="M247.185,152.436l-1.863-1.385a1.356,1.356,0,0,0-1.882.37l-2.925,3.936a1.357,1.357,0,0,0,.19,1.91l1.863,1.384a1.357,1.357,0,0,0,1.883-.37l2.924-3.936A1.357,1.357,0,0,0,247.185,152.436Z" transform="translate(-26.397 -15.481)" fill="#35a1ad"/><path d="M241.932,159.618l-1.744-1.3a1.409,1.409,0,0,0-1.964.353l-1.844,2.484a1.409,1.409,0,0,0,.228,1.982l1.744,1.3a1.408,1.408,0,0,0,1.962-.354l1.846-2.484A1.407,1.407,0,0,0,241.932,159.618Z" transform="translate(-25.821 -16.492)" fill="#48c2c5"/><path d="M237.7,165.08l-1.33-.989a1.676,1.676,0,0,0-2.335.421l-.788,1.06a1.677,1.677,0,0,0,.272,2.356l1.33.989a1.676,1.676,0,0,0,2.335-.421l.788-1.06A1.675,1.675,0,0,0,237.7,165.08Z" transform="translate(-25.376 -17.289)" fill="#35a1ad"/><path d="M266.869,151.422a1.356,1.356,0,0,0-1.882-.37l-1.863,1.385a1.357,1.357,0,0,0-.191,1.909l2.925,3.936a1.357,1.357,0,0,0,1.883.37l1.863-1.384a1.358,1.358,0,0,0,.19-1.91Z" transform="translate(-29.523 -15.481)" fill="#35a1ad"/><path d="M272.259,158.675a1.407,1.407,0,0,0-1.963-.353l-1.745,1.3a1.408,1.408,0,0,0-.228,1.98l1.846,2.484a1.408,1.408,0,0,0,1.962.354l1.745-1.3a1.409,1.409,0,0,0,.228-1.982Z" transform="translate(-30.274 -16.492)" fill="#48c2c5"/><path d="M276.6,164.512a1.675,1.675,0,0,0-2.334-.421l-1.33.989a1.675,1.675,0,0,0-.272,2.356l.788,1.06a1.675,1.675,0,0,0,2.334.421l1.33-.989a1.675,1.675,0,0,0,.272-2.356Z" transform="translate(-30.872 -17.289)" fill="#35a1ad"/><rect width="18.513" height="15.158" rx="3.171" transform="translate(217.985 132.567)" fill="#48c2c5"/><path d="M252.616,175.586H247.6a1.443,1.443,0,0,0-1.36,1.143l-.509,2.693a.918.918,0,0,0,.927,1.143h5.016a1.444,1.444,0,0,0,1.36-1.143l.509-2.693A.918.918,0,0,0,252.616,175.586Z" transform="translate(-27.164 -18.934)" fill="#35a1ad"/><path d="M264.52,176.729a1.443,1.443,0,0,0-1.36-1.143h-5.015a.918.918,0,0,0-.927,1.143l.509,2.693a1.446,1.446,0,0,0,1.361,1.143H264.1a.918.918,0,0,0,.928-1.143Z" transform="translate(-28.765 -18.934)" fill="#35a1ad"/><path d="M1.328,0H17.185a1.328,1.328,0,0,1,1.328,1.328V6.483a1.329,1.329,0,0,1-1.329,1.329H1.329A1.329,1.329,0,0,1,0,6.483V1.328A1.328,1.328,0,0,1,1.328,0Z" transform="translate(217.985 149.334)" fill="#48c2c5"/><path d="M1.386,0H8.9a1.387,1.387,0,0,1,1.387,1.387V2.782A1.386,1.386,0,0,1,8.9,4.168H1.386A1.386,1.386,0,0,1,0,2.782v-1.4A1.386,1.386,0,0,1,1.386,0Z" transform="translate(222.098 138.063)" fill="#acecf0"/><path d="M252.133,181.365h-5.921a.386.386,0,0,0-.361.3l-.089.474a.243.243,0,0,0,.246.3h5.921a.384.384,0,0,0,.361-.3l.089-.474A.243.243,0,0,0,252.133,181.365Z" transform="translate(-27.17 -19.74)" fill="#48c2c5"/><path d="M251.285,182.614h-5.016a1.444,1.444,0,0,0-1.36,1.143l-.509,2.693a.918.918,0,0,0,.926,1.144h5.016a1.443,1.443,0,0,0,1.36-1.144l.509-2.693A.918.918,0,0,0,251.285,182.614Z" transform="translate(-26.978 -19.914)" fill="#35a1ad"/><path d="M249.9,188.047H243.55a2.649,2.649,0,0,0-2.495,2.1l-.236,1.244a1.685,1.685,0,0,0,1.7,2.1h6.354a2.647,2.647,0,0,0,2.494-2.1l.235-1.244A1.684,1.684,0,0,0,249.9,188.047Z" transform="translate(-26.477 -20.672)" fill="#48c2c5"/><path d="M264.746,181.365h-5.921a.244.244,0,0,0-.246.3l.089.474a.384.384,0,0,0,.361.3h5.921a.243.243,0,0,0,.246-.3l-.089-.474A.385.385,0,0,0,264.746,181.365Z" transform="translate(-28.957 -19.74)" fill="#48c2c5"/><path d="M265.851,183.757a1.442,1.442,0,0,0-1.359-1.143h-5.016a.918.918,0,0,0-.928,1.143l.51,2.693a1.443,1.443,0,0,0,1.36,1.144h5.016a.918.918,0,0,0,.926-1.144Z" transform="translate(-28.951 -19.914)" fill="#35a1ad"/><path d="M269.217,190.144a2.648,2.648,0,0,0-2.494-2.1h-6.354a1.685,1.685,0,0,0-1.7,2.1l.236,1.244a2.646,2.646,0,0,0,2.493,2.1h6.354a1.685,1.685,0,0,0,1.7-2.1Z" transform="translate(-28.965 -20.672)" fill="#48c2c5"/><path d="M2.411,0H5.406A2.411,2.411,0,0,1,7.817,2.411v.74A2.411,2.411,0,0,1,5.406,5.562h-3A2.41,2.41,0,0,1,0,3.152V2.411A2.411,2.411,0,0,1,2.411,0Z" transform="translate(212.534 119.017)" fill="#35a1ad"/><path d="M2.411,0h3A2.409,2.409,0,0,1,7.817,2.409v.742A2.411,2.411,0,0,1,5.406,5.562H2.411A2.411,2.411,0,0,1,0,3.151v-.74A2.411,2.411,0,0,1,2.411,0Z" transform="translate(234 119.017)" fill="#35a1ad"/><path d="M8.121,0H18.212a8.122,8.122,0,0,1,8.122,8.122v2.493a8.121,8.121,0,0,1-8.121,8.121H8.121A8.121,8.121,0,0,1,0,10.615V8.121A8.121,8.121,0,0,1,8.121,0Z" transform="translate(214.075 112.43)" fill="#48c2c5"/><path d="M260.212,131.231H248.587a2.94,2.94,0,0,0-2.921,2.972v.689a2.941,2.941,0,0,0,2.921,2.973h11.626a2.941,2.941,0,0,0,2.921-2.973V134.2A2.94,2.94,0,0,0,260.212,131.231Z" transform="translate(-27.158 -12.75)" fill="#acecf0"/><path d="M250.431,133.085a1.722,1.722,0,1,0,1.721,1.722A1.722,1.722,0,0,0,250.431,133.085Z" transform="translate(-27.582 -13.009)" fill="#35a1ad"/><path d="M260.371,133.085a1.722,1.722,0,1,0,1.217.5A1.721,1.721,0,0,0,260.371,133.085Z" transform="translate(-28.968 -13.009)" fill="#35a1ad"/><path d="M136.428,306.886h-6.081a.31.31,0,1,0,.031.619h6.05a.31.31,0,1,0,0-.619Z" transform="translate(-11.039 -37.24)" fill="#67aad2"/><path d="M132.394,312.946H122.347a.31.31,0,1,0,.03.62h10.016a.31.31,0,1,0,0-.62Z" transform="translate(-9.924 -38.085)" fill="#67aad2"/><path d="M137.984,326.28h-5.423a.31.31,0,1,0,0,.619h5.423a.31.31,0,1,0,0-.619Z" transform="translate(-11.344 -39.944)" fill="#67aad2"/><path d="M461.149,325.069H439.211a.31.31,0,1,0,.032.619h21.906a.31.31,0,1,0,0-.619Z" transform="translate(-54.101 -39.775)" fill="#67aad2"/><path d="M456.492,330.886h-8.764a.31.31,0,1,0,0,.62h8.764a.31.31,0,1,0,0-.62Z" transform="translate(-55.284 -40.586)" fill="#67aad2"/><path d="M487.695,302.764H471a.31.31,0,0,0,0,.62h16.691a.31.31,0,1,0,0-.62Z" transform="translate(-58.531 -36.665)" fill="#67aad2"/><path d="M483.394,308.34h-7.333a.31.31,0,0,0,.032.62h7.3a.31.31,0,1,0,0-.62Z" transform="translate(-59.238 -37.443)" fill="#67aad2"/><path d="M156.968,159.489h-3.574a.369.369,0,0,0-.372.367v7.268a.37.37,0,0,0,.372.368h3.574a.37.37,0,0,0,.373-.368v-7.268A.369.369,0,0,0,156.968,159.489Z" transform="translate(-14.241 -16.69)" fill="#4d8bd2"/><path d="M142.226,159.489h-3.575a.369.369,0,0,0-.371.367v7.268a.37.37,0,0,0,.371.368h3.575a.371.371,0,0,0,.373-.368v-7.268A.369.369,0,0,0,142.226,159.489Z" transform="translate(-12.186 -16.69)" fill="#4d8bd2"/><path d="M157.757,162.189l-.007.01a1.138,1.138,0,0,0-1.133-1h-22.57a1.14,1.14,0,0,0-1.141,1.069c-.119.419-1.571,5.435-5.978,16.413-.891,2.219,4,5.025,6.971,1.7,1.711-1.913,4.942-5.9,4.942-5.9h13.005s3.232,3.989,4.943,5.9c2.975,3.328,7.861.522,6.971-1.7C159.152,167.208,157.757,162.189,157.757,162.189Z" transform="translate(-10.589 -16.929)" fill="#84ecfe"/><path d="M346.7,133.252h1.477l-7.893,22.055h10.991l6.122-16.449h25.154l2.359-9.516-36.807.038Z" transform="translate(-40.35 -12.487)" fill="#ffe43b"/><path d="M357.885,126.932l-1.2,2.5h19.561l-1.67-2.5Z" transform="translate(-42.636 -12.151)" fill="#ffe43b"/><path d="M389.233,137.483h1.929l1.409-5.582H390.8Z" transform="translate(-47.174 -12.844)" fill="#ffe43b"/><path d="M365.987,143.458a2.325,2.325,0,0,1-2.009,1.457l-7.658,0v1.24l7.658,0A3.565,3.565,0,0,0,367.1,144c.913-1.894,2.046-4.621,2.046-4.621l-1.143-.475S366.872,141.624,365.987,143.458Z" transform="translate(-42.585 -13.82)" fill="#ffe43b"/><path d="M363.818,138.871a.829.829,0,0,0-.729.422,7.308,7.308,0,0,0-.9,2.022,3.044,3.044,0,0,0,.622,2.687.827.827,0,1,0,1.253-1.078,1.2,1.2,0,0,1-.266-1.235,6.391,6.391,0,0,1,.719-1.567A.826.826,0,0,0,363.818,138.871Z" transform="translate(-43.392 -13.816)" fill="#ffe43b"/><path d="M346.852,138.63l-5.6,15.649H349l4.852-12.154-1.306-3.495Z" transform="translate(-40.484 -13.782)" fill="#f1b226"/><path d="M362.685,133.564h16.953l.887-1.721H363.571Z" transform="translate(-43.472 -12.836)" fill="#f1b226"/><path d="M434.4,242.748c-1.009-2.029-.346-4.8-1.77-6.565-1.111-1.379-3.437-1.215-4.72-2.435-.886-.843-.811-2.516-1.843-3.171-1.918-1.217-5.232-.232-7.082-1.55-4.074-2.9-10.99-4.2-10.99-4.2s4.33,4.873,5.311,8.7c.438,1.714-.653,5.62,1.7,8.408,1.859,2.207,5.288,2.582,7.3,4.648,1.964,2.013,2.178,5.444,4.352,7.229,1.516,1.244,3.188.906,4.647,2.213,1.083.968,1.236,2.762,2.8,3.688a14.364,14.364,0,0,1,3.024,1.845,16.528,16.528,0,0,1,2.139,3.467s1.941-10.692.294-15.639C438.679,246.727,435.649,245.258,434.4,242.748Z" transform="translate(-49.789 -25.799)" fill="#ffb119"/><path d="M417.038,232.392a.258.258,0,1,0-.349.38A173.748,173.748,0,0,1,436.5,254.795a.258.258,0,1,0,.409-.315A174.173,174.173,0,0,0,417.038,232.392Z" transform="translate(-50.99 -26.844)" fill="#a03f4c"/><path d="M472.892,236.611c-2.117.818-5.085-.954-7.244-.25-1.163.379-1.5,2.019-2.571,2.616-1.545.865-3.759.131-5.176,1.192-1.816,1.356-1.858,4.207-3.339,5.923-1.832,2.123-5.13,2.8-6.645,5.155-2.819,4.387-3.583,15.226-3.583,15.226a16.5,16.5,0,0,1,2.93-2.831,14.372,14.372,0,0,1,3.386-1.039c1.748-.508,2.34-2.209,3.628-2.88,1.738-.9,3.275-.165,5.05-.995,2.548-1.19,3.6-4.462,6-5.928,2.464-1.5,5.879-1.017,8.225-2.7,2.966-2.121,2.875-6.175,3.724-7.727,1.9-3.47,7.3-7.12,7.3-7.12S477.558,234.81,472.892,236.611Z" transform="translate(-54.856 -27.247)" fill="#ffb119"/><path d="M476.5,240.316a.294.294,0,0,0-.068.009c-11.194,3-18.157,9.668-24.8,16.534a.258.258,0,0,0,.373.358c6.633-6.856,13.5-13.431,24.562-16.391A.258.258,0,0,0,476.5,240.316Z" transform="translate(-55.862 -27.959)" fill="#a03f4c"/><path d="M460.911,244.939a.256.256,0,0,0-.257.23l-.626,5.374a.259.259,0,1,0,.513.059l.625-5.374A.257.257,0,0,0,460.911,244.939Z" transform="translate(-57.044 -28.603)" fill="#a03f4c"/><path d="M457.8,196.489c-7.8,4.76-5.789,9.139-7.451,10.769-3.149,3.089-8.132,4.4-10.4,8.188-5.553,9.266-2.78,14.686-2.8,18.883-.015,2.364-1.867,4.6-1.477,6.935.631,3.764,3.7,6.7,5.9,9.811,2.027,2.862,3.54,9.147,3.54,9.147a61.888,61.888,0,0,1,4.131-10.7c2.156-4.2,5.848-5.367,7.745-8.778,2.323-4.174,1.669-9.629,4.131-13.721,1.534-2.546,5.026-3.6,6.343-6.269,1.54-3.111.31-7.009,1.329-10.327.8-2.608,2.927-4.683,3.688-7.3.7-2.419-.033-5.125.737-7.524a27.006,27.006,0,0,1,3.024-5.238,27.246,27.246,0,0,0-9.073,3.837C464.462,195.942,460.542,194.814,457.8,196.489Z" transform="translate(-53.64 -20.995)" fill="#ffdd19"/><path d="M468.385,200.862a.261.261,0,0,0-.181.074c-14.75,13.85-20.106,32.1-22.283,51.8a.259.259,0,0,0,.515.056c2.17-19.633,7.492-37.736,22.122-51.476A.258.258,0,0,0,468.385,200.862Z" transform="translate(-55.077 -22.458)" fill="#a03f4c"/><path d="M452.176,215.262a.259.259,0,0,0-.256.26,61.188,61.188,0,0,0,1,11.518.258.258,0,1,0,.508-.09,60.557,60.557,0,0,1-.991-11.422A.259.259,0,0,0,452.176,215.262Z" transform="translate(-55.913 -24.466)" fill="#a03f4c"/><path d="M464.652,199.919a.259.259,0,0,0-.249.238l-.738,8.188a.258.258,0,1,0,.513.047l.738-8.189A.258.258,0,0,0,464.652,199.919Z" transform="translate(-57.551 -22.327)" fill="#a03f4c"/><path d="M467.731,216.123a.221.221,0,0,0-.095.015l-10.4,3.614a.259.259,0,0,0,.17.489l10.4-3.616A.257.257,0,0,0,467.731,216.123Z" transform="translate(-56.63 -24.586)" fill="#a03f4c"/><path d="M460.035,234.123a.219.219,0,0,0-.093.015,41.457,41.457,0,0,0-10.094,4.971.258.258,0,1,0,.288.429,40.965,40.965,0,0,1,9.968-4.91A.257.257,0,0,0,460.035,234.123Z" transform="translate(-55.608 -27.096)" fill="#a03f4c"/><path d="M471.725,238.575a.258.258,0,0,0-.238.157l-2.349,5.32a.259.259,0,0,0,.473.208l2.348-5.32A.257.257,0,0,0,471.725,238.575Z" transform="translate(-58.311 -27.716)" fill="#a03f4c"/><path d="M469.413,249.5l-6.207-.312h-.026a.258.258,0,0,0,0,.516l6.207.314a.259.259,0,1,0,.025-.517Z" transform="translate(-57.45 -29.195)" fill="#a03f4c"/><path d="M462.56,255.417l-5.632-.836a.211.211,0,0,0-.052,0,.258.258,0,0,0-.023.514l5.633.836a.258.258,0,1,0,.074-.51Z" transform="translate(-56.57 -29.947)" fill="#a03f4c"/><path d="M485.676,251.9c-4.355-1.7-8.454.841-11.138.516-2.352-.284-4.537-2.267-10.327-1.476-9.9,1.354-15.935,17.113-15.935,17.113s4.149-3.987,7.82-3.54c3.219.392,5.476,3.494,11.949,4.056,8.676.755,10.431-2.965,13.568-2.975,1.91-.008,3.775.779,5.684.763,2.095-.018,3.929-.78,6.012-1a14.526,14.526,0,0,1,5.864,1S494.507,255.351,485.676,251.9Z" transform="translate(-55.406 -29.414)" fill="#ffdd19"/><path d="M470.816,257.841a33.746,33.746,0,0,0-19.055,7.255.256.256,0,0,0-.053.367.259.259,0,0,0,.371.039c11.563-8.98,25.569-9.19,38.794-2.737a.258.258,0,1,0,.227-.463A41.089,41.089,0,0,0,470.816,257.841Z" transform="translate(-55.876 -30.395)" fill="#a03f4c"/><path d="M484.64,258.828a.258.258,0,1,0-.346.383l5.843,5.267a.258.258,0,1,0,.345-.383Z" transform="translate(-60.415 -30.53)" fill="#a03f4c"/><path d="M488.285,254.275a.254.254,0,0,0-.093.022l-7.405,3.234a.259.259,0,1,0,.207.473l7.406-3.235A.258.258,0,0,0,488.285,254.275Z" transform="translate(-59.915 -29.905)" fill="#a03f4c"/><path d="M470.2,258.393a.249.249,0,0,0-.167-.06.258.258,0,0,0-.156.462l8.241,6.626a.258.258,0,1,0,.323-.4Z" transform="translate(-58.404 -30.471)" fill="#a03f4c"/><path d="M469.059,253a.256.256,0,0,0-.194.1l-4.538,5.58a.259.259,0,0,0,.4.326l4.537-5.583A.259.259,0,0,0,469.059,253Z" transform="translate(-57.635 -29.727)" fill="#a03f4c"/><path d="M422.574,249.12c-5.642-1.524-8.064.163-10.43.145-2.7-.021-6.446-3.068-10.982-1.935-9.2,2.3-15.235,12.616-15.235,12.616a14.523,14.523,0,0,1,5.944-.239c2.039.48,3.762,1.469,5.836,1.755,1.892.262,3.842-.281,5.735-.03,3.111.411,4.376,4.324,13.077,4.684,6.491.268,9.126-2.519,12.37-2.5,3.7.024,7.3,4.51,7.3,4.51S432.22,251.726,422.574,249.12Z" transform="translate(-46.713 -28.902)" fill="#ffdd19"/><path d="M412.157,254.7a43.311,43.311,0,0,0-15.661,2.4.259.259,0,1,0,.164.491c13.941-4.713,27.807-2.715,38.128,7.668a.258.258,0,1,0,.366-.365A33.759,33.759,0,0,0,412.157,254.7Z" transform="translate(-48.161 -29.96)" fill="#a03f4c"/><path d="M408.8,254.914a.255.255,0,0,0-.138.047l-6.466,4.48a.258.258,0,1,0,.294.423l6.466-4.478A.259.259,0,0,0,408.8,254.914Z" transform="translate(-48.965 -29.994)" fill="#a03f4c"/><path d="M405.579,249.863a.245.245,0,0,0-.148-.038.258.258,0,0,0-.117.479l6.932,4.153a.258.258,0,1,0,.266-.441Z" transform="translate(-49.398 -29.285)" fill="#a03f4c"/><path d="M422.767,256.334a.269.269,0,0,0-.141.04l-9.018,5.517a.258.258,0,1,0,.268.441l9.02-5.517A.259.259,0,0,0,422.767,256.334Z" transform="translate(-50.553 -30.192)" fill="#a03f4c"/><path d="M425.365,251.2a.259.259,0,1,0-.44.272l3.789,6.116a.259.259,0,1,0,.438-.273Z" transform="translate(-52.144 -29.459)" fill="#a03f4c"/><path d="M433.8,295.167c.217,1.436.67,2.429,1.952,2.429h17.62c1.158,0,1.683-.855,1.91-2.164l3.613-23.5H430.233Z" transform="translate(-52.89 -32.367)" fill="#4685f4"/><path d="M432.937,289.525c12.272,3.648,18.662-3.441,25.179-12.5l.781-5.092H430.231Z" transform="translate(-52.89 -32.366)" fill="#4995fe"/><path d="M455.468,284.137c-.173.191-.352.367-.527.553-1.091,4.717-4.174,8.909-8.132,13.731h8.876c1.158,0,1.683-.855,1.91-2.164l2.83-18.41c-.816,1.134-1.628,2.236-2.45,3.289S456.323,283.2,455.468,284.137Z" transform="translate(-55.201 -33.191)" fill="#4079de"/><path d="M456.036,283.864c.175-.186.354-.361.527-.552.855-.941,1.687-1.947,2.509-3s1.634-2.155,2.45-3.289l.781-5.092h-7.641C456.558,276.525,456.851,280.341,456.036,283.864Z" transform="translate(-56.296 -32.366)" fill="#498efe"/><path d="M1.357,0H29.331a1.358,1.358,0,0,1,1.358,1.358v.828a1.358,1.358,0,0,1-1.358,1.358H1.356A1.356,1.356,0,0,1,0,2.189V1.357A1.357,1.357,0,0,1,1.357,0Z" transform="translate(376.33 236.019)" fill="#4685f4"/><path d="M459.175,270.771c-.563.46-28.625-.162-29.031-.3s-.328-1.331-.348-1.95a1.269,1.269,0,0,1,.2-.688,1.168,1.168,0,0,0-.94,1.146v1.207a1.167,1.167,0,0,0,1.169,1.17h28.353a1.167,1.167,0,0,0,1.168-1.17v-.07A3.355,3.355,0,0,1,459.175,270.771Z" transform="translate(-52.726 -31.796)" fill="#386ac3"/><path d="M309.721,155.14H296.9v-2.491h-.661v5.6h.661V155.76h12.823v2.491h.66v-5.6h-.66Z" transform="translate(-34.208 -15.737)" fill="#35a1ad"/><path d="M304.5,154.55a1.131,1.131,0,1,0,1.13,1.132A1.132,1.132,0,0,0,304.5,154.55Z" transform="translate(-35.202 -16.002)" fill="#35a1ad"/><path d="M228.94,144.473a1.2,1.2,0,1,0,1.2,1.2A1.2,1.2,0,0,0,228.94,144.473Zm0,1.879a.681.681,0,1,1,.68-.682A.678.678,0,0,1,228.94,146.352Z" transform="translate(-24.659 -14.597)" fill="#35a1ad"/><path d="M284.169,138.579a1.2,1.2,0,1,0,1.2,1.2A1.2,1.2,0,0,0,284.169,138.579Zm0,1.878a.681.681,0,1,1,.682-.681A.677.677,0,0,1,284.169,140.457Z" transform="translate(-32.359 -13.775)" fill="#35a1ad"/><path d="M287.729,157.942a1.2,1.2,0,1,0,1.2,1.2A1.2,1.2,0,0,0,287.729,157.942Zm0,1.878a.681.681,0,1,1,.68-.68A.677.677,0,0,1,287.729,159.82Z" transform="translate(-32.855 -16.474)" fill="#35a1ad"/><path d="M284.262,181.746a1.2,1.2,0,1,0,1.2,1.2A1.2,1.2,0,0,0,284.262,181.746Zm0,1.879a.681.681,0,1,1,.68-.68A.677.677,0,0,1,284.262,183.625Z" transform="translate(-32.372 -19.793)" fill="#35a1ad"/><path d="M222.3,182.614a1.2,1.2,0,1,0,1.2,1.2A1.2,1.2,0,0,0,222.3,182.614Zm0,1.878a.681.681,0,1,1,.681-.682A.677.677,0,0,1,222.3,184.492Z" transform="translate(-23.733 -19.914)" fill="#35a1ad"/><path d="M140.2,164.717a3.618,3.618,0,1,0,2.554,1.059A3.612,3.612,0,0,0,140.2,164.717Z" transform="translate(-11.95 -17.419)" fill="#4d8bd2"/><path d="M154.945,164.717a3.615,3.615,0,1,0,2.556,1.059A3.614,3.614,0,0,0,154.945,164.717Z" transform="translate(-14.006 -17.419)" fill="#4d8bd2"/><path d="M202.795,293.124a6.4,6.4,0,0,0,2.715-3.534c1.774-4.59.417-8.762,4.59-11.474s31.19-7.824,34.842-5.008c3.064,2.363,2.457,7.517,4.277,10.1V269.822H202.795Z" transform="translate(-21.181 -32.073)" fill="#b84857"/><path d="M202.795,328.781a6.4,6.4,0,0,0,2.715-3.532c1.774-4.59.417-8.763,4.59-11.475s31.19-7.825,34.842-5.009c3.064,2.364,2.457,7.517,4.277,10.1V305.48H202.795Z" transform="translate(-21.181 -37.044)" fill="#b84857"/><path d="M58.5,258.122a19.181,19.181,0,0,1,4.006-.8c5.737-.417,30.46-3.025,34.841.522,3.854,3.12,6.092,4.707,7.144,10.72V253.714H60.716Q59.574,255.912,58.5,258.122Z" transform="translate(-1.063 -29.827)" fill="#8365b8"/><path d="M52.041,298c.172-.019.343-.036.512-.047,5.737-.418,39.432-3.026,43.813.522,3.854,3.118,6.092,4.707,7.144,10.719V294.342H51.461Q51.7,296.158,52.041,298Z" transform="translate(-0.082 -35.491)" fill="#8365b8"/><path d="M271.716,219.2l.205,2.1h2.4l-.2-2.1Z" transform="translate(-30.79 -25.015)" fill="#376bcc"/><path d="M271.224,225.02l.2,2.1h4.226l-.2-2.1Z" transform="translate(-30.721 -25.826)" fill="#376bcc"/><path d="M269.773,221.559a.447.447,0,0,0-.634.127l-.871,1.349a.483.483,0,0,0,.129.656l.685.474a.447.447,0,0,0,.634-.126l.871-1.35a.483.483,0,0,0-.129-.656Z" transform="translate(-30.298 -25.333)" fill="#376bcc"/><path d="M268.246,224.052a.465.465,0,0,0-.662.12l-.55.853a.5.5,0,0,0,.145.679l.642.445a.464.464,0,0,0,.662-.12l.55-.853a.5.5,0,0,0-.145-.681Z" transform="translate(-30.126 -25.679)" fill="#376bcc"/><path d="M267.124,226.03a.552.552,0,0,0-.787.145l-.235.365a.6.6,0,0,0,.172.808l.489.338a.552.552,0,0,0,.787-.144l.236-.364a.6.6,0,0,0-.172-.809Z" transform="translate(-29.994 -25.953)" fill="#376bcc"/><path d="M277.159,221.686a.485.485,0,0,0-.658-.127l-.593.474a.459.459,0,0,0,0,.656l1.134,1.35a.486.486,0,0,0,.658.126l.593-.474a.459.459,0,0,0,0-.656Z" transform="translate(-31.355 -25.333)" fill="#376bcc"/><path d="M279.25,224.172a.5.5,0,0,0-.685-.12l-.555.443a.477.477,0,0,0-.012.681l.715.853a.5.5,0,0,0,.685.12l.555-.445a.472.472,0,0,0,.012-.679Z" transform="translate(-31.647 -25.679)" fill="#376bcc"/><path d="M280.934,226.175a.6.6,0,0,0-.815-.145l-.423.339a.566.566,0,0,0-.014.809l.3.364a.6.6,0,0,0,.815.144l.423-.338a.565.565,0,0,0,.014-.808Z" transform="translate(-31.878 -25.953)" fill="#376bcc"/><path d="M274.965,220.374h-4.478a.832.832,0,0,0-.844.935l.324,3.329a1.052,1.052,0,0,0,1.028.935h4.477a.831.831,0,0,0,.844-.935l-.324-3.329A1.053,1.053,0,0,0,274.965,220.374Z" transform="translate(-30.5 -25.179)" fill="#4077d7"/><path d="M273.085,229.972h-1.719a.439.439,0,0,0-.429.393l-.085.922a.352.352,0,0,0,.356.392h1.72a.438.438,0,0,0,.429-.392l.084-.922A.351.351,0,0,0,273.085,229.972Z" transform="translate(-30.669 -26.517)" fill="#376bcc"/><path d="M277.189,230.365a.559.559,0,0,0-.5-.393h-1.721a.286.286,0,0,0-.28.393l.265.922a.561.561,0,0,0,.5.392h1.721a.285.285,0,0,0,.28-.392Z" transform="translate(-31.201 -26.517)" fill="#376bcc"/><path d="M276.152,227.056h-5.565a.348.348,0,0,0-.354.393l.183,1.894a.442.442,0,0,0,.43.392h5.566a.348.348,0,0,0,.354-.392l-.184-1.894A.442.442,0,0,0,276.152,227.056Z" transform="translate(-30.583 -26.11)" fill="#4077d7"/><path d="M273.1,231.955h-2.031a.115.115,0,0,0-.113.1l-.015.163a.092.092,0,0,0,.094.1h2.03a.117.117,0,0,0,.114-.1l.015-.163A.093.093,0,0,0,273.1,231.955Z" transform="translate(-30.681 -26.793)" fill="#376bcc"/><path d="M272.864,232.384h-1.719a.437.437,0,0,0-.429.392l-.085.923a.352.352,0,0,0,.356.392h1.72a.437.437,0,0,0,.428-.392l.085-.923A.349.349,0,0,0,272.864,232.384Z" transform="translate(-30.638 -26.853)" fill="#376bcc"/><path d="M272.571,234.246h-2.18a.8.8,0,0,0-.786.719l-.039.427a.644.644,0,0,0,.653.719h2.18a.805.805,0,0,0,.785-.719l.039-.427A.644.644,0,0,0,272.571,234.246Z" transform="translate(-30.49 -27.113)" fill="#376bcc"/><path d="M277.418,231.955h-2.03a.075.075,0,0,0-.074.1l.046.163a.149.149,0,0,0,.133.1h2.031a.075.075,0,0,0,.074-.1l-.047-.163A.149.149,0,0,0,277.418,231.955Z" transform="translate(-31.291 -26.793)" fill="#4077d7"/><path d="M277.881,232.776a.559.559,0,0,0-.505-.392h-1.719a.284.284,0,0,0-.28.392l.264.923a.561.561,0,0,0,.505.392h1.719a.285.285,0,0,0,.28-.392Z" transform="translate(-31.298 -26.853)" fill="#376bcc"/><path d="M279.253,234.965a1.029,1.029,0,0,0-.925-.719h-2.18a.523.523,0,0,0-.513.719l.122.427a1.029,1.029,0,0,0,.926.719h2.178a.522.522,0,0,0,.513-.719Z" transform="translate(-31.332 -27.113)" fill="#376bcc"/><path d="M273.867,212.35h-4.236a2.133,2.133,0,0,0-2.164,2.4l.159,1.632a2.694,2.694,0,0,0,2.63,2.4h4.238a2.131,2.131,0,0,0,2.164-2.4l-.158-1.632A2.7,2.7,0,0,0,273.867,212.35Z" transform="translate(-30.196 -24.06)" fill="#4077d7"/><path d="M274.2,214.761h-3.986a.9.9,0,0,0-.9,1.02l.022.237a1.137,1.137,0,0,0,1.1,1.019h3.987a.9.9,0,0,0,.9-1.019l-.023-.237A1.136,1.136,0,0,0,274.2,214.761Z" transform="translate(-30.454 -24.396)" fill="#aceafc"/><path d="M426.937,236.785a.258.258,0,0,0-.248.292l.627,5.372a.258.258,0,1,0,.512-.059l-.626-5.372A.257.257,0,0,0,426.937,236.785Z" transform="translate(-52.396 -27.467)" fill="#a03f4c"/><path d="M423.626,240.3l-6.206.312a.259.259,0,1,0,.026.517l6.207-.314a.258.258,0,1,0-.026-.515Z" transform="translate(-51.069 -27.957)" fill="#a03f4c"/><path d="M429.539,246.5l-5.694.077a.258.258,0,1,0,.006.515l5.7-.075a.259.259,0,1,0-.008-.517Z" transform="translate(-51.962 -28.821)" fill="#a03f4c"/></g></svg>