<svg xmlns="http://www.w3.org/2000/svg" xmlns:xlink="http://www.w3.org/1999/xlink" width="54.55" height="54.55" viewBox="0 0 54.55 54.55"><defs><linearGradient id="a" x1="0.5" x2="0.5" y2="1" gradientUnits="objectBoundingBox"><stop offset="0" stop-color="#d0e931"/><stop offset="1" stop-color="#acc10a"/></linearGradient><filter id="b" x="0" y="0" width="54.55" height="54.55" filterUnits="userSpaceOnUse"><feOffset dy="2" input="SourceAlpha"/><feGaussianBlur stdDeviation="3" result="c"/><feFlood flood-color="#dbe3ff"/><feComposite operator="in" in2="c"/><feComposite in="SourceGraphic"/></filter></defs><g transform="translate(-551 -333)"><g transform="matrix(1, 0, 0, 1, 551, 333)" filter="url(#b)"><path d="M9.4,0H27.151a9.4,9.4,0,0,1,9.4,9.4V27.151a9.4,9.4,0,0,1-9.4,9.4H9.4a9.4,9.4,0,0,1-9.4-9.4V9.4A9.4,9.4,0,0,1,9.4,0Z" transform="translate(9 7)" fill="url(#a)"/></g><g transform="translate(566.404 345.408)"><g transform="translate(-0.003 -0.006)"><path d="M4.814,7.011a4.8,4.8,0,0,0,1,1.421,4.9,4.9,0,0,0,1.446,1A3.49,3.49,0,0,0,8.9,9.753,4.053,4.053,0,0,0,7.481,6.787a3.935,3.935,0,0,0-2.941-1.4,2.911,2.911,0,0,0,.274,1.6m7.647-5.135A3.664,3.664,0,0,0,9.346.58a4.985,4.985,0,0,0,1.5,2.966,4.606,4.606,0,0,0,2.916,1.4,3.161,3.161,0,0,0-.3-1.62,5.264,5.264,0,0,0-1-1.5M8.274.555A4.387,4.387,0,0,0,5.781,1.826,3.854,3.854,0,0,0,4.56,4.319,6.328,6.328,0,0,1,9.969,9.728a4.367,4.367,0,0,0,2.567-1.346,3.245,3.245,0,0,0,1.1-2.393A6.285,6.285,0,0,1,8.249.58M24.925,7.036V6.363q-.075-.723-.15-1.1a6.481,6.481,0,0,0-2.667-4.038A6.481,6.481,0,0,0,17.4.057a8.071,8.071,0,0,0-3.614,1.321l.748,1.72,1.022-.449q.6-.274,1-.424a4.586,4.586,0,0,1,4.96,1,4.672,4.672,0,0,1,1.221,4.985,9.667,9.667,0,0,1-1.022,2.258,11.546,11.546,0,0,1-1.521,1.944,15.689,15.689,0,0,1-2.343,2.119,8.973,8.973,0,0,1-2.792,1.446,4.891,4.891,0,0,1-4.013-.374A4.487,4.487,0,0,1,8.778,12.46a3.614,3.614,0,0,1-.075-.8,4.584,4.584,0,0,0-.05-.773L6.758,10.64v.922q0,.673-.025,1.994,0,1.172-.075,1.994A4.362,4.362,0,0,1,5.482,18.3a1.236,1.236,0,0,1-.274.224.5.5,0,0,1-.424,0,.5.5,0,0,0-.374,0,.872.872,0,0,0-.374.15L.3,22.431a1,1,0,0,0-.3.5,1.3,1.3,0,0,0,.125.623,2.4,2.4,0,0,0,.623.823,6.945,6.945,0,0,0,.828.548h.449q3.415-3.29,4.262-4.138a.848.848,0,0,0,.125-.274q.075-.2,0-.274a.653.653,0,0,1-.05-.6,1.416,1.416,0,0,1,.424-.4l.7-.424a6.3,6.3,0,0,1,.7-.324,9.971,9.971,0,0,1,4.237-.4A8.061,8.061,0,0,0,17,17.271a16.048,16.048,0,0,0,6.606-6.281A9.8,9.8,0,0,0,24.93,7M8.354,15.81l.723.847L8,16.907l.174-1.047Z" transform="translate(0.003 0.006)" fill="#fff"/></g></g></g></svg>