<svg xmlns="http://www.w3.org/2000/svg" xmlns:xlink="http://www.w3.org/1999/xlink" width="54.55" height="54.55" viewBox="0 0 54.55 54.55"><defs><linearGradient id="a" x1="0.172" y1="0.1" x2="0.887" y2="1" gradientUnits="objectBoundingBox"><stop offset="0" stop-color="#596e8e"/><stop offset="1" stop-color="#152236"/></linearGradient><filter id="b" x="0" y="0" width="54.55" height="54.55" filterUnits="userSpaceOnUse"><feOffset dy="2" input="SourceAlpha"/><feGaussianBlur stdDeviation="3" result="c"/><feFlood flood-opacity="0.2"/><feComposite operator="in" in2="c"/><feComposite in="SourceGraphic"/></filter></defs><g transform="translate(-144 -295)"><g transform="matrix(1, 0, 0, 1, 144, 295)" filter="url(#b)"><path d="M9.4,0H27.151a9.4,9.4,0,0,1,9.4,9.4V27.151a9.4,9.4,0,0,1-9.4,9.4H9.4a9.4,9.4,0,0,1-9.4-9.4V9.4A9.4,9.4,0,0,1,9.4,0Z" transform="translate(9 7)" fill="url(#a)"/></g><g transform="translate(163 309)"><path d="M10.432,17.343a1.113,1.113,0,0,1-.953.129.917.917,0,0,0-.232-.077.1.1,0,0,1-.077-.026l2.241,5.384.1-.155q.8-1.391,1.159-2.112.1-.155.18-.155a.35.35,0,0,1,.232-.052,8.057,8.057,0,0,0,1.417.464q.412.1,1.314.438l-2.293-5.512a1.334,1.334,0,0,1-1.777.567l-.412-.026q-.077,0-.232.361a1.489,1.489,0,0,1-.644.773M1.133,21.119q.9-.335,1.314-.438a8.058,8.058,0,0,0,1.417-.464.35.35,0,0,1,.232.052q.077,0,.18.155.361.721,1.159,2.112l.1.155,2.241-5.4a.1.1,0,0,1-.077.026.922.922,0,0,0-.232.077,1.113,1.113,0,0,1-.953-.129,1.489,1.489,0,0,1-.644-.783q-.155-.335-.232-.361l-.438.026a1.334,1.334,0,0,1-1.777-.567L1.133,21.119M11.695,1.192a.958.958,0,0,1-.747.052.85.85,0,0,1-.515-.515q-.1-.258-.129-.335A.608.608,0,0,0,9.866.033a.515.515,0,0,0-.489.18.654.654,0,0,0-.155.155L9.067.523a.855.855,0,0,1-.644.309.917.917,0,0,1-.67-.319A3.956,3.956,0,0,0,7.367.136.515.515,0,0,0,6.955,0a.551.551,0,0,0-.361.258L6.466.512A1.546,1.546,0,0,1,6.337.77a.726.726,0,0,1-.85.489,1.592,1.592,0,0,1-.412-.129L4.662.976a.567.567,0,0,0-.438,0,.582.582,0,0,0-.258.361q-.026.129-.052.309,0,.077-.026.335a.737.737,0,0,1-.129.438.711.711,0,0,1-.335.258,2.061,2.061,0,0,1-.489.052H2.421q-.618,0-.567.567a1.659,1.659,0,0,0,.1.515.86.86,0,0,1-.052.773.891.891,0,0,1-.67.438l-.361.1a.562.562,0,0,0-.412.335.659.659,0,0,0,.1.515q.052.052.155.18l.129.18a.866.866,0,0,1,.18.68.943.943,0,0,1-.412.567l-.412.283A.515.515,0,0,0,0,8.276a.562.562,0,0,0,.206.438l.18.1a.994.994,0,0,0,.18.129.912.912,0,0,1,.464.592.958.958,0,0,1-.18.762,1.293,1.293,0,0,1-.129.18,1.03,1.03,0,0,1-.129.18.613.613,0,0,0-.1.464.515.515,0,0,0,.335.361l.129.052.129.026.232.077a.922.922,0,0,1,.232.077.7.7,0,0,1,.438.464,1.159,1.159,0,0,1-.026.7,1.4,1.4,0,0,0-.1.438.489.489,0,0,0,.489.592,1.1,1.1,0,0,0,.438-.052.876.876,0,0,1,.773.155.855.855,0,0,1,.335.67,4.534,4.534,0,0,0,.1.67.464.464,0,0,0,.155.232.417.417,0,0,0,.258.077,1.6,1.6,0,0,0,.567-.206,1.03,1.03,0,0,1,.85-.129,1.03,1.03,0,0,1,.567.592,2.014,2.014,0,0,0,.206.386.473.473,0,0,0,.824.129,1.128,1.128,0,0,0,.206-.206l.232-.232a.732.732,0,0,1,.567-.206.829.829,0,0,1,.567.232l.361.361a.556.556,0,0,0,.515.232.608.608,0,0,0,.438-.386,2.818,2.818,0,0,1,.129-.335.932.932,0,0,1,.541-.567.969.969,0,0,1,.8.1,1.7,1.7,0,0,0,.283.155.608.608,0,0,0,.567.026.7.7,0,0,0,.283-.515V14.68a.974.974,0,0,1,.18-.515.922.922,0,0,1,.464-.283,1.628,1.628,0,0,1,.412,0h.386a.587.587,0,0,0,.489-.155.4.4,0,0,0,.129-.412,5.152,5.152,0,0,0-.155-.567.835.835,0,0,1,.567-1.082,3.23,3.23,0,0,0,.361-.1,1.6,1.6,0,0,0,.309-.1.458.458,0,0,0,.283-.283.515.515,0,0,0-.052-.386,1.35,1.35,0,0,0-.155-.232l-.155-.258a1.061,1.061,0,0,1-.206-.747,1,1,0,0,1,.464-.592l.412-.283a.592.592,0,0,0,.206-.412.608.608,0,0,0-.258-.412L16.383,7.7a1.283,1.283,0,0,1-.232-.155A.974.974,0,0,1,15.765,7a.969.969,0,0,1,.155-.67q.052-.077.155-.206t.155-.206a.613.613,0,0,0,.1-.515.649.649,0,0,0-.412-.335l-.412-.1a.866.866,0,0,1-.567-.4.773.773,0,0,1-.1-.721q.077-.283.129-.438a.629.629,0,0,0-.077-.515.623.623,0,0,0-.515-.155h-.541a.793.793,0,0,1-.644-.232.927.927,0,0,1-.258-.618,3.06,3.06,0,0,0-.1-.67A.474.474,0,0,0,12.57.96a.438.438,0,0,0-.361,0l-.489.232m.515,3.3a5.667,5.667,0,0,1,1.159,1.752,5.446,5.446,0,0,1,.412,2.086,5.605,5.605,0,0,1-.438,2.061,5.724,5.724,0,0,1-1.185,1.726,5.358,5.358,0,0,1-1.726,1.159,5.121,5.121,0,0,1-2.086.386,4.709,4.709,0,0,1-2.061-.412,5.667,5.667,0,0,1-1.674-1.133,5.435,5.435,0,0,1-1.159-1.7A5.152,5.152,0,0,1,3.04,8.353a5.291,5.291,0,0,1,.412-2.174,5.09,5.09,0,0,1,1.133-1.7,5.389,5.389,0,0,1,3.735-1.6,5.476,5.476,0,0,1,2.164.438,5.667,5.667,0,0,1,1.752,1.169Z" transform="translate(0 0.006)" fill="#fff"/><path d="M13.681,10.093,12.315,7.62l-1.133,2.6L8.4,10.788l2.138,1.88L10.2,15.477l2.447-1.443,2.576,1.159-.644-2.741,1.932-2.061Z" transform="translate(-4.072 -3.691)" fill="#fff"/></g></g></svg>