<svg xmlns="http://www.w3.org/2000/svg" xmlns:xlink="http://www.w3.org/1999/xlink" width="34" height="34" viewBox="0 0 34 34"><defs><clipPath id="a"><rect width="34" height="34" rx="6" transform="translate(785 111)" fill="#e3e9ff"/></clipPath></defs><g transform="translate(-785 -111)" clip-path="url(#a)"><g transform="translate(789.131 111)"><path d="M21.349,24.077l4.388-2.767L25.144,6.76,12.3,0,0,7.788.593,22.337,4.9,24.591,2.016,31.509Q3.4,31,4.033,30.837a12.366,12.366,0,0,0,2.174-.712.538.538,0,0,1,.356.079q.119,0,.277.237.553,1.107,1.779,3.242l.158.237,2.491-6.009L13.442,29.1l1.779-1.147L17.791,34l.158-.237q1.226-2.135,1.779-3.242.158-.237.277-.237a.538.538,0,0,1,.356-.079,12.367,12.367,0,0,0,2.174.712q.633.158,2.016.672l-3.163-7.551M23.563,7.828l.514,12.612L13.4,27.16,2.214,21.309,1.7,8.7l10.674-6.76L23.563,7.828M5.535,13.8a.53.53,0,0,0-.474.237.648.648,0,0,0-.158.474v5.535a.909.909,0,0,0,.158.514.64.64,0,0,0,.474.158q.909.079,1.66.079a1.036,1.036,0,0,0,.553-.237A.791.791,0,0,0,7.986,20v-5.5a.53.53,0,0,0-.237-.474.569.569,0,0,0-.514-.237h-1.7M14.47,6.049a.071.071,0,0,0-.079-.079H13.8q-.119.079-.119.119a1.083,1.083,0,0,1,0,.237,4.974,4.974,0,0,1-.119.87q-.079.514-.119.83a2.862,2.862,0,0,1-1.107,1.858,2.111,2.111,0,0,0-.593.593,3.645,3.645,0,0,0-.4.791,7.259,7.259,0,0,1-.514,1.107A5.313,5.313,0,0,1,10.16,13.4a1.7,1.7,0,0,1-.435.435.625.625,0,0,1-.316.237.6.6,0,0,1-.474.04H8.856v6.207a7.116,7.116,0,0,0,1.107.237l.988.158q.633.119,1.067.158a9.488,9.488,0,0,0,1.107.119q.316,0,1.067.079l.277.04h1.7l.712-.119a1.5,1.5,0,0,0,.909-.435,2.151,2.151,0,0,0,.633-.712q.079-.04.079-.2a.988.988,0,0,0,0-.4,2.475,2.475,0,0,1,.04-.4l.277-.277a2.048,2.048,0,0,1,.4-.435.577.577,0,0,0,.119-.672,5.852,5.852,0,0,0-.237-.553.553.553,0,0,1,.119-.593l.356-.356a.459.459,0,0,0,.158-.316.791.791,0,0,0-.119-.4l-.277-.435a.482.482,0,0,1,0-.633.237.237,0,0,0,.158-.158,1.186,1.186,0,0,1,.119-.158.712.712,0,0,0,.119-.514,2.372,2.372,0,0,0-.791-1.107.743.743,0,0,0-.435-.2,1.226,1.226,0,0,0-.514-.079q-.672-.04-1.581-.04H14.826q-.158,0-.2-.079l-.079-.158a1.226,1.226,0,0,1,.119-.553q.277-.672.712-1.581a3.3,3.3,0,0,0,.237-2.333A1.581,1.581,0,0,0,14.47,6.049Z"/></g></g></svg>