<svg xmlns="http://www.w3.org/2000/svg" xmlns:xlink="http://www.w3.org/1999/xlink" width="54.55" height="54.55" viewBox="0 0 54.55 54.55"><defs><linearGradient id="a" x1="0.5" x2="0.5" y2="1" gradientUnits="objectBoundingBox"><stop offset="0" stop-color="#ff2c32"/><stop offset="1" stop-color="#d81f0c"/></linearGradient><filter id="b" x="0" y="0" width="54.55" height="54.55" filterUnits="userSpaceOnUse"><feOffset dy="2" input="SourceAlpha"/><feGaussianBlur stdDeviation="3" result="c"/><feFlood flood-color="#dbe3ff"/><feComposite operator="in" in2="c"/><feComposite in="SourceGraphic"/></filter></defs><g transform="translate(-549 -2485)"><g transform="translate(404.5 2190)"><g transform="matrix(1, 0, 0, 1, 144.5, 295)" filter="url(#b)"><path d="M9.4,0H27.151a9.4,9.4,0,0,1,9.4,9.4V27.151a9.4,9.4,0,0,1-9.4,9.4H9.4a9.4,9.4,0,0,1-9.4-9.4V9.4A9.4,9.4,0,0,1,9.4,0Z" transform="translate(9 7)" fill="url(#a)"/></g></g><g transform="translate(565 2496)"><path d="M18.346,20.69l3.771-2.378-.51-12.5L10.566,0,0,6.693.51,19.2l3.7,1.937-2.48,5.945q1.189-.442,1.733-.578a10.627,10.627,0,0,0,1.869-.612.462.462,0,0,1,.306.068q.1,0,.238.2.476.951,1.529,2.786l.136.2,2.14-5.164L11.551,25l1.529-.985,2.208,5.2.136-.2q1.053-1.835,1.529-2.786.136-.2.238-.2a.462.462,0,0,1,.306-.068,10.627,10.627,0,0,0,1.869.612q.544.136,1.733.578L18.38,20.656M20.249,6.727l.442,10.838L11.517,23.34,1.9,18.312,1.461,7.474l9.173-5.81,9.615,5.062M4.756,11.857a.455.455,0,0,0-.408.2.557.557,0,0,0-.136.408v4.756a.781.781,0,0,0,.136.442.55.55,0,0,0,.408.136q.781.068,1.427.068a.89.89,0,0,0,.476-.2.679.679,0,0,0,.2-.476V12.469a.455.455,0,0,0-.2-.408.489.489,0,0,0-.442-.2H4.756M12.435,5.2a.061.061,0,0,0-.068-.068h-.51q-.1.068-.1.1a.931.931,0,0,1,0,.2,4.274,4.274,0,0,1-.1.747q-.068.442-.1.713a2.46,2.46,0,0,1-.951,1.6,1.814,1.814,0,0,0-.51.51,3.132,3.132,0,0,0-.34.679,6.238,6.238,0,0,1-.442.951,4.566,4.566,0,0,1-.578.883,1.461,1.461,0,0,1-.374.374.537.537,0,0,1-.272.2.516.516,0,0,1-.408.034H7.61v5.334a6.115,6.115,0,0,0,.951.2l.849.136q.544.1.917.136a8.153,8.153,0,0,0,.951.1q.272,0,.917.068l.238.034H13.9l.612-.1a1.291,1.291,0,0,0,.781-.374,1.848,1.848,0,0,0,.544-.612q.068-.034.068-.17a.849.849,0,0,0,0-.34,2.127,2.127,0,0,1,.034-.34l.238-.238a1.76,1.76,0,0,1,.34-.374.5.5,0,0,0,.1-.578,5.029,5.029,0,0,0-.2-.476.476.476,0,0,1,.1-.51l.306-.306a.394.394,0,0,0,.136-.272.679.679,0,0,0-.1-.34l-.238-.374a.414.414,0,0,1,0-.544.2.2,0,0,0,.136-.136,1.019,1.019,0,0,1,.1-.136.612.612,0,0,0,.1-.442,2.038,2.038,0,0,0-.679-.951.639.639,0,0,0-.374-.17,1.053,1.053,0,0,0-.442-.068q-.578-.034-1.359-.034H12.74q-.136,0-.17-.068l-.068-.136a1.053,1.053,0,0,1,.1-.476q.238-.578.612-1.359a2.833,2.833,0,0,0,.2-2A1.359,1.359,0,0,0,12.435,5.2Z" fill="#fff"/></g></g></svg>