<svg xmlns="http://www.w3.org/2000/svg" xmlns:xlink="http://www.w3.org/1999/xlink" width="34" height="34" viewBox="0 0 34 34"><defs><clipPath id="a"><rect width="34" height="34" rx="6" transform="translate(909.5 111.5)" fill="#e3e9ff"/></clipPath></defs><g transform="translate(-909.5 -111.5)" clip-path="url(#a)"><g transform="translate(913.521 111.105)"><g transform="translate(0 0)"><path d="M15.585,25.911a1.662,1.662,0,0,1-1.424.192,1.37,1.37,0,0,0-.346-.115.154.154,0,0,1-.115-.038l3.348,8.043.154-.231q1.193-2.078,1.732-3.156.154-.231.269-.231a.523.523,0,0,1,.346-.077,12.037,12.037,0,0,0,2.117.693q.616.154,1.963.654L20.2,23.41a1.993,1.993,0,0,1-2.655.847l-.616-.038q-.115,0-.346.539a2.224,2.224,0,0,1-.962,1.154M1.693,31.553q1.347-.5,1.963-.654a12.037,12.037,0,0,0,2.117-.693.523.523,0,0,1,.346.077q.115,0,.269.231.539,1.078,1.732,3.156l.154.231,3.348-8.066a.154.154,0,0,1-.115.038,1.378,1.378,0,0,0-.346.115A1.662,1.662,0,0,1,9.736,25.8a2.224,2.224,0,0,1-.962-1.17q-.231-.5-.346-.539l-.654.038a1.993,1.993,0,0,1-2.655-.847L1.693,31.553M17.471,1.783a1.432,1.432,0,0,1-1.116.077,1.27,1.27,0,0,1-.77-.77q-.154-.385-.192-.5a.908.908,0,0,0-.654-.539.77.77,0,0,0-.731.269.977.977,0,0,0-.231.231l-.231.231a1.278,1.278,0,0,1-.962.462,1.37,1.37,0,0,1-1-.477A5.911,5.911,0,0,0,11.006.2.77.77,0,0,0,10.39,0a.824.824,0,0,0-.539.385L9.659.767a2.309,2.309,0,0,1-.192.385,1.085,1.085,0,0,1-1.27.731,2.378,2.378,0,0,1-.616-.192l-.616-.231a.847.847,0,0,0-.654,0A.87.87,0,0,0,5.926,2q-.038.192-.077.462,0,.115-.038.5a1.1,1.1,0,0,1-.192.654,1.062,1.062,0,0,1-.5.385,3.079,3.079,0,0,1-.731.077h-.77q-.924,0-.847.847a2.478,2.478,0,0,0,.154.77,1.285,1.285,0,0,1-.077,1.154,1.331,1.331,0,0,1-1,.654l-.539.154a.839.839,0,0,0-.616.5.985.985,0,0,0,.154.77q.077.077.231.269l.192.269a1.293,1.293,0,0,1,.269,1.016,1.408,1.408,0,0,1-.616.847l-.616.423A.77.77,0,0,0,0,12.365a.839.839,0,0,0,.308.654l.269.154a1.485,1.485,0,0,0,.269.192,1.362,1.362,0,0,1,.693.885A1.432,1.432,0,0,1,1.27,15.39a1.932,1.932,0,0,1-.192.269,1.539,1.539,0,0,1-.192.269.916.916,0,0,0-.154.693.77.77,0,0,0,.5.539l.192.077.192.038.346.115a1.378,1.378,0,0,1,.346.115,1.039,1.039,0,0,1,.654.693,1.732,1.732,0,0,1-.038,1.039,2.093,2.093,0,0,0-.154.654.731.731,0,0,0,.731.885,1.639,1.639,0,0,0,.654-.077,1.308,1.308,0,0,1,1.154.231,1.278,1.278,0,0,1,.5,1,6.773,6.773,0,0,0,.154,1,.693.693,0,0,0,.231.346.623.623,0,0,0,.385.115,2.394,2.394,0,0,0,.847-.308,1.539,1.539,0,0,1,1.27-.192,1.539,1.539,0,0,1,.847.885,3.009,3.009,0,0,0,.308.577.707.707,0,0,0,1.231.192,1.685,1.685,0,0,0,.308-.308l.346-.346a1.093,1.093,0,0,1,.847-.308,1.239,1.239,0,0,1,.847.346l.539.539a.831.831,0,0,0,.77.346.908.908,0,0,0,.654-.577,4.21,4.21,0,0,1,.192-.5,1.393,1.393,0,0,1,.808-.847,1.447,1.447,0,0,1,1.193.154,2.532,2.532,0,0,0,.423.231.908.908,0,0,0,.847.038,1.047,1.047,0,0,0,.423-.77v-.616a1.455,1.455,0,0,1,.269-.77,1.378,1.378,0,0,1,.693-.423,2.432,2.432,0,0,1,.616,0h.577a.877.877,0,0,0,.731-.231.6.6,0,0,0,.192-.616,7.7,7.7,0,0,0-.231-.847,1.247,1.247,0,0,1,.847-1.616,4.826,4.826,0,0,0,.539-.154,2.386,2.386,0,0,0,.462-.154A.685.685,0,0,0,24.4,16.7a.77.77,0,0,0-.077-.577,2.017,2.017,0,0,0-.231-.346l-.231-.385a1.585,1.585,0,0,1-.308-1.116,1.493,1.493,0,0,1,.693-.885l.616-.423a.885.885,0,0,0,.308-.616.908.908,0,0,0-.385-.616l-.308-.231a1.916,1.916,0,0,1-.346-.231,1.455,1.455,0,0,1-.577-.808,1.447,1.447,0,0,1,.231-1q.077-.115.231-.308t.231-.308a.916.916,0,0,0,.154-.77.97.97,0,0,0-.616-.5l-.616-.154a1.293,1.293,0,0,1-.847-.6,1.154,1.154,0,0,1-.154-1.078q.115-.423.192-.654a.939.939,0,0,0-.115-.77.931.931,0,0,0-.77-.231h-.808a1.185,1.185,0,0,1-.962-.346,1.385,1.385,0,0,1-.385-.924,4.572,4.572,0,0,0-.154-1,.708.708,0,0,0-.385-.385.654.654,0,0,0-.539,0l-.731.346m.77,4.926a8.466,8.466,0,0,1,1.732,2.617,8.135,8.135,0,0,1,.616,3.117,8.374,8.374,0,0,1-.654,3.079A8.551,8.551,0,0,1,18.2,18.1a8,8,0,0,1-2.578,1.732,7.65,7.65,0,0,1-3.117.577,7.035,7.035,0,0,1-3.079-.616,8.466,8.466,0,0,1-2.5-1.693A8.12,8.12,0,0,1,5.2,15.559a7.7,7.7,0,0,1-.654-3.079,7.9,7.9,0,0,1,.616-3.248A7.6,7.6,0,0,1,6.85,6.693a8.051,8.051,0,0,1,5.58-2.386,8.181,8.181,0,0,1,3.233.654,8.466,8.466,0,0,1,2.617,1.747Z" transform="translate(0 0.008)"/><path d="M18.537,13.354,16.5,9.66,14.8,13.546l-4.156.847L13.842,17.2l-.5,4.195L17,19.242l3.848,1.732-.962-4.095L22.77,13.8Z" transform="translate(-4.183 -3.79)" fill="#050505"/></g></g></g></svg>