<svg xmlns="http://www.w3.org/2000/svg" xmlns:xlink="http://www.w3.org/1999/xlink" width="54.55" height="54.55" viewBox="0 0 54.55 54.55"><defs><linearGradient id="a" x1="0.5" x2="0.5" y2="1" gradientUnits="objectBoundingBox"><stop offset="0" stop-color="#ff2c32"/><stop offset="1" stop-color="#d81f0c"/></linearGradient><filter id="b" x="0" y="0" width="54.55" height="54.55" filterUnits="userSpaceOnUse"><feOffset dy="2" input="SourceAlpha"/><feGaussianBlur stdDeviation="3" result="c"/><feFlood flood-color="#dbe3ff"/><feComposite operator="in" in2="c"/><feComposite in="SourceGraphic"/></filter></defs><g transform="translate(-99 -2615)"><g transform="translate(-45.5 2320)"><g transform="matrix(1, 0, 0, 1, 144.5, 295)" filter="url(#b)"><path d="M9.4,0H27.151a9.4,9.4,0,0,1,9.4,9.4V27.151a9.4,9.4,0,0,1-9.4,9.4H9.4a9.4,9.4,0,0,1-9.4-9.4V9.4A9.4,9.4,0,0,1,9.4,0Z" transform="translate(9 7)" fill="url(#a)"/></g></g><g transform="translate(116 2626.006)"><g transform="translate(0 -0.006)"><path d="M13.06,21.713a1.393,1.393,0,0,1-1.193.161,1.148,1.148,0,0,0-.29-.1.129.129,0,0,1-.1-.032l2.805,6.74.129-.193q1-1.741,1.451-2.644.129-.193.226-.193a.439.439,0,0,1,.29-.064,10.087,10.087,0,0,0,1.774.58q.516.129,1.645.548l-2.87-6.9a1.67,1.67,0,0,1-2.225.709l-.516-.032q-.1,0-.29.451a1.864,1.864,0,0,1-.806.967M1.419,26.44q1.129-.419,1.645-.548a10.087,10.087,0,0,0,1.774-.58.439.439,0,0,1,.29.064q.1,0,.226.193.451.9,1.451,2.644l.129.193,2.805-6.759a.129.129,0,0,1-.1.032,1.155,1.155,0,0,0-.29.1,1.393,1.393,0,0,1-1.193-.161,1.864,1.864,0,0,1-.806-.98q-.193-.419-.29-.451l-.548.032a1.67,1.67,0,0,1-2.225-.709L1.419,26.44M14.64,1.494a1.2,1.2,0,0,1-.935.064A1.064,1.064,0,0,1,13.06.914Q12.931.591,12.9.494A.761.761,0,0,0,12.35.043a.645.645,0,0,0-.613.226.819.819,0,0,0-.193.193l-.193.193a1.071,1.071,0,0,1-.806.387,1.148,1.148,0,0,1-.838-.4A4.953,4.953,0,0,0,9.223.172.645.645,0,0,0,8.707,0,.69.69,0,0,0,8.255.32L8.094.643a1.935,1.935,0,0,1-.161.322.909.909,0,0,1-1.064.613,1.993,1.993,0,0,1-.516-.161l-.516-.193a.709.709,0,0,0-.548,0,.729.729,0,0,0-.322.451q-.032.161-.064.387,0,.1-.032.419a.922.922,0,0,1-.161.548.89.89,0,0,1-.419.322,2.58,2.58,0,0,1-.613.064H3.031q-.774,0-.709.709a2.077,2.077,0,0,0,.129.645,1.077,1.077,0,0,1-.064.967,1.116,1.116,0,0,1-.838.548L1.1,6.415a.7.7,0,0,0-.516.419.826.826,0,0,0,.129.645Q.774,7.544.9,7.7l.161.226a1.083,1.083,0,0,1,.226.851,1.18,1.18,0,0,1-.516.709l-.516.355A.645.645,0,0,0,0,10.362a.7.7,0,0,0,.258.548l.226.129a1.245,1.245,0,0,0,.226.161,1.142,1.142,0,0,1,.58.742,1.2,1.2,0,0,1-.226.954,1.619,1.619,0,0,1-.161.226,1.29,1.29,0,0,1-.161.226.767.767,0,0,0-.129.58.645.645,0,0,0,.419.451l.161.064.161.032.29.1a1.154,1.154,0,0,1,.29.1.871.871,0,0,1,.548.58,1.451,1.451,0,0,1-.032.871,1.754,1.754,0,0,0-.129.548.613.613,0,0,0,.613.742,1.374,1.374,0,0,0,.548-.064,1.1,1.1,0,0,1,.967.193,1.071,1.071,0,0,1,.419.838A5.675,5.675,0,0,0,5,19.217a.58.58,0,0,0,.193.29.522.522,0,0,0,.322.1,2.006,2.006,0,0,0,.709-.258,1.29,1.29,0,0,1,1.064-.161A1.29,1.29,0,0,1,8,19.926a2.522,2.522,0,0,0,.258.484.592.592,0,0,0,1.032.161,1.412,1.412,0,0,0,.258-.258l.29-.29a.916.916,0,0,1,.709-.258,1.038,1.038,0,0,1,.709.29l.451.451a.7.7,0,0,0,.645.29.761.761,0,0,0,.548-.484,3.528,3.528,0,0,1,.161-.419,1.167,1.167,0,0,1,.677-.709,1.212,1.212,0,0,1,1,.129,2.122,2.122,0,0,0,.355.193.761.761,0,0,0,.709.032.877.877,0,0,0,.355-.645v-.516a1.219,1.219,0,0,1,.226-.645,1.154,1.154,0,0,1,.58-.355,2.038,2.038,0,0,1,.516,0h.484a.735.735,0,0,0,.613-.193.5.5,0,0,0,.161-.516,6.449,6.449,0,0,0-.193-.709,1.045,1.045,0,0,1,.709-1.354,4.043,4.043,0,0,0,.451-.129,2,2,0,0,0,.387-.129.574.574,0,0,0,.355-.355.645.645,0,0,0-.064-.484,1.69,1.69,0,0,0-.193-.29l-.193-.322a1.329,1.329,0,0,1-.258-.935,1.251,1.251,0,0,1,.58-.742l.516-.355a.742.742,0,0,0,.258-.516.761.761,0,0,0-.322-.516l-.258-.193a1.606,1.606,0,0,1-.29-.193,1.219,1.219,0,0,1-.484-.677,1.212,1.212,0,0,1,.193-.838q.064-.1.193-.258t.193-.258a.767.767,0,0,0,.129-.645.813.813,0,0,0-.516-.419l-.516-.129a1.083,1.083,0,0,1-.709-.5.967.967,0,0,1-.129-.9q.1-.355.161-.548a.787.787,0,0,0-.1-.645.78.78,0,0,0-.645-.193h-.677a.993.993,0,0,1-.806-.29,1.161,1.161,0,0,1-.322-.774,3.831,3.831,0,0,0-.129-.838.593.593,0,0,0-.322-.322.548.548,0,0,0-.451,0l-.613.29m.645,4.128a7.094,7.094,0,0,1,1.451,2.193,6.817,6.817,0,0,1,.516,2.612,7.017,7.017,0,0,1-.548,2.58,7.165,7.165,0,0,1-1.483,2.161,6.707,6.707,0,0,1-2.161,1.451,6.411,6.411,0,0,1-2.612.484,5.9,5.9,0,0,1-2.58-.516,7.094,7.094,0,0,1-2.1-1.419,6.8,6.8,0,0,1-1.451-2.128,6.449,6.449,0,0,1-.548-2.58,6.623,6.623,0,0,1,.516-2.722A6.372,6.372,0,0,1,5.74,5.609a6.746,6.746,0,0,1,4.676-2,6.856,6.856,0,0,1,2.709.548,7.094,7.094,0,0,1,2.193,1.464Z" transform="translate(0 0.006)" fill="#fff"/><path d="M15.011,10.716,13.3,7.62l-1.419,3.257L8.4,11.586l2.676,2.354-.419,3.515,3.063-1.806L16.945,17.1l-.806-3.431,2.418-2.58Z" transform="translate(-2.983 -2.702)" fill="#fff"/></g></g></g></svg>