<svg xmlns="http://www.w3.org/2000/svg" width="32" height="32" viewBox="0 0 32 32"><g transform="translate(-13872 -8307)"><rect width="32" height="32" rx="16" transform="translate(13872 8307)" fill="rgba(51,58,216,0.1)"/><g transform="translate(13554.604 8095)"><g transform="translate(324.397 220.999)"><path d="M8.926,14.386a.788.788,0,1,0,.783.788A.785.785,0,0,0,8.926,14.386Z" transform="translate(-4.739 -9.982)" fill="rgba(30,193,232,0)"/><path d="M8.926,13.886a1.288,1.288,0,1,1-1.283,1.288A1.287,1.287,0,0,1,8.926,13.886Zm0,1.575a.288.288,0,1,0-.283-.288A.286.286,0,0,0,8.926,15.461Z" transform="translate(-4.739 -9.982)" fill="#333ad8"/><path d="M19.878,12.96c-.861-3.593-1.77-5.5-3.593-6.04a3.621,3.621,0,0,0-1.043-.162c-1.12,0-1.9.6-3.9.6s-2.781-.6-3.9-.6A3.581,3.581,0,0,0,6.4,6.919c-1.823.54-2.732,2.452-3.593,6.04s-.7,6.186.313,6.67a1.184,1.184,0,0,0,.507.114c.881,0,1.831-.966,2.748-2.111,1.043-1.3,1.3-1.34,4.477-1.34h.986c3.17,0,3.434.032,4.477,1.34.913,1.145,1.867,2.111,2.748,2.111a1.2,1.2,0,0,0,.507-.114C20.581,19.142,20.735,16.548,19.878,12.96Zm-13.44.6a1.608,1.608,0,1,1,1.591-1.608A1.6,1.6,0,0,1,6.438,13.556Zm7.019-.792a.816.816,0,1,1,.816-.816A.816.816,0,0,1,13.456,12.765Zm1.782,1.782a.814.814,0,1,1,.816-.812A.815.815,0,0,1,15.239,14.547Zm0-3.564a.816.816,0,1,1,.816-.816A.816.816,0,0,1,15.239,10.983Zm1.782,1.782a.816.816,0,1,1,.816-.816A.816.816,0,0,1,17.021,12.765Z" transform="translate(-2.247 -6.757)" fill="rgba(30,193,232,0)"/><path d="M7.441,6.257a5.723,5.723,0,0,1,1.5.251,8.557,8.557,0,0,0,2.4.346,8.557,8.557,0,0,0,2.4-.346,5.723,5.723,0,0,1,1.5-.251,4.136,4.136,0,0,1,1.185.183c2.154.638,3.1,2.923,3.937,6.4.933,3.908.717,6.613-.578,7.236l-.007,0a1.7,1.7,0,0,1-.718.16c-1.15,0-2.232-1.162-3.139-2.3-.884-1.108-.919-1.151-4.087-1.151H10.85c-3.165,0-3.2.043-4.087,1.152-.911,1.137-2,2.3-3.138,2.3a1.673,1.673,0,0,1-.718-.16l0,0c-1.3-.62-1.521-3.326-.584-7.237C3.153,9.363,4.1,7.078,6.255,6.44A4.1,4.1,0,0,1,7.441,6.257Zm3.9,1.6A9.541,9.541,0,0,1,8.69,7.475a4.822,4.822,0,0,0-1.249-.218,3.114,3.114,0,0,0-.9.141c-1.482.439-2.362,1.978-3.25,5.678-.951,3.971-.482,5.847.039,6.1a.684.684,0,0,0,.295.066c.816,0,1.977-1.448,2.358-1.924a3.281,3.281,0,0,1,1.69-1.326,12.725,12.725,0,0,1,3.177-.2h.986a12.793,12.793,0,0,1,3.175.2,3.27,3.27,0,0,1,1.693,1.328c.379.476,1.534,1.923,2.357,1.923a.693.693,0,0,0,.293-.066c.517-.256.983-2.134.036-6.1-.886-3.7-1.767-5.238-3.248-5.677a3.153,3.153,0,0,0-.9-.142,4.822,4.822,0,0,0-1.249.218A9.541,9.541,0,0,1,11.342,7.854Zm3.9,1A1.316,1.316,0,0,1,16.4,10.79a1.316,1.316,0,1,1,0,2.316,1.316,1.316,0,1,1-2.311,0,1.316,1.316,0,1,1,0-2.316,1.316,1.316,0,0,1,1.159-1.939Zm0,1.632a.316.316,0,1,0-.316-.316A.316.316,0,0,0,15.239,10.483Zm.626,2.1a1.314,1.314,0,0,1,0-1.252,1.314,1.314,0,0,1-1.247,0,1.314,1.314,0,0,1,0,1.252,1.314,1.314,0,0,1,1.253,0Zm-2.409-.313a.316.316,0,1,0-.316-.316A.316.316,0,0,0,13.456,12.265Zm3.564,0a.316.316,0,1,0-.316-.316A.316.316,0,0,0,17.021,12.265Zm-1.782,1.782a.314.314,0,1,0-.316-.312A.314.314,0,0,0,15.239,14.047Zm-8.8-4.205a2.113,2.113,0,0,1,1.479,3.6,2.074,2.074,0,0,1-1.479.615,2.108,2.108,0,0,1,0-4.215Zm0,3.215a1.08,1.08,0,0,0,.771-.321,1.09,1.09,0,1,0-.771.321Z" transform="translate(-2.247 -6.757)" fill="#333ad8"/></g><g transform="translate(331.547 230.826)"><rect width="3.888" height="1.166" rx="0.583" transform="translate(0 1.361)" fill="rgba(30,193,232,0)"/><path d="M.583,0H3.3a.583.583,0,0,1,0,1.166H.583A.583.583,0,0,1,.583,0Z" transform="translate(0 1.361)" fill="#333ad8"/><rect width="3.888" height="1.166" rx="0.583" transform="translate(2.527) rotate(90)" fill="rgba(30,193,232,0)"/><path d="M.583,0H3.3a.583.583,0,0,1,0,1.166H.583A.583.583,0,0,1,.583,0Z" transform="translate(2.527) rotate(90)" fill="#333ad8"/></g></g></g></svg>