<svg xmlns="http://www.w3.org/2000/svg" width="15.87" height="15.869" viewBox="0 0 15.87 15.869"><path d="M19.9,16.928a13.33,13.33,0,0,0-2.785-1.863c-.835-.4-1.14-.392-1.731.033-.492.355-.81.686-1.376.562a8.207,8.207,0,0,1-2.764-2.045A8.148,8.148,0,0,1,9.2,10.851c-.12-.57.211-.884.562-1.376.426-.591.438-.9.033-1.731A13.067,13.067,0,0,0,7.933,4.96c-.607-.607-.744-.475-1.078-.355a6.136,6.136,0,0,0-.987.525A2.979,2.979,0,0,0,4.682,6.381c-.235.508-.508,1.454.88,3.925a21.9,21.9,0,0,0,3.85,5.135h0l0,0,0,0h0a21.986,21.986,0,0,0,5.135,3.85c2.471,1.388,3.417,1.115,3.925.88a2.928,2.928,0,0,0,1.252-1.186,6.136,6.136,0,0,0,.525-.987C20.377,17.672,20.513,17.536,19.9,16.928Z" transform="translate(-4.49 -4.503)" fill="#1489fc"/></svg>