<svg xmlns="http://www.w3.org/2000/svg" width="21.993" height="17.897" viewBox="0 0 21.993 17.897"><path d="M23.407,6.621a9.122,9.122,0,0,1-2.591.713,4.528,4.528,0,0,0,1.985-2.5,8.966,8.966,0,0,1-2.866,1.1,4.511,4.511,0,0,0-7.807,3.085,4.418,4.418,0,0,0,.117,1.03,12.787,12.787,0,0,1-9.3-4.721,4.521,4.521,0,0,0,1.4,6.031,4.407,4.407,0,0,1-2.051-.564v.056a4.516,4.516,0,0,0,3.621,4.428,4.542,4.542,0,0,1-1.188.158,4.257,4.257,0,0,1-.848-.084A4.519,4.519,0,0,0,8.1,18.486,9.047,9.047,0,0,1,2.49,20.421a9.146,9.146,0,0,1-1.077-.065A12.612,12.612,0,0,0,8.32,22.4,12.762,12.762,0,0,0,21.17,9.543c0-.2,0-.391-.014-.583A9.185,9.185,0,0,0,23.407,6.621Z" transform="translate(-1.413 -4.5)" fill="#152236"/></svg>