<svg xmlns="http://www.w3.org/2000/svg" xmlns:xlink="http://www.w3.org/1999/xlink" width="54.55" height="54.55" viewBox="0 0 54.55 54.55"><defs><linearGradient id="a" x1="0.5" x2="0.5" y2="1" gradientUnits="objectBoundingBox"><stop offset="0" stop-color="#ff2c32"/><stop offset="1" stop-color="#d81f0c"/></linearGradient><filter id="b" x="0" y="0" width="54.55" height="54.55" filterUnits="userSpaceOnUse"><feOffset dy="2" input="SourceAlpha"/><feGaussianBlur stdDeviation="3" result="c"/><feFlood flood-color="#dbe3ff"/><feComposite operator="in" in2="c"/><feComposite in="SourceGraphic"/></filter></defs><g transform="translate(-770 -2617)"><g transform="translate(625.5 2322)"><g transform="matrix(1, 0, 0, 1, 144.5, 295)" filter="url(#b)"><path d="M9.4,0H27.151a9.4,9.4,0,0,1,9.4,9.4V27.151a9.4,9.4,0,0,1-9.4,9.4H9.4a9.4,9.4,0,0,1-9.4-9.4V9.4A9.4,9.4,0,0,1,9.4,0Z" transform="translate(9 7)" fill="url(#a)"/></g></g><g transform="translate(782 2631)"><g transform="translate(-0.001)"><path d="M15.573,13.613a4.3,4.3,0,0,1-1.414-.661,6.549,6.549,0,0,1-3.648,1.915,5.543,5.543,0,0,1-3.6-1.893,13.8,13.8,0,0,1-2.166.912A4.364,4.364,0,0,0,.935,16.349a15.136,15.136,0,0,0-.821,2.029,2.244,2.244,0,0,0,0,1.414,2.239,2.239,0,0,0,.912,1.117l.41.251a1.473,1.473,0,0,0,.433.182l1.322.41q.752.205,1.322.319a28.73,28.73,0,0,0,3.808.456q1.733.091,3.853.023,1.619-.046,2.9-.182a25.606,25.606,0,0,0,2.85-.479,9.768,9.768,0,0,0,1.3-.388,5.842,5.842,0,0,0,1.231-.638,2.038,2.038,0,0,0,.8-.98,2.116,2.116,0,0,0,.068-1.277,7.862,7.862,0,0,0-1.254-2.873,3.527,3.527,0,0,0-2.052-1.642q-.958-.137-2.44-.456m9.9-.8a3.074,3.074,0,0,1-1.026-.524,4.866,4.866,0,0,1-2.691,1.437,4.045,4.045,0,0,1-2.668-1.437q.16.638-.547.775,2.987,1.824,3.785,6.681,1.938-.41,2.782-.5a14.337,14.337,0,0,0,2.1-.365,9.307,9.307,0,0,0,.98-.274,4.282,4.282,0,0,0,.912-.456,1.523,1.523,0,0,0,.638-1.687,5.883,5.883,0,0,0-.912-2.1,2.593,2.593,0,0,0-1.528-1.208,17.357,17.357,0,0,1-1.824-.365M22.642,2.827a6.33,6.33,0,0,1-.684-.091l-.638.068q-.365.046-.57.091a4.456,4.456,0,0,0-.866.3,3.092,3.092,0,0,0-1.8,2.121,6.124,6.124,0,0,0-.16.8q-.046.274-.114.821a1.619,1.619,0,0,1-.068.205l-.137.205a1.172,1.172,0,0,0-.091.228,2.412,2.412,0,0,0,.274,1.642l.114.16a.492.492,0,0,1,.137.16.392.392,0,0,1,.114.114.488.488,0,0,1,.091.114,7.242,7.242,0,0,0,.73,1.368,5.381,5.381,0,0,0,1.049,1.14,2.973,2.973,0,0,0,1.779.707,2.846,2.846,0,0,0,1.779-.661,5.928,5.928,0,0,0,1.573-2.052,3.092,3.092,0,0,0,.228-.456,2.134,2.134,0,0,1,.319-.433,1.332,1.332,0,0,0,.274-.5,1.956,1.956,0,0,0,.114-.593,1.87,1.87,0,0,0,0-.593.912.912,0,0,0-.228-.547s-.023,0-.023-.046V6.5a2.039,2.039,0,0,0-.046-.479A3.438,3.438,0,0,0,25.081,4.1,3.238,3.238,0,0,0,23.9,3.192a4.159,4.159,0,0,0-1.254-.365M24.329,6.59l-.114-.41h.023a.529.529,0,0,0,.114.068.26.26,0,0,1,.091.091q.182.342.524,1.094a.885.885,0,0,1,.046.114.374.374,0,0,0,.023.114.3.3,0,0,1,.251.046.365.365,0,0,1,.114.205,1.56,1.56,0,0,1-.228,1.208.292.292,0,0,1-.137.137.794.794,0,0,0-.205.137q-.251.456-.365.707-.228.456-.41.752a4.514,4.514,0,0,1-.3.365l-.342.342a2.581,2.581,0,0,1-1.277.661,2.184,2.184,0,0,1-.912-.046,2.39,2.39,0,0,1-.821-.433,3.767,3.767,0,0,1-.912-.98,7.155,7.155,0,0,1-.638-1.186L18.765,9.3a.237.237,0,0,1-.228,0,.67.67,0,0,1-.16-.182A1.368,1.368,0,0,1,18.2,8.5a3.192,3.192,0,0,1,0-.638.347.347,0,0,1,.091-.182.242.242,0,0,1,.205,0l.137-.41a3.137,3.137,0,0,1,.182-.388,1.368,1.368,0,0,1,.684-.661,1.459,1.459,0,0,1,.958-.046,4,4,0,0,0,2.235.046,1.427,1.427,0,0,1,1.094.137l.5.274M11.743.137,10.83,0,9.964.091Q9.508.16,9.189.228A4.446,4.446,0,0,0,5.677,3.192l-.091.274A9.526,9.526,0,0,0,5.381,4.56q-.068.388-.16,1.117a.967.967,0,0,1-.091.274,3.4,3.4,0,0,0-.182.3.73.73,0,0,0-.137.3A3.288,3.288,0,0,0,5.2,8.756a1.272,1.272,0,0,0,.16.228l.16.182.16.16q.091.114.137.182a9.34,9.34,0,0,0,.98,1.824A7.155,7.155,0,0,0,8.208,12.86a3.676,3.676,0,0,0,2.394.958A3.844,3.844,0,0,0,13,12.906,7.848,7.848,0,0,0,15.14,10.17q.091-.205.3-.616a2.736,2.736,0,0,1,.456-.593,1.651,1.651,0,0,0,.388-.684,4.533,4.533,0,0,0,.137-.8,5.144,5.144,0,0,0,0-.8,1.368,1.368,0,0,0-.342-.73.132.132,0,0,1,0-.091V5.723s0-.219-.023-.616q0-.388-.023-.638a5.573,5.573,0,0,0-.3-1.277A4.268,4.268,0,0,0,15,1.824a4.387,4.387,0,0,0-2.28-1.5,7.753,7.753,0,0,0-.98-.182m3.192,6.339a.707.707,0,0,1,.046.16.565.565,0,0,1,.342.046q.091.046.137.274a2.148,2.148,0,0,1-.3,1.642.515.515,0,0,1-.182.182q-.182.114-.274.16-.342.638-.5.98-.319.616-.57,1a4.145,4.145,0,0,1-.388.524q-.319.3-.479.456a3.147,3.147,0,0,1-1.687.912,2.791,2.791,0,0,1-1.231-.046,3.511,3.511,0,0,1-1.072-.57,4.966,4.966,0,0,1-1.254-1.322,9.431,9.431,0,0,1-.844-1.619l-.137-.365a.383.383,0,0,1-.319-.046,1.053,1.053,0,0,1-.205-.228,2.107,2.107,0,0,1-.251-.844,2.777,2.777,0,0,1,.046-.844.306.306,0,0,1,.114-.251.246.246,0,0,1,.251,0q.137-.365.205-.57a3.566,3.566,0,0,1,.228-.524,1.906,1.906,0,0,1,.935-.866,1.984,1.984,0,0,1,1.3-.068,5.719,5.719,0,0,0,3.033.046,1.9,1.9,0,0,1,1.459.205l.684.342L13.84,4.7h.068a.971.971,0,0,0,.137.091.306.306,0,0,1,.114.137q.251.456.73,1.482a.7.7,0,0,1,.046.068Z" transform="translate(0.001)" fill="#fff"/></g></g></g></svg>