<svg xmlns="http://www.w3.org/2000/svg" xmlns:xlink="http://www.w3.org/1999/xlink" width="54.55" height="54.55" viewBox="0 0 54.55 54.55"><defs><linearGradient id="a" x1="0.5" x2="0.5" y2="1" gradientUnits="objectBoundingBox"><stop offset="0" stop-color="#ff5539"/><stop offset="1" stop-color="#d02e14"/></linearGradient><filter id="b" x="0" y="0" width="54.55" height="54.55" filterUnits="userSpaceOnUse"><feOffset dy="2" input="SourceAlpha"/><feGaussianBlur stdDeviation="3" result="c"/><feFlood flood-color="#dbe3ff"/><feComposite operator="in" in2="c"/><feComposite in="SourceGraphic"/></filter></defs><g transform="translate(-98 -1425)"><g transform="matrix(1, 0, 0, 1, 98, 1425)" filter="url(#b)"><path d="M9.4,0H27.151a9.4,9.4,0,0,1,9.4,9.4V27.151a9.4,9.4,0,0,1-9.4,9.4H9.4a9.4,9.4,0,0,1-9.4-9.4V9.4A9.4,9.4,0,0,1,9.4,0Z" transform="translate(9 7)" fill="url(#a)"/></g><g transform="translate(110 1440)"><g transform="translate(0 0)"><path d="M9.214,6.965A3.571,3.571,0,0,0,6.657,8.111,3.289,3.289,0,0,0,5.709,10.6a3.35,3.35,0,0,0,1.146,2.689,3.527,3.527,0,0,0,2.579.97,3.637,3.637,0,0,0,2.645-1.234,3.377,3.377,0,0,0,.9-2.711,3.69,3.69,0,0,0-1.256-2.491,3.566,3.566,0,0,0-2.513-.86M8.134,9.412A1.653,1.653,0,0,1,9.346,8.9a1.715,1.715,0,0,1,1.168.485A1.591,1.591,0,0,1,11,10.58a1.653,1.653,0,0,1-.485,1.256,1.763,1.763,0,0,1-1.278.507,1.49,1.49,0,0,1-1.1-.507,1.666,1.666,0,0,1-.485-1.19,1.644,1.644,0,0,1,.485-1.212m1.741.617a.776.776,0,0,0-.573-.22.692.692,0,0,0-.529.242.785.785,0,0,0-.242.573.957.957,0,0,0,.265.6.776.776,0,0,0,.6.22A.648.648,0,0,0,9.9,11.2a.9.9,0,0,0,.22-.6.714.714,0,0,0-.242-.551m16.62,9.478-.705-.816a2.138,2.138,0,0,0-2.072.11Q20.257,20.08,18.009,16.6l.154.088a3.086,3.086,0,0,1-.551-.507q-1.146-.683-1.653.088a2.2,2.2,0,0,0-.926-1.08,2.032,2.032,0,0,0-1.278,0q-1.168-.551-1.653-.749l-.11-.044a5.555,5.555,0,0,1-2.469.749A4.294,4.294,0,0,1,6.7,14.305a4.18,4.18,0,0,1-1.675-1.83,9.02,9.02,0,0,1-.353-1.014l-1.5-.309q-.11.044-.441-.463t-.485-.749a1.146,1.146,0,0,0-.4-.353,1.323,1.323,0,0,0-.4-.11q-.11,0-.331.022a1.565,1.565,0,0,0-.441.11.882.882,0,0,1-.265.154v.022A2.138,2.138,0,0,1,0,9.831V21.337H29.052l.022-.088-2.579-1.719m-.838-3.924a3.465,3.465,0,0,0-.088-2.491,3.831,3.831,0,0,0-1.741-1.9,3.306,3.306,0,0,0-2.4-.265,3.606,3.606,0,0,0-2.116,1.323,3.527,3.527,0,0,0-.705,2.843,4.1,4.1,0,0,0,1.521,2.491,2.209,2.209,0,0,0,1.323.573,4.572,4.572,0,0,0,2.645-.529,3.469,3.469,0,0,0,1.565-2.028M22.2,12.784a1.6,1.6,0,0,1,1.19.529,1.675,1.675,0,0,1,.022,2.381,1.763,1.763,0,0,1-1.19.507,1.644,1.644,0,0,1-1.212-.485,1.583,1.583,0,0,1-.507-1.168,1.733,1.733,0,0,1,1.7-1.763m.551,2.292a.882.882,0,0,0,.265-.573.758.758,0,0,0-.242-.551.785.785,0,0,0-.573-.242.824.824,0,0,0-.573.22.785.785,0,0,0-.242.573.811.811,0,0,0,1.367.573M28.258,3.593a2.451,2.451,0,0,0-1.212-.749Q22.88,1.631,18.053.132A2.262,2.262,0,0,0,16.664.088a2.292,2.292,0,0,0-1.1.794L14.328,2.4q-.794.97-1.234,1.521a.776.776,0,0,1-.4.309.882.882,0,0,1-.485.044L6.326,3.482A1.53,1.53,0,0,0,4.475,4.629L4.122,5.687l-.882-.2L2.821,6.943l.771.287a2.292,2.292,0,0,0,.353,1.323,1.512,1.512,0,0,0,1.014.573A6.247,6.247,0,0,1,7.23,6.568a4.21,4.21,0,0,1,3-.4,4.3,4.3,0,0,1,2.4,1.323,4.714,4.714,0,0,1,1.1,4.342l4.1,1.234a4.907,4.907,0,0,1,2.4-2.645,4.514,4.514,0,0,1,3.174-.265,4.267,4.267,0,0,1,2.2,1.411,4.814,4.814,0,0,1,.992,4.1.882.882,0,0,0,.749-.4l.309-.331a2.345,2.345,0,0,0,2.138.176q.705-1.014.088-1.631a1.287,1.287,0,0,0,.419-.507q0-3.659-1.058-3.968a2.72,2.72,0,0,0,0-.6q-.044-.485-.242-1.763-.176-1.1-.22-1.763a2.262,2.262,0,0,0-.529-1.323m-3.549.154q1.433.419,2.006.617a.573.573,0,0,1,.154.088.273.273,0,0,1,.066.154q0,.066.331,3.968l-3.681-1.1,1.124-3.7m-4.3-1.3,2.954.882L22.241,7.053l-2.954-.882,1.124-3.7m-4.122.265q.463-.639.639-.838a1.2,1.2,0,0,1,.507-.331,3.905,3.905,0,0,1,1.631.529l-1.1,3.659-3.218-.97Z" transform="translate(0 0)" fill="#fff"/></g></g></g></svg>