<svg xmlns="http://www.w3.org/2000/svg" width="21.377" height="28.503" viewBox="0 0 21.377 28.503"><path d="M12.47,7.571V0H1.336A1.333,1.333,0,0,0,0,1.336V27.167A1.333,1.333,0,0,0,1.336,28.5H20.041a1.333,1.333,0,0,0,1.336-1.336V8.907H13.806A1.34,1.34,0,0,1,12.47,7.571ZM16.1,19.6H12.47V24.05a.89.89,0,0,1-.891.891H9.8a.89.89,0,0,1-.891-.891V19.6H5.279a.891.891,0,0,1-.627-1.523l5.368-5.328a.949.949,0,0,1,1.338,0l5.368,5.328A.89.89,0,0,1,16.1,19.6ZM20.988,5.845,15.538.39A1.335,1.335,0,0,0,14.591,0h-.34V7.126h7.126v-.34A1.332,1.332,0,0,0,20.988,5.845Z" fill="#718daf"/></svg>