<svg xmlns="http://www.w3.org/2000/svg" width="21.058" height="21.058" viewBox="0 0 21.058 21.058"><path d="M10.529.562A10.529,10.529,0,1,0,21.058,11.092,10.527,10.527,0,0,0,10.529.562Zm0,4.076A3.736,3.736,0,1,1,6.793,8.374,3.736,3.736,0,0,1,10.529,4.638Zm0,14.6a8.136,8.136,0,0,1-6.22-2.9,4.734,4.734,0,0,1,4.182-2.539,1.039,1.039,0,0,1,.3.047,5.621,5.621,0,0,0,1.736.293,5.6,5.6,0,0,0,1.736-.293,1.039,1.039,0,0,1,.3-.047,4.734,4.734,0,0,1,4.182,2.539A8.136,8.136,0,0,1,10.529,19.243Z" transform="translate(0 -0.563)" fill="#fff"/></svg>