<svg xmlns="http://www.w3.org/2000/svg" width="21.147" height="21.147" viewBox="0 0 21.147 21.147"><path d="M13.015,2.25a10.342,10.342,0,0,0-10.382,10.3,10.2,10.2,0,0,0,1.49,5.319L2.25,23.4,8,21.572a10.4,10.4,0,0,0,15.4-9.02A10.342,10.342,0,0,0,13.015,2.25Zm5.162,14.214a2.682,2.682,0,0,1-1.836,1.184c-.487.026-.5.377-3.155-.776A10.832,10.832,0,0,1,8.81,12.733,5.091,5.091,0,0,1,7.83,9.974a2.942,2.942,0,0,1,1.01-2.158,1.017,1.017,0,0,1,.719-.3c.209,0,.344-.006.5,0s.387-.032.588.5.682,1.848.743,1.982a.481.481,0,0,1,0,.461,1.8,1.8,0,0,1-.281.429c-.139.149-.291.332-.415.446s-.282.263-.137.532a7.944,7.944,0,0,0,1.406,1.876,7.243,7.243,0,0,0,2.082,1.384c.26.142.416.126.577-.044s.691-.743.878-1,.362-.206.6-.11,1.518.782,1.778.923.434.214.5.326A2.18,2.18,0,0,1,18.178,16.464Z" transform="translate(-2.25 -2.25)" fill="#fff"/></svg>