<svg xmlns="http://www.w3.org/2000/svg" xmlns:xlink="http://www.w3.org/1999/xlink" width="54.55" height="54.55" viewBox="0 0 54.55 54.55"><defs><linearGradient id="a" x1="0.5" x2="0.5" y2="1" gradientUnits="objectBoundingBox"><stop offset="0" stop-color="#eaac22"/><stop offset="1" stop-color="#c78c08"/></linearGradient><filter id="b" x="0" y="0" width="54.55" height="54.55" filterUnits="userSpaceOnUse"><feOffset dy="2" input="SourceAlpha"/><feGaussianBlur stdDeviation="3" result="c"/><feFlood flood-color="#dbe3ff"/><feComposite operator="in" in2="c"/><feComposite in="SourceGraphic"/></filter></defs><g transform="translate(-99 -1655)"><g transform="matrix(1, 0, 0, 1, 99, 1655)" filter="url(#b)"><path d="M9.4,0H27.151a9.4,9.4,0,0,1,9.4,9.4V27.151a9.4,9.4,0,0,1-9.4,9.4H9.4a9.4,9.4,0,0,1-9.4-9.4V9.4A9.4,9.4,0,0,1,9.4,0Z" transform="translate(9 7)" fill="url(#a)"/></g><g transform="translate(112.032 1669.018)"><g transform="translate(-0.032 -0.017)"><path d="M9.391.283a1.422,1.422,0,0,0-.657.9,1.4,1.4,0,0,0,.058,1.1q-.346.193-.558.288-.346.153-.387.346a5.247,5.247,0,0,0-.5,1.35A2.394,2.394,0,0,0,7.6,5.709l-1.255.9q-.751.558-1.255.963a.841.841,0,0,0-.288.346.616.616,0,0,0-.153.387q-.1.684-.166,1.9-.094,1.291-.135,1.831a.787.787,0,0,1-.094.346,1.39,1.39,0,0,1-.211.306q-1.39,1.386-2.335,2.25a3.15,3.15,0,0,0-.751.945,1.98,1.98,0,0,0-.193,1.1,1.165,1.165,0,0,1-.211.54,3.807,3.807,0,0,0-.288,3.487,2.286,2.286,0,0,0,.8,1.138,2.376,2.376,0,0,0,1.291.288h9.62q5.575,0,9.566.058a3.514,3.514,0,0,0,1.543-.306,3.645,3.645,0,0,0,1.156-.945A10.178,10.178,0,0,0,25.279,19.7a9.323,9.323,0,0,0,1.039-3.15q.058-.54.094-1.1v-.616a1.687,1.687,0,0,1,.117-.706,1.062,1.062,0,0,1,.481-.5.76.76,0,0,0,.252-.252.324.324,0,0,0,.059-.306,2.965,2.965,0,0,0-.945-1.8,3.208,3.208,0,0,0-1.849-.981q-.54-.094-1.39-.211-.945-.094-1.444-.135.153-.558-.193-.751a2.421,2.421,0,0,0-.711-.207l-.45-1.755q.5-.252,1.5-.846a11.807,11.807,0,0,1,1.539-.729q.634-.288,1.831-.693,1.309-.45,1.908-.693a2.02,2.02,0,0,0,1.3-1.584A2.155,2.155,0,0,0,27.768.706,2.02,2.02,0,0,0,26.323-.01a2.083,2.083,0,0,0-1.543.5L22.931,2.078q-1.309,1.156-1.8,1.6-.252.193-.715.5a7.524,7.524,0,0,1-.693.45,2.556,2.556,0,0,1-.751.45,1.8,1.8,0,0,1-.945.058q-.792-.193-1.93-.4a4.828,4.828,0,0,0-.6-.04q-1.755-.252-2.605-.346a1.467,1.467,0,0,1-.634-.252q-.225-.355-.576-.859l-.553-.846a1.228,1.228,0,0,0,.31-.751,1.377,1.377,0,0,0-.31-.9,1.35,1.35,0,0,0-.8-.585,1.107,1.107,0,0,0-.945.135m.135,1a.373.373,0,0,1,.058-.252.688.688,0,0,1,.5-.144.787.787,0,0,1,.346,0,1.894,1.894,0,0,1,.4.058.5.5,0,0,1,.387.193q.058.094-.04.306l-.5.04a1.894,1.894,0,0,1-.4.058,2.461,2.461,0,0,1-.634-.058q-.058,0-.117-.193m1.2.288a.657.657,0,0,0,.117.306.616.616,0,0,1,0,.306q0,.094-.153.135a.517.517,0,0,1-.252.094.684.684,0,0,1-.31-.184,3.7,3.7,0,0,1-.288-.252l.9-.4m14.3-.738a1.8,1.8,0,0,1,1.156-.4,1.638,1.638,0,0,1,1.08.4,1.6,1.6,0,0,1,.657.945,1.507,1.507,0,0,1-.045,1.134,1.485,1.485,0,0,1-.747.846,1.458,1.458,0,0,1-1.1.27A1.4,1.4,0,0,1,25,3.541a1.651,1.651,0,0,1-.558-1.1.13.13,0,0,1-.041-.094,2.371,2.371,0,0,1-.963,1q-1.084.688-1.2.765a1.449,1.449,0,0,1,.45-1.386q1.39-1.156,2.335-1.89m-3.15,2.83.252.945-5.305,3.24-.153-.094.153-.4a1.12,1.12,0,0,1,.193-.288q.4-.252,4.878-3.388M18.359,5.57a3.5,3.5,0,0,1-.6.5,1.35,1.35,0,0,1-.751.094q-.288-.04-.9-.153-.751-.094-2.043-.229-.45-.117-.558.04a.849.849,0,0,0-.027.589q.04.346.135.9.058.288.153.945l-1.638-.207-.81-3.469,7.037.981m1,2.529a.486.486,0,0,1,.095-.288.679.679,0,0,1,.5-.306L20.3,9.035,19.241,8.94a.657.657,0,0,0,.117-.4V8.09m-.4-.153-.072.958-1.1-.135-.058-.117L18.98,7.95M16.73,11.4q-.211-.5-.31-.751.657.04,1.89.153,1.1.094,1.849.229a2.178,2.178,0,0,1,1.485,1,2.389,2.389,0,0,1,.346,1.8l-6.075-.54.589-.7a1.089,1.089,0,0,0,.346-.558,2.016,2.016,0,0,0-.135-.634m2.988-.9-3.357-.346A.976.976,0,0,1,15.866,10a2.961,2.961,0,0,0-1.543-.792,8.1,8.1,0,0,0-1.66-.252H12.41a.373.373,0,0,1-.193-.058.258.258,0,0,1-.153-.094,1.008,1.008,0,0,0-.193-.153.279.279,0,0,0,.193-.094.3.3,0,0,1,.211,0q1.233.094,2.74.306,3.28.387,5.728.693A.932.932,0,0,0,21,9.647a.328.328,0,0,0,.193.094,6.5,6.5,0,0,0-.6.4q-.288.153-.5.252a.855.855,0,0,1-.387.094m1.93.058.058-.153q.54.04,1.638.193,1,.153,1.66.306a2.2,2.2,0,0,1,1.089.733,5.62,5.62,0,0,1,.751,1.309l-3.393-.306a.279.279,0,0,1-.193-.094q-.094-.058-.094-.094a2.9,2.9,0,0,0-1.5-1.89m1.6,10.192a1.035,1.035,0,0,0-.4.117A1.732,1.732,0,0,1,22.5,21l.058.211,1,.094A2.34,2.34,0,0,1,21.653,22q-.634-.058-.985-.058a3.082,3.082,0,0,0-.945.058,9.508,9.508,0,0,0,2.389-3.834,14.7,14.7,0,0,0,.693-4.432l2.488.193a2.169,2.169,0,0,1,.6.117q.094.094.058.693-.058.094-.252.094a1.858,1.858,0,0,0-.346-.058q-.45-.04-.5.45l1.138.135L25.837,16.8a1.822,1.822,0,0,1-.792.094.549.549,0,0,0-.6.45l1.255.094a.864.864,0,0,0-.153.346,1.116,1.116,0,0,0-.058.288.936.936,0,0,1-.346.657.711.711,0,0,1-.693.153.846.846,0,0,0-.45,0q-.193.094-.193.45l.985.058a1.638,1.638,0,0,1-.513,1.057,1.971,1.971,0,0,1-1.039.288M11.475,3.676v.252l-2.7,1.039V2.825a.94.94,0,0,0,.288.094l.252.094a2.007,2.007,0,0,0,.85.45,1.03,1.03,0,0,0,.9-.306q.04-.04.193.058t.153.153a.819.819,0,0,1,.04.288m.274,7.582a3.311,3.311,0,0,0-.153-.306,2.371,2.371,0,0,0-.135-.252,1.678,1.678,0,0,0-.715-.792,1.467,1.467,0,0,0-1.039.094q-.6.252-1.485.657a14.529,14.529,0,0,1-1.467.7,1.183,1.183,0,0,1-.45.153A16.284,16.284,0,0,1,8.289,10.2a6.227,6.227,0,0,1,2.2-.81A8.158,8.158,0,0,1,12.667,9.3a10.255,10.255,0,0,1,2.164.54,2.7,2.7,0,0,1,1,.81,7.236,7.236,0,0,1,.6,1.291q-3.528-.306-4.338-.4-.153,0-.346-.288m4.144-2.736L14.638,8.36l-.153-2.137,2.353.288-.945,2M5.746,15.33a2.623,2.623,0,0,1,.153.9,1.714,1.714,0,0,1-.6.5l-1.35.9-.094.04-.6-.607L5.746,15.33m.792-.45a.9.9,0,0,0,.153-.229h.153l.058.54a.45.45,0,0,0,.229.058,1,1,0,0,0,.31.04q.288.058.252.45L7,15.856l-.058.193a.981.981,0,0,1,1.039.346l.31.4a1.615,1.615,0,0,0,.4.387l-.364.211a1.719,1.719,0,0,0,1.548-.76,4.05,4.05,0,0,0,.229-4.275q.058-.153.117-.153a.693.693,0,0,1,.252-.153.157.157,0,0,1,.094.058.036.036,0,0,1,.04.04,4.441,4.441,0,0,1,.5,2.7,4.3,4.3,0,0,1-1.1,2.542,1.957,1.957,0,0,1-1.543.693,1.75,1.75,0,0,1-1.35-1,3.15,3.15,0,0,1-.391-.9q-.153-.711-.252-1a1.957,1.957,0,0,1,.04-.306M2.565,17.507l.252.117.193.135a2.488,2.488,0,0,1,.45,1.944,2.52,2.52,0,0,1-.792,1.8,1.075,1.075,0,0,1-.9.252,1.156,1.156,0,0,1-.792-.45,2.029,2.029,0,0,1-.45-1.192A1.957,1.957,0,0,1,.72,18.862V19.9l.657.211-.346.252.976.972q.6-.04,1-1.08a2.34,2.34,0,0,0,.094-1.35,2.376,2.376,0,0,0-.639-1.188l.094-.211m1.291,3.1a1.881,1.881,0,0,1,.18-.558,1.561,1.561,0,0,1,.346-.6.747.747,0,0,1,.634-.193.765.765,0,0,1,.558.45,2.632,2.632,0,0,1,.135.693,2.448,2.448,0,0,1-.094.657,2.974,2.974,0,0,1-.346.634.715.715,0,0,1-.693.252.6.6,0,0,1-.54-.355,2.191,2.191,0,0,1-.193-.981m2.443-.558a1.948,1.948,0,0,1,.657-1.192,1.1,1.1,0,0,1,.751-.252.756.756,0,0,1,.6.5q.04.153.153.5.04.153.135.657-.193.45-.288.693a6.084,6.084,0,0,1-.45.693.7.7,0,0,1-.751.288.841.841,0,0,1-.657-.54,2.151,2.151,0,0,1-.153-1.35m9.449-5.913a2.493,2.493,0,0,0-.387-.058,1.548,1.548,0,0,0-.45.058.258.258,0,0,0-.153.094l-.153.153a.283.283,0,0,1,.094.135.274.274,0,0,0,.211.117,1.485,1.485,0,0,0,.387.04h.45q0,.058-.04.5v.4q.04.481-.153.634a.971.971,0,0,1-.693.094.769.769,0,0,0-.31.117,1.161,1.161,0,0,1-.229.135l.04.211L15.5,16.9q-.058.252-.211.711a5.606,5.606,0,0,1-.193.634.63.63,0,0,1-.261.189,2.758,2.758,0,0,0-.45.058,1.323,1.323,0,0,0-.45.058q-.252.041-.193.45l1.138.094q-.31.5-.4.693a3.411,3.411,0,0,1-.45.6q-.058.094-.346.153a1.1,1.1,0,0,0-.5.058q-.04,0-.792.193l.04.252.85.094.094.153-.693.387a1.314,1.314,0,0,1-.693.252,8.1,8.1,0,0,1-1.737.058H8.329a7.865,7.865,0,0,0,2.9-4.239q.252-.981.5-2.425.31-1.7.45-2.542l3.6.193v1.156M6.786,19.6a.936.936,0,0,0-.193.792,2.776,2.776,0,0,0,.693,1.057,1.894,1.894,0,0,0,.693-.657,1.48,1.48,0,0,0,.117-.945,1.089,1.089,0,0,0-.211-.45q-.193-.252-.346-.252a.481.481,0,0,0-.4.094,1.111,1.111,0,0,0-.346.346M5.494,20.644a4.981,4.981,0,0,0-.193-.693.481.481,0,0,0-.45-.288.522.522,0,0,0-.558.229,1.215,1.215,0,0,0-.193.6,1.251,1.251,0,0,0,.3.648q.252.45.4.346a4.2,4.2,0,0,0,.346-.4,2.965,2.965,0,0,1,.346-.45M25.743.832a1.156,1.156,0,0,0-.733.733,1.422,1.422,0,0,0-.076,1.125,1.6,1.6,0,0,0,.751.81,1.417,1.417,0,0,0,1.044.09,1.35,1.35,0,0,0,.792-.765l-1.7.5-.094-.189q1.255-.6,1.755-.81.252-.094.288-.252a.387.387,0,0,0-.153-.346L25.473,2.924l-.252-.135a2.25,2.25,0,0,1,.756-1,3.568,3.568,0,0,0,.9-.9A1.984,1.984,0,0,0,25.725.845Z" transform="translate(0.032 0.017)" fill="#fff"/></g></g></g></svg>