<svg xmlns="http://www.w3.org/2000/svg" xmlns:xlink="http://www.w3.org/1999/xlink" width="54.55" height="54.55" viewBox="0 0 54.55 54.55"><defs><linearGradient id="a" x1="0.5" x2="0.5" y2="1" gradientUnits="objectBoundingBox"><stop offset="0" stop-color="#ff006c"/><stop offset="1" stop-color="#c90055"/></linearGradient><filter id="b" x="0" y="0" width="54.55" height="54.55" filterUnits="userSpaceOnUse"><feOffset dy="2" input="SourceAlpha"/><feGaussianBlur stdDeviation="3" result="c"/><feFlood flood-color="#dbe3ff"/><feComposite operator="in" in2="c"/><feComposite in="SourceGraphic"/></filter></defs><g transform="translate(-325 -2228)"><g transform="matrix(1, 0, 0, 1, 325, 2228)" filter="url(#b)"><path d="M9.4,0H27.151a9.4,9.4,0,0,1,9.4,9.4V27.151a9.4,9.4,0,0,1-9.4,9.4H9.4a9.4,9.4,0,0,1-9.4-9.4V9.4A9.4,9.4,0,0,1,9.4,0Z" transform="translate(9 7)" fill="url(#a)"/></g><path d="M19.745,7.194a5.072,5.072,0,0,0,1.474-.141,3.481,3.481,0,0,0,1.177-.54c.051-.036.161-.136.277-.243.224-.2.487-.435.606-.435a2.036,2.036,0,0,1,.635.409c.066.054.122.1.158.127a5.457,5.457,0,0,0,.907.54,3.406,3.406,0,0,0,.878.27,1.426,1.426,0,0,0,.214,0c.243,0,.506,0,.618.156a.392.392,0,0,1,.066.182.791.791,0,0,1,0,.187c-.022.212-.056.445-.1.7a.805.805,0,0,1,.591.423.674.674,0,0,1,.058.4.956.956,0,0,1-.148.377,1.243,1.243,0,0,1-.92.538c-.051.151-.1.3-.163.443a5.639,5.639,0,0,1-.5.973,2.854,2.854,0,0,0,.944-.63,3.893,3.893,0,0,0,1-2.012,5.508,5.508,0,0,0-.083-2.391,4.121,4.121,0,0,0-1.024-1.885c-.095-.092-.243-.207-.372-.319a3.543,3.543,0,0,0-.336-.243.545.545,0,1,1-.474-.813h.058a1.7,1.7,0,0,0-.922-1.2,2.708,2.708,0,0,0-2.18-.136A1.958,1.958,0,0,0,20.971,3.25a.545.545,0,0,1,.487.35.54.54,0,0,1-.049-.2.562.562,0,1,1,.036.2.545.545,0,0,1-1.01.4,5.012,5.012,0,0,0-1.864,2.859,4.914,4.914,0,0,0-.107,1.81,3.81,3.81,0,0,0,.581,1.6,3.216,3.216,0,0,0,1.46,1.216,3.3,3.3,0,0,1-.287-.462,7.731,7.731,0,0,1-.311-.9,1.238,1.238,0,0,1-.893-.535.956.956,0,0,1-.148-.377.674.674,0,0,1,.058-.4.8.8,0,0,1,.552-.414,4.513,4.513,0,0,1-.071-.581c-.015-.324.051-.552.243-.618h0a.243.243,0,0,1,.083-.015Zm10.04,13.841v.148H.209V20.9H0c.3-3.579-.078-6.187,3.742-7.525a5.727,5.727,0,0,0,1.652-.817A13.867,13.867,0,0,0,5.88,11.2l.061-.185h0a10.758,10.758,0,0,1-.832-1.207L4.24,8.43a2.533,2.533,0,0,1-.487-1.263,1,1,0,0,1,.085-.45.842.842,0,0,1,.3-.348.993.993,0,0,1,.209-.107A22.061,22.061,0,0,1,4.3,3.78a3.518,3.518,0,0,1,.107-.562A3.655,3.655,0,0,1,6.819.88C7.367.693,7.16-.032,7.7,0A7.374,7.374,0,0,1,11.768,2.07c1.075,1.241.8,2.769.761,4.282h0a.63.63,0,0,1,.46.472,1.906,1.906,0,0,1-.243,1.187h0a.083.083,0,0,1-.015.029l-.988,1.63a8.114,8.114,0,0,1-1.282,1.737l-.034.032.2.307c.18.27.387.579.577.827a5.416,5.416,0,0,0,1.53.757c1.9.662,3.216.878,3.734,2.511.793-1.5,2.951-1.849,4.163-2.044a4.058,4.058,0,0,0,.684-.136.178.178,0,0,0,.056-.08.452.452,0,0,0,.027-.151v-1a.185.185,0,0,1,.007-.024c-.1-.083-.207-.168-.307-.258a.243.243,0,0,1-.112,0,3.8,3.8,0,0,1-2.333-1.6A4.292,4.292,0,0,1,18,8.736a5.544,5.544,0,0,1,2.37-5.25.243.243,0,0,1,.107-.039.214.214,0,0,1,0-.124,2.433,2.433,0,0,1,1.555-1.837,3.143,3.143,0,0,1,2.537.156,2.129,2.129,0,0,1,1.192,1.774.243.243,0,0,1-.032.129.263.263,0,0,1,.071.032c.139.09.331.229.513.37a5.248,5.248,0,0,1,.411.355,4.588,4.588,0,0,1,1.148,2.1A5.953,5.953,0,0,1,27.963,9a4.335,4.335,0,0,1-1.126,2.253,3.428,3.428,0,0,1-1.584.91.229.229,0,0,1-.161-.017,2.316,2.316,0,0,1-.209.173l-.041.029-.182.134a.27.27,0,0,1,0,.046v.907a.45.45,0,0,0,.029.151.178.178,0,0,0,.056.08,3.936,3.936,0,0,0,.684.136c1.5.243,4.464.715,4.464,3.345v3.7a.243.243,0,0,1-.109.2ZM6.4,14.29a1.147,1.147,0,0,1,0-1.718,5.109,5.109,0,0,1,1.793.859,5.063,5.063,0,0,0,1.946.934,1.165,1.165,0,0,0,.063-1.9,8.166,8.166,0,0,0-1.946.934,4.136,4.136,0,0,1-1.854.886ZM4.866,6.663a.834.834,0,0,0-.438.114.343.343,0,0,0-.127.144.5.5,0,0,0-.039.243,2.092,2.092,0,0,0,.411,1.007h0l.869,1.379a7.354,7.354,0,0,0,1.165,1.533,2.387,2.387,0,0,0,1.664.671,2.46,2.46,0,0,0,1.761-.7,7.7,7.7,0,0,0,1.2-1.637l.973-1.611a1.631,1.631,0,0,0,.207-.856c-.027-.1-.134-.144-.316-.153h-.255a.258.258,0,0,1-.075,0,1.423,1.423,0,0,1-.268-.015L11.935,5.3c-2.486.392-4.345-1.46-6.97-.37l.19,1.747a1.7,1.7,0,0,1-.29-.015Zm.8,6.379-.022.027c.341,1.9,1.17,2.71,2.623,4.223,1.584-1.394,2.589-2.233,2.764-4.214A12.7,12.7,0,0,1,10.257,12c-.063-.1-.124-.19-.182-.272a2.978,2.978,0,0,1-3.705-.3l-.051-.049a8.31,8.31,0,0,1-.664,1.649Zm11,3.727c.027.243.044.487.051.757,1.112-1.9,5.131-2.477,6.286.718a3.664,3.664,0,0,1,6.428-.659v-.443c0-2.233-2.7-2.676-4.07-2.888a2.523,2.523,0,0,1-.9-.226.633.633,0,0,1-.207-.277,1.027,1.027,0,0,1-.058-.311v-.657a2.075,2.075,0,0,1-1.328.321,2.26,2.26,0,0,1-.258-.049,2.756,2.756,0,0,1-.27-.088h0c-.148-.073-.3-.156-.448-.243v.73a.9.9,0,0,1-.058.311.647.647,0,0,1-.2.277,2.523,2.523,0,0,1-.9.226c-1.292.209-3.761.606-4.046,2.516ZM5.766,6.727A.141.141,0,0,1,5.6,6.5a1.4,1.4,0,0,1,.808-.282,1.423,1.423,0,0,1,.825.282.139.139,0,0,1,.036.195.141.141,0,0,1-.195.036,1.143,1.143,0,0,0-.664-.243,1.109,1.109,0,0,0-.647.231Zm1.817,3.523a.117.117,0,0,1,.022-.2.243.243,0,0,1,.275.017.859.859,0,0,0,.506.124.864.864,0,0,0,.506-.127.243.243,0,0,1,.277-.012.114.114,0,0,1,.017.2,1.326,1.326,0,0,1-.8.224,1.331,1.331,0,0,1-.8-.224Zm1.988-2.71a.136.136,0,0,1-.039-.192.139.139,0,0,1,.2-.051.886.886,0,0,0,.487.107A.988.988,0,0,0,10.7,7.3a.141.141,0,0,1,.195.041.139.139,0,0,1-.044.192,1.243,1.243,0,0,1-.637.173,1.153,1.153,0,0,1-.647-.163Zm-3.686,0a.138.138,0,1,1,.146-.234.907.907,0,0,0,.487.112A1.041,1.041,0,0,0,7.041,7.3a.141.141,0,0,1,.139.243,1.321,1.321,0,0,1-.652.161,1.175,1.175,0,0,1-.642-.161Zm3.81-.81A.139.139,0,0,1,9.5,6.7a.144.144,0,0,1,.034-.2,1.4,1.4,0,0,1,.808-.282,1.428,1.428,0,0,1,.825.282.145.145,0,0,1-.158.243,1.151,1.151,0,0,0-.667-.243,1.119,1.119,0,0,0-.647.231Zm2.956,9.829h2.083a.131.131,0,0,1,.129.131v.153a.129.129,0,0,1-.129.129H12.651a.129.129,0,0,1-.129-.129v-.153a.131.131,0,0,1,.129-.131Zm8.1-8.208a.139.139,0,0,1-.163-.226,1.243,1.243,0,0,1,.73-.243,1.287,1.287,0,0,1,.744.243.141.141,0,0,1,.034.195.136.136,0,0,1-.192.034,1.051,1.051,0,0,0-.586-.2.988.988,0,0,0-.567.2Zm2.277,7.106.487.487-.487.487-.487-.487Zm0,.326.17.168-.17.17-.168-.17ZM24,15.387a.287.287,0,1,0,.287.287A.287.287,0,0,0,24,15.387Zm-1.924,0a.287.287,0,1,1-.287.287.287.287,0,0,1,.287-.287Zm2.662-.438a.287.287,0,1,0,.287.287A.287.287,0,0,0,24.742,14.949Zm-3.406,0a.287.287,0,1,1-.287.287A.287.287,0,0,1,21.336,14.949Zm3.956-.63a.287.287,0,1,0,.287.287A.287.287,0,0,0,25.292,14.319Zm-4.508,0a.287.287,0,1,1-.287.287A.287.287,0,0,1,20.784,14.319Zm1.7-2.966a.129.129,0,0,1,.078-.161.127.127,0,0,1,.158.075.212.212,0,0,0,.131.117.589.589,0,0,0,.409.01.265.265,0,0,0,.165-.131.124.124,0,1,1,.229.095.5.5,0,0,1-.311.272.861.861,0,0,1-.3.044.822.822,0,0,1-.292-.058.465.465,0,0,1-.27-.263Zm1.9-2.19-.136.17a.141.141,0,0,1-.219-.175l.09-.112a.141.141,0,0,1-.022-.18.144.144,0,0,1,.195-.039.764.764,0,0,0,.416.092.847.847,0,0,0,.431-.112.141.141,0,0,1,.192.044.139.139,0,0,1-.039.19l.1.109a.141.141,0,1,1-.207.19l-.165-.182-.161.029v.163a.141.141,0,0,1-.28,0V9.2a1.7,1.7,0,0,1-.195-.032Zm-3.275,0-.136.168a.136.136,0,0,1-.195.022.139.139,0,0,1-.022-.2l.085-.107a.139.139,0,0,1-.029-.185.144.144,0,0,1,.195-.039.764.764,0,0,0,.406.1h.061a.924.924,0,0,0,.406-.107.142.142,0,1,1,.148.243l.09.1a.144.144,0,0,1,0,.2.141.141,0,0,1-.2,0l-.161-.175a1.392,1.392,0,0,0-.165.029v.156a.141.141,0,0,1-.28,0V9.215a1.231,1.231,0,0,1-.2-.034Zm3.163-.83a.141.141,0,0,1-.195-.034.139.139,0,0,1,.034-.192,1.231,1.231,0,0,1,.73-.243,1.287,1.287,0,0,1,.744.243.139.139,0,1,1-.158.229,1.044,1.044,0,0,0-.586-.2.988.988,0,0,0-.567.2ZM19.789,9.729c-.088-.311-.173-.642-.243-.956a.433.433,0,0,0-.29.209.311.311,0,0,0-.024.185.542.542,0,0,0,.09.224.847.847,0,0,0,.467.338Zm.1-1.153.307,1.243a9.219,9.219,0,0,0,.348,1.041,3.562,3.562,0,0,0,.769.973,4.956,4.956,0,0,0,1.158.793c.075.029.148.051.217.071a1.615,1.615,0,0,0,.212.039,2.463,2.463,0,0,0,1.722-.691l.041-.032a3.633,3.633,0,0,0,1.051-1.572,11.218,11.218,0,0,0,.671-2.769.431.431,0,0,0,0-.1c0-.015,0-.017,0-.019h-.316a1.82,1.82,0,0,1-.27,0,3.649,3.649,0,0,1-.973-.3,5.625,5.625,0,0,1-.973-.579c-.034-.024-.1-.075-.175-.139-.163-.134-.392-.324-.4-.324s-.18.18-.355.338q-.141.135-.294.255a3.817,3.817,0,0,1-1.3.6,5.338,5.338,0,0,1-1.547.151l.012.243a4.927,4.927,0,0,0,.109.766Zm6.722.2-.243.959a.842.842,0,0,0,.47-.341.543.543,0,0,0,.09-.224.311.311,0,0,0-.024-.185.426.426,0,0,0-.292-.209ZM24.175,2.839a.566.566,0,1,1-.4.166.564.564,0,0,1,.4-.166Zm-1.1-.165a.545.545,0,1,1-.545.545A.545.545,0,0,1,23.073,2.673Z" transform="translate(337 2243.004)" fill="#fff" fill-rule="evenodd"/></g></svg>