<svg xmlns="http://www.w3.org/2000/svg" width="21.16" height="21.16" viewBox="0 0 21.16 21.16"><path d="M15.428,12.68c-.265-.132-1.558-.764-1.8-.852s-.417-.132-.593.132-.68.85-.832,1.025-.308.185-.57.066a7.156,7.156,0,0,1-2.119-1.309A8,8,0,0,1,8.051,9.917c-.153-.265-.017-.41.115-.542s.265-.3.4-.461a2.235,2.235,0,0,0,.262-.437A.485.485,0,0,0,8.8,8.014c-.066-.132-.592-1.428-.813-1.945s-.429-.45-.592-.45-.327-.013-.5-.013a.994.994,0,0,0-.7.317,2.943,2.943,0,0,0-.921,2.182,5.159,5.159,0,0,0,1.075,2.711,11.756,11.756,0,0,0,4.5,3.954c.63.265,1.12.423,1.5.555A3.648,3.648,0,0,0,14,15.432a2.713,2.713,0,0,0,1.777-1.257,2.182,2.182,0,0,0,.159-1.256c-.065-.119-.238-.185-.5-.3m-4.8,6.562H10.62A8.82,8.82,0,0,1,6.163,17.96l-.317-.189-3.306.86.886-3.214-.211-.331A8.744,8.744,0,0,1,16.834,4.3,8.63,8.63,0,0,1,19.4,10.462a8.755,8.755,0,0,1-8.759,8.715M18.092,3.041A10.705,10.705,0,0,0,10.62,0,10.483,10.483,0,0,0,1.5,15.727L0,21.16,5.585,19.7A10.635,10.635,0,0,0,10.62,20.98h.005A10.527,10.527,0,0,0,21.16,10.491a10.4,10.4,0,0,0-3.081-7.416" fill="#fff"/></svg>