<svg xmlns="http://www.w3.org/2000/svg" xmlns:xlink="http://www.w3.org/1999/xlink" width="54.55" height="54.55" viewBox="0 0 54.55 54.55"><defs><linearGradient id="a" x1="0.5" x2="0.5" y2="1" gradientUnits="objectBoundingBox"><stop offset="0" stop-color="#ff24ee"/><stop offset="1" stop-color="#c700b8"/></linearGradient><filter id="b" x="0" y="0" width="54.55" height="54.55" filterUnits="userSpaceOnUse"><feOffset dy="2" input="SourceAlpha"/><feGaussianBlur stdDeviation="3" result="c"/><feFlood flood-color="#dbe3ff"/><feComposite operator="in" in2="c"/><feComposite in="SourceGraphic"/></filter></defs><g transform="translate(-98 -823)"><g transform="matrix(1, 0, 0, 1, 98, 823)" filter="url(#b)"><path d="M9.4,0H27.151a9.4,9.4,0,0,1,9.4,9.4V27.151a9.4,9.4,0,0,1-9.4,9.4H9.4a9.4,9.4,0,0,1-9.4-9.4V9.4A9.4,9.4,0,0,1,9.4,0Z" transform="translate(9 7)" fill="url(#a)"/></g><g transform="translate(114.015 832.994)"><g transform="translate(-0.015 0.006)"><path d="M.61,7.714A1.293,1.293,0,0,0,.7,8.33a2.772,2.772,0,0,1,.154.616,1.047,1.047,0,0,1,0,.616q-.031.123-.216.616a1.367,1.367,0,0,0,.123,1.232q.123.216.185.308a.967.967,0,0,1,.123.308.986.986,0,0,1,.123.524.616.616,0,0,1-.246.493L.8,13.2.7,13.38a4.786,4.786,0,0,0-.37,4.312,4.41,4.41,0,0,0,.77,1.293,3.363,3.363,0,0,0,1.232.924.56.56,0,0,1,.246.185,1.367,1.367,0,0,1,.123.246,10.742,10.742,0,0,0,1.94,3.942,8.814,8.814,0,0,0,6.437,3.437,8.33,8.33,0,0,0,5.913-2.033,4.09,4.09,0,0,0,.493-.431q.185-.154.524-.493v.185a9.523,9.523,0,0,1-.154,1.367,5.543,5.543,0,0,1-.4,1.324,2.285,2.285,0,0,0-.062,1.571,1.146,1.146,0,0,0,.8.862,1.232,1.232,0,0,0,.862,0,.973.973,0,0,0,.647-.505,2.217,2.217,0,0,0-.092-2.125q-.185-.277-.277-.431a1.848,1.848,0,0,1-.216-.462,5.291,5.291,0,0,1-.246-1.478,13.279,13.279,0,0,1,0-1.509,1.706,1.706,0,0,1,.092-.216,12.448,12.448,0,0,0,1.355-3.08.425.425,0,0,1,.092-.216.456.456,0,0,1,.216-.123A3.08,3.08,0,0,0,22.138,18.7a5.014,5.014,0,0,0,.8-2.033,5.112,5.112,0,0,0-.092-2.033,4.2,4.2,0,0,0-.955-1.848.357.357,0,0,0-.062-.092.277.277,0,0,1-.031-.123q.062-.462.092-.678a3.344,3.344,0,0,1,.154-.678,2.593,2.593,0,0,0,.154-.8,1.367,1.367,0,0,0-.246-.77.493.493,0,0,1-.123-.4.505.505,0,0,1,.154-.37.992.992,0,0,0,.277-.678,1.731,1.731,0,0,0-.185-.708,5.427,5.427,0,0,0-1.232-1.694,1.306,1.306,0,0,1-.37-.616,1.232,1.232,0,0,1,.185-.616q.154-.277.123-.37a1.029,1.029,0,0,0-.277-.308l-.862-.616a9.116,9.116,0,0,1-.862-.678A10.471,10.471,0,0,0,12.732.045,14.013,14.013,0,0,0,6.573.969q-.8.308-1.848.77l-1.879.832A1.6,1.6,0,0,0,2.261,3q-.216.185-.185.339a.548.548,0,0,0,.246.308,1.01,1.01,0,0,1,.37.462.733.733,0,0,1-.123.554q-.123.216-.339.524a4.927,4.927,0,0,0-.37.493q-.37.493-.524.739l-.524.739a1.472,1.472,0,0,0-.185.554m3.819.277q.092-1.078.123-1.6a.234.234,0,0,1,0-.092A.5.5,0,0,0,4.6,6.174.887.887,0,0,1,4.94,5.62a.844.844,0,0,1,.647,0l.339.062A.69.69,0,0,0,6.665,5.4a.733.733,0,0,1,.721-.339.875.875,0,0,1,.678.37,2.6,2.6,0,0,1,.431.708,6.394,6.394,0,0,1,.246.8q.154.616.216.8a.554.554,0,0,0,.185.277.7.7,0,0,0,.308.123.45.45,0,0,0,.277-.092.85.85,0,0,0,.216-.246,1.361,1.361,0,0,0,.185-.462,1.965,1.965,0,0,0,0-.493q0-.154,0-.678V5.546a1.232,1.232,0,0,1,.493-1.016.813.813,0,0,1,.554-.185.616.616,0,0,1,.462.339,5.864,5.864,0,0,1,.493,1.078q.123.37.308.955a6.08,6.08,0,0,0,.277.924,3.08,3.08,0,0,0,.154.431q.277.339.4.339a.413.413,0,0,0,.246-.092A1.047,1.047,0,0,0,13.73,8.1a5.71,5.71,0,0,0,.339-1.047q.031-.216.123-.708t.154-.708A1.934,1.934,0,0,1,17.087,4.16a2.747,2.747,0,0,1,1.232.955,3.979,3.979,0,0,1,.524,1.324A7.256,7.256,0,0,1,18.9,8.133a16.31,16.31,0,0,0,.185,1.971q.092.955.216,3.141a2.8,2.8,0,0,1,.708.246q.616.277.924,1.725a2.969,2.969,0,0,1-.554,2.464,1.232,1.232,0,0,1-.37.308.7.7,0,0,1-.462.154,1,1,0,0,0-.77.554.807.807,0,0,1-.37.37.788.788,0,0,1-.493,0,8.081,8.081,0,0,0-.955-.185.807.807,0,0,0-.554.062.733.733,0,0,0-.277.493,6.037,6.037,0,0,0-.092.739,7.344,7.344,0,0,1-.062.77,1.669,1.669,0,0,1-.339.893,1.583,1.583,0,0,1-.832.493l-.493.154a1.786,1.786,0,0,0-.708.4,1.232,1.232,0,0,0-.277.8,1.232,1.232,0,0,1-.708,1.232,3.7,3.7,0,0,1-1.54.462,3.382,3.382,0,0,1-1.324-.154,6.775,6.775,0,0,1-1.2-.493,7.311,7.311,0,0,1-3.85-4.712q-.062-.246-.154-.554a3.948,3.948,0,0,0-.123-.554,1,1,0,0,0-.32-.431,1.146,1.146,0,0,0-.493-.277,2.371,2.371,0,0,1-.77-.462,2.568,2.568,0,0,1-.708-1.54,5.543,5.543,0,0,1,0-1.447,1.953,1.953,0,0,1,.77-1.047,1.263,1.263,0,0,1,1.4-.265,8.857,8.857,0,0,0,.092-.955q0-.4-.031-1.447-.062-.893-.062-1.417.031-.647.123-1.632m9.917,11.98h-.031a.443.443,0,0,0,.123.37.616.616,0,0,0,.308.092.745.745,0,0,0,.431-.092.382.382,0,0,0,.185-.524.253.253,0,0,1-.092-.154l-.062-.216a.216.216,0,0,0-.216-.154.283.283,0,0,0-.246.062l-.092.123-.031.062-.092.092-.154.216-.031.092m4-1.848a.265.265,0,0,0,0-.339.363.363,0,0,0-.216-.185.277.277,0,0,0-.339-.123.579.579,0,0,0-.308.062q-.123,0-.185.216-.123,0-.031.092a.3.3,0,0,0-.308.277.259.259,0,0,0,.185.339h.185a2.562,2.562,0,0,0,.955-.246l.062-.092m-6.529,3.3a1.694,1.694,0,0,1,.462-.277l.462.339q-.092.216.185.431l.185.154a3.67,3.67,0,0,1,.8.062h.277a.216.216,0,0,0,.246-.246.376.376,0,0,0-.123-.339.856.856,0,0,0-.37-.062l-.462.031-.123-.062a.307.307,0,0,1,.031-.123q.123-.277-.185-.4h-.185l-.154-.062-.123-.123a.727.727,0,0,0-1.047.031l-.092.092a.431.431,0,0,1-.37,0H11.02l-.277-.154a.388.388,0,0,0-.37.062q-.154.092-.092.339l.154.185a1.367,1.367,0,0,0,.8.216.844.844,0,0,0,.585-.062m-2.71.154h-.37l-.308-.092a.924.924,0,0,0-.339,0q-.4.062-.462.616a.776.776,0,0,0,.277.524,1.651,1.651,0,0,0,.585.216,3.043,3.043,0,0,0,.524,0q2.31,1.6,2.987.493a1.349,1.349,0,0,1,.493-.616.616.616,0,0,0,.308-.277q-3.572-.339-3.7-.862m-.493-1.244a.125.125,0,0,0-.062-.092l-.185-.092H8.279l-.154.092-.062.092-.031.092.031.123.062.123q.246.185.4,0h.062l.092-.123-.062-.216m1.17.246.031-.154-.031-.031-.062-.154h0l-.062-.062a.462.462,0,0,0-.554-.062v.031l-.062.062a.216.216,0,0,0-.031.185l.031.154h0q0,.062.123.123l.154.154q.216.185.4-.062l.062-.123m.493-1.17v.154a.246.246,0,0,1,0,.154.844.844,0,0,0,.185,0,.179.179,0,0,0,.123,0l.339-.246.308-.277a.579.579,0,0,1,.37-.154.511.511,0,0,1,.339.185,1.5,1.5,0,0,1,.216.185,1.047,1.047,0,0,0,.216.216l.308.216a.234.234,0,0,1,.031-.092h0a.93.93,0,0,0,0-.154,3.763,3.763,0,0,0-.893-1.909.462.462,0,0,0-.739,0,3.646,3.646,0,0,0-.862,1.786M10,16.078a2.747,2.747,0,0,0,.308-1.17l-5.79-.862v.123a4.188,4.188,0,0,0,.585,1.725,3.425,3.425,0,0,0,1.324,1.232,3.474,3.474,0,0,0,1.417.431A2.131,2.131,0,0,0,9.264,17,4.164,4.164,0,0,0,10,16.109M7.416,15a.844.844,0,0,1,.8.8.7.7,0,0,1-.246.554.7.7,0,0,1-.554.246.819.819,0,0,1-.554-.216.764.764,0,0,1-.246-.554.8.8,0,0,1,.246-.616.868.868,0,0,1,.554-.246m1.447-2.464a.9.9,0,0,0-.308-.185,1.072,1.072,0,0,0-.708-.092H7.632l-.216-.062a1.454,1.454,0,0,0-.647-.123q-1.54.4-1.509.8A.388.388,0,0,0,5.353,13,.825.825,0,0,0,6,13.276a5.094,5.094,0,0,1,.77,0l.493.123a2.211,2.211,0,0,0,.832,0,2.156,2.156,0,0,0,1.324.554q.955.123.493-.524a2.87,2.87,0,0,0-.739-.8l-.308-.154m7.114.554q-.431.092-.647.123l-.616.154a4.225,4.225,0,0,0-1.016.462,3.431,3.431,0,0,0-.8.739.986.986,0,0,0-.216.678,2.538,2.538,0,0,0,.37,1.109,2.612,2.612,0,0,0,.77.8,2.464,2.464,0,0,0,1.047.37,2.858,2.858,0,0,0,1.17-.123,3.628,3.628,0,0,0,2.433-3.283.505.505,0,0,0-.031-.154.2.2,0,0,0-.092-.123,4.053,4.053,0,0,0-2.341-.893m-.986,3.326a.764.764,0,0,1-.246-.554.8.8,0,0,1,.246-.616.973.973,0,0,1,.554-.246.8.8,0,1,1,0,1.6.819.819,0,0,1-.554-.216m4.435,1.324h.062l.092-.123-.062-.216a.125.125,0,0,0-.062-.092l-.185-.092-.092.031-.154.092L19,17.2l-.031.092.031.123.062.123q.246.185.4,0M16.3,7.837a.2.2,0,0,0-.154-.154.326.326,0,0,0-.277,0A1.035,1.035,0,0,0,15.6,8.3a.573.573,0,0,1-.4.339,1.848,1.848,0,0,1-.554.062h-.524a1.306,1.306,0,0,0-.4,0,.277.277,0,0,0-.246.277.3.3,0,0,0,.154.277l.277.185.216.277A.345.345,0,0,0,14.4,9.9q.062.462-.123.554a.764.764,0,0,1-.216.092.2.2,0,0,0-.154.123l-.462.092-.308.123a.3.3,0,0,0-.123.246.228.228,0,0,0,.092.246.659.659,0,0,0,.339.062,3.591,3.591,0,0,1,1.663.493.283.283,0,0,0,.123.37.3.3,0,0,0,.4-.062.788.788,0,0,0,.185-.308,1.983,1.983,0,0,0,.37-.462l.092-.092.154-.031.8.062a.37.37,0,0,0,.37-.062q.185-.123.062-.37l-.308-.431a2.045,2.045,0,0,1-.031-1.078l.031-.123.185-.185q.308.123.4-.154a.271.271,0,0,0-.062-.431.561.561,0,0,0-.554,0,1.33,1.33,0,0,1-.585,0,1.592,1.592,0,0,1-.216-.185l-.154-.154L16.3,7.929m.431,1.324-.062.062.031.339-.031.062a3.037,3.037,0,0,0,0,.862q.123.062.123.154h-.77l-.154.123-.123.154h-.031l-.062.154-.216.216-.37-.216-.524-.185a.53.53,0,0,1,.154-.154l.185-.062q.123-.123.092-.216h.031l.031-.708-.031-.031-.031-.185h-.031l-.031-.092a.277.277,0,0,1-.142-.289,1.232,1.232,0,0,0,.554,0h.216l.154-.185a.665.665,0,0,0,.308-.246H16.1l.216.216.092.031.092.092a1.029,1.029,0,0,0,.234.012Z" transform="translate(0.015 -0.006)" fill="#fff"/></g></g></g></svg>